<svg width="79" height="81" viewBox="0 0 79 81" fill="none" xmlns="http://www.w3.org/2000/svg">
<g opacity="0.75">
<path d="M0.735718 1.354C26.3402 1.37253 51.9447 1.39105 77.5493 1.354C77.5323 27.5605 77.5493 53.7608 77.5493 79.9674C51.9447 79.9674 26.3402 79.9674 0.735718 79.9674C0.74702 53.7608 0.741369 27.5605 0.735718 1.354Z" stroke="url(#paint0_linear_885_283)" stroke-miterlimit="10"/>
<path d="M0.741211 76.2252C26.3457 76.2061 51.9446 76.2188 77.5491 76.2252" stroke="url(#paint1_linear_885_283)" stroke-miterlimit="10"/>
<path d="M0.735596 72.4829C26.3458 72.2853 51.9277 72.4149 77.5435 72.4829" stroke="url(#paint2_linear_885_283)" stroke-miterlimit="10"/>
<path d="M0.735596 68.7347C7.08728 68.6235 13.4729 67.9072 19.8189 68.3024C25.2608 68.6359 30.6179 70.0808 36.0767 70.1425C49.8764 70.3093 63.7099 68.6544 77.5491 68.7347" stroke="url(#paint3_linear_885_283)" stroke-miterlimit="10"/>
<path d="M0.735596 64.9926C6.75952 64.8382 12.8456 63.8687 18.8696 64.3936C24.2493 64.8691 29.4595 66.8389 34.8674 66.95C42.4623 67.1044 50.0459 65.2766 57.6295 64.8444C64.2581 64.4677 70.9262 64.9308 77.5548 64.9864" stroke="url(#paint4_linear_885_283)" stroke-miterlimit="10"/>
<path d="M0.735596 61.2506C6.58999 61.0838 12.5179 59.9476 18.3723 60.5404C23.7124 61.0838 28.8153 63.3871 34.2006 63.5168C42.112 63.7082 50.012 61.547 57.9064 61.0653C64.4389 60.6639 71.0166 61.1826 77.5548 61.2444" stroke="url(#paint5_linear_885_283)" stroke-miterlimit="10"/>
<path d="M0.72998 57.5085C6.74826 57.3417 12.823 56.0697 18.8413 56.6872C24.125 57.2306 29.1487 59.5215 34.4775 59.645C48.7858 59.9723 63.1788 57.3603 77.5548 57.5023" stroke="url(#paint6_linear_885_283)" stroke-miterlimit="10"/>
<path d="M0.72998 53.7605C7.2851 53.5135 13.908 51.9142 20.4631 52.5811C25.5434 53.0998 30.3749 55.2548 35.4947 55.4339C49.4639 55.9094 63.5687 53.9334 77.5548 53.7605" stroke="url(#paint7_linear_885_283)" stroke-miterlimit="10"/>
<path d="M0.735596 50.0185C7.99708 49.6418 15.3603 47.6288 22.6275 48.3513C27.4308 48.8329 32.008 50.8027 36.8396 51.0744C50.4923 51.8586 63.919 50.6113 77.5491 50.0185" stroke="url(#paint8_linear_885_283)" stroke-miterlimit="10"/>
<path d="M0.741211 46.2766C8.67516 45.7765 16.7617 43.3559 24.7013 44.1463C29.2277 44.597 33.5846 46.3569 38.1336 46.7521C42.9878 47.172 47.8138 48.265 52.6736 48.5984C60.9296 49.1665 69.3044 46.8571 77.5435 46.2828" stroke="url(#paint9_linear_885_283)" stroke-miterlimit="10"/>
<path d="M0.741211 42.5281C9.12159 41.96 17.6771 39.2554 26.0632 40.0952C30.4088 40.5274 34.6244 42.1453 38.9869 42.6022C43.2534 43.0468 47.2713 44.8437 51.5095 45.3933C59.9972 46.5048 69.0557 43.2135 77.5378 42.5281" stroke="url(#paint10_linear_885_283)" stroke-miterlimit="10"/>
<path d="M0.741211 38.7862C9.13854 38.2305 17.6941 35.4332 26.0971 36.2915C30.4427 36.7361 34.6527 38.3787 39.0152 38.8418C43.293 39.2987 47.3786 40.9536 51.6338 41.4785C60.082 42.5159 69.0953 39.5149 77.5378 38.7924" stroke="url(#paint11_linear_885_283)" stroke-miterlimit="10"/>
<path d="M0.741211 35.0442C8.76558 34.4761 16.9256 31.5986 24.9612 32.4508C29.5046 32.9324 33.8106 34.9207 38.3879 35.2789C51.5038 36.3039 64.4163 35.7111 77.5435 35.0504" stroke="url(#paint12_linear_885_283)" stroke-miterlimit="10"/>
<path d="M0.735596 31.3021C8.19487 30.7031 15.7446 27.733 23.2265 28.5728C28.0637 29.1162 32.5562 31.5923 37.4499 31.7714C43.7394 31.9999 50.012 30.4006 56.2959 30.098C63.3822 29.7584 70.4685 31.0613 77.5491 31.3021" stroke="url(#paint13_linear_885_283)" stroke-miterlimit="10"/>
<path d="M0.72998 27.5599C7.61851 26.9239 14.5014 23.8796 21.4238 24.6947C26.5605 25.2999 31.2734 28.2392 36.478 28.27C44.1124 28.3194 51.5943 24.7812 59.1779 23.929C65.49 23.2189 71.3444 26.6398 77.5492 27.5537" stroke="url(#paint14_linear_885_283)" stroke-miterlimit="10"/>
<path d="M0.72998 23.8117C7.20033 23.1572 13.552 20.0512 20.0676 20.8354C25.419 21.4776 30.3014 24.7565 35.7377 24.7194C44.4119 24.6639 52.7979 19.588 61.3874 18.3345C67.7278 17.4145 71.5648 23.435 77.5548 23.8055" stroke="url(#paint15_linear_885_283)" stroke-miterlimit="10"/>
<path d="M0.735596 20.0701C7.08163 19.4155 13.2751 16.3095 19.672 17.0752C25.08 17.7236 30.0358 21.0704 35.5286 21.0519C44.5306 21.0148 53.1709 15.3648 62.0768 14.0433C68.4794 13.0924 71.6552 20.0145 77.5548 20.0701" stroke="url(#paint16_linear_885_283)" stroke-miterlimit="10"/>
<path d="M0.735596 16.3279C7.17204 15.7228 13.5237 13.0861 19.9997 13.753C25.4303 14.3087 30.5388 17.2048 36.0259 17.1616C44.5532 17.0936 52.7866 12.308 61.2348 11.1348C67.53 10.2641 71.5761 16.0686 77.5548 16.3279" stroke="url(#paint17_linear_885_283)" stroke-miterlimit="10"/>
<path d="M0.735596 12.5859C7.36983 12.166 13.9702 10.2518 20.627 10.7334C26.0971 11.1286 31.4034 13.2528 36.9074 13.1911C44.6266 13.0984 52.1198 9.67751 59.7938 8.85624C65.976 8.19552 71.4913 11.7523 77.5548 12.5859" stroke="url(#paint18_linear_885_283)" stroke-miterlimit="10"/>
<path d="M0.735596 8.84399C7.60717 8.65257 14.4675 7.54107 21.3447 7.80659C26.877 8.02272 32.3527 9.25153 37.8963 9.19596C44.7001 9.13421 51.3852 7.17675 58.172 6.76303C64.6932 6.36165 71.0562 8.46732 77.5491 8.84399" stroke="url(#paint19_linear_885_283)" stroke-miterlimit="10"/>
<path d="M0.735596 5.10176C26.3514 5.02766 51.939 4.95973 77.5435 5.10176" stroke="url(#paint20_linear_885_283)" stroke-miterlimit="10"/>
<path d="M73.8875 1.35962C74.2774 27.5785 74.0174 53.6677 73.8875 79.9668" stroke="url(#paint21_linear_885_283)" stroke-miterlimit="10"/>
<path d="M70.2313 1.35962C70.7681 8.21382 72.7855 14.7408 72.1244 21.6752C71.4689 28.5171 68.762 34.6859 68.6208 41.6574C68.4964 47.9003 70.7116 53.6553 70.949 59.8735C71.2032 66.5054 70.3952 73.3349 70.2313 79.9668" stroke="url(#paint22_linear_885_283)" stroke-miterlimit="10"/>
<path d="M66.5807 1.35376C67.7391 8.08446 71.0619 13.0923 69.9656 20.1441C68.762 27.9061 63.8965 34.3589 63.6987 42.4357C63.5405 48.7959 67.3944 53.5445 67.8747 59.8059C68.372 66.2649 66.8915 73.5019 66.5807 79.9733" stroke="url(#paint23_linear_885_283)" stroke-miterlimit="10"/>
<path d="M62.9243 1.34741C63.6137 9.14638 69.3212 10.2208 67.6428 18.7731C65.9758 27.2575 59.0816 34.1302 58.9064 43.121C58.7765 49.7838 64.0206 53.2726 64.7269 59.7316C65.4107 65.9621 63.3481 73.7179 62.9186 79.9669" stroke="url(#paint24_linear_885_283)" stroke-miterlimit="10"/>
<path d="M59.2626 1.34741C60.0312 9.5107 66.7332 8.70796 64.761 17.9889C62.868 26.8808 54.6967 34.0129 54.5837 43.5285C54.5045 50.4383 60.5285 53.0318 61.3592 59.6822C62.122 65.8016 59.7317 73.8167 59.2626 79.9608" stroke="url(#paint25_linear_885_283)" stroke-miterlimit="10"/>
<path d="M55.6123 1.34741C56.4373 9.2143 62.3482 9.65272 60.5569 18.3841C58.7768 27.0599 51.391 34.1241 51.2271 43.3494C51.1085 50.0431 56.5334 53.3837 57.2793 59.8489C57.98 65.956 56.0418 73.8352 55.6066 79.9669" stroke="url(#paint26_linear_885_283)" stroke-miterlimit="10"/>
<path d="M51.9559 1.34741C53.12 7.94226 56.1885 12.8637 55.0753 19.7364C53.7756 27.7453 48.7971 34.4513 48.5032 42.7752C48.2828 49.0181 51.6734 54.2235 52.165 60.3861C52.6679 66.6908 52.0576 73.6314 51.9559 79.9731" stroke="url(#paint27_linear_885_283)" stroke-miterlimit="10"/>
<path d="M48.2886 1.35376C48.5316 8.05976 49.5827 14.8213 49.0063 21.515C48.4016 28.4803 46.322 34.9949 46.0225 42.0344C45.48 54.7671 47.4466 67.3887 48.2886 79.9609" stroke="url(#paint28_linear_885_283)" stroke-miterlimit="10"/>
<path d="M44.621 1.35962C44.0672 8.65841 42.9144 15.8893 43.0274 23.2313C43.1178 29.2334 43.6942 35.3219 43.5021 41.3239C43.2817 48.1719 40.9705 54.9397 41.0157 61.7754C41.0552 67.9503 43.7168 73.9647 44.621 79.9668" stroke="url(#paint29_linear_885_283)" stroke-miterlimit="10"/>
<path d="M40.9647 1.35962C39.9758 8.89924 37.1334 16.692 37.8059 24.386C38.2975 30.0238 40.7048 35.0687 40.6483 40.8238C40.5748 48.3449 36.1388 54.7606 36.1219 62.2262C36.1106 68.3332 39.8006 74.15 40.9647 79.9606" stroke="url(#paint30_linear_885_283)" stroke-miterlimit="10"/>
<path d="M37.3142 1.35962C36.3253 8.92394 33.1043 16.7291 33.8897 24.491C34.4605 30.1658 37.3425 34.7908 37.3029 40.657C37.252 48.3757 32.2849 54.563 32.2962 62.2323C32.3075 68.4196 36.1332 74.0821 37.3142 79.973" stroke="url(#paint31_linear_885_283)" stroke-miterlimit="10"/>
<path d="M33.6524 1.35962C32.7257 8.68311 29.6176 16.2845 30.4822 23.7747C31.1547 29.5853 34.3983 34.161 34.3588 40.2124C34.3079 48.0361 28.9508 53.927 28.8547 61.6827C28.7756 67.9256 32.5335 74.0018 33.6524 79.973" stroke="url(#paint32_linear_885_283)" stroke-miterlimit="10"/>
<path d="M29.9963 1.35376C29.1769 8.26971 26.1593 15.6426 27.233 22.6759C28.1428 28.6224 31.8328 33.2474 31.7876 39.5088C31.7311 47.4683 25.8541 52.964 25.5377 60.8371C25.2834 67.1664 28.9735 73.8539 29.9963 79.9671" stroke="url(#paint33_linear_885_283)" stroke-miterlimit="10"/>
<path d="M26.3402 1.34741C25.6281 7.89904 22.78 14.9261 24.0063 21.5333C25.1308 27.5971 29.3182 32.3148 29.2617 38.78C29.1883 46.8692 22.7405 51.982 22.2376 59.9601C21.8307 66.4191 25.419 73.6747 26.3402 79.9669" stroke="url(#paint34_linear_885_283)" stroke-miterlimit="10"/>
<path d="M22.684 1.34741C22.0398 7.67674 19.3782 14.3395 20.661 20.6812C21.9098 26.8561 26.5267 31.5985 26.4588 38.2366C26.3741 46.4369 19.4743 51.2349 18.8414 59.2994C18.3328 65.851 21.8251 73.5388 22.684 79.9546" stroke="url(#paint35_linear_885_283)" stroke-miterlimit="10"/>
<path d="M19.0221 1.35376C18.3835 7.58429 15.8236 14.2285 17.0951 20.4591C18.3609 26.6711 23.0851 31.432 23.0117 38.1194C22.9213 46.3383 15.9084 51.0436 15.2755 59.1266C14.7613 65.6783 18.1575 73.539 19.0221 79.9671" stroke="url(#paint36_linear_885_283)" stroke-miterlimit="10"/>
<path d="M15.3659 1.34741C14.7952 7.67674 12.58 14.5556 13.7215 20.8726C14.8291 26.9735 18.8695 31.9875 18.7904 38.4589C18.6944 46.3258 12.6874 51.4819 12.128 59.2376C11.6533 65.7892 14.5861 73.5141 15.3603 79.9669" stroke="url(#paint37_linear_885_283)" stroke-miterlimit="10"/>
<path d="M11.7097 1.35376C11.3085 7.96096 9.64712 15.0622 10.5287 21.6508C11.3255 27.6097 14.2357 32.9201 14.1736 39.0889C14.0944 46.4309 9.79405 52.1736 9.40414 59.4477C9.04813 66.0982 11.1559 73.3661 11.7154 79.9671" stroke="url(#paint38_linear_885_283)" stroke-miterlimit="10"/>
<path d="M8.05358 1.35376C7.85015 8.35616 6.89513 15.5315 7.38111 22.5277C7.78798 28.3568 9.46632 33.9019 9.42676 39.799C9.38155 46.6347 6.97425 52.8652 6.78211 59.6824C6.59563 66.4007 7.76538 73.2488 8.05358 79.9609" stroke="url(#paint39_linear_885_283)" stroke-miterlimit="10"/>
<path d="M4.39738 1.35962C4.25046 27.6093 4.17134 53.7356 4.39738 79.973" stroke="url(#paint40_linear_885_283)" stroke-miterlimit="10"/>
</g>
<path d="M77.73 0.72998H0.72998V80.0349H77.73V0.72998Z" stroke="#05C174" stroke-width="1.46" stroke-miterlimit="10"/>
<path d="M6.38098 45.7098C8.49411 46.6064 10.6074 47.5031 12.7205 48.3997V30.615C10.6074 31.5116 8.49411 32.4082 6.38098 33.3048V28.0848C12.7428 23.1105 19.1159 18.1361 25.4778 13.1741V25.2231C23.3534 26.1197 21.2291 27.0285 19.0935 27.9251V51.1141C21.2179 52.0107 23.3422 52.9197 25.4778 53.8163V65.8651C19.1159 60.8908 12.7428 55.9164 6.38098 50.9544V45.7344V45.7098Z" stroke="#05C174" stroke-width="2" stroke-miterlimit="10"/>
<path d="M28.3103 10.9514C30.2998 9.4038 32.2781 7.8439 34.2676 6.29633C35.7625 14.8448 37.1002 23.4179 38.3591 32.0155C39.573 23.2091 40.9442 14.4272 42.4504 5.66992C44.4399 7.21749 46.4182 8.77739 48.4076 10.325V68.6781C46.5755 70.1152 44.7432 71.5399 42.9111 72.9769V38.2549C41.8321 45.2803 40.8205 52.3303 39.8539 59.3803C38.6512 59.9085 38.0443 59.5401 36.8416 59.012C35.8974 52.0848 34.8971 45.1821 33.8293 38.2795V72.3505C31.9972 70.9135 30.1649 69.4887 28.3328 68.0517V10.9514H28.3103Z" stroke="#05C174" stroke-width="2" stroke-miterlimit="10"/>
<path d="M57.6018 27.5691C55.2077 26.5497 52.8137 25.5424 50.4196 24.523V11.9092C57.3209 17.3011 64.2222 22.6929 71.1236 28.0849V33.3048C68.7295 32.2854 66.3355 31.2783 63.9414 30.2588V56.543C61.8282 58.1888 59.715 59.8469 57.6018 61.4928V27.5691Z" stroke="#05C174" stroke-width="2" stroke-miterlimit="10"/>
<defs>
<linearGradient id="paint0_linear_885_283" x1="0.45317" y1="40.6638" x2="77.8318" y2="40.6638" gradientUnits="userSpaceOnUse">
<stop stop-color="#3305C1"/>
<stop offset="0.93" stop-color="#1C0951"/>
</linearGradient>
<linearGradient id="paint1_linear_885_283" x1="0.741211" y1="76.2188" x2="77.5491" y2="76.2188" gradientUnits="userSpaceOnUse">
<stop stop-color="#3305C1"/>
<stop offset="0.93" stop-color="#1C0951"/>
</linearGradient>
<linearGradient id="paint2_linear_885_283" x1="0.735596" y1="72.4273" x2="77.5492" y2="72.4273" gradientUnits="userSpaceOnUse">
<stop stop-color="#3305C1"/>
<stop offset="0.93" stop-color="#1C0951"/>
</linearGradient>
<linearGradient id="paint3_linear_885_283" x1="0.729945" y1="69.1731" x2="77.5491" y2="69.1731" gradientUnits="userSpaceOnUse">
<stop stop-color="#3305C1"/>
<stop offset="0.93" stop-color="#1C0951"/>
</linearGradient>
<linearGradient id="paint4_linear_885_283" x1="0.724294" y1="65.5977" x2="77.5548" y2="65.5977" gradientUnits="userSpaceOnUse">
<stop stop-color="#3305C1"/>
<stop offset="0.93" stop-color="#1C0951"/>
</linearGradient>
<linearGradient id="paint5_linear_885_283" x1="0.729945" y1="61.9545" x2="77.5548" y2="61.9545" gradientUnits="userSpaceOnUse">
<stop stop-color="#3305C1"/>
<stop offset="0.93" stop-color="#1C0951"/>
</linearGradient>
<linearGradient id="paint6_linear_885_283" x1="0.72433" y1="58.0951" x2="77.5548" y2="58.0951" gradientUnits="userSpaceOnUse">
<stop stop-color="#3305C1"/>
<stop offset="0.93" stop-color="#1C0951"/>
</linearGradient>
<linearGradient id="paint7_linear_885_283" x1="0.72433" y1="53.9643" x2="77.5548" y2="53.9643" gradientUnits="userSpaceOnUse">
<stop stop-color="#3305C1"/>
<stop offset="0.93" stop-color="#1C0951"/>
</linearGradient>
<linearGradient id="paint8_linear_885_283" x1="0.724294" y1="49.7653" x2="77.5604" y2="49.7653" gradientUnits="userSpaceOnUse">
<stop stop-color="#3305C1"/>
<stop offset="0.93" stop-color="#1C0951"/>
</linearGradient>
<linearGradient id="paint9_linear_885_283" x1="0.724258" y1="46.3322" x2="77.5604" y2="46.3322" gradientUnits="userSpaceOnUse">
<stop stop-color="#3305C1"/>
<stop offset="0.93" stop-color="#1C0951"/>
</linearGradient>
<linearGradient id="paint10_linear_885_283" x1="0.724258" y1="42.7813" x2="77.5661" y2="42.7813" gradientUnits="userSpaceOnUse">
<stop stop-color="#3305C1"/>
<stop offset="0.93" stop-color="#1C0951"/>
</linearGradient>
<linearGradient id="paint11_linear_885_283" x1="0.724258" y1="38.9159" x2="77.5661" y2="38.9159" gradientUnits="userSpaceOnUse">
<stop stop-color="#3305C1"/>
<stop offset="0.93" stop-color="#1C0951"/>
</linearGradient>
<linearGradient id="paint12_linear_885_283" x1="0.724258" y1="34.0624" x2="77.5548" y2="34.0624" gradientUnits="userSpaceOnUse">
<stop stop-color="#3305C1"/>
<stop offset="0.93" stop-color="#1C0951"/>
</linearGradient>
<linearGradient id="paint13_linear_885_283" x1="0.718643" y1="30.1103" x2="77.5548" y2="30.1103" gradientUnits="userSpaceOnUse">
<stop stop-color="#3305C1"/>
<stop offset="0.93" stop-color="#1C0951"/>
</linearGradient>
<linearGradient id="paint14_linear_885_283" x1="0.707377" y1="26.047" x2="77.5944" y2="26.047" gradientUnits="userSpaceOnUse">
<stop stop-color="#3305C1"/>
<stop offset="0.93" stop-color="#1C0951"/>
</linearGradient>
<linearGradient id="paint15_linear_885_283" x1="0.707377" y1="21.4838" x2="77.5718" y2="21.4838" gradientUnits="userSpaceOnUse">
<stop stop-color="#3305C1"/>
<stop offset="0.93" stop-color="#1C0951"/>
</linearGradient>
<linearGradient id="paint16_linear_885_283" x1="0.707341" y1="17.5013" x2="77.5548" y2="17.5013" gradientUnits="userSpaceOnUse">
<stop stop-color="#3305C1"/>
<stop offset="0.93" stop-color="#1C0951"/>
</linearGradient>
<linearGradient id="paint17_linear_885_283" x1="0.707341" y1="14.0988" x2="77.5661" y2="14.0988" gradientUnits="userSpaceOnUse">
<stop stop-color="#3305C1"/>
<stop offset="0.93" stop-color="#1C0951"/>
</linearGradient>
<linearGradient id="paint18_linear_885_283" x1="0.718643" y1="10.9804" x2="77.5887" y2="10.9804" gradientUnits="userSpaceOnUse">
<stop stop-color="#3305C1"/>
<stop offset="0.93" stop-color="#1C0951"/>
</linearGradient>
<linearGradient id="paint19_linear_885_283" x1="0.729945" y1="7.95479" x2="77.5604" y2="7.95479" gradientUnits="userSpaceOnUse">
<stop stop-color="#3305C1"/>
<stop offset="0.93" stop-color="#1C0951"/>
</linearGradient>
<linearGradient id="paint20_linear_885_283" x1="0.735596" y1="5.05853" x2="77.5435" y2="5.05853" gradientUnits="userSpaceOnUse">
<stop stop-color="#3305C1"/>
<stop offset="0.93" stop-color="#1C0951"/>
</linearGradient>
<linearGradient id="paint21_linear_885_283" x1="73.6049" y1="40.6632" x2="74.3734" y2="40.6632" gradientUnits="userSpaceOnUse">
<stop stop-color="#3305C1"/>
<stop offset="0.93" stop-color="#1C0951"/>
</linearGradient>
<linearGradient id="paint22_linear_885_283" x1="68.3326" y1="40.6509" x2="72.5369" y2="40.6509" gradientUnits="userSpaceOnUse">
<stop stop-color="#3305C1"/>
<stop offset="0.93" stop-color="#1C0951"/>
</linearGradient>
<linearGradient id="paint23_linear_885_283" x1="63.4105" y1="40.6388" x2="70.4629" y2="40.6388" gradientUnits="userSpaceOnUse">
<stop stop-color="#3305C1"/>
<stop offset="0.93" stop-color="#1C0951"/>
</linearGradient>
<linearGradient id="paint24_linear_885_283" x1="58.6239" y1="40.651" x2="68.2362" y2="40.651" gradientUnits="userSpaceOnUse">
<stop stop-color="#3305C1"/>
<stop offset="0.93" stop-color="#1C0951"/>
</linearGradient>
<linearGradient id="paint25_linear_885_283" x1="54.3011" y1="40.6572" x2="65.4053" y2="40.6572" gradientUnits="userSpaceOnUse">
<stop stop-color="#3305C1"/>
<stop offset="0.93" stop-color="#1C0951"/>
</linearGradient>
<linearGradient id="paint26_linear_885_283" x1="50.9446" y1="40.651" x2="61.1785" y2="40.651" gradientUnits="userSpaceOnUse">
<stop stop-color="#3305C1"/>
<stop offset="0.93" stop-color="#1C0951"/>
</linearGradient>
<linearGradient id="paint27_linear_885_283" x1="48.2037" y1="40.6325" x2="55.5952" y2="40.6325" gradientUnits="userSpaceOnUse">
<stop stop-color="#3305C1"/>
<stop offset="0.93" stop-color="#1C0951"/>
</linearGradient>
<linearGradient id="paint28_linear_885_283" x1="45.6439" y1="40.6635" x2="49.4583" y2="40.6635" gradientUnits="userSpaceOnUse">
<stop stop-color="#3305C1"/>
<stop offset="0.93" stop-color="#1C0951"/>
</linearGradient>
<linearGradient id="paint29_linear_885_283" x1="40.7331" y1="40.6756" x2="44.9035" y2="40.6756" gradientUnits="userSpaceOnUse">
<stop stop-color="#3305C1"/>
<stop offset="0.93" stop-color="#1C0951"/>
</linearGradient>
<linearGradient id="paint30_linear_885_283" x1="35.8393" y1="40.6756" x2="41.2416" y2="40.6756" gradientUnits="userSpaceOnUse">
<stop stop-color="#3305C1"/>
<stop offset="0.93" stop-color="#1C0951"/>
</linearGradient>
<linearGradient id="paint31_linear_885_283" x1="32.0136" y1="40.6756" x2="37.5911" y2="40.6756" gradientUnits="userSpaceOnUse">
<stop stop-color="#3305C1"/>
<stop offset="0.93" stop-color="#1C0951"/>
</linearGradient>
<linearGradient id="paint32_linear_885_283" x1="28.5722" y1="40.6756" x2="34.6413" y2="40.6756" gradientUnits="userSpaceOnUse">
<stop stop-color="#3305C1"/>
<stop offset="0.93" stop-color="#1C0951"/>
</linearGradient>
<linearGradient id="paint33_linear_885_283" x1="25.2438" y1="40.6697" x2="32.0702" y2="40.6697" gradientUnits="userSpaceOnUse">
<stop stop-color="#3305C1"/>
<stop offset="0.93" stop-color="#1C0951"/>
</linearGradient>
<linearGradient id="paint34_linear_885_283" x1="21.9211" y1="40.6633" x2="29.5443" y2="40.6633" gradientUnits="userSpaceOnUse">
<stop stop-color="#3305C1"/>
<stop offset="0.93" stop-color="#1C0951"/>
</linearGradient>
<linearGradient id="paint35_linear_885_283" x1="18.508" y1="40.6633" x2="26.7357" y2="40.6633" gradientUnits="userSpaceOnUse">
<stop stop-color="#3305C1"/>
<stop offset="0.93" stop-color="#1C0951"/>
</linearGradient>
<linearGradient id="paint36_linear_885_283" x1="14.9421" y1="40.6635" x2="23.2999" y2="40.6635" gradientUnits="userSpaceOnUse">
<stop stop-color="#3305C1"/>
<stop offset="0.93" stop-color="#1C0951"/>
</linearGradient>
<linearGradient id="paint37_linear_885_283" x1="11.7945" y1="40.6634" x2="19.073" y2="40.6634" gradientUnits="userSpaceOnUse">
<stop stop-color="#3305C1"/>
<stop offset="0.93" stop-color="#1C0951"/>
</linearGradient>
<linearGradient id="paint38_linear_885_283" x1="9.07073" y1="40.6635" x2="14.4504" y2="40.6635" gradientUnits="userSpaceOnUse">
<stop stop-color="#3305C1"/>
<stop offset="0.93" stop-color="#1C0951"/>
</linearGradient>
<linearGradient id="paint39_linear_885_283" x1="6.48261" y1="40.6635" x2="9.70931" y2="40.6635" gradientUnits="userSpaceOnUse">
<stop stop-color="#3305C1"/>
<stop offset="0.93" stop-color="#1C0951"/>
</linearGradient>
<linearGradient id="paint40_linear_885_283" x1="3.97356" y1="40.6632" x2="4.67993" y2="40.6632" gradientUnits="userSpaceOnUse">
<stop stop-color="#3305C1"/>
<stop offset="0.93" stop-color="#1C0951"/>
</linearGradient>
</defs>
</svg>
