<svg width="1187" height="627" viewBox="0 0 1187 627" fill="none" xmlns="http://www.w3.org/2000/svg">
<path d="M1.3999 122.303L1.3999 481.303H45.3999L45.3999 122.303H23.3999H1.3999Z" stroke="url(#paint0_linear_328_44)" stroke-width="2.8" stroke-miterlimit="10"/>
<path d="M7.75049 166.189L7.75049 196.128H38.7507V166.189H7.75049Z" fill="url(#paint1_linear_328_44)"/>
<path d="M7.75049 201.021L7.75049 230.961H38.7507V201.021H7.75049Z" fill="url(#paint2_linear_328_44)"/>
<path d="M7.75049 235.854L7.75049 265.794H38.7507V235.854H7.75049Z" fill="url(#paint3_linear_328_44)"/>
<path d="M7.75049 270.687L7.75049 300.626H38.7507V270.687H7.75049Z" fill="url(#paint4_linear_328_44)"/>
<path d="M7.75049 305.519L7.75049 335.459H38.7507V305.519H7.75049Z" fill="url(#paint5_linear_328_44)"/>
<path d="M7.75049 340.352L7.75049 370.292H38.7507V340.352H7.75049Z" fill="url(#paint6_linear_328_44)"/>
<path d="M7.75049 375.176L7.75049 405.116H38.7507V375.176H7.75049Z" fill="url(#paint7_linear_328_44)"/>
<path d="M7.75049 410.009L7.75049 439.949H38.7507V410.009H7.75049Z" fill="url(#paint8_linear_328_44)"/>
<path d="M7.75049 444.842L7.75049 474.781H38.7507V444.842H7.75049Z" fill="url(#paint9_linear_328_44)"/>
<path d="M1169.05 184.41V625.33H183.4L74.3999 506.833V88.3864L133.715 34.3027H331.168L393.039 88.0421H1081.97L1169.05 184.41Z" fill="#090223" fill-opacity="0.69" stroke="#05C174" stroke-width="3" stroke-miterlimit="10"/>
<path d="M1184.98 75.3027V172.015L1097.4 75.3027H1184.98Z" stroke="#05C174" stroke-width="3" stroke-miterlimit="10"/>
<path d="M292.563 84.2149H277.572L295.874 43.5461H310.865L292.563 84.2149Z" fill="#05C174"/>
<path d="M273.89 84.2149H258.899L277.201 43.5461H292.205L273.89 84.2149Z" fill="#05C174"/>
<path d="M255.218 84.2149H240.227L258.542 43.5461H273.533L255.218 84.2149Z" fill="#05C174"/>
<path d="M236.558 84.2149H221.554L239.869 43.5461H254.86L236.558 84.2149Z" fill="#05C174"/>
<path d="M217.886 84.2149H202.882L221.197 43.5461H236.188L217.886 84.2149Z" fill="#05C174"/>
<path d="M199.213 84.2149H184.222L202.524 43.5461H217.515L199.213 84.2149Z" fill="#05C174"/>
<path d="M180.541 84.2149H165.55L183.852 43.5461H198.856L180.541 84.2149Z" fill="#05C174"/>
<path d="M161.868 84.2149H146.877L165.192 43.5461H180.183L161.868 84.2149Z" fill="#05C174"/>
<path d="M143.209 84.2149H128.205L146.52 43.5461H161.511L143.209 84.2149Z" fill="#05C174"/>
<g filter="url(#filter0_d_328_44)">
<path d="M460.63 46.9395C460.63 48.4434 460.435 49.8008 460.044 51.0117C459.673 52.2031 459.175 53.2578 458.55 54.1758C457.925 55.0938 457.193 55.875 456.353 56.5195C455.513 57.1641 454.644 57.6914 453.746 58.1016C452.847 58.5117 451.929 58.8145 450.992 59.0098C450.074 59.2051 449.205 59.3027 448.384 59.3027H419V51.6855H448.384C449.849 51.6855 450.982 51.2559 451.783 50.3965C452.603 49.5371 453.013 48.3848 453.013 46.9395C453.013 46.2363 452.906 45.5918 452.691 45.0059C452.476 44.4199 452.164 43.9121 451.753 43.4824C451.363 43.0527 450.875 42.7207 450.289 42.4863C449.722 42.252 449.087 42.1348 448.384 42.1348H430.865C429.634 42.1348 428.306 41.9199 426.88 41.4902C425.455 41.041 424.126 40.3281 422.896 39.3516C421.685 38.375 420.669 37.0957 419.849 35.5137C419.048 33.9316 418.648 31.998 418.648 29.7129C418.648 27.4277 419.048 25.5039 419.849 23.9414C420.669 22.3594 421.685 21.0801 422.896 20.1035C424.126 19.1074 425.455 18.3945 426.88 17.9648C428.306 17.5156 429.634 17.291 430.865 17.291H456.792V24.9082H430.865C429.419 24.9082 428.287 25.3477 427.466 26.2266C426.666 27.1055 426.265 28.2676 426.265 29.7129C426.265 31.1777 426.666 32.3398 427.466 33.1992C428.287 34.0391 429.419 34.459 430.865 34.459H448.384H448.443C449.263 34.4785 450.132 34.5957 451.05 34.8105C451.968 35.0059 452.876 35.3184 453.775 35.748C454.693 36.1777 455.562 36.7246 456.382 37.3887C457.203 38.0332 457.925 38.8145 458.55 39.7324C459.195 40.6504 459.703 41.7051 460.074 42.8965C460.445 44.0879 460.63 45.4355 460.63 46.9395ZM508.121 55.4648C508.121 56.0117 508.023 56.5195 507.828 56.9883C507.632 57.457 507.359 57.8672 507.007 58.2188C506.656 58.5508 506.246 58.8145 505.777 59.0098C505.308 59.2051 504.81 59.3027 504.283 59.3027H487.115C485.494 59.3027 483.853 59.127 482.193 58.7754C480.533 58.4238 478.921 57.8867 477.359 57.1641C475.816 56.4219 474.361 55.4844 472.994 54.3516C471.626 53.2188 470.425 51.8809 469.39 50.3379C468.375 48.7754 467.574 46.998 466.988 45.0059C466.402 42.9941 466.109 40.7578 466.109 38.2969V17.291H473.726V38.2969C473.726 40.4453 474.019 42.2617 474.605 43.7461C475.21 45.2305 475.972 46.4707 476.89 47.4668C477.808 48.4629 478.814 49.2441 479.908 49.8105C481.001 50.377 482.037 50.7969 483.013 51.0703C484.009 51.3438 484.878 51.5195 485.621 51.5977C486.382 51.6562 486.88 51.6855 487.115 51.6855H500.503V17.291H508.121V55.4648ZM558.921 50.0742C558.921 51.0117 558.755 52.0176 558.423 53.0918C558.111 54.166 557.583 55.1621 556.841 56.0801C556.119 56.998 555.171 57.7695 554 58.3945C552.828 59 551.392 59.3027 549.693 59.3027H520.777C520.23 59.3027 519.722 59.2051 519.253 59.0098C518.785 58.8145 518.375 58.5508 518.023 58.2188C517.691 57.8672 517.427 57.457 517.232 56.9883C517.037 56.5195 516.939 56.0117 516.939 55.4648V21.1289C516.939 20.6016 517.037 20.1035 517.232 19.6348C517.427 19.166 517.691 18.7559 518.023 18.4043C518.375 18.0527 518.785 17.7793 519.253 17.584C519.722 17.3887 520.23 17.291 520.777 17.291H546.265C547.203 17.291 548.208 17.457 549.283 17.7891C550.357 18.1211 551.353 18.6582 552.271 19.4004C553.208 20.123 553.98 21.0703 554.585 22.2422C555.21 23.4141 555.523 24.8496 555.523 26.5488V27.9844C555.523 29.332 555.298 30.7871 554.849 32.3496C554.4 33.8926 553.677 35.3574 552.681 36.7441C553.541 37.2715 554.341 37.9062 555.083 38.6484C555.845 39.3906 556.509 40.25 557.076 41.2266C557.642 42.2031 558.091 43.3066 558.423 44.5371C558.755 45.7676 558.921 47.125 558.921 48.6094V50.0742ZM551.304 48.6094C551.304 47.6133 551.148 46.7246 550.835 45.9434C550.523 45.1426 550.083 44.459 549.517 43.8926C548.951 43.3262 548.267 42.8965 547.466 42.6035C546.666 42.291 545.767 42.1348 544.771 42.1348H527.603V34.459H541.343C542.339 34.459 543.238 34.3125 544.039 34.0195C544.839 33.707 545.523 33.2676 546.089 32.7012C546.656 32.1348 547.085 31.4609 547.378 30.6797C547.691 29.8789 547.847 28.9805 547.847 27.9844V26.5488C547.847 25.4551 547.32 24.9082 546.265 24.9082H524.556V51.6855H549.693C549.83 51.6855 549.996 51.6758 550.191 51.6562C550.386 51.6367 550.562 51.5781 550.718 51.4805C550.875 51.3828 551.011 51.2168 551.128 50.9824C551.246 50.748 551.304 50.4258 551.304 50.0156V48.6094ZM614.468 59.3027H606.792V34.2832L593.287 58.043C592.955 58.6484 592.486 59.1074 591.88 59.4199C591.294 59.7324 590.66 59.8887 589.976 59.8887C589.312 59.8887 588.687 59.7324 588.101 59.4199C587.535 59.1074 587.085 58.6484 586.753 58.043L573.189 34.2832V59.3027H565.572V20.543C565.572 19.6641 565.826 18.8828 566.333 18.1992C566.861 17.5156 567.544 17.0566 568.384 16.8223C568.794 16.7246 569.205 16.6953 569.615 16.7344C570.025 16.7539 570.416 16.8418 570.787 16.998C571.177 17.1348 571.529 17.3398 571.841 17.6133C572.154 17.8672 572.417 18.1797 572.632 18.5508L589.976 48.6973L607.32 18.5508C607.769 17.8086 608.384 17.2813 609.166 16.9688C609.966 16.6562 610.796 16.6074 611.656 16.8223C612.476 17.0566 613.15 17.5156 613.677 18.1992C614.205 18.8828 614.468 19.6641 614.468 20.543V59.3027ZM631.021 59.3027H623.404V17.291H631.021V59.3027ZM680.298 46.9395C680.298 48.4434 680.103 49.8008 679.712 51.0117C679.341 52.2031 678.843 53.2578 678.218 54.1758C677.593 55.0938 676.861 55.875 676.021 56.5195C675.181 57.1641 674.312 57.6914 673.414 58.1016C672.515 58.5117 671.597 58.8145 670.66 59.0098C669.742 59.2051 668.873 59.3027 668.052 59.3027H638.667V51.6855H668.052C669.517 51.6855 670.65 51.2559 671.451 50.3965C672.271 49.5371 672.681 48.3848 672.681 46.9395C672.681 46.2363 672.574 45.5918 672.359 45.0059C672.144 44.4199 671.832 43.9121 671.421 43.4824C671.031 43.0527 670.542 42.7207 669.957 42.4863C669.39 42.252 668.755 42.1348 668.052 42.1348H650.533C649.302 42.1348 647.974 41.9199 646.548 41.4902C645.123 41.041 643.794 40.3281 642.564 39.3516C641.353 38.375 640.337 37.0957 639.517 35.5137C638.716 33.9316 638.316 31.998 638.316 29.7129C638.316 27.4277 638.716 25.5039 639.517 23.9414C640.337 22.3594 641.353 21.0801 642.564 20.1035C643.794 19.1074 645.123 18.3945 646.548 17.9648C647.974 17.5156 649.302 17.291 650.533 17.291H676.46V24.9082H650.533C649.087 24.9082 647.955 25.3477 647.134 26.2266C646.333 27.1055 645.933 28.2676 645.933 29.7129C645.933 31.1777 646.333 32.3398 647.134 33.1992C647.955 34.0391 649.087 34.459 650.533 34.459H668.052H668.111C668.931 34.4785 669.8 34.5957 670.718 34.8105C671.636 35.0059 672.544 35.3184 673.443 35.748C674.361 36.1777 675.23 36.7246 676.05 37.3887C676.871 38.0332 677.593 38.8145 678.218 39.7324C678.863 40.6504 679.371 41.7051 679.742 42.8965C680.113 44.0879 680.298 45.4355 680.298 46.9395ZM726.998 46.9395C726.998 48.4434 726.802 49.8008 726.412 51.0117C726.041 52.2031 725.542 53.2578 724.917 54.1758C724.292 55.0938 723.56 55.875 722.72 56.5195C721.88 57.1641 721.011 57.6914 720.113 58.1016C719.214 58.5117 718.296 58.8145 717.359 59.0098C716.441 59.2051 715.572 59.3027 714.751 59.3027H685.367V51.6855H714.751C716.216 51.6855 717.349 51.2559 718.15 50.3965C718.97 49.5371 719.38 48.3848 719.38 46.9395C719.38 46.2363 719.273 45.5918 719.058 45.0059C718.843 44.4199 718.531 43.9121 718.121 43.4824C717.73 43.0527 717.242 42.7207 716.656 42.4863C716.089 42.252 715.455 42.1348 714.751 42.1348H697.232C696.001 42.1348 694.673 41.9199 693.248 41.4902C691.822 41.041 690.494 40.3281 689.263 39.3516C688.052 38.375 687.037 37.0957 686.216 35.5137C685.416 33.9316 685.015 31.998 685.015 29.7129C685.015 27.4277 685.416 25.5039 686.216 23.9414C687.037 22.3594 688.052 21.0801 689.263 20.1035C690.494 19.1074 691.822 18.3945 693.248 17.9648C694.673 17.5156 696.001 17.291 697.232 17.291H723.16V24.9082H697.232C695.787 24.9082 694.654 25.3477 693.833 26.2266C693.033 27.1055 692.632 28.2676 692.632 29.7129C692.632 31.1777 693.033 32.3398 693.833 33.1992C694.654 34.0391 695.787 34.459 697.232 34.459H714.751H714.81C715.63 34.4785 716.5 34.5957 717.417 34.8105C718.335 35.0059 719.244 35.3184 720.142 35.748C721.06 36.1777 721.929 36.7246 722.75 37.3887C723.57 38.0332 724.292 38.8145 724.917 39.7324C725.562 40.6504 726.07 41.7051 726.441 42.8965C726.812 44.0879 726.998 45.4355 726.998 46.9395ZM741.001 59.3027H733.384V17.291H741.001V59.3027ZM794 42.3105C794 44.8691 793.56 47.2227 792.681 49.3711C791.802 51.5195 790.582 53.375 789.019 54.9375C787.457 56.5 785.601 57.7207 783.453 58.5996C781.324 59.459 779 59.8887 776.48 59.8887H766.167C763.648 59.8887 761.314 59.459 759.166 58.5996C757.017 57.7207 755.162 56.5 753.599 54.9375C752.037 53.375 750.806 51.5195 749.908 49.3711C749.029 47.2227 748.589 44.8691 748.589 42.3105V34.2832C748.589 31.7441 749.029 29.4004 749.908 27.252C750.806 25.084 752.037 23.2285 753.599 21.6855C755.162 20.123 757.017 18.9023 759.166 18.0234C761.314 17.1445 763.648 16.7051 766.167 16.7051H776.48C779 16.7051 781.324 17.1445 783.453 18.0234C785.601 18.9023 787.457 20.123 789.019 21.6855C790.582 23.2285 791.802 25.084 792.681 27.252C793.56 29.4004 794 31.7441 794 34.2832V42.3105ZM786.382 34.2832C786.382 32.7793 786.138 31.4219 785.65 30.2109C785.181 28.9805 784.507 27.9355 783.628 27.0762C782.769 26.1973 781.724 25.5234 780.494 25.0547C779.283 24.5664 777.945 24.3223 776.48 24.3223H766.167C764.683 24.3223 763.326 24.5664 762.095 25.0547C760.884 25.5234 759.839 26.1973 758.96 27.0762C758.082 27.9355 757.398 28.9805 756.91 30.2109C756.441 31.4219 756.207 32.7793 756.207 34.2832V42.3105C756.207 43.8145 756.441 45.1816 756.91 46.4121C757.398 47.623 758.082 48.668 758.96 49.5469C759.839 50.4062 760.884 51.0801 762.095 51.5684C763.326 52.0371 764.683 52.2715 766.167 52.2715H776.421C777.906 52.2715 779.253 52.0371 780.464 51.5684C781.695 51.0801 782.75 50.4062 783.628 49.5469C784.507 48.668 785.181 47.623 785.65 46.4121C786.138 45.1816 786.382 43.8145 786.382 42.3105V34.2832ZM843.511 56.0508C843.511 56.5977 843.404 57.1055 843.189 57.5742C842.994 58.043 842.72 58.4531 842.369 58.8047C842.037 59.1367 841.636 59.4004 841.167 59.5957C840.699 59.791 840.201 59.8887 839.673 59.8887C839.205 59.8887 838.726 59.8008 838.238 59.625C837.769 59.4492 837.349 59.166 836.978 58.7754L809.146 29.7129V59.3027H801.529V20.543C801.529 19.7617 801.744 19.0586 802.173 18.4336C802.623 17.7891 803.189 17.3105 803.873 16.998C804.595 16.7051 805.337 16.6367 806.099 16.793C806.861 16.9297 807.515 17.2813 808.062 17.8477L835.894 46.8809V17.291H843.511V56.0508Z" fill="#05B0C1"/>
</g>
<defs>
<filter id="filter0_d_328_44" x="402.148" y="0" width="457.863" height="76.3887" filterUnits="userSpaceOnUse" color-interpolation-filters="sRGB">
<feFlood flood-opacity="0" result="BackgroundImageFix"/>
<feColorMatrix in="SourceAlpha" type="matrix" values="0 0 0 0 0 0 0 0 0 0 0 0 0 0 0 0 0 0 127 0" result="hardAlpha"/>
<feOffset/>
<feGaussianBlur stdDeviation="8.25"/>
<feComposite in2="hardAlpha" operator="out"/>
<feColorMatrix type="matrix" values="0 0 0 0 0.0196078 0 0 0 0 0.690196 0 0 0 0 0.756863 0 0 0 1 0"/>
<feBlend mode="normal" in2="BackgroundImageFix" result="effect1_dropShadow_328_44"/>
<feBlend mode="normal" in="SourceGraphic" in2="effect1_dropShadow_328_44" result="shape"/>
</filter>
<linearGradient id="paint0_linear_328_44" x1="23.404" y1="482.247" x2="23.404" y2="121.365" gradientUnits="userSpaceOnUse">
<stop stop-color="#05C174"/>
<stop offset="0.93" stop-color="#05C174"/>
</linearGradient>
<linearGradient id="paint1_linear_328_44" x1="23.2547" y1="196.128" x2="23.2547" y2="166.189" gradientUnits="userSpaceOnUse">
<stop stop-color="#05B0C1"/>
<stop offset="0.93" stop-color="#05C174"/>
</linearGradient>
<linearGradient id="paint2_linear_328_44" x1="23.2547" y1="230.961" x2="23.2547" y2="201.021" gradientUnits="userSpaceOnUse">
<stop stop-color="#05B0C1"/>
<stop offset="0.93" stop-color="#05C174"/>
</linearGradient>
<linearGradient id="paint3_linear_328_44" x1="23.2547" y1="265.794" x2="23.2547" y2="235.854" gradientUnits="userSpaceOnUse">
<stop stop-color="#05B0C1"/>
<stop offset="0.93" stop-color="#05C174"/>
</linearGradient>
<linearGradient id="paint4_linear_328_44" x1="23.2547" y1="300.626" x2="23.2547" y2="270.687" gradientUnits="userSpaceOnUse">
<stop stop-color="#05B0C1"/>
<stop offset="0.93" stop-color="#05C174"/>
</linearGradient>
<linearGradient id="paint5_linear_328_44" x1="23.2547" y1="335.459" x2="23.2547" y2="305.519" gradientUnits="userSpaceOnUse">
<stop stop-color="#05B0C1"/>
<stop offset="0.93" stop-color="#05C174"/>
</linearGradient>
<linearGradient id="paint6_linear_328_44" x1="23.2547" y1="370.292" x2="23.2547" y2="340.344" gradientUnits="userSpaceOnUse">
<stop stop-color="#05B0C1"/>
<stop offset="0.93" stop-color="#05C174"/>
</linearGradient>
<linearGradient id="paint7_linear_328_44" x1="23.2547" y1="405.116" x2="23.2547" y2="375.176" gradientUnits="userSpaceOnUse">
<stop stop-color="#05B0C1"/>
<stop offset="0.93" stop-color="#05C174"/>
</linearGradient>
<linearGradient id="paint8_linear_328_44" x1="23.2547" y1="439.949" x2="23.2547" y2="410.009" gradientUnits="userSpaceOnUse">
<stop stop-color="#05B0C1"/>
<stop offset="0.93" stop-color="#05C174"/>
</linearGradient>
<linearGradient id="paint9_linear_328_44" x1="23.2547" y1="474.781" x2="23.2547" y2="444.842" gradientUnits="userSpaceOnUse">
<stop stop-color="#05B0C1"/>
<stop offset="0.93" stop-color="#05C174"/>
</linearGradient>
</defs>
</svg>
