<svg width="370" height="47" viewBox="0 0 370 47" fill="none" xmlns="http://www.w3.org/2000/svg">
<path d="M368.4 1.40002H1.3999V45.4H368.4V23.4V1.40002Z" stroke="url(#paint0_linear_306_1898)" stroke-width="2.8" stroke-miterlimit="10"/>
<path d="M323.536 7.75098H292.929V38.7512H323.536V7.75098Z" fill="url(#paint1_linear_306_1898)"/>
<path d="M287.927 7.75098H257.32V38.7512H287.927V7.75098Z" fill="url(#paint2_linear_306_1898)"/>
<path d="M252.318 7.75098H221.711V38.7512H252.318V7.75098Z" fill="url(#paint3_linear_306_1898)"/>
<path d="M216.709 7.75098H186.103V38.7512H216.709V7.75098Z" fill="url(#paint4_linear_306_1898)"/>
<path d="M181.1 7.75098H150.494V38.7512H181.1V7.75098Z" fill="url(#paint5_linear_306_1898)"/>
<path d="M145.492 7.75098H114.885V38.7512H145.492V7.75098Z" fill="url(#paint6_linear_306_1898)"/>
<path d="M109.891 7.75098H79.2844V38.7512H109.891V7.75098Z" fill="url(#paint7_linear_306_1898)"/>
<path d="M74.2821 7.75098H43.6753V38.7512H74.2821V7.75098Z" fill="url(#paint8_linear_306_1898)"/>
<path d="M38.6737 7.7511H8.06689V38.7513H38.6737V7.7511Z" fill="url(#paint9_linear_306_1898)"/>
<defs>
<linearGradient id="paint0_linear_306_1898" x1="0.434222" y1="23.4041" x2="369.359" y2="23.4041" gradientUnits="userSpaceOnUse">
<stop stop-color="#05C174"/>
<stop offset="0.93" stop-color="#05C174"/>
</linearGradient>
<linearGradient id="paint1_linear_306_1898" x1="292.929" y1="23.2552" x2="323.536" y2="23.2552" gradientUnits="userSpaceOnUse">
<stop stop-color="#05B0C1"/>
<stop offset="0.93" stop-color="#05C174"/>
</linearGradient>
<linearGradient id="paint2_linear_306_1898" x1="257.32" y1="23.2552" x2="287.927" y2="23.2552" gradientUnits="userSpaceOnUse">
<stop stop-color="#05B0C1"/>
<stop offset="0.93" stop-color="#05C174"/>
</linearGradient>
<linearGradient id="paint3_linear_306_1898" x1="221.711" y1="23.2552" x2="252.318" y2="23.2552" gradientUnits="userSpaceOnUse">
<stop stop-color="#05B0C1"/>
<stop offset="0.93" stop-color="#05C174"/>
</linearGradient>
<linearGradient id="paint4_linear_306_1898" x1="186.103" y1="23.2552" x2="216.709" y2="23.2552" gradientUnits="userSpaceOnUse">
<stop stop-color="#05B0C1"/>
<stop offset="0.93" stop-color="#05C174"/>
</linearGradient>
<linearGradient id="paint5_linear_306_1898" x1="150.494" y1="23.2552" x2="181.1" y2="23.2552" gradientUnits="userSpaceOnUse">
<stop stop-color="#05B0C1"/>
<stop offset="0.93" stop-color="#05C174"/>
</linearGradient>
<linearGradient id="paint6_linear_306_1898" x1="114.885" y1="23.2552" x2="145.5" y2="23.2552" gradientUnits="userSpaceOnUse">
<stop stop-color="#05B0C1"/>
<stop offset="0.93" stop-color="#05C174"/>
</linearGradient>
<linearGradient id="paint7_linear_306_1898" x1="79.2844" y1="23.2552" x2="109.891" y2="23.2552" gradientUnits="userSpaceOnUse">
<stop stop-color="#05B0C1"/>
<stop offset="0.93" stop-color="#05C174"/>
</linearGradient>
<linearGradient id="paint8_linear_306_1898" x1="43.6753" y1="23.2552" x2="74.2821" y2="23.2552" gradientUnits="userSpaceOnUse">
<stop stop-color="#05B0C1"/>
<stop offset="0.93" stop-color="#05C174"/>
</linearGradient>
<linearGradient id="paint9_linear_306_1898" x1="8.06689" y1="23.2553" x2="38.6737" y2="23.2553" gradientUnits="userSpaceOnUse">
<stop stop-color="#05B0C1"/>
<stop offset="0.93" stop-color="#05C174"/>
</linearGradient>
</defs>
</svg>
