<svg width="209" height="172" viewBox="0 0 209 172" fill="none" xmlns="http://www.w3.org/2000/svg">
<g clip-path="url(#clip0_753_113)">
<mask id="mask0_753_113" style="mask-type:luminance" maskUnits="userSpaceOnUse" x="0" y="0" width="209" height="134">
<path d="M208.295 133.765C139.407 133.59 70.5196 133.414 1.63207 133.246C1.3532 121.966 1.08254 110.687 0.80368 99.4136C4.33868 97.8898 7.87369 96.3728 11.4169 94.8491C11.3677 76.2609 11.3267 57.6659 11.2775 39.0777L0.598633 33.839V0.741638C24.0396 0.741638 47.4805 0.741638 70.9215 0.741638C73.7265 3.78237 76.5315 6.82309 79.3284 9.86382C96.1012 9.87056 112.882 9.88405 129.655 9.89079C132.493 6.84332 135.331 3.78911 138.169 0.741638C161.667 0.741638 185.157 0.741638 208.655 0.741638C208.655 18.3455 208.655 16.397 208.655 34.0009C204.883 35.6325 201.102 37.2641 197.329 38.8957V94.8828C201.102 96.3391 204.883 97.7887 208.664 99.245C208.541 110.754 208.409 122.263 208.286 133.779L208.295 133.765Z" fill="white"/>
</mask>
<g mask="url(#mask0_753_113)">
<path d="M1.63184 1.43616C70.2979 1.46313 138.964 1.49684 207.63 1.43616C207.581 45.375 207.614 89.3071 207.63 133.246C138.964 133.246 70.2979 133.253 1.63184 133.246C1.65644 89.3071 1.64824 45.375 1.63184 1.43616Z" stroke="#3305C1" stroke-width="1.16" stroke-miterlimit="10"/>
<path d="M1.64014 126.969C70.3062 126.935 138.956 126.955 207.63 126.969" stroke="#3305C1" stroke-width="1.16" stroke-miterlimit="10"/>
<path d="M1.63232 120.692C70.3148 120.368 138.915 120.577 207.622 120.692" stroke="#3305C1" stroke-width="1.16" stroke-miterlimit="10"/>
<path d="M1.63232 114.415C18.6594 114.233 35.7849 113.033 52.812 113.687C67.4113 114.246 81.7728 116.667 96.4131 116.775C133.42 117.051 170.525 114.28 207.639 114.415" stroke="#3305C1" stroke-width="1.16" stroke-miterlimit="10"/>
<path d="M1.62402 108.138C17.7817 107.875 34.1034 106.25 50.2529 107.133C64.68 107.922 78.6478 111.239 93.1569 111.421C113.53 111.678 133.871 108.617 154.203 107.895C171.977 107.261 189.857 108.037 207.639 108.131" stroke="#3305C1" stroke-width="1.16" stroke-miterlimit="10"/>
<path d="M1.63232 101.861C17.3307 101.578 33.2341 99.6766 48.9243 100.674C63.253 101.585 76.9255 105.448 91.369 105.67C112.587 105.994 133.764 102.367 154.942 101.564C172.461 100.897 190.103 101.76 207.63 101.868" stroke="#3305C1" stroke-width="1.16" stroke-miterlimit="10"/>
<path d="M1.61572 95.584C17.7488 95.3076 34.0541 93.1703 50.179 94.2086C64.3518 95.1188 77.8275 98.9619 92.1151 99.1641C130.483 99.7102 169.081 95.3278 207.638 95.5773" stroke="#3305C1" stroke-width="1.16" stroke-miterlimit="10"/>
<path d="M1.62402 89.307C19.2006 88.8958 36.9577 86.2124 54.5425 87.3248C68.1658 88.1946 81.1165 91.8151 94.8547 92.105C132.321 92.9074 170.148 89.5835 207.647 89.3003" stroke="#3305C1" stroke-width="1.16" stroke-miterlimit="10"/>
<path d="M1.63232 83.0301C21.1036 82.4031 40.8537 79.0185 60.3331 80.2388C73.21 81.0411 85.4882 84.3448 98.4554 84.81C135.069 86.1247 171.083 84.0347 207.622 83.0368" stroke="#3305C1" stroke-width="1.16" stroke-miterlimit="10"/>
<path d="M1.64844 76.7531C22.9241 75.9171 44.6098 71.8583 65.9101 73.1797C78.0488 73.9349 89.7283 76.8879 101.933 77.5487C114.957 78.2499 127.9 80.0905 140.924 80.6433C163.069 81.594 185.526 77.724 207.622 76.7598" stroke="#3305C1" stroke-width="1.16" stroke-miterlimit="10"/>
<path d="M1.64844 70.4761C24.1216 69.5187 47.0704 64.9947 69.5599 66.3971C81.223 67.1252 92.5251 69.8356 104.229 70.6042C115.671 71.3526 126.448 74.3596 137.816 75.29C160.584 77.1509 184.87 71.6425 207.622 70.4829" stroke="#3305C1" stroke-width="1.16" stroke-miterlimit="10"/>
<path d="M1.64014 64.1991C24.1543 63.2687 47.1113 58.5762 69.6418 60.0122C81.3049 60.7539 92.5907 63.5114 104.295 64.2935C115.761 65.0554 126.727 67.8399 138.136 68.7164C160.789 70.4559 184.968 65.4195 207.605 64.2126" stroke="#3305C1" stroke-width="1.16" stroke-miterlimit="10"/>
<path d="M1.64844 57.9222C23.1619 56.9715 45.0527 52.1374 66.599 53.5735C78.787 54.3825 90.3352 57.7132 102.613 58.3132C137.791 60.0257 172.42 59.0346 207.614 57.9357" stroke="#3305C1" stroke-width="1.16" stroke-miterlimit="10"/>
<path d="M1.63232 51.6452C21.6449 50.6339 41.8789 45.6581 61.9489 47.0672C74.9242 47.9774 86.9728 52.1306 100.096 52.4273C116.967 52.8116 133.789 50.1282 150.627 49.6225C169.631 49.0562 188.627 51.2407 207.614 51.6452" stroke="#3305C1" stroke-width="1.16" stroke-miterlimit="10"/>
<path d="M1.62402 45.3682C20.0946 44.2962 38.5488 39.1991 57.1179 40.561C70.8888 41.5724 83.5279 46.5077 97.4957 46.5616C117.976 46.6425 138.029 40.7161 158.378 39.2868C175.299 38.1001 191.005 43.8377 207.647 45.3615" stroke="#3305C1" stroke-width="1.16" stroke-miterlimit="10"/>
<path d="M1.61572 39.0912C18.9627 37.9922 35.998 32.7805 53.4843 34.0952C67.8376 35.174 80.9278 40.6689 95.5107 40.6082C118.779 40.5138 141.261 32.0052 164.3 29.9083C181.302 28.3576 191.604 38.4642 207.655 39.0777" stroke="#3305C1" stroke-width="1.16" stroke-miterlimit="10"/>
<path d="M1.63232 32.8142C18.643 31.7152 35.2518 26.5103 52.4101 27.7913C66.9192 28.8768 80.198 34.493 94.9286 34.4593C119.067 34.3986 142.245 24.9259 166.129 22.7077C183.295 21.1098 191.817 32.7198 207.63 32.8142" stroke="#3305C1" stroke-width="1.16" stroke-miterlimit="10"/>
<path d="M1.62402 26.5373C18.8808 25.5192 35.9242 21.1031 53.2794 22.2155C67.8377 23.1527 81.543 28.0071 96.2654 27.9262C119.132 27.8116 141.212 19.7884 163.882 17.8196C180.761 16.3566 191.62 26.0923 207.647 26.5238" stroke="#3305C1" stroke-width="1.16" stroke-miterlimit="10"/>
<path d="M1.63232 20.2603C19.4304 19.5523 37.13 16.3498 54.9773 17.1521C69.6422 17.8129 83.8807 21.3795 98.6358 21.2716C119.337 21.1233 139.44 15.3789 160.019 14.0035C176.595 12.8978 191.383 18.8579 207.647 20.2535" stroke="#3305C1" stroke-width="1.16" stroke-miterlimit="10"/>
<path d="M1.63232 13.9901C20.0619 13.6664 38.4505 11.7989 56.8965 12.2506C71.7337 12.6147 86.4232 14.671 101.285 14.5834C119.526 14.4822 137.463 11.1988 155.663 10.4976C173.15 9.8234 190.218 13.3496 207.622 13.9901" stroke="#3305C1" stroke-width="1.16" stroke-miterlimit="10"/>
<path d="M1.64014 7.71389C70.339 7.59183 138.964 7.47654 207.622 7.71389" stroke="#3305C1" stroke-width="1.16" stroke-miterlimit="10"/>
<path d="M197.804 1.44281C198.854 45.4019 198.157 89.1519 197.813 133.246" stroke="#3305C1" stroke-width="1.16" stroke-miterlimit="10"/>
<path d="M188.003 1.43634C189.447 12.9318 194.852 23.8743 193.08 35.4979C191.325 46.9731 184.058 57.3156 183.681 69.0066C183.344 79.4704 189.283 89.1252 189.922 99.5487C190.603 110.673 188.43 122.115 188.003 133.239" stroke="#3305C1" stroke-width="1.16" stroke-miterlimit="10"/>
<path d="M178.21 1.42926C181.31 12.7089 190.218 21.1165 187.29 32.9288C184.058 45.9412 171.017 56.7692 170.476 70.3007C170.049 80.9601 180.384 88.9294 181.671 99.4203C183 110.255 179.038 122.391 178.202 133.239" stroke="#3305C1" stroke-width="1.16" stroke-miterlimit="10"/>
<path d="M168.417 1.42261C170.271 14.5025 185.576 16.3026 181.073 30.6433C176.603 44.8693 158.108 56.3917 157.64 71.4672C157.296 82.639 171.345 88.4912 173.248 99.3192C175.077 109.763 169.549 122.775 168.401 133.253" stroke="#3305C1" stroke-width="1.16" stroke-miterlimit="10"/>
<path d="M158.599 1.42926C160.666 15.1159 178.636 13.7675 173.338 29.3352C168.269 44.2489 146.346 56.2028 146.05 72.1548C145.837 83.7446 161.995 88.0866 164.218 99.2449C166.26 109.507 159.862 122.944 158.591 133.246" stroke="#3305C1" stroke-width="1.16" stroke-miterlimit="10"/>
<path d="M148.806 1.42261C151.021 14.6171 166.875 15.352 162.077 29.9825C157.303 44.5322 137.496 56.3782 137.053 71.8448C136.733 83.0705 151.283 88.6665 153.285 99.508C155.171 109.743 149.955 122.957 148.798 133.239" stroke="#3305C1" stroke-width="1.16" stroke-miterlimit="10"/>
<path d="M138.989 1.42261C142.114 12.4798 150.34 20.7322 147.346 32.2546C143.861 45.6783 130.516 56.9311 129.721 70.8806C129.122 81.3513 138.226 90.0757 139.546 100.405C140.892 110.97 139.259 122.613 138.981 133.239" stroke="#3305C1" stroke-width="1.16" stroke-miterlimit="10"/>
<path d="M129.155 1.43634C129.803 12.6756 132.632 24.0159 131.074 35.2484C129.458 46.9259 123.873 57.855 123.069 69.6538C121.609 90.9996 126.891 112.17 129.147 133.253" stroke="#3305C1" stroke-width="1.16" stroke-miterlimit="10"/>
<path d="M119.321 1.44281C117.828 13.6799 114.744 25.8023 115.047 38.1203C115.293 48.1864 116.835 58.3941 116.319 68.4602C115.728 79.9421 109.528 91.2892 109.659 102.751C109.774 113.1 116.901 123.187 119.337 133.253" stroke="#3305C1" stroke-width="1.16" stroke-miterlimit="10"/>
<path d="M109.511 1.44281C106.862 14.0844 99.2345 27.1508 101.047 40.0553C102.368 49.5079 108.814 57.9693 108.667 67.6242C108.478 80.2388 96.5689 90.9926 96.5279 103.513C96.4951 113.754 106.387 123.503 109.511 133.253" stroke="#3305C1" stroke-width="1.16" stroke-miterlimit="10"/>
<path d="M99.7182 1.44281C97.069 14.1316 88.4324 27.2182 90.5321 40.2239C92.0659 49.7371 99.7838 57.4974 99.6854 67.3342C99.5542 80.2792 86.2343 90.6555 86.2672 103.506C86.2918 113.882 96.5687 123.375 99.7264 133.259" stroke="#3305C1" stroke-width="1.16" stroke-miterlimit="10"/>
<path d="M89.9086 1.44281C87.4316 13.7271 79.0821 26.4631 81.4033 39.0238C83.1995 48.7662 91.9098 56.4456 91.8032 66.5858C91.6638 79.6994 77.3023 89.5767 77.0317 102.589C76.8184 113.053 86.8985 123.24 89.9086 133.259" stroke="#3305C1" stroke-width="1.16" stroke-miterlimit="10"/>
<path d="M80.1075 1.43634C77.9176 13.0329 69.8224 25.3981 72.7012 37.1834C75.1372 47.1551 85.0368 54.9087 84.9138 65.4062C84.758 78.749 68.994 87.9656 68.1492 101.167C67.4684 111.786 77.3681 122.998 80.1075 133.246" stroke="#3305C1" stroke-width="1.16" stroke-miterlimit="10"/>
<path d="M70.2983 1.42926C68.3873 12.419 60.7431 24.1909 64.0403 35.2751C67.0586 45.4423 78.2869 53.3509 78.1311 64.1856C77.9425 77.7508 60.6447 86.3202 59.2914 99.6967C58.2006 110.525 67.8213 122.694 70.2983 133.239" stroke="#3305C1" stroke-width="1.16" stroke-miterlimit="10"/>
<path d="M60.4888 1.42926C58.7582 12.0415 51.6308 23.2133 55.0592 33.8524C58.4055 44.2085 70.7904 52.1575 70.6017 63.2956C70.3721 77.0429 51.8604 85.0863 50.1791 98.6112C48.8093 109.594 58.1759 122.485 60.4888 133.246" stroke="#3305C1" stroke-width="1.16" stroke-miterlimit="10"/>
<path d="M50.6713 1.42926C48.9571 11.8797 42.1003 23.011 45.5123 33.4614C48.9161 43.8848 61.5798 51.8541 61.3747 63.0731C61.1287 76.8541 42.3218 84.7492 40.624 98.2943C39.2461 109.277 48.3584 122.465 50.6713 133.239" stroke="#3305C1" stroke-width="1.16" stroke-miterlimit="10"/>
<path d="M40.8617 1.42926C39.3362 12.0482 33.3816 23.5774 36.4573 34.1626C39.4264 44.3972 50.2611 52.798 50.056 63.6462C49.8018 76.8406 33.6933 85.4841 32.1924 98.4831C30.9211 109.466 38.7867 122.425 40.8617 133.246" stroke="#3305C1" stroke-width="1.16" stroke-miterlimit="10"/>
<path d="M31.0605 1.42926C29.986 12.5067 25.5242 24.4134 27.8863 35.4638C30.0188 45.4558 37.827 54.3622 37.6548 64.7047C37.4497 77.0092 25.9097 86.6371 24.8598 98.8404C23.9002 109.985 29.5595 122.182 31.0605 133.246" stroke="#3305C1" stroke-width="1.16" stroke-miterlimit="10"/>
<path d="M21.2509 1.43634C20.7096 13.1812 18.1424 25.2026 19.4465 36.9407C20.5292 46.7169 25.0402 56.0076 24.9336 65.8984C24.8187 77.3601 18.3557 87.8105 17.8471 99.2385C17.3468 110.511 20.4882 121.993 21.2509 133.239" stroke="#3305C1" stroke-width="1.16" stroke-miterlimit="10"/>
<path d="M11.4495 1.43634C11.0476 45.4494 10.8426 89.2601 11.4495 133.246" stroke="#3305C1" stroke-width="1.16" stroke-miterlimit="10"/>
</g>
<path opacity="0.5" d="M208.295 171.467H0.820312V133.772C4.55216 133.772 8.28401 133.772 12.0077 133.772C14.9849 135.781 17.9622 137.79 20.9395 139.799H41.6C44.4378 137.77 47.2757 135.747 50.1135 133.718C86.374 133.738 122.634 133.758 158.895 133.779C162.233 135.558 165.579 137.338 168.918 139.112H187.208C190.423 137.311 193.63 135.518 196.837 133.718C200.651 133.738 204.464 133.758 208.287 133.779V171.474L208.295 171.467Z" fill="#1C0951"/>
<path d="M208.59 171.663H0.524902C0.590517 154.059 0.664334 116.903 0.729949 99.299C4.26495 97.7752 7.79996 96.2582 11.3432 94.7345C11.294 76.1463 11.2529 57.5513 11.2037 38.9631C7.64412 37.2169 4.08451 35.4774 0.524902 33.7312V0.627014C23.9658 0.627014 47.4068 0.627014 70.8477 0.627014C73.6528 3.66774 76.4578 6.70847 79.2546 9.7492C96.0275 9.75594 112.808 9.76942 129.581 9.77617C132.419 6.7287 135.257 3.67448 138.095 0.627014C161.593 0.627014 185.083 0.627014 208.582 0.627014C208.582 18.2309 208.582 16.2824 208.582 33.8862C204.809 35.5178 201.028 37.1495 197.255 38.7811V94.7682C201.028 96.2245 204.809 97.6741 208.59 99.1304C208.59 116.795 208.59 154.005 208.59 171.67V171.663Z" stroke="#05C174" stroke-miterlimit="10"/>
<path d="M126.637 7.67261H82.4697L74.5303 0H134.576L126.637 7.67261Z" fill="#05C174"/>
<path d="M7.95581 92.995L0 96.3392V36.8124L7.95581 40.1565V92.995Z" fill="#05C174"/>
<path d="M200.823 93.2917L208.779 96.6425V37.109L200.823 40.4599V93.2917Z" fill="#05C174"/>
<path d="M208.573 171.467H0.631348V133.711C4.33039 133.711 8.02943 133.711 11.7285 133.711C14.796 135.741 17.8717 137.763 20.9392 139.793H41.5997C44.4375 137.763 47.2754 135.741 50.1132 133.711H158.484C161.962 135.511 165.44 137.305 168.917 139.105H187.207C190.423 137.305 193.63 135.511 196.836 133.711H208.565V171.467H208.573Z" stroke="#05C174" stroke-miterlimit="10"/>
<path d="M41.2883 140.049C34.5053 139.961 27.7224 139.873 20.9394 139.793C17.9129 137.642 14.8865 135.491 11.8682 133.34C24.6057 133.367 37.3432 133.401 50.0889 133.428C47.1608 135.639 44.2245 137.844 41.2965 140.055L41.2883 140.049Z" fill="#05C174"/>
<path d="M186.929 139.273C180.638 139.172 174.339 139.071 168.048 138.97C164.89 137.062 161.741 135.147 158.583 133.239C171.378 133.3 184.181 133.361 196.976 133.414C193.621 135.363 190.275 137.318 186.92 139.267L186.929 139.273Z" fill="#05C174"/>
<g filter="url(#filter0_d_753_113)">
<path d="M62.3828 157.977C62.3828 158.122 62.3568 158.258 62.3047 158.383C62.2526 158.508 62.1797 158.617 62.0859 158.711C61.9974 158.799 61.8906 158.87 61.7656 158.922C61.6406 158.974 61.5052 159 61.3594 159H54.0312C53.8438 159 53.6406 158.979 53.4219 158.938C53.2083 158.891 52.9948 158.82 52.7812 158.727C52.5729 158.633 52.3724 158.513 52.1797 158.367C51.987 158.216 51.8151 158.036 51.6641 157.828C51.5182 157.615 51.401 157.37 51.3125 157.094C51.224 156.812 51.1797 156.497 51.1797 156.148V150.648C51.1797 150.461 51.2005 150.26 51.2422 150.047C51.2891 149.828 51.3594 149.615 51.4531 149.406C51.5469 149.193 51.6693 148.99 51.8203 148.797C51.9714 148.604 52.151 148.435 52.3594 148.289C52.5729 148.138 52.8177 148.018 53.0938 147.93C53.3698 147.841 53.6823 147.797 54.0312 147.797H62.2891V149.828H54.0312C53.7656 149.828 53.5625 149.898 53.4219 150.039C53.2812 150.18 53.2109 150.388 53.2109 150.664V156.148C53.2109 156.409 53.2812 156.612 53.4219 156.758C53.5677 156.898 53.7708 156.969 54.0312 156.969H60.3516V154.422H54.9453V152.375H61.3594C61.5052 152.375 61.6406 152.404 61.7656 152.461C61.8906 152.513 61.9974 152.586 62.0859 152.68C62.1797 152.773 62.2526 152.883 62.3047 153.008C62.3568 153.128 62.3828 153.258 62.3828 153.398V157.977ZM75.4766 157.977C75.4766 158.122 75.4505 158.258 75.3984 158.383C75.3464 158.508 75.2734 158.617 75.1797 158.711C75.0859 158.799 74.9766 158.87 74.8516 158.922C74.7266 158.974 74.5938 159 74.4531 159H69.875C69.4427 159 69.0052 158.953 68.5625 158.859C68.1198 158.766 67.6901 158.622 67.2734 158.43C66.862 158.232 66.474 157.982 66.1094 157.68C65.7448 157.378 65.4245 157.021 65.1484 156.609C64.8776 156.193 64.6641 155.719 64.5078 155.188C64.3516 154.651 64.2734 154.055 64.2734 153.398V147.797H66.3047V153.398C66.3047 153.971 66.3828 154.456 66.5391 154.852C66.7005 155.247 66.9036 155.578 67.1484 155.844C67.3932 156.109 67.6615 156.318 67.9531 156.469C68.2448 156.62 68.5208 156.732 68.7812 156.805C69.0469 156.878 69.2786 156.924 69.4766 156.945C69.6797 156.961 69.8125 156.969 69.875 156.969H73.4453V147.797H75.4766V157.977ZM79.8906 159H77.8594V147.797H79.8906V159ZM93.4453 154.312C93.4453 154.995 93.3255 155.622 93.0859 156.195C92.8516 156.768 92.526 157.263 92.1094 157.68C91.6927 158.091 91.1979 158.414 90.625 158.648C90.0521 158.883 89.4297 159 88.7578 159H83.2734C83.1276 159 82.9922 158.974 82.8672 158.922C82.7422 158.87 82.6328 158.799 82.5391 158.711C82.4505 158.617 82.3802 158.508 82.3281 158.383C82.276 158.258 82.25 158.122 82.25 157.977V148.82C82.25 148.68 82.276 148.547 82.3281 148.422C82.3802 148.297 82.4505 148.188 82.5391 148.094C82.6328 148 82.7422 147.927 82.8672 147.875C82.9922 147.823 83.1276 147.797 83.2734 147.797H88.7578C89.4297 147.797 90.0521 147.914 90.625 148.148C91.1979 148.383 91.6927 148.708 92.1094 149.125C92.526 149.536 92.8516 150.031 93.0859 150.609C93.3255 151.182 93.4453 151.807 93.4453 152.484V154.312ZM91.4141 152.484C91.4141 152.089 91.349 151.727 91.2188 151.398C91.0938 151.07 90.9141 150.792 90.6797 150.562C90.4453 150.328 90.1641 150.148 89.8359 150.023C89.513 149.893 89.1536 149.828 88.7578 149.828H84.2812V156.969H88.7578C89.1536 156.969 89.513 156.906 89.8359 156.781C90.1641 156.651 90.4453 156.471 90.6797 156.242C90.9141 156.008 91.0938 155.729 91.2188 155.406C91.349 155.078 91.4141 154.714 91.4141 154.312V152.484ZM104.648 154.422H98.2344V152.375H104.648V154.422ZM105.562 159H98.2344C97.9531 159 97.6458 158.951 97.3125 158.852C96.9792 158.753 96.6693 158.591 96.3828 158.367C96.1016 158.138 95.8646 157.844 95.6719 157.484C95.4844 157.12 95.3906 156.674 95.3906 156.148V148.82C95.3906 148.68 95.4167 148.547 95.4688 148.422C95.5208 148.297 95.5911 148.188 95.6797 148.094C95.7734 148 95.8828 147.927 96.0078 147.875C96.1328 147.823 96.2682 147.797 96.4141 147.797H105.562V149.828H97.4219V156.148C97.4219 156.414 97.4922 156.617 97.6328 156.758C97.7734 156.898 97.9792 156.969 98.25 156.969H105.562V159ZM118.711 156.539C118.711 156.789 118.667 157.057 118.578 157.344C118.495 157.63 118.354 157.896 118.156 158.141C117.964 158.385 117.711 158.591 117.398 158.758C117.086 158.919 116.703 159 116.25 159H108.539C108.393 159 108.258 158.974 108.133 158.922C108.008 158.87 107.898 158.799 107.805 158.711C107.716 158.617 107.646 158.508 107.594 158.383C107.542 158.258 107.516 158.122 107.516 157.977V148.82C107.516 148.68 107.542 148.547 107.594 148.422C107.646 148.297 107.716 148.188 107.805 148.094C107.898 148 108.008 147.927 108.133 147.875C108.258 147.823 108.393 147.797 108.539 147.797H115.336C115.586 147.797 115.854 147.841 116.141 147.93C116.427 148.018 116.693 148.161 116.938 148.359C117.188 148.552 117.393 148.805 117.555 149.117C117.721 149.43 117.805 149.812 117.805 150.266V150.648C117.805 151.008 117.745 151.396 117.625 151.812C117.505 152.224 117.312 152.615 117.047 152.984C117.276 153.125 117.49 153.294 117.688 153.492C117.891 153.69 118.068 153.919 118.219 154.18C118.37 154.44 118.49 154.734 118.578 155.062C118.667 155.391 118.711 155.753 118.711 156.148V156.539ZM116.68 156.148C116.68 155.883 116.638 155.646 116.555 155.438C116.471 155.224 116.354 155.042 116.203 154.891C116.052 154.74 115.87 154.625 115.656 154.547C115.443 154.464 115.203 154.422 114.938 154.422H110.359V152.375H114.023C114.289 152.375 114.529 152.336 114.742 152.258C114.956 152.174 115.138 152.057 115.289 151.906C115.44 151.755 115.555 151.576 115.633 151.367C115.716 151.154 115.758 150.914 115.758 150.648V150.266C115.758 149.974 115.617 149.828 115.336 149.828H109.547V156.969H116.25C116.286 156.969 116.331 156.966 116.383 156.961C116.435 156.956 116.482 156.94 116.523 156.914C116.565 156.888 116.602 156.844 116.633 156.781C116.664 156.719 116.68 156.633 116.68 156.523V156.148ZM132.242 154.469C132.242 155.151 132.125 155.779 131.891 156.352C131.656 156.924 131.331 157.419 130.914 157.836C130.497 158.253 130.003 158.578 129.43 158.812C128.862 159.042 128.242 159.156 127.57 159.156H124.82C124.148 159.156 123.526 159.042 122.953 158.812C122.38 158.578 121.885 158.253 121.469 157.836C121.052 157.419 120.724 156.924 120.484 156.352C120.25 155.779 120.133 155.151 120.133 154.469V152.328C120.133 151.651 120.25 151.026 120.484 150.453C120.724 149.875 121.052 149.38 121.469 148.969C121.885 148.552 122.38 148.227 122.953 147.992C123.526 147.758 124.148 147.641 124.82 147.641H127.57C128.242 147.641 128.862 147.758 129.43 147.992C130.003 148.227 130.497 148.552 130.914 148.969C131.331 149.38 131.656 149.875 131.891 150.453C132.125 151.026 132.242 151.651 132.242 152.328V154.469ZM130.211 152.328C130.211 151.927 130.146 151.565 130.016 151.242C129.891 150.914 129.711 150.635 129.477 150.406C129.247 150.172 128.969 149.992 128.641 149.867C128.318 149.737 127.961 149.672 127.57 149.672H124.82C124.424 149.672 124.062 149.737 123.734 149.867C123.411 149.992 123.133 150.172 122.898 150.406C122.664 150.635 122.482 150.914 122.352 151.242C122.227 151.565 122.164 151.927 122.164 152.328V154.469C122.164 154.87 122.227 155.234 122.352 155.562C122.482 155.885 122.664 156.164 122.898 156.398C123.133 156.628 123.411 156.807 123.734 156.938C124.062 157.062 124.424 157.125 124.82 157.125H127.555C127.951 157.125 128.31 157.062 128.633 156.938C128.961 156.807 129.242 156.628 129.477 156.398C129.711 156.164 129.891 155.885 130.016 155.562C130.146 155.234 130.211 154.87 130.211 154.469V152.328ZM146.008 154.469C146.008 155.151 145.891 155.779 145.656 156.352C145.422 156.924 145.096 157.419 144.68 157.836C144.263 158.253 143.768 158.578 143.195 158.812C142.628 159.042 142.008 159.156 141.336 159.156H138.586C137.914 159.156 137.292 159.042 136.719 158.812C136.146 158.578 135.651 158.253 135.234 157.836C134.818 157.419 134.49 156.924 134.25 156.352C134.016 155.779 133.898 155.151 133.898 154.469V152.328C133.898 151.651 134.016 151.026 134.25 150.453C134.49 149.875 134.818 149.38 135.234 148.969C135.651 148.552 136.146 148.227 136.719 147.992C137.292 147.758 137.914 147.641 138.586 147.641H141.336C142.008 147.641 142.628 147.758 143.195 147.992C143.768 148.227 144.263 148.552 144.68 148.969C145.096 149.38 145.422 149.875 145.656 150.453C145.891 151.026 146.008 151.651 146.008 152.328V154.469ZM143.977 152.328C143.977 151.927 143.911 151.565 143.781 151.242C143.656 150.914 143.477 150.635 143.242 150.406C143.013 150.172 142.734 149.992 142.406 149.867C142.083 149.737 141.727 149.672 141.336 149.672H138.586C138.19 149.672 137.828 149.737 137.5 149.867C137.177 149.992 136.898 150.172 136.664 150.406C136.43 150.635 136.247 150.914 136.117 151.242C135.992 151.565 135.93 151.927 135.93 152.328V154.469C135.93 154.87 135.992 155.234 136.117 155.562C136.247 155.885 136.43 156.164 136.664 156.398C136.898 156.628 137.177 156.807 137.5 156.938C137.828 157.062 138.19 157.125 138.586 157.125H141.32C141.716 157.125 142.076 157.062 142.398 156.938C142.727 156.807 143.008 156.628 143.242 156.398C143.477 156.164 143.656 155.885 143.781 155.562C143.911 155.234 143.977 154.87 143.977 154.469V152.328ZM159.758 159H156.875L152.305 154.422H150.875V152.375H152.305L156.875 147.797H159.758L154 153.398L159.758 159ZM150.062 159H148.031V147.797H150.062V159Z" fill="#05C174"/>
</g>
<path d="M147.437 20H61.5522V88.0515H147.437V20Z" stroke="#09ACB5" stroke-width="3.8" stroke-linejoin="round"/>
<path d="M139.697 81.4818H69.2986C68.3037 73.2791 67.6277 63.9904 67.6353 53.7827C67.6429 43.7724 68.3189 34.6432 69.2986 26.5697H139.697C140.669 34.4761 141.337 43.3851 141.375 53.1295C141.413 63.5955 140.722 73.112 139.697 81.4818Z" fill="#1C0951" stroke="#09ACB5" stroke-width="1.9" stroke-miterlimit="10"/>
<path d="M152.996 96.4971H56V122.1H152.996V96.4971Z" stroke="#09ACB5" stroke-width="3.8" stroke-miterlimit="10"/>
<path d="M121.507 88.6363H87.4814V96.3832H121.507V88.6363Z" stroke="#09ACB5" stroke-width="3.8" stroke-miterlimit="10"/>
<path d="M152.882 96.4971H108.132V121.211H152.882V96.4971Z" stroke="#09ACB5" stroke-width="3.8" stroke-miterlimit="10"/>
<path d="M120.208 106.796C122.062 106.796 122.487 107.472 122.487 108.999C122.487 110.525 122.062 111.178 120.208 111.178C118.355 111.178 117.953 110.533 117.953 108.999C117.953 107.464 118.355 106.796 120.208 106.796Z" fill="#09ACB5"/>
<path d="M130.955 106.796C132.809 106.796 133.234 107.472 133.234 108.999C133.234 110.525 132.809 111.178 130.955 111.178C129.102 111.178 128.7 110.533 128.7 108.999C128.7 107.464 129.102 106.796 130.955 106.796Z" fill="#09ACB5"/>
<path d="M141.703 106.796C143.556 106.796 143.981 107.472 143.981 108.999C143.981 110.525 143.556 111.178 141.703 111.178C139.849 111.178 139.447 110.533 139.447 108.999C139.447 107.464 139.849 106.796 141.703 106.796Z" fill="#09ACB5"/>
<g style="mix-blend-mode:screen">
<path d="M104.996 74.8285C116.476 74.8285 125.783 65.5216 125.783 54.0409C125.783 42.5602 116.476 33.2533 104.996 33.2533C93.5149 33.2533 84.208 42.5602 84.208 54.0409C84.208 65.5216 93.5149 74.8285 104.996 74.8285Z" stroke="#09ACB5" stroke-width="3.14" stroke-miterlimit="10"/>
<path d="M105.14 74.9955C112.011 74.9955 117.581 65.6886 117.581 54.2079C117.581 42.7273 112.011 33.4203 105.14 33.4203C98.2691 33.4203 92.6992 42.7273 92.6992 54.2079C92.6992 65.6886 98.2691 74.9955 105.14 74.9955Z" stroke="#09ACB5" stroke-width="3.14" stroke-miterlimit="10"/>
<path d="M104.859 74.8285C107.657 74.8285 109.925 65.5216 109.925 54.0409C109.925 42.5602 107.657 33.2533 104.859 33.2533C102.061 33.2533 99.793 42.5602 99.793 54.0409C99.793 65.5216 102.061 74.8285 104.859 74.8285Z" stroke="#09ACB5" stroke-width="3.14" stroke-miterlimit="10"/>
<path d="M104.776 61.8334C116.101 61.8334 125.282 58.4704 125.282 54.3219C125.282 50.1734 116.101 46.8104 104.776 46.8104C93.4502 46.8104 84.269 50.1734 84.269 54.3219C84.269 58.4704 93.4502 61.8334 104.776 61.8334Z" stroke="#09ACB5" stroke-width="3.69" stroke-miterlimit="10"/>
</g>
</g>
<defs>
<filter id="filter0_d_753_113" x="47.1797" y="147.641" width="116.578" height="19.5156" filterUnits="userSpaceOnUse" color-interpolation-filters="sRGB">
<feFlood flood-opacity="0" result="BackgroundImageFix"/>
<feColorMatrix in="SourceAlpha" type="matrix" values="0 0 0 0 0 0 0 0 0 0 0 0 0 0 0 0 0 0 127 0" result="hardAlpha"/>
<feOffset dy="4"/>
<feGaussianBlur stdDeviation="2"/>
<feComposite in2="hardAlpha" operator="out"/>
<feColorMatrix type="matrix" values="0 0 0 0 0 0 0 0 0 0 0 0 0 0 0 0 0 0 0.25 0"/>
<feBlend mode="normal" in2="BackgroundImageFix" result="effect1_dropShadow_753_113"/>
<feBlend mode="normal" in="SourceGraphic" in2="effect1_dropShadow_753_113" result="shape"/>
</filter>
<clipPath id="clip0_753_113">
<rect width="209" height="172" fill="white"/>
</clipPath>
</defs>
</svg>
