<svg width="377" height="107" viewBox="0 0 377 107" fill="none" xmlns="http://www.w3.org/2000/svg">
<g filter="url(#filter0_d_830_126)">
<path d="M148.891 18.125L145.141 39.125C145.057 39.5417 144.87 39.901 144.578 40.2031C144.286 40.5052 143.932 40.6979 143.516 40.7812C143.089 40.8542 142.682 40.8073 142.297 40.6406C141.922 40.474 141.625 40.2135 141.406 39.8594L133.969 27.6406L126.516 39.8594C126.339 40.1615 126.094 40.3958 125.781 40.5625C125.479 40.7292 125.151 40.8125 124.797 40.8125C124.307 40.8125 123.875 40.6562 123.5 40.3438C123.125 40.0312 122.896 39.625 122.812 39.125L119.031 18.125H123.156L125.844 32.9219L132.25 22.7031C132.427 22.401 132.667 22.1667 132.969 22C133.281 21.8333 133.615 21.75 133.969 21.75C134.323 21.75 134.651 21.8333 134.953 22C135.255 22.1667 135.505 22.401 135.703 22.7031L142.078 32.9219L144.766 18.125H148.891ZM170.609 40.5312H166.547V29.3281C166.547 28.7969 166.411 28.3958 166.141 28.125C165.87 27.8438 165.464 27.7031 164.922 27.7031H157.594V23.6406H164.922C165.307 23.6406 165.714 23.6875 166.141 23.7812C166.568 23.8646 166.99 24 167.406 24.1875C167.833 24.375 168.24 24.6198 168.625 24.9219C169.01 25.2135 169.349 25.5729 169.641 26C169.932 26.4167 170.167 26.901 170.344 27.4531C170.521 28.0052 170.609 28.6302 170.609 29.3281V40.5312ZM155.953 40.5312H151.891V16.5H155.953V40.5312ZM191.766 34.9375C191.766 35.5 191.667 36.1094 191.469 36.7656C191.271 37.4115 190.948 38.0156 190.5 38.5781C190.062 39.1302 189.484 39.5938 188.766 39.9688C188.057 40.3438 187.193 40.5312 186.172 40.5312H178.844C178.281 40.5312 177.672 40.4323 177.016 40.2344C176.37 40.0365 175.766 39.7188 175.203 39.2812C174.651 38.8333 174.188 38.2552 173.812 37.5469C173.438 36.8281 173.25 35.9583 173.25 34.9375C173.25 34.375 173.349 33.7656 173.547 33.1094C173.745 32.4531 174.062 31.849 174.5 31.2969C174.948 30.7344 175.526 30.2656 176.234 29.8906C176.953 29.5156 177.823 29.3281 178.844 29.3281H186.172V33.2031H178.844C178.292 33.2031 177.865 33.375 177.562 33.7188C177.26 34.0521 177.109 34.4688 177.109 34.9688C177.109 35.5 177.281 35.9167 177.625 36.2188C177.979 36.5104 178.396 36.6562 178.875 36.6562H186.172C186.724 36.6562 187.151 36.4896 187.453 36.1562C187.755 35.8229 187.906 35.4062 187.906 34.9062V29.2344C187.906 28.7031 187.74 28.2812 187.406 27.9688C187.083 27.6562 186.672 27.5 186.172 27.5H177.25V23.6406H186.172C186.734 23.6406 187.339 23.7396 187.984 23.9375C188.641 24.1354 189.245 24.4583 189.797 24.9062C190.359 25.3438 190.828 25.9219 191.203 26.6406C191.578 27.349 191.766 28.2135 191.766 29.2344V34.9375ZM210.531 27.7031H203.438V40.5312H199.328V27.7031H194.047V23.6406H199.328V18.125H203.438V23.6406H210.531V27.7031ZM227.484 20.1719H223.422V16.5H227.484V20.1719ZM227.484 40.5312H223.422V23.6406H227.484V40.5312ZM247.719 34.8281C247.719 35.526 247.63 36.1562 247.453 36.7188C247.276 37.2708 247.042 37.7604 246.75 38.1875C246.458 38.6042 246.12 38.9635 245.734 39.2656C245.349 39.5573 244.943 39.7969 244.516 39.9844C244.099 40.1719 243.672 40.3125 243.234 40.4062C242.807 40.4896 242.401 40.5312 242.016 40.5312H231.016V36.4688H241.984C242.536 36.4688 242.953 36.3281 243.234 36.0469C243.516 35.7656 243.656 35.3594 243.656 34.8281C243.604 33.7448 243.057 33.2031 242.016 33.2031H235.719C234.823 33.2031 234.062 33.0469 233.438 32.7344C232.812 32.4219 232.302 32.0312 231.906 31.5625C231.521 31.0938 231.24 30.5885 231.062 30.0469C230.896 29.5052 230.812 29 230.812 28.5312C230.812 27.625 230.974 26.8646 231.297 26.25C231.62 25.625 232.026 25.1198 232.516 24.7344C233.005 24.349 233.536 24.0729 234.109 23.9062C234.682 23.7292 235.219 23.6406 235.719 23.6406H245.703V27.7031H235.75C235.542 27.7031 235.375 27.7292 235.25 27.7812C235.135 27.8229 235.047 27.8854 234.984 27.9688C234.932 28.0417 234.901 28.125 234.891 28.2188C234.88 28.3021 234.875 28.3854 234.875 28.4688C234.885 28.6354 234.917 28.7656 234.969 28.8594C235.021 28.9531 235.083 29.0208 235.156 29.0625C235.24 29.1042 235.328 29.1302 235.422 29.1406C235.526 29.1406 235.625 29.1406 235.719 29.1406H242.016C243.057 29.1406 243.943 29.3281 244.672 29.7031C245.401 30.0781 245.99 30.5521 246.438 31.125C246.885 31.6875 247.208 32.3021 247.406 32.9688C247.615 33.6354 247.719 34.2552 247.719 34.8281ZM45.7812 68.2812H60.0469V59.125H64.1094V81.5312H60.0469V72.375H45.7812V81.5312H41.7188V59.125H45.7812V68.2812ZM85.7656 75.9375C85.7656 76.5 85.6667 77.1094 85.4688 77.7656C85.2708 78.4115 84.9479 79.0156 84.5 79.5781C84.0625 80.1302 83.4844 80.5938 82.7656 80.9688C82.0573 81.3438 81.1927 81.5312 80.1719 81.5312H72.8438C72.2812 81.5312 71.6719 81.4323 71.0156 81.2344C70.3698 81.0365 69.7656 80.7188 69.2031 80.2812C68.651 79.8333 68.1875 79.2552 67.8125 78.5469C67.4375 77.8281 67.25 76.9583 67.25 75.9375C67.25 75.375 67.349 74.7656 67.5469 74.1094C67.7448 73.4531 68.0625 72.849 68.5 72.2969C68.9479 71.7344 69.526 71.2656 70.2344 70.8906C70.9531 70.5156 71.8229 70.3281 72.8438 70.3281H80.1719V74.2031H72.8438C72.2917 74.2031 71.8646 74.375 71.5625 74.7188C71.2604 75.0521 71.1094 75.4688 71.1094 75.9688C71.1094 76.5 71.2812 76.9167 71.625 77.2188C71.9792 77.5104 72.3958 77.6562 72.875 77.6562H80.1719C80.724 77.6562 81.151 77.4896 81.4531 77.1562C81.7552 76.8229 81.9062 76.4062 81.9062 75.9062V70.2344C81.9062 69.7031 81.7396 69.2812 81.4062 68.9688C81.0833 68.6562 80.6719 68.5 80.1719 68.5H71.25V64.6406H80.1719C80.7344 64.6406 81.3385 64.7396 81.9844 64.9375C82.6406 65.1354 83.2448 65.4583 83.7969 65.9062C84.3594 66.3438 84.8281 66.9219 85.2031 67.6406C85.5781 68.349 85.7656 69.2135 85.7656 70.2344V75.9375ZM105.594 81.5312H94.5781C94.0156 81.5312 93.401 81.4323 92.7344 81.2344C92.0677 81.0365 91.4479 80.7135 90.875 80.2656C90.3125 79.8073 89.8385 79.2188 89.4531 78.5C89.0781 77.7708 88.8906 76.8802 88.8906 75.8281V70.3281C88.8906 69.9427 88.9323 69.5365 89.0156 69.1094C89.1094 68.6823 89.25 68.2604 89.4375 67.8438C89.625 67.4167 89.8646 67.0104 90.1562 66.625C90.4583 66.2396 90.8177 65.901 91.2344 65.6094C91.6615 65.3177 92.151 65.0833 92.7031 64.9062C93.2552 64.7292 93.8802 64.6406 94.5781 64.6406H105.594V68.7031H94.5781C94.0469 68.7031 93.6406 68.8385 93.3594 69.1094C93.0885 69.3802 92.9531 69.7969 92.9531 70.3594V75.8281C92.9531 76.3594 93.0938 76.7656 93.375 77.0469C93.6562 77.3281 94.0677 77.4688 94.6094 77.4688H105.594V81.5312ZM128.797 81.5312H122.938L114.75 73.625C114.292 73.2083 114.078 72.6875 114.109 72.0625C114.13 71.7708 114.203 71.5 114.328 71.25C114.464 70.9896 114.646 70.7708 114.875 70.5938L122.297 64.6094H128.797L119.234 72.3125L128.797 81.5312ZM113.078 81.5312H109.016V57.5H113.078V81.5312ZM146.031 68.7031H136.844V64.6406H146.031V68.7031ZM146.031 61.375H136.875C136.323 61.375 135.906 61.5156 135.625 61.7969C135.344 62.0677 135.203 62.4688 135.203 63V81.5312H131.141V63C131.141 62.3021 131.229 61.6771 131.406 61.125C131.583 60.5729 131.818 60.0885 132.109 59.6719C132.411 59.2448 132.755 58.8854 133.141 58.5938C133.526 58.2917 133.927 58.0469 134.344 57.8594C134.771 57.6719 135.198 57.5365 135.625 57.4531C136.052 57.3594 136.458 57.3125 136.844 57.3125H146.031V61.375ZM166.812 70.2344C166.812 70.7969 166.714 71.4062 166.516 72.0625C166.318 72.7083 165.995 73.3125 165.547 73.875C165.109 74.4271 164.531 74.8906 163.812 75.2656C163.104 75.6406 162.24 75.8281 161.219 75.8281H153.891V71.9688H161.219C161.771 71.9688 162.198 71.8021 162.5 71.4688C162.802 71.125 162.953 70.7031 162.953 70.2031C162.953 69.6719 162.781 69.2552 162.438 68.9531C162.104 68.651 161.698 68.5 161.219 68.5H153.891C153.339 68.5 152.911 68.6719 152.609 69.0156C152.307 69.349 152.156 69.7656 152.156 70.2656V75.9375C152.156 76.4792 152.323 76.901 152.656 77.2031C153 77.5052 153.422 77.6562 153.922 77.6562H161.219V81.5312H153.891C153.328 81.5312 152.719 81.4323 152.062 81.2344C151.417 81.0365 150.812 80.7188 150.25 80.2812C149.698 79.8333 149.234 79.2552 148.859 78.5469C148.484 77.8281 148.297 76.9583 148.297 75.9375V70.2344C148.297 69.6719 148.396 69.0677 148.594 68.4219C148.792 67.7656 149.109 67.1615 149.547 66.6094C149.995 66.0469 150.573 65.5781 151.281 65.2031C152 64.8281 152.87 64.6406 153.891 64.6406H161.219C161.781 64.6406 162.385 64.7396 163.031 64.9375C163.688 65.1354 164.292 65.4583 164.844 65.9062C165.406 66.3438 165.875 66.9219 166.25 67.6406C166.625 68.349 166.812 69.2135 166.812 70.2344ZM185.875 75.8281C185.875 76.526 185.786 77.1562 185.609 77.7188C185.432 78.2708 185.198 78.7604 184.906 79.1875C184.615 79.6042 184.276 79.9635 183.891 80.2656C183.505 80.5573 183.099 80.7969 182.672 80.9844C182.255 81.1719 181.828 81.3125 181.391 81.4062C180.964 81.4896 180.557 81.5312 180.172 81.5312H169.172V77.4688H180.141C180.693 77.4688 181.109 77.3281 181.391 77.0469C181.672 76.7656 181.812 76.3594 181.812 75.8281C181.76 74.7448 181.214 74.2031 180.172 74.2031H173.875C172.979 74.2031 172.219 74.0469 171.594 73.7344C170.969 73.4219 170.458 73.0312 170.062 72.5625C169.677 72.0938 169.396 71.5885 169.219 71.0469C169.052 70.5052 168.969 70 168.969 69.5312C168.969 68.625 169.13 67.8646 169.453 67.25C169.776 66.625 170.182 66.1198 170.672 65.7344C171.161 65.349 171.693 65.0729 172.266 64.9062C172.839 64.7292 173.375 64.6406 173.875 64.6406H183.859V68.7031H173.906C173.698 68.7031 173.531 68.7292 173.406 68.7812C173.292 68.8229 173.203 68.8854 173.141 68.9688C173.089 69.0417 173.057 69.125 173.047 69.2188C173.036 69.3021 173.031 69.3854 173.031 69.4688C173.042 69.6354 173.073 69.7656 173.125 69.8594C173.177 69.9531 173.24 70.0208 173.312 70.0625C173.396 70.1042 173.484 70.1302 173.578 70.1406C173.682 70.1406 173.781 70.1406 173.875 70.1406H180.172C181.214 70.1406 182.099 70.3281 182.828 70.7031C183.557 71.0781 184.146 71.5521 184.594 72.125C185.042 72.6875 185.365 73.3021 185.562 73.9688C185.771 74.6354 185.875 75.2552 185.875 75.8281ZM203.812 68.7031H196.719V81.5312H192.609V68.7031H187.328V64.6406H192.609V59.125H196.719V64.6406H203.812V68.7031ZM236.969 81.5312H216.391V74.0156C216.391 73.6302 216.432 73.224 216.516 72.7969C216.609 72.3594 216.75 71.9271 216.938 71.5C217.125 71.0729 217.365 70.6667 217.656 70.2812C217.958 69.8958 218.318 69.5573 218.734 69.2656C219.161 68.9635 219.651 68.724 220.203 68.5469C220.755 68.3698 221.38 68.2812 222.078 68.2812H231.234C231.786 68.2812 232.193 68.1458 232.453 67.875C232.724 67.5938 232.859 67.1875 232.859 66.6562V64.8594C232.859 64.3073 232.724 63.8906 232.453 63.6094C232.182 63.3281 231.786 63.1875 231.266 63.1875H218.219V59.125H231.266C231.953 59.125 232.573 59.2135 233.125 59.3906C233.677 59.5677 234.161 59.8073 234.578 60.1094C235.005 60.401 235.37 60.7396 235.672 61.125C235.974 61.5104 236.219 61.9167 236.406 62.3438C236.604 62.7604 236.745 63.1875 236.828 63.625C236.922 64.0521 236.969 64.4531 236.969 64.8281V66.6562C236.969 67.7083 236.776 68.599 236.391 69.3281C236.016 70.0469 235.542 70.6354 234.969 71.0938C234.396 71.5417 233.776 71.8698 233.109 72.0781C232.453 72.276 231.839 72.375 231.266 72.375H222.078C221.745 72.375 221.479 72.4219 221.281 72.5156C221.083 72.6094 220.927 72.7344 220.812 72.8906C220.708 73.0469 220.63 73.224 220.578 73.4219C220.526 73.6198 220.484 73.8177 220.453 74.0156V77.4688H236.969V81.5312ZM266.688 72.1562C266.688 73.0729 266.568 73.9427 266.328 74.7656C266.099 75.5781 265.771 76.3333 265.344 77.0312C264.917 77.7292 264.411 78.3542 263.828 78.9062C263.245 79.4583 262.604 79.9323 261.906 80.3281C261.219 80.7135 260.484 81.0104 259.703 81.2188C258.922 81.4271 258.125 81.5312 257.312 81.5312H249.984C249.161 81.5312 248.359 81.4271 247.578 81.2188C246.797 81.0104 246.057 80.7135 245.359 80.3281C244.672 79.9323 244.036 79.4583 243.453 78.9062C242.87 78.3542 242.365 77.7292 241.938 77.0312C241.521 76.3333 241.193 75.5781 240.953 74.7656C240.724 73.9427 240.609 73.0729 240.609 72.1562V68.5C240.609 67.125 240.865 65.8646 241.375 64.7188C241.896 63.5729 242.589 62.5885 243.453 61.7656C244.318 60.9323 245.312 60.2865 246.438 59.8281C247.573 59.3594 248.755 59.125 249.984 59.125H257.312C258.125 59.125 258.922 59.2292 259.703 59.4375C260.484 59.6458 261.219 59.9479 261.906 60.3438C262.604 60.7292 263.245 61.1979 263.828 61.75C264.411 62.3021 264.917 62.9271 265.344 63.625C265.771 64.3229 266.099 65.0833 266.328 65.9062C266.568 66.7188 266.688 67.5833 266.688 68.5V72.1562ZM262.594 68.5C262.594 67.6979 262.448 66.9688 262.156 66.3125C261.865 65.6562 261.474 65.0938 260.984 64.625C260.505 64.1562 259.948 63.7969 259.312 63.5469C258.677 63.2969 258.01 63.1771 257.312 63.1875H249.984C249.307 63.1771 248.646 63.2969 248 63.5469C247.365 63.7865 246.797 64.1406 246.297 64.6094C245.807 65.0677 245.411 65.6302 245.109 66.2969C244.818 66.9531 244.672 67.6875 244.672 68.5V72.1562C244.672 72.9688 244.818 73.7031 245.109 74.3594C245.401 75.0156 245.792 75.5781 246.281 76.0469C246.771 76.5052 247.333 76.8594 247.969 77.1094C248.615 77.3594 249.286 77.4792 249.984 77.4688H257.312C258.115 77.4688 258.839 77.3385 259.484 77.0781C260.141 76.8073 260.698 76.4375 261.156 75.9688C261.615 75.5 261.969 74.9427 262.219 74.2969C262.469 73.6406 262.594 72.9271 262.594 72.1562V68.5ZM260.828 65.5312C260.984 65.7604 261.089 66.0104 261.141 66.2812C261.193 66.5417 261.193 66.8021 261.141 67.0625C261.089 67.3125 260.984 67.5521 260.828 67.7812C260.682 68 260.49 68.1875 260.25 68.3438L249.281 75.6719C249.104 75.8073 248.922 75.901 248.734 75.9531C248.547 76.0052 248.354 76.0312 248.156 76.0312C247.823 76.0312 247.505 75.9531 247.203 75.7969C246.901 75.6406 246.656 75.4167 246.469 75.125C246.312 74.8958 246.208 74.651 246.156 74.3906C246.104 74.1198 246.099 73.8594 246.141 73.6094C246.193 73.349 246.292 73.1094 246.438 72.8906C246.583 72.6615 246.776 72.4688 247.016 72.3125L258.016 64.9844C258.245 64.8281 258.49 64.724 258.75 64.6719C259.021 64.6198 259.281 64.6198 259.531 64.6719C259.792 64.724 260.031 64.8229 260.25 64.9688C260.479 65.1146 260.672 65.3021 260.828 65.5312ZM290.688 81.5312H270.109V74.0156C270.109 73.6302 270.151 73.224 270.234 72.7969C270.328 72.3594 270.469 71.9271 270.656 71.5C270.844 71.0729 271.083 70.6667 271.375 70.2812C271.677 69.8958 272.036 69.5573 272.453 69.2656C272.88 68.9635 273.37 68.724 273.922 68.5469C274.474 68.3698 275.099 68.2812 275.797 68.2812H284.953C285.505 68.2812 285.911 68.1458 286.172 67.875C286.443 67.5938 286.578 67.1875 286.578 66.6562V64.8594C286.578 64.3073 286.443 63.8906 286.172 63.6094C285.901 63.3281 285.505 63.1875 284.984 63.1875H271.938V59.125H284.984C285.672 59.125 286.292 59.2135 286.844 59.3906C287.396 59.5677 287.88 59.8073 288.297 60.1094C288.724 60.401 289.089 60.7396 289.391 61.125C289.693 61.5104 289.938 61.9167 290.125 62.3438C290.323 62.7604 290.464 63.1875 290.547 63.625C290.641 64.0521 290.688 64.4531 290.688 64.8281V66.6562C290.688 67.7083 290.495 68.599 290.109 69.3281C289.734 70.0469 289.26 70.6354 288.688 71.0938C288.115 71.5417 287.495 71.8698 286.828 72.0781C286.172 72.276 285.557 72.375 284.984 72.375H275.797C275.464 72.375 275.198 72.4219 275 72.5156C274.802 72.6094 274.646 72.7344 274.531 72.8906C274.427 73.0469 274.349 73.224 274.297 73.4219C274.245 73.6198 274.203 73.8177 274.172 74.0156V77.4688H290.688V81.5312ZM298.516 68.2812H309.328C309.901 68.2812 310.516 68.3854 311.172 68.5938C311.839 68.7917 312.458 69.1198 313.031 69.5781C313.604 70.026 314.078 70.6146 314.453 71.3438C314.839 72.0729 315.031 72.9635 315.031 74.0156V75.8281C315.031 76.2135 314.984 76.6198 314.891 77.0469C314.807 77.474 314.667 77.901 314.469 78.3281C314.281 78.7448 314.036 79.1458 313.734 79.5312C313.443 79.9167 313.083 80.2604 312.656 80.5625C312.24 80.8542 311.755 81.0885 311.203 81.2656C310.651 81.4427 310.026 81.5312 309.328 81.5312H301.969C301.469 81.5312 300.932 81.474 300.359 81.3594C299.797 81.2448 299.24 81.0625 298.688 80.8125C298.135 80.5521 297.599 80.2292 297.078 79.8438C296.568 79.4479 296.12 78.974 295.734 78.4219C295.349 77.8594 295.036 77.2135 294.797 76.4844C294.568 75.7552 294.453 74.9323 294.453 74.0156V66.6562C294.453 65.7396 294.568 64.9167 294.797 64.1875C295.036 63.4583 295.349 62.8177 295.734 62.2656C296.12 61.7031 296.568 61.224 297.078 60.8281C297.599 60.4323 298.135 60.1094 298.688 59.8594C299.24 59.599 299.797 59.4115 300.359 59.2969C300.932 59.1823 301.469 59.125 301.969 59.125H312.156V63.1875H301.969C301.448 63.2292 300.974 63.3385 300.547 63.5156C300.13 63.6927 299.771 63.9271 299.469 64.2188C299.167 64.5104 298.932 64.8646 298.766 65.2812C298.599 65.6875 298.516 66.1458 298.516 66.6562V68.2812ZM298.516 72.375V74.0156C298.516 74.5469 298.604 75.026 298.781 75.4531C298.969 75.8698 299.219 76.2292 299.531 76.5312C299.844 76.8333 300.208 77.0677 300.625 77.2344C301.052 77.3906 301.51 77.4688 302 77.4688H309.328C309.849 77.4688 310.245 77.3125 310.516 77C310.797 76.6875 310.938 76.2969 310.938 75.8281V74.0156C310.938 73.4844 310.802 73.0781 310.531 72.7969C310.26 72.5156 309.849 72.375 309.297 72.375H298.516ZM336.312 66.6562C336.312 67.2292 336.214 67.849 336.016 68.5156C335.818 69.1823 335.49 69.8021 335.031 70.375C334.583 70.9479 333.995 71.4271 333.266 71.8125C332.547 72.1875 331.667 72.375 330.625 72.375H327.172V76.0312H323.094V70.3281C323.094 70.0469 323.146 69.7865 323.25 69.5469C323.354 69.2969 323.495 69.0781 323.672 68.8906C323.859 68.7031 324.073 68.5573 324.312 68.4531C324.562 68.3385 324.828 68.2812 325.109 68.2812H330.625C331.156 68.2812 331.557 68.1458 331.828 67.875C332.109 67.6042 332.25 67.1979 332.25 66.6562V64.8281C332.25 64.2969 332.115 63.8906 331.844 63.6094C331.573 63.3281 331.167 63.1875 330.625 63.1875H317.594V59.125H330.625C331.198 59.125 331.818 59.2292 332.484 59.4375C333.151 59.6354 333.766 59.9583 334.328 60.4062C334.901 60.8542 335.375 61.4427 335.75 62.1719C336.125 62.901 336.312 63.7865 336.312 64.8281V66.6562ZM327.125 79.4844C327.125 79.7656 327.073 80.0312 326.969 80.2812C326.865 80.5208 326.719 80.7344 326.531 80.9219C326.354 81.099 326.141 81.2396 325.891 81.3438C325.651 81.4479 325.391 81.5 325.109 81.5C324.839 81.5 324.578 81.4479 324.328 81.3438C324.089 81.2396 323.875 81.099 323.688 80.9219C323.51 80.7344 323.365 80.5208 323.25 80.2812C323.146 80.0312 323.094 79.7656 323.094 79.4844C323.094 79.2135 323.146 78.9583 323.25 78.7188C323.365 78.4688 323.51 78.2552 323.688 78.0781C323.875 77.8906 324.089 77.7448 324.328 77.6406C324.578 77.526 324.839 77.4688 325.109 77.4688C325.391 77.4688 325.651 77.526 325.891 77.6406C326.141 77.7448 326.354 77.8906 326.531 78.0781C326.719 78.2552 326.865 78.4688 326.969 78.7188C327.073 78.9583 327.125 79.2135 327.125 79.4844Z" fill="#05B0C1"/>
</g>
<rect x="4" y="100.531" width="369" height="2" fill="#8DFCC8"/>
<g filter="url(#filter1_f_830_126)">
<rect x="4" y="100.531" width="369" height="2" fill="#05C174"/>
</g>
<defs>
<filter id="filter0_d_830_126" x="25.2188" y="0" width="327.594" height="98.0312" filterUnits="userSpaceOnUse" color-interpolation-filters="sRGB">
<feFlood flood-opacity="0" result="BackgroundImageFix"/>
<feColorMatrix in="SourceAlpha" type="matrix" values="0 0 0 0 0 0 0 0 0 0 0 0 0 0 0 0 0 0 127 0" result="hardAlpha"/>
<feOffset/>
<feGaussianBlur stdDeviation="8.25"/>
<feComposite in2="hardAlpha" operator="out"/>
<feColorMatrix type="matrix" values="0 0 0 0 0.0196078 0 0 0 0 0.690196 0 0 0 0 0.756863 0 0 0 1 0"/>
<feBlend mode="normal" in2="BackgroundImageFix" result="effect1_dropShadow_830_126"/>
<feBlend mode="normal" in="SourceGraphic" in2="effect1_dropShadow_830_126" result="shape"/>
</filter>
<filter id="filter1_f_830_126" x="0" y="96.5312" width="377" height="10" filterUnits="userSpaceOnUse" color-interpolation-filters="sRGB">
<feFlood flood-opacity="0" result="BackgroundImageFix"/>
<feBlend mode="normal" in="SourceGraphic" in2="BackgroundImageFix" result="shape"/>
<feGaussianBlur stdDeviation="2" result="effect1_foregroundBlur_830_126"/>
</filter>
</defs>
</svg>
