<svg width="393" height="930" viewBox="0 0 393 930" fill="none" xmlns="http://www.w3.org/2000/svg">
<path fill-rule="evenodd" clip-rule="evenodd" d="M-651.671 0.338906C-581.533 -0.8351 -511.176 1.51291 -441.038 0.338906L-387.957 53.586H33.1593L45.9425 25.5909H384.851V6.20902H512.944V768.225H512.957C512.953 769.144 512.949 770.063 512.944 770.982V775.231H512.925C512.793 804.355 512.653 833.48 512.523 862.605C504.488 862.469 496.44 862.356 488.393 862.22C485.199 855.407 482.074 849.304 478.881 842.491H301.432C301.355 863.019 301.052 882.884 300.976 903.435L138.556 904.589C128.554 893.612 118.552 882.635 108.55 871.658C46.2521 871.862 -16.0331 872.042 -78.3309 872.246C-81.4349 865.32 -84.5267 858.372 -87.6307 851.446C-125.224 851.831 -162.83 852.216 -200.424 852.601C-207.155 845.29 -213.887 837.957 -220.619 830.647H-358.5L-391.111 926.566H-635.718V54.6924C-641.035 54.6912 -646.353 54.6898 -651.671 54.6885C-651.606 37.7461 -651.735 17.3044 -651.671 0.338906Z" fill="#3305C1"/>
<mask id="mask0_309_614" style="mask-type:alpha" maskUnits="userSpaceOnUse" x="-676" y="3" width="1229" height="960">
<g style="mix-blend-mode:color-dodge" opacity="0.4">
<path d="M-675.575 3.1416C-266.176 3.34012 143.223 3.58828 552.574 3.1416H553L552.999 3.92477C552.716 323.347 552.905 642.77 552.999 962.194V962.977H552.574C143.176 962.977 -266.224 963.027 -675.575 962.977H-676V962.194C-675.858 642.771 -675.905 323.347 -676 3.92324V3.1416H-675.575ZM552.148 4.70489C143.08 5.15077 -266.035 4.90331 -675.149 4.70489C-675.055 323.608 -675.008 642.511 -675.149 961.414C-266.082 961.464 143.033 961.414 552.148 961.414C552.053 642.512 551.866 323.609 552.148 4.70489Z" fill="url(#paint0_linear_309_614)"/>
<path d="M-675.432 869.563C-266.128 869.328 143.082 869.469 552.386 869.563V870.345L552.385 871.126C143.081 871.032 -266.129 870.891 -675.432 871.126V869.563Z" fill="url(#paint1_linear_309_614)"/>
<path d="M-675.435 826.246C-266.035 823.984 142.893 825.492 552.433 826.246L552.432 827.028V827.81C142.891 827.056 -266.034 825.547 -675.431 827.81L-675.435 826.246Z" fill="url(#paint2_linear_309_614)"/>
<path d="M-675.482 782.883C-573.983 781.611 -471.911 773.315 -370.429 777.84C-326.909 779.773 -283.744 784.911 -240.557 789.66C-197.366 794.408 -154.15 798.768 -110.511 799.145C-0.208252 800.111 110.226 795.81 220.737 791.385C331.247 786.96 441.834 782.412 552.434 782.883L552.432 783.665L552.431 784.446C441.844 783.975 331.268 788.523 220.756 792.948C110.246 797.373 -0.199219 801.674 -110.516 800.708C-154.18 800.331 -197.417 795.969 -240.608 791.22C-283.802 786.471 -326.948 781.336 -370.449 779.404C-471.918 774.879 -573.931 783.173 -675.477 784.446L-675.482 782.883Z" fill="url(#paint3_linear_309_614)"/>
<path d="M-675.531 739.568C-579.238 737.777 -481.924 726.512 -385.636 732.64C-342.633 735.375 -300.303 742.458 -257.932 749.015C-215.556 755.572 -173.136 761.604 -129.927 762.24C-69.2347 763.135 -8.57507 758.292 52.0706 752.601C112.713 746.91 173.345 740.369 233.964 737.87C339.887 733.534 446.485 738.861 552.481 739.52L552.479 740.302L552.479 741.084C446.453 740.424 339.893 735.097 233.984 739.433C173.38 741.931 112.766 748.471 52.1147 754.163C-8.53308 759.854 -69.2145 764.699 -129.934 763.803C-173.178 763.167 -215.627 757.131 -258.003 750.573C-300.384 744.015 -342.688 736.935 -385.665 734.202C-481.934 728.075 -579.164 739.339 -675.523 741.131L-675.531 739.568Z" fill="url(#paint4_linear_309_614)"/>
<path d="M-675.485 696.201C-581.94 694.27 -487.119 681.119 -393.57 688.002C-350.847 691.137 -309.106 699.377 -267.302 707.018C-225.494 714.659 -183.618 721.703 -140.602 722.457C-77.3839 723.564 -14.2102 717.873 48.9451 711.204C112.096 704.535 175.234 696.886 238.358 694.081C342.77 689.461 447.998 695.447 552.434 696.154L552.432 696.936L552.431 697.717C447.963 697.01 342.776 691.025 238.379 695.644C175.273 698.448 112.156 706.095 48.9941 712.765C-14.1635 719.435 -77.3616 725.128 -140.61 724.02C-183.668 723.265 -225.577 716.215 -267.386 708.573C-309.201 700.931 -350.913 692.697 -393.604 689.563C-487.132 682.683 -581.848 695.831 -675.475 697.765L-675.485 696.201Z" fill="url(#paint5_linear_309_614)"/>
<path d="M-675.58 652.886C-579.442 650.955 -482.252 636.201 -386.059 643.413C-343.809 646.572 -302.599 654.788 -261.321 662.382C-220.038 669.976 -178.683 676.948 -136.116 677.632C-21.7531 679.517 92.9305 672.895 207.759 666.014C322.584 659.132 437.555 651.99 552.48 652.839L552.477 654.402C437.571 653.554 322.615 660.694 207.786 667.576C92.96 674.457 -21.7402 681.08 -136.123 679.195C-178.733 678.511 -220.122 671.532 -261.406 663.938C-302.695 656.342 -343.875 648.132 -386.094 644.975C-482.27 637.764 -579.339 652.516 -675.57 654.449L-675.58 652.886Z" fill="url(#paint6_linear_309_614)"/>
<path d="M-675.534 609.569C-570.804 606.696 -464.867 588.171 -360.076 595.901C-319.456 598.896 -279.841 606.639 -240.162 613.885C-200.479 621.132 -160.729 627.881 -119.815 628.894C103.506 634.409 328.934 611.502 552.525 609.522L552.527 610.304L552.529 611.085C329.023 613.065 103.479 635.972 -119.825 630.457C-160.781 629.443 -200.563 622.688 -240.247 615.441C-279.935 608.193 -319.521 600.455 -360.11 597.463C-464.884 589.734 -570.685 608.256 -675.52 611.133L-675.534 609.569Z" fill="url(#paint7_linear_309_614)"/>
<path d="M-675.441 566.207C-559.426 561.873 -441.625 538.538 -325.495 546.929C-287.096 549.711 -249.596 556.795 -212.048 563.588C-174.496 570.381 -136.894 576.884 -98.2682 578.509L-88.0405 578.915C126.687 587.108 338.032 573.027 552.425 566.253L552.432 567.035L552.439 567.816C334.665 574.698 119.981 589.122 -98.2874 580.072C-136.949 578.445 -174.581 571.938 -212.131 565.145C-249.687 558.351 -287.16 551.27 -325.529 548.491C-441.64 540.101 -559.293 563.43 -675.425 567.769L-675.441 566.207Z" fill="url(#paint8_linear_309_614)"/>
<path d="M-483.926 504.91C-419.887 498.322 -355.822 493.595 -292.332 498.145C-256.13 500.738 -220.627 507.14 -185.092 513.462C-149.553 519.784 -113.98 526.026 -77.6191 528.312C-38.8033 530.739 -0.106323 535.123 38.5889 539.383C77.2863 543.643 115.983 547.778 154.808 549.711C286.793 556.262 420.561 529.586 552.373 522.89L552.385 523.672L552.397 524.454C420.693 531.144 286.786 557.824 154.784 551.272C115.944 549.339 77.2346 545.203 38.5382 540.943C-0.1604 536.683 -38.8455 532.3 -77.6481 529.873C-114.04 527.586 -149.638 521.339 -185.174 515.017C-220.714 508.695 -256.191 502.298 -292.364 499.707C-355.813 495.16 -419.845 499.883 -483.879 506.47C-547.906 513.056 -611.944 521.507 -675.375 524.406L-675.396 522.843C-611.983 519.945 -547.972 511.497 -483.926 504.91Z" fill="url(#paint9_linear_309_614)"/>
<path d="M-473.055 459.343C-405.349 451.919 -337.61 446.531 -270.551 451.387C-235.792 453.91 -201.553 459.852 -167.299 465.82C-133.041 471.789 -98.7657 477.784 -63.9145 480.423C-29.7896 483.016 3.34052 489.499 36.3969 496.133C69.4571 502.768 102.443 509.553 136.3 512.757C204.136 519.165 274.234 512.864 344.338 503.962C414.433 495.061 484.545 483.557 552.372 479.574L552.386 480.355L552.399 481.137C484.594 485.119 414.515 496.617 344.397 505.521C274.286 514.424 204.146 520.732 136.256 514.319C102.369 511.112 69.3581 504.321 36.3038 497.687C3.24567 491.053 -29.8572 484.576 -63.9494 481.984C-98.827 479.344 -133.124 473.344 -167.379 467.376C-201.637 461.407 -235.852 455.471 -270.585 452.951C-337.599 448.097 -405.304 453.48 -473.005 460.903C-540.699 468.326 -608.399 477.79 -675.373 481.09L-675.396 479.527C-608.441 476.228 -540.768 466.767 -473.055 459.343Z" fill="url(#paint10_linear_309_614)"/>
<path d="M-472.78 415.632C-405.008 407.978 -337.21 402.367 -270.033 407.317C-235.273 409.887 -201.07 415.934 -166.845 422.008C-132.616 428.083 -98.3654 434.185 -63.4908 436.87C-29.2969 439.511 4.13892 445.63 37.52 451.845C70.9046 458.061 104.234 464.375 138.235 467.414C205.742 473.421 275.511 467.731 345.278 459.495C415.037 451.26 484.806 440.476 552.276 436.304L552.305 437.867C484.852 442.038 415.115 452.817 345.333 461.055C275.559 469.292 205.751 474.986 138.193 468.974C104.166 465.933 70.814 459.615 37.4344 453.399C4.05096 447.183 -29.3613 441.07 -63.5265 438.432C-98.4279 435.744 -132.701 429.638 -166.926 423.564C-201.154 417.489 -235.335 411.447 -270.067 408.879C-337.199 403.932 -404.962 409.539 -472.727 417.192C-540.486 424.844 -608.258 434.543 -675.375 437.773L-675.396 436.209C-608.3 432.981 -540.557 423.286 -472.78 415.632Z" fill="url(#paint11_linear_309_614)"/>
<path d="M-481.928 371.668C-417.221 363.743 -352.468 357.872 -288.219 362.823L-284.817 363.099C-249.686 366.076 -215.403 373.003 -181.071 379.749C-145.627 386.713 -110.127 393.485 -73.5567 395.534L-63.73 396.075C142.587 407.15 345.759 400.411 552.283 392.895L552.299 394.458C342.499 402.094 136.136 408.927 -73.5825 397.096C-110.189 395.045 -145.719 388.267 -181.161 381.303C-216.607 374.338 -251.965 367.188 -288.254 364.385C-352.456 359.437 -417.17 365.304 -481.871 373.229C-546.565 381.152 -611.255 391.134 -675.373 394.411L-675.396 392.847C-611.3 389.572 -546.641 379.594 -481.928 371.668Z" fill="url(#paint12_linear_309_614)"/>
<path d="M-495.827 327.467C-435.803 319.224 -375.713 313.069 -315.855 317.95L-312.232 318.261C-274.837 321.633 -238.696 330.091 -202.473 338.047C-165.075 346.26 -127.585 353.937 -88.4933 354.95C-38.2194 356.269 11.9755 352.299 62.1572 347.562C112.335 342.826 162.504 337.322 212.707 335.578C325.994 331.666 439.288 346.75 552.438 349.53L552.432 350.312L552.427 351.093C439.194 348.311 326.008 333.229 212.723 337.141C162.537 338.885 112.388 344.387 62.2004 349.124C12.0168 353.861 -38.2012 357.833 -88.505 356.513C-127.646 355.499 -165.176 347.811 -202.573 339.598C-239.977 331.383 -277.244 322.645 -315.892 319.512C-375.698 314.635 -435.745 320.783 -495.763 329.026C-555.773 337.267 -615.764 347.605 -675.419 351.093L-675.446 349.53C-615.815 346.043 -555.859 335.711 -495.827 327.467Z" fill="url(#paint13_linear_309_614)"/>
<path d="M258.852 264.172C309.317 260.068 357.956 267.933 406.373 278.133C454.799 288.335 502.987 300.867 552.599 306.121L552.574 306.903L552.55 307.683C502.906 302.426 454.673 289.883 406.276 279.687C357.871 269.49 309.285 261.636 258.889 265.734C198.246 270.681 138.053 283.38 77.7413 294.776C17.4362 306.171 -42.9814 316.263 -104.042 315.98C-145.715 315.791 -185.398 307.171 -224.905 297.732C-264.419 288.292 -303.751 278.033 -344.759 274.547C-400.073 269.836 -455.218 276.279 -510.31 284.827C-565.394 293.375 -620.438 304.029 -675.511 307.73L-675.543 306.168C-620.496 302.469 -565.489 291.819 -510.381 283.269C-455.282 274.719 -400.092 268.269 -344.72 272.985C-303.668 276.475 -264.294 286.744 -224.796 296.181C-185.291 305.619 -145.654 314.228 -104.04 314.417C-43.0281 314.699 17.3522 304.615 77.655 293.221C137.952 281.827 198.178 269.122 258.852 264.172Z" fill="url(#paint14_linear_309_614)"/>
<path d="M294.136 199.409C344.864 194.053 385.599 208.838 425.587 225.475C465.579 242.113 504.803 260.591 552.584 262.709L552.564 264.271C504.68 262.148 465.365 243.625 425.399 226.998C385.429 210.369 344.789 195.626 294.184 200.969C225.538 208.202 157.719 226.509 89.7001 243.097C21.6885 259.682 -46.5169 274.547 -115.898 274.877C-159.369 275.065 -200.624 265.667 -241.691 255.298C-282.764 244.926 -323.642 233.584 -366.395 229.862C-418.449 225.34 -469.859 232.065 -521.196 240.872C-572.523 249.678 -623.79 260.57 -675.511 264.366L-675.544 262.804C-623.853 259.011 -572.627 248.126 -521.275 239.315C-469.93 230.506 -418.471 223.774 -366.356 228.302C-323.554 232.028 -282.632 243.381 -241.575 253.748C-200.512 264.117 -159.307 273.502 -115.9 273.314C-46.579 272.984 21.5797 258.131 89.5888 241.546C157.59 224.962 225.45 206.646 294.136 199.409Z" fill="url(#paint15_linear_309_614)"/>
<path d="M305.048 149.682C356.282 144.16 394.615 161.475 431.9 180.222C469.185 198.97 505.4 219.133 552.481 219.439L552.479 220.221L552.478 221.002C505.265 220.695 468.939 200.465 431.676 181.729C394.413 162.993 356.189 145.735 305.098 151.242C233.926 158.923 163.818 179.102 93.489 197.422C23.1686 215.739 -47.3651 232.197 -119.347 232.409C-163.29 232.551 -205.066 222.917 -246.646 212.317C-286.934 202.047 -327.032 190.873 -368.776 186.779L-372.821 186.405C-423.929 181.977 -474.217 188.737 -524.419 197.556C-574.613 206.374 -624.733 217.254 -675.463 221.05L-675.498 219.488C-624.799 215.695 -574.719 204.823 -524.5 196C-474.289 187.18 -423.952 180.41 -372.781 184.844C-329.531 188.593 -288.1 200.172 -246.53 210.769C-204.952 221.368 -163.227 230.987 -119.348 230.846L-115.978 230.825C-45.2282 230.12 24.1509 213.905 93.3702 195.874C163.68 177.559 233.833 157.367 305.048 149.682Z" fill="url(#paint16_linear_309_614)"/>
<path d="M291.68 115.982C342.027 110.933 383.41 125.234 424.122 141.15C464.839 157.069 504.869 174.594 552.581 176.077L552.574 176.859L552.567 177.64C504.756 176.154 464.638 158.587 423.945 142.678C383.247 126.768 341.956 112.505 291.726 117.542C224.213 124.328 157.551 141.563 90.7072 157.208C23.871 172.851 -43.1403 186.901 -111.315 187.302C-155.231 187.562 -197.618 179.308 -239.859 170.187C-282.106 161.065 -324.203 151.078 -367.574 147.851C-419.278 144.011 -470.526 149.711 -521.715 157.252C-572.897 164.792 -624.03 174.174 -675.465 177.686L-675.496 176.124C-624.086 172.614 -572.987 163.236 -521.783 155.693C-471.387 148.269 -420.899 142.624 -369.966 146.115L-367.539 146.287L-363.474 146.611C-321.494 150.143 -280.672 159.8 -239.759 168.634C-197.52 177.755 -155.178 185.998 -111.318 185.739C-43.2004 185.339 23.7659 171.299 90.6 155.656C157.427 140.016 224.128 122.771 291.68 115.982Z" fill="url(#paint17_linear_309_614)"/>
<path d="M270.853 89.4159C319.45 86.0279 365.478 94.3147 411.254 104.692C457.766 115.235 504.005 127.933 552.455 132.762L552.432 133.542L552.41 134.322C503.92 129.489 457.635 116.781 411.151 106.244C364.658 95.705 317.952 87.3336 268.573 91.1486C207.245 95.908 146.637 108.194 85.9194 119.425C25.2071 130.655 -35.6108 140.828 -97.3308 141.346C-141.31 141.724 -184.517 135.758 -227.65 129.13C-269.439 122.708 -311.155 115.665 -353.458 113.154L-357.554 112.925C-410.706 110.145 -463.661 114.29 -516.593 119.74C-569.52 125.189 -622.431 131.943 -675.469 134.371L-675.491 132.808C-622.47 130.381 -569.583 123.63 -516.641 118.179C-463.704 112.729 -410.719 108.58 -357.53 111.361C-313.793 113.648 -270.705 120.945 -227.579 127.573C-184.448 134.201 -141.273 140.161 -97.335 139.785C-35.6592 139.266 25.1236 129.099 85.8347 117.87C146.54 106.641 207.178 94.3486 268.537 89.5869L270.853 89.4159Z" fill="url(#paint18_linear_309_614)"/>
<path d="M242.704 65.4048C294.831 63.0707 346.329 67.9993 397.76 74.0563C449.195 80.1138 500.558 87.2994 552.442 89.4907L552.432 90.2723L552.423 91.0539C500.516 88.8617 449.127 81.6709 397.706 75.615C347.886 69.7477 298.029 64.9437 247.606 66.7696L242.724 66.968C188.501 69.3714 134.667 76.2402 80.7838 82.5978C26.9045 88.955 -27.0217 94.8009 -81.4111 95.1545H-81.4119C-125.736 95.4374 -169.787 92.0303 -213.805 88.2419C-257.825 84.4531 -301.811 80.2835 -346.021 79.0347C-455.954 75.9238 -565.505 88.7907 -675.428 91.0539L-675.438 89.4907C-565.591 87.229 -455.94 74.3606 -346.009 77.4714C-301.782 78.7207 -257.779 82.8919 -213.765 86.6801C-169.747 90.4685 -125.716 93.874 -81.4144 93.5912C-27.0533 93.2378 26.8503 87.3948 80.7298 81.0376C134.605 74.6808 188.46 67.8091 242.704 65.4048Z" fill="url(#paint19_linear_309_614)"/>
<path d="M-675.433 46.1738C-265.94 45.3725 143.082 44.5712 552.339 46.1738L552.338 47.7371C143.082 46.1345 -265.939 46.9358 -675.431 47.7371L-675.433 46.1738Z" fill="url(#paint20_linear_309_614)"/>
<path d="M377.46 3.23169C382.057 22.623 388.815 40.7996 396.112 58.455C403.394 76.0735 411.246 93.2468 417.949 110.468C431.162 144.412 440.122 179.045 432.005 219.383L431.605 221.308C426.772 243.891 418.269 265.488 408.213 286.615C398.158 307.74 386.519 328.458 375.407 349.24C364.286 370.038 353.687 390.91 345.668 412.405C337.649 433.897 332.23 455.958 331.433 479.131C330.815 497.321 334.15 514.4 339.662 530.958C345.176 547.524 352.849 563.511 360.866 579.514C368.873 595.498 377.227 611.502 384.051 628.037C390.876 644.576 396.201 661.716 398.133 680.009L398.313 681.772C401.973 718.836 398.066 758.01 392.617 797.068C387.073 836.807 379.945 876.375 377.445 913.757L377.022 913.661L376.6 913.566C379.109 876.051 386.271 836.267 391.794 796.68C397.325 757.03 401.223 717.525 397.298 680.307C395.402 662.353 390.164 645.438 383.373 628.982C376.581 612.524 368.266 596.595 360.24 580.574C352.225 564.573 344.499 548.486 338.937 531.775C333.372 515.056 329.951 497.655 330.584 479.034L330.626 477.93C331.567 454.775 337.026 432.802 344.966 411.521C353.031 389.904 363.677 368.947 374.801 348.144C385.933 327.323 397.54 306.666 407.573 285.586C417.605 264.51 426.033 243.072 430.814 220.736C439.446 180.358 430.645 145.77 417.258 111.378C410.556 94.1614 402.759 77.1234 395.435 59.4016C388.126 41.7169 381.319 23.4224 376.68 3.85761L377.46 3.23169Z" fill="url(#paint21_linear_309_614)"/>
<path d="M319.094 3.32666C321.829 25.672 329.527 43.2472 339.182 58.608C348.848 73.9859 360.407 87.0482 370.853 100.472C381.269 113.856 390.579 127.604 395.583 144.276C400.611 161.028 401.266 180.639 394.504 205.581C387.805 230.277 375.868 253.749 361.73 276.665C347.591 299.583 331.205 322.016 315.599 344.587C299.98 367.175 285.137 389.907 274.027 413.474C262.916 437.044 255.58 461.367 254.901 487.133C254.401 506.122 259.178 522.914 266.882 538.639C274.591 554.37 285.186 568.947 296.238 583.498C307.274 598.029 318.765 612.535 328.196 628.08C337.626 643.623 345.05 660.29 347.905 679.194C353.4 715.508 347.839 756.206 340.103 796.726C336.238 816.967 331.799 837.315 327.926 856.982C324.044 876.695 320.709 895.824 319.003 913.842L318.165 913.574C319.884 895.417 323.24 876.183 327.126 856.45C331.021 836.67 335.428 816.484 339.299 796.208C347.035 755.693 352.504 715.413 347.086 679.612C344.296 661.139 337.016 644.718 327.629 629.244C318.243 613.772 306.803 599.331 295.743 584.768C284.697 570.225 274.028 555.561 266.25 539.686C258.469 523.804 253.536 506.624 254.051 487.058C254.743 460.788 262.218 436.138 273.384 412.451C284.552 388.76 299.453 365.948 315.073 343.358C330.705 320.75 347.053 298.371 361.168 275.492C375.284 252.612 387.12 229.302 393.743 204.884C400.398 180.335 399.713 161.273 394.838 145.031C389.939 128.71 380.784 115.142 370.366 101.754C359.978 88.4052 348.335 75.2377 338.626 59.7896C328.906 44.3247 321.056 26.4777 318.264 3.66863L319.094 3.32666Z" fill="url(#paint22_linear_309_614)"/>
<path d="M260.559 3.36304C263.606 26.7164 272.513 43.7107 283.754 57.7559C295.006 71.8139 308.517 82.8248 320.733 94.3129C332.909 105.764 343.821 117.708 349.685 133.616C352.627 141.597 354.301 150.575 354.232 160.968C354.163 171.348 352.357 183.086 348.39 196.601C340.788 222.484 326.894 247.028 310.355 270.981C293.813 294.938 274.57 318.379 256.251 342.002C237.919 365.642 220.507 389.471 207.57 414.251C194.629 439.038 186.22 464.675 185.788 491.926C185.474 511.61 191.155 528.287 200.17 543.484C209.188 558.686 221.483 572.304 234.275 585.871C247.051 599.421 260.32 612.919 271.217 627.845C282.109 642.766 290.698 659.204 294.046 678.696L294.325 680.375C299.985 715.698 293.491 756.194 284.669 796.487C280.192 816.932 275.071 837.514 270.635 857.259C266.186 877.06 262.396 896.144 260.515 913.857L259.681 913.558C261.579 895.685 265.396 876.484 269.849 856.662C274.316 836.783 279.393 816.401 283.88 795.904C292.707 755.593 299.077 715.565 293.509 680.818L293.235 679.168C289.969 660.151 281.557 643.96 270.708 629.098C259.863 614.242 246.651 600.802 233.85 587.226C221.067 573.668 208.693 559.972 199.595 544.637C190.495 529.297 184.613 512.214 184.937 491.88C185.379 464.055 193.96 438.062 206.956 413.168C219.956 388.267 237.43 364.364 255.763 340.723C274.109 317.065 293.312 293.675 309.829 269.754C326.09 246.202 339.695 222.209 347.285 197.058L347.642 195.858C351.564 182.495 353.315 171.007 353.381 160.949C353.448 150.905 351.835 142.235 348.982 134.494C343.256 118.961 332.539 107.173 320.345 95.7052C308.19 84.2745 294.586 73.1784 283.276 59.0474C271.955 44.9035 262.85 27.6246 259.732 3.72638L260.559 3.36304Z" fill="url(#paint23_linear_309_614)"/>
<path d="M202.167 3.29639C205.44 25.841 213.745 43.1089 223.982 57.9243C234.23 72.7558 246.342 85.0365 257.221 97.7133C268.066 110.351 277.692 123.391 282.788 139.684C287.913 156.067 288.426 175.618 281.216 201.069C274.066 226.319 261.3 250.347 246.177 273.827C231.053 297.31 213.523 320.317 196.833 343.477C180.13 366.655 164.265 389.991 152.412 414.184C140.558 438.381 132.763 463.345 132.12 489.771C131.655 508.845 136.639 525.592 144.651 541.205C152.667 556.825 163.667 571.216 175.138 585.573C186.593 599.909 198.519 614.212 208.317 629.607C218.114 645 225.844 661.572 228.855 680.504C234.517 716.106 229.513 756.79 222.284 797.312C218.67 817.574 214.481 837.888 210.779 857.497C207.072 877.134 203.845 896.104 202.127 913.798L201.29 913.523C203.02 895.702 206.265 876.635 209.975 856.984C213.69 837.306 217.863 817.081 221.476 796.825C228.703 756.312 233.62 716.043 228.039 680.944C225.097 662.451 217.52 646.124 207.765 630.796C198.012 615.472 186.139 601.233 174.659 586.866C163.194 572.518 152.12 558.039 144.033 542.279C135.942 526.512 130.791 509.371 131.271 489.701C131.927 462.747 139.871 437.448 151.78 413.138C163.692 388.824 179.617 365.409 196.32 342.23C213.036 319.034 230.528 296.079 245.628 272.633C260.73 249.185 273.391 225.317 280.461 200.347C287.565 175.27 287.003 156.294 282.051 140.462C277.07 124.54 267.616 111.678 256.765 99.0338C245.948 86.4292 233.749 74.0486 223.455 59.1518C213.151 44.2388 204.685 26.7099 201.345 3.69942L202.167 3.29639Z" fill="url(#paint24_linear_309_614)"/>
<path d="M143.657 3.17725C148.304 22.1889 154.843 40.0136 161.777 57.3243C168.7 74.6086 176.036 91.4256 182.219 108.307C194.402 141.57 202.244 175.445 193.912 214.776L193.503 216.654C188.28 239.95 179.374 262.266 168.907 284.115C158.442 305.961 146.385 327.401 134.857 348.904C123.319 370.425 112.304 392.019 103.879 414.233C95.4545 436.445 89.6396 459.225 88.4677 483.112C87.5914 500.993 90.2849 518.164 94.9711 535.013C99.6593 551.869 106.328 568.354 113.375 584.858C120.414 601.342 127.834 617.855 133.977 634.693C140.122 651.535 145.017 668.771 146.993 686.744C151.021 723.333 150.592 761.752 148.955 800.158C147.316 838.615 144.474 876.96 143.648 913.646L142.797 913.582C143.624 876.88 146.474 838.348 148.107 800.036C149.742 761.672 150.163 723.427 146.159 687.053C144.215 669.37 139.389 652.331 133.271 635.563C127.151 618.789 119.763 602.351 112.706 585.823C105.657 569.316 98.9426 552.727 94.2136 535.725C89.4827 518.715 86.7251 501.242 87.6205 482.971C88.8107 458.711 94.7113 435.67 103.181 413.338C111.651 391.007 122.711 369.332 134.251 347.807C145.8 326.266 157.825 304.884 168.269 283.082C178.713 261.282 187.547 239.119 192.717 216.059L193.118 214.216C201.296 175.619 193.653 142.323 181.514 109.18C175.343 92.3305 168.045 75.6133 161.091 58.2525C154.148 40.9182 147.566 22.9853 142.882 3.81844L143.657 3.17725Z" fill="url(#paint25_linear_309_614)"/>
<path d="M85.0673 3.52246C86.9789 42.3031 92.1416 81.1767 95.6922 120.227C99.2379 159.224 101.162 198.3 96.5385 237.215C91.7069 277.647 80.9553 316.771 70.8427 355.863C60.7188 394.999 51.2311 434.116 48.8306 474.691C44.4917 548.261 50.1739 621.553 58.6331 694.684C67.086 767.759 78.3297 840.794 85.0623 913.577L84.2243 913.84C77.493 841.072 66.2728 768.249 57.8009 695.009C49.3354 621.824 43.6315 548.34 47.985 474.522L48.1038 472.607C50.702 432.42 60.113 393.699 70.0744 355.191C80.2053 316.029 90.9014 277.096 95.7071 236.881C100.295 198.261 98.3936 159.424 94.8533 120.485C91.3177 81.5987 86.1351 42.5121 84.2201 3.66291L85.0673 3.52246Z" fill="url(#paint26_linear_309_614)"/>
<path d="M26.4317 3.83474C21.9893 46.0829 15.1522 88.2191 9.67462 130.282C4.2772 171.729 0.186909 213.186 0.936874 254.921L0.976742 256.908L1.05066 260.163C1.87404 293.794 4.43911 327.652 6.47189 361.586C8.50338 395.498 10.0011 429.461 8.67211 463.204L8.53423 466.468C6.75534 506.271 -3.40554 545.813 -12.9787 585.154C-22.5689 624.564 -31.5711 663.778 -31.1951 703.147C-30.8667 738.622 -20.1432 773.716 -7.61482 808.753C4.88514 843.709 19.1857 878.61 26.4591 913.476L26.0612 913.755L25.6642 914.036C18.4343 879.379 4.22416 844.708 -8.32581 809.612C-20.8472 774.595 -31.7126 739.153 -32.0456 703.173C-32.4254 663.403 -23.3338 623.878 -13.7553 584.516C-4.15979 545.083 5.92275 505.816 7.68703 466.34L7.82408 463.089C9.14711 429.497 7.65679 395.652 5.62635 361.757C3.53179 326.792 0.859291 291.745 0.126225 256.971L0.0871849 254.973C-0.666588 213.025 3.44535 171.408 8.84819 129.919C14.3422 87.7297 21.1579 45.7549 25.5969 3.53857L26.4317 3.83474Z" fill="url(#paint27_linear_309_614)"/>
</g>
</mask>
<g mask="url(#mask0_309_614)">
<path d="M-651.67 3.14062C-581.533 1.96662 -511.175 4.31463 -441.038 3.14062L-387.957 56.3887H33.1597L45.9429 28.3936H384.851V9.01074H512.945V771.027H512.958C512.953 771.946 512.949 772.865 512.945 773.784V778.033H512.925C512.794 807.158 512.653 836.283 512.523 865.407C504.488 865.271 496.441 865.158 488.393 865.022C485.2 858.21 482.074 852.106 478.88 845.294H301.432C301.355 865.822 301.052 885.687 300.975 906.238L138.556 907.393C128.554 896.416 118.552 885.438 108.55 874.461C46.2524 874.665 -16.0327 874.846 -78.3306 875.05C-81.4346 868.124 -84.5264 861.176 -87.6304 854.25C-125.224 854.635 -162.83 855.02 -200.423 855.404C-207.155 848.094 -213.887 840.76 -220.619 833.449H-358.5L-391.111 929.369H-635.717V57.4941C-641.035 57.4929 -646.353 57.4915 -651.67 57.4902C-651.606 40.5478 -651.735 20.1061 -651.67 3.14062Z" fill="#1C0951"/>
</g>
<g clip-path="url(#clip0_309_614)">
<path d="M333.762 827.095C234.463 827.095 135.152 827.095 35.8529 827.095C35.8529 784.379 35.8789 741.651 35.8789 698.936C28.2486 693.898 20.6052 688.849 12.9749 683.812V432.006C28.8985 412.965 44.8222 393.935 60.7458 374.893C154.624 375.369 248.515 375.834 342.393 376.31V390.946C342.354 394.447 342.315 397.936 342.276 401.437C345.539 401.461 348.815 401.473 352.103 401.473C360.67 401.497 371.535 401.532 379.997 401.473C380.387 526.715 379.62 638.746 379.997 764C364.932 785.257 348.828 805.838 333.762 827.095Z" stroke="#05C174" stroke-width="3" stroke-miterlimit="10"/>
<path d="M12.9749 416.299V374.893H47.5519L12.9749 416.299Z" stroke="#05C174" stroke-width="3" stroke-miterlimit="10"/>
<path d="M348.113 827.095L379.496 827.5L379.947 782.414L348.113 827.095Z" stroke="#05C174" stroke-width="3" stroke-miterlimit="10"/>
<path d="M27.5336 826.928C22.685 826.988 17.8234 827.036 12.9749 827.095V695.482C17.7195 698.435 22.4641 701.401 27.2087 704.354C27.3256 745.212 27.4296 786.07 27.5466 826.94L27.5336 826.928Z" stroke="#05C174" stroke-width="2" stroke-miterlimit="10"/>
<path d="M24.518 817.509H15.8347V823.046H24.518V817.509Z" fill="#05C174" stroke="#05C174" stroke-width="1.5" stroke-miterlimit="10"/>
<path d="M24.57 807.267H15.8867V812.805H24.57V807.267Z" fill="#05C174" stroke="#05C174" stroke-width="1.5" stroke-miterlimit="10"/>
<path d="M24.57 797.026H15.8867V802.563H24.57V797.026Z" fill="#05C174" stroke="#05C174" stroke-width="1.5" stroke-miterlimit="10"/>
<path d="M24.57 786.785H15.8867V792.322H24.57V786.785Z" fill="#05C174" stroke="#05C174" stroke-width="1.5" stroke-miterlimit="10"/>
<path d="M24.57 776.543H15.8867V782.081H24.57V776.543Z" fill="#05C174" stroke="#05C174" stroke-width="1.5" stroke-miterlimit="10"/>
<path d="M24.57 766.302H15.8867V771.839H24.57V766.302Z" fill="#05C174" stroke="#05C174" stroke-width="1.5" stroke-miterlimit="10"/>
<path d="M24.57 756.061H15.8867V761.598H24.57V756.061Z" fill="#05C174" stroke="#05C174" stroke-width="1.5" stroke-miterlimit="10"/>
<path d="M91.0843 790.167H110.354L86.8249 823.796H67.5664L91.0843 790.167Z" fill="#05B0C1"/>
<path d="M115.081 790.167H134.339L110.821 823.796H91.5515L115.081 790.167Z" fill="#05B0C1"/>
<path d="M139.066 790.167H158.336L134.807 823.796H115.536L139.066 790.167Z" fill="#05B0C1"/>
<path d="M163.051 790.167H182.321L158.803 823.796H139.533L163.051 790.167Z" fill="#05B0C1"/>
<path d="M187.047 790.167H206.317L182.788 823.796H163.518L187.047 790.167Z" fill="#05B0C1"/>
<path d="M211.032 790.167H230.302L206.784 823.796H187.514L211.032 790.167Z" fill="#05B0C1"/>
<path d="M235.029 790.167H254.299L230.769 823.796H211.499L235.029 790.167Z" fill="#05B0C1"/>
<path d="M259.014 790.167H278.284L254.754 823.796H235.496L259.014 790.167Z" fill="#05B0C1"/>
<path d="M283.01 790.167H302.28L278.75 823.796H259.48L283.01 790.167Z" fill="#05B0C1"/>
<path d="M306.995 790.167H326.265L302.736 823.796H283.466L306.995 790.167Z" fill="#05B0C1"/>
<path d="M330.991 790.167H350.25L326.732 823.796H307.462L330.991 790.167Z" fill="#05B0C1"/>
<path d="M62.6804 823.796L84.8887 790.167H43.8887L43.8887 823.796H62.6804Z" fill="#05B0C1"/>
</g>
<g filter="url(#filter0_d_309_614)">
<path d="M69.918 420.055C69.918 420.656 69.8398 421.199 69.6836 421.684C69.5352 422.16 69.3359 422.582 69.0859 422.949C68.8359 423.316 68.543 423.629 68.207 423.887C67.8711 424.145 67.5234 424.355 67.1641 424.52C66.8047 424.684 66.4375 424.805 66.0625 424.883C65.6953 424.961 65.3477 425 65.0195 425H53.2656V421.953H65.0195C65.6055 421.953 66.0586 421.781 66.3789 421.438C66.707 421.094 66.8711 420.633 66.8711 420.055C66.8711 419.773 66.8281 419.516 66.7422 419.281C66.6562 419.047 66.5312 418.844 66.3672 418.672C66.2109 418.5 66.0156 418.367 65.7812 418.273C65.5547 418.18 65.3008 418.133 65.0195 418.133H58.0117C57.5195 418.133 56.9883 418.047 56.418 417.875C55.8477 417.695 55.3164 417.41 54.8242 417.02C54.3398 416.629 53.9336 416.117 53.6055 415.484C53.2852 414.852 53.125 414.078 53.125 413.164C53.125 412.25 53.2852 411.48 53.6055 410.855C53.9336 410.223 54.3398 409.711 54.8242 409.32C55.3164 408.922 55.8477 408.637 56.418 408.465C56.9883 408.285 57.5195 408.195 58.0117 408.195H68.3828V411.242H58.0117C57.4336 411.242 56.9805 411.418 56.6523 411.77C56.332 412.121 56.1719 412.586 56.1719 413.164C56.1719 413.75 56.332 414.215 56.6523 414.559C56.9805 414.895 57.4336 415.062 58.0117 415.062H65.0195H65.043C65.3711 415.07 65.7188 415.117 66.0859 415.203C66.4531 415.281 66.8164 415.406 67.1758 415.578C67.543 415.75 67.8906 415.969 68.2188 416.234C68.5469 416.492 68.8359 416.805 69.0859 417.172C69.3438 417.539 69.5469 417.961 69.6953 418.438C69.8438 418.914 69.918 419.453 69.918 420.055ZM75.5195 415.062H86.2188V408.195H89.2656V425H86.2188V418.133H75.5195V425H72.4727V408.195H75.5195V415.062ZM110.477 418.203C110.477 419.227 110.301 420.168 109.949 421.027C109.598 421.887 109.109 422.629 108.484 423.254C107.859 423.879 107.117 424.367 106.258 424.719C105.406 425.062 104.477 425.234 103.469 425.234H99.3438C98.3359 425.234 97.4023 425.062 96.543 424.719C95.6836 424.367 94.9414 423.879 94.3164 423.254C93.6914 422.629 93.1992 421.887 92.8398 421.027C92.4883 420.168 92.3125 419.227 92.3125 418.203V414.992C92.3125 413.977 92.4883 413.039 92.8398 412.18C93.1992 411.312 93.6914 410.57 94.3164 409.953C94.9414 409.328 95.6836 408.84 96.543 408.488C97.4023 408.137 98.3359 407.961 99.3438 407.961H103.469C104.477 407.961 105.406 408.137 106.258 408.488C107.117 408.84 107.859 409.328 108.484 409.953C109.109 410.57 109.598 411.312 109.949 412.18C110.301 413.039 110.477 413.977 110.477 414.992V418.203ZM107.43 414.992C107.43 414.391 107.332 413.848 107.137 413.363C106.949 412.871 106.68 412.453 106.328 412.109C105.984 411.758 105.566 411.488 105.074 411.301C104.59 411.105 104.055 411.008 103.469 411.008H99.3438C98.75 411.008 98.207 411.105 97.7148 411.301C97.2305 411.488 96.8125 411.758 96.4609 412.109C96.1094 412.453 95.8359 412.871 95.6406 413.363C95.4531 413.848 95.3594 414.391 95.3594 414.992V418.203C95.3594 418.805 95.4531 419.352 95.6406 419.844C95.8359 420.328 96.1094 420.746 96.4609 421.098C96.8125 421.441 97.2305 421.711 97.7148 421.906C98.207 422.094 98.75 422.188 99.3438 422.188H103.445C104.039 422.188 104.578 422.094 105.062 421.906C105.555 421.711 105.977 421.441 106.328 421.098C106.68 420.746 106.949 420.328 107.137 419.844C107.332 419.352 107.43 418.805 107.43 418.203V414.992ZM130.281 413.844C130.281 414.539 130.195 415.16 130.023 415.707C129.852 416.254 129.617 416.738 129.32 417.16C129.031 417.574 128.695 417.93 128.312 418.227C127.93 418.523 127.527 418.77 127.105 418.965C126.691 419.152 126.27 419.289 125.84 419.375C125.418 419.461 125.02 419.504 124.645 419.504L131.008 425H126.297L119.945 419.504H117.754V416.457H124.645C125.027 416.426 125.375 416.348 125.688 416.223C126.008 416.09 126.281 415.914 126.508 415.695C126.742 415.477 126.922 415.215 127.047 414.91C127.172 414.598 127.234 414.242 127.234 413.844V411.922C127.234 411.75 127.211 411.621 127.164 411.535C127.125 411.441 127.07 411.375 127 411.336C126.938 411.289 126.867 411.262 126.789 411.254C126.719 411.246 126.652 411.242 126.59 411.242H116.535V425H113.488V409.73C113.488 409.52 113.527 409.32 113.605 409.133C113.684 408.945 113.789 408.781 113.922 408.641C114.062 408.5 114.227 408.391 114.414 408.312C114.602 408.234 114.805 408.195 115.023 408.195H126.59C127.27 408.195 127.844 408.32 128.312 408.57C128.781 408.812 129.16 409.121 129.449 409.496C129.746 409.863 129.957 410.262 130.082 410.691C130.215 411.121 130.281 411.523 130.281 411.898V413.844ZM148.387 411.242H141.672V425H138.625V411.242H131.898V408.195H148.387V411.242ZM174.953 417.969C174.953 418.992 174.773 419.934 174.414 420.793C174.062 421.652 173.574 422.395 172.949 423.02C172.324 423.637 171.582 424.121 170.723 424.473C169.863 424.824 168.93 425 167.922 425H159.695C159.477 425 159.273 424.961 159.086 424.883C158.898 424.805 158.734 424.699 158.594 424.566C158.461 424.426 158.355 424.262 158.277 424.074C158.199 423.887 158.16 423.684 158.16 423.465V409.73C158.16 409.52 158.199 409.32 158.277 409.133C158.355 408.945 158.461 408.781 158.594 408.641C158.734 408.5 158.898 408.391 159.086 408.312C159.273 408.234 159.477 408.195 159.695 408.195H167.922C168.93 408.195 169.863 408.371 170.723 408.723C171.582 409.074 172.324 409.562 172.949 410.188C173.574 410.805 174.062 411.547 174.414 412.414C174.773 413.273 174.953 414.211 174.953 415.227V417.969ZM171.906 415.227C171.906 414.633 171.809 414.09 171.613 413.598C171.426 413.105 171.156 412.688 170.805 412.344C170.453 411.992 170.031 411.723 169.539 411.535C169.055 411.34 168.516 411.242 167.922 411.242H161.207V421.953H167.922C168.516 421.953 169.055 421.859 169.539 421.672C170.031 421.477 170.453 421.207 170.805 420.863C171.156 420.512 171.426 420.094 171.613 419.609C171.809 419.117 171.906 418.57 171.906 417.969V415.227ZM191.758 418.133H182.137V415.062H191.758V418.133ZM193.129 425H182.137C181.715 425 181.254 424.926 180.754 424.777C180.254 424.629 179.789 424.387 179.359 424.051C178.938 423.707 178.582 423.266 178.293 422.727C178.012 422.18 177.871 421.512 177.871 420.723V409.73C177.871 409.52 177.91 409.32 177.988 409.133C178.066 408.945 178.172 408.781 178.305 408.641C178.445 408.5 178.609 408.391 178.797 408.312C178.984 408.234 179.188 408.195 179.406 408.195H193.129V411.242H180.918V420.723C180.918 421.121 181.023 421.426 181.234 421.637C181.445 421.848 181.754 421.953 182.16 421.953H193.129V425ZM212.16 420.055C212.16 420.656 212.082 421.199 211.926 421.684C211.777 422.16 211.578 422.582 211.328 422.949C211.078 423.316 210.785 423.629 210.449 423.887C210.113 424.145 209.766 424.355 209.406 424.52C209.047 424.684 208.68 424.805 208.305 424.883C207.938 424.961 207.59 425 207.262 425H195.508V421.953H207.262C207.848 421.953 208.301 421.781 208.621 421.438C208.949 421.094 209.113 420.633 209.113 420.055C209.113 419.773 209.07 419.516 208.984 419.281C208.898 419.047 208.773 418.844 208.609 418.672C208.453 418.5 208.258 418.367 208.023 418.273C207.797 418.18 207.543 418.133 207.262 418.133H200.254C199.762 418.133 199.23 418.047 198.66 417.875C198.09 417.695 197.559 417.41 197.066 417.02C196.582 416.629 196.176 416.117 195.848 415.484C195.527 414.852 195.367 414.078 195.367 413.164C195.367 412.25 195.527 411.48 195.848 410.855C196.176 410.223 196.582 409.711 197.066 409.32C197.559 408.922 198.09 408.637 198.66 408.465C199.23 408.285 199.762 408.195 200.254 408.195H210.625V411.242H200.254C199.676 411.242 199.223 411.418 198.895 411.77C198.574 412.121 198.414 412.586 198.414 413.164C198.414 413.75 198.574 414.215 198.895 414.559C199.223 414.895 199.676 415.062 200.254 415.062H207.262H207.285C207.613 415.07 207.961 415.117 208.328 415.203C208.695 415.281 209.059 415.406 209.418 415.578C209.785 415.75 210.133 415.969 210.461 416.234C210.789 416.492 211.078 416.805 211.328 417.172C211.586 417.539 211.789 417.961 211.938 418.438C212.086 418.914 212.16 419.453 212.16 420.055ZM229.738 425H218.746C218.465 425 218.16 424.969 217.832 424.906C217.512 424.836 217.191 424.73 216.871 424.59C216.559 424.449 216.258 424.27 215.969 424.051C215.68 423.824 215.422 423.555 215.195 423.242C214.977 422.922 214.801 422.555 214.668 422.141C214.535 421.719 214.469 421.246 214.469 420.723V412.473C214.469 412.191 214.5 411.891 214.562 411.57C214.633 411.242 214.738 410.922 214.879 410.609C215.02 410.289 215.203 409.984 215.43 409.695C215.656 409.406 215.926 409.152 216.238 408.934C216.559 408.707 216.926 408.527 217.34 408.395C217.754 408.262 218.223 408.195 218.746 408.195H229.738V411.242H218.746C218.348 411.242 218.043 411.348 217.832 411.559C217.621 411.77 217.516 412.082 217.516 412.496V420.723C217.516 421.113 217.621 421.418 217.832 421.637C218.051 421.848 218.355 421.953 218.746 421.953H229.738V425ZM249.414 413.844C249.414 414.539 249.328 415.16 249.156 415.707C248.984 416.254 248.75 416.738 248.453 417.16C248.164 417.574 247.828 417.93 247.445 418.227C247.062 418.523 246.66 418.77 246.238 418.965C245.824 419.152 245.402 419.289 244.973 419.375C244.551 419.461 244.152 419.504 243.777 419.504L250.141 425H245.43L239.078 419.504H236.887V416.457H243.777C244.16 416.426 244.508 416.348 244.82 416.223C245.141 416.09 245.414 415.914 245.641 415.695C245.875 415.477 246.055 415.215 246.18 414.91C246.305 414.598 246.367 414.242 246.367 413.844V411.922C246.367 411.75 246.344 411.621 246.297 411.535C246.258 411.441 246.203 411.375 246.133 411.336C246.07 411.289 246 411.262 245.922 411.254C245.852 411.246 245.785 411.242 245.723 411.242H235.668V425H232.621V409.73C232.621 409.52 232.66 409.32 232.738 409.133C232.816 408.945 232.922 408.781 233.055 408.641C233.195 408.5 233.359 408.391 233.547 408.312C233.734 408.234 233.938 408.195 234.156 408.195H245.723C246.402 408.195 246.977 408.32 247.445 408.57C247.914 408.812 248.293 409.121 248.582 409.496C248.879 409.863 249.09 410.262 249.215 410.691C249.348 411.121 249.414 411.523 249.414 411.898V413.844ZM255.543 425H252.496V408.195H255.543V425ZM275.852 415.227C275.852 415.922 275.766 416.543 275.594 417.09C275.422 417.637 275.188 418.121 274.891 418.543C274.602 418.957 274.266 419.312 273.883 419.609C273.5 419.906 273.098 420.148 272.676 420.336C272.262 420.523 271.84 420.66 271.41 420.746C270.988 420.832 270.59 420.875 270.215 420.875H263.324V417.828H270.215C270.605 417.797 270.957 417.719 271.27 417.594C271.59 417.461 271.863 417.285 272.09 417.066C272.316 416.848 272.492 416.586 272.617 416.281C272.742 415.969 272.805 415.617 272.805 415.227V413.844C272.766 413.461 272.684 413.109 272.559 412.789C272.434 412.469 272.262 412.195 272.043 411.969C271.832 411.742 271.574 411.566 271.27 411.441C270.965 411.309 270.613 411.242 270.215 411.242H263.348C262.941 411.242 262.633 411.348 262.422 411.559C262.211 411.77 262.105 412.074 262.105 412.473V425H259.059V412.473C259.059 411.691 259.199 411.027 259.48 410.48C259.77 409.934 260.125 409.492 260.547 409.156C260.977 408.82 261.441 408.578 261.941 408.43C262.441 408.273 262.902 408.195 263.324 408.195H270.215C270.902 408.195 271.52 408.285 272.066 408.465C272.613 408.637 273.094 408.871 273.508 409.168C273.93 409.457 274.285 409.793 274.574 410.176C274.871 410.559 275.113 410.961 275.301 411.383C275.496 411.797 275.637 412.219 275.723 412.648C275.809 413.07 275.852 413.469 275.852 413.844V415.227ZM293.652 411.242H286.938V425H283.891V411.242H277.164V408.195H293.652V411.242ZM298.973 425H295.926V408.195H298.973V425ZM320.172 418.203C320.172 419.227 319.996 420.168 319.645 421.027C319.293 421.887 318.805 422.629 318.18 423.254C317.555 423.879 316.812 424.367 315.953 424.719C315.102 425.062 314.172 425.234 313.164 425.234H309.039C308.031 425.234 307.098 425.062 306.238 424.719C305.379 424.367 304.637 423.879 304.012 423.254C303.387 422.629 302.895 421.887 302.535 421.027C302.184 420.168 302.008 419.227 302.008 418.203V414.992C302.008 413.977 302.184 413.039 302.535 412.18C302.895 411.312 303.387 410.57 304.012 409.953C304.637 409.328 305.379 408.84 306.238 408.488C307.098 408.137 308.031 407.961 309.039 407.961H313.164C314.172 407.961 315.102 408.137 315.953 408.488C316.812 408.84 317.555 409.328 318.18 409.953C318.805 410.57 319.293 411.312 319.645 412.18C319.996 413.039 320.172 413.977 320.172 414.992V418.203ZM317.125 414.992C317.125 414.391 317.027 413.848 316.832 413.363C316.645 412.871 316.375 412.453 316.023 412.109C315.68 411.758 315.262 411.488 314.77 411.301C314.285 411.105 313.75 411.008 313.164 411.008H309.039C308.445 411.008 307.902 411.105 307.41 411.301C306.926 411.488 306.508 411.758 306.156 412.109C305.805 412.453 305.531 412.871 305.336 413.363C305.148 413.848 305.055 414.391 305.055 414.992V418.203C305.055 418.805 305.148 419.352 305.336 419.844C305.531 420.328 305.805 420.746 306.156 421.098C306.508 421.441 306.926 421.711 307.41 421.906C307.902 422.094 308.445 422.188 309.039 422.188H313.141C313.734 422.188 314.273 422.094 314.758 421.906C315.25 421.711 315.672 421.441 316.023 421.098C316.375 420.746 316.645 420.328 316.832 419.844C317.027 419.352 317.125 418.805 317.125 418.203V414.992ZM339.977 423.699C339.977 423.918 339.934 424.121 339.848 424.309C339.77 424.496 339.66 424.66 339.52 424.801C339.387 424.934 339.227 425.039 339.039 425.117C338.852 425.195 338.652 425.234 338.441 425.234C338.254 425.234 338.062 425.199 337.867 425.129C337.68 425.059 337.512 424.945 337.363 424.789L326.23 413.164V425H323.184V409.496C323.184 409.184 323.27 408.902 323.441 408.652C323.621 408.395 323.848 408.203 324.121 408.078C324.41 407.961 324.707 407.934 325.012 407.996C325.316 408.051 325.578 408.191 325.797 408.418L336.93 420.031V408.195H339.977V423.699Z" fill="url(#paint28_linear_309_614)"/>
</g>
<defs>
<filter id="filter0_d_309_614" x="36.725" y="395.502" width="319.652" height="50.132" filterUnits="userSpaceOnUse" color-interpolation-filters="sRGB">
<feFlood flood-opacity="0" result="BackgroundImageFix"/>
<feColorMatrix in="SourceAlpha" type="matrix" values="0 0 0 0 0 0 0 0 0 0 0 0 0 0 0 0 0 0 127 0" result="hardAlpha"/>
<feOffset dy="4"/>
<feGaussianBlur stdDeviation="8.2"/>
<feComposite in2="hardAlpha" operator="out"/>
<feColorMatrix type="matrix" values="0 0 0 0 0.0196078 0 0 0 0 0.756863 0 0 0 0 0.454902 0 0 0 1 0"/>
<feBlend mode="normal" in2="BackgroundImageFix" result="effect1_dropShadow_309_614"/>
<feBlend mode="normal" in="SourceGraphic" in2="effect1_dropShadow_309_614" result="shape"/>
</filter>
<linearGradient id="paint0_linear_309_614" x1="-64.052" y1="824.658" x2="-64.052" y2="238.992" gradientUnits="userSpaceOnUse">
<stop stop-color="#1C0951"/>
<stop offset="1" stop-color="#3305C1"/>
</linearGradient>
<linearGradient id="paint1_linear_309_614" x1="-64.0726" y1="870.882" x2="-64.0726" y2="869.85" gradientUnits="userSpaceOnUse">
<stop stop-color="#1C0951"/>
<stop offset="1" stop-color="#3305C1"/>
</linearGradient>
<linearGradient id="paint2_linear_309_614" x1="-64.0506" y1="827.412" x2="-64.0506" y2="825.729" gradientUnits="userSpaceOnUse">
<stop stop-color="#1C0951"/>
<stop offset="1" stop-color="#3305C1"/>
</linearGradient>
<linearGradient id="paint3_linear_309_614" x1="-64.0741" y1="797.337" x2="-64.0741" y2="782.483" gradientUnits="userSpaceOnUse">
<stop stop-color="#1C0951"/>
<stop offset="1" stop-color="#3305C1"/>
</linearGradient>
<linearGradient id="paint4_linear_309_614" x1="-64.075" y1="759.143" x2="-64.075" y2="738.96" gradientUnits="userSpaceOnUse">
<stop stop-color="#1C0951"/>
<stop offset="1" stop-color="#3305C1"/>
</linearGradient>
<linearGradient id="paint5_linear_309_614" x1="-64.0753" y1="718.663" x2="-64.0753" y2="695.395" gradientUnits="userSpaceOnUse">
<stop stop-color="#1C0951"/>
<stop offset="1" stop-color="#3305C1"/>
</linearGradient>
<linearGradient id="paint6_linear_309_614" x1="-64.0998" y1="674.032" x2="-64.0998" y2="650.798" gradientUnits="userSpaceOnUse">
<stop stop-color="#1C0951"/>
<stop offset="1" stop-color="#3305C1"/>
</linearGradient>
<linearGradient id="paint7_linear_309_614" x1="-64.0522" y1="625.938" x2="-64.0522" y2="603.19" gradientUnits="userSpaceOnUse">
<stop stop-color="#1C0951"/>
<stop offset="1" stop-color="#3305C1"/>
</linearGradient>
<linearGradient id="paint8_linear_309_614" x1="-64.0509" y1="577.515" x2="-64.0509" y2="554.423" gradientUnits="userSpaceOnUse">
<stop stop-color="#1C0951"/>
<stop offset="1" stop-color="#3305C1"/>
</linearGradient>
<linearGradient id="paint9_linear_309_614" x1="-64.0494" y1="544.234" x2="-64.0494" y2="510.091" gradientUnits="userSpaceOnUse">
<stop stop-color="#1C0951"/>
<stop offset="1" stop-color="#3305C1"/>
</linearGradient>
<linearGradient id="paint10_linear_309_614" x1="-64.0482" y1="507.222" x2="-64.0482" y2="466.094" gradientUnits="userSpaceOnUse">
<stop stop-color="#1C0951"/>
<stop offset="1" stop-color="#3305C1"/>
</linearGradient>
<linearGradient id="paint11_linear_309_614" x1="-64.0953" y1="461.958" x2="-64.0953" y2="421.672" gradientUnits="userSpaceOnUse">
<stop stop-color="#1C0951"/>
<stop offset="1" stop-color="#3305C1"/>
</linearGradient>
<linearGradient id="paint12_linear_309_614" x1="-64.0978" y1="397.359" x2="-64.0978" y2="371.439" gradientUnits="userSpaceOnUse">
<stop stop-color="#1C0951"/>
<stop offset="1" stop-color="#3305C1"/>
</linearGradient>
<linearGradient id="paint13_linear_309_614" x1="-64.0536" y1="350.925" x2="-64.0536" y2="326.182" gradientUnits="userSpaceOnUse">
<stop stop-color="#1C0951"/>
<stop offset="1" stop-color="#3305C1"/>
</linearGradient>
<linearGradient id="paint14_linear_309_614" x1="-64.0223" y1="308.358" x2="-64.0223" y2="276.066" gradientUnits="userSpaceOnUse">
<stop stop-color="#1C0951"/>
<stop offset="1" stop-color="#3305C1"/>
</linearGradient>
<linearGradient id="paint15_linear_309_614" x1="-64.0302" y1="263.841" x2="-64.0302" y2="217.111" gradientUnits="userSpaceOnUse">
<stop stop-color="#1C0951"/>
<stop offset="1" stop-color="#3305C1"/>
</linearGradient>
<linearGradient id="paint16_linear_309_614" x1="-64.0583" y1="220.337" x2="-64.0583" y2="169.223" gradientUnits="userSpaceOnUse">
<stop stop-color="#1C0951"/>
<stop offset="1" stop-color="#3305C1"/>
</linearGradient>
<linearGradient id="paint17_linear_309_614" x1="-64.0076" y1="176.88" x2="-64.0076" y2="132.73" gradientUnits="userSpaceOnUse">
<stop stop-color="#1C0951"/>
<stop offset="1" stop-color="#3305C1"/>
</linearGradient>
<linearGradient id="paint18_linear_309_614" x1="-64.0675" y1="133.765" x2="-64.0675" y2="101.6" gradientUnits="userSpaceOnUse">
<stop stop-color="#1C0951"/>
<stop offset="1" stop-color="#3305C1"/>
</linearGradient>
<linearGradient id="paint19_linear_309_614" x1="-64.0475" y1="90.7957" x2="-64.0475" y2="72.2729" gradientUnits="userSpaceOnUse">
<stop stop-color="#1C0951"/>
<stop offset="1" stop-color="#3305C1"/>
</linearGradient>
<linearGradient id="paint20_linear_309_614" x1="-64.0964" y1="47.3784" x2="-64.0964" y2="45.86" gradientUnits="userSpaceOnUse">
<stop stop-color="#1C0951"/>
<stop offset="1" stop-color="#3305C1"/>
</linearGradient>
<linearGradient id="paint21_linear_309_614" x1="382.587" y1="782.525" x2="382.586" y2="226.961" gradientUnits="userSpaceOnUse">
<stop stop-color="#1C0951"/>
<stop offset="1" stop-color="#3305C1"/>
</linearGradient>
<linearGradient id="paint22_linear_309_614" x1="326.438" y1="782.612" x2="326.438" y2="227.053" gradientUnits="userSpaceOnUse">
<stop stop-color="#1C0951"/>
<stop offset="1" stop-color="#3305C1"/>
</linearGradient>
<linearGradient id="paint23_linear_309_614" x1="269.227" y1="782.631" x2="269.227" y2="227.085" gradientUnits="userSpaceOnUse">
<stop stop-color="#1C0951"/>
<stop offset="1" stop-color="#3305C1"/>
</linearGradient>
<linearGradient id="paint24_linear_309_614" x1="208.615" y1="782.57" x2="208.615" y2="227.02" gradientUnits="userSpaceOnUse">
<stop stop-color="#1C0951"/>
<stop offset="1" stop-color="#3305C1"/>
</linearGradient>
<linearGradient id="paint25_linear_309_614" x1="142.183" y1="782.423" x2="142.182" y2="226.892" gradientUnits="userSpaceOnUse">
<stop stop-color="#1C0951"/>
<stop offset="1" stop-color="#3305C1"/>
</linearGradient>
<linearGradient id="paint26_linear_309_614" x1="72.7661" y1="782.638" x2="72.7653" y2="227.2" gradientUnits="userSpaceOnUse">
<stop stop-color="#1C0951"/>
<stop offset="1" stop-color="#3305C1"/>
</linearGradient>
<linearGradient id="paint27_linear_309_614" x1="-2.92054" y1="782.809" x2="-2.9213" y2="227.261" gradientUnits="userSpaceOnUse">
<stop stop-color="#1C0951"/>
<stop offset="1" stop-color="#3305C1"/>
</linearGradient>
<linearGradient id="paint28_linear_309_614" x1="52" y1="416.5" x2="342" y2="416.5" gradientUnits="userSpaceOnUse">
<stop stop-color="#05B0C1"/>
<stop offset="1" stop-color="#05C174"/>
</linearGradient>
<clipPath id="clip0_309_614">
<rect width="369" height="454" fill="white" transform="translate(12 374)"/>
</clipPath>
</defs>
</svg>
