<svg width="393" height="615" viewBox="0 0 393 615" fill="none" xmlns="http://www.w3.org/2000/svg">
<path d="M-535.5 0C-54.1483 0.126991 427.204 0.28573 908.5 0H909.001L909 0.500977C908.667 204.829 908.889 409.156 909 613.485V613.986H908.5C427.148 613.986 -54.204 614.018 -535.5 613.986H-536V613.485C-535.833 409.157 -535.889 204.829 -536 0.5V0H-535.5ZM907.999 1C427.036 1.28522 -53.9823 1.12692 -535 1C-534.889 204.995 -534.834 408.991 -535 612.986C-54.0376 613.018 426.981 612.986 907.999 612.986C907.888 408.992 907.667 204.996 907.999 1Z" fill="#1C0951"/>
<path d="M-534.988 584.098C-53.9517 583.96 426.975 584.043 908.012 584.098V584.56L908.011 585.022C426.974 584.967 -53.952 584.884 -534.988 585.022V584.098Z" fill="#1C0951"/>
<path d="M-534.988 554.889C-53.8586 553.248 426.718 554.342 908.012 554.889L908.011 555.456V556.022C426.715 555.476 -53.8574 554.382 -534.984 556.022L-534.988 554.889Z" fill="#1C0951"/>
<path d="M-534.988 525.479C-415.71 524.59 -295.759 518.797 -176.501 521.957C-125.359 523.307 -74.6327 526.895 -23.8804 530.211C26.8757 533.527 77.6617 536.572 128.944 536.835C258.568 537.51 388.346 534.506 518.215 531.416C648.081 528.326 778.04 525.149 908.012 525.479L908.01 526.024L908.009 526.57C778.051 526.241 648.106 529.418 518.237 532.508C388.37 535.597 258.579 538.601 128.939 537.927C77.6266 537.663 26.8165 534.617 -23.9399 531.301C-74.7001 527.984 -125.404 524.398 -176.524 523.049C-295.767 519.889 -415.649 525.681 -534.982 526.57L-534.988 525.479Z" fill="#1C0951"/>
<path d="M-534.988 496.097C-421.837 494.852 -307.487 487.019 -194.341 491.28C-143.809 493.181 -94.0688 498.106 -44.2798 502.665C5.5144 507.225 55.3616 511.419 106.135 511.861C177.452 512.483 248.732 509.116 319.995 505.159C391.254 501.202 462.501 496.654 533.732 494.916C658.199 491.901 783.458 495.605 908.012 496.064L908.01 496.607L908.009 497.151C783.422 496.692 658.206 492.989 533.755 496.003C462.542 497.74 391.316 502.287 320.046 506.245C248.781 510.202 177.476 513.571 106.127 512.948C55.3121 512.505 5.43115 508.309 -44.3637 503.749C-94.1636 499.189 -143.874 494.266 -194.375 492.366C-307.498 488.106 -421.749 495.938 -534.979 497.184L-534.988 496.097Z" fill="#1C0951"/>
<path d="M-534.988 466.961C-425.058 465.644 -313.628 456.677 -203.693 461.37C-153.487 463.508 -104.435 469.126 -55.3089 474.335C-6.17688 479.546 43.0334 484.348 93.5846 484.862C167.876 485.617 242.115 481.737 316.332 477.19C390.545 472.642 464.742 467.427 538.923 465.515C661.623 462.365 785.284 466.446 908.012 466.928L908.01 467.461L908.009 467.994C785.242 467.512 661.631 463.431 538.947 466.581C464.788 468.493 390.615 473.707 316.39 478.254C242.17 482.802 167.902 486.683 93.5748 485.928C42.9745 485.413 -6.27472 480.606 -55.4075 475.396C-104.546 470.185 -153.564 464.571 -203.733 462.435C-313.644 457.743 -424.95 466.708 -534.977 468.026L-534.988 466.961Z" fill="#1C0951"/>
<path d="M-535.988 437.837C-422.946 436.518 -308.666 426.444 -195.559 431.369C-145.88 433.526 -97.4233 439.135 -48.887 444.32C-0.344727 449.506 48.2823 454.266 98.3345 454.733C232.806 456.02 367.655 451.499 502.675 446.8C637.691 442.101 772.878 437.225 908.012 437.804L908.008 438.872C772.896 438.292 637.728 443.168 502.707 447.866C367.69 452.565 232.821 457.088 98.3257 455.8C48.2237 455.333 -0.443237 450.568 -48.9866 445.382C-97.536 440.196 -145.957 434.59 -195.6 432.435C-308.687 427.511 -422.824 437.584 -535.977 438.904L-535.988 437.837Z" fill="#1C0951"/>
<path d="M-534.988 408.443C-411.929 406.516 -287.45 394.094 -164.319 399.278C-116.59 401.286 -70.0404 406.478 -23.4175 411.337C23.2109 416.197 69.9175 420.722 117.993 421.401C380.4 425.099 645.283 409.739 908.007 408.411L908.009 408.936L908.012 409.46C645.387 410.787 380.368 426.147 117.981 422.45C69.8575 421.77 23.1118 417.24 -23.5171 412.38C-70.1514 407.52 -116.666 402.331 -164.359 400.325C-287.471 395.142 -411.789 407.562 -534.973 409.491L-534.988 408.443Z" fill="#1C0951"/>
<path d="M-534.988 379.507C-398.648 376.529 -260.208 360.499 -123.733 366.263C-78.6068 368.174 -34.5366 373.041 9.58929 377.707C53.7205 382.374 97.9102 386.842 143.303 387.958L155.323 388.237C407.669 393.866 656.042 384.192 907.995 379.538L908.003 380.075L908.012 380.612C652.084 385.34 399.789 395.25 143.281 389.032C97.8456 387.915 53.6213 383.444 9.4917 378.777C-34.6431 374.11 -78.6812 369.245 -123.772 367.336C-260.226 361.572 -398.492 377.599 -534.969 380.58L-534.988 379.507Z" fill="#1C0951"/>
<path d="M-309.957 337.841C-234.693 333.367 -159.399 330.157 -84.7802 333.247C-42.2331 335.008 -0.507019 339.356 41.2568 343.648C83.0253 347.942 124.833 352.181 167.567 353.733C213.187 355.381 258.666 358.358 304.144 361.251C349.624 364.144 395.103 366.952 440.733 368.264C595.854 372.713 753.068 354.598 907.983 350.051L907.998 350.582L908.012 351.113C753.223 355.656 595.845 373.774 440.706 369.325C395.058 368.012 349.563 365.203 304.084 362.311C258.603 359.418 213.137 356.441 167.533 354.793C124.763 353.24 82.9252 348.998 41.1602 344.705C-0.60907 340.411 -42.3053 336.067 -84.8183 334.308C-159.388 331.22 -234.644 334.427 -309.901 338.9C-385.151 343.373 -460.414 349.112 -534.963 351.081L-534.988 350.019C-460.46 348.051 -385.228 342.314 -309.957 337.841Z" fill="#1C0951"/>
<path d="M-297.181 307.572C-217.607 302.616 -137.995 299.019 -59.1831 302.261C-18.3306 303.945 21.9086 307.912 62.1671 311.897C102.43 315.881 142.713 319.884 183.673 321.645C223.779 323.377 262.716 327.705 301.566 332.134C340.421 336.564 379.188 341.093 418.98 343.232C498.707 347.51 581.091 343.304 663.482 337.361C745.863 331.418 828.265 323.738 907.979 321.079L907.996 321.601L908.012 322.122C828.322 324.781 745.96 332.457 663.551 338.401C581.152 344.345 498.718 348.556 418.929 344.275C379.102 342.134 340.305 337.6 301.457 333.172C262.604 328.743 223.699 324.418 183.632 322.688C142.641 320.925 102.332 316.92 62.0734 312.935C21.811 308.951 -18.4016 304.988 -59.2221 303.305C-137.983 300.065 -217.555 303.658 -297.122 308.614C-376.681 313.569 -456.247 319.888 -534.961 322.091L-534.988 321.047C-456.296 318.845 -376.763 312.529 -297.181 307.572Z" fill="#1C0951"/>
<path d="M-296.839 277.963C-217.183 272.747 -137.495 268.922 -58.5372 272.297C-17.6812 274.048 22.5203 278.169 62.7472 282.309C102.978 286.449 143.235 290.608 184.226 292.438C224.416 294.238 263.716 298.408 302.951 302.644C342.19 306.881 381.364 311.184 421.328 313.255C500.674 317.349 582.677 313.471 664.679 307.858C746.672 302.245 828.676 294.895 907.979 292.052L908.012 293.118C828.73 295.96 746.764 303.307 664.744 308.921C582.734 314.535 500.683 318.416 421.279 314.318C381.284 312.245 342.083 307.939 302.85 303.703C263.612 299.467 224.341 295.301 184.184 293.503C143.162 291.671 102.878 287.509 62.6515 283.369C22.4205 279.229 -17.7537 275.111 -58.5773 273.361C-137.482 269.989 -217.128 273.81 -296.777 279.026C-376.419 284.242 -456.076 290.852 -534.963 293.053L-534.988 291.988C-456.125 289.787 -376.503 283.18 -296.839 277.963Z" fill="#1C0951"/>
<path d="M-307.59 248.305C-231.536 242.895 -155.427 238.886 -79.9102 242.266L-75.9115 242.455C-34.6194 244.487 5.67523 249.216 46.0284 253.821C87.6887 258.575 129.414 263.198 172.398 264.597L183.948 264.966C426.447 272.527 665.249 267.926 907.992 262.795L908.012 263.862C661.418 269.075 418.865 273.74 172.367 265.663C129.341 264.263 87.5804 259.636 45.923 254.882C4.26013 250.127 -37.299 245.246 -79.9522 243.332C-155.413 239.955 -231.476 243.96 -307.524 249.37C-383.563 254.779 -459.598 261.593 -534.961 263.83L-534.988 262.763C-459.651 260.527 -383.653 253.715 -307.59 248.305Z" fill="#1C0951"/>
<path d="M-323.901 218.512C-253.361 213.024 -182.745 208.926 -112.4 212.175L-108.142 212.383C-64.1952 214.628 -21.7233 220.26 20.8461 225.556C64.7955 231.025 108.854 236.136 154.794 236.811C213.876 237.689 272.864 235.046 331.837 231.892C390.806 228.738 449.764 225.074 508.763 223.913C641.897 221.308 775.039 231.351 908.012 233.202L908.005 233.723L907.999 234.243C774.928 232.391 641.913 222.349 508.781 224.954C449.804 226.115 390.868 229.778 331.888 232.932C272.913 236.086 213.897 238.731 154.78 237.852C108.782 237.176 64.6776 232.058 20.728 226.589C-23.2282 221.12 -67.025 215.301 -112.444 213.215C-182.727 209.969 -253.294 214.062 -323.826 219.55C-394.35 225.037 -464.851 231.92 -534.957 234.243L-534.988 233.202C-464.911 230.88 -394.45 224.001 -323.901 218.512Z" fill="#1C0951"/>
<path d="M563.636 175.777C622.971 172.986 680.158 178.336 737.085 185.274C794.022 192.213 850.68 200.738 909.012 204.312L908.982 204.844L908.954 205.374C850.585 201.798 793.875 193.266 736.972 186.331C680.058 179.394 622.933 174.052 563.68 176.84C492.378 180.205 421.605 188.843 350.693 196.595C279.789 204.346 208.752 211.211 136.96 211.019C87.9622 210.89 41.3044 205.026 -5.14655 198.606C-51.6052 192.184 -97.8503 185.206 -146.065 182.835C-211.102 179.63 -275.939 184.013 -340.714 189.828C-405.479 195.642 -470.198 202.889 -534.951 205.407L-534.988 204.344C-470.266 201.828 -405.591 194.584 -340.798 188.767C-276.014 182.952 -211.124 178.564 -146.019 181.772C-97.7527 184.146 -51.4586 191.131 -5.01764 197.551C41.4308 203.971 88.0334 209.827 136.962 209.955C208.697 210.147 279.69 203.288 350.592 195.537C421.486 187.787 492.297 179.145 563.636 175.777Z" fill="#1C0951"/>
<path d="M605.135 132.765C664.781 129.199 712.675 139.045 759.692 150.123C806.713 161.203 852.832 173.507 909.012 174.918L908.988 175.958C852.688 174.544 806.461 162.21 759.471 151.138C712.476 140.064 664.693 130.246 605.192 133.804C524.48 138.621 444.74 150.812 364.765 161.858C284.799 172.902 204.605 182.801 123.029 183.021C71.9168 183.146 23.4094 176.888 -24.8752 169.983C-73.1682 163.076 -121.231 155.523 -171.5 153.045C-232.702 150.033 -293.15 154.511 -353.51 160.377C-413.859 166.241 -474.137 173.494 -534.949 176.021L-534.988 174.981C-474.211 172.455 -413.981 165.207 -353.602 159.34C-293.233 153.474 -232.729 148.991 -171.453 152.006C-121.128 154.487 -73.0127 162.047 -24.7394 168.951C23.542 175.856 71.9894 182.105 123.026 181.98C204.532 181.76 284.671 171.869 364.634 160.825C444.589 149.782 524.376 137.585 605.135 132.765Z" fill="#1C0951"/>
<path d="M617.253 98.7321C677.458 94.9746 722.503 106.756 766.317 119.512C810.13 132.268 852.687 145.988 908.012 146.196L908.01 146.728L908.009 147.26C852.528 147.051 809.841 133.286 766.053 120.538C722.266 107.789 677.349 96.0467 617.312 99.7937C533.678 105.02 451.293 118.75 368.65 131.215C286.016 143.679 203.132 154.877 118.546 155.021C66.9078 155.118 17.8168 148.562 -31.044 141.35C-78.3862 134.362 -125.505 126.759 -174.559 123.974L-179.312 123.719C-239.369 120.707 -298.463 125.306 -357.456 131.307C-416.439 137.306 -475.335 144.71 -534.947 147.292L-534.988 146.229C-475.412 143.648 -416.563 136.251 -357.55 130.248C-298.548 124.246 -239.397 119.64 -179.266 122.657C-128.442 125.208 -79.7569 133.086 -30.9073 140.297C17.9507 147.509 66.9816 154.054 118.544 153.958L122.505 153.943C205.643 153.464 287.17 142.43 368.51 130.162C451.131 117.7 533.568 103.961 617.253 98.7321Z" fill="#1C0951"/>
<path d="M602.238 75.721C661.438 72.3017 710.097 81.9863 757.967 92.7647C805.843 103.545 852.911 115.412 909.012 116.417L909.003 116.946L908.995 117.475C852.778 116.469 805.606 104.573 757.759 93.7996C709.905 83.0249 661.354 73.3663 602.293 76.7776C522.91 81.3726 444.526 93.0441 365.93 103.639C287.343 114.232 208.55 123.747 128.388 124.018C76.7513 124.194 26.9116 118.605 -22.7563 112.428C-72.4319 106.251 -121.93 99.4876 -172.927 97.3022C-233.721 94.7022 -293.98 98.5618 -354.169 103.669C-414.35 108.775 -474.473 115.128 -534.951 117.506L-534.988 116.449C-474.539 114.071 -414.456 107.721 -354.249 102.613C-294.992 97.5854 -235.628 93.7624 -175.739 96.1268L-172.886 96.2436L-168.106 96.4627C-118.745 98.8544 -70.7456 105.394 -22.6392 111.377C27.0266 117.553 76.813 123.135 128.384 122.96C208.479 122.689 287.219 113.181 365.804 102.588C444.381 91.9964 522.809 80.3187 602.238 75.721Z" fill="#1C0951"/>
<path d="M577.092 58.5334C634.199 56.2841 688.288 61.7859 742.082 68.6753C796.739 75.6753 851.075 84.1055 908.012 87.3119L907.984 87.8298L907.958 88.3477C850.977 85.1389 796.585 76.7019 741.96 69.7061C687.325 62.709 632.439 57.1509 574.412 59.6839C502.344 62.8437 431.121 71.0008 359.77 78.4573C288.425 85.913 216.956 92.6668 144.427 93.0112C92.7454 93.2616 41.9709 89.3013 -8.71533 84.9006C-57.8236 80.6369 -106.845 75.961 -156.557 74.2935L-161.37 74.1415C-223.831 72.2958 -286.06 75.048 -348.263 78.6661C-410.459 82.2838 -472.636 86.7683 -534.963 88.3802L-534.988 87.3423C-472.682 85.7309 -410.532 81.249 -348.318 77.6302C-286.11 74.0118 -223.846 71.2566 -161.342 73.1036C-109.945 74.6218 -59.3116 79.4666 -8.63239 83.8667C42.0527 88.2673 92.7885 92.2245 144.422 91.9743C216.899 91.6302 288.327 84.8801 359.67 77.4244C431.007 69.9695 502.265 61.8084 574.37 58.647L577.092 58.5334Z" fill="#1C0951"/>
<path d="M544.008 42.4119C605.269 40.8741 665.789 44.1212 726.23 48.1116C786.677 52.1025 847.038 56.8365 908.012 58.2802L908 58.7951L907.989 59.3101C846.989 57.8658 786.597 53.1283 726.166 49.1386C667.618 45.2731 609.026 42.1081 549.769 43.311L544.033 43.4418C480.31 45.0252 417.044 49.5505 353.721 53.739C290.402 57.9273 227.028 61.7786 163.11 62.0116H163.109C111.019 62.198 59.2508 59.9533 7.5213 57.4574C-44.2117 54.9613 -95.9038 52.2143 -147.859 51.3915C-277.051 49.342 -405.796 57.819 -534.977 59.3101L-534.988 58.2802C-405.897 56.7901 -277.035 48.3121 -147.845 50.3616C-95.8694 51.1847 -44.1574 53.9328 7.56818 56.4285C59.2972 58.9244 111.043 61.168 163.106 60.9817C226.991 60.7489 290.338 56.8994 353.657 52.7111C416.972 48.5231 480.261 43.9959 544.008 42.4119Z" fill="#1C0951"/>
<path d="M-534.988 28.7661C-53.7119 28.1221 427.012 27.4781 908.012 28.7661L908.01 30.0225C427.012 28.7345 -53.7098 29.3785 -534.986 30.0225L-534.988 28.7661Z" fill="#1C0951"/>
<path d="M427.975 0.0224609C433.427 12.8435 441.102 24.8641 449.24 36.5381C457.365 48.1942 465.975 59.5352 473.231 70.9194C487.529 93.3514 496.733 116.196 486.954 142.72L486.475 143.987C480.345 159.697 469.893 174.746 457.608 189.481C445.326 204.213 431.176 218.672 417.646 233.173C404.105 247.686 391.178 262.249 381.29 277.229C371.403 292.209 364.578 307.571 363.203 323.68C362.174 335.738 365.335 347.318 370.835 358.681C376.338 370.048 384.164 381.165 392.435 392.295C400.695 403.411 409.403 414.548 416.613 425.902C423.826 437.261 429.57 448.884 431.889 461.005C436.616 485.68 436.113 511.589 434.192 537.489C432.269 563.423 428.933 589.282 427.963 614.022L426.965 613.979C427.935 589.228 431.281 563.243 433.197 537.406C435.115 511.535 435.609 485.743 430.911 461.214C428.628 449.288 422.965 437.798 415.785 426.489C408.602 415.178 399.932 404.092 391.649 392.946C383.377 381.814 375.496 370.627 369.946 359.161C364.394 347.69 361.158 335.907 362.208 323.585C363.605 307.224 370.53 291.686 380.471 276.626C390.411 261.566 403.391 246.949 416.935 232.433C430.489 217.906 444.602 203.487 456.86 188.784C469.116 174.082 479.484 159.137 485.552 143.585L486.023 142.342C495.62 116.313 486.65 93.8594 472.404 71.5083C465.161 60.1455 456.597 48.8718 448.436 37.164C440.287 25.4741 432.562 13.3806 427.064 0.454866L427.975 0.0224609Z" fill="#1C0951"/>
<path d="M359.065 0.0224609C361.347 26.1796 367.509 52.3995 371.748 78.7384C375.98 105.042 378.277 131.398 372.758 157.646C366.99 184.917 354.156 211.305 342.085 237.673C330 264.069 318.674 290.453 315.809 317.821C310.629 367.443 317.412 416.878 327.51 466.204C337.6 515.493 351.022 564.754 359.059 613.845L358.058 614.022C350.023 564.941 336.63 515.823 326.517 466.423C316.411 417.061 309.602 367.496 314.799 317.707L314.941 316.415C318.043 289.31 329.277 263.193 341.168 237.22C353.261 210.805 366.029 184.545 371.765 157.42C377.243 131.372 374.972 105.176 370.746 78.9125C366.526 52.6841 360.339 26.3206 358.053 0.117194L359.065 0.0224609Z" fill="#1C0951"/>
<path d="M289.979 0.222185C284.741 28.7125 276.679 57.1273 270.22 85.4929C263.855 113.443 259.032 141.399 259.917 169.544L259.964 170.884L260.051 173.079C261.022 195.758 264.046 218.591 266.443 241.474C268.839 264.343 270.605 287.246 269.038 310.001L268.875 312.202C266.778 339.043 254.796 365.709 243.508 392.239C232.2 418.815 221.585 445.26 222.028 471.808C222.415 495.731 235.06 519.397 249.833 543.024C264.572 566.597 281.435 590.133 290.011 613.645L289.542 613.833L289.074 614.022C280.549 590.651 263.793 567.271 248.995 543.603C234.23 519.99 221.418 496.089 221.025 471.825C220.577 445.006 231.298 418.353 242.592 391.808C253.907 365.217 265.796 338.737 267.876 312.115L268.038 309.924C269.598 287.27 267.841 264.447 265.446 241.589C262.977 218.01 259.825 194.376 258.961 170.926L258.915 169.579C258.026 141.291 262.875 113.226 269.245 85.2478C275.724 56.7973 283.761 28.4913 288.995 0.0224609L289.979 0.222185Z" fill="#1C0951"/>
<path d="M220.929 0.353915C216.277 15.1103 209.443 29.977 202.018 44.8985C194.585 59.8358 186.576 74.8042 179.53 89.8333C165.439 119.889 155.319 149.968 161.611 179.826L161.834 180.852C166.65 202.357 179.965 222.788 192.124 243.472C204.443 264.428 215.57 285.64 215.066 308.285C214.73 323.098 209.214 337.331 201.172 351.233C193.132 365.132 182.538 378.746 172.009 392.309C161.469 405.886 150.995 419.413 143.137 433.181C135.403 446.732 130.23 460.473 130.018 474.671L130.012 475.348C129.957 487.13 134.199 498.807 140.985 510.43C147.77 522.052 157.075 533.582 167.095 545.065C177.097 556.529 187.843 567.98 197.424 579.36C207.014 590.75 215.496 602.137 221.011 613.544L220.566 613.783L220.121 614.022C214.664 602.738 206.251 591.432 196.676 580.06C187.093 568.677 176.405 557.293 166.358 545.779C156.33 534.285 146.971 522.694 140.133 510.981C133.296 499.269 128.956 487.396 129.012 475.343C129.068 460.638 134.376 446.486 142.279 432.639C150.181 418.793 160.706 405.206 171.235 391.642C181.775 378.065 192.321 364.509 200.318 350.684C208.315 336.861 213.736 322.812 214.066 308.26C214.562 285.967 203.606 265.005 191.274 244.027C178.974 223.103 165.297 202.159 160.635 180.056C154.261 149.817 164.53 119.448 178.633 89.3659C185.684 74.3266 193.721 59.3033 201.132 44.4096C208.551 29.5 215.354 14.695 219.98 0.0224609L220.929 0.353915Z" fill="#1C0951"/>
<path d="M152.984 0.353882C148.294 15.173 140.955 30.0929 132.834 45.0648C124.699 60.062 115.807 75.0625 107.937 90.1565C92.2052 120.33 80.7552 150.531 88.1196 180.586C90.8002 191.569 96.2014 202.071 102.811 212.376C109.423 222.685 117.218 232.759 124.68 242.919C139.57 263.19 153.152 283.81 152.785 306.915C152.545 322.122 146.429 336.539 137.452 350.515C128.477 364.49 116.607 378.076 104.81 391.611C92.9999 405.161 81.262 418.662 72.4906 432.506C63.8577 446.132 58.1316 460.041 58.0208 474.6L58.0199 475.294C58.0615 487.23 62.5743 498.952 69.7202 510.562C76.8662 522.172 86.6199 533.632 97.09 545.046C107.544 556.442 118.737 567.816 128.684 579.183C138.637 590.558 147.396 601.984 153.011 613.545L152.113 614.022C146.561 602.592 137.876 591.249 127.941 579.894C117.999 568.532 106.857 557.214 96.3627 545.775C85.8842 534.352 76.074 522.831 68.8729 511.132C61.6717 499.432 57.0546 487.513 57.0121 475.298C56.9417 460.192 62.8276 445.85 71.6511 431.923C80.4734 417.999 92.2667 404.438 104.065 390.901C115.875 377.351 127.69 363.825 136.616 349.928C145.54 336.032 151.543 321.817 151.778 306.898C152.139 284.212 138.798 263.869 123.881 243.561C116.44 233.431 108.61 223.31 101.974 212.963C95.3354 202.613 89.8644 191.997 87.1433 180.847C79.6745 150.366 91.3126 119.84 107.052 89.6522C114.918 74.5655 123.858 59.4764 131.958 44.545C140.071 29.5884 147.369 14.7407 152.027 0.0224609L152.984 0.353882Z" fill="#1C0951"/>
<path d="M83.7711 0.343598C79.4304 14.6873 72.5294 29.1505 64.889 43.6704C57.2367 58.2131 48.8657 72.7717 41.5211 87.4119C26.837 116.682 16.4286 145.957 24.4661 174.976C27.5785 186.225 33.6847 196.903 41.112 207.347C48.542 217.795 57.2626 227.967 65.6004 238.234C82.233 258.717 97.3678 279.599 97.0051 303.423C96.7678 318.839 90.2637 333.266 80.6798 347.149C71.0969 361.031 58.3947 374.425 45.7018 387.768C32.9958 401.124 20.2988 414.429 10.6597 428.174C1.17192 441.702 -5.31363 455.602 -5.94447 470.33L-5.96974 471.032C-6.33861 483.073 -2.27212 495.07 4.41103 507.049C11.0942 519.027 20.3705 530.948 30.3707 542.83C40.3544 554.692 51.0883 566.547 60.6024 578.313C70.1242 590.09 78.4808 601.843 83.7468 613.57L82.8479 614.022C77.6395 602.424 69.3525 590.756 59.8464 578.999C50.3325 567.233 39.6537 555.443 29.6283 543.531C19.6195 531.639 10.2894 519.656 3.55487 507.585C-3.1797 495.514 -7.34217 483.315 -6.96486 470.998L-6.93863 470.282C-6.29485 455.254 0.318796 441.15 9.86088 427.545C19.5535 413.724 32.3093 400.361 45.0012 387.02C57.7065 373.664 70.3482 360.33 79.8761 346.527C89.4028 332.727 95.7773 318.513 96.01 303.407C96.3658 280.04 81.5149 259.45 64.8453 238.922C56.5321 228.684 47.7729 218.466 40.3171 207.981C32.8587 197.494 26.6729 186.698 23.5117 175.273C15.3539 145.819 25.9487 116.208 40.6426 86.9179C47.9869 72.2782 56.3989 57.6386 64.0193 43.1568C71.6518 28.6519 78.5139 14.2635 82.8236 0.0224609L83.7711 0.343598Z" fill="#1C0951"/>
<path d="M15.2428 0.325101C11.3717 13.8791 4.9067 27.6408 -2.27891 41.4945C-9.47549 55.3693 -17.377 69.3057 -24.1811 83.3011C-37.7871 111.288 -46.8463 139.211 -36.8261 166.424C-32.5842 177.94 -25.0779 188.844 -16.1827 199.503C-7.28439 210.165 2.96199 220.536 12.686 231.023C22.3972 241.496 31.5771 252.075 38.2756 263.106C44.9764 274.14 49.215 285.66 49.0039 298.01C48.7366 313.704 41.54 328.143 30.8841 341.9C20.2289 355.657 6.06707 368.793 -8.20791 381.873C-22.4975 394.968 -36.9005 408.008 -48.1085 421.61C-59.3169 435.213 -67.2787 449.319 -68.7528 464.527C-69.9363 476.743 -66.5298 489.168 -60.407 501.709C-54.284 514.25 -45.465 526.868 -35.8727 539.46C-26.3004 552.025 -15.9175 564.614 -6.76897 576.983C2.39106 589.368 10.3821 601.62 15.2242 613.611L14.3011 614.022C9.51139 602.161 1.58654 589.997 -7.5599 577.63C-16.7181 565.248 -27.033 552.748 -36.6548 540.118C-46.2564 527.515 -55.1279 514.83 -61.2987 502.191C-67.4697 489.551 -70.9608 476.915 -69.7503 464.42C-68.2456 448.896 -60.1296 434.589 -48.8661 420.919C-37.6022 407.249 -23.1383 394.157 -8.86669 381.079C5.41994 367.987 19.515 354.91 30.1069 341.235C40.698 327.561 47.74 313.348 48.0016 297.992C48.208 285.918 44.0676 274.602 37.4308 263.673C30.7915 252.739 21.6742 242.226 11.9685 231.759C2.2757 221.305 -8.01516 210.887 -16.9365 200.198C-25.8608 189.504 -33.4565 178.49 -37.7609 166.805C-47.9506 139.132 -38.6926 110.833 -25.0738 82.8204C-18.2654 68.8161 -10.3265 54.808 -3.15891 40.9891C4.01955 27.1492 10.4426 13.4669 14.2825 0.0224609L15.2428 0.325101Z" fill="#1C0951"/>
<path d="M-53.6303 0.304514C-56.9894 13.1534 -62.8462 26.2151 -69.3625 39.3626C-75.8888 52.5303 -83.0626 65.7584 -89.1151 79.025C-101.219 105.555 -108.695 131.956 -97.3291 157.513L-96.8286 158.612C-91.5497 169.956 -82.9834 180.723 -73.0302 191.262C-62.7525 202.146 -51.0468 212.737 -39.9905 223.467C-28.9494 234.182 -18.5697 245.026 -11.02 256.362C-3.468 267.702 1.27948 279.576 0.999741 292.346C0.66394 308.318 -7.21719 322.769 -18.8977 336.402C-30.5785 350.036 -46.1159 362.916 -61.8638 375.737C-77.6277 388.572 -93.6032 401.347 -106.229 414.803C-118.66 428.05 -127.785 441.896 -130.284 457.024L-130.398 457.746C-132.284 470.21 -129.556 483.096 -124.089 496.212C-118.621 509.329 -110.432 522.636 -101.444 535.932C-92.4807 549.191 -82.6649 562.518 -74.071 575.507C-65.4604 588.521 -57.9921 601.313 -53.6439 613.654L-54.5759 614.022C-58.8784 601.812 -66.2872 589.108 -74.8864 576.111C-83.5025 563.089 -93.231 549.892 -102.253 536.545C-111.251 523.236 -119.489 509.857 -124.999 496.638C-130.51 483.418 -133.308 470.317 -131.38 457.579C-129.007 441.843 -119.616 427.573 -106.935 414.059C-94.2512 400.543 -78.2137 387.72 -62.4702 374.902C-46.7107 362.072 -31.2455 349.247 -19.6344 335.694C-8.02307 322.141 -0.323196 307.925 0.00457764 292.322L0.0162506 291.155C-0.0141144 279.129 -4.58475 267.852 -11.8324 256.969C-19.3161 245.732 -29.6274 234.953 -40.6621 224.244C-51.6817 213.549 -63.4367 202.912 -73.7338 192.008C-84.0344 181.1 -92.9272 169.876 -98.2291 157.963C-109.803 131.938 -102.133 105.135 -90.0112 78.5659C-83.9512 65.283 -76.7429 51.9873 -70.243 38.8727C-63.7329 25.7378 -57.9189 12.7578 -54.5895 0.0224609L-53.6303 0.304514Z" fill="#1C0951"/>
</svg>
