<svg width="1440" height="688" viewBox="0 0 1440 688" fill="none" xmlns="http://www.w3.org/2000/svg">
<path fill-rule="evenodd" clip-rule="evenodd" d="M-17.5 0.241858C70.4267 -0.595963 158.629 1.07968 246.556 0.241858L313.101 38.2419H841.025L857.051 18.2633H1281.92V4.43131H1442.5V548.243H1442.52C1442.51 548.886 1442.51 549.53 1442.5 550.174V553.242H1442.48C1442.31 574.027 1442.13 594.812 1441.97 615.596C1431.9 615.499 1421.81 615.419 1411.72 615.322C1407.72 610.46 1403.8 606.105 1399.8 601.243H1177.34C1177.24 615.893 1176.86 630.069 1176.77 644.735C1108.9 645.01 1041.02 645.284 973.154 645.558C960.616 637.725 948.077 629.891 935.538 622.057C857.439 622.203 779.357 622.332 701.258 622.477C697.366 617.535 693.491 612.576 689.6 607.633C642.471 607.908 595.326 608.183 548.198 608.458C539.759 603.241 531.32 598.007 522.881 592.79H350.029L309.146 661.243H2.49996V39.0309C-4.16653 39.03 -10.8336 39.0299 -17.5 39.029C-17.419 26.938 -17.5811 12.3493 -17.5 0.241858Z" fill="#3305C1"/>
<mask id="mask0_475_102" style="mask-type:alpha" maskUnits="userSpaceOnUse" x="-48" y="2" width="1541" height="686">
<g style="mix-blend-mode:color-dodge" opacity="0.4">
<path d="M-47.4669 2.24341C465.768 2.38508 979.005 2.56218 1492.18 2.24341H1492.71L1492.71 2.80231C1492.36 230.757 1492.6 458.712 1492.71 686.669V687.228H1492.18C978.945 687.228 465.709 687.263 -47.4669 687.228H-48V686.669C-47.8223 458.713 -47.8815 230.757 -48 2.80123V2.24341H-47.4669ZM1491.65 3.35904C978.826 3.67725 465.945 3.50064 -46.9338 3.35904C-46.8156 230.943 -46.7567 458.528 -46.9338 686.112C465.887 686.147 978.767 686.112 1491.65 686.112C1491.53 458.529 1491.29 230.944 1491.65 3.35904Z" fill="url(#paint0_linear_475_102)"/>
<path d="M-47.2886 620.563C465.828 620.395 978.828 620.496 1491.94 620.563V621.12L1491.94 621.678C978.827 621.611 465.828 621.511 -47.2886 621.678V620.563Z" fill="url(#paint1_linear_475_102)"/>
<path d="M-47.291 589.65C465.946 588.035 978.592 589.112 1492 589.65L1492 590.208V590.765C978.589 590.227 465.947 589.151 -47.2869 590.765L-47.291 589.65Z" fill="url(#paint2_linear_475_102)"/>
<path d="M-47.3516 558.703C79.891 557.795 207.853 551.875 335.074 555.105C389.631 556.484 443.744 560.151 497.885 563.54C552.031 566.928 606.208 570.04 660.915 570.309C799.194 570.998 937.638 567.928 1076.18 564.771C1214.72 561.613 1353.35 558.367 1492 558.703L1492 559.261L1492 559.819C1353.37 559.483 1214.74 562.729 1076.2 565.886C937.664 569.044 799.206 572.114 660.909 571.424C606.171 571.155 551.968 568.042 497.822 564.653C443.672 561.264 389.582 557.599 335.049 556.22C207.844 552.991 79.9565 558.911 -47.3453 559.819L-47.3516 558.703Z" fill="url(#paint3_linear_475_102)"/>
<path d="M-47.4126 527.792C73.3034 526.514 195.299 518.474 316.01 522.848C369.92 524.799 422.986 529.854 476.104 534.534C529.227 539.213 582.407 543.518 636.575 543.972C712.661 544.611 788.706 541.154 864.733 537.093C940.756 533.031 1016.77 528.363 1092.76 526.58C1225.55 523.486 1359.18 527.287 1492.06 527.758L1492.06 528.316L1492.06 528.874C1359.14 528.403 1225.56 524.602 1092.79 527.696C1016.81 529.479 940.823 534.145 864.788 538.207C788.758 542.269 712.686 545.727 636.567 545.087C582.354 544.633 529.138 540.326 476.014 535.646C422.885 530.966 369.851 525.913 315.974 523.962C195.287 519.59 73.3972 527.629 -47.4022 528.907L-47.4126 527.792Z" fill="url(#paint4_linear_475_102)"/>
<path d="M-47.3545 496.844C69.9168 495.465 188.787 486.08 306.064 490.992C359.622 493.23 411.95 499.11 464.356 504.563C516.769 510.016 569.266 515.043 623.193 515.581C702.445 516.371 781.641 512.31 860.815 507.55C939.983 502.791 1019.13 497.332 1098.27 495.33C1229.16 492.034 1361.08 496.305 1492 496.81L1492 497.368L1492 497.926C1361.04 497.421 1229.17 493.15 1098.3 496.446C1019.18 498.447 940.057 503.905 860.876 508.665C781.7 513.424 702.473 517.487 623.182 516.696C569.203 516.158 516.665 511.126 464.251 505.673C411.831 500.219 359.54 494.343 306.021 492.107C188.771 487.196 70.032 496.58 -47.342 497.959L-47.3545 496.844Z" fill="url(#paint5_linear_475_102)"/>
<path d="M-47.4731 465.932C73.0483 464.553 194.889 454.024 315.48 459.171C368.446 461.426 420.108 467.289 471.856 472.708C523.609 478.128 575.454 483.104 628.817 483.591C772.186 484.937 915.957 480.211 1059.91 475.3C1203.86 470.389 1347.99 465.292 1492.06 465.898L1492.06 467.014C1348.01 466.408 1203.9 471.504 1059.94 476.415C915.994 481.326 772.202 486.052 628.808 484.707C575.391 484.219 523.504 479.238 471.749 473.818C419.988 468.398 368.363 462.539 315.436 460.286C194.867 455.14 73.1779 465.667 -47.4606 467.047L-47.4731 465.932Z" fill="url(#paint6_linear_475_102)"/>
<path d="M-47.4155 435.019C83.8766 432.968 216.683 419.748 348.053 425.265C398.975 427.401 448.638 432.928 498.381 438.099C548.129 443.27 597.96 448.087 649.252 448.81C929.214 452.745 1211.82 436.398 1492.12 434.985L1492.12 435.543L1492.12 436.101C1211.93 437.513 929.18 453.861 649.239 449.925C597.896 449.202 548.023 444.381 498.274 439.209C448.52 434.037 398.893 428.514 348.01 426.379C216.662 420.863 84.0263 434.082 -47.3989 436.134L-47.4155 435.019Z" fill="url(#paint7_linear_475_102)"/>
<path d="M-47.2993 404.074C98.141 400.981 245.821 384.328 391.404 390.316C439.543 392.301 486.554 397.357 533.625 402.204C580.702 407.052 627.841 411.693 676.264 412.853L689.086 413.143C958.275 418.99 1223.22 408.941 1491.99 404.106L1492 404.664L1492.01 405.222C1219 410.133 949.869 420.427 676.24 413.968C627.772 412.807 580.596 408.163 533.521 403.315C486.441 398.467 439.463 393.414 391.363 391.43C245.801 385.443 98.3077 402.092 -47.2785 405.188L-47.2993 404.074Z" fill="url(#paint8_linear_475_102)"/>
<path d="M192.791 360.329C273.072 355.628 353.386 352.254 432.979 355.501C478.363 357.352 522.871 361.921 567.419 366.432C611.972 370.944 656.567 375.399 702.15 377.029C750.811 378.762 799.323 381.89 847.832 384.93C896.345 387.97 944.856 390.922 993.528 392.301C1158.99 396.976 1326.69 377.939 1491.93 373.161L1491.94 373.718L1491.96 374.276C1326.85 379.051 1158.98 398.091 993.499 393.415C944.807 392.036 896.28 389.084 847.769 386.044C799.255 383.004 750.758 379.876 702.114 378.144C656.492 376.512 611.865 372.054 567.316 367.542C522.762 363.03 478.286 358.465 432.939 356.616C353.398 353.371 273.125 356.741 192.85 361.442C112.583 366.142 32.303 372.173 -47.2161 374.242L-47.2432 373.127C32.254 371.058 112.501 365.03 192.791 360.329Z" fill="url(#paint9_linear_475_102)"/>
<path d="M206.417 327.81C291.297 322.512 376.217 318.667 460.283 322.132C503.859 323.933 546.781 328.173 589.724 332.432C632.671 336.692 675.639 340.97 719.33 342.853C762.11 344.704 803.643 349.331 845.083 354.065C886.529 358.8 927.881 363.642 970.326 365.929C1055.37 370.501 1143.24 366.005 1231.13 359.652C1319 353.3 1406.9 345.09 1491.93 342.248L1491.94 342.805L1491.96 343.363C1406.96 346.205 1319.11 354.41 1231.2 360.764C1143.31 367.118 1055.38 371.62 970.271 367.043C927.789 364.755 886.405 359.908 844.967 355.174C803.524 350.44 762.025 345.817 719.286 343.968C675.562 342.083 632.566 337.802 589.624 333.543C546.677 329.283 503.783 325.047 460.241 323.248C376.23 319.784 291.353 323.625 206.481 328.923C121.617 334.22 36.7465 340.974 -47.215 343.329L-47.2441 342.214C36.6941 339.859 121.53 333.108 206.417 327.81Z" fill="url(#paint10_linear_475_102)"/>
<path d="M206.764 296.616C291.725 291.154 376.719 287.149 460.934 290.682C504.51 292.516 547.389 296.832 590.294 301.167C633.204 305.502 676.142 309.856 719.862 311.773C762.729 313.657 804.645 318.024 846.492 322.459C888.344 326.896 930.127 331.401 972.752 333.57C1057.38 337.857 1144.85 333.797 1232.31 327.919C1319.76 322.042 1407.23 314.346 1491.81 311.368L1491.84 312.484C1407.28 315.461 1319.86 323.153 1232.38 329.032C1144.91 334.911 1057.39 338.974 972.7 334.684C930.042 332.513 888.231 328.004 846.385 323.569C804.535 319.133 762.648 314.77 719.817 312.887C676.064 310.969 633.097 306.611 590.192 302.277C547.282 297.941 504.433 293.629 460.891 291.797C376.732 288.266 291.783 292.268 206.83 297.729C121.885 303.19 36.9241 310.112 -47.2161 312.417L-47.2432 311.301C36.8718 308.997 121.796 302.078 206.764 296.616Z" fill="url(#paint11_linear_475_102)"/>
<path d="M195.295 265.241C276.413 259.586 357.589 255.395 438.135 258.929L442.4 259.126C486.441 261.25 529.419 266.194 572.459 271.008C616.893 275.978 661.396 280.811 707.242 282.273L719.561 282.659C978.207 290.563 1232.91 285.753 1491.82 280.389L1491.84 281.505C1228.82 286.954 970.12 291.831 707.21 283.388C661.318 281.924 616.777 277.087 572.346 272.117C527.909 267.146 483.583 262.044 438.09 260.043C357.605 256.513 276.477 260.7 195.366 266.355C114.263 272.009 33.1657 279.133 -47.215 281.471L-47.2441 280.356C33.109 278.018 114.168 270.897 195.295 265.241Z" fill="url(#paint12_linear_475_102)"/>
<path d="M177.87 233.698C253.119 227.815 328.449 223.423 403.489 226.906L408.031 227.128C454.911 229.534 500.218 235.57 545.629 241.248C592.512 247.109 639.511 252.588 688.517 253.311C751.542 254.252 814.468 251.419 877.378 248.038C940.282 244.658 1003.18 240.731 1066.11 239.486C1208.13 236.694 1350.16 247.459 1492.01 249.443L1492 250.001L1492 250.558C1350.04 248.573 1208.15 237.81 1066.13 240.602C1003.22 241.846 940.349 245.772 877.432 249.153C814.52 252.534 751.565 255.368 688.503 254.426C639.434 253.702 592.386 248.216 545.503 242.355C498.613 236.492 451.893 230.256 403.442 228.02C328.468 224.54 253.191 228.928 177.951 234.81C102.72 240.691 27.5131 248.069 -47.2723 250.558L-47.3057 249.443C27.4492 246.954 102.613 239.581 177.87 233.698Z" fill="url(#paint13_linear_475_102)"/>
<path d="M1123.96 188.527C1187.23 185.598 1248.2 191.211 1308.9 198.49C1369.61 205.771 1430.02 214.714 1492.21 218.464L1492.18 219.021L1492.15 219.578C1429.92 215.826 1369.45 206.875 1308.78 199.599C1248.09 192.322 1187.19 186.717 1124.01 189.641C1047.98 193.172 972.523 202.235 896.915 210.368C821.314 218.5 745.573 225.701 669.025 225.5C616.783 225.365 567.035 219.213 517.507 212.477C467.971 205.74 418.663 198.419 367.255 195.931C297.911 192.569 228.78 197.167 159.714 203.267C90.6593 209.367 21.6547 216.971 -47.3877 219.612L-47.4272 218.497C21.5814 215.858 90.5401 208.257 159.625 202.155C228.699 196.054 297.887 191.451 367.304 194.816C418.767 197.307 468.128 204.635 517.644 211.37C567.169 218.106 616.859 224.249 669.027 224.384C745.514 224.586 821.209 217.389 896.807 209.257C972.396 201.127 1047.9 192.06 1123.96 188.527Z" fill="url(#paint14_linear_475_102)"/>
<path d="M1168.19 142.309C1231.79 138.487 1282.86 149.039 1332.99 160.911C1383.12 172.785 1432.29 185.972 1492.19 187.484L1492.17 188.598C1432.14 187.083 1382.85 173.864 1332.75 161.998C1282.64 150.131 1231.7 139.609 1168.25 143.423C1082.2 148.584 997.178 161.649 911.907 173.487C826.645 185.323 741.141 195.931 654.163 196.167C599.666 196.301 547.947 189.595 496.465 182.194C444.974 174.792 393.728 166.698 340.131 164.042C274.875 160.815 210.425 165.614 146.068 171.9C81.7217 178.184 17.4528 185.957 -47.3866 188.666L-47.4282 187.551C17.3734 184.844 81.5916 177.076 145.969 170.788C210.336 164.502 274.847 159.698 340.181 162.929C393.837 165.588 445.139 173.69 496.609 181.088C548.088 188.488 599.743 195.186 654.159 195.051C741.063 194.816 826.509 184.216 911.767 172.38C997.016 160.545 1082.09 147.474 1168.19 142.309Z" fill="url(#paint15_linear_475_102)"/>
<path d="M1181.87 106.821C1246.1 102.88 1294.16 115.238 1340.9 128.617C1387.64 141.995 1433.04 156.385 1492.06 156.603L1492.06 157.161L1492.06 157.719C1432.87 157.5 1387.33 143.063 1340.62 129.692C1293.9 116.321 1245.99 104.005 1181.94 107.935C1092.71 113.416 1004.82 127.817 916.657 140.891C828.501 153.963 740.077 165.708 649.839 165.86C594.75 165.961 542.378 159.085 490.252 151.521C439.746 144.192 389.478 136.217 337.146 133.296L332.075 133.029C268.005 129.869 204.962 134.693 142.027 140.987C79.1022 147.279 16.2697 155.044 -47.3264 157.753L-47.3701 156.638C16.1875 153.931 78.9695 146.172 141.926 139.876C204.871 133.582 267.976 128.751 332.125 131.914C386.345 134.59 438.284 142.853 490.398 150.416C542.521 157.98 594.829 164.845 649.837 164.744L654.062 164.729C742.756 164.226 829.732 152.654 916.508 139.786C1004.65 126.715 1092.6 112.306 1181.87 106.821Z" fill="url(#paint16_linear_475_102)"/>
<path d="M1165.12 82.7715C1228.23 79.1681 1280.11 89.374 1331.15 100.733C1382.19 112.093 1432.38 124.6 1492.19 125.658L1492.18 126.216L1492.17 126.774C1432.23 125.713 1381.94 113.177 1330.93 101.823C1279.91 90.4685 1228.14 80.29 1165.17 83.8849C1080.54 88.7273 996.967 101.027 913.17 112.192C829.382 123.356 745.374 133.383 659.908 133.669C604.854 133.854 551.716 127.964 498.761 121.455C445.798 114.945 393.024 107.818 338.653 105.514C273.836 102.775 209.589 106.842 145.417 112.224C81.2539 117.604 17.1519 124.3 -47.3286 126.806L-47.3682 125.692C17.0818 123.186 81.1409 116.494 145.331 111.111C208.51 105.813 271.803 101.784 335.655 104.276L338.696 104.399L343.793 104.63C396.42 107.15 447.596 114.042 498.886 120.347C551.839 126.856 604.92 132.738 659.904 132.553C745.299 132.268 829.25 122.248 913.035 111.085C996.812 99.923 1080.43 87.6166 1165.12 82.7715Z" fill="url(#paint17_linear_475_102)"/>
<path d="M1139.01 63.8124C1199.93 61.3946 1257.63 67.3084 1315.02 74.7138C1373.33 82.2382 1431.29 91.2998 1492.03 94.7462L1492 95.303L1491.97 95.8597C1431.19 92.4105 1373.16 83.3417 1314.89 75.8219C1256.6 68.3007 1198.05 62.3264 1136.15 65.049C1059.26 68.4455 983.285 77.2136 907.167 85.2285C831.056 93.2427 754.813 100.502 677.438 100.872C622.305 101.142 568.139 96.8847 514.067 92.1544C461.678 87.5713 409.382 82.5453 356.349 80.7529L351.214 80.5895C284.581 78.6056 218.195 81.5639 151.837 85.4529C85.4863 89.3416 19.1551 94.1619 -47.3347 95.8946L-47.3618 94.7789C19.1061 93.0469 85.4078 88.2293 151.778 84.3395C218.141 80.4501 284.565 77.4885 351.245 79.4738C406.075 81.1058 460.09 86.3134 514.155 91.0431C568.226 95.7733 622.351 100.027 677.433 99.7579C754.752 99.388 830.951 92.1323 907.061 84.1183C983.163 76.105 1059.18 67.3327 1136.1 63.9345L1139.01 63.8124Z" fill="url(#paint18_linear_475_102)"/>
<path d="M1103.72 46.6774C1169.07 45.0117 1233.63 48.529 1298.1 52.8515C1362.58 57.1745 1426.97 62.3024 1492.02 63.8662L1492 64.4241L1491.99 64.9819C1426.92 63.4174 1362.5 58.2857 1298.03 53.9639C1235.58 49.7767 1173.07 46.3484 1109.86 47.6514L1103.74 47.793C1035.77 49.5082 968.279 54.4101 900.729 58.9472C833.184 63.484 765.581 67.6559 697.396 67.9082H697.395C641.829 68.1101 586.605 65.6787 531.423 62.975C476.238 60.2712 421.095 57.2956 365.672 56.4043C227.857 54.1843 90.5202 63.3667 -47.2824 64.9819L-47.2949 63.8662C90.4123 62.2522 227.875 53.0687 365.688 55.2887C421.132 56.1803 476.295 59.1571 531.473 61.8605C586.655 64.5641 641.855 66.9944 697.392 66.7926C765.541 66.5404 833.116 62.3706 900.661 57.8338C968.202 53.2973 1035.71 48.3932 1103.72 46.6774Z" fill="url(#paint19_linear_475_102)"/>
<path d="M-47.2896 32.9529C466.064 32.3811 978.828 31.8092 1491.89 32.9529L1491.88 34.0685C978.828 32.9249 466.066 33.4967 -47.2875 34.0685L-47.2896 32.9529Z" fill="url(#paint20_linear_475_102)"/>
<path d="M1419.1 2.57764C1426.97 219.186 1421.76 434.787 1419.16 652.04L1418.62 652.033L1418.09 652.026C1420.7 434.753 1425.91 219.191 1418.03 2.61904L1419.1 2.57764Z" fill="url(#paint21_linear_475_102)"/>
<path d="M1345.89 2.48926C1351.27 30.755 1364.02 58.2884 1373.83 86.0779C1383.63 113.817 1390.46 141.752 1383.78 170.58C1377.22 198.957 1360.31 225.923 1344.77 252.891C1329.45 279.486 1315.45 306.088 1313.69 334.227L1313.62 335.568C1312.35 361.19 1322.76 385.85 1334.15 410.621C1345.52 435.339 1357.88 460.175 1360.29 485.978C1362.84 513.446 1360.05 541.303 1356.23 569.116C1352.4 596.95 1347.55 624.716 1345.95 652.1L1344.89 652.033C1346.49 624.588 1351.36 596.735 1355.17 568.958C1358.99 541.161 1361.76 513.415 1359.22 486.087C1356.84 460.527 1344.59 435.9 1333.19 411.105C1321.81 386.361 1311.27 361.456 1312.55 335.512L1312.63 334.156C1314.4 305.709 1328.54 278.889 1343.86 252.315C1359.44 225.27 1376.23 198.484 1382.75 170.317C1389.34 141.827 1382.61 114.16 1372.83 86.4647C1363.07 58.82 1350.24 31.0866 1344.84 2.70716L1345.89 2.48926Z" fill="url(#paint22_linear_475_102)"/>
<path d="M1272.65 2.30762C1278.42 16.1462 1286.89 29.1178 1296.03 41.7176C1305.16 54.291 1315.01 66.5467 1323.41 78.8364C1339.97 103.061 1351.21 127.777 1341.03 156.564L1340.53 157.938C1334.47 174.054 1323.81 189.466 1311.21 204.544C1298.6 219.619 1284.01 234.405 1270.08 249.235C1256.14 264.078 1242.85 278.974 1232.8 294.313C1222.74 309.651 1215.95 325.395 1214.95 341.932C1214.18 354.913 1218.36 367.102 1225.27 378.918C1232.18 390.74 1241.8 402.15 1251.85 413.57C1261.89 424.977 1272.36 436.398 1280.91 448.199C1289.47 460.001 1296.15 472.234 1298.57 485.288L1298.79 486.546C1303.38 512.997 1298.48 540.953 1291.65 568.827C1284.7 597.187 1275.77 625.424 1272.63 652.102L1272.1 652.033L1271.57 651.965C1274.72 625.193 1283.7 596.801 1290.62 568.55C1297.56 540.254 1302.44 512.061 1297.52 485.5C1295.15 472.688 1288.58 460.616 1280.06 448.873C1271.55 437.127 1261.13 425.76 1251.06 414.326C1241.02 402.908 1231.33 391.427 1224.36 379.501C1217.38 367.57 1213.09 355.152 1213.89 341.863L1213.94 341.075C1215.12 324.551 1221.96 308.869 1231.92 293.682C1242.03 278.255 1255.37 263.299 1269.32 248.453C1283.27 233.595 1297.82 218.852 1310.4 203.809C1322.98 188.768 1333.54 173.469 1339.54 157.529C1350.36 128.713 1339.33 104.029 1322.54 79.4858C1314.14 67.1994 1304.37 55.0402 1295.19 42.3931C1286.02 29.7725 1277.49 16.7167 1271.67 2.75431L1272.65 2.30762Z" fill="url(#paint23_linear_475_102)"/>
<path d="M1199.48 2.37524C1202.91 18.3219 1212.56 30.8644 1224.67 41.8266C1236.78 52.801 1251.27 62.1229 1264.37 71.7025C1277.43 81.2545 1289.1 91.0651 1295.37 102.963C1301.68 114.918 1302.5 128.914 1294.02 146.714C1285.62 164.338 1270.66 181.088 1252.93 197.442C1235.21 213.798 1214.67 229.807 1195.1 245.915C1175.52 262.034 1156.91 278.257 1142.99 295.076C1129.06 311.897 1119.86 329.255 1119.01 347.642C1118.38 361.194 1124.37 373.177 1134.03 384.399C1143.69 395.626 1156.97 406.029 1170.83 416.413C1184.67 426.783 1199.07 437.135 1210.89 448.229C1222.71 459.321 1232.02 471.216 1235.6 484.706C1242.49 510.622 1235.52 539.665 1225.82 568.583C1220.97 583.028 1215.41 597.549 1210.55 611.585C1205.69 625.653 1201.51 639.304 1199.37 652.163L1198.32 651.971C1200.47 639.013 1204.68 625.287 1209.55 611.204C1214.44 597.089 1219.96 582.683 1224.81 568.213C1234.51 539.3 1241.37 510.554 1234.57 485.005C1231.08 471.821 1221.95 460.102 1210.18 449.059C1198.42 438.018 1184.07 427.712 1170.21 417.319C1156.36 406.941 1142.99 396.476 1133.24 385.147C1123.48 373.813 1117.3 361.552 1117.94 347.589C1118.81 328.841 1128.18 311.25 1142.18 294.346C1156.18 277.439 1174.86 261.159 1194.44 245.038C1214.04 228.904 1234.53 212.933 1252.23 196.606C1269.92 180.277 1284.76 163.642 1293.07 146.216C1301.41 128.697 1300.55 115.093 1294.44 103.502C1288.3 91.8545 1276.82 82.1717 1263.76 72.6177C1250.74 63.0913 1236.14 53.6944 1223.97 42.6699C1211.78 31.6334 1201.94 18.8969 1198.44 2.61929L1199.48 2.37524Z" fill="url(#paint24_linear_475_102)"/>
<path d="M1126.1 2.40137C1129.92 19.0675 1141.09 31.1954 1155.18 41.2187C1169.29 51.2512 1186.22 59.109 1201.54 67.3075C1216.8 75.4797 1230.48 84.0036 1237.83 95.3564C1241.52 101.051 1243.62 107.459 1243.53 114.876C1243.45 122.283 1241.18 130.66 1236.21 140.305C1226.68 158.776 1209.26 176.292 1188.53 193.386C1167.79 210.483 1143.67 227.211 1120.7 244.07C1097.72 260.941 1075.89 277.946 1059.67 295.63C1043.45 313.32 1032.91 331.616 1032.37 351.063C1031.97 365.11 1039.09 377.012 1050.4 387.857C1061.7 398.706 1077.11 408.424 1093.15 418.107C1109.17 427.777 1125.8 437.409 1139.46 448.061C1153.12 458.71 1163.88 470.441 1168.08 484.351L1168.43 485.549C1175.53 510.757 1167.39 539.658 1156.33 568.413C1150.71 583.003 1144.29 597.691 1138.73 611.782C1133.16 625.913 1128.4 639.532 1126.05 652.173L1125 651.96C1127.38 639.205 1132.17 625.502 1137.75 611.356C1143.35 597.169 1149.71 582.624 1155.34 567.996C1166.4 539.228 1174.39 510.663 1167.41 485.865L1167.07 484.688C1162.97 471.117 1152.43 459.562 1138.82 448.956C1125.23 438.353 1108.67 428.762 1092.62 419.073C1076.59 409.398 1061.08 399.624 1049.68 388.68C1038.27 377.733 1030.89 365.541 1031.3 351.031C1031.85 331.173 1042.61 312.623 1058.9 294.858C1075.2 277.087 1097.11 260.029 1120.09 243.157C1143.09 226.274 1167.16 209.581 1187.87 192.51C1208.25 175.703 1225.31 158.58 1234.82 140.631L1235.27 139.775C1240.19 130.238 1242.38 122.04 1242.47 114.863C1242.55 107.694 1240.53 101.507 1236.95 95.9828C1229.77 84.8976 1216.34 76.485 1201.05 68.3011C1185.81 60.1436 1168.76 52.225 1154.58 42.1404C1140.39 32.0466 1128.97 19.7156 1125.06 2.66067L1126.1 2.40137Z" fill="url(#paint25_linear_475_102)"/>
<path d="M1052.9 2.35352C1057 18.4424 1067.41 30.7656 1080.25 41.3386C1093.09 51.923 1108.28 60.6871 1121.92 69.7339C1135.51 78.7527 1147.58 88.059 1153.97 99.6861C1160.39 111.378 1161.04 125.33 1152 143.493C1143.03 161.513 1127.03 178.661 1108.07 195.417C1089.11 212.175 1067.14 228.595 1046.21 245.123C1025.27 261.663 1005.38 278.317 990.525 295.582C975.664 312.851 965.893 330.666 965.086 349.525C964.503 363.137 970.751 375.089 980.796 386.231C990.844 397.378 1004.63 407.648 1019.01 417.894C1033.38 428.125 1048.33 438.332 1060.61 449.319C1072.89 460.303 1082.58 472.13 1086.36 485.641C1093.45 511.048 1087.18 540.082 1078.12 569.001C1073.59 583.46 1068.34 597.958 1063.7 611.952C1059.05 625.965 1055 639.503 1052.85 652.131L1051.8 651.935C1053.97 639.217 1058.04 625.61 1062.69 611.586C1067.34 597.542 1072.58 583.109 1077.11 568.653C1086.17 539.742 1092.33 511.003 1085.33 485.955C1081.65 472.758 1072.15 461.106 1059.92 450.167C1047.69 439.231 1032.81 429.07 1018.41 418.816C1004.04 408.577 990.159 398.244 980.02 386.997C969.877 375.745 963.42 363.512 964.021 349.475C964.843 330.239 974.802 312.184 989.733 294.836C1004.67 277.484 1024.63 260.774 1045.57 244.233C1066.53 227.679 1088.45 211.297 1107.38 194.565C1126.32 177.832 1142.19 160.798 1151.05 142.978C1159.96 125.082 1159.25 111.54 1153.04 100.242C1146.8 88.879 1134.95 79.6995 1121.35 70.6763C1107.78 61.681 1092.49 52.8456 1079.59 42.2146C1066.67 31.572 1056.06 19.0625 1051.87 2.64114L1052.9 2.35352Z" fill="url(#paint26_linear_475_102)"/>
<path d="M979.55 2.26843C985.374 15.8361 993.572 28.5566 1002.26 40.9104C1010.94 53.2453 1020.14 65.2466 1027.89 77.2938C1043.16 101.032 1053 125.207 1042.55 153.276L1042.04 154.616C1035.49 171.241 1024.33 187.166 1011.2 202.759C998.084 218.35 982.969 233.65 968.517 248.996C954.053 264.354 940.244 279.764 929.682 295.617C919.121 311.469 911.831 327.726 910.362 344.773C909.263 357.533 912.64 369.788 918.515 381.812C924.392 393.841 932.752 405.606 941.587 417.384C950.41 429.147 959.712 440.932 967.414 452.948C975.118 464.967 981.254 477.267 983.731 490.094C988.78 516.206 988.242 543.623 986.191 571.032C984.136 598.477 980.573 625.841 979.537 652.022L978.471 651.976C979.508 625.784 983.081 598.286 985.128 570.945C987.177 543.567 987.705 516.273 982.686 490.315C980.248 477.695 974.199 465.536 966.529 453.569C958.856 441.598 949.595 429.867 940.748 418.072C931.911 406.292 923.494 394.453 917.565 382.32C911.634 370.181 908.177 357.711 909.3 344.672C910.792 327.359 918.189 310.916 928.808 294.979C939.425 279.042 953.29 263.574 967.757 248.212C982.235 232.84 997.31 217.581 1010.4 202.021C1023.5 186.464 1034.57 170.648 1041.05 154.191L1041.55 152.876C1051.81 125.331 1042.23 101.57 1027.01 77.917C1019.27 65.8924 1010.12 53.9623 1001.41 41.5728C992.701 29.2022 984.449 16.4044 978.577 2.72602L979.55 2.26843Z" fill="url(#paint27_linear_475_102)"/>
<path d="M906.099 2.51477C908.495 30.1905 914.967 57.9325 919.418 85.8006C923.863 113.631 926.275 141.517 920.479 169.289C914.422 198.143 900.944 226.064 888.266 253.962C875.575 281.891 863.68 309.807 860.671 338.763C855.232 391.266 862.355 443.57 872.96 495.76C883.557 547.911 897.652 600.032 906.092 651.973L905.042 652.16C896.603 600.23 882.537 548.26 871.916 495.992C861.304 443.764 854.153 391.322 859.611 338.642L859.76 337.276C863.017 308.596 874.815 280.963 887.303 253.482C900.003 225.534 913.412 197.75 919.437 169.05C925.189 141.489 922.805 113.773 918.367 85.9847C913.934 58.2337 907.437 30.3397 905.037 2.615L906.099 2.51477Z" fill="url(#paint28_linear_475_102)"/>
<path d="M832.592 2.73785C827.022 32.8881 818.451 62.9585 811.584 92.9768C804.818 122.556 799.69 152.141 800.63 181.925L800.68 183.343L800.773 185.666C801.805 209.667 805.021 233.829 807.569 258.046C810.116 282.247 811.994 306.485 810.328 330.565L810.155 332.895C807.925 361.3 795.187 389.519 783.185 417.595C771.163 445.72 759.877 473.705 760.349 501.8C760.76 527.117 774.204 552.162 789.91 577.165C805.58 602.112 823.508 627.019 832.626 651.901L832.127 652.1L831.629 652.301C822.566 627.568 804.751 602.825 789.018 577.779C773.321 552.789 759.7 527.496 759.282 501.819C758.806 473.437 770.204 445.23 782.212 417.139C794.241 388.998 806.881 360.976 809.093 332.803L809.264 330.484C810.923 306.51 809.055 282.357 806.509 258.168C803.884 233.215 800.533 208.204 799.614 183.388L799.565 181.962C798.62 152.026 803.775 122.326 810.548 92.7175C817.436 62.6093 825.98 32.6541 831.545 2.52649L832.592 2.73785Z" fill="url(#paint29_linear_475_102)"/>
<path d="M759.315 2.77379C754.356 18.3921 747.07 34.1271 739.155 49.9202C731.231 65.73 722.693 81.5727 715.181 97.4796C700.16 129.291 689.371 161.126 696.079 192.729L696.317 193.814C701.45 216.576 715.645 238.201 728.607 260.092C741.74 282.272 753.602 304.723 753.065 328.692C752.706 344.369 746.826 359.434 738.253 374.147C729.682 388.859 718.388 403.267 707.164 417.623C695.928 431.993 684.761 446.31 676.384 460.882C668.139 475.225 662.626 489.768 662.399 504.795L662.393 505.512C662.334 517.982 666.857 530.341 674.09 542.643C681.324 554.944 691.244 567.148 701.925 579.302C712.588 591.435 724.044 603.554 734.258 615.599C744.481 627.655 753.523 639.707 759.403 651.78L758.928 652.033L758.453 652.287C752.636 640.343 743.667 628.377 733.46 616.34C723.244 604.292 711.85 592.244 701.14 580.057C690.449 567.891 680.472 555.623 673.182 543.227C665.893 530.831 661.267 518.264 661.327 505.507C661.387 489.943 667.045 474.964 675.47 460.308C683.894 445.654 695.114 431.274 706.339 416.917C717.575 402.547 728.817 388.199 737.343 373.566C745.867 358.936 751.646 344.067 751.999 328.664C752.527 305.07 740.848 282.883 727.701 260.679C714.589 238.534 700.008 216.366 695.038 192.972C688.244 160.967 699.191 128.824 714.225 96.985C721.742 81.0672 730.31 65.1664 738.21 49.4027C746.119 33.6223 753.372 17.9525 758.303 2.42297L759.315 2.77379Z" fill="url(#paint30_linear_475_102)"/>
<path d="M686.173 2.77379C681.211 18.4601 673.447 34.2531 664.854 50.1011C656.247 65.9759 646.839 81.8542 638.512 97.8315C621.868 129.77 609.753 161.739 617.545 193.553C620.381 205.179 626.096 216.295 633.089 227.203C640.085 238.115 648.332 248.779 656.227 259.533C671.981 280.991 686.351 302.817 685.963 327.274C685.709 343.371 679.238 358.631 669.741 373.426C660.244 388.218 647.685 402.599 635.203 416.927C622.708 431.27 610.289 445.56 601.009 460.214C591.875 474.637 585.816 489.361 585.699 504.772L585.698 505.507C585.742 518.141 590.517 530.548 598.078 542.838C605.638 555.127 615.958 567.259 627.036 579.34C638.097 591.403 649.939 603.442 660.463 615.475C670.994 627.516 680.262 639.611 686.203 651.847L685.252 652.353C679.378 640.253 670.189 628.247 659.677 616.228C649.158 604.201 637.37 592.22 626.266 580.111C615.18 568.02 604.8 555.826 597.181 543.441C589.562 531.057 584.677 518.44 584.632 505.511C584.558 489.52 590.785 474.339 600.121 459.598C609.455 444.858 621.933 430.504 634.415 416.175C646.911 401.832 659.411 387.514 668.855 372.804C678.298 358.095 684.649 343.048 684.898 327.257C685.279 303.243 671.164 281.71 655.382 260.213C647.509 249.49 639.225 238.777 632.204 227.825C625.179 216.868 619.391 205.631 616.512 193.829C608.61 161.564 620.923 129.252 637.576 97.2977C645.899 81.3281 655.358 65.356 663.927 49.5509C672.511 33.7191 680.233 18.0024 685.161 2.42297L686.173 2.77379Z" fill="url(#paint31_linear_475_102)"/>
<path d="M612.856 2.76814C608.206 17.9508 600.811 33.2599 592.625 48.629C584.426 64.0223 575.457 79.4325 567.587 94.9289C551.854 125.911 540.701 156.899 549.313 187.615C552.648 199.522 559.191 210.824 567.149 221.879C575.11 232.938 584.454 243.704 593.387 254.573C611.208 276.253 627.425 298.356 627.036 323.574C626.782 339.892 619.813 355.162 609.544 369.858C599.277 384.551 585.667 398.729 572.067 412.852C558.453 426.99 544.848 441.073 534.52 455.621C524.354 469.941 517.405 484.654 516.73 500.243L516.702 500.986C516.307 513.731 520.664 526.43 527.825 539.109C534.986 551.789 544.925 564.406 555.64 576.983C566.337 589.539 577.838 602.087 588.032 614.542C598.234 627.007 607.188 639.448 612.83 651.86L611.867 652.34C606.287 640.063 597.407 627.712 587.222 615.268C577.028 602.813 565.586 590.334 554.844 577.725C544.12 565.138 534.124 552.454 526.908 539.677C519.692 526.9 515.232 513.988 515.636 500.95L515.664 500.192C516.354 484.285 523.44 469.357 533.664 454.955C544.05 440.327 557.717 426.182 571.316 412.06C584.929 397.923 598.474 383.809 608.683 369.2C618.891 354.592 625.721 339.547 625.97 323.557C626.351 298.823 610.439 277.029 592.578 255.3C583.671 244.464 574.286 233.648 566.297 222.55C558.306 211.449 551.678 200.022 548.291 187.929C539.55 156.752 550.902 125.409 566.646 94.406C574.515 78.9101 583.528 63.4142 591.693 48.0854C599.871 32.7321 607.224 17.5022 611.841 2.42822L612.856 2.76814Z" fill="url(#paint32_linear_475_102)"/>
<path d="M539.599 2.72497C535.481 17.0702 528.604 31.6354 520.961 46.2979C513.305 60.9827 504.9 75.7328 497.663 90.5452C483.19 120.166 473.553 149.719 484.212 178.521C488.724 190.709 496.709 202.25 506.171 213.531C515.636 224.816 526.536 235.792 536.879 246.891C547.209 257.975 556.974 269.172 564.1 280.847C571.227 292.526 575.736 304.718 575.512 317.789C575.227 334.4 567.572 349.681 556.237 364.242C544.903 378.802 529.838 392.704 514.654 406.549C499.454 420.407 484.133 434.209 472.21 448.605C460.288 463.002 451.819 477.931 450.251 494.028C448.992 506.957 452.615 520.107 459.128 533.38C465.641 546.654 475.022 560.008 485.226 573.335C495.408 586.633 506.453 599.957 516.184 613.049C525.928 626.157 534.428 639.124 539.579 651.815L538.597 652.251C533.502 639.697 525.072 626.823 515.343 613.734C505.601 600.629 494.629 587.4 484.394 574.032C474.181 560.693 464.744 547.267 458.18 533.89C451.615 520.512 447.902 507.139 449.189 493.915C450.79 477.484 459.423 462.342 471.405 447.874C483.386 433.406 498.772 419.549 513.953 405.708C529.15 391.852 544.143 378.011 555.41 363.538C566.676 349.066 574.167 334.022 574.445 317.77C574.665 304.991 570.261 293.015 563.201 281.447C556.139 269.876 546.44 258.748 536.116 247.67C525.805 236.606 514.859 225.58 505.369 214.266C495.876 202.948 487.796 191.292 483.217 178.924C472.378 149.635 482.226 119.685 496.713 90.0364C503.955 75.2146 512.4 60.3887 520.025 45.763C527.66 31.115 534.493 16.634 538.577 2.40466L539.599 2.72497Z" fill="url(#paint33_linear_475_102)"/>
<path d="M466.283 2.68023C462.684 16.2793 456.409 30.1035 449.427 44.0186C442.434 57.9551 434.748 71.9554 428.263 85.9965C415.296 114.075 407.285 142.017 419.463 169.067L419.999 170.23C425.655 182.236 434.833 193.631 445.497 204.787C456.509 216.305 469.051 227.515 480.896 238.871C492.726 250.212 503.847 261.688 511.936 273.687C520.027 285.689 525.114 298.256 524.814 311.772C524.454 328.676 516.01 343.97 503.496 358.4C490.981 372.829 474.334 386.462 457.461 400.031C440.571 413.615 423.455 427.137 409.927 441.377C396.608 455.398 386.832 470.052 384.154 486.064L384.032 486.827C382.011 500.02 384.934 513.658 390.792 527.539C396.65 541.422 405.424 555.507 415.054 569.578C424.658 583.611 435.174 597.717 444.382 611.464C453.608 625.237 461.609 638.777 466.268 651.838L465.269 652.228C460.66 639.304 452.722 625.858 443.508 612.103C434.277 598.321 423.854 584.353 414.187 570.228C404.547 556.141 395.72 541.981 389.816 527.99C383.912 513.998 380.914 500.133 382.98 486.651C385.523 469.997 395.584 454.894 409.171 440.591C422.761 426.285 439.943 412.714 456.811 399.148C473.696 385.568 490.266 371.994 502.706 357.65C515.147 343.306 523.397 328.26 523.748 311.746L523.76 310.511C523.728 297.783 518.831 285.848 511.066 274.33C503.047 262.436 492 251.028 480.177 239.694C468.37 228.375 455.776 217.116 444.743 205.575C433.707 194.031 424.179 182.152 418.499 169.543C406.099 141.999 414.316 113.631 427.303 85.5106C433.796 71.4523 441.519 57.3803 448.483 43.5C455.458 29.5983 461.688 15.8606 465.255 2.38171L466.283 2.68023Z" fill="url(#paint34_linear_475_102)"/>
<path d="M393.025 2.67147C389.767 15.7996 383.986 29.0862 377.569 42.4247C371.141 55.7836 364.088 69.1699 358.229 82.5842C346.516 109.406 339.713 136.059 352.416 162.02C358.621 174.687 369.035 186.649 381.192 198.34C393.352 210.034 407.194 221.403 420.259 232.936C433.306 244.453 445.564 256.122 454.471 268.362C463.38 280.605 468.972 293.468 468.612 307.367C468.177 324.51 459.104 339.817 445.662 354.141C432.219 368.466 414.337 381.88 396.161 395.228C377.968 408.588 359.479 421.882 344.745 435.995C330.008 450.113 319.102 464.983 315.982 481.466C313.462 494.855 315.891 508.859 321.264 523.196C326.637 537.534 334.939 552.165 344.117 566.792C348.706 574.105 353.507 581.41 358.269 588.674C363.029 595.936 367.749 603.157 372.165 610.293C380.991 624.561 388.624 638.524 392.954 651.853L391.945 652.213C387.659 639.019 380.085 625.151 371.269 610.9C366.863 603.778 362.151 596.568 357.39 589.305C352.631 582.043 347.821 574.729 343.226 567.405C334.038 552.76 325.686 538.051 320.271 523.602C314.856 509.152 312.362 494.921 314.935 481.249L315.091 480.462C318.47 463.943 329.464 449.121 344.026 435.173C358.823 420.999 377.379 407.658 395.549 394.315C413.737 380.958 431.538 367.599 444.901 353.359C458.265 339.117 467.122 324.066 467.546 307.337C467.897 293.788 462.451 281.17 453.622 269.038C444.792 256.903 432.612 245.3 419.571 233.789C406.548 222.293 392.651 210.875 380.471 199.16C368.667 187.809 358.419 176.128 352.069 163.73L351.467 162.529C338.526 136.082 345.521 109 357.26 82.1201C363.128 68.6836 370.214 55.2271 376.616 41.9224C383.027 28.5972 388.765 15.3983 391.993 2.39038L393.025 2.67147Z" fill="url(#paint35_linear_475_102)"/>
<path d="M319.647 2.67147C316.435 15.604 310.81 28.7315 304.599 41.9268C298.379 55.1408 291.582 68.4024 285.972 81.6821C274.93 107.823 268.605 133.783 280.471 158.905L281.05 160.1L281.654 161.293C288.023 173.594 298.366 185.238 310.387 196.626C322.799 208.385 336.937 219.816 350.284 231.411C363.612 242.992 376.136 254.725 385.236 267.038C394.338 279.353 400.051 292.297 399.676 306.292C399.212 323.471 389.971 338.76 376.301 353.037C362.629 367.317 344.453 380.66 325.985 393.936C307.499 407.224 288.721 420.447 273.766 434.516C259.041 448.369 248.099 462.975 244.771 479.179L244.618 479.953C242.068 493.345 244.363 507.443 249.548 521.921C254.734 536.399 262.796 551.217 271.737 566.032C276.207 573.438 280.891 580.836 285.543 588.188C290.193 595.538 294.811 602.842 299.139 610.049C307.791 624.46 315.307 638.519 319.637 651.853L318.627 652.213C314.339 639.007 306.879 625.038 298.236 610.643C293.916 603.448 289.305 596.155 284.654 588.803C280.004 581.454 275.312 574.044 270.835 566.627C261.884 551.795 253.774 536.9 248.55 522.313C243.325 507.725 240.97 493.404 243.572 479.735C246.775 462.864 258.04 447.811 273.053 433.687C288.072 419.558 306.919 406.288 325.381 393.016C343.862 379.731 361.956 366.444 375.547 352.249C389.14 338.051 398.157 323.02 398.61 306.26C398.975 292.622 393.414 279.925 384.393 267.72C375.37 255.512 362.924 243.845 349.602 232.27C336.297 220.711 322.105 209.231 309.672 197.453C297.236 185.672 286.5 173.536 280.104 160.613C267.222 134.642 273.754 107.848 284.997 81.2311C290.618 67.9249 297.446 54.5981 303.643 41.4332C309.849 28.2497 315.431 15.207 318.615 2.39038L319.647 2.67147Z" fill="url(#paint36_linear_475_102)"/>
<path d="M246.33 2.65514C243.461 15.7811 238.527 29.1786 233.112 42.6829C227.691 56.2025 221.794 69.8139 216.965 83.433C207.308 110.669 202.001 137.731 213.367 163.588C218.883 176.11 228.06 188.1 238.735 199.894C249.414 211.692 261.54 223.239 272.968 234.927C284.38 246.599 295.078 258.396 302.824 270.635C310.571 282.877 315.389 295.601 314.984 309.119C314.505 325.558 306.54 340.532 294.779 354.712C283.018 368.892 267.409 382.341 251.549 395.727C235.674 409.125 219.548 422.46 206.683 436.443C193.816 450.428 184.27 465.001 181.485 480.853C176.785 507.696 189.002 537.024 204.451 566.426C208.308 573.768 212.361 581.104 216.395 588.4C220.428 595.695 224.442 602.95 228.216 610.12C235.762 624.457 242.365 638.485 246.261 651.87L245.242 652.195C241.379 638.924 234.819 624.978 227.282 610.659C223.514 603.5 219.506 596.256 215.472 588.959C211.439 581.664 207.381 574.317 203.517 566.964C188.081 537.585 175.661 507.931 180.436 480.652C183.278 464.481 192.994 449.713 205.915 435.669C218.838 421.624 235.026 408.239 250.88 394.858C266.75 381.464 282.285 368.073 293.974 353.98C305.662 339.887 313.451 325.154 313.919 309.083C314.314 295.877 309.611 283.381 301.934 271.251C294.256 259.117 283.626 247.389 272.222 235.725C260.834 224.077 248.656 212.478 237.96 200.661C227.259 188.838 217.987 176.744 212.398 164.055C200.846 137.774 206.287 110.343 215.966 83.0451C220.805 69.3972 226.724 55.7308 232.129 42.2514C237.54 28.7568 242.444 15.4335 245.29 2.40674L246.33 2.65514Z" fill="url(#paint37_linear_475_102)"/>
<path d="M173.078 2.64957C171.058 16.3282 167.459 30.2563 163.481 44.2876C159.498 58.3313 155.141 72.4621 151.583 86.6022C144.468 114.877 140.594 143.032 149.367 170.1V170.102C153.327 182.343 159.929 194.27 167.607 206.086C175.29 217.91 184.016 229.575 192.237 241.342C208.641 264.821 223.016 288.67 222.359 314.364C221.97 329.664 216.241 344.099 207.791 358.059C199.342 372.016 188.146 385.54 176.786 399.012C165.414 412.498 153.878 425.93 144.692 439.744C135.795 453.125 129.132 466.823 126.962 481.215L126.766 482.61C123.204 509.915 131.931 538.545 143.004 567.243C154.058 595.888 167.463 624.624 173.073 651.95L172.551 652.066L172.03 652.184C166.447 624.984 153.112 596.418 142.015 567.661C130.939 538.957 122.106 510.083 125.709 482.46C127.68 467.308 134.587 452.988 143.818 439.107C153.047 425.227 164.63 411.74 175.986 398.274C187.353 384.794 198.492 371.333 206.889 357.462C215.284 343.593 220.911 329.357 221.293 314.333C221.939 289.066 207.798 265.504 191.377 242C183.185 230.276 174.42 218.556 166.725 206.714C159.266 195.234 152.779 183.591 148.74 171.618L148.356 170.459C139.48 143.069 143.424 114.646 150.552 86.3178C154.116 72.1564 158.487 57.9791 162.459 43.9705C166.435 29.9496 170.016 16.0806 172.024 2.47961L173.078 2.64957Z" fill="url(#paint38_linear_475_102)"/>
<path d="M99.8216 2.60624C97.7766 31.5757 91.9646 60.9182 87.892 90.1443C83.8151 119.401 81.4712 148.594 86.3124 177.415C90.3563 201.422 100.775 224.834 110.132 248.429C119.475 271.988 127.751 295.714 127.364 320.211C126.917 348.595 114.566 375.692 101.924 402.641C89.2587 429.638 76.3025 456.485 74.4162 484.526C72.5566 512.205 77.4847 540.164 83.6052 568.169C89.7202 596.148 97.0327 624.197 99.8799 651.94L99.3499 651.999L98.8199 652.059C95.9816 624.402 88.695 596.462 82.566 568.418C76.4426 540.4 71.4816 512.303 73.3531 484.447L73.4499 483.121C75.6649 455.299 88.5264 428.667 100.967 402.148C113.628 375.16 125.855 348.286 126.297 320.193C126.68 295.95 118.491 272.415 109.148 248.856C99.8196 225.334 89.3317 201.771 85.2618 177.609C80.3904 148.608 82.7549 119.272 86.8362 89.9831C90.9218 60.6637 96.717 31.4436 98.7585 2.52344L99.8216 2.60624Z" fill="url(#paint39_linear_475_102)"/>
<path d="M26.5646 2.60595C23.5442 219.463 22.0627 435.306 26.5635 652.054L25.4983 652.078C20.9971 435.31 22.4779 219.452 25.4983 2.5907L26.5646 2.60595Z" fill="url(#paint40_linear_475_102)"/>
</g>
</mask>
<g mask="url(#mask0_475_102)">
<path d="M-17.5 2.24292C70.4267 1.4051 158.629 3.08074 246.556 2.24292L313.101 40.2429H841.025L857.051 20.2644H1281.92V6.43237H1442.5V550.243H1442.52C1442.51 550.889 1442.51 551.535 1442.5 552.18V555.243H1442.48C1442.31 576.028 1442.13 596.813 1441.97 617.597C1431.9 617.5 1421.81 617.42 1411.72 617.323C1407.72 612.461 1403.8 608.105 1399.8 603.243H1177.34C1177.24 617.893 1176.86 632.07 1176.77 646.736C1108.9 647.011 1041.02 647.285 973.154 647.559C960.616 639.726 948.077 631.892 935.538 624.058C857.439 624.204 779.357 624.333 701.258 624.478C697.367 619.536 693.491 614.577 689.6 609.635C642.471 609.909 595.327 610.183 548.198 610.458C539.759 605.241 531.32 600.008 522.881 594.791H350.029L309.146 663.243H2.5V41.032C-4.16649 41.0311 -10.8335 41.03 -17.5 41.0291C-17.419 28.9381 -17.5811 14.3502 -17.5 2.24292Z" fill="#1C0951"/>
</g>
<g style="mix-blend-mode:screen">
<path d="M58.9511 605.243H79.1421L54.4881 652.243H34.3094L58.9511 605.243Z" fill="#05C174"/>
<path d="M84.0937 605.243H104.272L79.6307 652.243H59.44L84.0937 605.243Z" fill="#05C174"/>
<path d="M109.225 605.243H129.416L104.762 652.243H84.5714L109.225 605.243Z" fill="#05C174"/>
<path d="M134.356 605.243H154.546L129.904 652.243H109.714L134.356 605.243Z" fill="#05C174"/>
<path d="M159.498 605.243H179.689L155.035 652.243H134.845L159.498 605.243Z" fill="#05C174"/>
<path d="M184.63 605.243H204.82L180.179 652.243H159.988L184.63 605.243Z" fill="#05C174"/>
<path d="M209.773 605.243H229.964L205.31 652.243H185.119L209.773 605.243Z" fill="#05C174"/>
<path d="M234.904 605.243H255.095L230.441 652.243H210.263L234.904 605.243Z" fill="#05C174"/>
<path d="M260.046 605.243H280.237L255.583 652.243H235.393L260.046 605.243Z" fill="#05C174"/>
<path d="M285.178 605.243H305.369L280.715 652.243H260.525L285.178 605.243Z" fill="#05C174"/>
<path d="M310.321 605.243H330.5L305.858 652.243H285.667L310.321 605.243Z" fill="#05C174"/>
</g>
<path d="M29.1895 652.243L52.459 605.243H9.49986V652.243H29.1895Z" fill="#05C174"/>
<path d="M1039.49 599.891H1027.33V639.243H1039.49V599.891Z" fill="#05C174"/>
<path d="M1089.07 599.891H1076.91V639.243H1089.07V599.891Z" fill="#05C174"/>
<path d="M1022.65 599.891H1010.49V639.243H1022.65V599.891Z" fill="#05C174"/>
<path d="M1121.81 599.891H1109.65V639.243H1121.81V599.891Z" fill="#05C174"/>
<path d="M1072.23 599.891H1060.07V639.243H1072.23V599.891Z" fill="#05C174"/>
<path d="M1005.81 599.891H993.654V639.243H1005.81V599.891Z" fill="#05C174"/>
<path d="M1104.97 599.891H1092.81V639.243H1104.97V599.891Z" fill="#05C174"/>
<path d="M1055.39 599.891H1043.23V639.243H1055.39V599.891Z" fill="#05C174"/>
<path d="M989.474 634.744V604.515C981.649 609.519 973.824 614.522 965.999 619.534C973.824 624.601 981.649 629.677 989.474 634.744Z" fill="#05C174"/>
<path d="M975.456 600.008H989.475L958.974 619.63L989.475 639.243H975.456L944.955 619.63L975.456 600.008Z" fill="#05C174"/>
<mask id="mask1_475_102" style="mask-type:luminance" maskUnits="userSpaceOnUse" x="1126" y="599" width="46" height="40">
<path d="M1171.38 599.243H1126.69V638.183H1171.38V599.243Z" fill="white"/>
</mask>
<g mask="url(#mask1_475_102)">
<path d="M1162.43 565.398L1154.95 571.915L1201.48 612.461L1208.96 605.944L1162.43 565.398Z" fill="#05C174"/>
<path d="M1151.26 575.139L1143.78 581.656L1190.32 622.203L1197.8 615.686L1151.26 575.139Z" fill="#05C174"/>
<path d="M1140.09 584.862L1132.61 591.379L1179.14 631.926L1186.62 625.409L1140.09 584.862Z" fill="#05C174"/>
<path d="M1128.91 594.604L1121.43 601.121L1167.96 641.667L1175.44 635.15L1128.91 594.604Z" fill="#05C174"/>
<path d="M1117.75 604.34L1110.27 610.857L1156.8 651.404L1164.28 644.887L1117.75 604.34Z" fill="#05C174"/>
<path d="M1106.56 614.076L1099.08 620.593L1145.62 661.14L1153.1 654.623L1106.56 614.076Z" fill="#05C174"/>
</g>
<defs>
<linearGradient id="paint0_linear_475_102" x1="719.158" y1="588.516" x2="719.158" y2="170.558" gradientUnits="userSpaceOnUse">
<stop stop-color="#1C0951"/>
<stop offset="1" stop-color="#3305C1"/>
</linearGradient>
<linearGradient id="paint1_linear_475_102" x1="719.132" y1="621.504" x2="719.132" y2="620.768" gradientUnits="userSpaceOnUse">
<stop stop-color="#1C0951"/>
<stop offset="1" stop-color="#3305C1"/>
</linearGradient>
<linearGradient id="paint2_linear_475_102" x1="719.16" y1="590.482" x2="719.16" y2="589.281" gradientUnits="userSpaceOnUse">
<stop stop-color="#1C0951"/>
<stop offset="1" stop-color="#3305C1"/>
</linearGradient>
<linearGradient id="paint3_linear_475_102" x1="719.13" y1="569.018" x2="719.13" y2="558.418" gradientUnits="userSpaceOnUse">
<stop stop-color="#1C0951"/>
<stop offset="1" stop-color="#3305C1"/>
</linearGradient>
<linearGradient id="paint4_linear_475_102" x1="719.129" y1="541.762" x2="719.129" y2="527.358" gradientUnits="userSpaceOnUse">
<stop stop-color="#1C0951"/>
<stop offset="1" stop-color="#3305C1"/>
</linearGradient>
<linearGradient id="paint5_linear_475_102" x1="719.129" y1="512.873" x2="719.129" y2="496.268" gradientUnits="userSpaceOnUse">
<stop stop-color="#1C0951"/>
<stop offset="1" stop-color="#3305C1"/>
</linearGradient>
<linearGradient id="paint6_linear_475_102" x1="719.099" y1="481.023" x2="719.099" y2="464.442" gradientUnits="userSpaceOnUse">
<stop stop-color="#1C0951"/>
<stop offset="1" stop-color="#3305C1"/>
</linearGradient>
<linearGradient id="paint7_linear_475_102" x1="719.158" y1="446.7" x2="719.158" y2="430.466" gradientUnits="userSpaceOnUse">
<stop stop-color="#1C0951"/>
<stop offset="1" stop-color="#3305C1"/>
</linearGradient>
<linearGradient id="paint8_linear_475_102" x1="719.16" y1="412.143" x2="719.16" y2="395.664" gradientUnits="userSpaceOnUse">
<stop stop-color="#1C0951"/>
<stop offset="1" stop-color="#3305C1"/>
</linearGradient>
<linearGradient id="paint9_linear_475_102" x1="719.162" y1="388.393" x2="719.162" y2="364.027" gradientUnits="userSpaceOnUse">
<stop stop-color="#1C0951"/>
<stop offset="1" stop-color="#3305C1"/>
</linearGradient>
<linearGradient id="paint10_linear_475_102" x1="719.162" y1="361.978" x2="719.162" y2="332.628" gradientUnits="userSpaceOnUse">
<stop stop-color="#1C0951"/>
<stop offset="1" stop-color="#3305C1"/>
</linearGradient>
<linearGradient id="paint11_linear_475_102" x1="719.104" y1="329.677" x2="719.104" y2="300.926" gradientUnits="userSpaceOnUse">
<stop stop-color="#1C0951"/>
<stop offset="1" stop-color="#3305C1"/>
</linearGradient>
<linearGradient id="paint12_linear_475_102" x1="719.1" y1="283.575" x2="719.1" y2="265.078" gradientUnits="userSpaceOnUse">
<stop stop-color="#1C0951"/>
<stop offset="1" stop-color="#3305C1"/>
</linearGradient>
<linearGradient id="paint13_linear_475_102" x1="719.156" y1="250.438" x2="719.156" y2="232.781" gradientUnits="userSpaceOnUse">
<stop stop-color="#1C0951"/>
<stop offset="1" stop-color="#3305C1"/>
</linearGradient>
<linearGradient id="paint14_linear_475_102" x1="719.195" y1="220.06" x2="719.195" y2="197.015" gradientUnits="userSpaceOnUse">
<stop stop-color="#1C0951"/>
<stop offset="1" stop-color="#3305C1"/>
</linearGradient>
<linearGradient id="paint15_linear_475_102" x1="719.186" y1="188.291" x2="719.186" y2="154.943" gradientUnits="userSpaceOnUse">
<stop stop-color="#1C0951"/>
<stop offset="1" stop-color="#3305C1"/>
</linearGradient>
<linearGradient id="paint16_linear_475_102" x1="719.15" y1="157.244" x2="719.15" y2="120.767" gradientUnits="userSpaceOnUse">
<stop stop-color="#1C0951"/>
<stop offset="1" stop-color="#3305C1"/>
</linearGradient>
<linearGradient id="paint17_linear_475_102" x1="719.214" y1="126.231" x2="719.214" y2="94.7235" gradientUnits="userSpaceOnUse">
<stop stop-color="#1C0951"/>
<stop offset="1" stop-color="#3305C1"/>
</linearGradient>
<linearGradient id="paint18_linear_475_102" x1="719.138" y1="95.4623" x2="719.138" y2="72.5073" gradientUnits="userSpaceOnUse">
<stop stop-color="#1C0951"/>
<stop offset="1" stop-color="#3305C1"/>
</linearGradient>
<linearGradient id="paint19_linear_475_102" x1="719.164" y1="64.7976" x2="719.164" y2="51.5789" gradientUnits="userSpaceOnUse">
<stop stop-color="#1C0951"/>
<stop offset="1" stop-color="#3305C1"/>
</linearGradient>
<linearGradient id="paint20_linear_475_102" x1="719.102" y1="33.8126" x2="719.102" y2="32.729" gradientUnits="userSpaceOnUse">
<stop stop-color="#1C0951"/>
<stop offset="1" stop-color="#3305C1"/>
</linearGradient>
<linearGradient id="paint21_linear_475_102" x1="1420.64" y1="558.435" x2="1420.64" y2="162.16" gradientUnits="userSpaceOnUse">
<stop stop-color="#1C0951"/>
<stop offset="1" stop-color="#3305C1"/>
</linearGradient>
<linearGradient id="paint22_linear_475_102" x1="1349.29" y1="558.474" x2="1349.29" y2="162.108" gradientUnits="userSpaceOnUse">
<stop stop-color="#1C0951"/>
<stop offset="1" stop-color="#3305C1"/>
</linearGradient>
<linearGradient id="paint23_linear_475_102" x1="1279.08" y1="558.449" x2="1279.08" y2="161.971" gradientUnits="userSpaceOnUse">
<stop stop-color="#1C0951"/>
<stop offset="1" stop-color="#3305C1"/>
</linearGradient>
<linearGradient id="paint24_linear_475_102" x1="1208.69" y1="558.511" x2="1208.69" y2="162.037" gradientUnits="userSpaceOnUse">
<stop stop-color="#1C0951"/>
<stop offset="1" stop-color="#3305C1"/>
</linearGradient>
<linearGradient id="paint25_linear_475_102" x1="1136.97" y1="558.524" x2="1136.97" y2="162.06" gradientUnits="userSpaceOnUse">
<stop stop-color="#1C0951"/>
<stop offset="1" stop-color="#3305C1"/>
</linearGradient>
<linearGradient id="paint26_linear_475_102" x1="1060.98" y1="558.48" x2="1060.98" y2="162.013" gradientUnits="userSpaceOnUse">
<stop stop-color="#1C0951"/>
<stop offset="1" stop-color="#3305C1"/>
</linearGradient>
<linearGradient id="paint27_linear_475_102" x1="977.701" y1="558.375" x2="977.7" y2="161.922" gradientUnits="userSpaceOnUse">
<stop stop-color="#1C0951"/>
<stop offset="1" stop-color="#3305C1"/>
</linearGradient>
<linearGradient id="paint28_linear_475_102" x1="890.677" y1="558.529" x2="890.677" y2="162.142" gradientUnits="userSpaceOnUse">
<stop stop-color="#1C0951"/>
<stop offset="1" stop-color="#3305C1"/>
</linearGradient>
<linearGradient id="paint29_linear_475_102" x1="795.795" y1="558.651" x2="795.794" y2="162.185" gradientUnits="userSpaceOnUse">
<stop stop-color="#1C0951"/>
<stop offset="1" stop-color="#3305C1"/>
</linearGradient>
<linearGradient id="paint30_linear_475_102" x1="710.161" y1="558.624" x2="710.161" y2="162.104" gradientUnits="userSpaceOnUse">
<stop stop-color="#1C0951"/>
<stop offset="1" stop-color="#3305C1"/>
</linearGradient>
<linearGradient id="paint31_linear_475_102" x1="635.206" y1="558.68" x2="635.206" y2="162.12" gradientUnits="userSpaceOnUse">
<stop stop-color="#1C0951"/>
<stop offset="1" stop-color="#3305C1"/>
</linearGradient>
<linearGradient id="paint32_linear_475_102" x1="571.096" y1="558.67" x2="571.095" y2="162.121" gradientUnits="userSpaceOnUse">
<stop stop-color="#1C0951"/>
<stop offset="1" stop-color="#3305C1"/>
</linearGradient>
<linearGradient id="paint33_linear_475_102" x1="511.965" y1="558.59" x2="511.965" y2="162.081" gradientUnits="userSpaceOnUse">
<stop stop-color="#1C0951"/>
<stop offset="1" stop-color="#3305C1"/>
</linearGradient>
<linearGradient id="paint34_linear_475_102" x1="453.282" y1="558.567" x2="453.281" y2="162.058" gradientUnits="userSpaceOnUse">
<stop stop-color="#1C0951"/>
<stop offset="1" stop-color="#3305C1"/>
</linearGradient>
<linearGradient id="paint35_linear_475_102" x1="390.952" y1="558.556" x2="390.951" y2="162.061" gradientUnits="userSpaceOnUse">
<stop stop-color="#1C0951"/>
<stop offset="1" stop-color="#3305C1"/>
</linearGradient>
<linearGradient id="paint36_linear_475_102" x1="320.774" y1="558.556" x2="320.773" y2="162.061" gradientUnits="userSpaceOnUse">
<stop stop-color="#1C0951"/>
<stop offset="1" stop-color="#3305C1"/>
</linearGradient>
<linearGradient id="paint37_linear_475_102" x1="246.922" y1="558.543" x2="246.922" y2="162.069" gradientUnits="userSpaceOnUse">
<stop stop-color="#1C0951"/>
<stop offset="1" stop-color="#3305C1"/>
</linearGradient>
<linearGradient id="paint38_linear_475_102" x1="173.434" y1="558.544" x2="173.434" y2="162.121" gradientUnits="userSpaceOnUse">
<stop stop-color="#1C0951"/>
<stop offset="1" stop-color="#3305C1"/>
</linearGradient>
<linearGradient id="paint39_linear_475_102" x1="100.052" y1="558.444" x2="100.051" y2="162.124" gradientUnits="userSpaceOnUse">
<stop stop-color="#1C0951"/>
<stop offset="1" stop-color="#3305C1"/>
</linearGradient>
<linearGradient id="paint40_linear_475_102" x1="24.5996" y1="558.47" x2="24.5938" y2="162.179" gradientUnits="userSpaceOnUse">
<stop stop-color="#1C0951"/>
<stop offset="1" stop-color="#3305C1"/>
</linearGradient>
</defs>
</svg>
