<svg width="88" height="47" viewBox="0 0 88 47" fill="none" xmlns="http://www.w3.org/2000/svg">
<path d="M43.9551 1C69.99 1.00022 84.2816 19.885 86.707 23.4033C84.2831 26.9197 69.9919 45.8074 43.9551 45.8076C17.9168 45.8076 3.62417 26.9185 1.20117 23.4033C3.62568 19.8862 17.9187 1 43.9551 1Z" stroke="#05C174" stroke-width="2" stroke-miterlimit="10"/>
<path d="M44.0866 43.4083C55.1801 43.4083 64.1732 34.4519 64.1732 23.4037C64.1732 12.3555 55.1801 3.39929 44.0866 3.39929C32.993 3.39929 24 12.3555 24 23.4037C24 34.4519 32.993 43.4083 44.0866 43.4083Z" stroke="#05C174" stroke-width="3" stroke-miterlimit="10"/>
<path d="M44 35.8527C50.6274 35.8527 56 30.2791 56 23.4038C56 16.5285 50.6274 10.955 44 10.955C37.3726 10.955 32 16.5285 32 23.4038C32 30.2791 37.3726 35.8527 44 35.8527Z" fill="#05C174"/>
</svg>
