<svg width="540" height="426" viewBox="0 0 540 426" fill="none" xmlns="http://www.w3.org/2000/svg">
<g clip-path="url(#clip0_492_103)">
<path d="M538.924 41.4774C538.924 128.666 538.924 215.867 538.924 303.056C488.116 303.056 437.295 303.033 386.487 303.033C380.496 309.733 374.49 316.444 368.499 323.144L68.9945 323.144C46.3458 309.162 23.7112 295.181 1.0625 281.199C1.62907 198.769 2.18148 116.328 2.74805 33.8987H20.156C24.3203 33.9329 28.4704 33.9672 32.6347 34.0014C32.6631 31.1366 32.6772 28.2603 32.6772 25.3726C32.7056 17.851 32.6772 10.3751 32.6064 2.94478C181.572 2.60237 314.108 2.12302 463.088 1.79202C488.371 15.0205 513.64 28.2489 538.924 41.4774Z" stroke="#05C174" stroke-width="3" stroke-miterlimit="10"/>
<path d="M50.3118 323.144H1.0625L1.0625 292.784L50.3118 323.144Z" stroke="#05C174" stroke-width="3" stroke-miterlimit="10"/>
<path d="M538.923 28.8766V1.79196L485.779 0.924507L538.923 28.8766Z" stroke="#05C174" stroke-width="3" stroke-miterlimit="10"/>
<path d="M538.725 310.361C538.796 314.618 538.853 318.887 538.923 323.144H382.379C385.892 318.978 389.419 314.812 392.932 310.646C441.53 310.543 490.127 310.452 538.739 310.349L538.725 310.361Z" stroke="#05C174" stroke-width="2" stroke-miterlimit="10"/>
<path d="M527.521 313.009V320.633H534.108V313.009H527.521Z" fill="#05C174" stroke="#05C174" stroke-width="1.5" stroke-miterlimit="10"/>
<path d="M515.34 312.963V320.587H521.926V312.963H515.34Z" fill="#05C174" stroke="#05C174" stroke-width="1.5" stroke-miterlimit="10"/>
<path d="M503.159 312.963V320.587H509.745V312.963H503.159Z" fill="#05C174" stroke="#05C174" stroke-width="1.5" stroke-miterlimit="10"/>
<path d="M490.978 312.963V320.587H497.564V312.963H490.978Z" fill="#05C174" stroke="#05C174" stroke-width="1.5" stroke-miterlimit="10"/>
<path d="M478.796 312.963V320.587H485.382V312.963H478.796Z" fill="#05C174" stroke="#05C174" stroke-width="1.5" stroke-miterlimit="10"/>
<path d="M466.615 312.963V320.587H473.201V312.963H466.615Z" fill="#05C174" stroke="#05C174" stroke-width="1.5" stroke-miterlimit="10"/>
<path d="M454.434 312.963V320.587H461.02V312.963H454.434Z" fill="#05C174" stroke="#05C174" stroke-width="1.5" stroke-miterlimit="10"/>
<path d="M495 254.56V237.64L535 258.3V275.21L495 254.56Z" fill="#05B0C1"/>
<path d="M495 233.49V216.58L535 237.23V254.15L495 233.49Z" fill="#05B0C1"/>
<path d="M495 212.43V195.51L535 216.17V233.09L495 212.43Z" fill="#05B0C1"/>
<path d="M495 191.37V174.45L535 195.1V212.02L495 191.37Z" fill="#05B0C1"/>
<path d="M495 170.3V153.38L535 174.04V190.96L495 170.3Z" fill="#05B0C1"/>
<path d="M495 149.24V132.32L535 152.97V169.89L495 149.24Z" fill="#05B0C1"/>
<path d="M495 128.17V111.25L535 131.91V148.83L495 128.17Z" fill="#05B0C1"/>
<path d="M495 107.11V90.1899L535 110.85V127.76L495 107.11Z" fill="#05B0C1"/>
<path d="M495 86.04V69.1199L535 89.78V106.7L495 86.04Z" fill="#05B0C1"/>
<path d="M495 64.98V48.0601L535 68.72V85.6399L495 64.98Z" fill="#05B0C1"/>
<path d="M495 43.9099V27L535 47.6499V64.5701L495 43.9099Z" fill="#05B0C1"/>
<path d="M535 279.5L495 260V296H535V279.5Z" fill="#05B0C1"/>
</g>
<g clip-path="url(#clip1_492_103)">
<path d="M538.599 341.342H2.41064V392.667H538.599V341.342Z" stroke="url(#paint0_linear_492_103)" stroke-width="2.8" stroke-miterlimit="10"/>
<path d="M384.674 348.869H348.354V384.795H384.674V348.869Z" fill="url(#paint1_linear_492_103)"/>
<path d="M342.419 348.869H306.099V384.795H342.419V348.869Z" fill="url(#paint2_linear_492_103)"/>
<path d="M300.163 348.869H263.844V384.795H300.163V348.869Z" fill="url(#paint3_linear_492_103)"/>
<path d="M257.908 348.869H221.588V384.795H257.908V348.869Z" fill="url(#paint4_linear_492_103)"/>
<path d="M215.663 348.869H179.343V384.795H215.663V348.869Z" fill="url(#paint5_linear_492_103)"/>
<path d="M173.408 348.869H137.088V384.795H173.408V348.869Z" fill="url(#paint6_linear_492_103)"/>
<path d="M131.152 348.869H94.8325V384.795H131.152V348.869Z" fill="url(#paint7_linear_492_103)"/>
<path d="M88.8968 348.869H52.5771V384.795H88.8968V348.869Z" fill="url(#paint8_linear_492_103)"/>
<path d="M46.6414 348.869H10.3218V384.795H46.6414V348.869Z" fill="url(#paint9_linear_492_103)"/>
</g>
<path d="M487.234 404.625C487.411 404.948 487.5 405.292 487.5 405.656C487.5 406.01 487.411 406.349 487.234 406.672L475.969 426H471.266L481.922 407.656H468.766V403.594H485.469C485.833 403.594 486.172 403.688 486.484 403.875C486.807 404.052 487.057 404.302 487.234 404.625ZM510.828 420.297C510.828 420.682 510.781 421.089 510.688 421.516C510.604 421.943 510.464 422.37 510.266 422.797C510.078 423.214 509.833 423.615 509.531 424C509.24 424.385 508.88 424.729 508.453 425.031C508.036 425.323 507.552 425.557 507 425.734C506.448 425.911 505.828 426 505.141 426H490.25V421.938H505.141C505.651 421.938 506.042 421.781 506.312 421.469C506.594 421.156 506.734 420.766 506.734 420.297V418.484C506.734 417.953 506.599 417.547 506.328 417.266C506.057 416.984 505.651 416.844 505.109 416.844H495.953C494.901 416.844 494.01 416.656 493.281 416.281C492.562 415.896 491.979 415.417 491.531 414.844C491.083 414.271 490.755 413.651 490.547 412.984C490.349 412.318 490.25 411.698 490.25 411.125V403.594H508.969V407.656H494.312V411.125C494.312 411.667 494.453 412.073 494.734 412.344C495.016 412.615 495.422 412.75 495.953 412.75H505.141C505.703 412.75 506.318 412.854 506.984 413.062C507.651 413.26 508.266 413.589 508.828 414.047C509.401 414.495 509.875 415.083 510.25 415.812C510.635 416.542 510.828 417.432 510.828 418.484V420.297ZM538.766 420.297C538.766 421.026 538.625 421.714 538.344 422.359C538.073 422.995 537.698 423.552 537.219 424.031C536.74 424.51 536.177 424.891 535.531 425.172C534.896 425.443 534.214 425.578 533.484 425.578C532.745 425.578 532.052 425.443 531.406 425.172C530.771 424.891 530.208 424.51 529.719 424.031C529.24 423.552 528.859 422.995 528.578 422.359C528.307 421.714 528.172 421.026 528.172 420.297C528.172 419.568 528.307 418.885 528.578 418.25C528.859 417.604 529.24 417.042 529.719 416.562C530.208 416.073 530.771 415.688 531.406 415.406C532.052 415.125 532.745 414.984 533.484 414.984C534.214 414.984 534.896 415.125 535.531 415.406C536.177 415.688 536.74 416.073 537.219 416.562C537.698 417.042 538.073 417.604 538.344 418.25C538.625 418.885 538.766 419.568 538.766 420.297ZM533.641 405.641L522.125 425.812H518.375L529.906 405.641H533.641ZM524.109 411.125C524.109 411.865 523.969 412.557 523.688 413.203C523.417 413.839 523.036 414.401 522.547 414.891C522.068 415.37 521.505 415.75 520.859 416.031C520.214 416.302 519.526 416.438 518.797 416.438C518.068 416.438 517.38 416.302 516.734 416.031C516.099 415.75 515.542 415.37 515.062 414.891C514.583 414.401 514.203 413.839 513.922 413.203C513.651 412.557 513.516 411.865 513.516 411.125C513.516 410.396 513.651 409.714 513.922 409.078C514.203 408.432 514.583 407.87 515.062 407.391C515.542 406.911 516.099 406.536 516.734 406.266C517.38 405.984 518.068 405.844 518.797 405.844C519.526 405.844 520.214 405.984 520.859 406.266C521.505 406.536 522.068 406.911 522.547 407.391C523.036 407.87 523.417 408.432 523.688 409.078C523.969 409.714 524.109 410.396 524.109 411.125ZM535.5 420.297C535.5 420.016 535.448 419.755 535.344 419.516C535.24 419.266 535.094 419.047 534.906 418.859C534.729 418.672 534.516 418.526 534.266 418.422C534.026 418.307 533.766 418.25 533.484 418.25C533.203 418.25 532.938 418.307 532.688 418.422C532.438 418.526 532.219 418.672 532.031 418.859C531.854 419.047 531.708 419.266 531.594 419.516C531.49 419.755 531.438 420.016 531.438 420.297C531.438 420.578 531.49 420.844 531.594 421.094C531.708 421.333 531.854 421.547 532.031 421.734C532.219 421.911 532.438 422.052 532.688 422.156C532.938 422.26 533.203 422.312 533.484 422.312C533.766 422.312 534.026 422.26 534.266 422.156C534.516 422.052 534.729 421.911 534.906 421.734C535.094 421.547 535.24 421.333 535.344 421.094C535.448 420.844 535.5 420.578 535.5 420.297ZM520.844 411.125C520.844 410.844 520.792 410.583 520.688 410.344C520.583 410.094 520.438 409.88 520.25 409.703C520.073 409.516 519.859 409.37 519.609 409.266C519.359 409.161 519.089 409.109 518.797 409.109C518.516 409.109 518.25 409.161 518 409.266C517.76 409.37 517.547 409.516 517.359 409.703C517.182 409.88 517.042 410.094 516.938 410.344C516.833 410.583 516.781 410.844 516.781 411.125C516.781 411.406 516.833 411.672 516.938 411.922C517.042 412.172 517.182 412.391 517.359 412.578C517.547 412.766 517.76 412.911 518 413.016C518.25 413.12 518.516 413.172 518.797 413.172C519.089 413.172 519.359 413.12 519.609 413.016C519.859 412.911 520.073 412.766 520.25 412.578C520.438 412.391 520.583 412.172 520.688 411.922C520.792 411.672 520.844 411.406 520.844 411.125Z" fill="#05C174"/>
<g filter="url(#filter0_d_492_103)">
<path d="M76.8906 39.4064C76.8906 40.2085 76.7865 40.9324 76.5781 41.5782C76.3802 42.2137 76.1146 42.7762 75.7812 43.2657C75.4479 43.7553 75.0573 44.172 74.6094 44.5157C74.1615 44.8595 73.6979 45.1407 73.2188 45.3595C72.7396 45.5782 72.25 45.7397 71.75 45.8439C71.2604 45.948 70.7969 46.0001 70.3594 46.0001H54.6875V41.9376H70.3594C71.1406 41.9376 71.7448 41.7085 72.1719 41.2501C72.6094 40.7918 72.8281 40.1772 72.8281 39.4064C72.8281 39.0314 72.7708 38.6876 72.6562 38.3751C72.5417 38.0626 72.375 37.7918 72.1562 37.5626C71.9479 37.3335 71.6875 37.1564 71.375 37.0314C71.0729 36.9064 70.7344 36.8439 70.3594 36.8439H61.0156C60.3594 36.8439 59.651 36.7293 58.8906 36.5001C58.1302 36.2605 57.4219 35.8803 56.7656 35.3595C56.1198 34.8387 55.5781 34.1564 55.1406 33.3126C54.7135 32.4689 54.5 31.4376 54.5 30.2189C54.5 29.0001 54.7135 27.9741 55.1406 27.1407C55.5781 26.297 56.1198 25.6147 56.7656 25.0939C57.4219 24.5626 58.1302 24.1824 58.8906 23.9532C59.651 23.7137 60.3594 23.5939 61.0156 23.5939H74.8438V27.6564H61.0156C60.2448 27.6564 59.6406 27.8907 59.2031 28.3595C58.776 28.8282 58.5625 29.448 58.5625 30.2189C58.5625 31.0001 58.776 31.6199 59.2031 32.0782C59.6406 32.5262 60.2448 32.7501 61.0156 32.7501H70.3594H70.3906C70.8281 32.7605 71.2917 32.823 71.7812 32.9376C72.2708 33.0418 72.7552 33.2085 73.2344 33.4376C73.724 33.6668 74.1875 33.9585 74.625 34.3126C75.0625 34.6564 75.4479 35.073 75.7812 35.5626C76.125 36.0522 76.3958 36.6147 76.5938 37.2501C76.7917 37.8855 76.8906 38.6043 76.8906 39.4064ZM84.3594 32.7501H98.625V23.5939H102.688V46.0001H98.625V36.8439H84.3594V46.0001H80.2969V23.5939H84.3594V32.7501ZM130.969 36.9376C130.969 38.3022 130.734 39.5574 130.266 40.7032C129.797 41.8491 129.146 42.8387 128.312 43.672C127.479 44.5053 126.49 45.1564 125.344 45.6251C124.208 46.0835 122.969 46.3126 121.625 46.3126H116.125C114.781 46.3126 113.536 46.0835 112.391 45.6251C111.245 45.1564 110.255 44.5053 109.422 43.672C108.589 42.8387 107.932 41.8491 107.453 40.7032C106.984 39.5574 106.75 38.3022 106.75 36.9376V32.6564C106.75 31.3022 106.984 30.0522 107.453 28.9064C107.932 27.7501 108.589 26.7605 109.422 25.9376C110.255 25.1043 111.245 24.4532 112.391 23.9845C113.536 23.5157 114.781 23.2814 116.125 23.2814H121.625C122.969 23.2814 124.208 23.5157 125.344 23.9845C126.49 24.4532 127.479 25.1043 128.312 25.9376C129.146 26.7605 129.797 27.7501 130.266 28.9064C130.734 30.0522 130.969 31.3022 130.969 32.6564V36.9376ZM126.906 32.6564C126.906 31.8543 126.776 31.1303 126.516 30.4845C126.266 29.8282 125.906 29.271 125.438 28.8126C124.979 28.3439 124.422 27.9845 123.766 27.7345C123.12 27.4741 122.406 27.3439 121.625 27.3439H116.125C115.333 27.3439 114.609 27.4741 113.953 27.7345C113.307 27.9845 112.75 28.3439 112.281 28.8126C111.812 29.271 111.448 29.8282 111.188 30.4845C110.938 31.1303 110.812 31.8543 110.812 32.6564V36.9376C110.812 37.7397 110.938 38.4689 111.188 39.1251C111.448 39.771 111.812 40.3282 112.281 40.797C112.75 41.2553 113.307 41.6147 113.953 41.8751C114.609 42.1251 115.333 42.2501 116.125 42.2501H121.594C122.385 42.2501 123.104 42.1251 123.75 41.8751C124.406 41.6147 124.969 41.2553 125.438 40.797C125.906 40.3282 126.266 39.771 126.516 39.1251C126.776 38.4689 126.906 37.7397 126.906 36.9376V32.6564ZM157.375 31.1251C157.375 32.0522 157.26 32.8803 157.031 33.6095C156.802 34.3387 156.49 34.9845 156.094 35.547C155.708 36.0991 155.26 36.573 154.75 36.9689C154.24 37.3647 153.703 37.6928 153.141 37.9532C152.589 38.2032 152.026 38.3855 151.453 38.5001C150.891 38.6147 150.359 38.672 149.859 38.672L158.344 46.0001H152.062L143.594 38.672H140.672V34.6095H149.859C150.37 34.5678 150.833 34.4637 151.25 34.297C151.677 34.1199 152.042 33.8855 152.344 33.5939C152.656 33.3022 152.896 32.9532 153.062 32.547C153.229 32.1303 153.312 31.6564 153.312 31.1251V28.5626C153.312 28.3335 153.281 28.1616 153.219 28.047C153.167 27.922 153.094 27.8335 153 27.7814C152.917 27.7189 152.823 27.6824 152.719 27.672C152.625 27.6616 152.536 27.6564 152.453 27.6564H139.047V46.0001H134.984V25.6407C134.984 25.3595 135.036 25.0939 135.141 24.8439C135.245 24.5939 135.385 24.3751 135.562 24.1876C135.75 24.0001 135.969 23.8543 136.219 23.7501C136.469 23.646 136.74 23.5939 137.031 23.5939H152.453C153.359 23.5939 154.125 23.7605 154.75 24.0939C155.375 24.4168 155.88 24.8282 156.266 25.3282C156.661 25.8178 156.943 26.3491 157.109 26.922C157.286 27.4949 157.375 28.0314 157.375 28.5314V31.1251ZM181.516 27.6564H172.562V46.0001H168.5V27.6564H159.531V23.5939H181.516V27.6564ZM216.938 36.6251C216.938 37.9897 216.698 39.2449 216.219 40.3907C215.75 41.5366 215.099 42.5262 214.266 43.3595C213.432 44.1824 212.443 44.8282 211.297 45.297C210.151 45.7657 208.906 46.0001 207.562 46.0001H196.594C196.302 46.0001 196.031 45.948 195.781 45.8439C195.531 45.7397 195.312 45.5991 195.125 45.422C194.948 45.2345 194.807 45.0157 194.703 44.7657C194.599 44.5157 194.547 44.2449 194.547 43.9532V25.6407C194.547 25.3595 194.599 25.0939 194.703 24.8439C194.807 24.5939 194.948 24.3751 195.125 24.1876C195.312 24.0001 195.531 23.8543 195.781 23.7501C196.031 23.646 196.302 23.5939 196.594 23.5939H207.562C208.906 23.5939 210.151 23.8282 211.297 24.297C212.443 24.7657 213.432 25.4168 214.266 26.2501C215.099 27.073 215.75 28.0626 216.219 29.2189C216.698 30.3647 216.938 31.6147 216.938 32.9689V36.6251ZM212.875 32.9689C212.875 32.1772 212.745 31.4532 212.484 30.797C212.234 30.1407 211.875 29.5835 211.406 29.1251C210.938 28.6564 210.375 28.297 209.719 28.047C209.073 27.7866 208.354 27.6564 207.562 27.6564H198.609V41.9376H207.562C208.354 41.9376 209.073 41.8126 209.719 41.5626C210.375 41.3022 210.938 40.9428 211.406 40.4845C211.875 40.0157 212.234 39.4585 212.484 38.8126C212.745 38.1564 212.875 37.4272 212.875 36.6251V32.9689ZM239.344 36.8439H226.516V32.7501H239.344V36.8439ZM241.172 46.0001H226.516C225.953 46.0001 225.339 45.9012 224.672 45.7032C224.005 45.5053 223.385 45.1824 222.812 44.7345C222.25 44.2762 221.776 43.6876 221.391 42.9689C221.016 42.2397 220.828 41.3491 220.828 40.297V25.6407C220.828 25.3595 220.88 25.0939 220.984 24.8439C221.089 24.5939 221.229 24.3751 221.406 24.1876C221.594 24.0001 221.812 23.8543 222.062 23.7501C222.312 23.646 222.583 23.5939 222.875 23.5939H241.172V27.6564H224.891V40.297C224.891 40.8282 225.031 41.2345 225.312 41.5157C225.594 41.797 226.005 41.9376 226.547 41.9376H241.172V46.0001ZM266.547 39.4064C266.547 40.2085 266.443 40.9324 266.234 41.5782C266.036 42.2137 265.771 42.7762 265.438 43.2657C265.104 43.7553 264.714 44.172 264.266 44.5157C263.818 44.8595 263.354 45.1407 262.875 45.3595C262.396 45.5782 261.906 45.7397 261.406 45.8439C260.917 45.948 260.453 46.0001 260.016 46.0001H244.344V41.9376H260.016C260.797 41.9376 261.401 41.7085 261.828 41.2501C262.266 40.7918 262.484 40.1772 262.484 39.4064C262.484 39.0314 262.427 38.6876 262.312 38.3751C262.198 38.0626 262.031 37.7918 261.812 37.5626C261.604 37.3335 261.344 37.1564 261.031 37.0314C260.729 36.9064 260.391 36.8439 260.016 36.8439H250.672C250.016 36.8439 249.307 36.7293 248.547 36.5001C247.786 36.2605 247.078 35.8803 246.422 35.3595C245.776 34.8387 245.234 34.1564 244.797 33.3126C244.37 32.4689 244.156 31.4376 244.156 30.2189C244.156 29.0001 244.37 27.9741 244.797 27.1407C245.234 26.297 245.776 25.6147 246.422 25.0939C247.078 24.5626 247.786 24.1824 248.547 23.9532C249.307 23.7137 250.016 23.5939 250.672 23.5939H264.5V27.6564H250.672C249.901 27.6564 249.297 27.8907 248.859 28.3595C248.432 28.8282 248.219 29.448 248.219 30.2189C248.219 31.0001 248.432 31.6199 248.859 32.0782C249.297 32.5262 249.901 32.7501 250.672 32.7501H260.016H260.047C260.484 32.7605 260.948 32.823 261.438 32.9376C261.927 33.0418 262.411 33.2085 262.891 33.4376C263.38 33.6668 263.844 33.9585 264.281 34.3126C264.719 34.6564 265.104 35.073 265.438 35.5626C265.781 36.0522 266.052 36.6147 266.25 37.2501C266.448 37.8855 266.547 38.6043 266.547 39.4064ZM289.984 46.0001H275.328C274.953 46.0001 274.547 45.9585 274.109 45.8751C273.682 45.7814 273.255 45.6407 272.828 45.4532C272.411 45.2657 272.01 45.0262 271.625 44.7345C271.24 44.4324 270.896 44.073 270.594 43.6564C270.302 43.2293 270.068 42.7397 269.891 42.1876C269.714 41.6251 269.625 40.9949 269.625 40.297V29.297C269.625 28.922 269.667 28.521 269.75 28.0939C269.844 27.6564 269.984 27.2293 270.172 26.8126C270.359 26.3855 270.604 25.9793 270.906 25.5939C271.208 25.2085 271.568 24.8699 271.984 24.5782C272.411 24.2762 272.901 24.0366 273.453 23.8595C274.005 23.6824 274.63 23.5939 275.328 23.5939H289.984V27.6564H275.328C274.797 27.6564 274.391 27.797 274.109 28.0782C273.828 28.3595 273.688 28.7762 273.688 29.3282V40.297C273.688 40.8178 273.828 41.2241 274.109 41.5157C274.401 41.797 274.807 41.9376 275.328 41.9376H289.984V46.0001ZM316.219 31.1251C316.219 32.0522 316.104 32.8803 315.875 33.6095C315.646 34.3387 315.333 34.9845 314.938 35.547C314.552 36.0991 314.104 36.573 313.594 36.9689C313.083 37.3647 312.547 37.6928 311.984 37.9532C311.432 38.2032 310.87 38.3855 310.297 38.5001C309.734 38.6147 309.203 38.672 308.703 38.672L317.188 46.0001H310.906L302.438 38.672H299.516V34.6095H308.703C309.214 34.5678 309.677 34.4637 310.094 34.297C310.521 34.1199 310.885 33.8855 311.188 33.5939C311.5 33.3022 311.74 32.9532 311.906 32.547C312.073 32.1303 312.156 31.6564 312.156 31.1251V28.5626C312.156 28.3335 312.125 28.1616 312.062 28.047C312.01 27.922 311.938 27.8335 311.844 27.7814C311.76 27.7189 311.667 27.6824 311.562 27.672C311.469 27.6616 311.38 27.6564 311.297 27.6564H297.891V46.0001H293.828V25.6407C293.828 25.3595 293.88 25.0939 293.984 24.8439C294.089 24.5939 294.229 24.3751 294.406 24.1876C294.594 24.0001 294.812 23.8543 295.062 23.7501C295.312 23.646 295.583 23.5939 295.875 23.5939H311.297C312.203 23.5939 312.969 23.7605 313.594 24.0939C314.219 24.4168 314.724 24.8282 315.109 25.3282C315.505 25.8178 315.786 26.3491 315.953 26.922C316.13 27.4949 316.219 28.0314 316.219 28.5314V31.1251ZM324.391 46.0001H320.328V23.5939H324.391V46.0001ZM351.469 32.9689C351.469 33.896 351.354 34.7241 351.125 35.4532C350.896 36.1824 350.583 36.8282 350.188 37.3907C349.802 37.9428 349.354 38.4168 348.844 38.8126C348.333 39.2085 347.797 39.5314 347.234 39.7814C346.682 40.0314 346.12 40.2137 345.547 40.3282C344.984 40.4428 344.453 40.5001 343.953 40.5001H334.766V36.4376H343.953C344.474 36.396 344.943 36.2918 345.359 36.1251C345.786 35.948 346.151 35.7137 346.453 35.422C346.755 35.1303 346.99 34.7814 347.156 34.3751C347.323 33.9585 347.406 33.4897 347.406 32.9689V31.1251C347.354 30.6147 347.245 30.146 347.078 29.7189C346.911 29.2918 346.682 28.9272 346.391 28.6251C346.109 28.323 345.766 28.0887 345.359 27.922C344.953 27.7449 344.484 27.6564 343.953 27.6564H334.797C334.255 27.6564 333.844 27.797 333.562 28.0782C333.281 28.3595 333.141 28.7657 333.141 29.297V46.0001H329.078V29.297C329.078 28.2553 329.266 27.3699 329.641 26.6407C330.026 25.9116 330.5 25.323 331.062 24.8751C331.635 24.4272 332.255 24.1043 332.922 23.9064C333.589 23.698 334.203 23.5939 334.766 23.5939H343.953C344.87 23.5939 345.693 23.7137 346.422 23.9532C347.151 24.1824 347.792 24.4949 348.344 24.8907C348.906 25.2762 349.38 25.7241 349.766 26.2345C350.161 26.7449 350.484 27.2814 350.734 27.8439C350.995 28.396 351.182 28.9585 351.297 29.5314C351.411 30.0939 351.469 30.6251 351.469 31.1251V32.9689ZM375.203 27.6564H366.25V46.0001H362.188V27.6564H353.219V23.5939H375.203V27.6564ZM382.297 46.0001H378.234V23.5939H382.297V46.0001ZM410.562 36.9376C410.562 38.3022 410.328 39.5574 409.859 40.7032C409.391 41.8491 408.74 42.8387 407.906 43.672C407.073 44.5053 406.083 45.1564 404.938 45.6251C403.802 46.0835 402.562 46.3126 401.219 46.3126H395.719C394.375 46.3126 393.13 46.0835 391.984 45.6251C390.839 45.1564 389.849 44.5053 389.016 43.672C388.182 42.8387 387.526 41.8491 387.047 40.7032C386.578 39.5574 386.344 38.3022 386.344 36.9376V32.6564C386.344 31.3022 386.578 30.0522 387.047 28.9064C387.526 27.7501 388.182 26.7605 389.016 25.9376C389.849 25.1043 390.839 24.4532 391.984 23.9845C393.13 23.5157 394.375 23.2814 395.719 23.2814H401.219C402.562 23.2814 403.802 23.5157 404.938 23.9845C406.083 24.4532 407.073 25.1043 407.906 25.9376C408.74 26.7605 409.391 27.7501 409.859 28.9064C410.328 30.0522 410.562 31.3022 410.562 32.6564V36.9376ZM406.5 32.6564C406.5 31.8543 406.37 31.1303 406.109 30.4845C405.859 29.8282 405.5 29.271 405.031 28.8126C404.573 28.3439 404.016 27.9845 403.359 27.7345C402.714 27.4741 402 27.3439 401.219 27.3439H395.719C394.927 27.3439 394.203 27.4741 393.547 27.7345C392.901 27.9845 392.344 28.3439 391.875 28.8126C391.406 29.271 391.042 29.8282 390.781 30.4845C390.531 31.1303 390.406 31.8543 390.406 32.6564V36.9376C390.406 37.7397 390.531 38.4689 390.781 39.1251C391.042 39.771 391.406 40.3282 391.875 40.797C392.344 41.2553 392.901 41.6147 393.547 41.8751C394.203 42.1251 394.927 42.2501 395.719 42.2501H401.188C401.979 42.2501 402.698 42.1251 403.344 41.8751C404 41.6147 404.562 41.2553 405.031 40.797C405.5 40.3282 405.859 39.771 406.109 39.1251C406.37 38.4689 406.5 37.7397 406.5 36.9376V32.6564ZM436.969 44.2657C436.969 44.5574 436.911 44.8282 436.797 45.0782C436.693 45.3282 436.547 45.547 436.359 45.7345C436.182 45.9116 435.969 46.0522 435.719 46.1564C435.469 46.2605 435.203 46.3126 434.922 46.3126C434.672 46.3126 434.417 46.2657 434.156 46.172C433.906 46.0782 433.682 45.9272 433.484 45.7189L418.641 30.2189V46.0001H414.578V25.3282C414.578 24.9116 414.693 24.5366 414.922 24.2032C415.161 23.8595 415.464 23.6043 415.828 23.4376C416.214 23.2814 416.609 23.2449 417.016 23.3282C417.422 23.4012 417.771 23.5887 418.062 23.8907L432.906 39.3751V23.5939H436.969V44.2657Z" fill="url(#paint10_linear_492_103)"/>
</g>
<defs>
<filter id="filter0_d_492_103" x="38.1" y="10.8032" width="415.269" height="55.9094" filterUnits="userSpaceOnUse" color-interpolation-filters="sRGB">
<feFlood flood-opacity="0" result="BackgroundImageFix"/>
<feColorMatrix in="SourceAlpha" type="matrix" values="0 0 0 0 0 0 0 0 0 0 0 0 0 0 0 0 0 0 127 0" result="hardAlpha"/>
<feOffset dy="4"/>
<feGaussianBlur stdDeviation="8.2"/>
<feComposite in2="hardAlpha" operator="out"/>
<feColorMatrix type="matrix" values="0 0 0 0 0.0196078 0 0 0 0 0.756863 0 0 0 0 0.454902 0 0 0 1 0"/>
<feBlend mode="normal" in2="BackgroundImageFix" result="effect1_dropShadow_492_103"/>
<feBlend mode="normal" in="SourceGraphic" in2="effect1_dropShadow_492_103" result="shape"/>
</filter>
<linearGradient id="paint0_linear_492_103" x1="0.999781" y1="367" x2="540" y2="367" gradientUnits="userSpaceOnUse">
<stop stop-color="#05C174"/>
<stop offset="0.93" stop-color="#05C174"/>
</linearGradient>
<linearGradient id="paint1_linear_492_103" x1="348.354" y1="366.827" x2="384.674" y2="366.827" gradientUnits="userSpaceOnUse">
<stop stop-color="#05B0C1"/>
<stop offset="0.93" stop-color="#05C174"/>
</linearGradient>
<linearGradient id="paint2_linear_492_103" x1="306.099" y1="340" x2="342.419" y2="340" gradientUnits="userSpaceOnUse">
<stop stop-color="#05B0C1"/>
<stop offset="0.93" stop-color="#05C174"/>
</linearGradient>
<linearGradient id="paint3_linear_492_103" x1="263.844" y1="340" x2="300.163" y2="340" gradientUnits="userSpaceOnUse">
<stop stop-color="#05B0C1"/>
<stop offset="0.93" stop-color="#05C174"/>
</linearGradient>
<linearGradient id="paint4_linear_492_103" x1="221.588" y1="340" x2="257.918" y2="340" gradientUnits="userSpaceOnUse">
<stop stop-color="#05B0C1"/>
<stop offset="0.93" stop-color="#05C174"/>
</linearGradient>
<linearGradient id="paint5_linear_492_103" x1="179.343" y1="340" x2="215.663" y2="340" gradientUnits="userSpaceOnUse">
<stop stop-color="#05B0C1"/>
<stop offset="0.93" stop-color="#05C174"/>
</linearGradient>
<linearGradient id="paint6_linear_492_103" x1="137.088" y1="340" x2="173.408" y2="340" gradientUnits="userSpaceOnUse">
<stop stop-color="#05B0C1"/>
<stop offset="0.93" stop-color="#05C174"/>
</linearGradient>
<linearGradient id="paint7_linear_492_103" x1="94.8325" y1="340" x2="131.152" y2="340" gradientUnits="userSpaceOnUse">
<stop stop-color="#05B0C1"/>
<stop offset="0.93" stop-color="#05C174"/>
</linearGradient>
<linearGradient id="paint8_linear_492_103" x1="52.5771" y1="340" x2="88.8968" y2="340" gradientUnits="userSpaceOnUse">
<stop stop-color="#05B0C1"/>
<stop offset="0.93" stop-color="#05C174"/>
</linearGradient>
<linearGradient id="paint9_linear_492_103" x1="10.3218" y1="340" x2="46.6414" y2="340" gradientUnits="userSpaceOnUse">
<stop stop-color="#05B0C1"/>
<stop offset="0.93" stop-color="#05C174"/>
</linearGradient>
<linearGradient id="paint10_linear_492_103" x1="53" y1="34.5001" x2="440" y2="34.5001" gradientUnits="userSpaceOnUse">
<stop stop-color="#05B0C1"/>
<stop offset="1" stop-color="#05C174"/>
</linearGradient>
<clipPath id="clip0_492_103">
<rect width="324" height="540" fill="white" transform="matrix(0 -1 1 0 0 324)"/>
</clipPath>
<clipPath id="clip1_492_103">
<rect width="539" height="54" fill="white" transform="translate(1 340)"/>
</clipPath>
</defs>
</svg>
