<svg width="361" height="100" viewBox="0 0 361 100" fill="none" xmlns="http://www.w3.org/2000/svg">
<g clip-path="url(#clip0_328_476)">
<path d="M337.8 99.49L351.22 86.05V99.49H337.8Z" fill="url(#paint0_linear_328_476)"/>
<path d="M360.17 5.34003L354.64 12.85H317.84L312.21 5.34003H360.17Z" fill="url(#paint1_linear_328_476)"/>
<path d="M312.21 5.34003H359.61L354.64 12.85L312.21 5.34003Z" fill="url(#paint2_linear_328_476)"/>
<path d="M315.06 18.38L306.89 8.17H36.51V0H0V31.15H5.27V73.28L15.57 88.17H44.25L53.36 97.02H334.3L348.76 82.57V18.38H315.06ZM172.92 93.54H57.51L51.32 87.45H172.92V93.54ZM184.77 93.54H176.65V87.45H184.77V93.54ZM193.5 93.54H188.5V87.45H193.5V93.54ZM201.22 93.54H197.23V87.45H201.22V93.54ZM207.29 93.54H204.96V87.45H207.29V93.54ZM212.75 93.54H211.02V87.45H212.75V93.54Z" fill="url(#paint3_linear_328_476)"/>
<path d="M0.849976 59.23V73.62L13.44 92.77H42.38" stroke="url(#paint4_linear_328_476)" stroke-miterlimit="10"/>
</g>
<path d="M134.4 55.16H139.968V40.44H134.592V36.6H144V55.16H149.184V59H134.4V55.16ZM169.642 51.256C169.642 52.5787 169.418 53.752 168.97 54.776C168.522 55.7787 167.914 56.632 167.146 57.336C166.378 58.0187 165.492 58.5413 164.49 58.904C163.508 59.2667 162.474 59.448 161.386 59.448C160.298 59.448 159.252 59.2667 158.25 58.904C157.268 58.5413 156.394 58.0187 155.626 57.336C154.858 56.632 154.25 55.7787 153.802 54.776C153.354 53.752 153.13 52.5787 153.13 51.256V50.872C153.13 49.5707 153.354 48.4187 153.802 47.416C154.25 46.392 154.858 45.528 155.626 44.824C156.394 44.12 157.268 43.5867 158.25 43.224C159.252 42.8613 160.298 42.68 161.386 42.68C162.474 42.68 163.508 42.8613 164.49 43.224C165.492 43.5867 166.378 44.12 167.146 44.824C167.914 45.528 168.522 46.392 168.97 47.416C169.418 48.4187 169.642 49.5707 169.642 50.872V51.256ZM161.386 55.608C161.962 55.608 162.506 55.512 163.018 55.32C163.53 55.128 163.978 54.8507 164.362 54.488C164.746 54.1253 165.044 53.688 165.258 53.176C165.492 52.6427 165.61 52.0453 165.61 51.384V50.744C165.61 50.0827 165.492 49.496 165.258 48.984C165.044 48.4507 164.746 48.0027 164.362 47.64C163.978 47.2773 163.53 47 163.018 46.808C162.506 46.616 161.962 46.52 161.386 46.52C160.81 46.52 160.266 46.616 159.754 46.808C159.242 47 158.794 47.2773 158.41 47.64C158.026 48.0027 157.716 48.4507 157.482 48.984C157.268 49.496 157.162 50.0827 157.162 50.744V51.384C157.162 52.0453 157.268 52.6427 157.482 53.176C157.716 53.688 158.026 54.1253 158.41 54.488C158.794 54.8507 159.242 55.128 159.754 55.32C160.266 55.512 160.81 55.608 161.386 55.608ZM185.012 56.696H184.436C184.265 57.0587 184.052 57.4107 183.796 57.752C183.561 58.072 183.241 58.36 182.836 58.616C182.452 58.872 181.982 59.0747 181.428 59.224C180.894 59.3733 180.244 59.448 179.476 59.448C178.494 59.448 177.577 59.2773 176.724 58.936C175.892 58.5733 175.156 58.0507 174.516 57.368C173.897 56.664 173.406 55.8107 173.044 54.808C172.702 53.8053 172.532 52.6533 172.532 51.352V50.776C172.532 49.496 172.713 48.3547 173.076 47.352C173.46 46.3493 173.972 45.5067 174.612 44.824C175.273 44.12 176.03 43.5867 176.884 43.224C177.758 42.8613 178.676 42.68 179.635 42.68C180.916 42.68 181.929 42.9253 182.676 43.416C183.422 43.8853 184.009 44.5573 184.436 45.432H185.012V43.128H189.044V62.904C189.044 63.6293 188.809 64.2267 188.34 64.696C187.892 65.1653 187.305 65.4 186.58 65.4H175.891V61.56H184.148C184.724 61.56 185.012 61.24 185.012 60.6V56.696ZM180.788 55.608C182.046 55.608 183.06 55.2133 183.828 54.424C184.617 53.6133 185.012 52.5573 185.012 51.256V50.872C185.012 49.5707 184.617 48.5253 183.828 47.736C183.06 46.9253 182.046 46.52 180.788 46.52C179.529 46.52 178.505 46.9147 177.716 47.704C176.948 48.472 176.564 49.528 176.564 50.872V51.256C176.564 52.6 176.948 53.6667 177.716 54.456C178.505 55.224 179.529 55.608 180.788 55.608ZM193.565 55.16H198.941V46.968H193.949V43.128H202.973V55.16H207.581V59H193.565V55.16ZM203.965 38.424C203.965 38.8507 203.88 39.256 203.709 39.64C203.56 40.0027 203.347 40.3227 203.069 40.6C202.792 40.856 202.461 41.0693 202.077 41.24C201.715 41.3893 201.331 41.464 200.925 41.464C200.499 41.464 200.104 41.3893 199.741 41.24C199.379 41.0693 199.059 40.856 198.781 40.6C198.504 40.3227 198.28 40.0027 198.109 39.64C197.96 39.256 197.885 38.8507 197.885 38.424C197.885 37.9973 197.96 37.6027 198.109 37.24C198.28 36.856 198.504 36.536 198.781 36.28C199.059 36.0027 199.379 35.7893 199.741 35.64C200.104 35.4693 200.499 35.384 200.925 35.384C201.331 35.384 201.715 35.4693 202.077 35.64C202.461 35.7893 202.792 36.0027 203.069 36.28C203.347 36.536 203.56 36.856 203.709 37.24C203.88 37.6027 203.965 37.9973 203.965 38.424ZM216.903 59H212.871V43.128H216.903V45.496H217.479C217.842 44.6 218.428 43.9067 219.239 43.416C220.05 42.9253 220.999 42.68 222.087 42.68C222.855 42.68 223.57 42.808 224.231 43.064C224.914 43.2987 225.511 43.672 226.023 44.184C226.535 44.696 226.93 45.3467 227.207 46.136C227.506 46.9253 227.655 47.864 227.655 48.952V59H223.623V49.976C223.623 48.8453 223.346 47.96 222.791 47.32C222.258 46.6587 221.479 46.328 220.455 46.328C219.26 46.328 218.364 46.7333 217.767 47.544C217.191 48.3333 216.903 49.4 216.903 50.744V59Z" fill="#090223"/>
<defs>
<linearGradient id="paint0_linear_328_476" x1="2.99966" y1="-45.45" x2="694.4" y2="234.381" gradientUnits="userSpaceOnUse">
<stop stop-color="#05B0C1"/>
<stop offset="0.93" stop-color="#05C174"/>
</linearGradient>
<linearGradient id="paint1_linear_328_476" x1="31.3198" y1="-115.43" x2="722.73" y2="164.4" gradientUnits="userSpaceOnUse">
<stop stop-color="#05B0C1"/>
<stop offset="0.93" stop-color="#05C174"/>
</linearGradient>
<linearGradient id="paint2_linear_328_476" x1="32.19" y1="-117.58" x2="723.6" y2="162.25" gradientUnits="userSpaceOnUse">
<stop stop-color="#05B0C1"/>
<stop offset="0.93" stop-color="#05C174"/>
</linearGradient>
<linearGradient id="paint3_linear_328_476" x1="-6.12001" y1="-22.93" x2="685.29" y2="256.9" gradientUnits="userSpaceOnUse">
<stop stop-color="#05B0C1"/>
<stop offset="0.93" stop-color="#05C174"/>
</linearGradient>
<linearGradient id="paint4_linear_328_476" x1="0.349976" y1="76.25" x2="42.38" y2="76.25" gradientUnits="userSpaceOnUse">
<stop stop-color="#05B0C1"/>
<stop offset="0.93" stop-color="#05C174"/>
</linearGradient>
<clipPath id="clip0_328_476">
<rect width="360.17" height="99.49" fill="white"/>
</clipPath>
</defs>
</svg>
