<svg width="100" height="103" viewBox="0 0 100 103" fill="none" xmlns="http://www.w3.org/2000/svg">
<g opacity="0.75">
<path d="M0.737305 1.52441C33.3249 1.54799 65.9124 1.57157 98.5 1.52441C98.4784 34.8781 98.5 68.224 98.5 101.578C65.9124 101.578 33.3249 101.578 0.737305 101.578C0.751689 68.224 0.744497 34.8781 0.737305 1.52441Z" stroke="url(#paint0_linear_110_219)" stroke-miterlimit="10"/>
<path d="M0.744385 96.8151C33.332 96.7908 65.9123 96.807 98.4999 96.8151" stroke="url(#paint1_linear_110_219)" stroke-miterlimit="10"/>
<path d="M0.737061 92.052C33.3318 91.8005 65.8906 91.9656 98.4926 92.052" stroke="url(#paint2_linear_110_219)" stroke-miterlimit="10"/>
<path d="M0.737061 87.2816C8.82102 87.1402 16.9481 86.2285 25.0249 86.7315C31.9509 87.1559 38.7691 88.9949 45.7167 89.0735C63.2799 89.2857 80.8862 87.1795 98.4997 87.2816" stroke="url(#paint3_linear_110_219)" stroke-miterlimit="10"/>
<path d="M0.737061 82.5188C8.40388 82.3224 16.1498 81.0885 23.8166 81.7565C30.6636 82.3617 37.2947 84.8687 44.1776 85.0102C53.8438 85.2066 63.4956 82.8804 73.1475 82.3302C81.5839 81.8508 90.0706 82.4403 98.507 82.511" stroke="url(#paint4_linear_110_219)" stroke-miterlimit="10"/>
<path d="M0.737061 77.7562C8.18811 77.544 15.7327 76.0979 23.1837 76.8524C29.9803 77.544 36.4748 80.4754 43.3289 80.6404C53.3979 80.8841 63.4525 78.1334 73.4999 77.5204C81.814 77.0096 90.1857 77.6697 98.507 77.7483" stroke="url(#paint5_linear_110_219)" stroke-miterlimit="10"/>
<path d="M0.72998 72.9938C8.3896 72.7816 16.1211 71.1627 23.7808 71.9486C30.5054 72.6402 36.8992 75.5559 43.6814 75.713C61.8919 76.1296 80.2102 72.8052 98.507 72.986" stroke="url(#paint6_linear_110_219)" stroke-miterlimit="10"/>
<path d="M0.72998 68.2236C9.07286 67.9092 17.502 65.8738 25.8449 66.7225C32.3106 67.3827 38.4599 70.1255 44.976 70.3534C62.7549 70.9585 80.7065 68.4436 98.507 68.2236" stroke="url(#paint7_linear_110_219)" stroke-miterlimit="10"/>
<path d="M0.737061 63.4611C9.97895 62.9817 19.3503 60.4196 28.5994 61.3392C34.7127 61.9522 40.5383 64.4592 46.6876 64.805C64.0638 65.8031 81.1523 64.2156 98.4997 63.4611" stroke="url(#paint8_linear_110_219)" stroke-miterlimit="10"/>
<path d="M0.744385 58.6986C10.8421 58.062 21.1341 54.9813 31.2391 55.9873C37 56.561 42.5451 58.8008 48.3347 59.3038C54.5128 59.8382 60.6549 61.2292 66.8401 61.6536C77.3478 62.3766 88.0066 59.4374 98.4927 58.7065" stroke="url(#paint9_linear_110_219)" stroke-miterlimit="10"/>
<path d="M0.744385 53.928C11.4103 53.2049 22.2992 49.7627 32.9723 50.8315C38.5031 51.3817 43.8684 53.4407 49.4208 54.0223C54.8508 54.5881 59.9644 56.8751 65.3585 57.5746C76.1611 58.9892 87.6901 54.8003 98.4855 53.928" stroke="url(#paint10_linear_110_219)" stroke-miterlimit="10"/>
<path d="M0.744385 49.1654C11.4319 48.4581 22.3208 44.8979 33.0155 45.9904C38.5462 46.5562 43.9044 48.6467 49.4567 49.2361C54.9012 49.8177 60.1011 51.9239 65.5168 52.5919C76.269 53.9123 87.7405 50.0928 98.4855 49.1733" stroke="url(#paint11_linear_110_219)" stroke-miterlimit="10"/>
<path d="M0.744385 44.4029C10.9572 43.6799 21.3427 40.0176 31.5699 41.1021C37.3523 41.7151 42.8328 44.2457 48.6584 44.7015C65.3513 46.0061 81.7854 45.2517 98.4927 44.4107" stroke="url(#paint12_linear_110_219)" stroke-miterlimit="10"/>
<path d="M0.737061 39.6402C10.2307 38.8779 19.8394 35.0977 29.3618 36.1665C35.5183 36.8581 41.236 40.0096 47.4644 40.2375C55.4692 40.5283 63.4525 38.4928 71.4501 38.1077C80.4691 37.6754 89.488 39.3337 98.4997 39.6402" stroke="url(#paint13_linear_110_219)" stroke-miterlimit="10"/>
<path d="M0.72998 34.8774C9.49719 34.068 18.2572 30.1935 27.0676 31.2308C33.6052 32.001 39.6034 35.7419 46.2274 35.7812C55.944 35.8441 65.4664 31.3409 75.1182 30.2563C83.1519 29.3525 90.6029 33.7064 98.4998 34.8696" stroke="url(#paint14_linear_110_219)" stroke-miterlimit="10"/>
<path d="M0.72998 30.1072C8.96498 29.2741 17.0489 25.321 25.3414 26.3191C32.1524 27.1365 38.3664 31.3096 45.2852 31.2625C56.3252 31.1917 66.9983 24.7316 77.9303 23.1362C85.9999 21.9652 90.8834 29.6278 98.507 30.0993" stroke="url(#paint15_linear_110_219)" stroke-miterlimit="10"/>
<path d="M0.737061 25.3451C8.81383 24.5121 16.6964 20.559 24.8379 21.5335C31.7208 22.3587 38.0283 26.6183 45.019 26.5947C56.4761 26.5476 67.4729 19.3565 78.8077 17.6747C86.9564 16.4644 90.9984 25.2744 98.507 25.3451" stroke="url(#paint16_linear_110_219)" stroke-miterlimit="10"/>
<path d="M0.737061 20.582C8.9289 19.8118 17.0129 16.456 25.2551 17.3048C32.1667 18.0121 38.6684 21.698 45.652 21.643C56.5049 21.5565 66.9838 15.4657 77.7361 13.9725C85.7481 12.8644 90.8977 20.2519 98.507 20.582" stroke="url(#paint17_linear_110_219)" stroke-miterlimit="10"/>
<path d="M0.737061 15.8196C9.18063 15.2852 17.5811 12.8489 26.0534 13.4619C33.0154 13.9649 39.7688 16.6684 46.7739 16.5898C56.5984 16.4719 66.1352 12.118 75.9021 11.0728C83.7703 10.2318 90.7898 14.7587 98.507 15.8196" stroke="url(#paint18_linear_110_219)" stroke-miterlimit="10"/>
<path d="M0.737061 11.0572C9.4827 10.8135 18.214 9.39891 26.9668 9.73685C34.0079 10.0119 40.9771 11.5759 48.0325 11.5051C56.6919 11.4265 65.2002 8.93522 73.8379 8.40867C82.1377 7.89783 90.236 10.5778 98.4997 11.0572" stroke="url(#paint19_linear_110_219)" stroke-miterlimit="10"/>
<path d="M0.737061 6.29455C33.339 6.20024 65.905 6.11379 98.4926 6.29455" stroke="url(#paint20_linear_110_219)" stroke-miterlimit="10"/>
<path d="M93.8394 1.53174C94.3356 34.9012 94.0048 68.1056 93.8394 101.577" stroke="url(#paint21_linear_110_219)" stroke-miterlimit="10"/>
<path d="M89.1861 1.53174C89.8693 10.2553 92.4369 18.5623 91.5954 27.388C90.7611 36.0958 87.3161 43.9469 87.1363 52.8198C86.9781 60.7653 89.7974 68.0899 90.0995 76.0039C90.4231 84.4445 89.3947 93.1366 89.1861 101.577" stroke="url(#paint22_linear_110_219)" stroke-miterlimit="10"/>
<path d="M84.54 1.52441C86.0144 10.0908 90.2433 16.4644 88.8481 25.4394C87.3161 35.3183 81.1237 43.5309 80.872 53.8106C80.6706 61.9054 85.5756 67.949 86.187 75.918C86.8199 84.1386 84.9355 93.3494 84.54 101.586" stroke="url(#paint23_linear_110_219)" stroke-miterlimit="10"/>
<path d="M79.8866 1.51611C80.764 11.4421 88.028 12.8095 85.892 23.6943C83.7703 34.4926 74.9959 43.2397 74.7729 54.6825C74.6075 63.1624 81.2818 67.6027 82.1809 75.8233C83.0511 83.753 80.426 93.624 79.8794 101.577" stroke="url(#paint24_linear_110_219)" stroke-miterlimit="10"/>
<path d="M75.2261 1.51611C76.2042 11.9058 84.7341 10.8841 82.224 22.6962C79.8147 34.0132 69.4148 43.0904 69.271 55.2012C69.1703 63.9954 76.8371 67.2962 77.8944 75.7604C78.8653 83.5487 75.823 93.7497 75.2261 101.569" stroke="url(#paint25_linear_110_219)" stroke-miterlimit="10"/>
<path d="M70.58 1.51611C71.6301 11.5285 79.153 12.0865 76.8731 23.1992C74.6076 34.2411 65.2075 43.2319 64.9989 54.9732C64.8479 63.4924 71.7523 67.7442 72.7017 75.9726C73.5935 83.7452 71.1266 93.7733 70.5728 101.577" stroke="url(#paint26_linear_110_219)" stroke-miterlimit="10"/>
<path d="M65.9266 1.51611C67.4082 9.90956 71.3136 16.1732 69.8967 24.9203C68.2425 35.1135 61.9062 43.6484 61.5323 54.2424C61.2518 62.1878 65.567 68.813 66.1927 76.6563C66.8328 84.6804 66.0561 93.5139 65.9266 101.585" stroke="url(#paint27_linear_110_219)" stroke-miterlimit="10"/>
<path d="M61.259 1.52441C61.5683 10.0593 62.906 18.665 62.1724 27.1842C61.4029 36.0491 58.7562 44.3404 58.375 53.2997C57.6845 69.5051 60.1874 85.5689 61.259 101.57" stroke="url(#paint28_linear_110_219)" stroke-miterlimit="10"/>
<path d="M56.5912 1.53174C55.8864 10.8211 54.4192 20.024 54.5631 29.3684C54.6781 37.0074 55.4117 44.7564 55.1672 52.3954C54.8867 61.1111 51.9451 69.7246 52.0027 78.4245C52.053 86.2836 55.4405 93.9383 56.5912 101.577" stroke="url(#paint29_linear_110_219)" stroke-miterlimit="10"/>
<path d="M51.9379 1.53174C50.6792 11.1276 47.0616 21.0457 47.9175 30.8381C48.5432 38.0134 51.607 44.4342 51.5351 51.7588C51.4416 61.3311 45.7958 69.4967 45.7742 78.9982C45.7598 86.7708 50.4563 94.174 51.9379 101.569" stroke="url(#paint30_linear_110_219)" stroke-miterlimit="10"/>
<path d="M47.2918 1.53174C46.0332 11.1591 41.9337 21.0929 42.9334 30.9717C43.6598 38.1941 47.3277 44.0805 47.2774 51.5466C47.2127 61.3704 40.8908 69.2452 40.9052 79.0061C40.9196 86.8808 45.7886 94.0876 47.2918 101.585" stroke="url(#paint31_linear_110_219)" stroke-miterlimit="10"/>
<path d="M42.6312 1.53174C41.4517 10.8526 37.4961 20.527 38.5965 30.06C39.4523 37.4554 43.5806 43.2789 43.5303 50.9808C43.4655 60.9382 36.6474 68.4357 36.5251 78.3066C36.4244 86.2521 41.2072 93.9854 42.6312 101.585" stroke="url(#paint32_linear_110_219)" stroke-miterlimit="10"/>
<path d="M37.978 1.52441C36.9352 10.3265 33.0946 19.7102 34.4611 28.6617C35.619 36.2299 40.3155 42.1163 40.2579 50.0854C40.186 60.2157 32.7062 67.2102 32.3034 77.2305C31.9798 85.286 36.6762 93.7973 37.978 101.578" stroke="url(#paint33_linear_110_219)" stroke-miterlimit="10"/>
<path d="M33.3247 1.51611C32.4185 9.85455 28.7937 18.7981 30.3543 27.2073C31.7856 34.9249 37.115 40.9292 37.0431 49.1576C36.9496 59.4529 28.7433 65.9602 28.1032 76.1141C27.5854 84.3346 32.1524 93.569 33.3247 101.577" stroke="url(#paint34_linear_110_219)" stroke-miterlimit="10"/>
<path d="M28.6713 1.51611C27.8514 9.57162 24.4639 18.0515 26.0965 26.1227C27.6859 33.9818 33.5619 40.0175 33.4756 48.466C33.3677 58.9028 24.5861 65.0092 23.7806 75.2731C23.1333 83.6116 27.5781 93.3961 28.6713 101.562" stroke="url(#paint35_linear_110_219)" stroke-miterlimit="10"/>
<path d="M24.011 1.52441C23.1983 9.45418 19.9402 17.9105 21.5585 25.8403C23.1695 33.7465 29.1822 39.8058 29.0887 48.3171C28.9736 58.7775 20.0481 64.766 19.2426 75.0535C18.5881 83.392 22.9106 93.3965 24.011 101.578" stroke="url(#paint36_linear_110_219)" stroke-miterlimit="10"/>
<path d="M19.3575 1.51611C18.6311 9.57162 15.8118 18.3266 17.2646 26.3664C18.6742 34.1311 23.8166 40.5126 23.7159 48.7489C23.5936 58.7613 15.9484 65.3236 15.2364 75.1946C14.6323 83.533 18.365 93.3646 19.3503 101.577" stroke="url(#paint37_linear_110_219)" stroke-miterlimit="10"/>
<path d="M14.7044 1.52441C14.1937 9.93358 12.0792 18.9715 13.2012 27.3571C14.2153 34.941 17.9193 41.6998 17.8401 49.551C17.7394 58.8954 12.2662 66.2043 11.77 75.4622C11.3169 83.9264 13.9995 93.1765 14.7115 101.578" stroke="url(#paint38_linear_110_219)" stroke-miterlimit="10"/>
<path d="M10.0509 1.52441C9.79203 10.4366 8.57656 19.5687 9.19508 28.473C9.71292 35.892 11.849 42.9494 11.7986 50.4548C11.7411 59.1547 8.67725 67.0845 8.43272 75.7608C8.19538 84.3115 9.68415 93.0271 10.0509 101.57" stroke="url(#paint39_linear_110_219)" stroke-miterlimit="10"/>
<path d="M5.39774 1.53174C5.21074 34.9405 5.11005 68.1921 5.39774 101.585" stroke="url(#paint40_linear_110_219)" stroke-miterlimit="10"/>
</g>
<path d="M98.73 0.72998H0.72998V101.664H98.73V0.72998Z" stroke="#05C174" stroke-width="1.46" stroke-miterlimit="10"/>
<path d="M7.92212 57.977C10.6116 59.1182 13.3012 60.2594 15.9906 61.4005V38.7654C13.3012 39.9066 10.6116 41.0476 7.92212 42.1887V35.5451C16.019 29.2142 24.1303 22.8832 32.2272 16.5679V31.903C29.5234 33.0441 26.8198 34.2008 24.1017 35.3419V64.8552C26.8055 65.9963 29.5091 67.1532 32.2272 68.2943V83.6292C24.1303 77.2982 16.019 70.9673 7.92212 64.6519V58.0083V57.977Z" stroke="#05C174" stroke-width="2" stroke-miterlimit="10"/>
<path d="M35.8322 13.7389C38.3642 11.7693 40.8821 9.78397 43.4141 7.81434C45.3168 18.6942 47.0193 29.6055 48.6215 40.5479C50.1665 29.3397 51.9117 18.1627 53.8286 7.01709C56.3607 8.98672 58.8785 10.972 61.4106 12.9417V87.2094C59.0788 89.0383 56.7468 90.8516 54.415 92.6806V48.4888C53.0417 57.4304 51.7542 66.403 50.5239 75.3758C48.9933 76.048 48.2209 75.5791 46.6902 74.907C45.4885 66.0905 44.2154 57.3053 42.8564 48.5201V91.8833C40.5246 90.0544 38.1926 88.241 35.8608 86.4121V13.7389H35.8322Z" stroke="#05C174" stroke-width="2" stroke-miterlimit="10"/>
<path d="M73.1124 34.8888C70.0653 33.5914 67.0184 32.3094 63.9713 31.0119V14.958C72.7549 21.8205 81.5384 28.6828 90.322 35.5452V42.1888C87.2749 40.8914 84.228 39.6096 81.1809 38.3121V71.7647C78.4914 73.8593 75.8018 75.9697 73.1124 78.0644V34.8888Z" stroke="#05C174" stroke-width="2" stroke-miterlimit="10"/>
<defs>
<linearGradient id="paint0_linear_110_219" x1="0.377698" y1="51.555" x2="98.8596" y2="51.555" gradientUnits="userSpaceOnUse">
<stop stop-color="#3305C1"/>
<stop offset="0.93" stop-color="#1C0951"/>
</linearGradient>
<linearGradient id="paint1_linear_110_219" x1="0.744385" y1="96.807" x2="98.4999" y2="96.807" gradientUnits="userSpaceOnUse">
<stop stop-color="#3305C1"/>
<stop offset="0.93" stop-color="#1C0951"/>
</linearGradient>
<linearGradient id="paint2_linear_110_219" x1="0.737061" y1="91.9813" x2="98.4998" y2="91.9813" gradientUnits="userSpaceOnUse">
<stop stop-color="#3305C1"/>
<stop offset="0.93" stop-color="#1C0951"/>
</linearGradient>
<linearGradient id="paint3_linear_110_219" x1="0.729868" y1="87.8396" x2="98.4997" y2="87.8396" gradientUnits="userSpaceOnUse">
<stop stop-color="#3305C1"/>
<stop offset="0.93" stop-color="#1C0951"/>
</linearGradient>
<linearGradient id="paint4_linear_110_219" x1="0.722676" y1="83.289" x2="98.507" y2="83.289" gradientUnits="userSpaceOnUse">
<stop stop-color="#3305C1"/>
<stop offset="0.93" stop-color="#1C0951"/>
</linearGradient>
<linearGradient id="paint5_linear_110_219" x1="0.729868" y1="78.6521" x2="98.507" y2="78.6521" gradientUnits="userSpaceOnUse">
<stop stop-color="#3305C1"/>
<stop offset="0.93" stop-color="#1C0951"/>
</linearGradient>
<linearGradient id="paint6_linear_110_219" x1="0.722788" y1="73.7404" x2="98.507" y2="73.7404" gradientUnits="userSpaceOnUse">
<stop stop-color="#3305C1"/>
<stop offset="0.93" stop-color="#1C0951"/>
</linearGradient>
<linearGradient id="paint7_linear_110_219" x1="0.722788" y1="68.4829" x2="98.507" y2="68.4829" gradientUnits="userSpaceOnUse">
<stop stop-color="#3305C1"/>
<stop offset="0.93" stop-color="#1C0951"/>
</linearGradient>
<linearGradient id="paint8_linear_110_219" x1="0.722676" y1="63.1389" x2="98.5141" y2="63.1389" gradientUnits="userSpaceOnUse">
<stop stop-color="#3305C1"/>
<stop offset="0.93" stop-color="#1C0951"/>
</linearGradient>
<linearGradient id="paint9_linear_110_219" x1="0.722808" y1="58.7694" x2="98.5143" y2="58.7694" gradientUnits="userSpaceOnUse">
<stop stop-color="#3305C1"/>
<stop offset="0.93" stop-color="#1C0951"/>
</linearGradient>
<linearGradient id="paint10_linear_110_219" x1="0.722808" y1="54.2502" x2="98.5215" y2="54.2502" gradientUnits="userSpaceOnUse">
<stop stop-color="#3305C1"/>
<stop offset="0.93" stop-color="#1C0951"/>
</linearGradient>
<linearGradient id="paint11_linear_110_219" x1="0.722808" y1="49.3304" x2="98.5215" y2="49.3304" gradientUnits="userSpaceOnUse">
<stop stop-color="#3305C1"/>
<stop offset="0.93" stop-color="#1C0951"/>
</linearGradient>
<linearGradient id="paint12_linear_110_219" x1="0.722808" y1="43.1533" x2="98.5071" y2="43.1533" gradientUnits="userSpaceOnUse">
<stop stop-color="#3305C1"/>
<stop offset="0.93" stop-color="#1C0951"/>
</linearGradient>
<linearGradient id="paint13_linear_110_219" x1="0.715484" y1="38.1234" x2="98.5069" y2="38.1234" gradientUnits="userSpaceOnUse">
<stop stop-color="#3305C1"/>
<stop offset="0.93" stop-color="#1C0951"/>
</linearGradient>
<linearGradient id="paint14_linear_110_219" x1="0.701212" y1="32.952" x2="98.5574" y2="32.952" gradientUnits="userSpaceOnUse">
<stop stop-color="#3305C1"/>
<stop offset="0.93" stop-color="#1C0951"/>
</linearGradient>
<linearGradient id="paint15_linear_110_219" x1="0.701212" y1="27.1443" x2="98.5286" y2="27.1443" gradientUnits="userSpaceOnUse">
<stop stop-color="#3305C1"/>
<stop offset="0.93" stop-color="#1C0951"/>
</linearGradient>
<linearGradient id="paint16_linear_110_219" x1="0.7011" y1="22.0758" x2="98.507" y2="22.0758" gradientUnits="userSpaceOnUse">
<stop stop-color="#3305C1"/>
<stop offset="0.93" stop-color="#1C0951"/>
</linearGradient>
<linearGradient id="paint17_linear_110_219" x1="0.7011" y1="17.7449" x2="98.5213" y2="17.7449" gradientUnits="userSpaceOnUse">
<stop stop-color="#3305C1"/>
<stop offset="0.93" stop-color="#1C0951"/>
</linearGradient>
<linearGradient id="paint18_linear_110_219" x1="0.715484" y1="13.7763" x2="98.5501" y2="13.7763" gradientUnits="userSpaceOnUse">
<stop stop-color="#3305C1"/>
<stop offset="0.93" stop-color="#1C0951"/>
</linearGradient>
<linearGradient id="paint19_linear_110_219" x1="0.729868" y1="9.92546" x2="98.5141" y2="9.92546" gradientUnits="userSpaceOnUse">
<stop stop-color="#3305C1"/>
<stop offset="0.93" stop-color="#1C0951"/>
</linearGradient>
<linearGradient id="paint20_linear_110_219" x1="0.737061" y1="6.23953" x2="98.4926" y2="6.23953" gradientUnits="userSpaceOnUse">
<stop stop-color="#3305C1"/>
<stop offset="0.93" stop-color="#1C0951"/>
</linearGradient>
<linearGradient id="paint21_linear_110_219" x1="93.4797" y1="51.5545" x2="94.4579" y2="51.5545" gradientUnits="userSpaceOnUse">
<stop stop-color="#3305C1"/>
<stop offset="0.93" stop-color="#1C0951"/>
</linearGradient>
<linearGradient id="paint22_linear_110_219" x1="86.7695" y1="51.5388" x2="92.1205" y2="51.5388" gradientUnits="userSpaceOnUse">
<stop stop-color="#3305C1"/>
<stop offset="0.93" stop-color="#1C0951"/>
</linearGradient>
<linearGradient id="paint23_linear_110_219" x1="80.5052" y1="51.5236" x2="89.481" y2="51.5236" gradientUnits="userSpaceOnUse">
<stop stop-color="#3305C1"/>
<stop offset="0.93" stop-color="#1C0951"/>
</linearGradient>
<linearGradient id="paint24_linear_110_219" x1="74.4133" y1="51.5389" x2="86.6472" y2="51.5389" gradientUnits="userSpaceOnUse">
<stop stop-color="#3305C1"/>
<stop offset="0.93" stop-color="#1C0951"/>
</linearGradient>
<linearGradient id="paint25_linear_110_219" x1="68.9114" y1="51.5467" x2="83.0439" y2="51.5467" gradientUnits="userSpaceOnUse">
<stop stop-color="#3305C1"/>
<stop offset="0.93" stop-color="#1C0951"/>
</linearGradient>
<linearGradient id="paint26_linear_110_219" x1="64.6393" y1="51.5389" x2="77.6643" y2="51.5389" gradientUnits="userSpaceOnUse">
<stop stop-color="#3305C1"/>
<stop offset="0.93" stop-color="#1C0951"/>
</linearGradient>
<linearGradient id="paint27_linear_110_219" x1="61.1511" y1="51.5153" x2="70.5584" y2="51.5153" gradientUnits="userSpaceOnUse">
<stop stop-color="#3305C1"/>
<stop offset="0.93" stop-color="#1C0951"/>
</linearGradient>
<linearGradient id="paint28_linear_110_219" x1="57.8931" y1="51.555" x2="62.7478" y2="51.555" gradientUnits="userSpaceOnUse">
<stop stop-color="#3305C1"/>
<stop offset="0.93" stop-color="#1C0951"/>
</linearGradient>
<linearGradient id="paint29_linear_110_219" x1="51.6431" y1="51.5702" x2="56.9509" y2="51.5702" gradientUnits="userSpaceOnUse">
<stop stop-color="#3305C1"/>
<stop offset="0.93" stop-color="#1C0951"/>
</linearGradient>
<linearGradient id="paint30_linear_110_219" x1="45.4146" y1="51.5702" x2="52.2903" y2="51.5702" gradientUnits="userSpaceOnUse">
<stop stop-color="#3305C1"/>
<stop offset="0.93" stop-color="#1C0951"/>
</linearGradient>
<linearGradient id="paint31_linear_110_219" x1="40.5456" y1="51.5702" x2="47.6442" y2="51.5702" gradientUnits="userSpaceOnUse">
<stop stop-color="#3305C1"/>
<stop offset="0.93" stop-color="#1C0951"/>
</linearGradient>
<linearGradient id="paint32_linear_110_219" x1="36.1655" y1="51.5702" x2="43.8899" y2="51.5702" gradientUnits="userSpaceOnUse">
<stop stop-color="#3305C1"/>
<stop offset="0.93" stop-color="#1C0951"/>
</linearGradient>
<linearGradient id="paint33_linear_110_219" x1="31.9294" y1="51.5629" x2="40.6175" y2="51.5629" gradientUnits="userSpaceOnUse">
<stop stop-color="#3305C1"/>
<stop offset="0.93" stop-color="#1C0951"/>
</linearGradient>
<linearGradient id="paint34_linear_110_219" x1="27.7005" y1="51.5546" x2="37.4027" y2="51.5546" gradientUnits="userSpaceOnUse">
<stop stop-color="#3305C1"/>
<stop offset="0.93" stop-color="#1C0951"/>
</linearGradient>
<linearGradient id="paint35_linear_110_219" x1="23.3563" y1="51.5546" x2="33.828" y2="51.5546" gradientUnits="userSpaceOnUse">
<stop stop-color="#3305C1"/>
<stop offset="0.93" stop-color="#1C0951"/>
</linearGradient>
<linearGradient id="paint36_linear_110_219" x1="18.8183" y1="51.555" x2="29.4555" y2="51.555" gradientUnits="userSpaceOnUse">
<stop stop-color="#3305C1"/>
<stop offset="0.93" stop-color="#1C0951"/>
</linearGradient>
<linearGradient id="paint37_linear_110_219" x1="14.8121" y1="51.5546" x2="24.0755" y2="51.5546" gradientUnits="userSpaceOnUse">
<stop stop-color="#3305C1"/>
<stop offset="0.93" stop-color="#1C0951"/>
</linearGradient>
<linearGradient id="paint38_linear_110_219" x1="11.3456" y1="51.555" x2="18.1926" y2="51.555" gradientUnits="userSpaceOnUse">
<stop stop-color="#3305C1"/>
<stop offset="0.93" stop-color="#1C0951"/>
</linearGradient>
<linearGradient id="paint39_linear_110_219" x1="8.05153" y1="51.555" x2="12.1582" y2="51.555" gradientUnits="userSpaceOnUse">
<stop stop-color="#3305C1"/>
<stop offset="0.93" stop-color="#1C0951"/>
</linearGradient>
<linearGradient id="paint40_linear_110_219" x1="4.85833" y1="51.5545" x2="5.75734" y2="51.5545" gradientUnits="userSpaceOnUse">
<stop stop-color="#3305C1"/>
<stop offset="0.93" stop-color="#1C0951"/>
</linearGradient>
</defs>
</svg>
