<svg width="1060" height="267" viewBox="0 0 1060 267" fill="none" xmlns="http://www.w3.org/2000/svg">
<g filter="url(#filter0_d_467_105)">
<path d="M445.027 233H426.707C426.238 233 425.73 232.948 425.184 232.844C424.65 232.727 424.116 232.551 423.582 232.316C423.061 232.082 422.56 231.783 422.078 231.418C421.596 231.04 421.167 230.591 420.789 230.07C420.424 229.536 420.132 228.924 419.91 228.234C419.689 227.531 419.578 226.743 419.578 225.871V212.121C419.578 211.652 419.63 211.151 419.734 210.617C419.852 210.07 420.027 209.536 420.262 209.016C420.496 208.482 420.802 207.974 421.18 207.492C421.557 207.01 422.007 206.587 422.527 206.223C423.061 205.845 423.673 205.546 424.363 205.324C425.053 205.103 425.835 204.992 426.707 204.992H445.027V210.07H426.707C426.043 210.07 425.535 210.246 425.184 210.598C424.832 210.949 424.656 211.47 424.656 212.16V225.871C424.656 226.522 424.832 227.03 425.184 227.395C425.548 227.746 426.056 227.922 426.707 227.922H445.027V233ZM471.961 225.871C471.961 226.743 471.85 227.531 471.629 228.234C471.408 228.924 471.115 229.536 470.75 230.07C470.385 230.591 469.962 231.04 469.48 231.418C468.999 231.783 468.491 232.082 467.957 232.316C467.436 232.551 466.902 232.727 466.355 232.844C465.822 232.948 465.314 233 464.832 233H455.672C454.969 233 454.201 232.876 453.367 232.629C452.534 232.382 451.759 231.978 451.043 231.418C450.34 230.845 449.747 230.109 449.266 229.211C448.797 228.299 448.562 227.186 448.562 225.871V218.996C448.562 217.694 448.797 216.594 449.266 215.695C449.747 214.784 450.34 214.048 451.043 213.488C451.759 212.915 452.534 212.505 453.367 212.258C454.201 212.01 454.969 211.887 455.672 211.887H464.832C466.134 211.887 467.241 212.121 468.152 212.59C469.064 213.059 469.799 213.651 470.359 214.367C470.919 215.07 471.323 215.839 471.57 216.672C471.831 217.505 471.961 218.28 471.961 218.996V225.871ZM466.883 219.035C466.883 218.332 466.707 217.811 466.355 217.473C466.004 217.134 465.496 216.965 464.832 216.965H455.711C455.034 216.965 454.52 217.141 454.168 217.492C453.816 217.831 453.641 218.332 453.641 218.996V225.871C453.641 226.535 453.816 227.043 454.168 227.395C454.52 227.746 455.034 227.922 455.711 227.922H464.832C465.522 227.922 466.036 227.746 466.375 227.395C466.714 227.043 466.883 226.535 466.883 225.871V219.035ZM499.461 225.871C499.461 226.743 499.35 227.531 499.129 228.234C498.908 228.924 498.615 229.536 498.25 230.07C497.885 230.591 497.462 231.04 496.98 231.418C496.499 231.783 495.991 232.082 495.457 232.316C494.936 232.551 494.402 232.727 493.855 232.844C493.322 232.948 492.814 233 492.332 233H483.172C482.299 233 481.518 232.889 480.828 232.668C480.138 232.447 479.526 232.154 478.992 231.789C478.471 231.411 478.022 230.982 477.645 230.5C477.28 230.018 476.98 229.517 476.746 228.996C476.512 228.462 476.336 227.928 476.219 227.395C476.115 226.848 476.062 226.34 476.062 225.871V218.996C476.062 217.694 476.297 216.594 476.766 215.695C477.247 214.784 477.84 214.048 478.543 213.488C479.259 212.915 480.034 212.505 480.867 212.258C481.701 212.01 482.469 211.887 483.172 211.887H492.332V216.965H483.211C482.534 216.965 482.02 217.141 481.668 217.492C481.316 217.831 481.141 218.332 481.141 218.996V225.832C481.141 226.522 481.31 227.043 481.648 227.395C482 227.746 482.508 227.922 483.172 227.922H492.332C493.022 227.922 493.536 227.746 493.875 227.395C494.214 227.043 494.383 226.535 494.383 225.871V202.961H499.461V225.871ZM527.02 218.879C527.02 219.582 526.896 220.344 526.648 221.164C526.401 221.971 525.997 222.727 525.438 223.43C524.891 224.12 524.168 224.699 523.27 225.168C522.384 225.637 521.303 225.871 520.027 225.871H510.867V221.047H520.027C520.717 221.047 521.251 220.839 521.629 220.422C522.007 219.992 522.195 219.465 522.195 218.84C522.195 218.176 521.98 217.655 521.551 217.277C521.134 216.9 520.626 216.711 520.027 216.711H510.867C510.177 216.711 509.643 216.926 509.266 217.355C508.888 217.772 508.699 218.293 508.699 218.918V226.008C508.699 226.685 508.908 227.212 509.324 227.59C509.754 227.967 510.281 228.156 510.906 228.156H520.027V233H510.867C510.164 233 509.402 232.876 508.582 232.629C507.775 232.382 507.02 231.984 506.316 231.438C505.626 230.878 505.047 230.155 504.578 229.27C504.109 228.371 503.875 227.284 503.875 226.008V218.879C503.875 218.176 503.999 217.421 504.246 216.613C504.493 215.793 504.891 215.038 505.438 214.348C505.997 213.645 506.72 213.059 507.605 212.59C508.504 212.121 509.591 211.887 510.867 211.887H520.027C520.73 211.887 521.486 212.01 522.293 212.258C523.113 212.505 523.868 212.909 524.559 213.469C525.262 214.016 525.848 214.738 526.316 215.637C526.785 216.522 527.02 217.603 527.02 218.879ZM562.137 216.965H550.652V211.887H562.137V216.965ZM562.137 207.805H550.691C550.001 207.805 549.48 207.98 549.129 208.332C548.777 208.671 548.602 209.172 548.602 209.836V233H543.523V209.836C543.523 208.964 543.634 208.182 543.855 207.492C544.077 206.802 544.37 206.197 544.734 205.676C545.112 205.142 545.542 204.693 546.023 204.328C546.505 203.951 547.007 203.645 547.527 203.41C548.061 203.176 548.595 203.007 549.129 202.902C549.663 202.785 550.171 202.727 550.652 202.727H562.137V207.805ZM588.367 225.871C588.367 226.743 588.257 227.531 588.035 228.234C587.814 228.924 587.521 229.536 587.156 230.07C586.792 230.591 586.368 231.04 585.887 231.418C585.405 231.783 584.897 232.082 584.363 232.316C583.842 232.551 583.309 232.727 582.762 232.844C582.228 232.948 581.72 233 581.238 233H572.078C571.375 233 570.607 232.876 569.773 232.629C568.94 232.382 568.165 231.978 567.449 231.418C566.746 230.845 566.154 230.109 565.672 229.211C565.203 228.299 564.969 227.186 564.969 225.871V218.996C564.969 217.694 565.203 216.594 565.672 215.695C566.154 214.784 566.746 214.048 567.449 213.488C568.165 212.915 568.94 212.505 569.773 212.258C570.607 212.01 571.375 211.887 572.078 211.887H581.238C582.54 211.887 583.647 212.121 584.559 212.59C585.47 213.059 586.206 213.651 586.766 214.367C587.326 215.07 587.729 215.839 587.977 216.672C588.237 217.505 588.367 218.28 588.367 218.996V225.871ZM583.289 219.035C583.289 218.332 583.113 217.811 582.762 217.473C582.41 217.134 581.902 216.965 581.238 216.965H572.117C571.44 216.965 570.926 217.141 570.574 217.492C570.223 217.831 570.047 218.332 570.047 218.996V225.871C570.047 226.535 570.223 227.043 570.574 227.395C570.926 227.746 571.44 227.922 572.117 227.922H581.238C581.928 227.922 582.443 227.746 582.781 227.395C583.12 227.043 583.289 226.535 583.289 225.871V219.035ZM611.18 216.965H599.754C599.064 216.965 598.543 217.141 598.191 217.492C597.84 217.831 597.664 218.332 597.664 218.996V233H592.586V218.996C592.586 218.124 592.697 217.342 592.918 216.652C593.139 215.962 593.432 215.357 593.797 214.836C594.174 214.302 594.604 213.853 595.086 213.488C595.568 213.111 596.069 212.805 596.59 212.57C597.124 212.336 597.658 212.167 598.191 212.062C598.738 211.945 599.246 211.887 599.715 211.887H611.18V216.965ZM648.836 226.008C648.836 226.711 648.712 227.473 648.465 228.293C648.217 229.1 647.814 229.855 647.254 230.559C646.707 231.249 645.984 231.828 645.086 232.297C644.201 232.766 643.12 233 641.844 233H632.684C631.98 233 631.219 232.876 630.398 232.629C629.591 232.382 628.836 231.984 628.133 231.438C627.443 230.878 626.863 230.155 626.395 229.27C625.926 228.371 625.691 227.284 625.691 226.008C625.691 225.305 625.815 224.543 626.062 223.723C626.31 222.902 626.707 222.147 627.254 221.457C627.814 220.754 628.536 220.168 629.422 219.699C630.32 219.23 631.408 218.996 632.684 218.996H641.844V223.84H632.684C631.993 223.84 631.46 224.055 631.082 224.484C630.704 224.901 630.516 225.422 630.516 226.047C630.516 226.711 630.73 227.232 631.16 227.609C631.603 227.974 632.124 228.156 632.723 228.156H641.844C642.534 228.156 643.068 227.948 643.445 227.531C643.823 227.115 644.012 226.594 644.012 225.969V218.879C644.012 218.215 643.803 217.688 643.387 217.297C642.983 216.906 642.469 216.711 641.844 216.711H630.691V211.887H641.844C642.547 211.887 643.302 212.01 644.109 212.258C644.93 212.505 645.685 212.909 646.375 213.469C647.078 214.016 647.664 214.738 648.133 215.637C648.602 216.522 648.836 217.603 648.836 218.879V226.008ZM689.148 235.031C689.148 235.904 689.038 236.685 688.816 237.375C688.595 238.078 688.302 238.69 687.938 239.211C687.573 239.745 687.15 240.194 686.668 240.559C686.186 240.936 685.678 241.242 685.145 241.477C684.624 241.711 684.09 241.88 683.543 241.984C683.009 242.102 682.501 242.16 682.02 242.16H672.859V237.082H682.02C682.71 237.082 683.224 236.906 683.562 236.555C683.901 236.203 684.07 235.695 684.07 235.031V218.996C684.07 218.332 683.901 217.831 683.562 217.492C683.224 217.141 682.71 216.965 682.02 216.965H672.859C672.234 216.965 671.74 217.16 671.375 217.551C671.01 217.928 670.828 218.41 670.828 218.996V225.871C670.828 226.535 671.004 227.043 671.355 227.395C671.707 227.746 672.221 227.922 672.898 227.922H682.02V233H672.859C672.378 233 671.87 232.948 671.336 232.844C670.802 232.727 670.268 232.551 669.734 232.316C669.214 232.082 668.712 231.783 668.23 231.418C667.749 231.04 667.326 230.591 666.961 230.07C666.596 229.536 666.303 228.924 666.082 228.234C665.861 227.531 665.75 226.743 665.75 225.871V218.996C665.75 218.514 665.802 218.007 665.906 217.473C666.023 216.939 666.199 216.411 666.434 215.891C666.668 215.357 666.967 214.849 667.332 214.367C667.71 213.885 668.159 213.462 668.68 213.098C669.214 212.733 669.826 212.44 670.516 212.219C671.206 211.997 671.987 211.887 672.859 211.887H682.02C682.501 211.887 683.009 211.945 683.543 212.062C684.09 212.167 684.624 212.336 685.145 212.57C685.678 212.805 686.186 213.111 686.668 213.488C687.15 213.853 687.573 214.302 687.938 214.836C688.302 215.357 688.595 215.962 688.816 216.652C689.038 217.342 689.148 218.124 689.148 218.996V235.031ZM712.273 216.965H700.848C700.158 216.965 699.637 217.141 699.285 217.492C698.934 217.831 698.758 218.332 698.758 218.996V233H693.68V218.996C693.68 218.124 693.79 217.342 694.012 216.652C694.233 215.962 694.526 215.357 694.891 214.836C695.268 214.302 695.698 213.853 696.18 213.488C696.661 213.111 697.163 212.805 697.684 212.57C698.217 212.336 698.751 212.167 699.285 212.062C699.832 211.945 700.34 211.887 700.809 211.887H712.273V216.965ZM738.27 218.879C738.27 219.582 738.146 220.344 737.898 221.164C737.651 221.971 737.247 222.727 736.688 223.43C736.141 224.12 735.418 224.699 734.52 225.168C733.634 225.637 732.553 225.871 731.277 225.871H722.117V221.047H731.277C731.967 221.047 732.501 220.839 732.879 220.422C733.257 219.992 733.445 219.465 733.445 218.84C733.445 218.176 733.23 217.655 732.801 217.277C732.384 216.9 731.876 216.711 731.277 216.711H722.117C721.427 216.711 720.893 216.926 720.516 217.355C720.138 217.772 719.949 218.293 719.949 218.918V226.008C719.949 226.685 720.158 227.212 720.574 227.59C721.004 227.967 721.531 228.156 722.156 228.156H731.277V233H722.117C721.414 233 720.652 232.876 719.832 232.629C719.025 232.382 718.27 231.984 717.566 231.438C716.876 230.878 716.297 230.155 715.828 229.27C715.359 228.371 715.125 227.284 715.125 226.008V218.879C715.125 218.176 715.249 217.421 715.496 216.613C715.743 215.793 716.141 215.038 716.688 214.348C717.247 213.645 717.97 213.059 718.855 212.59C719.754 212.121 720.841 211.887 722.117 211.887H731.277C731.98 211.887 732.736 212.01 733.543 212.258C734.363 212.505 735.118 212.909 735.809 213.469C736.512 214.016 737.098 214.738 737.566 215.637C738.035 216.522 738.27 217.603 738.27 218.879ZM764.402 218.879C764.402 219.582 764.279 220.344 764.031 221.164C763.784 221.971 763.38 222.727 762.82 223.43C762.273 224.12 761.551 224.699 760.652 225.168C759.767 225.637 758.686 225.871 757.41 225.871H748.25V221.047H757.41C758.1 221.047 758.634 220.839 759.012 220.422C759.389 219.992 759.578 219.465 759.578 218.84C759.578 218.176 759.363 217.655 758.934 217.277C758.517 216.9 758.009 216.711 757.41 216.711H748.25C747.56 216.711 747.026 216.926 746.648 217.355C746.271 217.772 746.082 218.293 746.082 218.918V226.008C746.082 226.685 746.29 227.212 746.707 227.59C747.137 227.967 747.664 228.156 748.289 228.156H757.41V233H748.25C747.547 233 746.785 232.876 745.965 232.629C745.158 232.382 744.402 231.984 743.699 231.438C743.009 230.878 742.43 230.155 741.961 229.27C741.492 228.371 741.258 227.284 741.258 226.008V218.879C741.258 218.176 741.382 217.421 741.629 216.613C741.876 215.793 742.273 215.038 742.82 214.348C743.38 213.645 744.103 213.059 744.988 212.59C745.887 212.121 746.974 211.887 748.25 211.887H757.41C758.113 211.887 758.868 212.01 759.676 212.258C760.496 212.505 761.251 212.909 761.941 213.469C762.645 214.016 763.23 214.738 763.699 215.637C764.168 216.522 764.402 217.603 764.402 218.879ZM791.219 233H786.141V221.281C786.141 220.617 786.023 220.025 785.789 219.504C785.568 218.97 785.262 218.514 784.871 218.137C784.48 217.759 784.018 217.473 783.484 217.277C782.964 217.069 782.397 216.965 781.785 216.965H772.898V233H767.82V214.406C767.82 214.055 767.885 213.729 768.016 213.43C768.146 213.117 768.328 212.85 768.562 212.629C768.797 212.395 769.07 212.212 769.383 212.082C769.695 211.952 770.027 211.887 770.379 211.887H781.824C782.462 211.887 783.133 211.958 783.836 212.102C784.552 212.245 785.255 212.479 785.945 212.805C786.648 213.117 787.312 213.521 787.938 214.016C788.576 214.497 789.135 215.09 789.617 215.793C790.112 216.483 790.503 217.284 790.789 218.195C791.076 219.107 791.219 220.135 791.219 221.281V233ZM818.387 218.879C818.387 219.582 818.263 220.344 818.016 221.164C817.768 221.971 817.365 222.727 816.805 223.43C816.258 224.12 815.535 224.699 814.637 225.168C813.751 225.637 812.671 225.871 811.395 225.871H802.234V221.047H811.395C812.085 221.047 812.618 220.839 812.996 220.422C813.374 219.992 813.562 219.465 813.562 218.84C813.562 218.176 813.348 217.655 812.918 217.277C812.501 216.9 811.993 216.711 811.395 216.711H802.234C801.544 216.711 801.01 216.926 800.633 217.355C800.255 217.772 800.066 218.293 800.066 218.918V226.008C800.066 226.685 800.275 227.212 800.691 227.59C801.121 227.967 801.648 228.156 802.273 228.156H811.395V233H802.234C801.531 233 800.77 232.876 799.949 232.629C799.142 232.382 798.387 231.984 797.684 231.438C796.993 230.878 796.414 230.155 795.945 229.27C795.477 228.371 795.242 227.284 795.242 226.008V218.879C795.242 218.176 795.366 217.421 795.613 216.613C795.861 215.793 796.258 215.038 796.805 214.348C797.365 213.645 798.087 213.059 798.973 212.59C799.871 212.121 800.958 211.887 802.234 211.887H811.395C812.098 211.887 812.853 212.01 813.66 212.258C814.48 212.505 815.236 212.909 815.926 213.469C816.629 214.016 817.215 214.738 817.684 215.637C818.152 216.522 818.387 217.603 818.387 218.879ZM840.281 216.965H828.855C828.165 216.965 827.645 217.141 827.293 217.492C826.941 217.831 826.766 218.332 826.766 218.996V233H821.688V218.996C821.688 218.124 821.798 217.342 822.02 216.652C822.241 215.962 822.534 215.357 822.898 214.836C823.276 214.302 823.706 213.853 824.188 213.488C824.669 213.111 825.171 212.805 825.691 212.57C826.225 212.336 826.759 212.167 827.293 212.062C827.84 211.945 828.348 211.887 828.816 211.887H840.281V216.965ZM875.027 216.965H863.543V211.887H875.027V216.965ZM875.027 207.805H863.582C862.892 207.805 862.371 207.98 862.02 208.332C861.668 208.671 861.492 209.172 861.492 209.836V233H856.414V209.836C856.414 208.964 856.525 208.182 856.746 207.492C856.967 206.802 857.26 206.197 857.625 205.676C858.003 205.142 858.432 204.693 858.914 204.328C859.396 203.951 859.897 203.645 860.418 203.41C860.952 203.176 861.486 203.007 862.02 202.902C862.553 202.785 863.061 202.727 863.543 202.727H875.027V207.805ZM901.453 230.441C901.453 230.806 901.388 231.145 901.258 231.457C901.128 231.77 900.945 232.043 900.711 232.277C900.49 232.499 900.223 232.674 899.91 232.805C899.611 232.935 899.285 233 898.934 233H887.449C886.824 233 886.154 232.928 885.438 232.785C884.734 232.642 884.038 232.414 883.348 232.102C882.658 231.776 881.987 231.372 881.336 230.891C880.698 230.396 880.138 229.803 879.656 229.113C879.174 228.41 878.784 227.603 878.484 226.691C878.198 225.78 878.055 224.751 878.055 223.605V211.887H883.133V223.605C883.133 224.27 883.243 224.868 883.465 225.402C883.699 225.923 884.012 226.372 884.402 226.75C884.793 227.128 885.249 227.421 885.77 227.629C886.303 227.824 886.876 227.922 887.488 227.922H896.375V211.887H901.453V230.441ZM925.418 216.965H916.551V233H911.414V216.965H904.812V211.887H911.414V204.992H916.551V211.887H925.418V216.965ZM951.844 230.441C951.844 230.806 951.779 231.145 951.648 231.457C951.518 231.77 951.336 232.043 951.102 232.277C950.88 232.499 950.613 232.674 950.301 232.805C950.001 232.935 949.676 233 949.324 233H937.84C937.215 233 936.544 232.928 935.828 232.785C935.125 232.642 934.428 232.414 933.738 232.102C933.048 231.776 932.378 231.372 931.727 230.891C931.089 230.396 930.529 229.803 930.047 229.113C929.565 228.41 929.174 227.603 928.875 226.691C928.589 225.78 928.445 224.751 928.445 223.605V211.887H933.523V223.605C933.523 224.27 933.634 224.868 933.855 225.402C934.09 225.923 934.402 226.372 934.793 226.75C935.184 227.128 935.639 227.421 936.16 227.629C936.694 227.824 937.267 227.922 937.879 227.922H946.766V211.887H951.844V230.441ZM975.086 216.965H963.66C962.97 216.965 962.449 217.141 962.098 217.492C961.746 217.831 961.57 218.332 961.57 218.996V233H956.492V218.996C956.492 218.124 956.603 217.342 956.824 216.652C957.046 215.962 957.339 215.357 957.703 214.836C958.081 214.302 958.51 213.853 958.992 213.488C959.474 213.111 959.975 212.805 960.496 212.57C961.03 212.336 961.564 212.167 962.098 212.062C962.645 211.945 963.152 211.887 963.621 211.887H975.086V216.965ZM1001.08 218.879C1001.08 219.582 1000.96 220.344 1000.71 221.164C1000.46 221.971 1000.06 222.727 999.5 223.43C998.953 224.12 998.23 224.699 997.332 225.168C996.447 225.637 995.366 225.871 994.09 225.871H984.93V221.047H994.09C994.78 221.047 995.314 220.839 995.691 220.422C996.069 219.992 996.258 219.465 996.258 218.84C996.258 218.176 996.043 217.655 995.613 217.277C995.197 216.9 994.689 216.711 994.09 216.711H984.93C984.24 216.711 983.706 216.926 983.328 217.355C982.951 217.772 982.762 218.293 982.762 218.918V226.008C982.762 226.685 982.97 227.212 983.387 227.59C983.816 227.967 984.344 228.156 984.969 228.156H994.09V233H984.93C984.227 233 983.465 232.876 982.645 232.629C981.837 232.382 981.082 231.984 980.379 231.438C979.689 230.878 979.109 230.155 978.641 229.27C978.172 228.371 977.938 227.284 977.938 226.008V218.879C977.938 218.176 978.061 217.421 978.309 216.613C978.556 215.793 978.953 215.038 979.5 214.348C980.06 213.645 980.783 213.059 981.668 212.59C982.566 212.121 983.654 211.887 984.93 211.887H994.09C994.793 211.887 995.548 212.01 996.355 212.258C997.176 212.505 997.931 212.909 998.621 213.469C999.324 214.016 999.91 214.738 1000.38 215.637C1000.85 216.522 1001.08 217.603 1001.08 218.879Z" fill="#EAE9FF"/>
</g>
<g filter="url(#filter1_d_467_105)">
<path d="M121.703 250H59.9688V227.453C59.9688 226.297 60.0938 225.078 60.3438 223.797C60.625 222.484 61.0469 221.188 61.6094 219.906C62.1719 218.625 62.8906 217.406 63.7656 216.25C64.6719 215.094 65.75 214.078 67 213.203C68.2812 212.297 69.75 211.578 71.4062 211.047C73.0625 210.516 74.9375 210.25 77.0312 210.25H104.5C106.156 210.25 107.375 209.844 108.156 209.031C108.969 208.188 109.375 206.969 109.375 205.375V199.984C109.375 198.328 108.969 197.078 108.156 196.234C107.344 195.391 106.156 194.969 104.594 194.969H65.4531V182.781H104.594C106.656 182.781 108.516 183.047 110.172 183.578C111.828 184.109 113.281 184.828 114.531 185.734C115.812 186.609 116.906 187.625 117.812 188.781C118.719 189.938 119.453 191.156 120.016 192.438C120.609 193.688 121.031 194.969 121.281 196.281C121.562 197.562 121.703 198.766 121.703 199.891V205.375C121.703 208.531 121.125 211.203 119.969 213.391C118.844 215.547 117.422 217.312 115.703 218.688C113.984 220.031 112.125 221.016 110.125 221.641C108.156 222.234 106.312 222.531 104.594 222.531H77.0312C76.0312 222.531 75.2344 222.672 74.6406 222.953C74.0469 223.234 73.5781 223.609 73.2344 224.078C72.9219 224.547 72.6875 225.078 72.5312 225.672C72.375 226.266 72.25 226.859 72.1562 227.453V237.812H121.703V250ZM210.859 221.875C210.859 224.625 210.5 227.234 209.781 229.703C209.094 232.141 208.109 234.406 206.828 236.5C205.547 238.594 204.031 240.469 202.281 242.125C200.531 243.781 198.609 245.203 196.516 246.391C194.453 247.547 192.25 248.438 189.906 249.062C187.562 249.688 185.172 250 182.734 250H160.75C158.281 250 155.875 249.688 153.531 249.062C151.188 248.438 148.969 247.547 146.875 246.391C144.812 245.203 142.906 243.781 141.156 242.125C139.406 240.469 137.891 238.594 136.609 236.5C135.359 234.406 134.375 232.141 133.656 229.703C132.969 227.234 132.625 224.625 132.625 221.875V210.906C132.625 206.781 133.391 203 134.922 199.562C136.484 196.125 138.562 193.172 141.156 190.703C143.75 188.203 146.734 186.266 150.109 184.891C153.516 183.484 157.062 182.781 160.75 182.781H182.734C185.172 182.781 187.562 183.094 189.906 183.719C192.25 184.344 194.453 185.25 196.516 186.438C198.609 187.594 200.531 189 202.281 190.656C204.031 192.312 205.547 194.188 206.828 196.281C208.109 198.375 209.094 200.656 209.781 203.125C210.5 205.562 210.859 208.156 210.859 210.906V221.875ZM198.578 210.906C198.578 208.5 198.141 206.312 197.266 204.344C196.391 202.375 195.219 200.688 193.75 199.281C192.312 197.875 190.641 196.797 188.734 196.047C186.828 195.297 184.828 194.938 182.734 194.969H160.75C158.719 194.938 156.734 195.297 154.797 196.047C152.891 196.766 151.188 197.828 149.688 199.234C148.219 200.609 147.031 202.297 146.125 204.297C145.25 206.266 144.812 208.469 144.812 210.906V221.875C144.812 224.312 145.25 226.516 146.125 228.484C147 230.453 148.172 232.141 149.641 233.547C151.109 234.922 152.797 235.984 154.703 236.734C156.641 237.484 158.656 237.844 160.75 237.812H182.734C185.141 237.812 187.312 237.422 189.25 236.641C191.219 235.828 192.891 234.719 194.266 233.312C195.641 231.906 196.703 230.234 197.453 228.297C198.203 226.328 198.578 224.188 198.578 221.875V210.906ZM193.281 202C193.75 202.688 194.062 203.438 194.219 204.25C194.375 205.031 194.375 205.812 194.219 206.594C194.062 207.344 193.75 208.062 193.281 208.75C192.844 209.406 192.266 209.969 191.547 210.438L158.641 232.422C158.109 232.828 157.562 233.109 157 233.266C156.438 233.422 155.859 233.5 155.266 233.5C154.266 233.5 153.312 233.266 152.406 232.797C151.5 232.328 150.766 231.656 150.203 230.781C149.734 230.094 149.422 229.359 149.266 228.578C149.109 227.766 149.094 226.984 149.219 226.234C149.375 225.453 149.672 224.734 150.109 224.078C150.547 223.391 151.125 222.812 151.844 222.344L184.844 200.359C185.531 199.891 186.266 199.578 187.047 199.422C187.859 199.266 188.641 199.266 189.391 199.422C190.172 199.578 190.891 199.875 191.547 200.312C192.234 200.75 192.812 201.312 193.281 202ZM282.859 250H221.125V227.453C221.125 226.297 221.25 225.078 221.5 223.797C221.781 222.484 222.203 221.188 222.766 219.906C223.328 218.625 224.047 217.406 224.922 216.25C225.828 215.094 226.906 214.078 228.156 213.203C229.438 212.297 230.906 211.578 232.562 211.047C234.219 210.516 236.094 210.25 238.188 210.25H265.656C267.312 210.25 268.531 209.844 269.312 209.031C270.125 208.188 270.531 206.969 270.531 205.375V199.984C270.531 198.328 270.125 197.078 269.312 196.234C268.5 195.391 267.312 194.969 265.75 194.969H226.609V182.781H265.75C267.812 182.781 269.672 183.047 271.328 183.578C272.984 184.109 274.438 184.828 275.688 185.734C276.969 186.609 278.062 187.625 278.969 188.781C279.875 189.938 280.609 191.156 281.172 192.438C281.766 193.688 282.188 194.969 282.438 196.281C282.719 197.562 282.859 198.766 282.859 199.891V205.375C282.859 208.531 282.281 211.203 281.125 213.391C280 215.547 278.578 217.312 276.859 218.688C275.141 220.031 273.281 221.016 271.281 221.641C269.312 222.234 267.469 222.531 265.75 222.531H238.188C237.188 222.531 236.391 222.672 235.797 222.953C235.203 223.234 234.734 223.609 234.391 224.078C234.078 224.547 233.844 225.078 233.688 225.672C233.531 226.266 233.406 226.859 233.312 227.453V237.812H282.859V250ZM306.344 210.25H338.781C340.5 210.25 342.344 210.562 344.312 211.188C346.312 211.781 348.172 212.766 349.891 214.141C351.609 215.484 353.031 217.25 354.156 219.438C355.312 221.625 355.891 224.297 355.891 227.453V232.891C355.891 234.047 355.75 235.266 355.469 236.547C355.219 237.828 354.797 239.109 354.203 240.391C353.641 241.641 352.906 242.844 352 244C351.125 245.156 350.047 246.188 348.766 247.094C347.516 247.969 346.062 248.672 344.406 249.203C342.75 249.734 340.875 250 338.781 250H316.703C315.203 250 313.594 249.828 311.875 249.484C310.188 249.141 308.516 248.594 306.859 247.844C305.203 247.062 303.594 246.094 302.031 244.938C300.5 243.75 299.156 242.328 298 240.672C296.844 238.984 295.906 237.047 295.188 234.859C294.5 232.672 294.156 230.203 294.156 227.453V205.375C294.156 202.625 294.5 200.156 295.188 197.969C295.906 195.781 296.844 193.859 298 192.203C299.156 190.516 300.5 189.078 302.031 187.891C303.594 186.703 305.203 185.734 306.859 184.984C308.516 184.203 310.188 183.641 311.875 183.297C313.594 182.953 315.203 182.781 316.703 182.781H347.266V194.969H316.703C315.141 195.094 313.719 195.422 312.438 195.953C311.188 196.484 310.109 197.188 309.203 198.062C308.297 198.938 307.594 200 307.094 201.25C306.594 202.469 306.344 203.844 306.344 205.375V210.25ZM306.344 222.531V227.453C306.344 229.047 306.609 230.484 307.141 231.766C307.703 233.016 308.453 234.094 309.391 235C310.328 235.906 311.422 236.609 312.672 237.109C313.953 237.578 315.328 237.812 316.797 237.812H338.781C340.344 237.812 341.531 237.344 342.344 236.406C343.188 235.469 343.609 234.297 343.609 232.891V227.453C343.609 225.859 343.203 224.641 342.391 223.797C341.578 222.953 340.344 222.531 338.688 222.531H306.344Z" fill="#05C174"/>
</g>
<path d="M10 42H50V82H90V42H130V142H90V102H50V142H10V42ZM150.039 52C150.039 49.3333 150.972 47 152.839 45C154.839 43 157.239 42 160.039 42H260.039C262.706 42 265.039 43 267.039 45C269.039 47 270.039 49.3333 270.039 52V142H230.039V102H190.039V142H150.039V52ZM230.039 81.6V62H190.039V81.6H230.039ZM390.078 42V62H330.078V122H390.078V142H300.078C297.278 142 294.878 141.067 292.878 139.2C291.011 137.2 290.078 134.8 290.078 132V52C290.078 49.3333 291.011 47 292.878 45C294.878 43 297.278 42 300.078 42H390.078ZM410 42H450V82H478.6L490 42H530L520 82C522.667 82 525 83 527 85C529 87 530 89.3333 530 92V142H490V102H450V142H410V42ZM550.039 42H650.039V62H590.039V82H650.039V102H590.039V142H550.039V42ZM669.961 42H769.961V62H709.961V82H769.961V102H709.961V122H769.961V142H669.961V42ZM909.883 42V62H829.883V82H899.883C902.549 82 904.883 83 906.883 85C908.883 87 909.883 89.3333 909.883 92V132C909.883 134.8 908.883 137.2 906.883 139.2C904.883 141.067 902.549 142 899.883 142H789.883V122H869.883V102H799.883C797.083 102 794.683 101.067 792.683 99.2C790.816 97.2 789.883 94.8 789.883 92V52C789.883 49.3333 790.816 47 792.683 45C794.683 43 797.083 42 799.883 42H909.883ZM929.922 42H1049.92V62H1009.92V142H969.922V62H929.922V42Z" fill="#EAE9FF"/>
<rect y="161" width="1060" height="4" fill="url(#paint0_linear_467_105)"/>
<defs>
<filter id="filter0_d_467_105" x="403.078" y="186.227" width="614.504" height="72.4336" filterUnits="userSpaceOnUse" color-interpolation-filters="sRGB">
<feFlood flood-opacity="0" result="BackgroundImageFix"/>
<feColorMatrix in="SourceAlpha" type="matrix" values="0 0 0 0 0 0 0 0 0 0 0 0 0 0 0 0 0 0 127 0" result="hardAlpha"/>
<feOffset/>
<feGaussianBlur stdDeviation="8.25"/>
<feComposite in2="hardAlpha" operator="out"/>
<feColorMatrix type="matrix" values="0 0 0 0 0.917647 0 0 0 0 0.913725 0 0 0 0 1 0 0 0 1 0"/>
<feBlend mode="normal" in2="BackgroundImageFix" result="effect1_dropShadow_467_105"/>
<feBlend mode="normal" in="SourceGraphic" in2="effect1_dropShadow_467_105" result="shape"/>
</filter>
<filter id="filter1_d_467_105" x="43.4688" y="166.281" width="328.922" height="100.219" filterUnits="userSpaceOnUse" color-interpolation-filters="sRGB">
<feFlood flood-opacity="0" result="BackgroundImageFix"/>
<feColorMatrix in="SourceAlpha" type="matrix" values="0 0 0 0 0 0 0 0 0 0 0 0 0 0 0 0 0 0 127 0" result="hardAlpha"/>
<feOffset/>
<feGaussianBlur stdDeviation="8.25"/>
<feComposite in2="hardAlpha" operator="out"/>
<feColorMatrix type="matrix" values="0 0 0 0 0.0196078 0 0 0 0 0.756863 0 0 0 0 0.454902 0 0 0 1 0"/>
<feBlend mode="normal" in2="BackgroundImageFix" result="effect1_dropShadow_467_105"/>
<feBlend mode="normal" in="SourceGraphic" in2="effect1_dropShadow_467_105" result="shape"/>
</filter>
<linearGradient id="paint0_linear_467_105" x1="1060" y1="163" x2="0" y2="163" gradientUnits="userSpaceOnUse">
<stop stop-color="#D7E200"/>
<stop offset="1" stop-color="#05C174"/>
</linearGradient>
</defs>
</svg>
