<svg width="540" height="426" viewBox="0 0 540 426" fill="none" xmlns="http://www.w3.org/2000/svg">
<g clip-path="url(#clip0_780_5821)">
<path d="M538.924 41.4774C538.924 128.666 538.924 215.867 538.924 303.056C488.116 303.056 437.295 303.033 386.487 303.033C380.496 309.733 374.49 316.444 368.499 323.144L68.9945 323.144C46.3458 309.162 23.7112 295.181 1.0625 281.199C1.62907 198.769 2.18148 116.328 2.74805 33.8987H20.156C24.3203 33.9329 28.4704 33.9672 32.6347 34.0014C32.6631 31.1366 32.6772 28.2603 32.6772 25.3726C32.7056 17.851 32.6772 10.3751 32.6064 2.94478C181.572 2.60237 314.108 2.12302 463.088 1.79202C488.371 15.0205 513.64 28.2489 538.924 41.4774Z" stroke="#05C174" stroke-width="3" stroke-miterlimit="10"/>
<path d="M50.3118 323.144H1.0625L1.0625 292.784L50.3118 323.144Z" stroke="#05C174" stroke-width="3" stroke-miterlimit="10"/>
<path d="M538.923 28.8765V1.79184L485.779 0.924385L538.923 28.8765Z" stroke="#05C174" stroke-width="3" stroke-miterlimit="10"/>
<path d="M538.725 310.361C538.796 314.618 538.853 318.887 538.923 323.144H382.379C385.892 318.978 389.419 314.812 392.932 310.646C441.53 310.543 490.127 310.452 538.739 310.349L538.725 310.361Z" stroke="#05C174" stroke-width="2" stroke-miterlimit="10"/>
<path d="M527.521 313.009V320.633H534.108V313.009H527.521Z" fill="#05C174" stroke="#05C174" stroke-width="1.5" stroke-miterlimit="10"/>
<path d="M515.34 312.963V320.587H521.926V312.963H515.34Z" fill="#05C174" stroke="#05C174" stroke-width="1.5" stroke-miterlimit="10"/>
<path d="M503.159 312.963V320.587H509.745V312.963H503.159Z" fill="#05C174" stroke="#05C174" stroke-width="1.5" stroke-miterlimit="10"/>
<path d="M490.978 312.963V320.587H497.564V312.963H490.978Z" fill="#05C174" stroke="#05C174" stroke-width="1.5" stroke-miterlimit="10"/>
<path d="M478.796 312.963V320.587H485.382V312.963H478.796Z" fill="#05C174" stroke="#05C174" stroke-width="1.5" stroke-miterlimit="10"/>
<path d="M466.615 312.963V320.587H473.201V312.963H466.615Z" fill="#05C174" stroke="#05C174" stroke-width="1.5" stroke-miterlimit="10"/>
<path d="M454.434 312.963V320.587H461.02V312.963H454.434Z" fill="#05C174" stroke="#05C174" stroke-width="1.5" stroke-miterlimit="10"/>
<path d="M495 254.56V237.64L535 258.3V275.21L495 254.56Z" fill="#05B0C1"/>
<path d="M495 233.49V216.58L535 237.23V254.15L495 233.49Z" fill="#05B0C1"/>
<path d="M495 212.43V195.51L535 216.17V233.09L495 212.43Z" fill="#05B0C1"/>
<path d="M495 191.37V174.45L535 195.1V212.02L495 191.37Z" fill="#05B0C1"/>
<path d="M495 170.3V153.38L535 174.04V190.96L495 170.3Z" fill="#05B0C1"/>
<path d="M495 149.24V132.32L535 152.97V169.89L495 149.24Z" fill="#05B0C1"/>
<path d="M495 128.17V111.25L535 131.91V148.83L495 128.17Z" fill="#05B0C1"/>
<path d="M495 107.11V90.1899L535 110.85V127.76L495 107.11Z" fill="#05B0C1"/>
<path d="M495 86.04V69.1199L535 89.78V106.7L495 86.04Z" fill="#05B0C1"/>
<path d="M495 64.98V48.0601L535 68.72V85.6399L495 64.98Z" fill="#05B0C1"/>
<path d="M495 43.9099V27L535 47.6499V64.5701L495 43.9099Z" fill="#05B0C1"/>
<path d="M535 279.5L495 260V296H535V279.5Z" fill="#05B0C1"/>
</g>
<g clip-path="url(#clip1_780_5821)">
<path d="M538.599 341.342H2.41064V392.667H538.599V341.342Z" stroke="url(#paint0_linear_780_5821)" stroke-width="2.8" stroke-miterlimit="10"/>
<path d="M384.674 348.869H348.354V384.795H384.674V348.869Z" fill="url(#paint1_linear_780_5821)"/>
<path d="M342.419 348.869H306.099V384.795H342.419V348.869Z" fill="url(#paint2_linear_780_5821)"/>
<path d="M300.163 348.869H263.844V384.795H300.163V348.869Z" fill="url(#paint3_linear_780_5821)"/>
<path d="M257.908 348.869H221.588V384.795H257.908V348.869Z" fill="url(#paint4_linear_780_5821)"/>
<path d="M215.663 348.869H179.343V384.795H215.663V348.869Z" fill="url(#paint5_linear_780_5821)"/>
<path d="M173.408 348.869H137.088V384.795H173.408V348.869Z" fill="url(#paint6_linear_780_5821)"/>
<path d="M131.152 348.869H94.8325V384.795H131.152V348.869Z" fill="url(#paint7_linear_780_5821)"/>
<path d="M88.8968 348.869H52.5771V384.795H88.8968V348.869Z" fill="url(#paint8_linear_780_5821)"/>
<path d="M46.6414 348.869H10.3218V384.795H46.6414V348.869Z" fill="url(#paint9_linear_780_5821)"/>
</g>
<path d="M487.234 404.625C487.411 404.948 487.5 405.292 487.5 405.656C487.5 406.01 487.411 406.349 487.234 406.672L475.969 426H471.266L481.922 407.656H468.766V403.594H485.469C485.833 403.594 486.172 403.688 486.484 403.875C486.807 404.052 487.057 404.302 487.234 404.625ZM510.828 420.297C510.828 420.682 510.781 421.089 510.688 421.516C510.604 421.943 510.464 422.37 510.266 422.797C510.078 423.214 509.833 423.615 509.531 424C509.24 424.385 508.88 424.729 508.453 425.031C508.036 425.323 507.552 425.557 507 425.734C506.448 425.911 505.828 426 505.141 426H490.25V421.938H505.141C505.651 421.938 506.042 421.781 506.312 421.469C506.594 421.156 506.734 420.766 506.734 420.297V418.484C506.734 417.953 506.599 417.547 506.328 417.266C506.057 416.984 505.651 416.844 505.109 416.844H495.953C494.901 416.844 494.01 416.656 493.281 416.281C492.562 415.896 491.979 415.417 491.531 414.844C491.083 414.271 490.755 413.651 490.547 412.984C490.349 412.318 490.25 411.698 490.25 411.125V403.594H508.969V407.656H494.312V411.125C494.312 411.667 494.453 412.073 494.734 412.344C495.016 412.615 495.422 412.75 495.953 412.75H505.141C505.703 412.75 506.318 412.854 506.984 413.062C507.651 413.26 508.266 413.589 508.828 414.047C509.401 414.495 509.875 415.083 510.25 415.812C510.635 416.542 510.828 417.432 510.828 418.484V420.297ZM538.766 420.297C538.766 421.026 538.625 421.714 538.344 422.359C538.073 422.995 537.698 423.552 537.219 424.031C536.74 424.51 536.177 424.891 535.531 425.172C534.896 425.443 534.214 425.578 533.484 425.578C532.745 425.578 532.052 425.443 531.406 425.172C530.771 424.891 530.208 424.51 529.719 424.031C529.24 423.552 528.859 422.995 528.578 422.359C528.307 421.714 528.172 421.026 528.172 420.297C528.172 419.568 528.307 418.885 528.578 418.25C528.859 417.604 529.24 417.042 529.719 416.562C530.208 416.073 530.771 415.688 531.406 415.406C532.052 415.125 532.745 414.984 533.484 414.984C534.214 414.984 534.896 415.125 535.531 415.406C536.177 415.688 536.74 416.073 537.219 416.562C537.698 417.042 538.073 417.604 538.344 418.25C538.625 418.885 538.766 419.568 538.766 420.297ZM533.641 405.641L522.125 425.812H518.375L529.906 405.641H533.641ZM524.109 411.125C524.109 411.865 523.969 412.557 523.688 413.203C523.417 413.839 523.036 414.401 522.547 414.891C522.068 415.37 521.505 415.75 520.859 416.031C520.214 416.302 519.526 416.438 518.797 416.438C518.068 416.438 517.38 416.302 516.734 416.031C516.099 415.75 515.542 415.37 515.062 414.891C514.583 414.401 514.203 413.839 513.922 413.203C513.651 412.557 513.516 411.865 513.516 411.125C513.516 410.396 513.651 409.714 513.922 409.078C514.203 408.432 514.583 407.87 515.062 407.391C515.542 406.911 516.099 406.536 516.734 406.266C517.38 405.984 518.068 405.844 518.797 405.844C519.526 405.844 520.214 405.984 520.859 406.266C521.505 406.536 522.068 406.911 522.547 407.391C523.036 407.87 523.417 408.432 523.688 409.078C523.969 409.714 524.109 410.396 524.109 411.125ZM535.5 420.297C535.5 420.016 535.448 419.755 535.344 419.516C535.24 419.266 535.094 419.047 534.906 418.859C534.729 418.672 534.516 418.526 534.266 418.422C534.026 418.307 533.766 418.25 533.484 418.25C533.203 418.25 532.938 418.307 532.688 418.422C532.438 418.526 532.219 418.672 532.031 418.859C531.854 419.047 531.708 419.266 531.594 419.516C531.49 419.755 531.438 420.016 531.438 420.297C531.438 420.578 531.49 420.844 531.594 421.094C531.708 421.333 531.854 421.547 532.031 421.734C532.219 421.911 532.438 422.052 532.688 422.156C532.938 422.26 533.203 422.312 533.484 422.312C533.766 422.312 534.026 422.26 534.266 422.156C534.516 422.052 534.729 421.911 534.906 421.734C535.094 421.547 535.24 421.333 535.344 421.094C535.448 420.844 535.5 420.578 535.5 420.297ZM520.844 411.125C520.844 410.844 520.792 410.583 520.688 410.344C520.583 410.094 520.438 409.88 520.25 409.703C520.073 409.516 519.859 409.37 519.609 409.266C519.359 409.161 519.089 409.109 518.797 409.109C518.516 409.109 518.25 409.161 518 409.266C517.76 409.37 517.547 409.516 517.359 409.703C517.182 409.88 517.042 410.094 516.938 410.344C516.833 410.583 516.781 410.844 516.781 411.125C516.781 411.406 516.833 411.672 516.938 411.922C517.042 412.172 517.182 412.391 517.359 412.578C517.547 412.766 517.76 412.911 518 413.016C518.25 413.12 518.516 413.172 518.797 413.172C519.089 413.172 519.359 413.12 519.609 413.016C519.859 412.911 520.073 412.766 520.25 412.578C520.438 412.391 520.583 412.172 520.688 411.922C520.792 411.672 520.844 411.406 520.844 411.125Z" fill="#05C174"/>
<g filter="url(#filter0_d_780_5821)">
<path d="M67.2871 29.7051H58.4678V26.8906H67.2871V29.7051ZM68.5439 36H58.4678C58.0811 36 57.6585 35.932 57.2002 35.7959C56.7419 35.6598 56.3158 35.4378 55.9219 35.1299C55.5352 34.8148 55.2093 34.4102 54.9443 33.916C54.6865 33.4147 54.5576 32.8024 54.5576 32.0791V22.0029C54.5576 21.8096 54.5934 21.627 54.665 21.4551C54.7367 21.2832 54.8333 21.1328 54.9551 21.0039C55.084 20.875 55.2344 20.7747 55.4062 20.7031C55.5781 20.6315 55.7643 20.5957 55.9648 20.5957H68.5439V23.3887H57.3506V32.0791C57.3506 32.4443 57.4473 32.7236 57.6406 32.917C57.834 33.1104 58.1169 33.207 58.4893 33.207H68.5439V36ZM86.666 20.5957L79.3721 35.4521C79.2575 35.6813 79.0856 35.8639 78.8564 36C78.6344 36.1432 78.3874 36.2148 78.1152 36.2148C77.8503 36.2148 77.6032 36.1432 77.374 36C77.152 35.8639 76.9801 35.6813 76.8584 35.4521L69.5752 20.5957H72.7012L78.1152 31.6924L83.5508 20.5957H86.666ZM100.91 29.7051H92.0908V26.8906H100.91V29.7051ZM102.167 36H92.0908C91.7041 36 91.2816 35.932 90.8232 35.7959C90.3649 35.6598 89.9388 35.4378 89.5449 35.1299C89.1582 34.8148 88.8324 34.4102 88.5674 33.916C88.3096 33.4147 88.1807 32.8024 88.1807 32.0791V22.0029C88.1807 21.8096 88.2165 21.627 88.2881 21.4551C88.3597 21.2832 88.4564 21.1328 88.5781 21.0039C88.707 20.875 88.8574 20.7747 89.0293 20.7031C89.2012 20.6315 89.3874 20.5957 89.5879 20.5957H102.167V23.3887H90.9736V32.0791C90.9736 32.4443 91.0703 32.7236 91.2637 32.917C91.457 33.1104 91.7399 33.207 92.1123 33.207H102.167V36ZM120.268 25.7734C120.268 26.4108 120.189 26.9801 120.031 27.4814C119.874 27.9827 119.659 28.4268 119.387 28.8135C119.122 29.193 118.814 29.5189 118.463 29.791C118.112 30.0632 117.743 30.2887 117.356 30.4678C116.977 30.6396 116.59 30.765 116.196 30.8438C115.81 30.9225 115.444 30.9619 115.101 30.9619L120.934 36H116.615L110.793 30.9619H108.784V28.1689H115.101C115.451 28.1403 115.77 28.0687 116.057 27.9541C116.35 27.8324 116.601 27.6712 116.809 27.4707C117.023 27.2702 117.188 27.0303 117.303 26.751C117.417 26.4645 117.475 26.1387 117.475 25.7734V24.0117C117.475 23.8542 117.453 23.736 117.41 23.6572C117.374 23.5713 117.324 23.5104 117.26 23.4746C117.202 23.4316 117.138 23.4066 117.066 23.3994C117.002 23.3923 116.941 23.3887 116.884 23.3887H107.667V36H104.874V22.0029C104.874 21.8096 104.91 21.627 104.981 21.4551C105.053 21.2832 105.15 21.1328 105.271 21.0039C105.4 20.875 105.551 20.7747 105.723 20.7031C105.895 20.6315 106.081 20.5957 106.281 20.5957H116.884C117.507 20.5957 118.033 20.7103 118.463 20.9395C118.893 21.1615 119.24 21.4443 119.505 21.7881C119.777 22.1247 119.97 22.4899 120.085 22.8838C120.207 23.2777 120.268 23.6465 120.268 23.9902V25.7734ZM137.745 25.752C137.745 26.3893 137.663 26.9587 137.498 27.46C137.34 27.9613 137.129 28.4053 136.864 28.792C136.599 29.1715 136.288 29.4974 135.93 29.7695C135.579 30.0417 135.214 30.2673 134.834 30.4463C134.454 30.6182 134.068 30.7435 133.674 30.8223C133.287 30.901 132.922 30.9404 132.578 30.9404H131.45V36H128.636V30.9404H127.519C127.175 30.9404 126.806 30.901 126.412 30.8223C126.025 30.7435 125.639 30.6182 125.252 30.4463C124.872 30.2673 124.507 30.0417 124.156 29.7695C123.805 29.4974 123.494 29.1715 123.222 28.792C122.957 28.4053 122.742 27.9613 122.577 27.46C122.42 26.9515 122.341 26.3822 122.341 25.752V20.5957H125.134V25.752C125.134 26.1172 125.191 26.4466 125.306 26.7402C125.42 27.0267 125.581 27.2738 125.789 27.4814C125.997 27.6891 126.247 27.8503 126.541 27.9648C126.842 28.0723 127.175 28.126 127.54 28.126H132.578C132.843 28.083 133.115 28.0293 133.395 27.9648C133.674 27.8932 133.928 27.7751 134.157 27.6104C134.386 27.4456 134.576 27.2165 134.727 26.9229C134.877 26.6292 134.952 26.2389 134.952 25.752V20.5957H137.745V25.752ZM154.181 23.3887H148.025V36H145.232V23.3887H139.066V20.5957H154.181V23.3887ZM159.058 26.8906H168.865V20.5957H171.658V36H168.865V29.7051H159.058V36H156.265V20.5957H159.058V26.8906ZM177.749 36H174.956V20.5957H177.749V36ZM196.408 34.8076C196.408 35.0081 196.369 35.1943 196.29 35.3662C196.218 35.5381 196.118 35.6885 195.989 35.8174C195.868 35.9391 195.721 36.0358 195.549 36.1074C195.377 36.179 195.194 36.2148 195.001 36.2148C194.829 36.2148 194.654 36.1826 194.475 36.1182C194.303 36.0537 194.149 35.9499 194.013 35.8066L183.808 25.1504V36H181.015V21.7881C181.015 21.5016 181.093 21.2438 181.251 21.0146C181.416 20.7783 181.623 20.6029 181.874 20.4883C182.139 20.3809 182.411 20.3558 182.69 20.4131C182.97 20.4632 183.21 20.5921 183.41 20.7998L193.615 31.4453V20.5957H196.408V34.8076ZM214.863 34.5928C214.863 34.7933 214.827 34.9795 214.756 35.1514C214.684 35.3232 214.584 35.4736 214.455 35.6025C214.333 35.7243 214.187 35.821 214.015 35.8926C213.843 35.9642 213.657 36 213.456 36H203.38C203.122 36 202.843 35.9714 202.542 35.9141C202.248 35.8496 201.955 35.7529 201.661 35.624C201.375 35.4951 201.099 35.3304 200.834 35.1299C200.569 34.9222 200.333 34.6751 200.125 34.3887C199.924 34.0951 199.763 33.7585 199.642 33.3789C199.52 32.9922 199.459 32.5589 199.459 32.0791V24.5166C199.459 24.2588 199.488 23.9831 199.545 23.6895C199.609 23.3887 199.706 23.0951 199.835 22.8086C199.964 22.515 200.132 22.2357 200.34 21.9707C200.548 21.7057 200.795 21.473 201.081 21.2725C201.375 21.0648 201.711 20.9001 202.091 20.7783C202.47 20.6566 202.9 20.5957 203.38 20.5957H214.734V23.3887H203.38C203.015 23.3887 202.735 23.4854 202.542 23.6787C202.349 23.8721 202.252 24.1585 202.252 24.5381V32.0791C202.252 32.4372 202.349 32.7165 202.542 32.917C202.743 33.1104 203.022 33.207 203.38 33.207H212.07V29.7051H204.637V26.8906H213.456C213.657 26.8906 213.843 26.93 214.015 27.0088C214.187 27.0804 214.333 27.1807 214.455 27.3096C214.584 27.4385 214.684 27.5889 214.756 27.7607C214.827 27.9255 214.863 28.1045 214.863 28.2979V34.5928ZM239.409 25.752C239.409 26.3893 239.327 26.9587 239.162 27.46C239.005 27.9613 238.793 28.4053 238.528 28.792C238.263 29.1715 237.952 29.4974 237.594 29.7695C237.243 30.0417 236.878 30.2673 236.498 30.4463C236.118 30.6182 235.732 30.7435 235.338 30.8223C234.951 30.901 234.586 30.9404 234.242 30.9404H233.114V36H230.3V30.9404H229.183C228.839 30.9404 228.47 30.901 228.076 30.8223C227.689 30.7435 227.303 30.6182 226.916 30.4463C226.536 30.2673 226.171 30.0417 225.82 29.7695C225.469 29.4974 225.158 29.1715 224.886 28.792C224.621 28.4053 224.406 27.9613 224.241 27.46C224.084 26.9515 224.005 26.3822 224.005 25.752V20.5957H226.798V25.752C226.798 26.1172 226.855 26.4466 226.97 26.7402C227.084 27.0267 227.245 27.2738 227.453 27.4814C227.661 27.6891 227.911 27.8503 228.205 27.9648C228.506 28.0723 228.839 28.126 229.204 28.126H234.242C234.507 28.083 234.779 28.0293 235.059 27.9648C235.338 27.8932 235.592 27.7751 235.821 27.6104C236.05 27.4456 236.24 27.2165 236.391 26.9229C236.541 26.6292 236.616 26.2389 236.616 25.752V20.5957H239.409V25.752ZM258.09 29.7695C258.09 30.7077 257.929 31.5706 257.606 32.3584C257.284 33.1462 256.837 33.8265 256.264 34.3994C255.691 34.9723 255.01 35.4199 254.223 35.7422C253.442 36.0573 252.59 36.2148 251.666 36.2148H247.885C246.961 36.2148 246.105 36.0573 245.317 35.7422C244.53 35.4199 243.849 34.9723 243.276 34.3994C242.703 33.8265 242.252 33.1462 241.923 32.3584C241.601 31.5706 241.439 30.7077 241.439 29.7695V26.8262C241.439 25.8952 241.601 25.0358 241.923 24.248C242.252 23.4531 242.703 22.7728 243.276 22.207C243.849 21.6341 244.53 21.1865 245.317 20.8643C246.105 20.542 246.961 20.3809 247.885 20.3809H251.666C252.59 20.3809 253.442 20.542 254.223 20.8643C255.01 21.1865 255.691 21.6341 256.264 22.207C256.837 22.7728 257.284 23.4531 257.606 24.248C257.929 25.0358 258.09 25.8952 258.09 26.8262V29.7695ZM255.297 26.8262C255.297 26.2747 255.207 25.777 255.028 25.333C254.856 24.8818 254.609 24.4987 254.287 24.1836C253.972 23.8613 253.589 23.6143 253.138 23.4424C252.694 23.2633 252.203 23.1738 251.666 23.1738H247.885C247.34 23.1738 246.843 23.2633 246.392 23.4424C245.948 23.6143 245.564 23.8613 245.242 24.1836C244.92 24.4987 244.669 24.8818 244.49 25.333C244.318 25.777 244.232 26.2747 244.232 26.8262V29.7695C244.232 30.321 244.318 30.8223 244.49 31.2734C244.669 31.7174 244.92 32.1006 245.242 32.4229C245.564 32.738 245.948 32.985 246.392 33.1641C246.843 33.3359 247.34 33.4219 247.885 33.4219H251.645C252.189 33.4219 252.683 33.3359 253.127 33.1641C253.578 32.985 253.965 32.738 254.287 32.4229C254.609 32.1006 254.856 31.7174 255.028 31.2734C255.207 30.8223 255.297 30.321 255.297 29.7695V26.8262ZM275.943 34.5928C275.943 34.7933 275.908 34.9795 275.836 35.1514C275.764 35.3232 275.664 35.4736 275.535 35.6025C275.406 35.7243 275.256 35.821 275.084 35.8926C274.912 35.9642 274.729 36 274.536 36H268.241C267.647 36 267.045 35.9355 266.437 35.8066C265.828 35.6777 265.237 35.4808 264.664 35.2158C264.098 34.9437 263.565 34.5999 263.063 34.1846C262.562 33.7692 262.122 33.2786 261.742 32.7129C261.37 32.14 261.076 31.4883 260.861 30.7578C260.646 30.0202 260.539 29.2002 260.539 28.2979V20.5957H263.332V28.2979C263.332 29.0856 263.439 29.7516 263.654 30.2959C263.876 30.8402 264.156 31.2949 264.492 31.6602C264.829 32.0254 265.198 32.3118 265.599 32.5195C266 32.7272 266.379 32.8812 266.737 32.9814C267.103 33.0817 267.421 33.1462 267.693 33.1748C267.973 33.1963 268.155 33.207 268.241 33.207H273.15V20.5957H275.943V34.5928ZM301.746 34.8076C301.746 35.0081 301.707 35.1943 301.628 35.3662C301.556 35.5381 301.456 35.6885 301.327 35.8174C301.205 35.9391 301.059 36.0358 300.887 36.1074C300.715 36.179 300.532 36.2148 300.339 36.2148C300.167 36.2148 299.992 36.1826 299.812 36.1182C299.641 36.0537 299.487 35.9499 299.351 35.8066L289.146 25.1504V36H286.353V21.7881C286.353 21.5016 286.431 21.2438 286.589 21.0146C286.754 20.7783 286.961 20.6029 287.212 20.4883C287.477 20.3809 287.749 20.3558 288.028 20.4131C288.308 20.4632 288.548 20.5921 288.748 20.7998L298.953 31.4453V20.5957H301.746V34.8076ZM317.666 29.7051H308.847V26.8906H317.666V29.7051ZM318.923 36H308.847C308.46 36 308.037 35.932 307.579 35.7959C307.121 35.6598 306.695 35.4378 306.301 35.1299C305.914 34.8148 305.588 34.4102 305.323 33.916C305.065 33.4147 304.937 32.8024 304.937 32.0791V22.0029C304.937 21.8096 304.972 21.627 305.044 21.4551C305.116 21.2832 305.212 21.1328 305.334 21.0039C305.463 20.875 305.613 20.7747 305.785 20.7031C305.957 20.6315 306.143 20.5957 306.344 20.5957H318.923V23.3887H307.729V32.0791C307.729 32.4443 307.826 32.7236 308.02 32.917C308.213 33.1104 308.496 33.207 308.868 33.207H318.923V36ZM334.295 29.7051H325.476V26.8906H334.295V29.7051ZM335.552 36H325.476C325.089 36 324.666 35.932 324.208 35.7959C323.75 35.6598 323.324 35.4378 322.93 35.1299C322.543 34.8148 322.217 34.4102 321.952 33.916C321.694 33.4147 321.565 32.8024 321.565 32.0791V22.0029C321.565 21.8096 321.601 21.627 321.673 21.4551C321.744 21.2832 321.841 21.1328 321.963 21.0039C322.092 20.875 322.242 20.7747 322.414 20.7031C322.586 20.6315 322.772 20.5957 322.973 20.5957H335.552V23.3887H324.358V32.0791C324.358 32.4443 324.455 32.7236 324.648 32.917C324.842 33.1104 325.125 33.207 325.497 33.207H335.552V36ZM353.631 29.5547C353.631 30.4928 353.466 31.3558 353.137 32.1436C352.814 32.9313 352.367 33.6117 351.794 34.1846C351.221 34.7503 350.541 35.1943 349.753 35.5166C348.965 35.8389 348.109 36 347.186 36H339.645C339.444 36 339.258 35.9642 339.086 35.8926C338.914 35.821 338.764 35.7243 338.635 35.6025C338.513 35.4736 338.416 35.3232 338.345 35.1514C338.273 34.9795 338.237 34.7933 338.237 34.5928V22.0029C338.237 21.8096 338.273 21.627 338.345 21.4551C338.416 21.2832 338.513 21.1328 338.635 21.0039C338.764 20.875 338.914 20.7747 339.086 20.7031C339.258 20.6315 339.444 20.5957 339.645 20.5957H347.186C348.109 20.5957 348.965 20.7568 349.753 21.0791C350.541 21.4014 351.221 21.849 351.794 22.4219C352.367 22.9876 352.814 23.668 353.137 24.4629C353.466 25.2507 353.631 26.11 353.631 27.041V29.5547ZM350.838 27.041C350.838 26.4967 350.748 25.999 350.569 25.5479C350.397 25.0967 350.15 24.7135 349.828 24.3984C349.506 24.0762 349.119 23.8291 348.668 23.6572C348.224 23.4782 347.73 23.3887 347.186 23.3887H341.03V33.207H347.186C347.73 33.207 348.224 33.1211 348.668 32.9492C349.119 32.7702 349.506 32.5231 349.828 32.208C350.15 31.8857 350.397 31.5026 350.569 31.0586C350.748 30.6074 350.838 30.1061 350.838 29.5547V27.041ZM377.21 23.3887H371.055V36H368.262V23.3887H362.096V20.5957H377.21V23.3887ZM395.225 29.7695C395.225 30.7077 395.063 31.5706 394.741 32.3584C394.419 33.1462 393.971 33.8265 393.398 34.3994C392.826 34.9723 392.145 35.4199 391.357 35.7422C390.577 36.0573 389.725 36.2148 388.801 36.2148H385.02C384.096 36.2148 383.24 36.0573 382.452 35.7422C381.664 35.4199 380.984 34.9723 380.411 34.3994C379.838 33.8265 379.387 33.1462 379.058 32.3584C378.735 31.5706 378.574 30.7077 378.574 29.7695V26.8262C378.574 25.8952 378.735 25.0358 379.058 24.248C379.387 23.4531 379.838 22.7728 380.411 22.207C380.984 21.6341 381.664 21.1865 382.452 20.8643C383.24 20.542 384.096 20.3809 385.02 20.3809H388.801C389.725 20.3809 390.577 20.542 391.357 20.8643C392.145 21.1865 392.826 21.6341 393.398 22.207C393.971 22.7728 394.419 23.4531 394.741 24.248C395.063 25.0358 395.225 25.8952 395.225 26.8262V29.7695ZM392.432 26.8262C392.432 26.2747 392.342 25.777 392.163 25.333C391.991 24.8818 391.744 24.4987 391.422 24.1836C391.107 23.8613 390.724 23.6143 390.272 23.4424C389.828 23.2633 389.338 23.1738 388.801 23.1738H385.02C384.475 23.1738 383.978 23.2633 383.526 23.4424C383.082 23.6143 382.699 23.8613 382.377 24.1836C382.055 24.4987 381.804 24.8818 381.625 25.333C381.453 25.777 381.367 26.2747 381.367 26.8262V29.7695C381.367 30.321 381.453 30.8223 381.625 31.2734C381.804 31.7174 382.055 32.1006 382.377 32.4229C382.699 32.738 383.082 32.985 383.526 33.1641C383.978 33.3359 384.475 33.4219 385.02 33.4219H388.779C389.324 33.4219 389.818 33.3359 390.262 33.1641C390.713 32.985 391.1 32.738 391.422 32.4229C391.744 32.1006 391.991 31.7174 392.163 31.2734C392.342 30.8223 392.432 30.321 392.432 29.7695V26.8262ZM421.285 36H417.321L411.037 29.7051H409.071V26.8906H411.037L417.321 20.5957H421.285L413.368 28.2979L421.285 36ZM407.954 36H405.161V20.5957H407.954V36ZM438.43 34.8076C438.43 35.0081 438.39 35.1943 438.312 35.3662C438.24 35.5381 438.14 35.6885 438.011 35.8174C437.889 35.9391 437.742 36.0358 437.57 36.1074C437.398 36.179 437.216 36.2148 437.022 36.2148C436.851 36.2148 436.675 36.1826 436.496 36.1182C436.324 36.0537 436.17 35.9499 436.034 35.8066L425.829 25.1504V36H423.036V21.7881C423.036 21.5016 423.115 21.2438 423.272 21.0146C423.437 20.7783 423.645 20.6029 423.896 20.4883C424.16 20.3809 424.433 20.3558 424.712 20.4131C424.991 20.4632 425.231 20.5921 425.432 20.7998L435.637 31.4453V20.5957H438.43V34.8076ZM457.852 29.7695C457.852 30.7077 457.69 31.5706 457.368 32.3584C457.046 33.1462 456.598 33.8265 456.025 34.3994C455.452 34.9723 454.772 35.4199 453.984 35.7422C453.204 36.0573 452.352 36.2148 451.428 36.2148H447.646C446.723 36.2148 445.867 36.0573 445.079 35.7422C444.291 35.4199 443.611 34.9723 443.038 34.3994C442.465 33.8265 442.014 33.1462 441.685 32.3584C441.362 31.5706 441.201 30.7077 441.201 29.7695V26.8262C441.201 25.8952 441.362 25.0358 441.685 24.248C442.014 23.4531 442.465 22.7728 443.038 22.207C443.611 21.6341 444.291 21.1865 445.079 20.8643C445.867 20.542 446.723 20.3809 447.646 20.3809H451.428C452.352 20.3809 453.204 20.542 453.984 20.8643C454.772 21.1865 455.452 21.6341 456.025 22.207C456.598 22.7728 457.046 23.4531 457.368 24.248C457.69 25.0358 457.852 25.8952 457.852 26.8262V29.7695ZM455.059 26.8262C455.059 26.2747 454.969 25.777 454.79 25.333C454.618 24.8818 454.371 24.4987 454.049 24.1836C453.734 23.8613 453.351 23.6143 452.899 23.4424C452.455 23.2633 451.965 23.1738 451.428 23.1738H447.646C447.102 23.1738 446.604 23.2633 446.153 23.4424C445.709 23.6143 445.326 23.8613 445.004 24.1836C444.682 24.4987 444.431 24.8818 444.252 25.333C444.08 25.777 443.994 26.2747 443.994 26.8262V29.7695C443.994 30.321 444.08 30.8223 444.252 31.2734C444.431 31.7174 444.682 32.1006 445.004 32.4229C445.326 32.738 445.709 32.985 446.153 33.1641C446.604 33.3359 447.102 33.4219 447.646 33.4219H451.406C451.951 33.4219 452.445 33.3359 452.889 33.1641C453.34 32.985 453.727 32.738 454.049 32.4229C454.371 32.1006 454.618 31.7174 454.79 31.2734C454.969 30.8223 455.059 30.321 455.059 29.7695V26.8262ZM480.152 20.5957L477.574 35.0332C477.517 35.3197 477.388 35.5667 477.188 35.7744C476.987 35.9821 476.743 36.1146 476.457 36.1719C476.163 36.222 475.884 36.1898 475.619 36.0752C475.361 35.9606 475.157 35.7816 475.007 35.5381L469.894 27.1377L464.77 35.5381C464.648 35.7458 464.479 35.9069 464.265 36.0215C464.057 36.1361 463.831 36.1934 463.588 36.1934C463.251 36.1934 462.954 36.0859 462.696 35.8711C462.438 35.6562 462.281 35.377 462.224 35.0332L459.624 20.5957H462.46L464.308 30.7686L468.712 23.7432C468.834 23.5355 468.998 23.3743 469.206 23.2598C469.421 23.1452 469.65 23.0879 469.894 23.0879C470.137 23.0879 470.363 23.1452 470.57 23.2598C470.778 23.3743 470.95 23.5355 471.086 23.7432L475.469 30.7686L477.316 20.5957H480.152Z" fill="url(#paint10_linear_780_5821)"/>
</g>
<defs>
<filter id="filter0_d_780_5821" x="38.1576" y="7.92715" width="458.395" height="48.7199" filterUnits="userSpaceOnUse" color-interpolation-filters="sRGB">
<feFlood flood-opacity="0" result="BackgroundImageFix"/>
<feColorMatrix in="SourceAlpha" type="matrix" values="0 0 0 0 0 0 0 0 0 0 0 0 0 0 0 0 0 0 127 0" result="hardAlpha"/>
<feOffset dy="4"/>
<feGaussianBlur stdDeviation="8.2"/>
<feComposite in2="hardAlpha" operator="out"/>
<feColorMatrix type="matrix" values="0 0 0 0 0.0196078 0 0 0 0 0.756863 0 0 0 0 0.454902 0 0 0 1 0"/>
<feBlend mode="normal" in2="BackgroundImageFix" result="effect1_dropShadow_780_5821"/>
<feBlend mode="normal" in="SourceGraphic" in2="effect1_dropShadow_780_5821" result="shape"/>
</filter>
<linearGradient id="paint0_linear_780_5821" x1="0.999781" y1="367" x2="540" y2="367" gradientUnits="userSpaceOnUse">
<stop stop-color="#05C174"/>
<stop offset="0.93" stop-color="#05C174"/>
</linearGradient>
<linearGradient id="paint1_linear_780_5821" x1="348.354" y1="366.827" x2="384.674" y2="366.827" gradientUnits="userSpaceOnUse">
<stop stop-color="#05B0C1"/>
<stop offset="0.93" stop-color="#05C174"/>
</linearGradient>
<linearGradient id="paint2_linear_780_5821" x1="306.099" y1="340" x2="342.419" y2="340" gradientUnits="userSpaceOnUse">
<stop stop-color="#05B0C1"/>
<stop offset="0.93" stop-color="#05C174"/>
</linearGradient>
<linearGradient id="paint3_linear_780_5821" x1="263.844" y1="340" x2="300.163" y2="340" gradientUnits="userSpaceOnUse">
<stop stop-color="#05B0C1"/>
<stop offset="0.93" stop-color="#05C174"/>
</linearGradient>
<linearGradient id="paint4_linear_780_5821" x1="221.588" y1="340" x2="257.918" y2="340" gradientUnits="userSpaceOnUse">
<stop stop-color="#05B0C1"/>
<stop offset="0.93" stop-color="#05C174"/>
</linearGradient>
<linearGradient id="paint5_linear_780_5821" x1="179.343" y1="340" x2="215.663" y2="340" gradientUnits="userSpaceOnUse">
<stop stop-color="#05B0C1"/>
<stop offset="0.93" stop-color="#05C174"/>
</linearGradient>
<linearGradient id="paint6_linear_780_5821" x1="137.088" y1="340" x2="173.408" y2="340" gradientUnits="userSpaceOnUse">
<stop stop-color="#05B0C1"/>
<stop offset="0.93" stop-color="#05C174"/>
</linearGradient>
<linearGradient id="paint7_linear_780_5821" x1="94.8325" y1="340" x2="131.152" y2="340" gradientUnits="userSpaceOnUse">
<stop stop-color="#05B0C1"/>
<stop offset="0.93" stop-color="#05C174"/>
</linearGradient>
<linearGradient id="paint8_linear_780_5821" x1="52.5771" y1="340" x2="88.8968" y2="340" gradientUnits="userSpaceOnUse">
<stop stop-color="#05B0C1"/>
<stop offset="0.93" stop-color="#05C174"/>
</linearGradient>
<linearGradient id="paint9_linear_780_5821" x1="10.3218" y1="340" x2="46.6414" y2="340" gradientUnits="userSpaceOnUse">
<stop stop-color="#05B0C1"/>
<stop offset="0.93" stop-color="#05C174"/>
</linearGradient>
<linearGradient id="paint10_linear_780_5821" x1="53" y1="28" x2="481" y2="28" gradientUnits="userSpaceOnUse">
<stop stop-color="#05B0C1"/>
<stop offset="1" stop-color="#05C174"/>
</linearGradient>
<clipPath id="clip0_780_5821">
<rect width="324" height="540" fill="white" transform="matrix(0 -1 1 0 0 324)"/>
</clipPath>
<clipPath id="clip1_780_5821">
<rect width="539" height="54" fill="white" transform="translate(1 340)"/>
</clipPath>
</defs>
</svg>
