<svg width="1369" height="161" viewBox="0 0 1369 161" fill="none" xmlns="http://www.w3.org/2000/svg">
<g filter="url(#filter0_d_828_125)">
<path d="M72.4863 19.8984L65.4551 59.2734C65.2988 60.0547 64.9473 60.7285 64.4004 61.2949C63.8535 61.8613 63.1895 62.2227 62.4082 62.3789C61.6074 62.5156 60.8457 62.4277 60.123 62.1152C59.4199 61.8027 58.8633 61.3145 58.4531 60.6504L44.5078 37.7402L30.5332 60.6504C30.2012 61.2168 29.7422 61.6562 29.1562 61.9688C28.5898 62.2812 27.9746 62.4375 27.3105 62.4375C26.3926 62.4375 25.582 62.1445 24.8789 61.5586C24.1758 60.9727 23.7461 60.2109 23.5898 59.2734L16.5 19.8984H24.2344L29.2734 47.6426L41.2852 28.4824C41.6172 27.916 42.0664 27.4766 42.6328 27.1641C43.2188 26.8516 43.8438 26.6953 44.5078 26.6953C45.1719 26.6953 45.7871 26.8516 46.3535 27.1641C46.9199 27.4766 47.3887 27.916 47.7598 28.4824L59.7129 47.6426L64.752 19.8984H72.4863ZM113.209 61.9102H105.592V40.9043C105.592 39.9082 105.338 39.1562 104.83 38.6484C104.322 38.1211 103.561 37.8574 102.545 37.8574H88.8047V30.2402H102.545C103.268 30.2402 104.029 30.3281 104.83 30.5039C105.631 30.6602 106.422 30.9141 107.203 31.2656C108.004 31.6172 108.766 32.0762 109.488 32.6426C110.211 33.1895 110.846 33.8633 111.393 34.6641C111.939 35.4453 112.379 36.3535 112.711 37.3887C113.043 38.4238 113.209 39.5957 113.209 40.9043V61.9102ZM85.7285 61.9102H78.1113V16.8516H85.7285V61.9102ZM152.877 51.4219C152.877 52.4766 152.691 53.6191 152.32 54.8496C151.949 56.0605 151.344 57.1934 150.504 58.248C149.684 59.2832 148.6 60.1523 147.252 60.8555C145.924 61.5586 144.303 61.9102 142.389 61.9102H128.648C127.594 61.9102 126.451 61.7246 125.221 61.3535C124.01 60.9824 122.877 60.3867 121.822 59.5664C120.787 58.7266 119.918 57.6426 119.215 56.3145C118.512 54.9668 118.16 53.3359 118.16 51.4219C118.16 50.3672 118.346 49.2246 118.717 47.9941C119.088 46.7637 119.684 45.6309 120.504 44.5957C121.344 43.541 122.428 42.6621 123.756 41.959C125.104 41.2559 126.734 40.9043 128.648 40.9043H142.389V48.1699H128.648C127.613 48.1699 126.812 48.4922 126.246 49.1367C125.68 49.7617 125.396 50.543 125.396 51.4805C125.396 52.4766 125.719 53.2578 126.363 53.8242C127.027 54.3711 127.809 54.6445 128.707 54.6445H142.389C143.424 54.6445 144.225 54.332 144.791 53.707C145.357 53.082 145.641 52.3008 145.641 51.3633V40.7285C145.641 39.7324 145.328 38.9414 144.703 38.3555C144.098 37.7695 143.326 37.4766 142.389 37.4766H125.66V30.2402H142.389C143.443 30.2402 144.576 30.4258 145.787 30.7969C147.018 31.168 148.15 31.7734 149.186 32.6133C150.24 33.4336 151.119 34.5176 151.822 35.8652C152.525 37.1934 152.877 38.8145 152.877 40.7285V51.4219ZM188.062 37.8574H174.762V61.9102H167.057V37.8574H157.154V30.2402H167.057V19.8984H174.762V30.2402H188.062V37.8574ZM219.85 23.7363H212.232V16.8516H219.85V23.7363ZM219.85 61.9102H212.232V30.2402H219.85V61.9102ZM257.789 51.2168C257.789 52.5254 257.623 53.707 257.291 54.7617C256.959 55.7969 256.52 56.7148 255.973 57.5156C255.426 58.2969 254.791 58.9707 254.068 59.5371C253.346 60.084 252.584 60.5332 251.783 60.8848C251.002 61.2363 250.201 61.5 249.381 61.6758C248.58 61.832 247.818 61.9102 247.096 61.9102H226.471V54.293H247.037C248.072 54.293 248.854 54.0293 249.381 53.502C249.908 52.9746 250.172 52.2129 250.172 51.2168C250.074 49.1855 249.049 48.1699 247.096 48.1699H235.289C233.609 48.1699 232.184 47.877 231.012 47.291C229.84 46.7051 228.883 45.9727 228.141 45.0938C227.418 44.2148 226.891 43.2676 226.559 42.252C226.246 41.2363 226.09 40.2891 226.09 39.4102C226.09 37.7109 226.393 36.2852 226.998 35.1328C227.604 33.9609 228.365 33.0137 229.283 32.291C230.201 31.5684 231.197 31.0508 232.271 30.7383C233.346 30.4063 234.352 30.2402 235.289 30.2402H254.01V37.8574H235.348C234.957 37.8574 234.645 37.9062 234.41 38.0039C234.195 38.082 234.029 38.1992 233.912 38.3555C233.814 38.4922 233.756 38.6484 233.736 38.8242C233.717 38.9805 233.707 39.1367 233.707 39.293C233.727 39.6055 233.785 39.8496 233.883 40.0254C233.98 40.2012 234.098 40.3281 234.234 40.4062C234.391 40.4844 234.557 40.5332 234.732 40.5527C234.928 40.5527 235.113 40.5527 235.289 40.5527H247.096C249.049 40.5527 250.709 40.9043 252.076 41.6074C253.443 42.3105 254.547 43.1992 255.387 44.2734C256.227 45.3281 256.832 46.4805 257.203 47.7305C257.594 48.9805 257.789 50.1426 257.789 51.2168ZM291.188 37.0664H317.936V19.8984H325.553V61.9102H317.936V44.7422H291.188V61.9102H283.57V19.8984H291.188V37.0664ZM366.158 51.4219C366.158 52.4766 365.973 53.6191 365.602 54.8496C365.23 56.0605 364.625 57.1934 363.785 58.248C362.965 59.2832 361.881 60.1523 360.533 60.8555C359.205 61.5586 357.584 61.9102 355.67 61.9102H341.93C340.875 61.9102 339.732 61.7246 338.502 61.3535C337.291 60.9824 336.158 60.3867 335.104 59.5664C334.068 58.7266 333.199 57.6426 332.496 56.3145C331.793 54.9668 331.441 53.3359 331.441 51.4219C331.441 50.3672 331.627 49.2246 331.998 47.9941C332.369 46.7637 332.965 45.6309 333.785 44.5957C334.625 43.541 335.709 42.6621 337.037 41.959C338.385 41.2559 340.016 40.9043 341.93 40.9043H355.67V48.1699H341.93C340.895 48.1699 340.094 48.4922 339.527 49.1367C338.961 49.7617 338.678 50.543 338.678 51.4805C338.678 52.4766 339 53.2578 339.645 53.8242C340.309 54.3711 341.09 54.6445 341.988 54.6445H355.67C356.705 54.6445 357.506 54.332 358.072 53.707C358.639 53.082 358.922 52.3008 358.922 51.3633V40.7285C358.922 39.7324 358.609 38.9414 357.984 38.3555C357.379 37.7695 356.607 37.4766 355.67 37.4766H338.941V30.2402H355.67C356.725 30.2402 357.857 30.4258 359.068 30.7969C360.299 31.168 361.432 31.7734 362.467 32.6133C363.521 33.4336 364.4 34.5176 365.104 35.8652C365.807 37.1934 366.158 38.8145 366.158 40.7285V51.4219ZM403.336 61.9102H382.682C381.627 61.9102 380.475 61.7246 379.225 61.3535C377.975 60.9824 376.812 60.377 375.738 59.5371C374.684 58.6777 373.795 57.5742 373.072 56.2266C372.369 54.8594 372.018 53.1895 372.018 51.2168V40.9043C372.018 40.1816 372.096 39.4199 372.252 38.6191C372.428 37.8184 372.691 37.0273 373.043 36.2461C373.395 35.4453 373.844 34.6836 374.391 33.9609C374.957 33.2383 375.631 32.6035 376.412 32.0566C377.213 31.5098 378.131 31.0703 379.166 30.7383C380.201 30.4063 381.373 30.2402 382.682 30.2402H403.336V37.8574H382.682C381.686 37.8574 380.924 38.1113 380.396 38.6191C379.889 39.127 379.635 39.9082 379.635 40.9629V51.2168C379.635 52.2129 379.898 52.9746 380.426 53.502C380.953 54.0293 381.725 54.293 382.74 54.293H403.336V61.9102ZM446.842 61.9102H435.855L420.504 47.0859C419.645 46.3047 419.244 45.3281 419.303 44.1562C419.342 43.6094 419.479 43.1016 419.713 42.6328C419.967 42.1445 420.309 41.7344 420.738 41.4023L434.654 30.1816H446.842L428.912 44.625L446.842 61.9102ZM417.369 61.9102H409.752V16.8516H417.369V61.9102ZM479.156 37.8574H461.93V30.2402H479.156V37.8574ZM479.156 24.1172H461.988C460.953 24.1172 460.172 24.3809 459.645 24.9082C459.117 25.416 458.854 26.168 458.854 27.1641V61.9102H451.236V27.1641C451.236 25.8555 451.402 24.6836 451.734 23.6484C452.066 22.6133 452.506 21.7051 453.053 20.9238C453.619 20.123 454.264 19.4492 454.986 18.9023C455.709 18.3359 456.461 17.877 457.242 17.5254C458.043 17.1738 458.844 16.9199 459.645 16.7637C460.445 16.5879 461.207 16.5 461.93 16.5H479.156V24.1172ZM518.121 40.7285C518.121 41.7832 517.936 42.9258 517.564 44.1562C517.193 45.3672 516.588 46.5 515.748 47.5547C514.928 48.5898 513.844 49.459 512.496 50.1621C511.168 50.8652 509.547 51.2168 507.633 51.2168H493.893V43.9805H507.633C508.668 43.9805 509.469 43.668 510.035 43.043C510.602 42.3984 510.885 41.6074 510.885 40.6699C510.885 39.6738 510.562 38.8926 509.918 38.3262C509.293 37.7598 508.531 37.4766 507.633 37.4766H493.893C492.857 37.4766 492.057 37.7988 491.49 38.4434C490.924 39.0684 490.641 39.8496 490.641 40.7871V51.4219C490.641 52.4375 490.953 53.2285 491.578 53.7949C492.223 54.3613 493.014 54.6445 493.951 54.6445H507.633V61.9102H493.893C492.838 61.9102 491.695 61.7246 490.465 61.3535C489.254 60.9824 488.121 60.3867 487.066 59.5664C486.031 58.7266 485.162 57.6426 484.459 56.3145C483.756 54.9668 483.404 53.3359 483.404 51.4219V40.7285C483.404 39.6738 483.59 38.541 483.961 37.3301C484.332 36.0996 484.928 34.9668 485.748 33.9316C486.588 32.877 487.672 31.998 489 31.2949C490.348 30.5918 491.979 30.2402 493.893 30.2402H507.633C508.688 30.2402 509.82 30.4258 511.031 30.7969C512.262 31.168 513.395 31.7734 514.43 32.6133C515.484 33.4336 516.363 34.5176 517.066 35.8652C517.77 37.1934 518.121 38.8145 518.121 40.7285ZM553.863 51.2168C553.863 52.5254 553.697 53.707 553.365 54.7617C553.033 55.7969 552.594 56.7148 552.047 57.5156C551.5 58.2969 550.865 58.9707 550.143 59.5371C549.42 60.084 548.658 60.5332 547.857 60.8848C547.076 61.2363 546.275 61.5 545.455 61.6758C544.654 61.832 543.893 61.9102 543.17 61.9102H522.545V54.293H543.111C544.146 54.293 544.928 54.0293 545.455 53.502C545.982 52.9746 546.246 52.2129 546.246 51.2168C546.148 49.1855 545.123 48.1699 543.17 48.1699H531.363C529.684 48.1699 528.258 47.877 527.086 47.291C525.914 46.7051 524.957 45.9727 524.215 45.0938C523.492 44.2148 522.965 43.2676 522.633 42.252C522.32 41.2363 522.164 40.2891 522.164 39.4102C522.164 37.7109 522.467 36.2852 523.072 35.1328C523.678 33.9609 524.439 33.0137 525.357 32.291C526.275 31.5684 527.271 31.0508 528.346 30.7383C529.42 30.4063 530.426 30.2402 531.363 30.2402H550.084V37.8574H531.422C531.031 37.8574 530.719 37.9062 530.484 38.0039C530.27 38.082 530.104 38.1992 529.986 38.3555C529.889 38.4922 529.83 38.6484 529.811 38.8242C529.791 38.9805 529.781 39.1367 529.781 39.293C529.801 39.6055 529.859 39.8496 529.957 40.0254C530.055 40.2012 530.172 40.3281 530.309 40.4062C530.465 40.4844 530.631 40.5332 530.807 40.5527C531.002 40.5527 531.188 40.5527 531.363 40.5527H543.17C545.123 40.5527 546.783 40.9043 548.15 41.6074C549.518 42.3105 550.621 43.1992 551.461 44.2734C552.301 45.3281 552.906 46.4805 553.277 47.7305C553.668 48.9805 553.863 50.1426 553.863 51.2168ZM587.496 37.8574H574.195V61.9102H566.49V37.8574H556.588V30.2402H566.49V19.8984H574.195V30.2402H587.496V37.8574ZM649.664 61.9102H611.08V47.8184C611.08 47.0957 611.158 46.334 611.314 45.5332C611.49 44.7129 611.754 43.9023 612.105 43.1016C612.457 42.3008 612.906 41.5391 613.453 40.8164C614.02 40.0938 614.693 39.459 615.475 38.9121C616.275 38.3457 617.193 37.8965 618.229 37.5645C619.264 37.2324 620.436 37.0664 621.744 37.0664H638.912C639.947 37.0664 640.709 36.8125 641.197 36.3047C641.705 35.7773 641.959 35.0156 641.959 34.0195V30.6504C641.959 29.6152 641.705 28.834 641.197 28.3066C640.689 27.7793 639.947 27.5156 638.971 27.5156H614.508V19.8984H638.971C640.26 19.8984 641.422 20.0645 642.457 20.3965C643.492 20.7285 644.4 21.1777 645.182 21.7441C645.982 22.291 646.666 22.9258 647.232 23.6484C647.799 24.3711 648.258 25.1328 648.609 25.9336C648.98 26.7148 649.244 27.5156 649.4 28.3359C649.576 29.1367 649.664 29.8887 649.664 30.5918V34.0195C649.664 35.9922 649.303 37.6621 648.58 39.0293C647.877 40.377 646.988 41.4805 645.914 42.3398C644.84 43.1797 643.678 43.7949 642.428 44.1855C641.197 44.5566 640.045 44.7422 638.971 44.7422H621.744C621.119 44.7422 620.621 44.8301 620.25 45.0059C619.879 45.1816 619.586 45.416 619.371 45.709C619.176 46.002 619.029 46.334 618.932 46.7051C618.834 47.0762 618.756 47.4473 618.697 47.8184V54.293H649.664V61.9102ZM705.387 44.332C705.387 46.0508 705.162 47.6816 704.713 49.2246C704.283 50.748 703.668 52.1641 702.867 53.4727C702.066 54.7812 701.119 55.9531 700.025 56.9883C698.932 58.0234 697.73 58.9121 696.422 59.6543C695.133 60.377 693.756 60.9336 692.291 61.3242C690.826 61.7148 689.332 61.9102 687.809 61.9102H674.068C672.525 61.9102 671.021 61.7148 669.557 61.3242C668.092 60.9336 666.705 60.377 665.396 59.6543C664.107 58.9121 662.916 58.0234 661.822 56.9883C660.729 55.9531 659.781 54.7812 658.98 53.4727C658.199 52.1641 657.584 50.748 657.135 49.2246C656.705 47.6816 656.49 46.0508 656.49 44.332V37.4766C656.49 34.8984 656.969 32.5352 657.926 30.3867C658.902 28.2383 660.201 26.3926 661.822 24.8496C663.443 23.2871 665.309 22.0762 667.418 21.2168C669.547 20.3379 671.764 19.8984 674.068 19.8984H687.809C689.332 19.8984 690.826 20.0938 692.291 20.4844C693.756 20.875 695.133 21.4414 696.422 22.1836C697.73 22.9063 698.932 23.7852 700.025 24.8203C701.119 25.8555 702.066 27.0273 702.867 28.3359C703.668 29.6445 704.283 31.0703 704.713 32.6133C705.162 34.1367 705.387 35.7578 705.387 37.4766V44.332ZM697.711 37.4766C697.711 35.9727 697.438 34.6055 696.891 33.375C696.344 32.1445 695.611 31.0898 694.693 30.2109C693.795 29.332 692.75 28.6582 691.559 28.1895C690.367 27.7207 689.117 27.4961 687.809 27.5156H674.068C672.799 27.4961 671.559 27.7207 670.348 28.1895C669.156 28.6387 668.092 29.3027 667.154 30.1816C666.236 31.041 665.494 32.0957 664.928 33.3457C664.381 34.5762 664.107 35.9531 664.107 37.4766V44.332C664.107 45.8555 664.381 47.2324 664.928 48.4629C665.475 49.6934 666.207 50.748 667.125 51.627C668.043 52.4863 669.098 53.1504 670.289 53.6191C671.5 54.0879 672.76 54.3125 674.068 54.293H687.809C689.312 54.293 690.67 54.0488 691.881 53.5605C693.111 53.0527 694.156 52.3594 695.016 51.4805C695.875 50.6016 696.539 49.5566 697.008 48.3457C697.477 47.1152 697.711 45.7773 697.711 44.332V37.4766ZM694.4 31.9102C694.693 32.3398 694.889 32.8086 694.986 33.3164C695.084 33.8047 695.084 34.293 694.986 34.7812C694.889 35.25 694.693 35.6992 694.4 36.1289C694.127 36.5391 693.766 36.8906 693.316 37.1836L672.75 50.9238C672.418 51.1777 672.076 51.3535 671.725 51.4512C671.373 51.5488 671.012 51.5977 670.641 51.5977C670.016 51.5977 669.42 51.4512 668.854 51.1582C668.287 50.8652 667.828 50.4453 667.477 49.8984C667.184 49.4688 666.988 49.0098 666.891 48.5215C666.793 48.0137 666.783 47.5254 666.861 47.0566C666.959 46.5684 667.145 46.1191 667.418 45.709C667.691 45.2793 668.053 44.918 668.502 44.625L689.127 30.8848C689.557 30.5918 690.016 30.3965 690.504 30.2988C691.012 30.2012 691.5 30.2012 691.969 30.2988C692.457 30.3965 692.906 30.582 693.316 30.8555C693.746 31.1289 694.107 31.4805 694.4 31.9102ZM750.387 61.9102H711.803V47.8184C711.803 47.0957 711.881 46.334 712.037 45.5332C712.213 44.7129 712.477 43.9023 712.828 43.1016C713.18 42.3008 713.629 41.5391 714.176 40.8164C714.742 40.0938 715.416 39.459 716.197 38.9121C716.998 38.3457 717.916 37.8965 718.951 37.5645C719.986 37.2324 721.158 37.0664 722.467 37.0664H739.635C740.67 37.0664 741.432 36.8125 741.92 36.3047C742.428 35.7773 742.682 35.0156 742.682 34.0195V30.6504C742.682 29.6152 742.428 28.834 741.92 28.3066C741.412 27.7793 740.67 27.5156 739.693 27.5156H715.23V19.8984H739.693C740.982 19.8984 742.145 20.0645 743.18 20.3965C744.215 20.7285 745.123 21.1777 745.904 21.7441C746.705 22.291 747.389 22.9258 747.955 23.6484C748.521 24.3711 748.98 25.1328 749.332 25.9336C749.703 26.7148 749.967 27.5156 750.123 28.3359C750.299 29.1367 750.387 29.8887 750.387 30.5918V34.0195C750.387 35.9922 750.025 37.6621 749.303 39.0293C748.6 40.377 747.711 41.4805 746.637 42.3398C745.562 43.1797 744.4 43.7949 743.15 44.1855C741.92 44.5566 740.768 44.7422 739.693 44.7422H722.467C721.842 44.7422 721.344 44.8301 720.973 45.0059C720.602 45.1816 720.309 45.416 720.094 45.709C719.898 46.002 719.752 46.334 719.654 46.7051C719.557 47.0762 719.479 47.4473 719.42 47.8184V54.293H750.387V61.9102ZM765.064 37.0664H785.338C786.412 37.0664 787.564 37.2617 788.795 37.6523C790.045 38.0234 791.207 38.6387 792.281 39.498C793.355 40.3379 794.244 41.4414 794.947 42.8086C795.67 44.1758 796.031 45.8457 796.031 47.8184V51.2168C796.031 51.9395 795.943 52.7012 795.768 53.502C795.611 54.3027 795.348 55.1035 794.977 55.9043C794.625 56.6855 794.166 57.4375 793.6 58.1602C793.053 58.8828 792.379 59.5273 791.578 60.0938C790.797 60.6406 789.889 61.0801 788.854 61.4121C787.818 61.7441 786.646 61.9102 785.338 61.9102H771.539C770.602 61.9102 769.596 61.8027 768.521 61.5879C767.467 61.373 766.422 61.0312 765.387 60.5625C764.352 60.0742 763.346 59.4688 762.369 58.7461C761.412 58.0039 760.572 57.1152 759.85 56.0801C759.127 55.0254 758.541 53.8145 758.092 52.4473C757.662 51.0801 757.447 49.5371 757.447 47.8184V34.0195C757.447 32.3008 757.662 30.7578 758.092 29.3906C758.541 28.0234 759.127 26.8223 759.85 25.7871C760.572 24.7324 761.412 23.834 762.369 23.0918C763.346 22.3496 764.352 21.7441 765.387 21.2754C766.422 20.7871 767.467 20.4355 768.521 20.2207C769.596 20.0059 770.602 19.8984 771.539 19.8984H790.641V27.5156H771.539C770.562 27.5938 769.674 27.7988 768.873 28.1309C768.092 28.4629 767.418 28.9023 766.852 29.4492C766.285 29.9961 765.846 30.6602 765.533 31.4414C765.221 32.2031 765.064 33.0625 765.064 34.0195V37.0664ZM765.064 44.7422V47.8184C765.064 48.8145 765.23 49.7129 765.562 50.5137C765.914 51.2949 766.383 51.9688 766.969 52.5352C767.555 53.1016 768.238 53.541 769.02 53.8535C769.82 54.1465 770.68 54.293 771.598 54.293H785.338C786.314 54.293 787.057 54 787.564 53.4141C788.092 52.8281 788.355 52.0957 788.355 51.2168V47.8184C788.355 46.8223 788.102 46.0605 787.594 45.5332C787.086 45.0059 786.314 44.7422 785.279 44.7422H765.064ZM835.934 34.0195C835.934 35.0938 835.748 36.2559 835.377 37.5059C835.006 38.7559 834.391 39.918 833.531 40.9922C832.691 42.0664 831.588 42.9648 830.221 43.6875C828.873 44.3906 827.223 44.7422 825.27 44.7422H818.795V51.5977H811.148V40.9043C811.148 40.377 811.246 39.8887 811.441 39.4395C811.637 38.9707 811.9 38.5605 812.232 38.209C812.584 37.8574 812.984 37.584 813.434 37.3887C813.902 37.1738 814.4 37.0664 814.928 37.0664H825.27C826.266 37.0664 827.018 36.8125 827.525 36.3047C828.053 35.7969 828.316 35.0352 828.316 34.0195V30.5918C828.316 29.5957 828.062 28.834 827.555 28.3066C827.047 27.7793 826.285 27.5156 825.27 27.5156H800.836V19.8984H825.27C826.344 19.8984 827.506 20.0938 828.756 20.4844C830.006 20.8555 831.158 21.4609 832.213 22.3008C833.287 23.1406 834.176 24.2441 834.879 25.6113C835.582 26.9785 835.934 28.6387 835.934 30.5918V34.0195ZM818.707 58.0723C818.707 58.5996 818.609 59.0977 818.414 59.5664C818.219 60.0156 817.945 60.416 817.594 60.7676C817.262 61.0996 816.861 61.3633 816.393 61.5586C815.943 61.7539 815.455 61.8516 814.928 61.8516C814.42 61.8516 813.932 61.7539 813.463 61.5586C813.014 61.3633 812.613 61.0996 812.262 60.7676C811.93 60.416 811.656 60.0156 811.441 59.5664C811.246 59.0977 811.148 58.5996 811.148 58.0723C811.148 57.5645 811.246 57.0859 811.441 56.6367C811.656 56.168 811.93 55.7676 812.262 55.4355C812.613 55.084 813.014 54.8105 813.463 54.6152C813.932 54.4004 814.42 54.293 814.928 54.293C815.455 54.293 815.943 54.4004 816.393 54.6152C816.861 54.8105 817.262 55.084 817.594 55.4355C817.945 55.7676 818.219 56.168 818.414 56.6367C818.609 57.0859 818.707 57.5645 818.707 58.0723Z" fill="#05B0C1"/>
</g>
<rect x="13.9512" y="90.4094" width="1350" height="2" fill="#8DFCC8"/>
<g filter="url(#filter1_f_828_125)">
<rect x="13.9512" y="90.1228" width="1351" height="2" fill="#05C174"/>
</g>
<path d="M1363.95 21.1228H1004.95V65.1228H1363.95V43.1228V21.1228Z" stroke="url(#paint0_linear_828_125)" stroke-width="2.8" stroke-miterlimit="10"/>
<path d="M1320.07 27.4737H1290.13V58.4739H1320.07V27.4737Z" fill="url(#paint1_linear_828_125)"/>
<path d="M1285.23 27.4737H1255.29V58.4739H1285.23V27.4737Z" fill="url(#paint2_linear_828_125)"/>
<path d="M1250.4 27.4737H1220.46V58.4739H1250.4V27.4737Z" fill="url(#paint3_linear_828_125)"/>
<path d="M1215.57 27.4737H1185.63V58.4739H1215.57V27.4737Z" fill="url(#paint4_linear_828_125)"/>
<path d="M1180.73 27.4737H1150.79V58.4739H1180.73V27.4737Z" fill="url(#paint5_linear_828_125)"/>
<path d="M1145.9 27.4737H1115.96V58.4739H1145.9V27.4737Z" fill="url(#paint6_linear_828_125)"/>
<path d="M1111.08 27.4737H1081.14V58.4739H1111.08V27.4737Z" fill="url(#paint7_linear_828_125)"/>
<path d="M1076.24 27.4737H1046.31V58.4739H1076.24V27.4737Z" fill="url(#paint8_linear_828_125)"/>
<path d="M1041.41 27.4738H1011.47V58.474H1041.41V27.4738Z" fill="url(#paint9_linear_828_125)"/>
<g clip-path="url(#clip0_828_125)">
<path d="M42.0378 158.388C56.6124 158.388 68.4276 146.579 68.4276 132.012C68.4276 117.445 56.6124 105.636 42.0378 105.636C27.4631 105.636 15.6479 117.445 15.6479 132.012C15.6479 146.579 27.4631 158.388 42.0378 158.388Z" stroke="#05C174" stroke-width="3.14" stroke-miterlimit="10"/>
<path d="M42.2114 158.61C50.9338 158.61 58.0047 146.801 58.0047 132.234C58.0047 117.666 50.9338 105.857 42.2114 105.857C33.4889 105.857 26.418 117.666 26.418 132.234C26.418 146.801 33.4889 158.61 42.2114 158.61Z" stroke="#05C174" stroke-width="3.14" stroke-miterlimit="10"/>
<path d="M41.8642 158.388C45.416 158.388 48.2954 146.579 48.2954 132.012C48.2954 117.445 45.416 105.636 41.8642 105.636C38.3124 105.636 35.4331 117.445 35.4331 132.012C35.4331 146.579 38.3124 158.388 41.8642 158.388Z" stroke="#05C174" stroke-width="3.14" stroke-miterlimit="10"/>
<path d="M41.7582 141.909C56.1358 141.909 67.7912 137.642 67.7912 132.378C67.7912 127.114 56.1358 122.847 41.7582 122.847C27.3805 122.847 15.7251 127.114 15.7251 132.378C15.7251 137.642 27.3805 141.909 41.7582 141.909Z" stroke="#05C174" stroke-width="3.69" stroke-miterlimit="10"/>
</g>
<defs>
<filter id="filter0_d_828_125" x="0" y="0" width="852.434" height="79.084" filterUnits="userSpaceOnUse" color-interpolation-filters="sRGB">
<feFlood flood-opacity="0" result="BackgroundImageFix"/>
<feColorMatrix in="SourceAlpha" type="matrix" values="0 0 0 0 0 0 0 0 0 0 0 0 0 0 0 0 0 0 127 0" result="hardAlpha"/>
<feOffset/>
<feGaussianBlur stdDeviation="8.25"/>
<feComposite in2="hardAlpha" operator="out"/>
<feColorMatrix type="matrix" values="0 0 0 0 0.0196078 0 0 0 0 0.690196 0 0 0 0 0.756863 0 0 0 1 0"/>
<feBlend mode="normal" in2="BackgroundImageFix" result="effect1_dropShadow_828_125"/>
<feBlend mode="normal" in="SourceGraphic" in2="effect1_dropShadow_828_125" result="shape"/>
</filter>
<filter id="filter1_f_828_125" x="9.95117" y="86.1228" width="1359" height="10" filterUnits="userSpaceOnUse" color-interpolation-filters="sRGB">
<feFlood flood-opacity="0" result="BackgroundImageFix"/>
<feBlend mode="normal" in="SourceGraphic" in2="BackgroundImageFix" result="shape"/>
<feGaussianBlur stdDeviation="2" result="effect1_foregroundBlur_828_125"/>
</filter>
<linearGradient id="paint0_linear_828_125" x1="1004.01" y1="43.1269" x2="1364.89" y2="43.1269" gradientUnits="userSpaceOnUse">
<stop stop-color="#05C174"/>
<stop offset="0.93" stop-color="#05C174"/>
</linearGradient>
<linearGradient id="paint1_linear_828_125" x1="1290.13" y1="42.9779" x2="1320.07" y2="42.9779" gradientUnits="userSpaceOnUse">
<stop stop-color="#05B0C1"/>
<stop offset="0.93" stop-color="#05C174"/>
</linearGradient>
<linearGradient id="paint2_linear_828_125" x1="1255.29" y1="42.9779" x2="1285.23" y2="42.9779" gradientUnits="userSpaceOnUse">
<stop stop-color="#05B0C1"/>
<stop offset="0.93" stop-color="#05C174"/>
</linearGradient>
<linearGradient id="paint3_linear_828_125" x1="1220.46" y1="42.9779" x2="1250.4" y2="42.9779" gradientUnits="userSpaceOnUse">
<stop stop-color="#05B0C1"/>
<stop offset="0.93" stop-color="#05C174"/>
</linearGradient>
<linearGradient id="paint4_linear_828_125" x1="1185.63" y1="42.9779" x2="1215.57" y2="42.9779" gradientUnits="userSpaceOnUse">
<stop stop-color="#05B0C1"/>
<stop offset="0.93" stop-color="#05C174"/>
</linearGradient>
<linearGradient id="paint5_linear_828_125" x1="1150.79" y1="42.9779" x2="1180.73" y2="42.9779" gradientUnits="userSpaceOnUse">
<stop stop-color="#05B0C1"/>
<stop offset="0.93" stop-color="#05C174"/>
</linearGradient>
<linearGradient id="paint6_linear_828_125" x1="1115.96" y1="42.9779" x2="1145.91" y2="42.9779" gradientUnits="userSpaceOnUse">
<stop stop-color="#05B0C1"/>
<stop offset="0.93" stop-color="#05C174"/>
</linearGradient>
<linearGradient id="paint7_linear_828_125" x1="1081.14" y1="42.9779" x2="1111.08" y2="42.9779" gradientUnits="userSpaceOnUse">
<stop stop-color="#05B0C1"/>
<stop offset="0.93" stop-color="#05C174"/>
</linearGradient>
<linearGradient id="paint8_linear_828_125" x1="1046.31" y1="42.9779" x2="1076.24" y2="42.9779" gradientUnits="userSpaceOnUse">
<stop stop-color="#05B0C1"/>
<stop offset="0.93" stop-color="#05C174"/>
</linearGradient>
<linearGradient id="paint9_linear_828_125" x1="1011.47" y1="42.9781" x2="1041.41" y2="42.9781" gradientUnits="userSpaceOnUse">
<stop stop-color="#05B0C1"/>
<stop offset="0.93" stop-color="#05C174"/>
</linearGradient>
<clipPath id="clip0_828_125">
<rect width="56" height="56" fill="white" transform="translate(13.9512 104.123)"/>
</clipPath>
</defs>
</svg>
