<svg width="209" height="172" viewBox="0 0 209 172" fill="none" xmlns="http://www.w3.org/2000/svg">
<g clip-path="url(#clip0_753_169)">
<mask id="mask0_753_169" style="mask-type:luminance" maskUnits="userSpaceOnUse" x="0" y="0" width="209" height="134">
<path d="M208.295 133.765C139.407 133.59 70.5196 133.415 1.63207 133.246C1.3532 121.966 1.08254 110.687 0.80368 99.4136C4.33868 97.8899 7.87369 96.3729 11.4169 94.8492C11.3677 76.261 11.3267 57.666 11.2775 39.0778L0.598633 33.8391V0.741699C24.0396 0.741699 47.4805 0.741699 70.9215 0.741699C73.7265 3.78243 76.5315 6.82315 79.3284 9.86388C96.1012 9.87062 112.882 9.88411 129.655 9.89085C132.493 6.84338 135.331 3.78917 138.169 0.741699C161.667 0.741699 185.157 0.741699 208.655 0.741699C208.655 18.3456 208.655 16.3971 208.655 34.0009C204.883 35.6325 201.102 37.2641 197.329 38.8957V94.8829C201.102 96.3392 204.883 97.7888 208.664 99.2451C208.541 110.754 208.409 122.263 208.286 133.779L208.295 133.765Z" fill="white"/>
</mask>
<g mask="url(#mask0_753_169)">
<path d="M1.63184 1.43616C70.2979 1.46313 138.964 1.49684 207.63 1.43616C207.581 45.375 207.614 89.3071 207.63 133.246C138.964 133.246 70.2979 133.253 1.63184 133.246C1.65644 89.3071 1.64824 45.375 1.63184 1.43616Z" stroke="#3305C1" stroke-width="1.16" stroke-miterlimit="10"/>
<path d="M1.64014 126.969C70.3062 126.935 138.956 126.955 207.63 126.969" stroke="#3305C1" stroke-width="1.16" stroke-miterlimit="10"/>
<path d="M1.63232 120.692C70.3148 120.368 138.915 120.577 207.622 120.692" stroke="#3305C1" stroke-width="1.16" stroke-miterlimit="10"/>
<path d="M1.63232 114.415C18.6594 114.233 35.7849 113.033 52.812 113.687C67.4113 114.246 81.7728 116.667 96.4131 116.775C133.42 117.051 170.525 114.28 207.639 114.415" stroke="#3305C1" stroke-width="1.16" stroke-miterlimit="10"/>
<path d="M1.62402 108.138C17.7817 107.875 34.1034 106.25 50.2529 107.133C64.68 107.922 78.6478 111.239 93.1569 111.421C113.53 111.678 133.871 108.617 154.203 107.895C171.977 107.261 189.857 108.037 207.639 108.131" stroke="#3305C1" stroke-width="1.16" stroke-miterlimit="10"/>
<path d="M1.63232 101.861C17.3307 101.578 33.2341 99.6766 48.9243 100.674C63.253 101.585 76.9255 105.448 91.369 105.67C112.587 105.994 133.764 102.367 154.942 101.564C172.461 100.897 190.103 101.76 207.63 101.868" stroke="#3305C1" stroke-width="1.16" stroke-miterlimit="10"/>
<path d="M1.61572 95.5841C17.7488 95.3077 34.0541 93.1704 50.179 94.2087C64.3518 95.1189 77.8275 98.9619 92.1151 99.1642C130.483 99.7103 169.081 95.3279 207.638 95.5773" stroke="#3305C1" stroke-width="1.16" stroke-miterlimit="10"/>
<path d="M1.62402 89.307C19.2006 88.8958 36.9577 86.2124 54.5425 87.3248C68.1658 88.1946 81.1165 91.8151 94.8547 92.105C132.321 92.9074 170.148 89.5835 207.647 89.3003" stroke="#3305C1" stroke-width="1.16" stroke-miterlimit="10"/>
<path d="M1.63232 83.03C21.1036 82.403 40.8537 79.0184 60.3331 80.2388C73.21 81.0411 85.4882 84.3448 98.4554 84.81C135.069 86.1247 171.083 84.0346 207.622 83.0368" stroke="#3305C1" stroke-width="1.16" stroke-miterlimit="10"/>
<path d="M1.64844 76.7532C22.9241 75.9171 44.6098 71.8583 65.9101 73.1798C78.0488 73.9349 89.7283 76.888 101.933 77.5487C114.957 78.2499 127.9 80.0905 140.924 80.6434C163.069 81.594 185.526 77.724 207.622 76.7599" stroke="#3305C1" stroke-width="1.16" stroke-miterlimit="10"/>
<path d="M1.64844 70.4761C24.1216 69.5187 47.0704 64.9947 69.5599 66.397C81.223 67.1252 92.5251 69.8355 104.229 70.6042C115.671 71.3525 126.448 74.3596 137.816 75.29C160.584 77.1508 184.87 71.6425 207.622 70.4828" stroke="#3305C1" stroke-width="1.16" stroke-miterlimit="10"/>
<path d="M1.64014 64.1991C24.1543 63.2687 47.1113 58.5761 69.6418 60.0122C81.3049 60.7538 92.5907 63.5114 104.295 64.2935C115.761 65.0553 126.727 67.8399 138.136 68.7163C160.789 70.4558 184.968 65.4194 207.605 64.2126" stroke="#3305C1" stroke-width="1.16" stroke-miterlimit="10"/>
<path d="M1.64844 57.9221C23.1619 56.9715 45.0527 52.1373 66.599 53.5734C78.787 54.3825 90.3352 57.7131 102.613 58.3132C137.791 60.0257 172.42 59.0346 207.614 57.9356" stroke="#3305C1" stroke-width="1.16" stroke-miterlimit="10"/>
<path d="M1.63232 51.6451C21.6449 50.6338 41.8789 45.6581 61.9489 47.0672C74.9242 47.9774 86.9728 52.1306 100.096 52.4272C116.967 52.8115 133.789 50.1281 150.627 49.6225C169.631 49.0561 188.627 51.2406 207.614 51.6451" stroke="#3305C1" stroke-width="1.16" stroke-miterlimit="10"/>
<path d="M1.62402 45.3682C20.0946 44.2962 38.5488 39.1991 57.1179 40.561C70.8888 41.5723 83.5279 46.5076 97.4957 46.5615C117.976 46.6424 138.029 40.7161 158.378 39.2867C175.299 38.1001 191.005 43.8377 207.647 45.3614" stroke="#3305C1" stroke-width="1.16" stroke-miterlimit="10"/>
<path d="M1.61572 39.0913C18.9627 37.9923 35.998 32.7806 53.4843 34.0953C67.8376 35.1741 80.9278 40.6689 95.5107 40.6083C118.779 40.5139 141.261 32.0052 164.3 29.9084C181.302 28.3577 191.604 38.4642 207.655 39.0778" stroke="#3305C1" stroke-width="1.16" stroke-miterlimit="10"/>
<path d="M1.63232 32.8143C18.643 31.7153 35.2518 26.5103 52.4101 27.7914C66.9192 28.8768 80.198 34.4931 94.9286 34.4594C119.067 34.3987 142.245 24.9259 166.129 22.7077C183.295 21.1098 191.817 32.7199 207.63 32.8143" stroke="#3305C1" stroke-width="1.16" stroke-miterlimit="10"/>
<path d="M1.62402 26.5372C18.8808 25.5192 35.9242 21.103 53.2794 22.2155C67.8377 23.1526 81.543 28.007 96.2654 27.9261C119.132 27.8115 141.212 19.7883 163.882 17.8196C180.761 16.3565 191.62 26.0922 207.647 26.5237" stroke="#3305C1" stroke-width="1.16" stroke-miterlimit="10"/>
<path d="M1.63232 20.2603C19.4304 19.5523 37.13 16.3498 54.9773 17.1521C69.6422 17.8129 83.8807 21.3795 98.6358 21.2716C119.337 21.1233 139.44 15.3789 160.019 14.0035C176.595 12.8978 191.383 18.8579 207.647 20.2535" stroke="#3305C1" stroke-width="1.16" stroke-miterlimit="10"/>
<path d="M1.63232 13.9901C20.0619 13.6664 38.4505 11.7989 56.8965 12.2506C71.7337 12.6147 86.4232 14.671 101.285 14.5834C119.526 14.4822 137.463 11.1988 155.663 10.4976C173.15 9.8234 190.218 13.3496 207.622 13.9901" stroke="#3305C1" stroke-width="1.16" stroke-miterlimit="10"/>
<path d="M1.64014 7.71389C70.339 7.59183 138.964 7.47654 207.622 7.71389" stroke="#3305C1" stroke-width="1.16" stroke-miterlimit="10"/>
<path d="M197.804 1.44287C198.854 45.4019 198.157 89.152 197.813 133.246" stroke="#3305C1" stroke-width="1.16" stroke-miterlimit="10"/>
<path d="M188.003 1.43628C189.447 12.9317 194.852 23.8743 193.08 35.4978C191.325 46.973 184.058 57.3155 183.681 69.0065C183.344 79.4704 189.283 89.1252 189.922 99.5486C190.603 110.673 188.43 122.115 188.003 133.239" stroke="#3305C1" stroke-width="1.16" stroke-miterlimit="10"/>
<path d="M178.21 1.42932C181.31 12.709 190.218 21.1165 187.29 32.9288C184.058 45.9413 171.017 56.7692 170.476 70.3008C170.049 80.9602 180.384 88.9295 181.671 99.4203C183 110.255 179.038 122.391 178.202 133.239" stroke="#3305C1" stroke-width="1.16" stroke-miterlimit="10"/>
<path d="M168.417 1.42261C170.271 14.5025 185.576 16.3026 181.073 30.6433C176.603 44.8693 158.108 56.3917 157.64 71.4672C157.296 82.639 171.345 88.4912 173.248 99.3192C175.077 109.763 169.549 122.775 168.401 133.253" stroke="#3305C1" stroke-width="1.16" stroke-miterlimit="10"/>
<path d="M158.599 1.42932C160.666 15.116 178.636 13.7675 173.338 29.3352C168.269 44.249 146.346 56.2029 146.05 72.1549C145.837 83.7447 161.995 88.0867 164.218 99.245C166.26 109.507 159.862 122.944 158.591 133.246" stroke="#3305C1" stroke-width="1.16" stroke-miterlimit="10"/>
<path d="M148.806 1.42261C151.021 14.6171 166.875 15.352 162.077 29.9825C157.303 44.5322 137.496 56.3782 137.053 71.8448C136.733 83.0705 151.283 88.6665 153.285 99.508C155.171 109.743 149.955 122.957 148.798 133.239" stroke="#3305C1" stroke-width="1.16" stroke-miterlimit="10"/>
<path d="M138.989 1.42261C142.114 12.4798 150.34 20.7322 147.346 32.2546C143.861 45.6783 130.516 56.9311 129.721 70.8806C129.122 81.3513 138.226 90.0757 139.546 100.405C140.892 110.97 139.259 122.613 138.981 133.239" stroke="#3305C1" stroke-width="1.16" stroke-miterlimit="10"/>
<path d="M129.155 1.43628C129.803 12.6755 132.632 24.0159 131.074 35.2484C129.458 46.9258 123.873 57.8549 123.069 69.6538C121.609 90.9995 126.891 112.17 129.147 133.253" stroke="#3305C1" stroke-width="1.16" stroke-miterlimit="10"/>
<path d="M119.321 1.44287C117.828 13.6799 114.744 25.8024 115.047 38.1204C115.293 48.1865 116.835 58.3942 116.319 68.4602C115.728 79.9422 109.528 91.2893 109.659 102.751C109.774 113.1 116.901 123.187 119.337 133.253" stroke="#3305C1" stroke-width="1.16" stroke-miterlimit="10"/>
<path d="M109.511 1.44287C106.862 14.0845 99.2345 27.1508 101.047 40.0554C102.368 49.5079 108.814 57.9694 108.667 67.6242C108.478 80.2388 96.5689 90.9926 96.5279 103.513C96.4951 113.754 106.387 123.503 109.511 133.253" stroke="#3305C1" stroke-width="1.16" stroke-miterlimit="10"/>
<path d="M99.7182 1.44287C97.069 14.1317 88.4324 27.2183 90.5321 40.2239C92.0659 49.7372 99.7838 57.4974 99.6854 67.3343C99.5542 80.2793 86.2343 90.6555 86.2672 103.506C86.2918 113.882 96.5687 123.375 99.7264 133.259" stroke="#3305C1" stroke-width="1.16" stroke-miterlimit="10"/>
<path d="M89.9086 1.44287C87.4316 13.7271 79.0821 26.4631 81.4033 39.0238C83.1995 48.7663 91.9098 56.4457 91.8032 66.5859C91.6638 79.6995 77.3023 89.5768 77.0317 102.589C76.8184 113.053 86.8985 123.241 89.9086 133.259" stroke="#3305C1" stroke-width="1.16" stroke-miterlimit="10"/>
<path d="M80.1075 1.43628C77.9176 13.0328 69.8224 25.398 72.7012 37.1834C75.1372 47.1551 85.0368 54.9086 84.9138 65.4062C84.758 78.749 68.994 87.9655 68.1492 101.167C67.4684 111.786 77.3681 122.998 80.1075 133.246" stroke="#3305C1" stroke-width="1.16" stroke-miterlimit="10"/>
<path d="M70.2983 1.42932C68.3873 12.4191 60.7431 24.191 64.0403 35.2751C67.0586 45.4423 78.2869 53.3509 78.1311 64.1856C77.9425 77.7509 60.6447 86.3202 59.2914 99.6967C58.2006 110.525 67.8213 122.694 70.2983 133.239" stroke="#3305C1" stroke-width="1.16" stroke-miterlimit="10"/>
<path d="M60.4888 1.42932C58.7582 12.0415 51.6308 23.2133 55.0592 33.8525C58.4055 44.2085 70.7904 52.1576 70.6017 63.2956C70.3721 77.043 51.8604 85.0864 50.1791 98.6112C48.8093 109.594 58.1759 122.485 60.4888 133.246" stroke="#3305C1" stroke-width="1.16" stroke-miterlimit="10"/>
<path d="M50.6713 1.42932C48.9571 11.8797 42.1003 23.0111 45.5123 33.4615C48.9161 43.8849 61.5798 51.8542 61.3747 63.0732C61.1287 76.8542 42.3218 84.7493 40.624 98.2944C39.2461 109.277 48.3584 122.465 50.6713 133.239" stroke="#3305C1" stroke-width="1.16" stroke-miterlimit="10"/>
<path d="M40.8617 1.42932C39.3362 12.0483 33.3816 23.5774 36.4573 34.1627C39.4264 44.3973 50.2611 52.7981 50.056 63.6462C49.8018 76.8407 33.6933 85.4842 32.1924 98.4831C30.9211 109.466 38.7867 122.425 40.8617 133.246" stroke="#3305C1" stroke-width="1.16" stroke-miterlimit="10"/>
<path d="M31.0605 1.42932C29.986 12.5067 25.5242 24.4134 27.8863 35.4639C30.0188 45.4558 37.827 54.3623 37.6548 64.7048C37.4497 77.0093 25.9097 86.6371 24.8598 98.8405C23.9002 109.985 29.5595 122.182 31.0605 133.246" stroke="#3305C1" stroke-width="1.16" stroke-miterlimit="10"/>
<path d="M21.2509 1.43628C20.7096 13.1812 18.1424 25.2025 19.4465 36.9406C20.5292 46.7168 25.0402 56.0076 24.9336 65.8984C24.8187 77.3601 18.3557 87.8105 17.8471 99.2385C17.3468 110.511 20.4882 121.993 21.2509 133.239" stroke="#3305C1" stroke-width="1.16" stroke-miterlimit="10"/>
<path d="M11.4495 1.43628C11.0476 45.4493 10.8426 89.26 11.4495 133.246" stroke="#3305C1" stroke-width="1.16" stroke-miterlimit="10"/>
</g>
<path opacity="0.5" d="M208.295 171.467H0.820312V133.772C4.55216 133.772 8.28401 133.772 12.0077 133.772C14.9849 135.781 17.9622 137.79 20.9395 139.799H41.6C44.4378 137.77 47.2757 135.747 50.1135 133.718C86.374 133.738 122.634 133.758 158.895 133.779C162.233 135.559 165.579 137.338 168.918 139.112H187.208C190.423 137.311 193.63 135.518 196.837 133.718C200.651 133.738 204.464 133.758 208.287 133.779V171.474L208.295 171.467Z" fill="#1C0951"/>
<path d="M208.59 171.663H0.524902C0.590517 154.059 0.664334 116.903 0.729949 99.299C4.26495 97.7753 7.79996 96.2583 11.3432 94.7346C11.294 76.1463 11.2529 57.5514 11.2037 38.9632C7.64412 37.2169 4.08451 35.4775 0.524902 33.7312V0.627075C23.9658 0.627075 47.4068 0.627075 70.8477 0.627075C73.6528 3.6678 76.4578 6.70853 79.2546 9.74926C96.0275 9.756 112.808 9.76948 129.581 9.77623C132.419 6.72876 135.257 3.67454 138.095 0.627075C161.593 0.627075 185.083 0.627075 208.582 0.627075C208.582 18.2309 208.582 16.2824 208.582 33.8863C204.809 35.5179 201.028 37.1495 197.255 38.7811V94.7683C201.028 96.2246 204.809 97.6742 208.59 99.1305C208.59 116.795 208.59 154.005 208.59 171.67V171.663Z" stroke="#05C174" stroke-miterlimit="10"/>
<path d="M126.637 7.67261H82.4697L74.5303 0H134.576L126.637 7.67261Z" fill="#05C174"/>
<path d="M7.95581 92.995L0 96.3392V36.8124L7.95581 40.1565V92.995Z" fill="#05C174"/>
<path d="M200.823 93.2917L208.779 96.6425V37.109L200.823 40.4599V93.2917Z" fill="#05C174"/>
<path d="M208.573 171.467H0.631348V133.711C4.33039 133.711 8.02943 133.711 11.7285 133.711C14.796 135.74 17.8717 137.763 20.9392 139.793H41.5997C44.4375 137.763 47.2754 135.74 50.1132 133.711H158.484C161.962 135.511 165.44 137.305 168.917 139.105H187.207C190.423 137.305 193.63 135.511 196.836 133.711H208.565V171.467H208.573Z" stroke="#05C174" stroke-miterlimit="10"/>
<path d="M41.2883 140.049C34.5053 139.961 27.7224 139.874 20.9394 139.793C17.9129 137.642 14.8865 135.491 11.8682 133.34C24.6057 133.367 37.3432 133.401 50.0889 133.428C47.1608 135.639 44.2245 137.844 41.2965 140.056L41.2883 140.049Z" fill="#05C174"/>
<path d="M186.929 139.273C180.638 139.172 174.339 139.071 168.048 138.97C164.89 137.062 161.741 135.147 158.583 133.239C171.378 133.3 184.181 133.361 196.976 133.414C193.621 135.363 190.275 137.318 186.92 139.267L186.929 139.273Z" fill="#05C174"/>
<path d="M71.8125 151.562C71.8125 152.026 71.7552 152.44 71.6406 152.805C71.526 153.169 71.3698 153.492 71.1719 153.773C70.9792 154.049 70.7552 154.286 70.5 154.484C70.2448 154.682 69.9766 154.846 69.6953 154.977C69.4193 155.102 69.138 155.193 68.8516 155.25C68.5703 155.307 68.3047 155.336 68.0547 155.336L72.2969 159H69.1562L64.9219 155.336H63.4609V153.305H68.0547C68.3099 153.284 68.5417 153.232 68.75 153.148C68.9635 153.06 69.1458 152.943 69.2969 152.797C69.4531 152.651 69.5729 152.477 69.6562 152.273C69.7396 152.065 69.7812 151.828 69.7812 151.562V150.281C69.7812 150.167 69.7656 150.081 69.7344 150.023C69.7083 149.961 69.6719 149.917 69.625 149.891C69.5833 149.859 69.5365 149.841 69.4844 149.836C69.4375 149.831 69.3932 149.828 69.3516 149.828H62.6484V159H60.6172V148.82C60.6172 148.68 60.6432 148.547 60.6953 148.422C60.7474 148.297 60.8177 148.188 60.9062 148.094C61 148 61.1094 147.927 61.2344 147.875C61.3594 147.823 61.4948 147.797 61.6406 147.797H69.3516C69.8047 147.797 70.1875 147.88 70.5 148.047C70.8125 148.208 71.0651 148.414 71.2578 148.664C71.4557 148.909 71.5964 149.174 71.6797 149.461C71.7682 149.747 71.8125 150.016 71.8125 150.266V151.562ZM83.0625 154.422H76.6484V152.375H83.0625V154.422ZM83.9766 159H76.6484C76.3672 159 76.0599 158.951 75.7266 158.852C75.3932 158.753 75.0833 158.591 74.7969 158.367C74.5156 158.138 74.2786 157.844 74.0859 157.484C73.8984 157.12 73.8047 156.674 73.8047 156.148V148.82C73.8047 148.68 73.8307 148.547 73.8828 148.422C73.9349 148.297 74.0052 148.188 74.0938 148.094C74.1875 148 74.2969 147.927 74.4219 147.875C74.5469 147.823 74.6823 147.797 74.8281 147.797H83.9766V149.828H75.8359V156.148C75.8359 156.414 75.9062 156.617 76.0469 156.758C76.1875 156.898 76.3932 156.969 76.6641 156.969H83.9766V159ZM96.9219 157.977C96.9219 158.122 96.8958 158.258 96.8438 158.383C96.7917 158.508 96.7188 158.617 96.625 158.711C96.5365 158.799 96.4297 158.87 96.3047 158.922C96.1797 158.974 96.0443 159 95.8984 159H88.5703C88.3828 159 88.1797 158.979 87.9609 158.938C87.7474 158.891 87.5339 158.82 87.3203 158.727C87.112 158.633 86.9115 158.513 86.7188 158.367C86.526 158.216 86.3542 158.036 86.2031 157.828C86.0573 157.615 85.9401 157.37 85.8516 157.094C85.763 156.812 85.7188 156.497 85.7188 156.148V150.648C85.7188 150.461 85.7396 150.26 85.7812 150.047C85.8281 149.828 85.8984 149.615 85.9922 149.406C86.0859 149.193 86.2083 148.99 86.3594 148.797C86.5104 148.604 86.6901 148.435 86.8984 148.289C87.112 148.138 87.3568 148.018 87.6328 147.93C87.9089 147.841 88.2214 147.797 88.5703 147.797H96.8281V149.828H88.5703C88.3047 149.828 88.1016 149.898 87.9609 150.039C87.8203 150.18 87.75 150.388 87.75 150.664V156.148C87.75 156.409 87.8203 156.612 87.9609 156.758C88.1068 156.898 88.3099 156.969 88.5703 156.969H94.8906V154.422H89.4844V152.375H95.8984C96.0443 152.375 96.1797 152.404 96.3047 152.461C96.4297 152.513 96.5365 152.586 96.625 152.68C96.7188 152.773 96.7917 152.883 96.8438 153.008C96.8958 153.128 96.9219 153.258 96.9219 153.398V157.977ZM101.086 159H99.0547V147.797H101.086V159ZM114.227 155.703C114.227 156.104 114.174 156.466 114.07 156.789C113.971 157.107 113.839 157.388 113.672 157.633C113.505 157.878 113.31 158.086 113.086 158.258C112.862 158.43 112.63 158.57 112.391 158.68C112.151 158.789 111.906 158.87 111.656 158.922C111.411 158.974 111.18 159 110.961 159H103.125V156.969H110.961C111.352 156.969 111.654 156.854 111.867 156.625C112.086 156.396 112.195 156.089 112.195 155.703C112.195 155.516 112.167 155.344 112.109 155.188C112.052 155.031 111.969 154.896 111.859 154.781C111.755 154.667 111.625 154.578 111.469 154.516C111.318 154.453 111.148 154.422 110.961 154.422H106.289C105.961 154.422 105.607 154.365 105.227 154.25C104.846 154.13 104.492 153.94 104.164 153.68C103.841 153.419 103.57 153.078 103.352 152.656C103.138 152.234 103.031 151.719 103.031 151.109C103.031 150.5 103.138 149.987 103.352 149.57C103.57 149.148 103.841 148.807 104.164 148.547C104.492 148.281 104.846 148.091 105.227 147.977C105.607 147.857 105.961 147.797 106.289 147.797H113.203V149.828H106.289C105.904 149.828 105.602 149.945 105.383 150.18C105.169 150.414 105.062 150.724 105.062 151.109C105.062 151.5 105.169 151.81 105.383 152.039C105.602 152.263 105.904 152.375 106.289 152.375H110.961H110.977C111.195 152.38 111.427 152.411 111.672 152.469C111.917 152.521 112.159 152.604 112.398 152.719C112.643 152.833 112.875 152.979 113.094 153.156C113.312 153.328 113.505 153.536 113.672 153.781C113.844 154.026 113.979 154.307 114.078 154.625C114.177 154.943 114.227 155.302 114.227 155.703ZM125.914 149.828H121.438V159H119.406V149.828H114.922V147.797H125.914V149.828ZM136.625 154.422H130.211V152.375H136.625V154.422ZM137.539 159H130.211C129.93 159 129.622 158.951 129.289 158.852C128.956 158.753 128.646 158.591 128.359 158.367C128.078 158.138 127.841 157.844 127.648 157.484C127.461 157.12 127.367 156.674 127.367 156.148V148.82C127.367 148.68 127.393 148.547 127.445 148.422C127.497 148.297 127.568 148.188 127.656 148.094C127.75 148 127.859 147.927 127.984 147.875C128.109 147.823 128.245 147.797 128.391 147.797H137.539V149.828H129.398V156.148C129.398 156.414 129.469 156.617 129.609 156.758C129.75 156.898 129.956 156.969 130.227 156.969H137.539V159ZM150.703 151.562C150.703 152.026 150.646 152.44 150.531 152.805C150.417 153.169 150.26 153.492 150.062 153.773C149.87 154.049 149.646 154.286 149.391 154.484C149.135 154.682 148.867 154.846 148.586 154.977C148.31 155.102 148.029 155.193 147.742 155.25C147.461 155.307 147.195 155.336 146.945 155.336L151.188 159H148.047L143.812 155.336H142.352V153.305H146.945C147.201 153.284 147.432 153.232 147.641 153.148C147.854 153.06 148.036 152.943 148.188 152.797C148.344 152.651 148.464 152.477 148.547 152.273C148.63 152.065 148.672 151.828 148.672 151.562V150.281C148.672 150.167 148.656 150.081 148.625 150.023C148.599 149.961 148.562 149.917 148.516 149.891C148.474 149.859 148.427 149.841 148.375 149.836C148.328 149.831 148.284 149.828 148.242 149.828H141.539V159H139.508V148.82C139.508 148.68 139.534 148.547 139.586 148.422C139.638 148.297 139.708 148.188 139.797 148.094C139.891 148 140 147.927 140.125 147.875C140.25 147.823 140.385 147.797 140.531 147.797H148.242C148.695 147.797 149.078 147.88 149.391 148.047C149.703 148.208 149.956 148.414 150.148 148.664C150.346 148.909 150.487 149.174 150.57 149.461C150.659 149.747 150.703 150.016 150.703 150.266V151.562Z" fill="#05C174"/>
<g style="mix-blend-mode:screen">
<path d="M65 107.54V29.1808H134.908L155.193 47.8194V107.54H65Z" stroke="#05B0C1" stroke-width="3" stroke-miterlimit="10"/>
<path d="M130.998 29.1808V56.1012H92.646V29.1808" stroke="#05B0C1" stroke-width="3" stroke-miterlimit="10"/>
<path d="M141.809 80.0239H81.8135V107.54H141.809V80.0239Z" stroke="#05B0C1" stroke-width="3" stroke-miterlimit="10"/>
</g>
</g>
<defs>
<clipPath id="clip0_753_169">
<rect width="209" height="172" fill="white"/>
</clipPath>
</defs>
</svg>
