<svg width="1187" height="627" viewBox="0 0 1187 627" fill="none" xmlns="http://www.w3.org/2000/svg">
<path d="M1.40039 122.244L1.40039 481.244H45.4004L45.4004 122.244H23.4004H1.40039Z" stroke="url(#paint0_linear_0_1)" stroke-width="2.8" stroke-miterlimit="10"/>
<path d="M7.75098 166.13L7.75098 196.07H38.7512V166.13H7.75098Z" fill="url(#paint1_linear_0_1)"/>
<path d="M7.75098 200.963L7.75098 230.902H38.7512V200.963H7.75098Z" fill="url(#paint2_linear_0_1)"/>
<path d="M7.75098 235.795L7.75098 265.735H38.7512V235.795H7.75098Z" fill="url(#paint3_linear_0_1)"/>
<path d="M7.75098 270.628L7.75098 300.568H38.7512V270.628H7.75098Z" fill="url(#paint4_linear_0_1)"/>
<path d="M7.75098 305.461L7.75098 335.4H38.7512V305.461H7.75098Z" fill="url(#paint5_linear_0_1)"/>
<path d="M7.75098 340.293L7.75098 370.233H38.7512V340.293H7.75098Z" fill="url(#paint6_linear_0_1)"/>
<path d="M7.75098 375.118L7.75098 405.057H38.7512V375.118H7.75098Z" fill="url(#paint7_linear_0_1)"/>
<path d="M7.75098 409.95L7.75098 439.89H38.7512V409.95H7.75098Z" fill="url(#paint8_linear_0_1)"/>
<path d="M7.75098 444.783L7.75098 474.723H38.7512V444.783H7.75098Z" fill="url(#paint9_linear_0_1)"/>
<path d="M1169.05 184.352V625.271H192.899L74.4004 506.775V88.3278L133.716 34.2441H331.169L393.04 87.9835H1081.97L1169.05 184.352Z" fill="#090223" fill-opacity="0.69" stroke="#05C174" stroke-width="3" stroke-miterlimit="10"/>
<path d="M1184.98 75.2441V171.956L1097.4 75.2441H1184.98Z" stroke="#05C174" stroke-width="3" stroke-miterlimit="10"/>
<path d="M292.563 84.1563H277.572L295.874 43.4876H310.865L292.563 84.1563Z" fill="#05C174"/>
<path d="M273.891 84.1563H258.9L277.202 43.4876H292.206L273.891 84.1563Z" fill="#05C174"/>
<path d="M255.219 84.1563H240.228L258.543 43.4876H273.534L255.219 84.1563Z" fill="#05C174"/>
<path d="M236.559 84.1563H221.555L239.87 43.4876H254.861L236.559 84.1563Z" fill="#05C174"/>
<path d="M217.886 84.1563H202.882L221.197 43.4876H236.188L217.886 84.1563Z" fill="#05C174"/>
<path d="M199.214 84.1563H184.223L202.524 43.4876H217.516L199.214 84.1563Z" fill="#05C174"/>
<path d="M180.541 84.1563H165.55L183.852 43.4876H198.856L180.541 84.1563Z" fill="#05C174"/>
<path d="M161.869 84.1563H146.878L165.193 43.4876H180.184L161.869 84.1563Z" fill="#05C174"/>
<path d="M143.209 84.1563H128.205L146.52 43.4876H161.511L143.209 84.1563Z" fill="#05C174"/>
<g clip-path="url(#clip0_0_1)">
<g clip-path="url(#clip1_0_1)">
<path d="M1138.4 233.66V253.547L1084.4 191.651V171.763L1138.4 233.66Z" fill="url(#paint10_linear_0_1)"/>
<path d="M1138.4 208.906V228.782L1084.4 166.886V146.998L1138.4 208.906Z" fill="url(#paint11_linear_0_1)"/>
<path d="M1138.4 184.14V204.028L1084.4 142.132V122.244L1138.4 184.14Z" fill="url(#paint12_linear_0_1)"/>
<path d="M1138.4 258.413V278.301L1084.4 216.405V196.517L1138.4 258.413Z" fill="url(#paint13_linear_0_1)"/>
<path d="M1138.4 283.179V303.066L1084.4 241.17V221.283L1138.4 283.179Z" fill="url(#paint14_linear_0_1)"/>
<path d="M1138.4 307.933V327.82L1084.4 265.924V246.036L1138.4 307.933Z" fill="url(#paint15_linear_0_1)"/>
<path d="M1138.4 332.698V352.586L1084.4 290.678V270.802L1138.4 332.698Z" fill="url(#paint16_linear_0_1)"/>
<path d="M1138.4 357.452V377.339L1084.4 315.443V295.556L1138.4 357.452Z" fill="url(#paint17_linear_0_1)"/>
<path d="M1138.4 382.217V402.093L1084.4 340.197V320.309L1138.4 382.217Z" fill="url(#paint18_linear_0_1)"/>
<path d="M1138.4 406.971V426.859L1084.4 364.963V345.075L1138.4 406.971Z" fill="url(#paint19_linear_0_1)"/>
<path d="M1138.4 431.725V451.613L1084.4 389.716V369.829L1138.4 431.725Z" fill="url(#paint20_linear_0_1)"/>
<path d="M1138.4 456.49V476.378L1084.4 414.482V394.594L1138.4 456.49Z" fill="url(#paint21_linear_0_1)"/>
<path d="M1138.4 481.244H1084.4V419.348L1138.4 481.244Z" fill="url(#paint22_linear_0_1)"/>
</g>
</g>
<g filter="url(#filter0_d_0_1)">
<path d="M421.871 31.3535C421.871 33.0918 421.656 34.6445 421.227 36.0117C420.797 37.3789 420.211 38.5898 419.469 39.6445C418.746 40.6797 417.906 41.5684 416.949 42.3105C415.992 43.0527 414.986 43.668 413.932 44.1562C412.896 44.625 411.842 44.9668 410.768 45.1816C409.713 45.3965 408.717 45.5039 407.779 45.5039L423.688 59.2441H411.91L396.031 45.5039H390.553V37.8867H407.779C408.736 37.8086 409.605 37.6133 410.387 37.3008C411.188 36.9688 411.871 36.5293 412.438 35.9824C413.023 35.4355 413.473 34.7812 413.785 34.0195C414.098 33.2383 414.254 32.3496 414.254 31.3535V26.5488C414.254 26.1191 414.195 25.7969 414.078 25.582C413.98 25.3477 413.844 25.1816 413.668 25.084C413.512 24.9668 413.336 24.8984 413.141 24.8789C412.965 24.8594 412.799 24.8496 412.643 24.8496H387.506V59.2441H379.889V21.0703C379.889 20.543 379.986 20.0449 380.182 19.5762C380.377 19.1074 380.641 18.6973 380.973 18.3457C381.324 17.9941 381.734 17.7207 382.203 17.5254C382.672 17.3301 383.18 17.2324 383.727 17.2324H412.643C414.342 17.2324 415.777 17.5449 416.949 18.1699C418.121 18.7754 419.068 19.5469 419.791 20.4844C420.533 21.4023 421.061 22.3984 421.373 23.4727C421.705 24.5469 421.871 25.5527 421.871 26.4902V31.3535ZM464.059 42.0762H440.006V34.4004H464.059V42.0762ZM467.486 59.2441H440.006C438.951 59.2441 437.799 59.0586 436.549 58.6875C435.299 58.3164 434.137 57.7109 433.062 56.8711C432.008 56.0117 431.119 54.9082 430.396 53.5605C429.693 52.1934 429.342 50.5234 429.342 48.5508V21.0703C429.342 20.543 429.439 20.0449 429.635 19.5762C429.83 19.1074 430.094 18.6973 430.426 18.3457C430.777 17.9941 431.188 17.7207 431.656 17.5254C432.125 17.3301 432.633 17.2324 433.18 17.2324H467.486V24.8496H436.959V48.5508C436.959 49.5469 437.223 50.3086 437.75 50.8359C438.277 51.3633 439.049 51.627 440.064 51.627H467.486V59.2441ZM516.031 55.4062C516.031 55.9531 515.934 56.4609 515.738 56.9297C515.543 57.3984 515.27 57.8086 514.918 58.1602C514.586 58.4922 514.186 58.7559 513.717 58.9512C513.248 59.1465 512.74 59.2441 512.193 59.2441H484.713C484.01 59.2441 483.248 59.166 482.428 59.0098C481.627 58.834 480.826 58.5703 480.025 58.2188C479.244 57.8672 478.492 57.418 477.77 56.8711C477.047 56.3047 476.402 55.6309 475.836 54.8496C475.289 54.0488 474.85 53.1309 474.518 52.0957C474.186 51.041 474.02 49.8594 474.02 48.5508V27.9258C474.02 27.2227 474.098 26.4707 474.254 25.6699C474.43 24.8496 474.693 24.0488 475.045 23.2676C475.396 22.4668 475.855 21.7051 476.422 20.9824C476.988 20.2598 477.662 19.625 478.443 19.0781C479.244 18.5117 480.162 18.0625 481.197 17.7305C482.232 17.3984 483.404 17.2324 484.713 17.2324H515.68V24.8496H484.713C483.717 24.8496 482.955 25.1133 482.428 25.6406C481.9 26.168 481.637 26.9492 481.637 27.9844V48.5508C481.637 49.5273 481.9 50.2891 482.428 50.8359C482.975 51.3633 483.736 51.627 484.713 51.627H508.414V42.0762H488.141V34.4004H512.193C512.74 34.4004 513.248 34.5078 513.717 34.7227C514.186 34.918 514.586 35.1914 514.918 35.543C515.27 35.8945 515.543 36.3047 515.738 36.7734C515.934 37.2227 516.031 37.7109 516.031 38.2383V55.4062ZM531.646 59.2441H524.029V17.2324H531.646V59.2441ZM580.924 46.8809C580.924 48.3848 580.729 49.7422 580.338 50.9531C579.967 52.1445 579.469 53.1992 578.844 54.1172C578.219 55.0352 577.486 55.8164 576.646 56.4609C575.807 57.1055 574.938 57.6328 574.039 58.043C573.141 58.4531 572.223 58.7559 571.285 58.9512C570.367 59.1465 569.498 59.2441 568.678 59.2441H539.293V51.627H568.678C570.143 51.627 571.275 51.1973 572.076 50.3379C572.896 49.4785 573.307 48.3262 573.307 46.8809C573.307 46.1777 573.199 45.5332 572.984 44.9473C572.77 44.3613 572.457 43.8535 572.047 43.4238C571.656 42.9941 571.168 42.6621 570.582 42.4277C570.016 42.1934 569.381 42.0762 568.678 42.0762H551.158C549.928 42.0762 548.6 41.8613 547.174 41.4316C545.748 40.9824 544.42 40.2695 543.189 39.293C541.979 38.3164 540.963 37.0371 540.143 35.4551C539.342 33.873 538.941 31.9395 538.941 29.6543C538.941 27.3691 539.342 25.4453 540.143 23.8828C540.963 22.3008 541.979 21.0215 543.189 20.0449C544.42 19.0488 545.748 18.3359 547.174 17.9062C548.6 17.457 549.928 17.2324 551.158 17.2324H577.086V24.8496H551.158C549.713 24.8496 548.58 25.2891 547.76 26.168C546.959 27.0469 546.559 28.209 546.559 29.6543C546.559 31.1191 546.959 32.2812 547.76 33.1406C548.58 33.9805 549.713 34.4004 551.158 34.4004H568.678H568.736C569.557 34.4199 570.426 34.5371 571.344 34.752C572.262 34.9473 573.17 35.2598 574.068 35.6895C574.986 36.1191 575.855 36.666 576.676 37.3301C577.496 37.9746 578.219 38.7559 578.844 39.6738C579.488 40.5918 579.996 41.6465 580.367 42.8379C580.738 44.0293 580.924 45.377 580.924 46.8809ZM624.752 24.8496H607.965V59.2441H600.348V24.8496H583.531V17.2324H624.752V24.8496ZM672.359 31.3535C672.359 33.0918 672.145 34.6445 671.715 36.0117C671.285 37.3789 670.699 38.5898 669.957 39.6445C669.234 40.6797 668.395 41.5684 667.438 42.3105C666.48 43.0527 665.475 43.668 664.42 44.1562C663.385 44.625 662.33 44.9668 661.256 45.1816C660.201 45.3965 659.205 45.5039 658.268 45.5039L674.176 59.2441H662.398L646.52 45.5039H641.041V37.8867H658.268C659.225 37.8086 660.094 37.6133 660.875 37.3008C661.676 36.9688 662.359 36.5293 662.926 35.9824C663.512 35.4355 663.961 34.7812 664.273 34.0195C664.586 33.2383 664.742 32.3496 664.742 31.3535V26.5488C664.742 26.1191 664.684 25.7969 664.566 25.582C664.469 25.3477 664.332 25.1816 664.156 25.084C664 24.9668 663.824 24.8984 663.629 24.8789C663.453 24.8594 663.287 24.8496 663.131 24.8496H637.994V59.2441H630.377V21.0703C630.377 20.543 630.475 20.0449 630.67 19.5762C630.865 19.1074 631.129 18.6973 631.461 18.3457C631.812 17.9941 632.223 17.7207 632.691 17.5254C633.16 17.3301 633.668 17.2324 634.215 17.2324H663.131C664.83 17.2324 666.266 17.5449 667.438 18.1699C668.609 18.7754 669.557 19.5469 670.279 20.4844C671.021 21.4023 671.549 22.3984 671.861 23.4727C672.193 24.5469 672.359 25.5527 672.359 26.4902V31.3535ZM721.227 59.2441H713.609V48.9316H686.832V59.2441H679.215V38.2383C679.215 35.1719 679.742 32.3496 680.797 29.7715C681.852 27.1934 683.316 24.9766 685.191 23.1211C687.066 21.2656 689.283 19.8203 691.842 18.7852C694.4 17.75 697.193 17.2324 700.221 17.2324H717.389C717.916 17.2324 718.414 17.3301 718.883 17.5254C719.352 17.7207 719.762 17.9941 720.113 18.3457C720.465 18.6973 720.738 19.1074 720.934 19.5762C721.129 20.0449 721.227 20.543 721.227 21.0703V59.2441ZM686.832 41.3145H713.609V24.8496H700.221C699.986 24.8496 699.488 24.8887 698.727 24.9668C697.984 25.0254 697.115 25.1914 696.119 25.4648C695.143 25.7383 694.107 26.1582 693.014 26.7246C691.92 27.291 690.914 28.0723 689.996 29.0684C689.078 30.0645 688.316 31.3145 687.711 32.8184C687.125 34.3027 686.832 36.1094 686.832 38.2383V41.3145ZM768.072 24.8496H751.285V59.2441H743.668V24.8496H726.852V17.2324H768.072V24.8496ZM781.373 59.2441H773.756V17.2324H781.373V59.2441ZM834.371 42.252C834.371 44.8105 833.932 47.1641 833.053 49.3125C832.174 51.4609 830.953 53.3164 829.391 54.8789C827.828 56.4414 825.973 57.6621 823.824 58.541C821.695 59.4004 819.371 59.8301 816.852 59.8301H806.539C804.02 59.8301 801.686 59.4004 799.537 58.541C797.389 57.6621 795.533 56.4414 793.971 54.8789C792.408 53.3164 791.178 51.4609 790.279 49.3125C789.4 47.1641 788.961 44.8105 788.961 42.252V34.2246C788.961 31.6855 789.4 29.3418 790.279 27.1934C791.178 25.0254 792.408 23.1699 793.971 21.627C795.533 20.0645 797.389 18.8438 799.537 17.9648C801.686 17.0859 804.02 16.6465 806.539 16.6465H816.852C819.371 16.6465 821.695 17.0859 823.824 17.9648C825.973 18.8438 827.828 20.0645 829.391 21.627C830.953 23.1699 832.174 25.0254 833.053 27.1934C833.932 29.3418 834.371 31.6855 834.371 34.2246V42.252ZM826.754 34.2246C826.754 32.7207 826.51 31.3633 826.021 30.1523C825.553 28.9219 824.879 27.877 824 27.0176C823.141 26.1387 822.096 25.4648 820.865 24.9961C819.654 24.5078 818.316 24.2637 816.852 24.2637H806.539C805.055 24.2637 803.697 24.5078 802.467 24.9961C801.256 25.4648 800.211 26.1387 799.332 27.0176C798.453 27.877 797.77 28.9219 797.281 30.1523C796.812 31.3633 796.578 32.7207 796.578 34.2246V42.252C796.578 43.7559 796.812 45.123 797.281 46.3535C797.77 47.5645 798.453 48.6094 799.332 49.4883C800.211 50.3477 801.256 51.0215 802.467 51.5098C803.697 51.9785 805.055 52.2129 806.539 52.2129H816.793C818.277 52.2129 819.625 51.9785 820.836 51.5098C822.066 51.0215 823.121 50.3477 824 49.4883C824.879 48.6094 825.553 47.5645 826.021 46.3535C826.51 45.123 826.754 43.7559 826.754 42.252V34.2246ZM883.883 55.9922C883.883 56.5391 883.775 57.0469 883.561 57.5156C883.365 57.9844 883.092 58.3945 882.74 58.7461C882.408 59.0781 882.008 59.3418 881.539 59.5371C881.07 59.7324 880.572 59.8301 880.045 59.8301C879.576 59.8301 879.098 59.7422 878.609 59.5664C878.141 59.3906 877.721 59.1074 877.35 58.7168L849.518 29.6543V59.2441H841.9V20.4844C841.9 19.7031 842.115 19 842.545 18.375C842.994 17.7305 843.561 17.252 844.244 16.9395C844.967 16.6465 845.709 16.5781 846.471 16.7344C847.232 16.8711 847.887 17.2227 848.434 17.7891L876.266 46.8223V17.2324H883.883V55.9922Z" fill="#05B0C1"/>
</g>
<defs>
<filter id="filter0_d_0_1" x="363.389" y="0" width="536.994" height="76.3301" filterUnits="userSpaceOnUse" color-interpolation-filters="sRGB">
<feFlood flood-opacity="0" result="BackgroundImageFix"/>
<feColorMatrix in="SourceAlpha" type="matrix" values="0 0 0 0 0 0 0 0 0 0 0 0 0 0 0 0 0 0 127 0" result="hardAlpha"/>
<feOffset/>
<feGaussianBlur stdDeviation="8.25"/>
<feComposite in2="hardAlpha" operator="out"/>
<feColorMatrix type="matrix" values="0 0 0 0 0.0196078 0 0 0 0 0.690196 0 0 0 0 0.756863 0 0 0 1 0"/>
<feBlend mode="normal" in2="BackgroundImageFix" result="effect1_dropShadow_0_1"/>
<feBlend mode="normal" in="SourceGraphic" in2="effect1_dropShadow_0_1" result="shape"/>
</filter>
<linearGradient id="paint0_linear_0_1" x1="23.4045" y1="482.189" x2="23.4045" y2="121.306" gradientUnits="userSpaceOnUse">
<stop stop-color="#05C174"/>
<stop offset="0.93" stop-color="#05C174"/>
</linearGradient>
<linearGradient id="paint1_linear_0_1" x1="23.2552" y1="196.07" x2="23.2552" y2="166.13" gradientUnits="userSpaceOnUse">
<stop stop-color="#05B0C1"/>
<stop offset="0.93" stop-color="#05C174"/>
</linearGradient>
<linearGradient id="paint2_linear_0_1" x1="23.2552" y1="230.902" x2="23.2552" y2="200.963" gradientUnits="userSpaceOnUse">
<stop stop-color="#05B0C1"/>
<stop offset="0.93" stop-color="#05C174"/>
</linearGradient>
<linearGradient id="paint3_linear_0_1" x1="23.2552" y1="265.735" x2="23.2552" y2="235.795" gradientUnits="userSpaceOnUse">
<stop stop-color="#05B0C1"/>
<stop offset="0.93" stop-color="#05C174"/>
</linearGradient>
<linearGradient id="paint4_linear_0_1" x1="23.2552" y1="300.568" x2="23.2552" y2="270.628" gradientUnits="userSpaceOnUse">
<stop stop-color="#05B0C1"/>
<stop offset="0.93" stop-color="#05C174"/>
</linearGradient>
<linearGradient id="paint5_linear_0_1" x1="23.2552" y1="335.4" x2="23.2552" y2="305.461" gradientUnits="userSpaceOnUse">
<stop stop-color="#05B0C1"/>
<stop offset="0.93" stop-color="#05C174"/>
</linearGradient>
<linearGradient id="paint6_linear_0_1" x1="23.2552" y1="370.233" x2="23.2552" y2="340.285" gradientUnits="userSpaceOnUse">
<stop stop-color="#05B0C1"/>
<stop offset="0.93" stop-color="#05C174"/>
</linearGradient>
<linearGradient id="paint7_linear_0_1" x1="23.2552" y1="405.057" x2="23.2552" y2="375.118" gradientUnits="userSpaceOnUse">
<stop stop-color="#05B0C1"/>
<stop offset="0.93" stop-color="#05C174"/>
</linearGradient>
<linearGradient id="paint8_linear_0_1" x1="23.2552" y1="439.89" x2="23.2552" y2="409.95" gradientUnits="userSpaceOnUse">
<stop stop-color="#05B0C1"/>
<stop offset="0.93" stop-color="#05C174"/>
</linearGradient>
<linearGradient id="paint9_linear_0_1" x1="23.2552" y1="474.723" x2="23.2552" y2="444.783" gradientUnits="userSpaceOnUse">
<stop stop-color="#05B0C1"/>
<stop offset="0.93" stop-color="#05C174"/>
</linearGradient>
<linearGradient id="paint10_linear_0_1" x1="1138.94" y1="56.6103" x2="1080.18" y2="390.35" gradientUnits="userSpaceOnUse">
<stop stop-color="#05B0C1"/>
<stop offset="0.24" stop-color="#05B3B2"/>
<stop offset="0.69" stop-color="#05BB8B"/>
<stop offset="0.93" stop-color="#05C174"/>
</linearGradient>
<linearGradient id="paint11_linear_0_1" x1="1134.71" y1="55.8697" x2="1075.94" y2="389.598" gradientUnits="userSpaceOnUse">
<stop stop-color="#05B0C1"/>
<stop offset="0.24" stop-color="#05B3B2"/>
<stop offset="0.69" stop-color="#05BB8B"/>
<stop offset="0.93" stop-color="#05C174"/>
</linearGradient>
<linearGradient id="paint12_linear_0_1" x1="1130.46" y1="55.1175" x2="1071.7" y2="388.858" gradientUnits="userSpaceOnUse">
<stop stop-color="#05B0C1"/>
<stop offset="0.24" stop-color="#05B3B2"/>
<stop offset="0.69" stop-color="#05BB8B"/>
<stop offset="0.93" stop-color="#05C174"/>
</linearGradient>
<linearGradient id="paint13_linear_0_1" x1="1143.18" y1="57.3625" x2="1084.41" y2="391.091" gradientUnits="userSpaceOnUse">
<stop stop-color="#05B0C1"/>
<stop offset="0.24" stop-color="#05B3B2"/>
<stop offset="0.69" stop-color="#05BB8B"/>
<stop offset="0.93" stop-color="#05C174"/>
</linearGradient>
<linearGradient id="paint14_linear_0_1" x1="1147.41" y1="58.103" x2="1088.66" y2="391.843" gradientUnits="userSpaceOnUse">
<stop stop-color="#05B0C1"/>
<stop offset="0.24" stop-color="#05B3B2"/>
<stop offset="0.69" stop-color="#05BB8B"/>
<stop offset="0.93" stop-color="#05C174"/>
</linearGradient>
<linearGradient id="paint15_linear_0_1" x1="1151.65" y1="58.8553" x2="1092.9" y2="392.584" gradientUnits="userSpaceOnUse">
<stop stop-color="#05B0C1"/>
<stop offset="0.24" stop-color="#05B3B2"/>
<stop offset="0.69" stop-color="#05BB8B"/>
<stop offset="0.93" stop-color="#05C174"/>
</linearGradient>
<linearGradient id="paint16_linear_0_1" x1="1155.89" y1="59.5957" x2="1097.13" y2="393.336" gradientUnits="userSpaceOnUse">
<stop stop-color="#05B0C1"/>
<stop offset="0.24" stop-color="#05B3B2"/>
<stop offset="0.69" stop-color="#05BB8B"/>
<stop offset="0.93" stop-color="#05C174"/>
</linearGradient>
<linearGradient id="paint17_linear_0_1" x1="1160.12" y1="60.348" x2="1101.37" y2="394.076" gradientUnits="userSpaceOnUse">
<stop stop-color="#05B0C1"/>
<stop offset="0.24" stop-color="#05B3B2"/>
<stop offset="0.69" stop-color="#05BB8B"/>
<stop offset="0.93" stop-color="#05C174"/>
</linearGradient>
<linearGradient id="paint18_linear_0_1" x1="1164.36" y1="61.0885" x2="1105.61" y2="394.829" gradientUnits="userSpaceOnUse">
<stop stop-color="#05B0C1"/>
<stop offset="0.24" stop-color="#05B3B2"/>
<stop offset="0.69" stop-color="#05BB8B"/>
<stop offset="0.93" stop-color="#05C174"/>
</linearGradient>
<linearGradient id="paint19_linear_0_1" x1="1168.6" y1="61.829" x2="1109.84" y2="395.569" gradientUnits="userSpaceOnUse">
<stop stop-color="#05B0C1"/>
<stop offset="0.24" stop-color="#05B3B2"/>
<stop offset="0.69" stop-color="#05BB8B"/>
<stop offset="0.93" stop-color="#05C174"/>
</linearGradient>
<linearGradient id="paint20_linear_0_1" x1="1172.83" y1="62.5812" x2="1114.08" y2="396.31" gradientUnits="userSpaceOnUse">
<stop stop-color="#05B0C1"/>
<stop offset="0.24" stop-color="#05B3B2"/>
<stop offset="0.69" stop-color="#05BB8B"/>
<stop offset="0.93" stop-color="#05C174"/>
</linearGradient>
<linearGradient id="paint21_linear_0_1" x1="1177.07" y1="63.3217" x2="1118.31" y2="397.062" gradientUnits="userSpaceOnUse">
<stop stop-color="#05B0C1"/>
<stop offset="0.24" stop-color="#05B3B2"/>
<stop offset="0.69" stop-color="#05BB8B"/>
<stop offset="0.93" stop-color="#05C174"/>
</linearGradient>
<linearGradient id="paint22_linear_0_1" x1="1179.61" y1="63.7685" x2="1120.86" y2="397.509" gradientUnits="userSpaceOnUse">
<stop stop-color="#05B0C1"/>
<stop offset="0.24" stop-color="#05B3B2"/>
<stop offset="0.69" stop-color="#05BB8B"/>
<stop offset="0.93" stop-color="#05C174"/>
</linearGradient>
<clipPath id="clip0_0_1">
<rect width="53" height="354" fill="white" transform="translate(1084.4 127.244)"/>
</clipPath>
<clipPath id="clip1_0_1">
<rect width="54" height="359" fill="white" transform="translate(1084.4 122.244)"/>
</clipPath>
</defs>
</svg>
