<svg width="1187" height="627" viewBox="0 0 1187 627" fill="none" xmlns="http://www.w3.org/2000/svg">
<path d="M1.39999 122.244L1.39999 481.244H45.4L45.4 122.244H23.4H1.39999Z" stroke="url(#paint0_linear_567_1094)" stroke-width="2.8" stroke-miterlimit="10"/>
<path d="M7.75085 166.13L7.75085 196.07H38.7511V166.13H7.75085Z" fill="url(#paint1_linear_567_1094)"/>
<path d="M7.75085 200.963L7.75085 230.902H38.7511V200.963H7.75085Z" fill="url(#paint2_linear_567_1094)"/>
<path d="M7.75085 235.795L7.75085 265.735H38.7511V235.795H7.75085Z" fill="url(#paint3_linear_567_1094)"/>
<path d="M7.75085 270.628L7.75085 300.568H38.7511V270.628H7.75085Z" fill="url(#paint4_linear_567_1094)"/>
<path d="M7.75085 305.461L7.75085 335.4H38.7511V305.461H7.75085Z" fill="url(#paint5_linear_567_1094)"/>
<path d="M7.75085 340.293L7.75085 370.233H38.7511V340.293H7.75085Z" fill="url(#paint6_linear_567_1094)"/>
<path d="M7.75085 375.118L7.75085 405.057H38.7511V375.118H7.75085Z" fill="url(#paint7_linear_567_1094)"/>
<path d="M7.75085 409.951L7.75085 439.89H38.7511V409.951H7.75085Z" fill="url(#paint8_linear_567_1094)"/>
<path d="M7.75101 444.783L7.75101 474.723H38.7512V444.783H7.75101Z" fill="url(#paint9_linear_567_1094)"/>
<path d="M1169.05 184.352V625.271H192.898L74.4 506.775V88.3278L133.715 34.2441H331.168L393.039 87.9835H1081.97L1169.05 184.352Z" fill="#090223" fill-opacity="0.69" stroke="#05C174" stroke-width="3" stroke-miterlimit="10"/>
<path d="M1184.98 75.2441V171.956L1097.4 75.2441H1184.98Z" stroke="#05C174" stroke-width="3" stroke-miterlimit="10"/>
<path d="M292.563 84.1564H277.572L295.874 43.4877H310.865L292.563 84.1564Z" fill="#05C174"/>
<path d="M273.891 84.1564H258.9L277.201 43.4877H292.206L273.891 84.1564Z" fill="#05C174"/>
<path d="M255.218 84.1564H240.227L258.542 43.4877H273.533L255.218 84.1564Z" fill="#05C174"/>
<path d="M236.559 84.1564H221.554L239.869 43.4877H254.861L236.559 84.1564Z" fill="#05C174"/>
<path d="M217.886 84.1564H202.882L221.197 43.4877H236.188L217.886 84.1564Z" fill="#05C174"/>
<path d="M199.214 84.1564H184.222L202.524 43.4877H217.515L199.214 84.1564Z" fill="#05C174"/>
<path d="M180.541 84.1564H165.55L183.852 43.4877H198.856L180.541 84.1564Z" fill="#05C174"/>
<path d="M161.868 84.1564H146.877L165.192 43.4877H180.183L161.868 84.1564Z" fill="#05C174"/>
<path d="M143.209 84.1564H128.205L146.52 43.4877H161.511L143.209 84.1564Z" fill="#05C174"/>
<g clip-path="url(#clip0_567_1094)">
<path d="M1101.53 597.642C1123.39 597.642 1141.11 579.929 1141.11 558.078C1141.11 536.227 1123.39 518.514 1101.53 518.514C1079.67 518.514 1061.95 536.227 1061.95 558.078C1061.95 579.929 1079.67 597.642 1101.53 597.642Z" stroke="#05C174" stroke-width="3.14" stroke-miterlimit="10"/>
<path d="M1101.79 597.975C1114.87 597.975 1125.48 580.261 1125.48 558.41C1125.48 536.56 1114.87 518.846 1101.79 518.846C1088.71 518.846 1078.1 536.56 1078.1 558.41C1078.1 580.261 1088.71 597.975 1101.79 597.975Z" stroke="#05C174" stroke-width="3.14" stroke-miterlimit="10"/>
<path d="M1101.27 597.642C1106.6 597.642 1110.92 579.929 1110.92 558.078C1110.92 536.227 1106.6 518.514 1101.27 518.514C1095.94 518.514 1091.62 536.227 1091.62 558.078C1091.62 579.929 1095.94 597.642 1101.27 597.642Z" stroke="#05C174" stroke-width="3.14" stroke-miterlimit="10"/>
<path d="M1101.11 572.923C1122.68 572.923 1140.16 566.523 1140.16 558.627C1140.16 550.731 1122.68 544.331 1101.11 544.331C1079.54 544.331 1062.06 550.731 1062.06 558.627C1062.06 566.523 1079.54 572.923 1101.11 572.923Z" stroke="#05C174" stroke-width="3.69" stroke-miterlimit="10"/>
</g>
<g clip-path="url(#clip1_567_1094)">
<g clip-path="url(#clip2_567_1094)">
<path d="M1138.4 233.66V253.547L1084.4 191.651V171.763L1138.4 233.66Z" fill="url(#paint10_linear_567_1094)"/>
<path d="M1138.4 208.906V228.782L1084.4 166.886V146.998L1138.4 208.906Z" fill="url(#paint11_linear_567_1094)"/>
<path d="M1138.4 184.14V204.028L1084.4 142.132V122.244L1138.4 184.14Z" fill="url(#paint12_linear_567_1094)"/>
<path d="M1138.4 258.413V278.301L1084.4 216.405V196.517L1138.4 258.413Z" fill="url(#paint13_linear_567_1094)"/>
<path d="M1138.4 283.179V303.066L1084.4 241.17V221.283L1138.4 283.179Z" fill="url(#paint14_linear_567_1094)"/>
<path d="M1138.4 307.933V327.82L1084.4 265.924V246.036L1138.4 307.933Z" fill="url(#paint15_linear_567_1094)"/>
<path d="M1138.4 332.698V352.586L1084.4 290.678V270.802L1138.4 332.698Z" fill="url(#paint16_linear_567_1094)"/>
<path d="M1138.4 357.452V377.339L1084.4 315.443V295.556L1138.4 357.452Z" fill="url(#paint17_linear_567_1094)"/>
<path d="M1138.4 382.217V402.093L1084.4 340.197V320.309L1138.4 382.217Z" fill="url(#paint18_linear_567_1094)"/>
<path d="M1138.4 406.971V426.859L1084.4 364.963V345.075L1138.4 406.971Z" fill="url(#paint19_linear_567_1094)"/>
<path d="M1138.4 431.725V451.613L1084.4 389.716V369.829L1138.4 431.725Z" fill="url(#paint20_linear_567_1094)"/>
<path d="M1138.4 456.49V476.378L1084.4 414.482V394.594L1138.4 456.49Z" fill="url(#paint21_linear_567_1094)"/>
<path d="M1138.4 481.244H1084.4V419.348L1138.4 481.244Z" fill="url(#paint22_linear_567_1094)"/>
</g>
</g>
<g filter="url(#filter0_d_567_1094)">
<path d="M568.412 59.2441H533.666C533.119 59.2441 532.611 59.1465 532.142 58.9512C531.673 58.7559 531.263 58.4922 530.912 58.1602C530.58 57.8086 530.316 57.3984 530.121 56.9297C529.925 56.4609 529.828 55.9531 529.828 55.4062V17.2324H537.445V51.627H568.412V59.2441ZM617.455 42.252C617.455 44.8105 617.015 47.1641 616.136 49.3125C615.257 51.4609 614.037 53.3164 612.474 54.8789C610.912 56.4414 609.056 57.6621 606.908 58.541C604.779 59.4004 602.455 59.8301 599.935 59.8301H589.623C587.103 59.8301 584.769 59.4004 582.621 58.541C580.472 57.6621 578.617 56.4414 577.054 54.8789C575.492 53.3164 574.261 51.4609 573.363 49.3125C572.484 47.1641 572.045 44.8105 572.045 42.252V34.2246C572.045 31.6855 572.484 29.3418 573.363 27.1934C574.261 25.0254 575.492 23.1699 577.054 21.627C578.617 20.0645 580.472 18.8438 582.621 17.9648C584.769 17.0859 587.103 16.6465 589.623 16.6465H599.935C602.455 16.6465 604.779 17.0859 606.908 17.9648C609.056 18.8438 610.912 20.0645 612.474 21.627C614.037 23.1699 615.257 25.0254 616.136 27.1934C617.015 29.3418 617.455 31.6855 617.455 34.2246V42.252ZM609.837 34.2246C609.837 32.7207 609.593 31.3633 609.105 30.1523C608.636 28.9219 607.962 27.877 607.084 27.0176C606.224 26.1387 605.179 25.4648 603.949 24.9961C602.738 24.5078 601.4 24.2637 599.935 24.2637H589.623C588.138 24.2637 586.781 24.5078 585.55 24.9961C584.339 25.4648 583.295 26.1387 582.416 27.0176C581.537 27.877 580.853 28.9219 580.365 30.1523C579.896 31.3633 579.662 32.7207 579.662 34.2246V42.252C579.662 43.7559 579.896 45.123 580.365 46.3535C580.853 47.5645 581.537 48.6094 582.416 49.4883C583.295 50.3477 584.339 51.0215 585.55 51.5098C586.781 51.9785 588.138 52.2129 589.623 52.2129H599.877C601.361 52.2129 602.709 51.9785 603.92 51.5098C605.15 51.0215 606.205 50.3477 607.084 49.4883C607.962 48.6094 608.636 47.5645 609.105 46.3535C609.593 45.123 609.837 43.7559 609.837 42.252V34.2246ZM666.439 55.4062C666.439 55.9531 666.341 56.4609 666.146 56.9297C665.951 57.3984 665.677 57.8086 665.326 58.1602C664.994 58.4922 664.593 58.7559 664.125 58.9512C663.656 59.1465 663.148 59.2441 662.601 59.2441H635.121C634.418 59.2441 633.656 59.166 632.836 59.0098C632.035 58.834 631.234 58.5703 630.433 58.2188C629.652 57.8672 628.9 57.418 628.177 56.8711C627.455 56.3047 626.81 55.6309 626.244 54.8496C625.697 54.0488 625.257 53.1309 624.925 52.0957C624.593 51.041 624.427 49.8594 624.427 48.5508V27.9258C624.427 27.2227 624.505 26.4707 624.662 25.6699C624.837 24.8496 625.101 24.0488 625.453 23.2676C625.804 22.4668 626.263 21.7051 626.83 20.9824C627.396 20.2598 628.07 19.625 628.851 19.0781C629.652 18.5117 630.57 18.0625 631.605 17.7305C632.64 17.3984 633.812 17.2324 635.121 17.2324H666.087V24.8496H635.121C634.125 24.8496 633.363 25.1133 632.836 25.6406C632.308 26.168 632.045 26.9492 632.045 27.9844V48.5508C632.045 49.5273 632.308 50.2891 632.836 50.8359C633.382 51.3633 634.144 51.627 635.121 51.627H658.822V42.0762H638.548V34.4004H662.601C663.148 34.4004 663.656 34.5078 664.125 34.7227C664.593 34.918 664.994 35.1914 665.326 35.543C665.677 35.8945 665.951 36.3047 666.146 36.7734C666.341 37.2227 666.439 37.7109 666.439 38.2383V55.4062ZM682.054 59.2441H674.437V17.2324H682.054V59.2441ZM732.943 55.9922C732.943 56.5391 732.836 57.0469 732.621 57.5156C732.425 57.9844 732.152 58.3945 731.8 58.7461C731.468 59.0781 731.068 59.3418 730.599 59.5371C730.13 59.7324 729.632 59.8301 729.105 59.8301C728.636 59.8301 728.158 59.7422 727.67 59.5664C727.201 59.3906 726.781 59.1074 726.41 58.7168L698.578 29.6543V59.2441H690.961V20.4844C690.961 19.7031 691.175 19 691.605 18.375C692.054 17.7305 692.621 17.252 693.304 16.9395C694.027 16.6465 694.769 16.5781 695.531 16.7344C696.293 16.8711 696.947 17.2227 697.494 17.7891L725.326 46.8223V17.2324H732.943V55.9922Z" fill="#05B0C1"/>
</g>
<defs>
<filter id="filter0_d_567_1094" x="513.328" y="0" width="236.115" height="76.3301" filterUnits="userSpaceOnUse" color-interpolation-filters="sRGB">
<feFlood flood-opacity="0" result="BackgroundImageFix"/>
<feColorMatrix in="SourceAlpha" type="matrix" values="0 0 0 0 0 0 0 0 0 0 0 0 0 0 0 0 0 0 127 0" result="hardAlpha"/>
<feOffset/>
<feGaussianBlur stdDeviation="8.25"/>
<feComposite in2="hardAlpha" operator="out"/>
<feColorMatrix type="matrix" values="0 0 0 0 0.0196078 0 0 0 0 0.690196 0 0 0 0 0.756863 0 0 0 1 0"/>
<feBlend mode="normal" in2="BackgroundImageFix" result="effect1_dropShadow_567_1094"/>
<feBlend mode="normal" in="SourceGraphic" in2="effect1_dropShadow_567_1094" result="shape"/>
</filter>
<linearGradient id="paint0_linear_567_1094" x1="23.4041" y1="482.189" x2="23.4041" y2="121.306" gradientUnits="userSpaceOnUse">
<stop stop-color="#05C174"/>
<stop offset="0.93" stop-color="#05C174"/>
</linearGradient>
<linearGradient id="paint1_linear_567_1094" x1="23.2551" y1="196.07" x2="23.2551" y2="166.13" gradientUnits="userSpaceOnUse">
<stop stop-color="#05B0C1"/>
<stop offset="0.93" stop-color="#05C174"/>
</linearGradient>
<linearGradient id="paint2_linear_567_1094" x1="23.2551" y1="230.902" x2="23.2551" y2="200.963" gradientUnits="userSpaceOnUse">
<stop stop-color="#05B0C1"/>
<stop offset="0.93" stop-color="#05C174"/>
</linearGradient>
<linearGradient id="paint3_linear_567_1094" x1="23.2551" y1="265.735" x2="23.2551" y2="235.795" gradientUnits="userSpaceOnUse">
<stop stop-color="#05B0C1"/>
<stop offset="0.93" stop-color="#05C174"/>
</linearGradient>
<linearGradient id="paint4_linear_567_1094" x1="23.2551" y1="300.568" x2="23.2551" y2="270.628" gradientUnits="userSpaceOnUse">
<stop stop-color="#05B0C1"/>
<stop offset="0.93" stop-color="#05C174"/>
</linearGradient>
<linearGradient id="paint5_linear_567_1094" x1="23.2551" y1="335.4" x2="23.2551" y2="305.461" gradientUnits="userSpaceOnUse">
<stop stop-color="#05B0C1"/>
<stop offset="0.93" stop-color="#05C174"/>
</linearGradient>
<linearGradient id="paint6_linear_567_1094" x1="23.2551" y1="370.233" x2="23.2551" y2="340.285" gradientUnits="userSpaceOnUse">
<stop stop-color="#05B0C1"/>
<stop offset="0.93" stop-color="#05C174"/>
</linearGradient>
<linearGradient id="paint7_linear_567_1094" x1="23.2551" y1="405.057" x2="23.2551" y2="375.118" gradientUnits="userSpaceOnUse">
<stop stop-color="#05B0C1"/>
<stop offset="0.93" stop-color="#05C174"/>
</linearGradient>
<linearGradient id="paint8_linear_567_1094" x1="23.2551" y1="439.89" x2="23.2551" y2="409.951" gradientUnits="userSpaceOnUse">
<stop stop-color="#05B0C1"/>
<stop offset="0.93" stop-color="#05C174"/>
</linearGradient>
<linearGradient id="paint9_linear_567_1094" x1="23.2553" y1="474.723" x2="23.2553" y2="444.783" gradientUnits="userSpaceOnUse">
<stop stop-color="#05B0C1"/>
<stop offset="0.93" stop-color="#05C174"/>
</linearGradient>
<linearGradient id="paint10_linear_567_1094" x1="1138.94" y1="56.6103" x2="1080.18" y2="390.35" gradientUnits="userSpaceOnUse">
<stop stop-color="#05B0C1"/>
<stop offset="0.24" stop-color="#05B3B2"/>
<stop offset="0.69" stop-color="#05BB8B"/>
<stop offset="0.93" stop-color="#05C174"/>
</linearGradient>
<linearGradient id="paint11_linear_567_1094" x1="1134.71" y1="55.8698" x2="1075.94" y2="389.598" gradientUnits="userSpaceOnUse">
<stop stop-color="#05B0C1"/>
<stop offset="0.24" stop-color="#05B3B2"/>
<stop offset="0.69" stop-color="#05BB8B"/>
<stop offset="0.93" stop-color="#05C174"/>
</linearGradient>
<linearGradient id="paint12_linear_567_1094" x1="1130.46" y1="55.1175" x2="1071.7" y2="388.858" gradientUnits="userSpaceOnUse">
<stop stop-color="#05B0C1"/>
<stop offset="0.24" stop-color="#05B3B2"/>
<stop offset="0.69" stop-color="#05BB8B"/>
<stop offset="0.93" stop-color="#05C174"/>
</linearGradient>
<linearGradient id="paint13_linear_567_1094" x1="1143.18" y1="57.3625" x2="1084.41" y2="391.091" gradientUnits="userSpaceOnUse">
<stop stop-color="#05B0C1"/>
<stop offset="0.24" stop-color="#05B3B2"/>
<stop offset="0.69" stop-color="#05BB8B"/>
<stop offset="0.93" stop-color="#05C174"/>
</linearGradient>
<linearGradient id="paint14_linear_567_1094" x1="1147.41" y1="58.103" x2="1088.66" y2="391.843" gradientUnits="userSpaceOnUse">
<stop stop-color="#05B0C1"/>
<stop offset="0.24" stop-color="#05B3B2"/>
<stop offset="0.69" stop-color="#05BB8B"/>
<stop offset="0.93" stop-color="#05C174"/>
</linearGradient>
<linearGradient id="paint15_linear_567_1094" x1="1151.65" y1="58.8552" x2="1092.9" y2="392.584" gradientUnits="userSpaceOnUse">
<stop stop-color="#05B0C1"/>
<stop offset="0.24" stop-color="#05B3B2"/>
<stop offset="0.69" stop-color="#05BB8B"/>
<stop offset="0.93" stop-color="#05C174"/>
</linearGradient>
<linearGradient id="paint16_linear_567_1094" x1="1155.89" y1="59.5958" x2="1097.13" y2="393.336" gradientUnits="userSpaceOnUse">
<stop stop-color="#05B0C1"/>
<stop offset="0.24" stop-color="#05B3B2"/>
<stop offset="0.69" stop-color="#05BB8B"/>
<stop offset="0.93" stop-color="#05C174"/>
</linearGradient>
<linearGradient id="paint17_linear_567_1094" x1="1160.12" y1="60.3479" x2="1101.37" y2="394.076" gradientUnits="userSpaceOnUse">
<stop stop-color="#05B0C1"/>
<stop offset="0.24" stop-color="#05B3B2"/>
<stop offset="0.69" stop-color="#05BB8B"/>
<stop offset="0.93" stop-color="#05C174"/>
</linearGradient>
<linearGradient id="paint18_linear_567_1094" x1="1164.36" y1="61.0885" x2="1105.6" y2="394.829" gradientUnits="userSpaceOnUse">
<stop stop-color="#05B0C1"/>
<stop offset="0.24" stop-color="#05B3B2"/>
<stop offset="0.69" stop-color="#05BB8B"/>
<stop offset="0.93" stop-color="#05C174"/>
</linearGradient>
<linearGradient id="paint19_linear_567_1094" x1="1168.59" y1="61.829" x2="1109.84" y2="395.569" gradientUnits="userSpaceOnUse">
<stop stop-color="#05B0C1"/>
<stop offset="0.24" stop-color="#05B3B2"/>
<stop offset="0.69" stop-color="#05BB8B"/>
<stop offset="0.93" stop-color="#05C174"/>
</linearGradient>
<linearGradient id="paint20_linear_567_1094" x1="1172.83" y1="62.5812" x2="1114.08" y2="396.31" gradientUnits="userSpaceOnUse">
<stop stop-color="#05B0C1"/>
<stop offset="0.24" stop-color="#05B3B2"/>
<stop offset="0.69" stop-color="#05BB8B"/>
<stop offset="0.93" stop-color="#05C174"/>
</linearGradient>
<linearGradient id="paint21_linear_567_1094" x1="1177.07" y1="63.3217" x2="1118.31" y2="397.062" gradientUnits="userSpaceOnUse">
<stop stop-color="#05B0C1"/>
<stop offset="0.24" stop-color="#05B3B2"/>
<stop offset="0.69" stop-color="#05BB8B"/>
<stop offset="0.93" stop-color="#05C174"/>
</linearGradient>
<linearGradient id="paint22_linear_567_1094" x1="1179.61" y1="63.7685" x2="1120.86" y2="397.509" gradientUnits="userSpaceOnUse">
<stop stop-color="#05B0C1"/>
<stop offset="0.24" stop-color="#05B3B2"/>
<stop offset="0.69" stop-color="#05BB8B"/>
<stop offset="0.93" stop-color="#05C174"/>
</linearGradient>
<clipPath id="clip0_567_1094">
<rect width="84" height="84" fill="white" transform="translate(1059.4 516.244)"/>
</clipPath>
<clipPath id="clip1_567_1094">
<rect width="53" height="354" fill="white" transform="translate(1084.4 127.244)"/>
</clipPath>
<clipPath id="clip2_567_1094">
<rect width="54" height="359" fill="white" transform="translate(1084.4 122.244)"/>
</clipPath>
</defs>
</svg>
