<svg width="355" height="472" viewBox="0 0 355 472" fill="none" xmlns="http://www.w3.org/2000/svg">
<path d="M346 52.5V470.5H34.3153L1.5 434.5V26.5837L34.3153 1.5H231.768L266 26.5837H318.5L346 52.5Z" fill="#090223" fill-opacity="0.69" stroke="#05C174" stroke-width="3" stroke-miterlimit="10"/>
<path d="M353.5 22.5V49.5L325 22.5H353.5Z" stroke="#05C174" stroke-width="3" stroke-miterlimit="10"/>
<path d="M201.358 41.8313H186.367L204.669 12.5H219.66L201.358 41.8313Z" fill="#05C174"/>
<path d="M182.686 41.8313H167.695L185.997 12.5H201.001L182.686 41.8313Z" fill="#05C174"/>
<path d="M164.014 41.8313H149.022L167.338 12.5H182.329L164.014 41.8313Z" fill="#05C174"/>
<path d="M145.354 41.8313H130.35L148.665 12.5H163.656L145.354 41.8313Z" fill="#05C174"/>
<path d="M126.681 41.8313H111.677L129.992 12.5H144.983L126.681 41.8313Z" fill="#05C174"/>
<path d="M108.009 41.8313H93.0176L111.319 12.5H126.31L108.009 41.8313Z" fill="#05C174"/>
<path d="M89.3358 41.8313H74.3447L92.6465 12.5H107.651L89.3358 41.8313Z" fill="#05C174"/>
<path d="M70.6639 41.8313H55.6729L73.9879 12.5H88.9789L70.6639 41.8313Z" fill="#05C174"/>
<path d="M52.0043 41.8313H37L55.315 12.5H70.3061L52.0043 41.8313Z" fill="#05C174"/>
<path d="M303.5 385.04V462.5H339.287V385.04H303.5Z" stroke="#00C074" stroke-width="1.55" stroke-miterlimit="10"/>
<path d="M307.365 443.394V457.015H335.7V443.394H307.365Z" fill="#00C074"/>
<path d="M307.231 425.888V439.508H335.566V425.888H307.231Z" fill="#00C074"/>
<path d="M307.231 408.382V422.002H335.566V408.382H307.231Z" fill="#00C074"/>
<path d="M307.087 390.862V404.482H335.421V390.862H307.087Z" fill="#00C074"/>
<path d="M311.774 376.5V384.318H329.828V376.5H311.774Z" fill="#00C074"/>
<path d="M299.245 462.088C211.537 462.229 125.755 462.371 38.0468 462.5C29.5103 453.653 18.7157 441.5 10.5 432V385.5H299.5C299.419 411.029 299.326 436.559 299.245 462.088Z" fill="#3305C1" fill-opacity="0.75" stroke="#05C174" stroke-width="2" stroke-miterlimit="10"/>
<path d="M129.375 172.938C129.375 152.745 145.745 136.375 165.938 136.375C186.13 136.375 202.5 152.745 202.5 172.938C202.5 193.13 186.13 209.5 165.938 209.5H151.312V253.375H165.938C210.362 253.375 246.375 217.362 246.375 172.938C246.375 128.513 210.362 92.5 165.938 92.5C121.513 92.5 85.5 128.513 85.5 172.938H129.375Z" fill="#05B0C1"/>
<path d="M195.188 282.625H151.312V326.5H195.188V282.625Z" fill="#05B0C1"/>
<path d="M152.125 416.312C152.125 412.343 155.343 409.125 159.312 409.125C163.282 409.125 166.5 412.343 166.5 416.312C166.5 420.282 163.282 423.5 159.312 423.5H156.438V432.125H159.312C168.046 432.125 175.125 425.046 175.125 416.312C175.125 407.579 168.046 400.5 159.312 400.5C150.579 400.5 143.5 407.579 143.5 416.312H152.125Z" fill="#05B0C1"/>
<path d="M165.062 437.875H156.438V446.5H165.062V437.875Z" fill="#05B0C1"/>
</svg>
