<svg width="1092" height="273" viewBox="0 0 1092 273" fill="none" xmlns="http://www.w3.org/2000/svg">
<g filter="url(#filter0_d_1061_4247)">
<path d="M530.027 239H511.707C511.238 239 510.73 238.948 510.184 238.844C509.65 238.727 509.116 238.551 508.582 238.316C508.061 238.082 507.56 237.783 507.078 237.418C506.596 237.04 506.167 236.591 505.789 236.07C505.424 235.536 505.132 234.924 504.91 234.234C504.689 233.531 504.578 232.743 504.578 231.871V218.121C504.578 217.652 504.63 217.151 504.734 216.617C504.852 216.07 505.027 215.536 505.262 215.016C505.496 214.482 505.802 213.974 506.18 213.492C506.557 213.01 507.007 212.587 507.527 212.223C508.061 211.845 508.673 211.546 509.363 211.324C510.053 211.103 510.835 210.992 511.707 210.992H530.027V216.07H511.707C511.043 216.07 510.535 216.246 510.184 216.598C509.832 216.949 509.656 217.47 509.656 218.16V231.871C509.656 232.522 509.832 233.03 510.184 233.395C510.548 233.746 511.056 233.922 511.707 233.922H530.027V239ZM556.961 231.871C556.961 232.743 556.85 233.531 556.629 234.234C556.408 234.924 556.115 235.536 555.75 236.07C555.385 236.591 554.962 237.04 554.48 237.418C553.999 237.783 553.491 238.082 552.957 238.316C552.436 238.551 551.902 238.727 551.355 238.844C550.822 238.948 550.314 239 549.832 239H540.672C539.969 239 539.201 238.876 538.367 238.629C537.534 238.382 536.759 237.978 536.043 237.418C535.34 236.845 534.747 236.109 534.266 235.211C533.797 234.299 533.562 233.186 533.562 231.871V224.996C533.562 223.694 533.797 222.594 534.266 221.695C534.747 220.784 535.34 220.048 536.043 219.488C536.759 218.915 537.534 218.505 538.367 218.258C539.201 218.01 539.969 217.887 540.672 217.887H549.832C551.134 217.887 552.241 218.121 553.152 218.59C554.064 219.059 554.799 219.651 555.359 220.367C555.919 221.07 556.323 221.839 556.57 222.672C556.831 223.505 556.961 224.28 556.961 224.996V231.871ZM551.883 225.035C551.883 224.332 551.707 223.811 551.355 223.473C551.004 223.134 550.496 222.965 549.832 222.965H540.711C540.034 222.965 539.52 223.141 539.168 223.492C538.816 223.831 538.641 224.332 538.641 224.996V231.871C538.641 232.535 538.816 233.043 539.168 233.395C539.52 233.746 540.034 233.922 540.711 233.922H549.832C550.522 233.922 551.036 233.746 551.375 233.395C551.714 233.043 551.883 232.535 551.883 231.871V225.035ZM584.461 231.871C584.461 232.743 584.35 233.531 584.129 234.234C583.908 234.924 583.615 235.536 583.25 236.07C582.885 236.591 582.462 237.04 581.98 237.418C581.499 237.783 580.991 238.082 580.457 238.316C579.936 238.551 579.402 238.727 578.855 238.844C578.322 238.948 577.814 239 577.332 239H568.172C567.299 239 566.518 238.889 565.828 238.668C565.138 238.447 564.526 238.154 563.992 237.789C563.471 237.411 563.022 236.982 562.645 236.5C562.28 236.018 561.98 235.517 561.746 234.996C561.512 234.462 561.336 233.928 561.219 233.395C561.115 232.848 561.062 232.34 561.062 231.871V224.996C561.062 223.694 561.297 222.594 561.766 221.695C562.247 220.784 562.84 220.048 563.543 219.488C564.259 218.915 565.034 218.505 565.867 218.258C566.701 218.01 567.469 217.887 568.172 217.887H577.332V222.965H568.211C567.534 222.965 567.02 223.141 566.668 223.492C566.316 223.831 566.141 224.332 566.141 224.996V231.832C566.141 232.522 566.31 233.043 566.648 233.395C567 233.746 567.508 233.922 568.172 233.922H577.332C578.022 233.922 578.536 233.746 578.875 233.395C579.214 233.043 579.383 232.535 579.383 231.871V208.961H584.461V231.871ZM612.02 224.879C612.02 225.582 611.896 226.344 611.648 227.164C611.401 227.971 610.997 228.727 610.438 229.43C609.891 230.12 609.168 230.699 608.27 231.168C607.384 231.637 606.303 231.871 605.027 231.871H595.867V227.047H605.027C605.717 227.047 606.251 226.839 606.629 226.422C607.007 225.992 607.195 225.465 607.195 224.84C607.195 224.176 606.98 223.655 606.551 223.277C606.134 222.9 605.626 222.711 605.027 222.711H595.867C595.177 222.711 594.643 222.926 594.266 223.355C593.888 223.772 593.699 224.293 593.699 224.918V232.008C593.699 232.685 593.908 233.212 594.324 233.59C594.754 233.967 595.281 234.156 595.906 234.156H605.027V239H595.867C595.164 239 594.402 238.876 593.582 238.629C592.775 238.382 592.02 237.984 591.316 237.438C590.626 236.878 590.047 236.155 589.578 235.27C589.109 234.371 588.875 233.284 588.875 232.008V224.879C588.875 224.176 588.999 223.421 589.246 222.613C589.493 221.793 589.891 221.038 590.438 220.348C590.997 219.645 591.72 219.059 592.605 218.59C593.504 218.121 594.591 217.887 595.867 217.887H605.027C605.73 217.887 606.486 218.01 607.293 218.258C608.113 218.505 608.868 218.909 609.559 219.469C610.262 220.016 610.848 220.738 611.316 221.637C611.785 222.522 612.02 223.603 612.02 224.879ZM647.137 222.965H635.652V217.887H647.137V222.965ZM647.137 213.805H635.691C635.001 213.805 634.48 213.98 634.129 214.332C633.777 214.671 633.602 215.172 633.602 215.836V239H628.523V215.836C628.523 214.964 628.634 214.182 628.855 213.492C629.077 212.802 629.37 212.197 629.734 211.676C630.112 211.142 630.542 210.693 631.023 210.328C631.505 209.951 632.007 209.645 632.527 209.41C633.061 209.176 633.595 209.007 634.129 208.902C634.663 208.785 635.171 208.727 635.652 208.727H647.137V213.805ZM673.367 231.871C673.367 232.743 673.257 233.531 673.035 234.234C672.814 234.924 672.521 235.536 672.156 236.07C671.792 236.591 671.368 237.04 670.887 237.418C670.405 237.783 669.897 238.082 669.363 238.316C668.842 238.551 668.309 238.727 667.762 238.844C667.228 238.948 666.72 239 666.238 239H657.078C656.375 239 655.607 238.876 654.773 238.629C653.94 238.382 653.165 237.978 652.449 237.418C651.746 236.845 651.154 236.109 650.672 235.211C650.203 234.299 649.969 233.186 649.969 231.871V224.996C649.969 223.694 650.203 222.594 650.672 221.695C651.154 220.784 651.746 220.048 652.449 219.488C653.165 218.915 653.94 218.505 654.773 218.258C655.607 218.01 656.375 217.887 657.078 217.887H666.238C667.54 217.887 668.647 218.121 669.559 218.59C670.47 219.059 671.206 219.651 671.766 220.367C672.326 221.07 672.729 221.839 672.977 222.672C673.237 223.505 673.367 224.28 673.367 224.996V231.871ZM668.289 225.035C668.289 224.332 668.113 223.811 667.762 223.473C667.41 223.134 666.902 222.965 666.238 222.965H657.117C656.44 222.965 655.926 223.141 655.574 223.492C655.223 223.831 655.047 224.332 655.047 224.996V231.871C655.047 232.535 655.223 233.043 655.574 233.395C655.926 233.746 656.44 233.922 657.117 233.922H666.238C666.928 233.922 667.443 233.746 667.781 233.395C668.12 233.043 668.289 232.535 668.289 231.871V225.035ZM696.18 222.965H684.754C684.064 222.965 683.543 223.141 683.191 223.492C682.84 223.831 682.664 224.332 682.664 224.996V239H677.586V224.996C677.586 224.124 677.697 223.342 677.918 222.652C678.139 221.962 678.432 221.357 678.797 220.836C679.174 220.302 679.604 219.853 680.086 219.488C680.568 219.111 681.069 218.805 681.59 218.57C682.124 218.336 682.658 218.167 683.191 218.062C683.738 217.945 684.246 217.887 684.715 217.887H696.18V222.965ZM735.711 239H730.633V224.996C730.633 224.332 730.464 223.831 730.125 223.492C729.786 223.141 729.279 222.965 728.602 222.965H719.441V217.887H728.602C729.083 217.887 729.591 217.945 730.125 218.062C730.659 218.167 731.186 218.336 731.707 218.57C732.241 218.805 732.749 219.111 733.23 219.488C733.712 219.853 734.135 220.302 734.5 220.836C734.865 221.357 735.158 221.962 735.379 222.652C735.6 223.342 735.711 224.124 735.711 224.996V239ZM717.391 239H712.312V208.961H717.391V239ZM763.445 236.441C763.445 236.806 763.38 237.145 763.25 237.457C763.12 237.77 762.938 238.043 762.703 238.277C762.482 238.499 762.215 238.674 761.902 238.805C761.603 238.935 761.277 239 760.926 239H749.441C748.816 239 748.146 238.928 747.43 238.785C746.727 238.642 746.03 238.414 745.34 238.102C744.65 237.776 743.979 237.372 743.328 236.891C742.69 236.396 742.13 235.803 741.648 235.113C741.167 234.41 740.776 233.603 740.477 232.691C740.19 231.78 740.047 230.751 740.047 229.605V217.887H745.125V229.605C745.125 230.27 745.236 230.868 745.457 231.402C745.691 231.923 746.004 232.372 746.395 232.75C746.785 233.128 747.241 233.421 747.762 233.629C748.296 233.824 748.868 233.922 749.48 233.922H758.367V217.887H763.445V236.441ZM787.059 239H781.98V224.996C781.98 224.332 781.805 223.831 781.453 223.492C781.102 223.141 780.581 222.965 779.891 222.965H773.289V239H768.211V220.406C768.211 220.055 768.276 219.729 768.406 219.43C768.536 219.117 768.719 218.85 768.953 218.629C769.188 218.395 769.461 218.212 769.773 218.082C770.086 217.952 770.418 217.887 770.77 217.887H779.93C780.633 217.887 781.388 218.01 782.195 218.258C783.003 218.505 783.771 218.902 784.5 219.449V217.887H791.375C791.857 217.887 792.365 217.945 792.898 218.062C793.432 218.167 793.96 218.336 794.48 218.57C795.014 218.805 795.522 219.111 796.004 219.488C796.486 219.853 796.909 220.302 797.273 220.836C797.638 221.357 797.931 221.962 798.152 222.652C798.374 223.342 798.484 224.124 798.484 224.996V239H793.406V224.996C793.406 224.332 793.237 223.831 792.898 223.492C792.573 223.141 792.065 222.965 791.375 222.965H786.805C786.974 223.59 787.059 224.267 787.059 224.996V239ZM824.969 232.008C824.969 232.711 824.845 233.473 824.598 234.293C824.35 235.1 823.947 235.855 823.387 236.559C822.84 237.249 822.117 237.828 821.219 238.297C820.333 238.766 819.253 239 817.977 239H808.816C808.113 239 807.352 238.876 806.531 238.629C805.724 238.382 804.969 237.984 804.266 237.438C803.576 236.878 802.996 236.155 802.527 235.27C802.059 234.371 801.824 233.284 801.824 232.008C801.824 231.305 801.948 230.543 802.195 229.723C802.443 228.902 802.84 228.147 803.387 227.457C803.947 226.754 804.669 226.168 805.555 225.699C806.453 225.23 807.54 224.996 808.816 224.996H817.977V229.84H808.816C808.126 229.84 807.592 230.055 807.215 230.484C806.837 230.901 806.648 231.422 806.648 232.047C806.648 232.711 806.863 233.232 807.293 233.609C807.736 233.974 808.257 234.156 808.855 234.156H817.977C818.667 234.156 819.201 233.948 819.578 233.531C819.956 233.115 820.145 232.594 820.145 231.969V224.879C820.145 224.215 819.936 223.688 819.52 223.297C819.116 222.906 818.602 222.711 817.977 222.711H806.824V217.887H817.977C818.68 217.887 819.435 218.01 820.242 218.258C821.062 218.505 821.818 218.909 822.508 219.469C823.211 220.016 823.797 220.738 824.266 221.637C824.734 222.522 824.969 223.603 824.969 224.879V232.008ZM852.703 239H847.625V227.281C847.625 226.617 847.508 226.025 847.273 225.504C847.052 224.97 846.746 224.514 846.355 224.137C845.965 223.759 845.503 223.473 844.969 223.277C844.448 223.069 843.882 222.965 843.27 222.965H834.383V239H829.305V220.406C829.305 220.055 829.37 219.729 829.5 219.43C829.63 219.117 829.812 218.85 830.047 218.629C830.281 218.395 830.555 218.212 830.867 218.082C831.18 217.952 831.512 217.887 831.863 217.887H843.309C843.947 217.887 844.617 217.958 845.32 218.102C846.036 218.245 846.74 218.479 847.43 218.805C848.133 219.117 848.797 219.521 849.422 220.016C850.06 220.497 850.62 221.09 851.102 221.793C851.596 222.483 851.987 223.284 852.273 224.195C852.56 225.107 852.703 226.135 852.703 227.281V239ZM862.312 213.551H857.234V208.961H862.312V213.551ZM862.312 239H857.234V217.887H862.312V239ZM886.395 222.965H877.527V239H872.391V222.965H865.789V217.887H872.391V210.992H877.527V217.887H886.395V222.965ZM913.016 241.031C913.016 241.904 912.905 242.685 912.684 243.375C912.462 244.078 912.169 244.69 911.805 245.211C911.44 245.745 911.017 246.194 910.535 246.559C910.053 246.936 909.546 247.242 909.012 247.477C908.491 247.711 907.964 247.88 907.43 247.984C906.896 248.102 906.388 248.16 905.906 248.16H896.746V243.082H905.906C906.583 243.082 907.091 242.906 907.43 242.555C907.768 242.203 907.938 241.695 907.938 241.031V217.887H913.016V241.031ZM905.906 239H896.746C896.017 239 895.236 238.876 894.402 238.629C893.582 238.382 892.814 237.978 892.098 237.418C891.382 236.845 890.789 236.109 890.32 235.211C889.852 234.299 889.617 233.186 889.617 231.871V217.887H894.695V231.871C894.695 232.535 894.871 233.043 895.223 233.395C895.574 233.746 896.095 233.922 896.785 233.922H905.906V239Z" fill="#EAE9FF"/>
</g>
<g filter="url(#filter1_d_1061_4247)">
<path d="M206.703 256H144.969V233.453C144.969 232.297 145.094 231.078 145.344 229.797C145.625 228.484 146.047 227.188 146.609 225.906C147.172 224.625 147.891 223.406 148.766 222.25C149.672 221.094 150.75 220.078 152 219.203C153.281 218.297 154.75 217.578 156.406 217.047C158.062 216.516 159.938 216.25 162.031 216.25H189.5C191.156 216.25 192.375 215.844 193.156 215.031C193.969 214.188 194.375 212.969 194.375 211.375V205.984C194.375 204.328 193.969 203.078 193.156 202.234C192.344 201.391 191.156 200.969 189.594 200.969H150.453V188.781H189.594C191.656 188.781 193.516 189.047 195.172 189.578C196.828 190.109 198.281 190.828 199.531 191.734C200.812 192.609 201.906 193.625 202.812 194.781C203.719 195.938 204.453 197.156 205.016 198.438C205.609 199.688 206.031 200.969 206.281 202.281C206.562 203.562 206.703 204.766 206.703 205.891V211.375C206.703 214.531 206.125 217.203 204.969 219.391C203.844 221.547 202.422 223.312 200.703 224.688C198.984 226.031 197.125 227.016 195.125 227.641C193.156 228.234 191.312 228.531 189.594 228.531H162.031C161.031 228.531 160.234 228.672 159.641 228.953C159.047 229.234 158.578 229.609 158.234 230.078C157.922 230.547 157.688 231.078 157.531 231.672C157.375 232.266 157.25 232.859 157.156 233.453V243.812H206.703V256ZM295.859 227.875C295.859 230.625 295.5 233.234 294.781 235.703C294.094 238.141 293.109 240.406 291.828 242.5C290.547 244.594 289.031 246.469 287.281 248.125C285.531 249.781 283.609 251.203 281.516 252.391C279.453 253.547 277.25 254.438 274.906 255.062C272.562 255.688 270.172 256 267.734 256H245.75C243.281 256 240.875 255.688 238.531 255.062C236.188 254.438 233.969 253.547 231.875 252.391C229.812 251.203 227.906 249.781 226.156 248.125C224.406 246.469 222.891 244.594 221.609 242.5C220.359 240.406 219.375 238.141 218.656 235.703C217.969 233.234 217.625 230.625 217.625 227.875V216.906C217.625 212.781 218.391 209 219.922 205.562C221.484 202.125 223.562 199.172 226.156 196.703C228.75 194.203 231.734 192.266 235.109 190.891C238.516 189.484 242.062 188.781 245.75 188.781H267.734C270.172 188.781 272.562 189.094 274.906 189.719C277.25 190.344 279.453 191.25 281.516 192.438C283.609 193.594 285.531 195 287.281 196.656C289.031 198.312 290.547 200.188 291.828 202.281C293.109 204.375 294.094 206.656 294.781 209.125C295.5 211.562 295.859 214.156 295.859 216.906V227.875ZM283.578 216.906C283.578 214.5 283.141 212.312 282.266 210.344C281.391 208.375 280.219 206.688 278.75 205.281C277.312 203.875 275.641 202.797 273.734 202.047C271.828 201.297 269.828 200.938 267.734 200.969H245.75C243.719 200.938 241.734 201.297 239.797 202.047C237.891 202.766 236.188 203.828 234.688 205.234C233.219 206.609 232.031 208.297 231.125 210.297C230.25 212.266 229.812 214.469 229.812 216.906V227.875C229.812 230.312 230.25 232.516 231.125 234.484C232 236.453 233.172 238.141 234.641 239.547C236.109 240.922 237.797 241.984 239.703 242.734C241.641 243.484 243.656 243.844 245.75 243.812H267.734C270.141 243.812 272.312 243.422 274.25 242.641C276.219 241.828 277.891 240.719 279.266 239.312C280.641 237.906 281.703 236.234 282.453 234.297C283.203 232.328 283.578 230.188 283.578 227.875V216.906ZM278.281 208C278.75 208.688 279.062 209.438 279.219 210.25C279.375 211.031 279.375 211.812 279.219 212.594C279.062 213.344 278.75 214.062 278.281 214.75C277.844 215.406 277.266 215.969 276.547 216.438L243.641 238.422C243.109 238.828 242.562 239.109 242 239.266C241.438 239.422 240.859 239.5 240.266 239.5C239.266 239.5 238.312 239.266 237.406 238.797C236.5 238.328 235.766 237.656 235.203 236.781C234.734 236.094 234.422 235.359 234.266 234.578C234.109 233.766 234.094 232.984 234.219 232.234C234.375 231.453 234.672 230.734 235.109 230.078C235.547 229.391 236.125 228.812 236.844 228.344L269.844 206.359C270.531 205.891 271.266 205.578 272.047 205.422C272.859 205.266 273.641 205.266 274.391 205.422C275.172 205.578 275.891 205.875 276.547 206.312C277.234 206.75 277.812 207.312 278.281 208ZM367.859 256H306.125V233.453C306.125 232.297 306.25 231.078 306.5 229.797C306.781 228.484 307.203 227.188 307.766 225.906C308.328 224.625 309.047 223.406 309.922 222.25C310.828 221.094 311.906 220.078 313.156 219.203C314.438 218.297 315.906 217.578 317.562 217.047C319.219 216.516 321.094 216.25 323.188 216.25H350.656C352.312 216.25 353.531 215.844 354.312 215.031C355.125 214.188 355.531 212.969 355.531 211.375V205.984C355.531 204.328 355.125 203.078 354.312 202.234C353.5 201.391 352.312 200.969 350.75 200.969H311.609V188.781H350.75C352.812 188.781 354.672 189.047 356.328 189.578C357.984 190.109 359.438 190.828 360.688 191.734C361.969 192.609 363.062 193.625 363.969 194.781C364.875 195.938 365.609 197.156 366.172 198.438C366.766 199.688 367.188 200.969 367.438 202.281C367.719 203.562 367.859 204.766 367.859 205.891V211.375C367.859 214.531 367.281 217.203 366.125 219.391C365 221.547 363.578 223.312 361.859 224.688C360.141 226.031 358.281 227.016 356.281 227.641C354.312 228.234 352.469 228.531 350.75 228.531H323.188C322.188 228.531 321.391 228.672 320.797 228.953C320.203 229.234 319.734 229.609 319.391 230.078C319.078 230.547 318.844 231.078 318.688 231.672C318.531 232.266 318.406 232.859 318.312 233.453V243.812H367.859V256ZM391.344 216.25H423.781C425.5 216.25 427.344 216.562 429.312 217.188C431.312 217.781 433.172 218.766 434.891 220.141C436.609 221.484 438.031 223.25 439.156 225.438C440.312 227.625 440.891 230.297 440.891 233.453V238.891C440.891 240.047 440.75 241.266 440.469 242.547C440.219 243.828 439.797 245.109 439.203 246.391C438.641 247.641 437.906 248.844 437 250C436.125 251.156 435.047 252.188 433.766 253.094C432.516 253.969 431.062 254.672 429.406 255.203C427.75 255.734 425.875 256 423.781 256H401.703C400.203 256 398.594 255.828 396.875 255.484C395.188 255.141 393.516 254.594 391.859 253.844C390.203 253.062 388.594 252.094 387.031 250.938C385.5 249.75 384.156 248.328 383 246.672C381.844 244.984 380.906 243.047 380.188 240.859C379.5 238.672 379.156 236.203 379.156 233.453V211.375C379.156 208.625 379.5 206.156 380.188 203.969C380.906 201.781 381.844 199.859 383 198.203C384.156 196.516 385.5 195.078 387.031 193.891C388.594 192.703 390.203 191.734 391.859 190.984C393.516 190.203 395.188 189.641 396.875 189.297C398.594 188.953 400.203 188.781 401.703 188.781H432.266V200.969H401.703C400.141 201.094 398.719 201.422 397.438 201.953C396.188 202.484 395.109 203.188 394.203 204.062C393.297 204.938 392.594 206 392.094 207.25C391.594 208.469 391.344 209.844 391.344 211.375V216.25ZM391.344 228.531V233.453C391.344 235.047 391.609 236.484 392.141 237.766C392.703 239.016 393.453 240.094 394.391 241C395.328 241.906 396.422 242.609 397.672 243.109C398.953 243.578 400.328 243.812 401.797 243.812H423.781C425.344 243.812 426.531 243.344 427.344 242.406C428.188 241.469 428.609 240.297 428.609 238.891V233.453C428.609 231.859 428.203 230.641 427.391 229.797C426.578 228.953 425.344 228.531 423.688 228.531H391.344Z" fill="#05C174"/>
</g>
<path d="M10 42H50V82H90V42H130V142H90V102H50V142H10V42ZM150.039 52C150.039 49.3333 150.972 47 152.839 45C154.839 43 157.239 42 160.039 42H260.039C262.706 42 265.039 43 267.039 45C269.039 47 270.039 49.3333 270.039 52V142H230.039V102H190.039V142H150.039V52ZM230.039 81.6V62H190.039V81.6H230.039ZM390.078 42V62H330.078V122H390.078V142H300.078C297.278 142 294.878 141.067 292.878 139.2C291.011 137.2 290.078 134.8 290.078 132V52C290.078 49.3333 291.011 47 292.878 45C294.878 43 297.278 42 300.078 42H390.078ZM410 42H450V82H478.6L490 42H530L520 82C522.667 82 525 83 527 85C529 87 530 89.3333 530 92V142H490V102H450V142H410V42ZM550.039 42H650.039V62H590.039V82H650.039V102H590.039V142H550.039V42ZM669.961 42H769.961V62H709.961V82H769.961V102H709.961V122H769.961V142H669.961V42ZM909.883 42V62H829.883V82H899.883C902.549 82 904.883 83 906.883 85C908.883 87 909.883 89.3333 909.883 92V132C909.883 134.8 908.883 137.2 906.883 139.2C904.883 141.067 902.549 142 899.883 142H789.883V122H869.883V102H799.883C797.083 102 794.683 101.067 792.683 99.2C790.816 97.2 789.883 94.8 789.883 92V52C789.883 49.3333 790.816 47 792.683 45C794.683 43 797.083 42 799.883 42H909.883ZM929.922 42H1049.92V62H1009.92V142H969.922V62H929.922V42Z" fill="#EAE9FF"/>
<rect y="161" width="1060" height="4" fill="url(#paint0_linear_1061_4247)"/>
<defs>
<filter id="filter0_d_1061_4247" x="488.078" y="192.227" width="441.438" height="72.4336" filterUnits="userSpaceOnUse" color-interpolation-filters="sRGB">
<feFlood flood-opacity="0" result="BackgroundImageFix"/>
<feColorMatrix in="SourceAlpha" type="matrix" values="0 0 0 0 0 0 0 0 0 0 0 0 0 0 0 0 0 0 127 0" result="hardAlpha"/>
<feOffset/>
<feGaussianBlur stdDeviation="8.25"/>
<feComposite in2="hardAlpha" operator="out"/>
<feColorMatrix type="matrix" values="0 0 0 0 0.917647 0 0 0 0 0.913725 0 0 0 0 1 0 0 0 1 0"/>
<feBlend mode="normal" in2="BackgroundImageFix" result="effect1_dropShadow_1061_4247"/>
<feBlend mode="normal" in="SourceGraphic" in2="effect1_dropShadow_1061_4247" result="shape"/>
</filter>
<filter id="filter1_d_1061_4247" x="128.469" y="172.281" width="328.922" height="100.219" filterUnits="userSpaceOnUse" color-interpolation-filters="sRGB">
<feFlood flood-opacity="0" result="BackgroundImageFix"/>
<feColorMatrix in="SourceAlpha" type="matrix" values="0 0 0 0 0 0 0 0 0 0 0 0 0 0 0 0 0 0 127 0" result="hardAlpha"/>
<feOffset/>
<feGaussianBlur stdDeviation="8.25"/>
<feComposite in2="hardAlpha" operator="out"/>
<feColorMatrix type="matrix" values="0 0 0 0 0.0196078 0 0 0 0 0.756863 0 0 0 0 0.454902 0 0 0 1 0"/>
<feBlend mode="normal" in2="BackgroundImageFix" result="effect1_dropShadow_1061_4247"/>
<feBlend mode="normal" in="SourceGraphic" in2="effect1_dropShadow_1061_4247" result="shape"/>
</filter>
<linearGradient id="paint0_linear_1061_4247" x1="1060" y1="163" x2="0" y2="163" gradientUnits="userSpaceOnUse">
<stop stop-color="#D7E200"/>
<stop offset="1" stop-color="#05C174"/>
</linearGradient>
</defs>
</svg>
