<svg width="355" height="472" viewBox="0 0 355 472" fill="none" xmlns="http://www.w3.org/2000/svg">
<path d="M346 52.5V470.5H34.3153L1.5 434.5V26.5837L34.3153 1.5H231.768L266 26.5837H318.5L346 52.5Z" fill="#090223" fill-opacity="0.69" stroke="#05C174" stroke-width="3" stroke-miterlimit="10"/>
<path d="M353.5 22.5V49.5L325 22.5H353.5Z" stroke="#05C174" stroke-width="3" stroke-miterlimit="10"/>
<path d="M201.358 41.8313H186.367L204.669 12.5H219.66L201.358 41.8313Z" fill="#05C174"/>
<path d="M182.686 41.8313H167.695L185.997 12.5H201.001L182.686 41.8313Z" fill="#05C174"/>
<path d="M164.014 41.8313H149.022L167.338 12.5H182.329L164.014 41.8313Z" fill="#05C174"/>
<path d="M145.354 41.8313H130.35L148.665 12.5H163.656L145.354 41.8313Z" fill="#05C174"/>
<path d="M126.681 41.8313H111.677L129.992 12.5H144.983L126.681 41.8313Z" fill="#05C174"/>
<path d="M108.009 41.8313H93.0176L111.319 12.5H126.31L108.009 41.8313Z" fill="#05C174"/>
<path d="M89.3358 41.8313H74.3447L92.6465 12.5H107.651L89.3358 41.8313Z" fill="#05C174"/>
<path d="M70.6639 41.8313H55.6729L73.9879 12.5H88.9789L70.6639 41.8313Z" fill="#05C174"/>
<path d="M52.0043 41.8313H37L55.315 12.5H70.3061L52.0043 41.8313Z" fill="#05C174"/>
</svg>
