<svg width="1440" height="547" viewBox="0 0 1440 547" fill="none" xmlns="http://www.w3.org/2000/svg">
<rect opacity="0.5" x="-2" width="1445" height="547" fill="url(#paint0_linear_856_106)"/>
<g opacity="0.8" clip-path="url(#clip0_856_106)">
<path d="M1416.1 479.634V86.978L1491.21 63.428V501.618L1416.1 479.634Z" fill="url(#paint1_linear_856_106)"/>
<path d="M1490.21 64.8452V500.222L1417.1 478.814V87.7665L1490.21 64.8452ZM1492.21 62L1415.1 86.1787V480.444L1492.21 503.024V62Z" fill="#4B39E1"/>
<path d="M1346.74 478.142V220.69L1384.94 205.314V492.496L1346.74 478.142Z" fill="url(#paint2_linear_856_106)"/>
<path d="M1384.36 206.209V491.633L1347.32 477.716V221.127L1384.36 206.22M1385.52 204.419L1346.17 220.254V478.568L1385.52 493.359V204.419Z" fill="#4B39E1"/>
<path d="M1458.95 205.037H1386.1V492.219H1458.95V205.037Z" fill="url(#paint3_linear_856_106)"/>
<path d="M1458.37 205.655V491.601H1386.67V205.655H1458.37ZM1459.53 204.419H1385.52V492.837H1459.53V204.419Z" fill="#4B39E1"/>
<path d="M1351.46 443.829V176.425L1404.57 160.377V458.812L1351.46 443.829Z" fill="url(#paint4_linear_856_106)"/>
<path d="M1403.88 161.357V457.853L1352.15 443.265V176.99L1403.88 161.357ZM1405.27 159.397L1350.76 175.86V444.384L1405.27 459.76V159.397Z" fill="#4B39E1"/>
<path d="M1507.09 160.143H1405.96V458.482H1507.09V160.143Z" fill="url(#paint5_linear_856_106)"/>
<path d="M1506.4 160.878V457.736H1406.66V160.878H1506.4ZM1507.78 159.397H1405.26V459.217H1507.78V159.397Z" fill="#4B39E1"/>
<path d="M-37.9399 63.5664L37.1701 87.1164V479.773L-37.9399 501.767V63.5664Z" fill="url(#paint6_linear_856_106)"/>
<path d="M-36.9399 64.9836L36.1701 87.9049V478.952L-36.9399 500.36V64.9836ZM-38.9399 62.1384V503.163L38.1701 480.582V86.3171L-38.9399 62.1384Z" fill="#4B39E1"/>
<path d="M68.33 205.452L106.53 220.829V478.281L68.33 492.635V205.452Z" fill="url(#paint7_linear_856_106)"/>
<path d="M68.91 206.348L105.95 221.255V477.844L68.91 491.761V206.348ZM67.75 204.557V493.498L107.1 478.707V220.392L67.75 204.557Z" fill="#4B39E1"/>
<path d="M67.1703 205.176H-5.67969V492.358H67.1703V205.176Z" fill="url(#paint8_linear_856_106)"/>
<path d="M66.6003 205.793V491.74H-5.09976V205.793H66.6003ZM67.7502 204.557H-6.25977V492.976H67.7502V204.557Z" fill="#4B39E1"/>
<path d="M48.7 160.516L101.81 176.564V443.968L48.7 458.951V160.516Z" fill="url(#paint9_linear_856_106)"/>
<path d="M49.39 161.496L101.12 177.129V443.404L49.39 457.992V161.496ZM48 159.535V459.91L102.51 444.533V176.01L48 159.546V159.535Z" fill="#4B39E1"/>
<path d="M47.3102 160.281H-53.8198V458.62H47.3102V160.281Z" fill="url(#paint10_linear_856_106)"/>
<path d="M46.6102 161.017V457.874H-53.1298V161.017H46.6102ZM48.0002 159.535H-54.5098V459.356H48.0002V159.535Z" fill="#4B39E1"/>
<path d="M1313 284.532H1231.26V411.35H1313V284.532Z" fill="url(#paint11_linear_856_106)"/>
<path d="M1311.99 285.608V410.295H1232.26V285.608H1311.99ZM1314 283.466H1230.26V412.426H1314V283.466Z" fill="#4B39E1"/>
<path d="M1164.24 392.158V285.309L1229.25 284.542V411.329L1164.24 392.158Z" fill="url(#paint12_linear_856_106)"/>
<path d="M1228.24 285.629V409.922L1165.23 391.338V286.365L1228.24 285.619M1230.25 283.466L1163.23 284.255V392.979L1230.25 412.746V283.477V283.466Z" fill="#4B39E1"/>
<path d="M1232.82 163.19H1146.49V392.307H1232.82V163.19Z" fill="url(#paint13_linear_856_106)"/>
<path d="M1231.82 164.267V391.252H1147.5V164.267H1231.82ZM1233.83 162.125H1145.49V393.384H1233.83V162.125Z" fill="#4B39E1"/>
<path d="M1090.06 374.874V184.098L1144.57 163.681V391.86L1090.06 374.874Z" fill="url(#paint14_linear_856_106)"/>
<path d="M1143.56 165.183V390.432L1091.06 374.064V184.854L1143.56 165.183ZM1145.57 162.167L1089.06 183.341V375.673L1145.57 393.288V162.167Z" fill="#4B39E1"/>
<path d="M1186.06 220.158L1222.87 213.392V282.411L1186.06 282.848V220.158Z" fill="url(#paint15_linear_856_106)"/>
<path d="M1221.86 214.66V281.346L1187.07 281.761V221.053L1221.86 214.66ZM1223.87 212.123L1185.06 219.252V283.924L1223.87 283.455V212.113V212.123Z" fill="#4B39E1"/>
<path d="M1294.35 213.253H1224.87V282.4H1294.35V213.253Z" fill="url(#paint16_linear_856_106)"/>
<path d="M1293.35 214.318V281.324H1225.88V214.318H1293.35ZM1295.36 212.187H1223.87V283.466H1295.36V212.187Z" fill="#4B39E1"/>
<path d="M1341.56 345.783H1283.63V428.73H1341.56V345.783Z" fill="url(#paint17_linear_856_106)"/>
<path d="M1340.52 346.891V427.632H1284.67V346.891H1340.52ZM1342.59 344.685H1282.59V429.849H1342.59V344.685Z" fill="#4B39E1"/>
<path d="M1246.06 418.138V341.254L1281.67 345.463V428.794L1246.06 418.138Z" fill="url(#paint18_linear_856_106)"/>
<path d="M1247.07 342.448L1280.67 346.422V427.377L1247.07 417.328V342.448ZM1245.06 340.061V418.958L1282.68 430.211V344.515L1245.06 340.061Z" fill="#4B39E1"/>
<path d="M1283.68 343.705L1263.49 341.307H1299.78L1322.46 343.705H1283.68Z" fill="url(#paint19_linear_856_106)"/>
<path d="M1299.68 342.373L1302.11 342.628H1283.74L1281.58 342.373H1299.68ZM1299.78 340.241H1245.4L1283.62 344.781H1342.76L1299.78 340.241Z" fill="#4B39E1"/>
<path d="M1127.43 322.297H1069.58V386.478H1127.43V322.297Z" fill="url(#paint20_linear_856_106)"/>
<path d="M1126.4 323.394V385.37H1070.62V323.394H1126.4ZM1128.47 321.188H1068.55V387.576H1128.47V321.188Z" fill="#4B39E1"/>
<path d="M1028.05 371.144V317.086L1067.69 322.126V386.372L1028.05 371.144Z" fill="url(#paint21_linear_856_106)"/>
<path d="M1029.09 318.333L1066.65 323.117V384.805L1029.09 370.377V318.333ZM1027.02 315.839V371.922L1068.72 387.938V321.146L1027.02 315.839Z" fill="#4B39E1"/>
<path d="M1068.83 320.091L1044.6 317.033H1077.2L1106.98 320.091H1068.83Z" fill="url(#paint22_linear_856_106)"/>
<path d="M1077.1 318.141L1085.36 318.983H1068.9L1062.18 318.141H1077.1ZM1077.2 315.935H1027.02L1068.77 321.199H1128.55L1077.2 315.935Z" fill="#4B39E1"/>
<path d="M225.42 287.078H143.68V413.896H225.42V287.078Z" fill="url(#paint23_linear_856_106)"/>
<path d="M224.41 288.144V412.831H144.68V288.144H224.41ZM226.42 286.002H142.68V414.962H226.42V286.002Z" fill="#4B39E1"/>
<path d="M227.43 287.089L292.44 287.856V394.705L227.43 413.875V287.089Z" fill="url(#paint24_linear_856_106)"/>
<path d="M228.43 288.165L291.44 288.911V393.884L228.43 412.469V288.176M226.42 286.002V415.271L293.44 395.504V286.79L226.42 286.002Z" fill="#4B39E1"/>
<path d="M310.18 165.727H223.85V394.844H310.18V165.727Z" fill="url(#paint25_linear_856_106)"/>
<path d="M309.18 166.803V393.789H224.85V166.803H309.18ZM311.19 164.661H222.85V395.92H311.19V164.661Z" fill="#4B39E1"/>
<path d="M312.11 166.217L366.61 186.644V377.41L312.11 394.406V166.217Z" fill="url(#paint26_linear_856_106)"/>
<path d="M313.11 167.73L365.61 187.401V376.611L313.11 392.979V167.73ZM311.1 164.703V395.824L367.61 378.209V185.888L311.1 164.714V164.703Z" fill="#4B39E1"/>
<path d="M233.81 284.947V215.927L270.61 222.694V285.384L233.81 284.947Z" fill="url(#paint27_linear_856_106)"/>
<path d="M234.81 217.206L269.6 223.6V284.308L234.81 283.892V217.206ZM232.81 214.659V286.002L271.62 286.471V221.799L232.81 214.67V214.659Z" fill="#4B39E1"/>
<path d="M231.8 215.789H162.32V284.937H231.8V215.789Z" fill="url(#paint28_linear_856_106)"/>
<path d="M230.8 216.865V283.871H163.33V216.865H230.8ZM232.81 214.723H161.32V286.002H232.81V214.723Z" fill="#4B39E1"/>
<path d="M173.05 348.329H115.12V431.276H173.05V348.329Z" fill="url(#paint29_linear_856_106)"/>
<path d="M172.01 349.427V430.168H116.16V349.427H172.01ZM174.08 347.221H114.08V432.374H174.08V347.221Z" fill="#4B39E1"/>
<path d="M175 347.999L210.61 343.79V420.685L175 431.33V347.999Z" fill="url(#paint30_linear_856_106)"/>
<path d="M209.61 344.984V419.864L176.01 429.913V348.958L209.61 344.984ZM211.61 342.597L173.99 347.051V432.747L211.61 421.494V342.597Z" fill="#4B39E1"/>
<path d="M134.24 346.241L156.99 343.844H193.2L172.99 346.241H134.24Z" fill="url(#paint31_linear_856_106)"/>
<path d="M175.1 344.92L172.94 345.175H154.57L157 344.92H175.1ZM211.27 342.778H156.89L113.91 347.317H173.05L211.27 342.778Z" fill="#4B39E1"/>
<path d="M387.09 324.833H329.24V389.015H387.09V324.833Z" fill="url(#paint32_linear_856_106)"/>
<path d="M386.06 325.931V387.906H330.28V325.931H386.06ZM388.12 323.735H328.21V390.123H388.12V323.735Z" fill="#4B39E1"/>
<path d="M388.99 324.673L428.62 319.622V373.681L388.99 388.908V324.673Z" fill="url(#paint33_linear_856_106)"/>
<path d="M427.59 320.869V372.913L390.03 387.342V325.653L427.59 320.869ZM429.66 318.386L387.96 323.693V390.485L429.66 374.469V318.386Z" fill="#4B39E1"/>
<path d="M349.72 322.627L379.58 319.569L412.09 319.579L387.84 322.627H349.72Z" fill="url(#paint34_linear_856_106)"/>
<path d="M394.49 320.677L387.77 321.519H371.31L379.57 320.677H394.49ZM429.66 318.471H379.48L328.13 323.735H387.91L429.67 318.471H429.66Z" fill="#4B39E1"/>
<path d="M1767 531.977H-326.63L662.93 304.139H771.39L1767 531.977Z" stroke="#4B39E1" stroke-width="2" stroke-miterlimit="10"/>
<path d="M771.65 304.203H662.68" stroke="#4B39E1" stroke-width="2" stroke-miterlimit="10"/>
<path d="M771.91 304.267H662.42" stroke="#4B39E1" stroke-width="2" stroke-miterlimit="10"/>
<path d="M772.17 304.32H662.16" stroke="#4B39E1" stroke-width="2" stroke-miterlimit="10"/>
<path d="M772.44 304.384H661.89" stroke="#4B39E1" stroke-width="2" stroke-miterlimit="10"/>
<path d="M772.7 304.448H661.63" stroke="#4B39E1" stroke-width="2" stroke-miterlimit="10"/>
<path d="M772.97 304.501H661.36" stroke="#4B39E1" stroke-width="2" stroke-miterlimit="10"/>
<path d="M773.25 304.565H661.09" stroke="#4B39E1" stroke-width="2" stroke-miterlimit="10"/>
<path d="M773.52 304.629H660.81" stroke="#4B39E1" stroke-width="2" stroke-miterlimit="10"/>
<path d="M773.8 304.693H660.54" stroke="#4B39E1" stroke-width="2" stroke-miterlimit="10"/>
<path d="M774.08 304.757H660.26" stroke="#4B39E1" stroke-width="2" stroke-miterlimit="10"/>
<path d="M774.37 304.821H659.97" stroke="#4B39E1" stroke-width="2" stroke-miterlimit="10"/>
<path d="M774.65 304.885H659.69" stroke="#4B39E1" stroke-width="2" stroke-miterlimit="10"/>
<path d="M774.94 304.959H659.4" stroke="#4B39E1" stroke-width="2" stroke-miterlimit="10"/>
<path d="M775.24 305.023H659.11" stroke="#4B39E1" stroke-width="2" stroke-miterlimit="10"/>
<path d="M775.53 305.087H658.82" stroke="#4B39E1" stroke-width="2" stroke-miterlimit="10"/>
<path d="M775.83 305.162H658.52" stroke="#4B39E1" stroke-width="2" stroke-miterlimit="10"/>
<path d="M776.13 305.226H658.22" stroke="#4B39E1" stroke-width="2" stroke-miterlimit="10"/>
<path d="M776.44 305.3H657.92" stroke="#4B39E1" stroke-width="2" stroke-miterlimit="10"/>
<path d="M776.74 305.364H657.61" stroke="#4B39E1" stroke-width="2" stroke-miterlimit="10"/>
<path d="M777.06 305.439H657.3" stroke="#4B39E1" stroke-width="2" stroke-miterlimit="10"/>
<path d="M777.37 305.513H656.99" stroke="#4B39E1" stroke-width="2" stroke-miterlimit="10"/>
<path d="M777.69 305.588H656.67" stroke="#4B39E1" stroke-width="2" stroke-miterlimit="10"/>
<path d="M778.01 305.663H656.35" stroke="#4B39E1" stroke-width="2" stroke-miterlimit="10"/>
<path d="M778.33 305.737H656.03" stroke="#4B39E1" stroke-width="2" stroke-miterlimit="10"/>
<path d="M778.66 305.812H655.7" stroke="#4B39E1" stroke-width="2" stroke-miterlimit="10"/>
<path d="M778.99 305.886H655.38" stroke="#4B39E1" stroke-width="2" stroke-miterlimit="10"/>
<path d="M779.33 305.961H655.04" stroke="#4B39E1" stroke-width="2" stroke-miterlimit="10"/>
<path d="M779.67 306.035H654.71" stroke="#4B39E1" stroke-width="2" stroke-miterlimit="10"/>
<path d="M780.01 306.121H654.36" stroke="#4B39E1" stroke-width="2" stroke-miterlimit="10"/>
<path d="M780.36 306.195H654.02" stroke="#4B39E1" stroke-width="2" stroke-miterlimit="10"/>
<path d="M780.71 306.27H653.67" stroke="#4B39E1" stroke-width="2" stroke-miterlimit="10"/>
<path d="M781.06 306.355H653.32" stroke="#4B39E1" stroke-width="2" stroke-miterlimit="10"/>
<path d="M781.42 306.44H652.97" stroke="#4B39E1" stroke-width="2" stroke-miterlimit="10"/>
<path d="M781.78 306.526H652.61" stroke="#4B39E1" stroke-width="2" stroke-miterlimit="10"/>
<path d="M782.15 306.6H652.24" stroke="#4B39E1" stroke-width="2" stroke-miterlimit="10"/>
<path d="M782.52 306.686H651.87" stroke="#4B39E1" stroke-width="2" stroke-miterlimit="10"/>
<path d="M782.89 306.771H651.5" stroke="#4B39E1" stroke-width="2" stroke-miterlimit="10"/>
<path d="M783.27 306.867H651.12" stroke="#4B39E1" stroke-width="2" stroke-miterlimit="10"/>
<path d="M783.65 306.952H650.74" stroke="#4B39E1" stroke-width="2" stroke-miterlimit="10"/>
<path d="M784.04 307.037H650.36" stroke="#4B39E1" stroke-width="2" stroke-miterlimit="10"/>
<path d="M784.43 307.122H649.97" stroke="#4B39E1" stroke-width="2" stroke-miterlimit="10"/>
<path d="M784.83 307.218H649.57" stroke="#4B39E1" stroke-width="2" stroke-miterlimit="10"/>
<path d="M785.23 307.314H649.18" stroke="#4B39E1" stroke-width="2" stroke-miterlimit="10"/>
<path d="M785.64 307.399H648.77" stroke="#4B39E1" stroke-width="2" stroke-miterlimit="10"/>
<path d="M786.05 307.495H648.36" stroke="#4B39E1" stroke-width="2" stroke-miterlimit="10"/>
<path d="M786.46 307.591H647.95" stroke="#4B39E1" stroke-width="2" stroke-miterlimit="10"/>
<path d="M786.88 307.687H647.53" stroke="#4B39E1" stroke-width="2" stroke-miterlimit="10"/>
<path d="M787.31 307.783H647.11" stroke="#4B39E1" stroke-width="2" stroke-miterlimit="10"/>
<path d="M787.74 307.89H646.68" stroke="#4B39E1" stroke-width="2" stroke-miterlimit="10"/>
<path d="M788.18 307.986H646.25" stroke="#4B39E1" stroke-width="2" stroke-miterlimit="10"/>
<path d="M788.62 308.082H645.81" stroke="#4B39E1" stroke-width="2" stroke-miterlimit="10"/>
<path d="M789.07 308.188H645.36" stroke="#4B39E1" stroke-width="2" stroke-miterlimit="10"/>
<path d="M789.52 308.295H644.91" stroke="#4B39E1" stroke-width="2" stroke-miterlimit="10"/>
<path d="M789.98 308.401H644.45" stroke="#4B39E1" stroke-width="2" stroke-miterlimit="10"/>
<path d="M790.45 308.508H643.99" stroke="#4B39E1" stroke-width="2" stroke-miterlimit="10"/>
<path d="M790.92 308.614H643.52" stroke="#4B39E1" stroke-width="2" stroke-miterlimit="10"/>
<path d="M791.39 308.721H643.05" stroke="#4B39E1" stroke-width="2" stroke-miterlimit="10"/>
<path d="M791.88 308.827H642.57" stroke="#4B39E1" stroke-width="2" stroke-miterlimit="10"/>
<path d="M792.37 308.945H642.08" stroke="#4B39E1" stroke-width="2" stroke-miterlimit="10"/>
<path d="M792.86 309.062H641.59" stroke="#4B39E1" stroke-width="2" stroke-miterlimit="10"/>
<path d="M793.36 309.168H641.09" stroke="#4B39E1" stroke-width="2" stroke-miterlimit="10"/>
<path d="M793.87 309.286H640.58" stroke="#4B39E1" stroke-width="2" stroke-miterlimit="10"/>
<path d="M794.39 309.403H640.07" stroke="#4B39E1" stroke-width="2" stroke-miterlimit="10"/>
<path d="M794.91 309.531H639.55" stroke="#4B39E1" stroke-width="2" stroke-miterlimit="10"/>
<path d="M795.44 309.648H639.02" stroke="#4B39E1" stroke-width="2" stroke-miterlimit="10"/>
<path d="M795.98 309.776H638.49" stroke="#4B39E1" stroke-width="2" stroke-miterlimit="10"/>
<path d="M796.53 309.893H637.95" stroke="#4B39E1" stroke-width="2" stroke-miterlimit="10"/>
<path d="M797.08 310.021H637.4" stroke="#4B39E1" stroke-width="2" stroke-miterlimit="10"/>
<path d="M797.64 310.149H636.84" stroke="#4B39E1" stroke-width="2" stroke-miterlimit="10"/>
<path d="M798.21 310.277H636.28" stroke="#4B39E1" stroke-width="2" stroke-miterlimit="10"/>
<path d="M798.78 310.415H635.71" stroke="#4B39E1" stroke-width="2" stroke-miterlimit="10"/>
<path d="M799.37 310.543H635.13" stroke="#4B39E1" stroke-width="2" stroke-miterlimit="10"/>
<path d="M799.96 310.682H634.54" stroke="#4B39E1" stroke-width="2" stroke-miterlimit="10"/>
<path d="M800.56 310.82H633.94" stroke="#4B39E1" stroke-width="2" stroke-miterlimit="10"/>
<path d="M801.17 310.958H633.33" stroke="#4B39E1" stroke-width="2" stroke-miterlimit="10"/>
<path d="M801.79 311.097H632.72" stroke="#4B39E1" stroke-width="2" stroke-miterlimit="10"/>
<path d="M802.42 311.246H632.09" stroke="#4B39E1" stroke-width="2" stroke-miterlimit="10"/>
<path d="M803.05 311.385H631.46" stroke="#4B39E1" stroke-width="2" stroke-miterlimit="10"/>
<path d="M803.7 311.534H630.82" stroke="#4B39E1" stroke-width="2" stroke-miterlimit="10"/>
<path d="M804.36 311.683H630.16" stroke="#4B39E1" stroke-width="2" stroke-miterlimit="10"/>
<path d="M805.03 311.843H629.5" stroke="#4B39E1" stroke-width="2" stroke-miterlimit="10"/>
<path d="M805.7 311.992H628.83" stroke="#4B39E1" stroke-width="2" stroke-miterlimit="10"/>
<path d="M806.39 312.152H628.14" stroke="#4B39E1" stroke-width="2" stroke-miterlimit="10"/>
<path d="M807.09 312.312H627.45" stroke="#4B39E1" stroke-width="2" stroke-miterlimit="10"/>
<path d="M807.8 312.472H626.74" stroke="#4B39E1" stroke-width="2" stroke-miterlimit="10"/>
<path d="M808.52 312.642H626.03" stroke="#4B39E1" stroke-width="2" stroke-miterlimit="10"/>
<path d="M809.25 312.813H625.3" stroke="#4B39E1" stroke-width="2" stroke-miterlimit="10"/>
<path d="M810 312.973H624.56" stroke="#4B39E1" stroke-width="2" stroke-miterlimit="10"/>
<path d="M810.75 313.154H623.81" stroke="#4B39E1" stroke-width="2" stroke-miterlimit="10"/>
<path d="M811.52 313.324H623.04" stroke="#4B39E1" stroke-width="2" stroke-miterlimit="10"/>
<path d="M812.3 313.505H622.27" stroke="#4B39E1" stroke-width="2" stroke-miterlimit="10"/>
<path d="M813.1 313.687H621.48" stroke="#4B39E1" stroke-width="2" stroke-miterlimit="10"/>
<path d="M813.9 313.868H620.68" stroke="#4B39E1" stroke-width="2" stroke-miterlimit="10"/>
<path d="M814.73 314.06H619.86" stroke="#4B39E1" stroke-width="2" stroke-miterlimit="10"/>
<path d="M815.56 314.251H619.03" stroke="#4B39E1" stroke-width="2" stroke-miterlimit="10"/>
<path d="M816.41 314.443H618.18" stroke="#4B39E1" stroke-width="2" stroke-miterlimit="10"/>
<path d="M817.28 314.646H617.32" stroke="#4B39E1" stroke-width="2" stroke-miterlimit="10"/>
<path d="M818.16 314.848H616.45" stroke="#4B39E1" stroke-width="2" stroke-miterlimit="10"/>
<path d="M819.05 315.051H615.56" stroke="#4B39E1" stroke-width="2" stroke-miterlimit="10"/>
<path d="M819.96 315.264H614.65" stroke="#4B39E1" stroke-width="2" stroke-miterlimit="10"/>
<path d="M820.89 315.466H613.73" stroke="#4B39E1" stroke-width="2" stroke-miterlimit="10"/>
<path d="M821.83 315.69H612.79" stroke="#4B39E1" stroke-width="2" stroke-miterlimit="10"/>
<path d="M822.8 315.903H611.84" stroke="#4B39E1" stroke-width="2" stroke-miterlimit="10"/>
<path d="M823.78 316.127H610.86" stroke="#4B39E1" stroke-width="2" stroke-miterlimit="10"/>
<path d="M824.77 316.361H609.87" stroke="#4B39E1" stroke-width="2" stroke-miterlimit="10"/>
<path d="M825.79 316.596H608.86" stroke="#4B39E1" stroke-width="2" stroke-miterlimit="10"/>
<path d="M826.83 316.83H607.83" stroke="#4B39E1" stroke-width="2" stroke-miterlimit="10"/>
<path d="M827.88 317.075H606.78" stroke="#4B39E1" stroke-width="2" stroke-miterlimit="10"/>
<path d="M828.96 317.32H605.71" stroke="#4B39E1" stroke-width="2" stroke-miterlimit="10"/>
<path d="M830.06 317.565H604.62" stroke="#4B39E1" stroke-width="2" stroke-miterlimit="10"/>
<path d="M831.18 317.821H603.51" stroke="#4B39E1" stroke-width="2" stroke-miterlimit="10"/>
<path d="M832.32 318.088H602.37" stroke="#4B39E1" stroke-width="2" stroke-miterlimit="10"/>
<path d="M833.49 318.354H601.21" stroke="#4B39E1" stroke-width="2" stroke-miterlimit="10"/>
<path d="M834.67 318.62H600.03" stroke="#4B39E1" stroke-width="2" stroke-miterlimit="10"/>
<path d="M835.89 318.908H598.83" stroke="#4B39E1" stroke-width="2" stroke-miterlimit="10"/>
<path d="M837.13 319.185H597.59" stroke="#4B39E1" stroke-width="2" stroke-miterlimit="10"/>
<path d="M838.39 319.473H596.34" stroke="#4B39E1" stroke-width="2" stroke-miterlimit="10"/>
<path d="M839.68 319.771H595.05" stroke="#4B39E1" stroke-width="2" stroke-miterlimit="10"/>
<path d="M841 320.07H593.74" stroke="#4B39E1" stroke-width="2" stroke-miterlimit="10"/>
<path d="M842.35 320.379H592.4" stroke="#4B39E1" stroke-width="2" stroke-miterlimit="10"/>
<path d="M843.73 320.698H591.03" stroke="#4B39E1" stroke-width="2" stroke-miterlimit="10"/>
<path d="M845.14 321.018H589.63" stroke="#4B39E1" stroke-width="2" stroke-miterlimit="10"/>
<path d="M846.58 321.348H588.2" stroke="#4B39E1" stroke-width="2" stroke-miterlimit="10"/>
<path d="M848.05 321.689H586.74" stroke="#4B39E1" stroke-width="2" stroke-miterlimit="10"/>
<path d="M849.56 322.03H585.24" stroke="#4B39E1" stroke-width="2" stroke-miterlimit="10"/>
<path d="M851.1 322.382H583.71" stroke="#4B39E1" stroke-width="2" stroke-miterlimit="10"/>
<path d="M852.68 322.744H582.14" stroke="#4B39E1" stroke-width="2" stroke-miterlimit="10"/>
<path d="M854.29 323.117H580.53" stroke="#4B39E1" stroke-width="2" stroke-miterlimit="10"/>
<path d="M855.95 323.49H578.89" stroke="#4B39E1" stroke-width="2" stroke-miterlimit="10"/>
<path d="M857.64 323.885H577.2" stroke="#4B39E1" stroke-width="2" stroke-miterlimit="10"/>
<path d="M859.38 324.279H575.48" stroke="#4B39E1" stroke-width="2" stroke-miterlimit="10"/>
<path d="M861.16 324.684H573.71" stroke="#4B39E1" stroke-width="2" stroke-miterlimit="10"/>
<path d="M862.98 325.099H571.89" stroke="#4B39E1" stroke-width="2" stroke-miterlimit="10"/>
<path d="M864.86 325.536H570.03" stroke="#4B39E1" stroke-width="2" stroke-miterlimit="10"/>
<path d="M866.78 325.973H568.12" stroke="#4B39E1" stroke-width="2" stroke-miterlimit="10"/>
<path d="M868.75 326.421H566.17" stroke="#4B39E1" stroke-width="2" stroke-miterlimit="10"/>
<path d="M870.77 326.89H564.15" stroke="#4B39E1" stroke-width="2" stroke-miterlimit="10"/>
<path d="M872.85 327.358H562.09" stroke="#4B39E1" stroke-width="2" stroke-miterlimit="10"/>
<path d="M874.99 327.849H559.96" stroke="#4B39E1" stroke-width="2" stroke-miterlimit="10"/>
<path d="M877.18 328.349H557.78" stroke="#4B39E1" stroke-width="2" stroke-miterlimit="10"/>
<path d="M879.44 328.872H555.54" stroke="#4B39E1" stroke-width="2" stroke-miterlimit="10"/>
<path d="M881.76 329.404H553.23" stroke="#4B39E1" stroke-width="2" stroke-miterlimit="10"/>
<path d="M884.15 329.948H550.86" stroke="#4B39E1" stroke-width="2" stroke-miterlimit="10"/>
<path d="M886.61 330.512H548.42" stroke="#4B39E1" stroke-width="2" stroke-miterlimit="10"/>
<path d="M889.14 331.088H545.9" stroke="#4B39E1" stroke-width="2" stroke-miterlimit="10"/>
<path d="M891.75 331.685H543.31" stroke="#4B39E1" stroke-width="2" stroke-miterlimit="10"/>
<path d="M894.44 332.303H540.63" stroke="#4B39E1" stroke-width="2" stroke-miterlimit="10"/>
<path d="M897.21 332.931H537.88" stroke="#4B39E1" stroke-width="2" stroke-miterlimit="10"/>
<path d="M900.07 333.592H535.03" stroke="#4B39E1" stroke-width="2" stroke-miterlimit="10"/>
<path d="M903.02 334.263H532.1" stroke="#4B39E1" stroke-width="2" stroke-miterlimit="10"/>
<path d="M906.08 334.967H529.06" stroke="#4B39E1" stroke-width="2" stroke-miterlimit="10"/>
<path d="M909.23 335.691H525.93" stroke="#4B39E1" stroke-width="2" stroke-miterlimit="10"/>
<path d="M912.49 336.427H522.69" stroke="#4B39E1" stroke-width="2" stroke-miterlimit="10"/>
<path d="M915.86 337.205H519.34" stroke="#4B39E1" stroke-width="2" stroke-miterlimit="10"/>
<path d="M919.35 338.004H515.87" stroke="#4B39E1" stroke-width="2" stroke-miterlimit="10"/>
<path d="M922.96 338.824H512.28" stroke="#4B39E1" stroke-width="2" stroke-miterlimit="10"/>
<path d="M926.71 339.688H508.56" stroke="#4B39E1" stroke-width="2" stroke-miterlimit="10"/>
<path d="M930.59 340.572H504.69" stroke="#4B39E1" stroke-width="2" stroke-miterlimit="10"/>
<path d="M934.63 341.499H500.69" stroke="#4B39E1" stroke-width="2" stroke-miterlimit="10"/>
<path d="M938.81 342.458H496.53" stroke="#4B39E1" stroke-width="2" stroke-miterlimit="10"/>
<path d="M943.16 343.449H492.2" stroke="#4B39E1" stroke-width="2" stroke-miterlimit="10"/>
<path d="M947.69 344.483H487.7" stroke="#4B39E1" stroke-width="2" stroke-miterlimit="10"/>
<path d="M952.4 345.57H483.02" stroke="#4B39E1" stroke-width="2" stroke-miterlimit="10"/>
<path d="M957.3 346.688H478.15" stroke="#4B39E1" stroke-width="2" stroke-miterlimit="10"/>
<path d="M962.42 347.861H473.06" stroke="#4B39E1" stroke-width="2" stroke-miterlimit="10"/>
<path d="M967.76 349.075H467.76" stroke="#4B39E1" stroke-width="2" stroke-miterlimit="10"/>
<path d="M973.33 350.354H462.22" stroke="#4B39E1" stroke-width="2" stroke-miterlimit="10"/>
<path d="M979.16 351.686H456.42" stroke="#4B39E1" stroke-width="2" stroke-miterlimit="10"/>
<path d="M985.26 353.082H450.36" stroke="#4B39E1" stroke-width="2" stroke-miterlimit="10"/>
<path d="M991.65 354.553H444.01" stroke="#4B39E1" stroke-width="2" stroke-miterlimit="10"/>
<path d="M998.35 356.077H437.35" stroke="#4B39E1" stroke-width="2" stroke-miterlimit="10"/>
<path d="M1005.39 357.696H430.35" stroke="#4B39E1" stroke-width="2" stroke-miterlimit="10"/>
<path d="M1012.79 359.38H423" stroke="#4B39E1" stroke-width="2" stroke-miterlimit="10"/>
<path d="M1020.57 361.17H415.26" stroke="#4B39E1" stroke-width="2" stroke-miterlimit="10"/>
<path d="M1028.78 363.046H407.1" stroke="#4B39E1" stroke-width="2" stroke-miterlimit="10"/>
<path d="M1037.45 365.028H398.49" stroke="#4B39E1" stroke-width="2" stroke-miterlimit="10"/>
<path d="M1046.61 367.127H389.38" stroke="#4B39E1" stroke-width="2" stroke-miterlimit="10"/>
<path d="M1056.31 369.344H379.74" stroke="#4B39E1" stroke-width="2" stroke-miterlimit="10"/>
<path d="M1066.6 371.698H369.52" stroke="#4B39E1" stroke-width="2" stroke-miterlimit="10"/>
<path d="M1077.53 374.203H358.65" stroke="#4B39E1" stroke-width="2" stroke-miterlimit="10"/>
<path d="M1089.17 376.867H347.08" stroke="#4B39E1" stroke-width="2" stroke-miterlimit="10"/>
<path d="M1101.58 379.701H334.75" stroke="#4B39E1" stroke-width="2" stroke-miterlimit="10"/>
<path d="M1114.85 382.738H321.56" stroke="#4B39E1" stroke-width="2" stroke-miterlimit="10"/>
<path d="M1129.07 385.999H307.42" stroke="#4B39E1" stroke-width="2" stroke-miterlimit="10"/>
<path d="M1144.34 389.494H292.24" stroke="#4B39E1" stroke-width="2" stroke-miterlimit="10"/>
<path d="M1160.79 393.256H275.9" stroke="#4B39E1" stroke-width="2" stroke-miterlimit="10"/>
<path d="M1178.55 397.316H258.24" stroke="#4B39E1" stroke-width="2" stroke-miterlimit="10"/>
<path d="M1197.8 401.727H239.11" stroke="#4B39E1" stroke-width="2" stroke-miterlimit="10"/>
<path d="M1218.72 406.512H218.31" stroke="#4B39E1" stroke-width="2" stroke-miterlimit="10"/>
<path d="M1241.55 411.733H195.63" stroke="#4B39E1" stroke-width="2" stroke-miterlimit="10"/>
<path d="M1266.55 417.456H170.78" stroke="#4B39E1" stroke-width="2" stroke-miterlimit="10"/>
<path d="M1294.05 423.753H143.44" stroke="#4B39E1" stroke-width="2" stroke-miterlimit="10"/>
<path d="M1324.45 430.712H113.22" stroke="#4B39E1" stroke-width="2" stroke-miterlimit="10"/>
<path d="M1358.24 438.438H79.6501" stroke="#4B39E1" stroke-width="2" stroke-miterlimit="10"/>
<path d="M1396 447.08H42.1104" stroke="#4B39E1" stroke-width="2" stroke-miterlimit="10"/>
<path d="M1438.49 456.798H-0.120117" stroke="#4B39E1" stroke-width="2" stroke-miterlimit="10"/>
<path d="M1486.65 467.827H-47.9799" stroke="#4B39E1" stroke-width="2" stroke-miterlimit="10"/>
<path d="M1541.69 480.423H-102.7" stroke="#4B39E1" stroke-width="2" stroke-miterlimit="10"/>
<path d="M1605.22 494.958H-165.84" stroke="#4B39E1" stroke-width="2" stroke-miterlimit="10"/>
<path d="M1679.36 511.922H-239.53" stroke="#4B39E1" stroke-width="2" stroke-miterlimit="10"/>
<path d="M-246.11 531.977L667.1 304.139" stroke="#4B39E1" stroke-width="2" stroke-miterlimit="10"/>
<path d="M-165.58 531.977L671.28 304.139" stroke="#4B39E1" stroke-width="2" stroke-miterlimit="10"/>
<path d="M-85.0598 531.977L675.45 304.139" stroke="#4B39E1" stroke-width="2" stroke-miterlimit="10"/>
<path d="M-4.53992 531.977L679.62 304.139" stroke="#4B39E1" stroke-width="2" stroke-miterlimit="10"/>
<path d="M75.9901 531.977L683.79 304.139" stroke="#4B39E1" stroke-width="2" stroke-miterlimit="10"/>
<path d="M156.51 531.977L687.96 304.139" stroke="#4B39E1" stroke-width="2" stroke-miterlimit="10"/>
<path d="M237.04 531.977L692.13 304.139" stroke="#4B39E1" stroke-width="2" stroke-miterlimit="10"/>
<path d="M317.56 531.977L696.3 304.139" stroke="#4B39E1" stroke-width="2" stroke-miterlimit="10"/>
<path d="M398.09 531.977L700.48 304.139" stroke="#4B39E1" stroke-width="2" stroke-miterlimit="10"/>
<path d="M478.61 531.977L704.65 304.139" stroke="#4B39E1" stroke-width="2" stroke-miterlimit="10"/>
<path d="M559.13 531.977L708.82 304.139" stroke="#4B39E1" stroke-width="2" stroke-miterlimit="10"/>
<path d="M639.66 531.977L712.99 304.139" stroke="#4B39E1" stroke-width="2" stroke-miterlimit="10"/>
<path d="M720.18 531.977L717.16 304.139" stroke="#4B39E1" stroke-width="2" stroke-miterlimit="10"/>
<path d="M800.71 531.977L721.33 304.139" stroke="#4B39E1" stroke-width="2" stroke-miterlimit="10"/>
<path d="M881.23 531.977L725.5 304.139" stroke="#4B39E1" stroke-width="2" stroke-miterlimit="10"/>
<path d="M961.75 531.977L729.68 304.139" stroke="#4B39E1" stroke-width="2" stroke-miterlimit="10"/>
<path d="M1042.28 531.977L733.85 304.139" stroke="#4B39E1" stroke-width="2" stroke-miterlimit="10"/>
<path d="M1122.8 531.977L738.02 304.139" stroke="#4B39E1" stroke-width="2" stroke-miterlimit="10"/>
<path d="M1203.33 531.977L742.19 304.139" stroke="#4B39E1" stroke-width="2" stroke-miterlimit="10"/>
<path d="M1283.85 531.977L746.36 304.139" stroke="#4B39E1" stroke-width="2" stroke-miterlimit="10"/>
<path d="M1364.38 531.977L750.53 304.139" stroke="#4B39E1" stroke-width="2" stroke-miterlimit="10"/>
<path d="M1444.9 531.977L754.7 304.139" stroke="#4B39E1" stroke-width="2" stroke-miterlimit="10"/>
<path d="M1525.42 531.977L758.87 304.139" stroke="#4B39E1" stroke-width="2" stroke-miterlimit="10"/>
<path d="M1605.95 531.977L763.05 304.139" stroke="#4B39E1" stroke-width="2" stroke-miterlimit="10"/>
<path d="M1686.47 531.977L767.22 304.139" stroke="#4B39E1" stroke-width="2" stroke-miterlimit="10"/>
</g>
<defs>
<linearGradient id="paint0_linear_856_106" x1="720.5" y1="0" x2="720.5" y2="547" gradientUnits="userSpaceOnUse">
<stop stop-color="#090223"/>
<stop offset="1" stop-color="#3305C1"/>
</linearGradient>
<linearGradient id="paint1_linear_856_106" x1="1453.66" y1="63.428" x2="1453.66" y2="501.618" gradientUnits="userSpaceOnUse">
<stop stop-color="#4B39E1" stop-opacity="0"/>
<stop offset="1" stop-color="#4B39E1"/>
</linearGradient>
<linearGradient id="paint2_linear_856_106" x1="1365.84" y1="205.314" x2="1365.84" y2="492.496" gradientUnits="userSpaceOnUse">
<stop stop-color="#4B39E1" stop-opacity="0"/>
<stop offset="1" stop-color="#4B39E1"/>
</linearGradient>
<linearGradient id="paint3_linear_856_106" x1="1422.52" y1="205.037" x2="1422.52" y2="492.219" gradientUnits="userSpaceOnUse">
<stop stop-color="#4B39E1" stop-opacity="0"/>
<stop offset="1" stop-color="#4B39E1"/>
</linearGradient>
<linearGradient id="paint4_linear_856_106" x1="1378.02" y1="160.377" x2="1378.02" y2="458.812" gradientUnits="userSpaceOnUse">
<stop stop-color="#4B39E1" stop-opacity="0"/>
<stop offset="1" stop-color="#4B39E1"/>
</linearGradient>
<linearGradient id="paint5_linear_856_106" x1="1456.53" y1="160.143" x2="1456.53" y2="458.482" gradientUnits="userSpaceOnUse">
<stop stop-color="#4B39E1" stop-opacity="0"/>
<stop offset="1" stop-color="#4B39E1"/>
</linearGradient>
<linearGradient id="paint6_linear_856_106" x1="-0.389931" y1="63.5664" x2="-0.389931" y2="501.767" gradientUnits="userSpaceOnUse">
<stop stop-color="#4B39E1" stop-opacity="0"/>
<stop offset="1" stop-color="#4B39E1"/>
</linearGradient>
<linearGradient id="paint7_linear_856_106" x1="87.43" y1="205.452" x2="87.43" y2="492.635" gradientUnits="userSpaceOnUse">
<stop stop-color="#4B39E1" stop-opacity="0"/>
<stop offset="1" stop-color="#4B39E1"/>
</linearGradient>
<linearGradient id="paint8_linear_856_106" x1="30.7503" y1="205.176" x2="30.7503" y2="492.358" gradientUnits="userSpaceOnUse">
<stop stop-color="#4B39E1" stop-opacity="0"/>
<stop offset="1" stop-color="#4B39E1"/>
</linearGradient>
<linearGradient id="paint9_linear_856_106" x1="75.2499" y1="160.516" x2="75.2499" y2="458.951" gradientUnits="userSpaceOnUse">
<stop stop-color="#4B39E1" stop-opacity="0"/>
<stop offset="1" stop-color="#4B39E1"/>
</linearGradient>
<linearGradient id="paint10_linear_856_106" x1="-3.25982" y1="160.281" x2="-3.25982" y2="458.62" gradientUnits="userSpaceOnUse">
<stop stop-color="#4B39E1" stop-opacity="0"/>
<stop offset="1" stop-color="#4B39E1"/>
</linearGradient>
<linearGradient id="paint11_linear_856_106" x1="1272.12" y1="284.532" x2="1272.12" y2="411.361" gradientUnits="userSpaceOnUse">
<stop stop-color="#4B39E1" stop-opacity="0"/>
<stop offset="1" stop-color="#4B39E1"/>
</linearGradient>
<linearGradient id="paint12_linear_856_106" x1="1196.74" y1="284.542" x2="1196.74" y2="411.329" gradientUnits="userSpaceOnUse">
<stop stop-color="#4B39E1" stop-opacity="0"/>
<stop offset="1" stop-color="#4B39E1"/>
</linearGradient>
<linearGradient id="paint13_linear_856_106" x1="1189.66" y1="163.19" x2="1189.66" y2="392.318" gradientUnits="userSpaceOnUse">
<stop stop-color="#4B39E1" stop-opacity="0"/>
<stop offset="1" stop-color="#4B39E1"/>
</linearGradient>
<linearGradient id="paint14_linear_856_106" x1="1117.32" y1="163.681" x2="1117.32" y2="391.86" gradientUnits="userSpaceOnUse">
<stop stop-color="#4B39E1" stop-opacity="0"/>
<stop offset="1" stop-color="#4B39E1"/>
</linearGradient>
<linearGradient id="paint15_linear_856_106" x1="1204.46" y1="213.392" x2="1204.46" y2="282.848" gradientUnits="userSpaceOnUse">
<stop stop-color="#4B39E1" stop-opacity="0"/>
<stop offset="1" stop-color="#4B39E1"/>
</linearGradient>
<linearGradient id="paint16_linear_856_106" x1="1259.61" y1="213.253" x2="1259.61" y2="282.4" gradientUnits="userSpaceOnUse">
<stop stop-color="#4B39E1" stop-opacity="0"/>
<stop offset="1" stop-color="#4B39E1"/>
</linearGradient>
<linearGradient id="paint17_linear_856_106" x1="1312.59" y1="345.783" x2="1312.59" y2="428.73" gradientUnits="userSpaceOnUse">
<stop stop-color="#4B39E1" stop-opacity="0"/>
<stop offset="1" stop-color="#4B39E1"/>
</linearGradient>
<linearGradient id="paint18_linear_856_106" x1="1263.87" y1="341.254" x2="1263.87" y2="428.794" gradientUnits="userSpaceOnUse">
<stop stop-color="#4B39E1" stop-opacity="0"/>
<stop offset="1" stop-color="#4B39E1"/>
</linearGradient>
<linearGradient id="paint19_linear_856_106" x1="1292.97" y1="341.307" x2="1292.97" y2="343.705" gradientUnits="userSpaceOnUse">
<stop stop-color="#4B39E1" stop-opacity="0"/>
<stop offset="1" stop-color="#4B39E1"/>
</linearGradient>
<linearGradient id="paint20_linear_856_106" x1="1098.51" y1="322.297" x2="1098.51" y2="386.478" gradientUnits="userSpaceOnUse">
<stop stop-color="#4B39E1" stop-opacity="0"/>
<stop offset="1" stop-color="#4B39E1"/>
</linearGradient>
<linearGradient id="paint21_linear_856_106" x1="1047.87" y1="317.086" x2="1047.87" y2="386.372" gradientUnits="userSpaceOnUse">
<stop stop-color="#4B39E1" stop-opacity="0"/>
<stop offset="1" stop-color="#4B39E1"/>
</linearGradient>
<linearGradient id="paint22_linear_856_106" x1="1075.79" y1="317.033" x2="1075.79" y2="320.091" gradientUnits="userSpaceOnUse">
<stop stop-color="#4B39E1" stop-opacity="0"/>
<stop offset="1" stop-color="#4B39E1"/>
</linearGradient>
<linearGradient id="paint23_linear_856_106" x1="184.55" y1="287.078" x2="184.55" y2="413.896" gradientUnits="userSpaceOnUse">
<stop stop-color="#4B39E1" stop-opacity="0"/>
<stop offset="1" stop-color="#4B39E1"/>
</linearGradient>
<linearGradient id="paint24_linear_856_106" x1="259.93" y1="287.089" x2="259.93" y2="413.875" gradientUnits="userSpaceOnUse">
<stop stop-color="#4B39E1" stop-opacity="0"/>
<stop offset="1" stop-color="#4B39E1"/>
</linearGradient>
<linearGradient id="paint25_linear_856_106" x1="267.01" y1="165.727" x2="267.01" y2="394.854" gradientUnits="userSpaceOnUse">
<stop stop-color="#4B39E1" stop-opacity="0"/>
<stop offset="1" stop-color="#4B39E1"/>
</linearGradient>
<linearGradient id="paint26_linear_856_106" x1="339.35" y1="166.217" x2="339.35" y2="394.406" gradientUnits="userSpaceOnUse">
<stop stop-color="#4B39E1" stop-opacity="0"/>
<stop offset="1" stop-color="#4B39E1"/>
</linearGradient>
<linearGradient id="paint27_linear_856_106" x1="252.21" y1="215.927" x2="252.21" y2="285.384" gradientUnits="userSpaceOnUse">
<stop stop-color="#4B39E1" stop-opacity="0"/>
<stop offset="1" stop-color="#4B39E1"/>
</linearGradient>
<linearGradient id="paint28_linear_856_106" x1="197.06" y1="215.789" x2="197.06" y2="284.937" gradientUnits="userSpaceOnUse">
<stop stop-color="#4B39E1" stop-opacity="0"/>
<stop offset="1" stop-color="#4B39E1"/>
</linearGradient>
<linearGradient id="paint29_linear_856_106" x1="144.08" y1="348.329" x2="144.08" y2="431.276" gradientUnits="userSpaceOnUse">
<stop stop-color="#4B39E1" stop-opacity="0"/>
<stop offset="1" stop-color="#4B39E1"/>
</linearGradient>
<linearGradient id="paint30_linear_856_106" x1="192.8" y1="343.79" x2="192.8" y2="431.33" gradientUnits="userSpaceOnUse">
<stop stop-color="#4B39E1" stop-opacity="0"/>
<stop offset="1" stop-color="#4B39E1"/>
</linearGradient>
<linearGradient id="paint31_linear_856_106" x1="163.72" y1="343.844" x2="163.72" y2="346.241" gradientUnits="userSpaceOnUse">
<stop stop-color="#4B39E1" stop-opacity="0"/>
<stop offset="1" stop-color="#4B39E1"/>
</linearGradient>
<linearGradient id="paint32_linear_856_106" x1="358.16" y1="324.833" x2="358.16" y2="389.015" gradientUnits="userSpaceOnUse">
<stop stop-color="#4B39E1" stop-opacity="0"/>
<stop offset="1" stop-color="#4B39E1"/>
</linearGradient>
<linearGradient id="paint33_linear_856_106" x1="408.8" y1="319.622" x2="408.8" y2="388.908" gradientUnits="userSpaceOnUse">
<stop stop-color="#4B39E1" stop-opacity="0"/>
<stop offset="1" stop-color="#4B39E1"/>
</linearGradient>
<linearGradient id="paint34_linear_856_106" x1="380.9" y1="319.569" x2="380.9" y2="322.627" gradientUnits="userSpaceOnUse">
<stop stop-color="#4B39E1" stop-opacity="0"/>
<stop offset="1" stop-color="#4B39E1"/>
</linearGradient>
<clipPath id="clip0_856_106">
<rect width="1441" height="471" fill="white" transform="translate(0 62)"/>
</clipPath>
</defs>
</svg>
