<svg width="1440" height="471" viewBox="0 0 1440 471" fill="none" xmlns="http://www.w3.org/2000/svg">
<g opacity="0.8" clip-path="url(#clip0_223_1508)">
<path d="M1416.1 417.634V24.978L1491.21 1.42798V439.618L1416.1 417.634Z" fill="url(#paint0_linear_223_1508)"/>
<path d="M1490.21 2.84518V438.222L1417.1 416.814V25.7665L1490.21 2.84518ZM1492.21 0L1415.1 24.1787V418.444L1492.21 441.024V0Z" fill="#4B39E1"/>
<path d="M1346.74 416.142V158.69L1384.94 143.314V430.496L1346.74 416.142Z" fill="url(#paint1_linear_223_1508)"/>
<path d="M1384.36 144.209V429.633L1347.32 415.716V159.127L1384.36 144.22M1385.52 142.419L1346.17 158.254V416.568L1385.52 431.359V142.419Z" fill="#4B39E1"/>
<path d="M1458.95 143.037H1386.1V430.219H1458.95V143.037Z" fill="url(#paint2_linear_223_1508)"/>
<path d="M1458.37 143.655V429.601H1386.67V143.655H1458.37ZM1459.53 142.419H1385.52V430.837H1459.53V142.419Z" fill="#4B39E1"/>
<path d="M1351.46 381.829V114.425L1404.57 98.377V396.812L1351.46 381.829Z" fill="url(#paint3_linear_223_1508)"/>
<path d="M1403.88 99.3574V395.853L1352.15 381.265V114.99L1403.88 99.3574ZM1405.27 97.3967L1350.76 113.86V382.384L1405.27 397.76V97.3967Z" fill="#4B39E1"/>
<path d="M1507.09 98.1426H1405.96V396.482H1507.09V98.1426Z" fill="url(#paint4_linear_223_1508)"/>
<path d="M1506.4 98.8779V395.736H1406.66V98.8779H1506.4ZM1507.78 97.3967H1405.26V397.217H1507.78V97.3967Z" fill="#4B39E1"/>
<path d="M-37.9399 1.56641L37.1701 25.1164V417.773L-37.9399 439.767V1.56641Z" fill="url(#paint5_linear_223_1508)"/>
<path d="M-36.9399 2.98361L36.1701 25.9049V416.952L-36.9399 438.36V2.98361ZM-38.9399 0.138428V441.163L38.1701 418.582V24.3171L-38.9399 0.138428Z" fill="#4B39E1"/>
<path d="M68.3301 143.452L106.53 158.829V416.281L68.3301 430.635V143.452Z" fill="url(#paint6_linear_223_1508)"/>
<path d="M68.91 144.348L105.95 159.255V415.844L68.91 429.761V144.348ZM67.75 142.557V431.498L107.1 416.707V158.392L67.75 142.557Z" fill="#4B39E1"/>
<path d="M67.1703 143.176H-5.67969V430.358H67.1703V143.176Z" fill="url(#paint7_linear_223_1508)"/>
<path d="M66.6003 143.793V429.74H-5.09976V143.793H66.6003ZM67.7502 142.557H-6.25977V430.976H67.7502V142.557Z" fill="#4B39E1"/>
<path d="M48.7002 98.5159L101.81 114.564V381.968L48.7002 396.951V98.5159Z" fill="url(#paint8_linear_223_1508)"/>
<path d="M49.39 99.4961L101.12 115.129V381.404L49.39 395.992V99.4961ZM48 97.5354V397.91L102.51 382.533V114.01L48 97.5461V97.5354Z" fill="#4B39E1"/>
<path d="M47.3102 98.2812H-53.8198V396.62H47.3102V98.2812Z" fill="url(#paint9_linear_223_1508)"/>
<path d="M46.6102 99.0166V395.874H-53.1298V99.0166H46.6102ZM48.0002 97.5354H-54.5098V397.356H48.0002V97.5354Z" fill="#4B39E1"/>
<path d="M1313 222.532H1231.26V349.35H1313V222.532Z" fill="url(#paint10_linear_223_1508)"/>
<path d="M1311.99 223.608V348.295H1232.26V223.608H1311.99ZM1314 221.466H1230.26V350.426H1314V221.466Z" fill="#4B39E1"/>
<path d="M1164.24 330.158V223.309L1229.25 222.542V349.329L1164.24 330.158Z" fill="url(#paint11_linear_223_1508)"/>
<path d="M1228.24 223.629V347.922L1165.23 329.338V224.365L1228.24 223.619M1230.25 221.466L1163.23 222.255V330.979L1230.25 350.746V221.477V221.466Z" fill="#4B39E1"/>
<path d="M1232.82 101.19H1146.49V330.307H1232.82V101.19Z" fill="url(#paint12_linear_223_1508)"/>
<path d="M1231.82 102.267V329.252H1147.5V102.267H1231.82ZM1233.83 100.125H1145.49V331.384H1233.83V100.125Z" fill="#4B39E1"/>
<path d="M1090.06 312.874V122.098L1144.57 101.681V329.86L1090.06 312.874Z" fill="url(#paint13_linear_223_1508)"/>
<path d="M1143.56 103.183V328.432L1091.06 312.064V122.854L1143.56 103.183ZM1145.57 100.167L1089.06 121.341V313.673L1145.57 331.288V100.167Z" fill="#4B39E1"/>
<path d="M1186.06 158.158L1222.87 151.392V220.411L1186.06 220.848V158.158Z" fill="url(#paint14_linear_223_1508)"/>
<path d="M1221.86 152.66V219.346L1187.07 219.761V159.053L1221.86 152.66ZM1223.87 150.123L1185.06 157.252V221.924L1223.87 221.455V150.113V150.123Z" fill="#4B39E1"/>
<path d="M1294.35 151.253H1224.87V220.4H1294.35V151.253Z" fill="url(#paint15_linear_223_1508)"/>
<path d="M1293.35 152.318V219.324H1225.88V152.318H1293.35ZM1295.36 150.187H1223.87V221.466H1295.36V150.187Z" fill="#4B39E1"/>
<path d="M1341.56 283.783H1283.63V366.73H1341.56V283.783Z" fill="url(#paint16_linear_223_1508)"/>
<path d="M1340.52 284.891V365.632H1284.67V284.891H1340.52ZM1342.59 282.685H1282.59V367.849H1342.59V282.685Z" fill="#4B39E1"/>
<path d="M1246.06 356.138V279.254L1281.67 283.463V366.794L1246.06 356.138Z" fill="url(#paint17_linear_223_1508)"/>
<path d="M1247.07 280.448L1280.67 284.422V365.377L1247.07 355.328V280.448ZM1245.06 278.061V356.958L1282.68 368.211V282.515L1245.06 278.061Z" fill="#4B39E1"/>
<path d="M1283.68 281.705L1263.49 279.307H1299.78L1322.46 281.705H1283.68Z" fill="url(#paint18_linear_223_1508)"/>
<path d="M1299.68 280.373L1302.11 280.628H1283.74L1281.58 280.373H1299.68ZM1299.78 278.241H1245.4L1283.62 282.781H1342.76L1299.78 278.241Z" fill="#4B39E1"/>
<path d="M1127.43 260.297H1069.58V324.478H1127.43V260.297Z" fill="url(#paint19_linear_223_1508)"/>
<path d="M1126.4 261.394V323.37H1070.62V261.394H1126.4ZM1128.47 259.188H1068.55V325.576H1128.47V259.188Z" fill="#4B39E1"/>
<path d="M1028.05 309.144V255.086L1067.69 260.126V324.372L1028.05 309.144Z" fill="url(#paint20_linear_223_1508)"/>
<path d="M1029.09 256.333L1066.65 261.117V322.805L1029.09 308.377V256.333ZM1027.02 253.839V309.922L1068.72 325.938V259.146L1027.02 253.839Z" fill="#4B39E1"/>
<path d="M1068.83 258.091L1044.6 255.033H1077.2L1106.98 258.091H1068.83Z" fill="url(#paint21_linear_223_1508)"/>
<path d="M1077.1 256.141L1085.36 256.983H1068.9L1062.18 256.141H1077.1ZM1077.2 253.935H1027.02L1068.77 259.199H1128.55L1077.2 253.935Z" fill="#4B39E1"/>
<path d="M225.42 225.078H143.68V351.896H225.42V225.078Z" fill="url(#paint22_linear_223_1508)"/>
<path d="M224.41 226.144V350.831H144.68V226.144H224.41ZM226.42 224.002H142.68V352.962H226.42V224.002Z" fill="#4B39E1"/>
<path d="M227.43 225.089L292.44 225.856V332.705L227.43 351.875V225.089Z" fill="url(#paint23_linear_223_1508)"/>
<path d="M228.43 226.165L291.44 226.911V331.884L228.43 350.469V226.176M226.42 224.002V353.271L293.44 333.504V224.79L226.42 224.002Z" fill="#4B39E1"/>
<path d="M310.18 103.727H223.85V332.844H310.18V103.727Z" fill="url(#paint24_linear_223_1508)"/>
<path d="M309.18 104.803V331.789H224.85V104.803H309.18ZM311.19 102.661H222.85V333.92H311.19V102.661Z" fill="#4B39E1"/>
<path d="M312.11 104.217L366.61 124.644V315.41L312.11 332.406V104.217Z" fill="url(#paint25_linear_223_1508)"/>
<path d="M313.11 105.73L365.61 125.401V314.611L313.11 330.979V105.73ZM311.1 102.703V333.824L367.61 316.209V123.888L311.1 102.714V102.703Z" fill="#4B39E1"/>
<path d="M233.81 222.947V153.927L270.61 160.694V223.384L233.81 222.947Z" fill="url(#paint26_linear_223_1508)"/>
<path d="M234.81 155.206L269.6 161.6V222.308L234.81 221.892V155.206ZM232.81 152.659V224.002L271.62 224.471V159.799L232.81 152.67V152.659Z" fill="#4B39E1"/>
<path d="M231.8 153.789H162.32V222.937H231.8V153.789Z" fill="url(#paint27_linear_223_1508)"/>
<path d="M230.8 154.865V221.871H163.33V154.865H230.8ZM232.81 152.723H161.32V224.002H232.81V152.723Z" fill="#4B39E1"/>
<path d="M173.05 286.329H115.12V369.276H173.05V286.329Z" fill="url(#paint28_linear_223_1508)"/>
<path d="M172.01 287.427V368.168H116.16V287.427H172.01ZM174.08 285.221H114.08V370.374H174.08V285.221Z" fill="#4B39E1"/>
<path d="M175 285.999L210.61 281.79V358.685L175 369.33V285.999Z" fill="url(#paint29_linear_223_1508)"/>
<path d="M209.61 282.984V357.864L176.01 367.913V286.958L209.61 282.984ZM211.61 280.597L173.99 285.051V370.747L211.61 359.494V280.597Z" fill="#4B39E1"/>
<path d="M134.24 284.241L156.99 281.844H193.2L172.99 284.241H134.24Z" fill="url(#paint30_linear_223_1508)"/>
<path d="M175.1 282.92L172.94 283.175H154.57L157 282.92H175.1ZM211.27 280.778H156.89L113.91 285.317H173.05L211.27 280.778Z" fill="#4B39E1"/>
<path d="M387.09 262.833H329.24V327.015H387.09V262.833Z" fill="url(#paint31_linear_223_1508)"/>
<path d="M386.06 263.931V325.906H330.28V263.931H386.06ZM388.12 261.735H328.21V328.123H388.12V261.735Z" fill="#4B39E1"/>
<path d="M388.99 262.673L428.62 257.622V311.681L388.99 326.908V262.673Z" fill="url(#paint32_linear_223_1508)"/>
<path d="M427.59 258.869V310.913L390.03 325.342V263.653L427.59 258.869ZM429.66 256.386L387.96 261.693V328.485L429.66 312.469V256.386Z" fill="#4B39E1"/>
<path d="M349.72 260.627L379.58 257.569L412.09 257.579L387.84 260.627H349.72Z" fill="url(#paint33_linear_223_1508)"/>
<path d="M394.49 258.677L387.77 259.519H371.31L379.57 258.677H394.49ZM429.66 256.471H379.48L328.13 261.735H387.91L429.67 256.471H429.66Z" fill="#4B39E1"/>
<path d="M1767 469.977H-326.63L662.93 242.139H771.39L1767 469.977Z" stroke="#4B39E1" stroke-width="2" stroke-miterlimit="10"/>
<path d="M771.65 242.203H662.68" stroke="#4B39E1" stroke-width="2" stroke-miterlimit="10"/>
<path d="M771.91 242.267H662.42" stroke="#4B39E1" stroke-width="2" stroke-miterlimit="10"/>
<path d="M772.17 242.32H662.16" stroke="#4B39E1" stroke-width="2" stroke-miterlimit="10"/>
<path d="M772.44 242.384H661.89" stroke="#4B39E1" stroke-width="2" stroke-miterlimit="10"/>
<path d="M772.7 242.448H661.63" stroke="#4B39E1" stroke-width="2" stroke-miterlimit="10"/>
<path d="M772.97 242.501H661.36" stroke="#4B39E1" stroke-width="2" stroke-miterlimit="10"/>
<path d="M773.25 242.565H661.09" stroke="#4B39E1" stroke-width="2" stroke-miterlimit="10"/>
<path d="M773.52 242.629H660.81" stroke="#4B39E1" stroke-width="2" stroke-miterlimit="10"/>
<path d="M773.8 242.693H660.54" stroke="#4B39E1" stroke-width="2" stroke-miterlimit="10"/>
<path d="M774.08 242.757H660.26" stroke="#4B39E1" stroke-width="2" stroke-miterlimit="10"/>
<path d="M774.37 242.821H659.97" stroke="#4B39E1" stroke-width="2" stroke-miterlimit="10"/>
<path d="M774.65 242.885H659.69" stroke="#4B39E1" stroke-width="2" stroke-miterlimit="10"/>
<path d="M774.94 242.959H659.4" stroke="#4B39E1" stroke-width="2" stroke-miterlimit="10"/>
<path d="M775.24 243.023H659.11" stroke="#4B39E1" stroke-width="2" stroke-miterlimit="10"/>
<path d="M775.53 243.087H658.82" stroke="#4B39E1" stroke-width="2" stroke-miterlimit="10"/>
<path d="M775.83 243.162H658.52" stroke="#4B39E1" stroke-width="2" stroke-miterlimit="10"/>
<path d="M776.13 243.226H658.22" stroke="#4B39E1" stroke-width="2" stroke-miterlimit="10"/>
<path d="M776.44 243.3H657.92" stroke="#4B39E1" stroke-width="2" stroke-miterlimit="10"/>
<path d="M776.74 243.364H657.61" stroke="#4B39E1" stroke-width="2" stroke-miterlimit="10"/>
<path d="M777.06 243.439H657.3" stroke="#4B39E1" stroke-width="2" stroke-miterlimit="10"/>
<path d="M777.37 243.513H656.99" stroke="#4B39E1" stroke-width="2" stroke-miterlimit="10"/>
<path d="M777.69 243.588H656.67" stroke="#4B39E1" stroke-width="2" stroke-miterlimit="10"/>
<path d="M778.01 243.663H656.35" stroke="#4B39E1" stroke-width="2" stroke-miterlimit="10"/>
<path d="M778.33 243.737H656.03" stroke="#4B39E1" stroke-width="2" stroke-miterlimit="10"/>
<path d="M778.66 243.812H655.7" stroke="#4B39E1" stroke-width="2" stroke-miterlimit="10"/>
<path d="M778.99 243.886H655.38" stroke="#4B39E1" stroke-width="2" stroke-miterlimit="10"/>
<path d="M779.33 243.961H655.04" stroke="#4B39E1" stroke-width="2" stroke-miterlimit="10"/>
<path d="M779.67 244.035H654.71" stroke="#4B39E1" stroke-width="2" stroke-miterlimit="10"/>
<path d="M780.01 244.121H654.36" stroke="#4B39E1" stroke-width="2" stroke-miterlimit="10"/>
<path d="M780.36 244.195H654.02" stroke="#4B39E1" stroke-width="2" stroke-miterlimit="10"/>
<path d="M780.71 244.27H653.67" stroke="#4B39E1" stroke-width="2" stroke-miterlimit="10"/>
<path d="M781.06 244.355H653.32" stroke="#4B39E1" stroke-width="2" stroke-miterlimit="10"/>
<path d="M781.42 244.44H652.97" stroke="#4B39E1" stroke-width="2" stroke-miterlimit="10"/>
<path d="M781.78 244.526H652.61" stroke="#4B39E1" stroke-width="2" stroke-miterlimit="10"/>
<path d="M782.15 244.6H652.24" stroke="#4B39E1" stroke-width="2" stroke-miterlimit="10"/>
<path d="M782.52 244.686H651.87" stroke="#4B39E1" stroke-width="2" stroke-miterlimit="10"/>
<path d="M782.89 244.771H651.5" stroke="#4B39E1" stroke-width="2" stroke-miterlimit="10"/>
<path d="M783.27 244.867H651.12" stroke="#4B39E1" stroke-width="2" stroke-miterlimit="10"/>
<path d="M783.65 244.952H650.74" stroke="#4B39E1" stroke-width="2" stroke-miterlimit="10"/>
<path d="M784.04 245.037H650.36" stroke="#4B39E1" stroke-width="2" stroke-miterlimit="10"/>
<path d="M784.43 245.122H649.97" stroke="#4B39E1" stroke-width="2" stroke-miterlimit="10"/>
<path d="M784.83 245.218H649.57" stroke="#4B39E1" stroke-width="2" stroke-miterlimit="10"/>
<path d="M785.23 245.314H649.18" stroke="#4B39E1" stroke-width="2" stroke-miterlimit="10"/>
<path d="M785.64 245.399H648.77" stroke="#4B39E1" stroke-width="2" stroke-miterlimit="10"/>
<path d="M786.05 245.495H648.36" stroke="#4B39E1" stroke-width="2" stroke-miterlimit="10"/>
<path d="M786.46 245.591H647.95" stroke="#4B39E1" stroke-width="2" stroke-miterlimit="10"/>
<path d="M786.88 245.687H647.53" stroke="#4B39E1" stroke-width="2" stroke-miterlimit="10"/>
<path d="M787.31 245.783H647.11" stroke="#4B39E1" stroke-width="2" stroke-miterlimit="10"/>
<path d="M787.74 245.89H646.68" stroke="#4B39E1" stroke-width="2" stroke-miterlimit="10"/>
<path d="M788.18 245.986H646.25" stroke="#4B39E1" stroke-width="2" stroke-miterlimit="10"/>
<path d="M788.62 246.082H645.81" stroke="#4B39E1" stroke-width="2" stroke-miterlimit="10"/>
<path d="M789.07 246.188H645.36" stroke="#4B39E1" stroke-width="2" stroke-miterlimit="10"/>
<path d="M789.52 246.295H644.91" stroke="#4B39E1" stroke-width="2" stroke-miterlimit="10"/>
<path d="M789.98 246.401H644.45" stroke="#4B39E1" stroke-width="2" stroke-miterlimit="10"/>
<path d="M790.45 246.508H643.99" stroke="#4B39E1" stroke-width="2" stroke-miterlimit="10"/>
<path d="M790.92 246.614H643.52" stroke="#4B39E1" stroke-width="2" stroke-miterlimit="10"/>
<path d="M791.39 246.721H643.05" stroke="#4B39E1" stroke-width="2" stroke-miterlimit="10"/>
<path d="M791.88 246.827H642.57" stroke="#4B39E1" stroke-width="2" stroke-miterlimit="10"/>
<path d="M792.37 246.945H642.08" stroke="#4B39E1" stroke-width="2" stroke-miterlimit="10"/>
<path d="M792.86 247.062H641.59" stroke="#4B39E1" stroke-width="2" stroke-miterlimit="10"/>
<path d="M793.36 247.168H641.09" stroke="#4B39E1" stroke-width="2" stroke-miterlimit="10"/>
<path d="M793.87 247.286H640.58" stroke="#4B39E1" stroke-width="2" stroke-miterlimit="10"/>
<path d="M794.39 247.403H640.07" stroke="#4B39E1" stroke-width="2" stroke-miterlimit="10"/>
<path d="M794.91 247.531H639.55" stroke="#4B39E1" stroke-width="2" stroke-miterlimit="10"/>
<path d="M795.44 247.648H639.02" stroke="#4B39E1" stroke-width="2" stroke-miterlimit="10"/>
<path d="M795.98 247.776H638.49" stroke="#4B39E1" stroke-width="2" stroke-miterlimit="10"/>
<path d="M796.53 247.893H637.95" stroke="#4B39E1" stroke-width="2" stroke-miterlimit="10"/>
<path d="M797.08 248.021H637.4" stroke="#4B39E1" stroke-width="2" stroke-miterlimit="10"/>
<path d="M797.64 248.149H636.84" stroke="#4B39E1" stroke-width="2" stroke-miterlimit="10"/>
<path d="M798.21 248.277H636.28" stroke="#4B39E1" stroke-width="2" stroke-miterlimit="10"/>
<path d="M798.78 248.415H635.71" stroke="#4B39E1" stroke-width="2" stroke-miterlimit="10"/>
<path d="M799.37 248.543H635.13" stroke="#4B39E1" stroke-width="2" stroke-miterlimit="10"/>
<path d="M799.96 248.682H634.54" stroke="#4B39E1" stroke-width="2" stroke-miterlimit="10"/>
<path d="M800.56 248.82H633.94" stroke="#4B39E1" stroke-width="2" stroke-miterlimit="10"/>
<path d="M801.17 248.958H633.33" stroke="#4B39E1" stroke-width="2" stroke-miterlimit="10"/>
<path d="M801.79 249.097H632.72" stroke="#4B39E1" stroke-width="2" stroke-miterlimit="10"/>
<path d="M802.42 249.246H632.09" stroke="#4B39E1" stroke-width="2" stroke-miterlimit="10"/>
<path d="M803.05 249.385H631.46" stroke="#4B39E1" stroke-width="2" stroke-miterlimit="10"/>
<path d="M803.7 249.534H630.82" stroke="#4B39E1" stroke-width="2" stroke-miterlimit="10"/>
<path d="M804.36 249.683H630.16" stroke="#4B39E1" stroke-width="2" stroke-miterlimit="10"/>
<path d="M805.03 249.843H629.5" stroke="#4B39E1" stroke-width="2" stroke-miterlimit="10"/>
<path d="M805.7 249.992H628.83" stroke="#4B39E1" stroke-width="2" stroke-miterlimit="10"/>
<path d="M806.39 250.152H628.14" stroke="#4B39E1" stroke-width="2" stroke-miterlimit="10"/>
<path d="M807.09 250.312H627.45" stroke="#4B39E1" stroke-width="2" stroke-miterlimit="10"/>
<path d="M807.8 250.472H626.74" stroke="#4B39E1" stroke-width="2" stroke-miterlimit="10"/>
<path d="M808.52 250.642H626.03" stroke="#4B39E1" stroke-width="2" stroke-miterlimit="10"/>
<path d="M809.25 250.813H625.3" stroke="#4B39E1" stroke-width="2" stroke-miterlimit="10"/>
<path d="M810 250.973H624.56" stroke="#4B39E1" stroke-width="2" stroke-miterlimit="10"/>
<path d="M810.75 251.154H623.81" stroke="#4B39E1" stroke-width="2" stroke-miterlimit="10"/>
<path d="M811.52 251.324H623.04" stroke="#4B39E1" stroke-width="2" stroke-miterlimit="10"/>
<path d="M812.3 251.505H622.27" stroke="#4B39E1" stroke-width="2" stroke-miterlimit="10"/>
<path d="M813.1 251.687H621.48" stroke="#4B39E1" stroke-width="2" stroke-miterlimit="10"/>
<path d="M813.9 251.868H620.68" stroke="#4B39E1" stroke-width="2" stroke-miterlimit="10"/>
<path d="M814.73 252.06H619.86" stroke="#4B39E1" stroke-width="2" stroke-miterlimit="10"/>
<path d="M815.56 252.251H619.03" stroke="#4B39E1" stroke-width="2" stroke-miterlimit="10"/>
<path d="M816.41 252.443H618.18" stroke="#4B39E1" stroke-width="2" stroke-miterlimit="10"/>
<path d="M817.28 252.646H617.32" stroke="#4B39E1" stroke-width="2" stroke-miterlimit="10"/>
<path d="M818.16 252.848H616.45" stroke="#4B39E1" stroke-width="2" stroke-miterlimit="10"/>
<path d="M819.05 253.051H615.56" stroke="#4B39E1" stroke-width="2" stroke-miterlimit="10"/>
<path d="M819.96 253.264H614.65" stroke="#4B39E1" stroke-width="2" stroke-miterlimit="10"/>
<path d="M820.89 253.466H613.73" stroke="#4B39E1" stroke-width="2" stroke-miterlimit="10"/>
<path d="M821.83 253.69H612.79" stroke="#4B39E1" stroke-width="2" stroke-miterlimit="10"/>
<path d="M822.8 253.903H611.84" stroke="#4B39E1" stroke-width="2" stroke-miterlimit="10"/>
<path d="M823.78 254.127H610.86" stroke="#4B39E1" stroke-width="2" stroke-miterlimit="10"/>
<path d="M824.77 254.361H609.87" stroke="#4B39E1" stroke-width="2" stroke-miterlimit="10"/>
<path d="M825.79 254.596H608.86" stroke="#4B39E1" stroke-width="2" stroke-miterlimit="10"/>
<path d="M826.83 254.83H607.83" stroke="#4B39E1" stroke-width="2" stroke-miterlimit="10"/>
<path d="M827.88 255.075H606.78" stroke="#4B39E1" stroke-width="2" stroke-miterlimit="10"/>
<path d="M828.96 255.32H605.71" stroke="#4B39E1" stroke-width="2" stroke-miterlimit="10"/>
<path d="M830.06 255.565H604.62" stroke="#4B39E1" stroke-width="2" stroke-miterlimit="10"/>
<path d="M831.18 255.821H603.51" stroke="#4B39E1" stroke-width="2" stroke-miterlimit="10"/>
<path d="M832.32 256.088H602.37" stroke="#4B39E1" stroke-width="2" stroke-miterlimit="10"/>
<path d="M833.49 256.354H601.21" stroke="#4B39E1" stroke-width="2" stroke-miterlimit="10"/>
<path d="M834.67 256.62H600.03" stroke="#4B39E1" stroke-width="2" stroke-miterlimit="10"/>
<path d="M835.89 256.908H598.83" stroke="#4B39E1" stroke-width="2" stroke-miterlimit="10"/>
<path d="M837.13 257.185H597.59" stroke="#4B39E1" stroke-width="2" stroke-miterlimit="10"/>
<path d="M838.39 257.473H596.34" stroke="#4B39E1" stroke-width="2" stroke-miterlimit="10"/>
<path d="M839.68 257.771H595.05" stroke="#4B39E1" stroke-width="2" stroke-miterlimit="10"/>
<path d="M841 258.07H593.74" stroke="#4B39E1" stroke-width="2" stroke-miterlimit="10"/>
<path d="M842.35 258.379H592.4" stroke="#4B39E1" stroke-width="2" stroke-miterlimit="10"/>
<path d="M843.73 258.698H591.03" stroke="#4B39E1" stroke-width="2" stroke-miterlimit="10"/>
<path d="M845.14 259.018H589.63" stroke="#4B39E1" stroke-width="2" stroke-miterlimit="10"/>
<path d="M846.58 259.348H588.2" stroke="#4B39E1" stroke-width="2" stroke-miterlimit="10"/>
<path d="M848.05 259.689H586.74" stroke="#4B39E1" stroke-width="2" stroke-miterlimit="10"/>
<path d="M849.56 260.03H585.24" stroke="#4B39E1" stroke-width="2" stroke-miterlimit="10"/>
<path d="M851.1 260.382H583.71" stroke="#4B39E1" stroke-width="2" stroke-miterlimit="10"/>
<path d="M852.68 260.744H582.14" stroke="#4B39E1" stroke-width="2" stroke-miterlimit="10"/>
<path d="M854.29 261.117H580.53" stroke="#4B39E1" stroke-width="2" stroke-miterlimit="10"/>
<path d="M855.95 261.49H578.89" stroke="#4B39E1" stroke-width="2" stroke-miterlimit="10"/>
<path d="M857.64 261.885H577.2" stroke="#4B39E1" stroke-width="2" stroke-miterlimit="10"/>
<path d="M859.38 262.279H575.48" stroke="#4B39E1" stroke-width="2" stroke-miterlimit="10"/>
<path d="M861.16 262.684H573.71" stroke="#4B39E1" stroke-width="2" stroke-miterlimit="10"/>
<path d="M862.98 263.099H571.89" stroke="#4B39E1" stroke-width="2" stroke-miterlimit="10"/>
<path d="M864.86 263.536H570.03" stroke="#4B39E1" stroke-width="2" stroke-miterlimit="10"/>
<path d="M866.78 263.973H568.12" stroke="#4B39E1" stroke-width="2" stroke-miterlimit="10"/>
<path d="M868.75 264.421H566.17" stroke="#4B39E1" stroke-width="2" stroke-miterlimit="10"/>
<path d="M870.77 264.89H564.15" stroke="#4B39E1" stroke-width="2" stroke-miterlimit="10"/>
<path d="M872.85 265.358H562.09" stroke="#4B39E1" stroke-width="2" stroke-miterlimit="10"/>
<path d="M874.99 265.849H559.96" stroke="#4B39E1" stroke-width="2" stroke-miterlimit="10"/>
<path d="M877.18 266.349H557.78" stroke="#4B39E1" stroke-width="2" stroke-miterlimit="10"/>
<path d="M879.44 266.872H555.54" stroke="#4B39E1" stroke-width="2" stroke-miterlimit="10"/>
<path d="M881.76 267.404H553.23" stroke="#4B39E1" stroke-width="2" stroke-miterlimit="10"/>
<path d="M884.15 267.948H550.86" stroke="#4B39E1" stroke-width="2" stroke-miterlimit="10"/>
<path d="M886.61 268.512H548.42" stroke="#4B39E1" stroke-width="2" stroke-miterlimit="10"/>
<path d="M889.14 269.088H545.9" stroke="#4B39E1" stroke-width="2" stroke-miterlimit="10"/>
<path d="M891.75 269.685H543.31" stroke="#4B39E1" stroke-width="2" stroke-miterlimit="10"/>
<path d="M894.44 270.303H540.63" stroke="#4B39E1" stroke-width="2" stroke-miterlimit="10"/>
<path d="M897.21 270.931H537.88" stroke="#4B39E1" stroke-width="2" stroke-miterlimit="10"/>
<path d="M900.07 271.592H535.03" stroke="#4B39E1" stroke-width="2" stroke-miterlimit="10"/>
<path d="M903.02 272.263H532.1" stroke="#4B39E1" stroke-width="2" stroke-miterlimit="10"/>
<path d="M906.08 272.967H529.06" stroke="#4B39E1" stroke-width="2" stroke-miterlimit="10"/>
<path d="M909.23 273.691H525.93" stroke="#4B39E1" stroke-width="2" stroke-miterlimit="10"/>
<path d="M912.49 274.427H522.69" stroke="#4B39E1" stroke-width="2" stroke-miterlimit="10"/>
<path d="M915.86 275.205H519.34" stroke="#4B39E1" stroke-width="2" stroke-miterlimit="10"/>
<path d="M919.35 276.004H515.87" stroke="#4B39E1" stroke-width="2" stroke-miterlimit="10"/>
<path d="M922.96 276.824H512.28" stroke="#4B39E1" stroke-width="2" stroke-miterlimit="10"/>
<path d="M926.71 277.688H508.56" stroke="#4B39E1" stroke-width="2" stroke-miterlimit="10"/>
<path d="M930.59 278.572H504.69" stroke="#4B39E1" stroke-width="2" stroke-miterlimit="10"/>
<path d="M934.63 279.499H500.69" stroke="#4B39E1" stroke-width="2" stroke-miterlimit="10"/>
<path d="M938.81 280.458H496.53" stroke="#4B39E1" stroke-width="2" stroke-miterlimit="10"/>
<path d="M943.16 281.449H492.2" stroke="#4B39E1" stroke-width="2" stroke-miterlimit="10"/>
<path d="M947.69 282.483H487.7" stroke="#4B39E1" stroke-width="2" stroke-miterlimit="10"/>
<path d="M952.4 283.57H483.02" stroke="#4B39E1" stroke-width="2" stroke-miterlimit="10"/>
<path d="M957.3 284.688H478.15" stroke="#4B39E1" stroke-width="2" stroke-miterlimit="10"/>
<path d="M962.42 285.861H473.06" stroke="#4B39E1" stroke-width="2" stroke-miterlimit="10"/>
<path d="M967.76 287.075H467.76" stroke="#4B39E1" stroke-width="2" stroke-miterlimit="10"/>
<path d="M973.33 288.354H462.22" stroke="#4B39E1" stroke-width="2" stroke-miterlimit="10"/>
<path d="M979.16 289.686H456.42" stroke="#4B39E1" stroke-width="2" stroke-miterlimit="10"/>
<path d="M985.26 291.082H450.36" stroke="#4B39E1" stroke-width="2" stroke-miterlimit="10"/>
<path d="M991.65 292.553H444.01" stroke="#4B39E1" stroke-width="2" stroke-miterlimit="10"/>
<path d="M998.35 294.077H437.35" stroke="#4B39E1" stroke-width="2" stroke-miterlimit="10"/>
<path d="M1005.39 295.696H430.35" stroke="#4B39E1" stroke-width="2" stroke-miterlimit="10"/>
<path d="M1012.79 297.38H423" stroke="#4B39E1" stroke-width="2" stroke-miterlimit="10"/>
<path d="M1020.57 299.17H415.26" stroke="#4B39E1" stroke-width="2" stroke-miterlimit="10"/>
<path d="M1028.78 301.046H407.1" stroke="#4B39E1" stroke-width="2" stroke-miterlimit="10"/>
<path d="M1037.45 303.028H398.49" stroke="#4B39E1" stroke-width="2" stroke-miterlimit="10"/>
<path d="M1046.61 305.127H389.38" stroke="#4B39E1" stroke-width="2" stroke-miterlimit="10"/>
<path d="M1056.31 307.344H379.74" stroke="#4B39E1" stroke-width="2" stroke-miterlimit="10"/>
<path d="M1066.6 309.698H369.52" stroke="#4B39E1" stroke-width="2" stroke-miterlimit="10"/>
<path d="M1077.53 312.203H358.65" stroke="#4B39E1" stroke-width="2" stroke-miterlimit="10"/>
<path d="M1089.17 314.867H347.08" stroke="#4B39E1" stroke-width="2" stroke-miterlimit="10"/>
<path d="M1101.58 317.701H334.75" stroke="#4B39E1" stroke-width="2" stroke-miterlimit="10"/>
<path d="M1114.85 320.738H321.56" stroke="#4B39E1" stroke-width="2" stroke-miterlimit="10"/>
<path d="M1129.07 323.999H307.42" stroke="#4B39E1" stroke-width="2" stroke-miterlimit="10"/>
<path d="M1144.34 327.494H292.24" stroke="#4B39E1" stroke-width="2" stroke-miterlimit="10"/>
<path d="M1160.79 331.256H275.9" stroke="#4B39E1" stroke-width="2" stroke-miterlimit="10"/>
<path d="M1178.55 335.316H258.24" stroke="#4B39E1" stroke-width="2" stroke-miterlimit="10"/>
<path d="M1197.8 339.727H239.11" stroke="#4B39E1" stroke-width="2" stroke-miterlimit="10"/>
<path d="M1218.72 344.512H218.31" stroke="#4B39E1" stroke-width="2" stroke-miterlimit="10"/>
<path d="M1241.55 349.733H195.63" stroke="#4B39E1" stroke-width="2" stroke-miterlimit="10"/>
<path d="M1266.55 355.456H170.78" stroke="#4B39E1" stroke-width="2" stroke-miterlimit="10"/>
<path d="M1294.05 361.753H143.44" stroke="#4B39E1" stroke-width="2" stroke-miterlimit="10"/>
<path d="M1324.45 368.712H113.22" stroke="#4B39E1" stroke-width="2" stroke-miterlimit="10"/>
<path d="M1358.24 376.438H79.6499" stroke="#4B39E1" stroke-width="2" stroke-miterlimit="10"/>
<path d="M1396 385.08H42.1104" stroke="#4B39E1" stroke-width="2" stroke-miterlimit="10"/>
<path d="M1438.49 394.798H-0.120117" stroke="#4B39E1" stroke-width="2" stroke-miterlimit="10"/>
<path d="M1486.65 405.827H-47.98" stroke="#4B39E1" stroke-width="2" stroke-miterlimit="10"/>
<path d="M1541.69 418.423H-102.7" stroke="#4B39E1" stroke-width="2" stroke-miterlimit="10"/>
<path d="M1605.22 432.958H-165.84" stroke="#4B39E1" stroke-width="2" stroke-miterlimit="10"/>
<path d="M1679.36 449.922H-239.53" stroke="#4B39E1" stroke-width="2" stroke-miterlimit="10"/>
<path d="M-246.11 469.977L667.1 242.139" stroke="#4B39E1" stroke-width="2" stroke-miterlimit="10"/>
<path d="M-165.58 469.977L671.28 242.139" stroke="#4B39E1" stroke-width="2" stroke-miterlimit="10"/>
<path d="M-85.0601 469.977L675.45 242.139" stroke="#4B39E1" stroke-width="2" stroke-miterlimit="10"/>
<path d="M-4.54004 469.977L679.62 242.139" stroke="#4B39E1" stroke-width="2" stroke-miterlimit="10"/>
<path d="M75.9902 469.977L683.79 242.139" stroke="#4B39E1" stroke-width="2" stroke-miterlimit="10"/>
<path d="M156.51 469.977L687.96 242.139" stroke="#4B39E1" stroke-width="2" stroke-miterlimit="10"/>
<path d="M237.04 469.977L692.13 242.139" stroke="#4B39E1" stroke-width="2" stroke-miterlimit="10"/>
<path d="M317.56 469.977L696.3 242.139" stroke="#4B39E1" stroke-width="2" stroke-miterlimit="10"/>
<path d="M398.09 469.977L700.48 242.139" stroke="#4B39E1" stroke-width="2" stroke-miterlimit="10"/>
<path d="M478.61 469.977L704.65 242.139" stroke="#4B39E1" stroke-width="2" stroke-miterlimit="10"/>
<path d="M559.13 469.977L708.82 242.139" stroke="#4B39E1" stroke-width="2" stroke-miterlimit="10"/>
<path d="M639.66 469.977L712.99 242.139" stroke="#4B39E1" stroke-width="2" stroke-miterlimit="10"/>
<path d="M720.18 469.977L717.16 242.139" stroke="#4B39E1" stroke-width="2" stroke-miterlimit="10"/>
<path d="M800.71 469.977L721.33 242.139" stroke="#4B39E1" stroke-width="2" stroke-miterlimit="10"/>
<path d="M881.23 469.977L725.5 242.139" stroke="#4B39E1" stroke-width="2" stroke-miterlimit="10"/>
<path d="M961.75 469.977L729.68 242.139" stroke="#4B39E1" stroke-width="2" stroke-miterlimit="10"/>
<path d="M1042.28 469.977L733.85 242.139" stroke="#4B39E1" stroke-width="2" stroke-miterlimit="10"/>
<path d="M1122.8 469.977L738.02 242.139" stroke="#4B39E1" stroke-width="2" stroke-miterlimit="10"/>
<path d="M1203.33 469.977L742.19 242.139" stroke="#4B39E1" stroke-width="2" stroke-miterlimit="10"/>
<path d="M1283.85 469.977L746.36 242.139" stroke="#4B39E1" stroke-width="2" stroke-miterlimit="10"/>
<path d="M1364.38 469.977L750.53 242.139" stroke="#4B39E1" stroke-width="2" stroke-miterlimit="10"/>
<path d="M1444.9 469.977L754.7 242.139" stroke="#4B39E1" stroke-width="2" stroke-miterlimit="10"/>
<path d="M1525.42 469.977L758.87 242.139" stroke="#4B39E1" stroke-width="2" stroke-miterlimit="10"/>
<path d="M1605.95 469.977L763.05 242.139" stroke="#4B39E1" stroke-width="2" stroke-miterlimit="10"/>
<path d="M1686.47 469.977L767.22 242.139" stroke="#4B39E1" stroke-width="2" stroke-miterlimit="10"/>
</g>
<defs>
<linearGradient id="paint0_linear_223_1508" x1="1453.66" y1="1.42798" x2="1453.66" y2="439.618" gradientUnits="userSpaceOnUse">
<stop stop-color="#4B39E1" stop-opacity="0"/>
<stop offset="1" stop-color="#4B39E1"/>
</linearGradient>
<linearGradient id="paint1_linear_223_1508" x1="1365.84" y1="143.314" x2="1365.84" y2="430.496" gradientUnits="userSpaceOnUse">
<stop stop-color="#4B39E1" stop-opacity="0"/>
<stop offset="1" stop-color="#4B39E1"/>
</linearGradient>
<linearGradient id="paint2_linear_223_1508" x1="1422.52" y1="143.037" x2="1422.52" y2="430.219" gradientUnits="userSpaceOnUse">
<stop stop-color="#4B39E1" stop-opacity="0"/>
<stop offset="1" stop-color="#4B39E1"/>
</linearGradient>
<linearGradient id="paint3_linear_223_1508" x1="1378.02" y1="98.377" x2="1378.02" y2="396.812" gradientUnits="userSpaceOnUse">
<stop stop-color="#4B39E1" stop-opacity="0"/>
<stop offset="1" stop-color="#4B39E1"/>
</linearGradient>
<linearGradient id="paint4_linear_223_1508" x1="1456.53" y1="98.1426" x2="1456.53" y2="396.482" gradientUnits="userSpaceOnUse">
<stop stop-color="#4B39E1" stop-opacity="0"/>
<stop offset="1" stop-color="#4B39E1"/>
</linearGradient>
<linearGradient id="paint5_linear_223_1508" x1="-0.389931" y1="1.56641" x2="-0.389931" y2="439.767" gradientUnits="userSpaceOnUse">
<stop stop-color="#4B39E1" stop-opacity="0"/>
<stop offset="1" stop-color="#4B39E1"/>
</linearGradient>
<linearGradient id="paint6_linear_223_1508" x1="87.4301" y1="143.452" x2="87.4301" y2="430.635" gradientUnits="userSpaceOnUse">
<stop stop-color="#4B39E1" stop-opacity="0"/>
<stop offset="1" stop-color="#4B39E1"/>
</linearGradient>
<linearGradient id="paint7_linear_223_1508" x1="30.7503" y1="143.176" x2="30.7503" y2="430.358" gradientUnits="userSpaceOnUse">
<stop stop-color="#4B39E1" stop-opacity="0"/>
<stop offset="1" stop-color="#4B39E1"/>
</linearGradient>
<linearGradient id="paint8_linear_223_1508" x1="75.2502" y1="98.5159" x2="75.2502" y2="396.951" gradientUnits="userSpaceOnUse">
<stop stop-color="#4B39E1" stop-opacity="0"/>
<stop offset="1" stop-color="#4B39E1"/>
</linearGradient>
<linearGradient id="paint9_linear_223_1508" x1="-3.25982" y1="98.2812" x2="-3.25982" y2="396.62" gradientUnits="userSpaceOnUse">
<stop stop-color="#4B39E1" stop-opacity="0"/>
<stop offset="1" stop-color="#4B39E1"/>
</linearGradient>
<linearGradient id="paint10_linear_223_1508" x1="1272.12" y1="222.532" x2="1272.12" y2="349.361" gradientUnits="userSpaceOnUse">
<stop stop-color="#4B39E1" stop-opacity="0"/>
<stop offset="1" stop-color="#4B39E1"/>
</linearGradient>
<linearGradient id="paint11_linear_223_1508" x1="1196.74" y1="222.542" x2="1196.74" y2="349.329" gradientUnits="userSpaceOnUse">
<stop stop-color="#4B39E1" stop-opacity="0"/>
<stop offset="1" stop-color="#4B39E1"/>
</linearGradient>
<linearGradient id="paint12_linear_223_1508" x1="1189.66" y1="101.19" x2="1189.66" y2="330.318" gradientUnits="userSpaceOnUse">
<stop stop-color="#4B39E1" stop-opacity="0"/>
<stop offset="1" stop-color="#4B39E1"/>
</linearGradient>
<linearGradient id="paint13_linear_223_1508" x1="1117.32" y1="101.681" x2="1117.32" y2="329.86" gradientUnits="userSpaceOnUse">
<stop stop-color="#4B39E1" stop-opacity="0"/>
<stop offset="1" stop-color="#4B39E1"/>
</linearGradient>
<linearGradient id="paint14_linear_223_1508" x1="1204.46" y1="151.392" x2="1204.46" y2="220.848" gradientUnits="userSpaceOnUse">
<stop stop-color="#4B39E1" stop-opacity="0"/>
<stop offset="1" stop-color="#4B39E1"/>
</linearGradient>
<linearGradient id="paint15_linear_223_1508" x1="1259.61" y1="151.253" x2="1259.61" y2="220.4" gradientUnits="userSpaceOnUse">
<stop stop-color="#4B39E1" stop-opacity="0"/>
<stop offset="1" stop-color="#4B39E1"/>
</linearGradient>
<linearGradient id="paint16_linear_223_1508" x1="1312.59" y1="283.783" x2="1312.59" y2="366.73" gradientUnits="userSpaceOnUse">
<stop stop-color="#4B39E1" stop-opacity="0"/>
<stop offset="1" stop-color="#4B39E1"/>
</linearGradient>
<linearGradient id="paint17_linear_223_1508" x1="1263.87" y1="279.254" x2="1263.87" y2="366.794" gradientUnits="userSpaceOnUse">
<stop stop-color="#4B39E1" stop-opacity="0"/>
<stop offset="1" stop-color="#4B39E1"/>
</linearGradient>
<linearGradient id="paint18_linear_223_1508" x1="1292.97" y1="279.307" x2="1292.97" y2="281.705" gradientUnits="userSpaceOnUse">
<stop stop-color="#4B39E1" stop-opacity="0"/>
<stop offset="1" stop-color="#4B39E1"/>
</linearGradient>
<linearGradient id="paint19_linear_223_1508" x1="1098.51" y1="260.297" x2="1098.51" y2="324.478" gradientUnits="userSpaceOnUse">
<stop stop-color="#4B39E1" stop-opacity="0"/>
<stop offset="1" stop-color="#4B39E1"/>
</linearGradient>
<linearGradient id="paint20_linear_223_1508" x1="1047.87" y1="255.086" x2="1047.87" y2="324.372" gradientUnits="userSpaceOnUse">
<stop stop-color="#4B39E1" stop-opacity="0"/>
<stop offset="1" stop-color="#4B39E1"/>
</linearGradient>
<linearGradient id="paint21_linear_223_1508" x1="1075.79" y1="255.033" x2="1075.79" y2="258.091" gradientUnits="userSpaceOnUse">
<stop stop-color="#4B39E1" stop-opacity="0"/>
<stop offset="1" stop-color="#4B39E1"/>
</linearGradient>
<linearGradient id="paint22_linear_223_1508" x1="184.55" y1="225.078" x2="184.55" y2="351.896" gradientUnits="userSpaceOnUse">
<stop stop-color="#4B39E1" stop-opacity="0"/>
<stop offset="1" stop-color="#4B39E1"/>
</linearGradient>
<linearGradient id="paint23_linear_223_1508" x1="259.93" y1="225.089" x2="259.93" y2="351.875" gradientUnits="userSpaceOnUse">
<stop stop-color="#4B39E1" stop-opacity="0"/>
<stop offset="1" stop-color="#4B39E1"/>
</linearGradient>
<linearGradient id="paint24_linear_223_1508" x1="267.01" y1="103.727" x2="267.01" y2="332.854" gradientUnits="userSpaceOnUse">
<stop stop-color="#4B39E1" stop-opacity="0"/>
<stop offset="1" stop-color="#4B39E1"/>
</linearGradient>
<linearGradient id="paint25_linear_223_1508" x1="339.35" y1="104.217" x2="339.35" y2="332.406" gradientUnits="userSpaceOnUse">
<stop stop-color="#4B39E1" stop-opacity="0"/>
<stop offset="1" stop-color="#4B39E1"/>
</linearGradient>
<linearGradient id="paint26_linear_223_1508" x1="252.21" y1="153.927" x2="252.21" y2="223.384" gradientUnits="userSpaceOnUse">
<stop stop-color="#4B39E1" stop-opacity="0"/>
<stop offset="1" stop-color="#4B39E1"/>
</linearGradient>
<linearGradient id="paint27_linear_223_1508" x1="197.06" y1="153.789" x2="197.06" y2="222.937" gradientUnits="userSpaceOnUse">
<stop stop-color="#4B39E1" stop-opacity="0"/>
<stop offset="1" stop-color="#4B39E1"/>
</linearGradient>
<linearGradient id="paint28_linear_223_1508" x1="144.08" y1="286.329" x2="144.08" y2="369.276" gradientUnits="userSpaceOnUse">
<stop stop-color="#4B39E1" stop-opacity="0"/>
<stop offset="1" stop-color="#4B39E1"/>
</linearGradient>
<linearGradient id="paint29_linear_223_1508" x1="192.8" y1="281.79" x2="192.8" y2="369.33" gradientUnits="userSpaceOnUse">
<stop stop-color="#4B39E1" stop-opacity="0"/>
<stop offset="1" stop-color="#4B39E1"/>
</linearGradient>
<linearGradient id="paint30_linear_223_1508" x1="163.72" y1="281.844" x2="163.72" y2="284.241" gradientUnits="userSpaceOnUse">
<stop stop-color="#4B39E1" stop-opacity="0"/>
<stop offset="1" stop-color="#4B39E1"/>
</linearGradient>
<linearGradient id="paint31_linear_223_1508" x1="358.16" y1="262.833" x2="358.16" y2="327.015" gradientUnits="userSpaceOnUse">
<stop stop-color="#4B39E1" stop-opacity="0"/>
<stop offset="1" stop-color="#4B39E1"/>
</linearGradient>
<linearGradient id="paint32_linear_223_1508" x1="408.8" y1="257.622" x2="408.8" y2="326.908" gradientUnits="userSpaceOnUse">
<stop stop-color="#4B39E1" stop-opacity="0"/>
<stop offset="1" stop-color="#4B39E1"/>
</linearGradient>
<linearGradient id="paint33_linear_223_1508" x1="380.9" y1="257.569" x2="380.9" y2="260.627" gradientUnits="userSpaceOnUse">
<stop stop-color="#4B39E1" stop-opacity="0"/>
<stop offset="1" stop-color="#4B39E1"/>
</linearGradient>
<clipPath id="clip0_223_1508">
<rect width="1441" height="471" fill="white"/>
</clipPath>
</defs>
</svg>
