<svg width="393" height="579" viewBox="0 0 393 579" fill="none" xmlns="http://www.w3.org/2000/svg">
<g opacity="0.8" clip-path="url(#clip0_309_44)">
<path d="M368.585 384.616V150.095L393.968 124.996V405.497L368.585 384.616Z" fill="url(#paint0_linear_309_44)"/>
<path d="M393.497 126.843V403.741L369.051 383.62V151.025L393.497 126.843ZM394.433 123.136L368.12 149.165V385.598L394.433 407.252V123.136Z" fill="#4B39E1"/>
<path d="M385.986 319.982H359.049V398.881H385.986V319.982Z" fill="url(#paint1_linear_309_44)"/>
<path d="M385.507 321.332V397.519H359.533V321.332H385.507ZM386.471 318.62H358.569V400.23H386.471V318.62Z" fill="#4B39E1"/>
<path d="M339.71 380.031V313.577L358.168 319.773V398.75L339.71 380.031Z" fill="url(#paint2_linear_309_44)"/>
<path d="M340.195 315.11L357.684 320.991V396.825L340.195 379.088V315.11ZM339.231 312.044V380.987L358.648 400.676V318.568L339.231 312.044Z" fill="#4B39E1"/>
<path d="M358.699 317.271L347.417 313.511H362.597L376.464 317.271H358.699Z" fill="url(#paint3_linear_309_44)"/>
<path d="M362.55 314.874L366.397 315.909H358.732L355.603 314.874H362.55ZM362.597 312.162H339.231L358.672 318.633H386.508L362.597 312.162Z" fill="#4B39E1"/>
<path d="M5.43483 127.511H-34.7646V409.165H5.43483V127.511Z" fill="url(#paint4_linear_309_44)"/>
<path d="M4.96925 128.834V407.868H-34.2989V128.834H4.96925ZM5.90521 126.201H-35.2302V410.488H5.90521V126.201Z" fill="#4B39E1"/>
<path d="M6.33374 128.113L31.7116 153.225V387.733L6.33374 408.627V128.113Z" fill="url(#paint5_linear_309_44)"/>
<path d="M6.79924 129.974L31.2458 154.155V386.751L6.79924 406.872V129.974ZM5.86328 126.253V410.369L32.1771 388.716V152.295L5.86328 126.267V126.253Z" fill="#4B39E1"/>
<path d="M41.2479 323.101H14.3101V401.999H41.2479V323.101Z" fill="url(#paint6_linear_309_44)"/>
<path d="M40.7683 324.45V400.637H14.7945V324.45H40.7683ZM41.7276 321.751H13.8306V403.362H41.7276V321.751Z" fill="#4B39E1"/>
<path d="M42.1326 322.904L60.5862 316.695V383.149L42.1326 401.868V322.904Z" fill="url(#paint7_linear_309_44)"/>
<path d="M60.1067 318.227V382.206L42.617 399.942V324.109L60.1067 318.227ZM61.0706 315.175L41.6531 321.699V403.807L61.0706 384.118V315.175Z" fill="#4B39E1"/>
<path d="M23.8464 320.388L37.7507 316.629L52.889 316.642L41.597 320.388H23.8464Z" fill="url(#paint8_linear_309_44)"/>
<path d="M44.6937 317.991L41.5645 319.026H33.8999L37.7462 317.991H44.6937ZM61.0705 315.28H37.7043L13.7932 321.751H41.6297L61.0752 315.28H61.0705Z" fill="#4B39E1"/>
<path d="M683.802 577.743H-291.095L169.693 297.661H220.197L683.802 577.743Z" stroke="#4B39E1" stroke-width="2" stroke-miterlimit="10"/>
<path d="M220.318 297.74H169.576" stroke="#4B39E1" stroke-width="2" stroke-miterlimit="10"/>
<path d="M220.439 297.818H169.455" stroke="#4B39E1" stroke-width="2" stroke-miterlimit="10"/>
<path d="M220.56 297.884H169.334" stroke="#4B39E1" stroke-width="2" stroke-miterlimit="10"/>
<path d="M220.686 297.962H169.208" stroke="#4B39E1" stroke-width="2" stroke-miterlimit="10"/>
<path d="M220.807 298.041H169.087" stroke="#4B39E1" stroke-width="2" stroke-miterlimit="10"/>
<path d="M220.933 298.106H168.962" stroke="#4B39E1" stroke-width="2" stroke-miterlimit="10"/>
<path d="M221.063 298.185H168.836" stroke="#4B39E1" stroke-width="2" stroke-miterlimit="10"/>
<path d="M221.189 298.264H168.706" stroke="#4B39E1" stroke-width="2" stroke-miterlimit="10"/>
<path d="M221.319 298.342H168.58" stroke="#4B39E1" stroke-width="2" stroke-miterlimit="10"/>
<path d="M221.45 298.421H168.449" stroke="#4B39E1" stroke-width="2" stroke-miterlimit="10"/>
<path d="M221.585 298.5H168.314" stroke="#4B39E1" stroke-width="2" stroke-miterlimit="10"/>
<path d="M221.715 298.578H168.184" stroke="#4B39E1" stroke-width="2" stroke-miterlimit="10"/>
<path d="M221.85 298.67H168.049" stroke="#4B39E1" stroke-width="2" stroke-miterlimit="10"/>
<path d="M221.99 298.749H167.914" stroke="#4B39E1" stroke-width="2" stroke-miterlimit="10"/>
<path d="M222.125 298.827H167.779" stroke="#4B39E1" stroke-width="2" stroke-miterlimit="10"/>
<path d="M222.264 298.919H167.639" stroke="#4B39E1" stroke-width="2" stroke-miterlimit="10"/>
<path d="M222.404 298.997H167.5" stroke="#4B39E1" stroke-width="2" stroke-miterlimit="10"/>
<path d="M222.549 299.089H167.36" stroke="#4B39E1" stroke-width="2" stroke-miterlimit="10"/>
<path d="M222.688 299.167H167.216" stroke="#4B39E1" stroke-width="2" stroke-miterlimit="10"/>
<path d="M222.837 299.259H167.071" stroke="#4B39E1" stroke-width="2" stroke-miterlimit="10"/>
<path d="M222.982 299.351H166.927" stroke="#4B39E1" stroke-width="2" stroke-miterlimit="10"/>
<path d="M223.131 299.443H166.778" stroke="#4B39E1" stroke-width="2" stroke-miterlimit="10"/>
<path d="M223.28 299.534H166.629" stroke="#4B39E1" stroke-width="2" stroke-miterlimit="10"/>
<path d="M223.429 299.626H166.48" stroke="#4B39E1" stroke-width="2" stroke-miterlimit="10"/>
<path d="M223.582 299.718H166.326" stroke="#4B39E1" stroke-width="2" stroke-miterlimit="10"/>
<path d="M223.736 299.81H166.177" stroke="#4B39E1" stroke-width="2" stroke-miterlimit="10"/>
<path d="M223.894 299.901H166.019" stroke="#4B39E1" stroke-width="2" stroke-miterlimit="10"/>
<path d="M224.053 299.993H165.865" stroke="#4B39E1" stroke-width="2" stroke-miterlimit="10"/>
<path d="M224.211 300.098H165.702" stroke="#4B39E1" stroke-width="2" stroke-miterlimit="10"/>
<path d="M224.374 300.189H165.544" stroke="#4B39E1" stroke-width="2" stroke-miterlimit="10"/>
<path d="M224.537 300.281H165.381" stroke="#4B39E1" stroke-width="2" stroke-miterlimit="10"/>
<path d="M224.7 300.386H165.218" stroke="#4B39E1" stroke-width="2" stroke-miterlimit="10"/>
<path d="M224.868 300.491H165.055" stroke="#4B39E1" stroke-width="2" stroke-miterlimit="10"/>
<path d="M225.035 300.595H164.887" stroke="#4B39E1" stroke-width="2" stroke-miterlimit="10"/>
<path d="M225.207 300.687H164.715" stroke="#4B39E1" stroke-width="2" stroke-miterlimit="10"/>
<path d="M225.38 300.792H164.543" stroke="#4B39E1" stroke-width="2" stroke-miterlimit="10"/>
<path d="M225.552 300.897H164.37" stroke="#4B39E1" stroke-width="2" stroke-miterlimit="10"/>
<path d="M225.729 301.015H164.193" stroke="#4B39E1" stroke-width="2" stroke-miterlimit="10"/>
<path d="M225.906 301.12H164.017" stroke="#4B39E1" stroke-width="2" stroke-miterlimit="10"/>
<path d="M226.088 301.224H163.84" stroke="#4B39E1" stroke-width="2" stroke-miterlimit="10"/>
<path d="M226.269 301.329H163.658" stroke="#4B39E1" stroke-width="2" stroke-miterlimit="10"/>
<path d="M226.455 301.447H163.472" stroke="#4B39E1" stroke-width="2" stroke-miterlimit="10"/>
<path d="M226.642 301.565H163.29" stroke="#4B39E1" stroke-width="2" stroke-miterlimit="10"/>
<path d="M226.832 301.669H163.099" stroke="#4B39E1" stroke-width="2" stroke-miterlimit="10"/>
<path d="M227.024 301.788H162.908" stroke="#4B39E1" stroke-width="2" stroke-miterlimit="10"/>
<path d="M227.214 301.905H162.717" stroke="#4B39E1" stroke-width="2" stroke-miterlimit="10"/>
<path d="M227.41 302.023H162.522" stroke="#4B39E1" stroke-width="2" stroke-miterlimit="10"/>
<path d="M227.61 302.141H162.326" stroke="#4B39E1" stroke-width="2" stroke-miterlimit="10"/>
<path d="M227.81 302.272H162.126" stroke="#4B39E1" stroke-width="2" stroke-miterlimit="10"/>
<path d="M228.015 302.39H161.926" stroke="#4B39E1" stroke-width="2" stroke-miterlimit="10"/>
<path d="M228.22 302.508H161.721" stroke="#4B39E1" stroke-width="2" stroke-miterlimit="10"/>
<path d="M228.43 302.639H161.511" stroke="#4B39E1" stroke-width="2" stroke-miterlimit="10"/>
<path d="M228.639 302.77H161.302" stroke="#4B39E1" stroke-width="2" stroke-miterlimit="10"/>
<path d="M228.854 302.901H161.088" stroke="#4B39E1" stroke-width="2" stroke-miterlimit="10"/>
<path d="M229.072 303.032H160.873" stroke="#4B39E1" stroke-width="2" stroke-miterlimit="10"/>
<path d="M229.291 303.163H160.655" stroke="#4B39E1" stroke-width="2" stroke-miterlimit="10"/>
<path d="M229.51 303.294H160.436" stroke="#4B39E1" stroke-width="2" stroke-miterlimit="10"/>
<path d="M229.738 303.425H160.212" stroke="#4B39E1" stroke-width="2" stroke-miterlimit="10"/>
<path d="M229.966 303.569H159.984" stroke="#4B39E1" stroke-width="2" stroke-miterlimit="10"/>
<path d="M230.195 303.713H159.756" stroke="#4B39E1" stroke-width="2" stroke-miterlimit="10"/>
<path d="M230.427 303.844H159.523" stroke="#4B39E1" stroke-width="2" stroke-miterlimit="10"/>
<path d="M230.665 303.988H159.286" stroke="#4B39E1" stroke-width="2" stroke-miterlimit="10"/>
<path d="M230.907 304.132H159.048" stroke="#4B39E1" stroke-width="2" stroke-miterlimit="10"/>
<path d="M231.149 304.29H158.806" stroke="#4B39E1" stroke-width="2" stroke-miterlimit="10"/>
<path d="M231.396 304.434H158.559" stroke="#4B39E1" stroke-width="2" stroke-miterlimit="10"/>
<path d="M231.647 304.591H158.312" stroke="#4B39E1" stroke-width="2" stroke-miterlimit="10"/>
<path d="M231.903 304.735H158.061" stroke="#4B39E1" stroke-width="2" stroke-miterlimit="10"/>
<path d="M232.16 304.892H157.805" stroke="#4B39E1" stroke-width="2" stroke-miterlimit="10"/>
<path d="M232.42 305.049H157.544" stroke="#4B39E1" stroke-width="2" stroke-miterlimit="10"/>
<path d="M232.686 305.207H157.283" stroke="#4B39E1" stroke-width="2" stroke-miterlimit="10"/>
<path d="M232.951 305.377H157.018" stroke="#4B39E1" stroke-width="2" stroke-miterlimit="10"/>
<path d="M233.226 305.534H156.748" stroke="#4B39E1" stroke-width="2" stroke-miterlimit="10"/>
<path d="M233.501 305.704H156.473" stroke="#4B39E1" stroke-width="2" stroke-miterlimit="10"/>
<path d="M233.78 305.875H156.194" stroke="#4B39E1" stroke-width="2" stroke-miterlimit="10"/>
<path d="M234.064 306.045H155.91" stroke="#4B39E1" stroke-width="2" stroke-miterlimit="10"/>
<path d="M234.353 306.215H155.625" stroke="#4B39E1" stroke-width="2" stroke-miterlimit="10"/>
<path d="M234.646 306.398H155.332" stroke="#4B39E1" stroke-width="2" stroke-miterlimit="10"/>
<path d="M234.94 306.569H155.039" stroke="#4B39E1" stroke-width="2" stroke-miterlimit="10"/>
<path d="M235.242 306.752H154.741" stroke="#4B39E1" stroke-width="2" stroke-miterlimit="10"/>
<path d="M235.549 306.936H154.433" stroke="#4B39E1" stroke-width="2" stroke-miterlimit="10"/>
<path d="M235.862 307.132H154.126" stroke="#4B39E1" stroke-width="2" stroke-miterlimit="10"/>
<path d="M236.173 307.315H153.814" stroke="#4B39E1" stroke-width="2" stroke-miterlimit="10"/>
<path d="M236.495 307.512H153.493" stroke="#4B39E1" stroke-width="2" stroke-miterlimit="10"/>
<path d="M236.821 307.708H153.172" stroke="#4B39E1" stroke-width="2" stroke-miterlimit="10"/>
<path d="M237.151 307.905H152.841" stroke="#4B39E1" stroke-width="2" stroke-miterlimit="10"/>
<path d="M237.487 308.115H152.51" stroke="#4B39E1" stroke-width="2" stroke-miterlimit="10"/>
<path d="M237.827 308.324H152.17" stroke="#4B39E1" stroke-width="2" stroke-miterlimit="10"/>
<path d="M238.176 308.521H151.826" stroke="#4B39E1" stroke-width="2" stroke-miterlimit="10"/>
<path d="M238.525 308.743H151.477" stroke="#4B39E1" stroke-width="2" stroke-miterlimit="10"/>
<path d="M238.883 308.953H151.118" stroke="#4B39E1" stroke-width="2" stroke-miterlimit="10"/>
<path d="M239.247 309.176H150.76" stroke="#4B39E1" stroke-width="2" stroke-miterlimit="10"/>
<path d="M239.619 309.398H150.392" stroke="#4B39E1" stroke-width="2" stroke-miterlimit="10"/>
<path d="M239.992 309.621H150.019" stroke="#4B39E1" stroke-width="2" stroke-miterlimit="10"/>
<path d="M240.378 309.857H149.637" stroke="#4B39E1" stroke-width="2" stroke-miterlimit="10"/>
<path d="M240.765 310.093H149.251" stroke="#4B39E1" stroke-width="2" stroke-miterlimit="10"/>
<path d="M241.161 310.329H148.855" stroke="#4B39E1" stroke-width="2" stroke-miterlimit="10"/>
<path d="M241.566 310.577H148.455" stroke="#4B39E1" stroke-width="2" stroke-miterlimit="10"/>
<path d="M241.975 310.826H148.049" stroke="#4B39E1" stroke-width="2" stroke-miterlimit="10"/>
<path d="M242.39 311.075H147.635" stroke="#4B39E1" stroke-width="2" stroke-miterlimit="10"/>
<path d="M242.814 311.337H147.211" stroke="#4B39E1" stroke-width="2" stroke-miterlimit="10"/>
<path d="M243.247 311.586H146.783" stroke="#4B39E1" stroke-width="2" stroke-miterlimit="10"/>
<path d="M243.684 311.861H146.345" stroke="#4B39E1" stroke-width="2" stroke-miterlimit="10"/>
<path d="M244.136 312.123H145.903" stroke="#4B39E1" stroke-width="2" stroke-miterlimit="10"/>
<path d="M244.593 312.398H145.447" stroke="#4B39E1" stroke-width="2" stroke-miterlimit="10"/>
<path d="M245.053 312.687H144.985" stroke="#4B39E1" stroke-width="2" stroke-miterlimit="10"/>
<path d="M245.528 312.975H144.515" stroke="#4B39E1" stroke-width="2" stroke-miterlimit="10"/>
<path d="M246.013 313.263H144.036" stroke="#4B39E1" stroke-width="2" stroke-miterlimit="10"/>
<path d="M246.502 313.564H143.547" stroke="#4B39E1" stroke-width="2" stroke-miterlimit="10"/>
<path d="M247.004 313.865H143.048" stroke="#4B39E1" stroke-width="2" stroke-miterlimit="10"/>
<path d="M247.517 314.167H142.541" stroke="#4B39E1" stroke-width="2" stroke-miterlimit="10"/>
<path d="M248.038 314.481H142.024" stroke="#4B39E1" stroke-width="2" stroke-miterlimit="10"/>
<path d="M248.569 314.809H141.493" stroke="#4B39E1" stroke-width="2" stroke-miterlimit="10"/>
<path d="M249.114 315.136H140.953" stroke="#4B39E1" stroke-width="2" stroke-miterlimit="10"/>
<path d="M249.663 315.463H140.404" stroke="#4B39E1" stroke-width="2" stroke-miterlimit="10"/>
<path d="M250.231 315.817H139.845" stroke="#4B39E1" stroke-width="2" stroke-miterlimit="10"/>
<path d="M250.809 316.158H139.267" stroke="#4B39E1" stroke-width="2" stroke-miterlimit="10"/>
<path d="M251.396 316.511H138.685" stroke="#4B39E1" stroke-width="2" stroke-miterlimit="10"/>
<path d="M251.996 316.878H138.084" stroke="#4B39E1" stroke-width="2" stroke-miterlimit="10"/>
<path d="M252.611 317.245H137.475" stroke="#4B39E1" stroke-width="2" stroke-miterlimit="10"/>
<path d="M253.239 317.625H136.851" stroke="#4B39E1" stroke-width="2" stroke-miterlimit="10"/>
<path d="M253.882 318.018H136.213" stroke="#4B39E1" stroke-width="2" stroke-miterlimit="10"/>
<path d="M254.538 318.411H135.561" stroke="#4B39E1" stroke-width="2" stroke-miterlimit="10"/>
<path d="M255.209 318.817H134.895" stroke="#4B39E1" stroke-width="2" stroke-miterlimit="10"/>
<path d="M255.894 319.236H134.215" stroke="#4B39E1" stroke-width="2" stroke-miterlimit="10"/>
<path d="M256.597 319.655H133.517" stroke="#4B39E1" stroke-width="2" stroke-miterlimit="10"/>
<path d="M257.314 320.087H132.804" stroke="#4B39E1" stroke-width="2" stroke-miterlimit="10"/>
<path d="M258.05 320.533H132.073" stroke="#4B39E1" stroke-width="2" stroke-miterlimit="10"/>
<path d="M258.799 320.991H131.323" stroke="#4B39E1" stroke-width="2" stroke-miterlimit="10"/>
<path d="M259.572 321.45H130.56" stroke="#4B39E1" stroke-width="2" stroke-miterlimit="10"/>
<path d="M260.359 321.935H129.773" stroke="#4B39E1" stroke-width="2" stroke-miterlimit="10"/>
<path d="M261.169 322.419H128.972" stroke="#4B39E1" stroke-width="2" stroke-miterlimit="10"/>
<path d="M261.998 322.917H128.147" stroke="#4B39E1" stroke-width="2" stroke-miterlimit="10"/>
<path d="M262.846 323.428H127.3" stroke="#4B39E1" stroke-width="2" stroke-miterlimit="10"/>
<path d="M263.721 323.965H126.434" stroke="#4B39E1" stroke-width="2" stroke-miterlimit="10"/>
<path d="M264.615 324.502H125.545" stroke="#4B39E1" stroke-width="2" stroke-miterlimit="10"/>
<path d="M265.533 325.052H124.636" stroke="#4B39E1" stroke-width="2" stroke-miterlimit="10"/>
<path d="M266.473 325.629H123.696" stroke="#4B39E1" stroke-width="2" stroke-miterlimit="10"/>
<path d="M267.442 326.205H122.737" stroke="#4B39E1" stroke-width="2" stroke-miterlimit="10"/>
<path d="M268.438 326.808H121.745" stroke="#4B39E1" stroke-width="2" stroke-miterlimit="10"/>
<path d="M269.458 327.423H120.73" stroke="#4B39E1" stroke-width="2" stroke-miterlimit="10"/>
<path d="M270.51 328.065H119.687" stroke="#4B39E1" stroke-width="2" stroke-miterlimit="10"/>
<path d="M271.591 328.72H118.611" stroke="#4B39E1" stroke-width="2" stroke-miterlimit="10"/>
<path d="M272.704 329.388H117.508" stroke="#4B39E1" stroke-width="2" stroke-miterlimit="10"/>
<path d="M273.849 330.083H116.371" stroke="#4B39E1" stroke-width="2" stroke-miterlimit="10"/>
<path d="M275.027 330.79H115.198" stroke="#4B39E1" stroke-width="2" stroke-miterlimit="10"/>
<path d="M276.243 331.523H113.992" stroke="#4B39E1" stroke-width="2" stroke-miterlimit="10"/>
<path d="M277.495 332.283H112.744" stroke="#4B39E1" stroke-width="2" stroke-miterlimit="10"/>
<path d="M278.785 333.056H111.463" stroke="#4B39E1" stroke-width="2" stroke-miterlimit="10"/>
<path d="M280.117 333.868H110.136" stroke="#4B39E1" stroke-width="2" stroke-miterlimit="10"/>
<path d="M281.49 334.693H108.772" stroke="#4B39E1" stroke-width="2" stroke-miterlimit="10"/>
<path d="M282.915 335.558H107.356" stroke="#4B39E1" stroke-width="2" stroke-miterlimit="10"/>
<path d="M284.382 336.449H105.899" stroke="#4B39E1" stroke-width="2" stroke-miterlimit="10"/>
<path d="M285.9 337.353H104.39" stroke="#4B39E1" stroke-width="2" stroke-miterlimit="10"/>
<path d="M287.469 338.309H102.83" stroke="#4B39E1" stroke-width="2" stroke-miterlimit="10"/>
<path d="M289.094 339.292H101.214" stroke="#4B39E1" stroke-width="2" stroke-miterlimit="10"/>
<path d="M290.775 340.3H99.5427" stroke="#4B39E1" stroke-width="2" stroke-miterlimit="10"/>
<path d="M292.522 341.361H97.8105" stroke="#4B39E1" stroke-width="2" stroke-miterlimit="10"/>
<path d="M294.328 342.449H96.0085" stroke="#4B39E1" stroke-width="2" stroke-miterlimit="10"/>
<path d="M296.21 343.588H94.146" stroke="#4B39E1" stroke-width="2" stroke-miterlimit="10"/>
<path d="M298.156 344.767H92.2087" stroke="#4B39E1" stroke-width="2" stroke-miterlimit="10"/>
<path d="M300.182 345.985H90.1926" stroke="#4B39E1" stroke-width="2" stroke-miterlimit="10"/>
<path d="M302.291 347.256H88.0972" stroke="#4B39E1" stroke-width="2" stroke-miterlimit="10"/>
<path d="M304.484 348.592H85.918" stroke="#4B39E1" stroke-width="2" stroke-miterlimit="10"/>
<path d="M306.766 349.968H83.6504" stroke="#4B39E1" stroke-width="2" stroke-miterlimit="10"/>
<path d="M309.15 351.409H81.28" stroke="#4B39E1" stroke-width="2" stroke-miterlimit="10"/>
<path d="M311.636 352.902H78.812" stroke="#4B39E1" stroke-width="2" stroke-miterlimit="10"/>
<path d="M314.23 354.474H76.2324" stroke="#4B39E1" stroke-width="2" stroke-miterlimit="10"/>
<path d="M316.945 356.111H73.5317" stroke="#4B39E1" stroke-width="2" stroke-miterlimit="10"/>
<path d="M319.786 357.827H70.71" stroke="#4B39E1" stroke-width="2" stroke-miterlimit="10"/>
<path d="M322.761 359.635H67.7529" stroke="#4B39E1" stroke-width="2" stroke-miterlimit="10"/>
<path d="M325.881 361.508H64.6516" stroke="#4B39E1" stroke-width="2" stroke-miterlimit="10"/>
<path d="M329.159 363.5H61.3921" stroke="#4B39E1" stroke-width="2" stroke-miterlimit="10"/>
<path d="M332.605 365.569H57.9697" stroke="#4B39E1" stroke-width="2" stroke-miterlimit="10"/>
<path d="M336.227 367.77H54.3655" stroke="#4B39E1" stroke-width="2" stroke-miterlimit="10"/>
<path d="M340.051 370.076H50.5659" stroke="#4B39E1" stroke-width="2" stroke-miterlimit="10"/>
<path d="M344.088 372.512H46.5566" stroke="#4B39E1" stroke-width="2" stroke-miterlimit="10"/>
<path d="M348.353 375.093H42.3145" stroke="#4B39E1" stroke-width="2" stroke-miterlimit="10"/>
<path d="M352.87 377.817H37.8257" stroke="#4B39E1" stroke-width="2" stroke-miterlimit="10"/>
<path d="M357.661 380.712H33.0667" stroke="#4B39E1" stroke-width="2" stroke-miterlimit="10"/>
<path d="M362.751 383.791H28.0054" stroke="#4B39E1" stroke-width="2" stroke-miterlimit="10"/>
<path d="M368.171 387.065H22.6177" stroke="#4B39E1" stroke-width="2" stroke-miterlimit="10"/>
<path d="M373.95 390.55H16.8762" stroke="#4B39E1" stroke-width="2" stroke-miterlimit="10"/>
<path d="M380.129 394.283H10.7341" stroke="#4B39E1" stroke-width="2" stroke-miterlimit="10"/>
<path d="M386.75 398.292H4.1499" stroke="#4B39E1" stroke-width="2" stroke-miterlimit="10"/>
<path d="M393.861 402.588H-2.9187" stroke="#4B39E1" stroke-width="2" stroke-miterlimit="10"/>
<path d="M401.521 407.212H-10.5271" stroke="#4B39E1" stroke-width="2" stroke-miterlimit="10"/>
<path d="M409.791 412.204H-18.7507" stroke="#4B39E1" stroke-width="2" stroke-miterlimit="10"/>
<path d="M418.754 417.627H-27.6584" stroke="#4B39E1" stroke-width="2" stroke-miterlimit="10"/>
<path d="M428.496 423.508H-37.344" stroke="#4B39E1" stroke-width="2" stroke-miterlimit="10"/>
<path d="M439.126 429.927H-47.905" stroke="#4B39E1" stroke-width="2" stroke-miterlimit="10"/>
<path d="M450.768 436.962H-59.4763" stroke="#4B39E1" stroke-width="2" stroke-miterlimit="10"/>
<path d="M463.573 444.704H-72.2073" stroke="#4B39E1" stroke-width="2" stroke-miterlimit="10"/>
<path d="M477.729 453.258H-86.2791" stroke="#4B39E1" stroke-width="2" stroke-miterlimit="10"/>
<path d="M493.463 462.755H-101.911" stroke="#4B39E1" stroke-width="2" stroke-miterlimit="10"/>
<path d="M511.046 473.378H-119.391" stroke="#4B39E1" stroke-width="2" stroke-miterlimit="10"/>
<path d="M530.831 485.325H-139.056" stroke="#4B39E1" stroke-width="2" stroke-miterlimit="10"/>
<path d="M553.257 498.883H-161.342" stroke="#4B39E1" stroke-width="2" stroke-miterlimit="10"/>
<path d="M578.886 514.367H-186.822" stroke="#4B39E1" stroke-width="2" stroke-miterlimit="10"/>
<path d="M608.469 532.235H-216.223" stroke="#4B39E1" stroke-width="2" stroke-miterlimit="10"/>
<path d="M642.992 553.089H-250.537" stroke="#4B39E1" stroke-width="2" stroke-miterlimit="10"/>
<path d="M-253.601 577.743L171.635 297.661" stroke="#4B39E1" stroke-width="2" stroke-miterlimit="10"/>
<path d="M-216.102 577.743L173.581 297.661" stroke="#4B39E1" stroke-width="2" stroke-miterlimit="10"/>
<path d="M-178.608 577.743L175.523 297.661" stroke="#4B39E1" stroke-width="2" stroke-miterlimit="10"/>
<path d="M-141.114 577.743L177.465 297.661" stroke="#4B39E1" stroke-width="2" stroke-miterlimit="10"/>
<path d="M-103.615 577.743L179.406 297.661" stroke="#4B39E1" stroke-width="2" stroke-miterlimit="10"/>
<path d="M-66.1211 577.743L181.348 297.661" stroke="#4B39E1" stroke-width="2" stroke-miterlimit="10"/>
<path d="M-28.6226 577.743L183.29 297.661" stroke="#4B39E1" stroke-width="2" stroke-miterlimit="10"/>
<path d="M8.87158 577.743L185.231 297.661" stroke="#4B39E1" stroke-width="2" stroke-miterlimit="10"/>
<path d="M46.3704 577.743L187.178 297.661" stroke="#4B39E1" stroke-width="2" stroke-miterlimit="10"/>
<path d="M83.8645 577.743L189.12 297.661" stroke="#4B39E1" stroke-width="2" stroke-miterlimit="10"/>
<path d="M121.358 577.743L191.061 297.661" stroke="#4B39E1" stroke-width="2" stroke-miterlimit="10"/>
<path d="M158.857 577.743L193.003 297.661" stroke="#4B39E1" stroke-width="2" stroke-miterlimit="10"/>
<path d="M196.351 577.743L194.945 297.661" stroke="#4B39E1" stroke-width="2" stroke-miterlimit="10"/>
<path d="M233.85 577.743L196.887 297.661" stroke="#4B39E1" stroke-width="2" stroke-miterlimit="10"/>
<path d="M271.344 577.743L198.828 297.661" stroke="#4B39E1" stroke-width="2" stroke-miterlimit="10"/>
<path d="M308.838 577.743L200.775 297.661" stroke="#4B39E1" stroke-width="2" stroke-miterlimit="10"/>
<path d="M346.337 577.743L202.717 297.661" stroke="#4B39E1" stroke-width="2" stroke-miterlimit="10"/>
<path d="M383.831 577.743L204.658 297.661" stroke="#4B39E1" stroke-width="2" stroke-miterlimit="10"/>
<path d="M421.329 577.743L206.6 297.661" stroke="#4B39E1" stroke-width="2" stroke-miterlimit="10"/>
<path d="M458.823 577.743L208.542 297.661" stroke="#4B39E1" stroke-width="2" stroke-miterlimit="10"/>
<path d="M496.322 577.743L210.484 297.661" stroke="#4B39E1" stroke-width="2" stroke-miterlimit="10"/>
<path d="M533.816 577.743L212.425 297.661" stroke="#4B39E1" stroke-width="2" stroke-miterlimit="10"/>
<path d="M571.31 577.743L214.367 297.661" stroke="#4B39E1" stroke-width="2" stroke-miterlimit="10"/>
<path d="M608.809 577.743L216.313 297.661" stroke="#4B39E1" stroke-width="2" stroke-miterlimit="10"/>
<path d="M646.303 577.743L218.255 297.661" stroke="#4B39E1" stroke-width="2" stroke-miterlimit="10"/>
</g>
<defs>
<linearGradient id="paint0_linear_309_44" x1="381.279" y1="124.996" x2="381.279" y2="405.497" gradientUnits="userSpaceOnUse">
<stop stop-color="#4B39E1" stop-opacity="0"/>
<stop offset="1" stop-color="#4B39E1"/>
</linearGradient>
<linearGradient id="paint1_linear_309_44" x1="372.52" y1="319.982" x2="372.52" y2="398.881" gradientUnits="userSpaceOnUse">
<stop stop-color="#4B39E1" stop-opacity="0"/>
<stop offset="1" stop-color="#4B39E1"/>
</linearGradient>
<linearGradient id="paint2_linear_309_44" x1="348.939" y1="313.577" x2="348.939" y2="398.75" gradientUnits="userSpaceOnUse">
<stop stop-color="#4B39E1" stop-opacity="0"/>
<stop offset="1" stop-color="#4B39E1"/>
</linearGradient>
<linearGradient id="paint3_linear_309_44" x1="361.94" y1="313.511" x2="361.94" y2="317.271" gradientUnits="userSpaceOnUse">
<stop stop-color="#4B39E1" stop-opacity="0"/>
<stop offset="1" stop-color="#4B39E1"/>
</linearGradient>
<linearGradient id="paint4_linear_309_44" x1="-14.6672" y1="127.511" x2="-14.6672" y2="409.178" gradientUnits="userSpaceOnUse">
<stop stop-color="#4B39E1" stop-opacity="0"/>
<stop offset="1" stop-color="#4B39E1"/>
</linearGradient>
<linearGradient id="paint5_linear_309_44" x1="19.018" y1="128.113" x2="19.018" y2="408.627" gradientUnits="userSpaceOnUse">
<stop stop-color="#4B39E1" stop-opacity="0"/>
<stop offset="1" stop-color="#4B39E1"/>
</linearGradient>
<linearGradient id="paint6_linear_309_44" x1="27.7766" y1="323.101" x2="27.7766" y2="401.999" gradientUnits="userSpaceOnUse">
<stop stop-color="#4B39E1" stop-opacity="0"/>
<stop offset="1" stop-color="#4B39E1"/>
</linearGradient>
<linearGradient id="paint7_linear_309_44" x1="51.3571" y1="316.695" x2="51.3571" y2="401.868" gradientUnits="userSpaceOnUse">
<stop stop-color="#4B39E1" stop-opacity="0"/>
<stop offset="1" stop-color="#4B39E1"/>
</linearGradient>
<linearGradient id="paint8_linear_309_44" x1="38.3654" y1="316.629" x2="38.3654" y2="320.388" gradientUnits="userSpaceOnUse">
<stop stop-color="#4B39E1" stop-opacity="0"/>
<stop offset="1" stop-color="#4B39E1"/>
</linearGradient>
<clipPath id="clip0_309_44">
<rect width="671" height="579" fill="white" transform="translate(-139)"/>
</clipPath>
</defs>
</svg>
