<svg width="1440" height="614" viewBox="0 0 1440 614" fill="none" xmlns="http://www.w3.org/2000/svg">
<path d="M-4 0C477.352 0.126991 958.704 0.28573 1440 0H1440.5L1440.5 0.500977C1440.17 204.829 1440.39 409.156 1440.5 613.485V613.986H1440C958.648 613.986 477.296 614.018 -4 613.986H-4.5V613.485C-4.33333 409.157 -4.38888 204.829 -4.5 0.5V0H-4ZM1439.5 1C958.536 1.28522 477.518 1.12692 -3.5 1C-3.38916 204.995 -3.33396 408.991 -3.5 612.986C477.462 613.018 958.481 612.986 1439.5 612.986C1439.39 408.992 1439.17 204.996 1439.5 1Z" fill="#1C0951"/>
<path d="M-3.83301 554.231C477.407 554.081 958.538 554.171 1439.78 554.231V554.731L1439.78 555.231C958.537 555.171 477.407 555.081 -3.83301 555.231V554.231Z" fill="#1C0951"/>
<path d="M-3.83496 526.522C477.518 525.075 958.317 526.04 1439.83 526.522L1439.83 527.022V527.522C958.314 527.04 477.519 526.075 -3.83105 527.522L-3.83496 526.522Z" fill="#1C0951"/>
<path d="M-3.8916 498.783C115.446 497.97 235.459 492.663 354.776 495.558C405.944 496.794 456.696 500.081 507.474 503.118C558.255 506.156 609.067 508.945 660.375 509.186C790.064 509.804 919.908 507.052 1049.84 504.222C1179.77 501.392 1309.8 498.482 1439.83 498.783L1439.83 499.283L1439.83 499.783C1309.81 499.482 1179.8 502.392 1049.86 505.222C919.932 508.052 790.075 510.804 660.37 510.186C609.032 509.945 558.196 507.154 507.414 504.116C456.628 501.079 405.899 497.794 354.753 496.558C235.45 493.664 115.508 498.969 -3.88574 499.783L-3.8916 498.783Z" fill="#1C0951"/>
<path d="M-3.94971 471.075C109.267 469.93 223.684 462.724 336.896 466.644C387.457 468.393 437.226 472.924 487.044 477.118C536.868 481.313 586.744 485.172 637.546 485.578C708.906 486.151 780.226 483.053 851.531 479.412C922.831 475.772 994.12 471.588 1065.39 469.99C1189.93 467.215 1315.26 470.623 1439.89 471.045L1439.89 471.545L1439.89 472.045C1315.23 471.623 1189.94 468.216 1065.42 470.99C994.161 472.587 922.893 476.77 851.583 480.411C780.276 484.052 708.929 487.151 637.539 486.578C586.694 486.171 536.784 482.31 486.96 478.115C437.132 473.92 387.392 469.391 336.862 467.643C223.673 463.724 109.355 470.929 -3.93994 472.075L-3.94971 471.075Z" fill="#1C0951"/>
<path d="M-3.89453 443.335C106.092 442.1 217.578 433.688 327.568 438.09C377.799 440.096 426.877 445.367 476.027 450.254C525.184 455.143 574.419 459.648 624.996 460.13C699.325 460.839 773.601 457.198 847.856 452.932C922.107 448.666 996.341 443.773 1070.56 441.979C1193.32 439.024 1317.04 442.853 1439.83 443.305L1439.83 443.805L1439.83 444.305C1317 443.853 1193.33 440.024 1070.58 442.979C996.387 444.773 922.176 449.664 847.914 453.931C773.656 458.198 699.351 461.839 624.986 461.13C574.36 460.648 525.086 456.138 475.929 451.25C426.765 446.361 377.722 441.094 327.528 439.089C217.562 434.688 106.2 443.099 -3.88281 444.335L-3.89453 443.335Z" fill="#1C0951"/>
<path d="M-4.00586 415.627C109.028 414.392 223.3 404.954 336.399 409.568C386.075 411.589 434.528 416.844 483.061 421.701C531.599 426.559 580.223 431.019 630.271 431.456C764.734 432.662 899.573 428.427 1034.58 424.025C1169.59 419.623 1304.77 415.054 1439.89 415.597L1439.89 416.597C1304.78 416.054 1169.63 420.622 1034.62 425.024C899.608 429.426 764.749 433.663 630.263 432.456C580.164 432.019 531.501 427.555 482.961 422.697C434.415 417.838 385.997 412.586 336.358 410.567C223.28 405.954 109.15 415.39 -3.99414 416.627L-4.00586 415.627Z" fill="#1C0951"/>
<path d="M-3.95264 387.919C119.183 386.08 243.74 374.231 366.948 379.176C414.707 381.091 461.285 386.044 507.937 390.68C554.594 395.315 601.33 399.632 649.436 400.28C912.006 403.808 1177.05 389.155 1439.94 387.888L1439.94 388.388L1439.95 388.888C1177.16 390.155 911.974 404.808 649.423 401.28C601.27 400.632 554.495 396.31 507.837 391.675C461.174 387.038 414.63 382.088 366.908 380.175C243.719 375.23 119.324 387.079 -3.93701 388.919L-3.95264 387.919Z" fill="#1C0951"/>
<path d="M-3.84277 360.181C132.562 357.409 271.068 342.482 407.607 347.849C452.755 349.629 496.846 354.16 540.993 358.505C585.145 362.851 629.356 367.01 674.771 368.05L686.796 368.31C939.262 373.551 1187.75 364.544 1439.83 360.21L1439.83 360.71L1439.84 361.21C1183.79 365.612 931.378 374.839 674.748 369.05C629.291 368.01 585.046 363.847 540.896 359.501C496.74 355.155 452.681 350.626 407.568 348.848C271.049 343.482 132.719 358.405 -3.82324 361.18L-3.84277 360.181Z" fill="#1C0951"/>
<path d="M221.332 320.97C296.626 316.756 371.95 313.732 446.599 316.643C489.163 318.302 530.906 322.397 572.687 326.441C614.472 330.485 656.297 334.478 699.048 335.94C744.686 337.493 790.184 340.297 835.68 343.022C881.179 345.747 926.676 348.392 972.325 349.628C1127.51 353.819 1284.79 336.755 1439.76 332.472L1439.78 332.972L1439.79 333.472C1284.94 337.751 1127.5 354.818 972.297 350.627C926.63 349.391 881.118 346.745 835.621 344.02C790.121 341.295 744.636 338.491 699.014 336.939C656.227 335.476 614.372 331.48 572.59 327.436C530.804 323.391 489.091 319.299 446.561 317.642C371.961 314.733 296.675 317.755 221.387 321.968C146.107 326.181 70.814 331.587 -3.76514 333.442L-3.79053 332.442C70.7681 330.588 146.03 325.184 221.332 320.97Z" fill="#1C0951"/>
<path d="M234.112 291.822C313.718 287.073 393.363 283.626 472.207 286.733C513.076 288.346 553.331 292.148 593.606 295.965C633.885 299.783 674.184 303.618 715.161 305.306C755.283 306.965 794.236 311.112 833.102 315.356C871.973 319.6 910.756 323.94 950.564 325.99C1030.32 330.088 1112.74 326.058 1195.16 320.364C1277.58 314.67 1360.01 307.311 1439.76 304.763L1439.78 305.263L1439.79 305.763C1360.07 308.31 1277.68 315.665 1195.23 321.361C1112.8 327.056 1030.33 331.091 950.512 326.989C910.67 324.937 871.856 320.593 832.993 316.35C794.124 312.106 755.204 307.963 715.12 306.305C674.112 304.616 633.787 300.778 593.512 296.96C553.233 293.142 513.005 289.345 472.167 287.733C393.375 284.628 313.771 288.071 234.171 292.82C154.58 297.568 74.9813 303.622 -3.76416 305.733L-3.7915 304.733C74.9322 302.622 154.498 296.571 234.112 291.822Z" fill="#1C0951"/>
<path d="M234.437 263.861C314.119 258.965 393.833 255.375 472.817 258.542C513.686 260.186 553.901 264.054 594.141 267.94C634.386 271.826 674.656 275.729 715.66 277.447C755.863 279.136 795.175 283.05 834.423 287.026C873.675 291.002 912.863 295.041 952.839 296.985C1032.21 300.827 1114.24 297.188 1196.27 291.919C1278.29 286.651 1360.32 279.753 1439.65 277.084L1439.68 278.084C1360.38 280.752 1278.38 287.648 1196.34 292.917C1114.3 298.186 1032.22 301.828 952.791 297.983C912.783 296.037 873.569 291.996 834.323 288.02C795.072 284.044 755.788 280.133 715.618 278.446C674.582 276.726 634.285 272.82 594.045 268.935C553.801 265.049 513.614 261.184 472.777 259.541C393.846 256.377 314.174 259.963 234.499 264.859C154.83 269.754 75.148 275.958 -3.76514 278.024L-3.79053 277.024C75.099 274.959 154.747 268.757 234.437 263.861Z" fill="#1C0951"/>
<path d="M223.68 235.738C299.76 230.669 375.893 226.913 451.434 230.08L455.434 230.257C496.74 232.161 537.047 236.592 577.414 240.907C619.087 245.362 660.826 249.694 703.824 251.005L715.377 251.351C957.955 258.435 1196.84 254.125 1439.66 249.316L1439.68 250.316C1193 255.201 950.371 259.572 703.793 252.004C660.753 250.692 618.979 246.356 577.308 241.901C535.632 237.446 494.059 232.872 451.392 231.079C375.907 227.914 299.819 231.667 223.747 236.736C147.682 241.805 71.623 248.19 -3.76416 250.286L-3.7915 249.286C71.5698 247.191 147.593 240.808 223.68 235.738Z" fill="#1C0951"/>
<path d="M207.339 207.464C277.913 202.191 348.563 198.254 418.941 201.376L423.201 201.575C467.169 203.732 509.661 209.143 552.251 214.232C596.221 219.485 640.301 224.396 686.263 225.044C745.373 225.888 804.389 223.349 863.391 220.319C922.387 217.289 981.374 213.768 1040.4 212.653C1173.6 210.15 1306.8 219.799 1439.84 221.577L1439.83 222.077L1439.83 222.577C1306.69 220.798 1173.61 211.15 1040.42 213.653C981.413 214.768 922.45 218.287 863.441 221.318C804.438 224.348 745.394 226.889 686.249 226.044C640.229 225.396 596.103 220.478 552.133 215.224C508.156 209.969 464.338 204.379 418.897 202.375C348.581 199.256 277.98 203.189 207.414 208.461C136.857 213.733 66.3222 220.346 -3.81738 222.577L-3.84863 221.577C66.2623 219.347 136.757 212.738 207.339 207.464Z" fill="#1C0951"/>
<path d="M1094.65 166.975C1153.99 164.35 1211.18 169.381 1268.1 175.906C1325.04 182.432 1381.7 190.448 1440.03 193.809L1440 194.309L1439.97 194.808C1381.6 191.445 1324.89 183.422 1267.99 176.9C1211.08 170.377 1153.95 165.353 1094.7 167.974C1023.4 171.139 952.625 179.262 881.713 186.552C810.809 193.841 739.773 200.297 667.981 200.116C618.984 199.995 572.326 194.481 525.875 188.443C479.417 182.404 433.172 175.842 384.958 173.612C319.921 170.598 255.085 174.72 190.31 180.188C125.545 185.655 60.827 192.471 -3.92627 194.838L-3.96338 193.839C60.7583 191.473 125.433 184.661 190.226 179.191C255.009 173.722 319.899 169.596 385.003 172.613C433.27 174.845 479.564 181.414 526.004 187.451C572.453 193.488 619.055 198.995 667.983 199.116C739.718 199.297 810.711 192.846 881.612 185.557C952.506 178.269 1023.32 170.142 1094.65 166.975Z" fill="#1C0951"/>
<path d="M1136.14 125.548C1195.78 122.122 1243.68 131.58 1290.69 142.222C1337.71 152.865 1383.83 164.685 1440.01 166.04L1439.99 167.039C1383.69 165.681 1337.46 153.833 1290.47 143.197C1243.48 132.559 1195.7 123.128 1136.2 126.546C1055.49 131.173 975.748 142.884 895.774 153.494C815.809 164.104 735.616 173.612 654.042 173.824C602.93 173.944 554.424 167.933 506.14 161.299C457.848 154.665 409.786 147.409 359.518 145.029C298.316 142.136 237.87 146.438 177.511 152.072C117.162 157.705 56.8861 164.672 -3.92529 167.1L-3.96436 166.101C56.8116 163.674 117.04 156.711 177.418 151.075C237.787 145.441 298.29 141.134 359.565 144.031C409.889 146.414 458.003 153.676 506.276 160.308C554.556 166.941 603.003 172.944 654.039 172.824C735.543 172.613 815.681 163.111 895.643 152.502C975.596 141.894 1055.38 130.178 1136.14 125.548Z" fill="#1C0951"/>
<path d="M1148.97 93.7385C1209.21 90.2059 1254.28 101.282 1298.12 113.275C1341.96 125.267 1384.53 138.165 1439.89 138.361L1439.89 138.861L1439.89 139.361C1384.38 139.164 1341.67 126.224 1297.85 114.238C1254.04 102.253 1209.1 91.2138 1149.03 94.7365C1065.35 99.6496 982.919 112.558 900.229 124.277C817.55 135.994 734.62 146.522 649.987 146.657C598.321 146.748 549.202 140.585 500.314 133.805C452.946 127.235 405.801 120.087 356.72 117.469L351.964 117.23C291.874 114.397 232.747 118.721 173.722 124.362C114.706 130.003 55.7771 136.963 -3.86816 139.391L-3.90918 138.392C55.7001 135.965 114.582 129.011 173.627 123.367C232.662 117.725 291.846 113.395 352.011 116.231C402.862 118.629 451.575 126.036 500.451 132.815C549.336 139.595 598.394 145.748 649.985 145.657L653.948 145.644C737.132 145.193 818.705 134.82 900.09 123.286C982.757 111.571 1065.24 98.6546 1148.97 93.7385Z" fill="#1C0951"/>
<path d="M1133.25 72.1814C1192.45 68.9515 1241.11 78.0996 1288.97 88.281C1336.85 98.4637 1383.91 109.674 1440.01 110.623L1440 111.123L1439.99 111.623C1383.78 110.672 1336.61 99.4351 1288.76 89.2585C1240.91 79.0806 1192.37 69.9571 1133.31 73.1794C1053.93 77.5199 975.55 88.5449 896.959 98.5525C818.376 108.559 739.587 117.547 659.431 117.803C607.797 117.969 557.96 112.69 508.295 106.855C458.622 101.02 409.127 94.6315 358.133 92.5671C297.343 90.1111 237.087 93.7569 176.901 98.5808C116.724 103.404 56.6046 109.405 -3.87012 111.652L-3.90723 110.653C56.5389 108.407 116.618 102.409 176.821 97.5837C236.075 92.8346 295.436 89.2234 355.321 91.4568L358.174 91.5671L362.954 91.7741C412.312 94.0333 460.308 100.211 508.412 105.862C558.075 111.696 607.858 116.969 659.427 116.803C739.517 116.547 818.253 107.566 896.833 97.5603C975.405 87.5552 1053.83 76.5243 1133.25 72.1814Z" fill="#1C0951"/>
<path d="M1108.77 55.1874C1165.9 53.0202 1220.02 58.321 1273.84 64.9589C1328.53 71.7033 1382.89 79.8257 1439.86 82.9149L1439.83 83.414L1439.81 83.913C1382.8 80.8213 1328.37 72.6924 1273.72 65.952C1219.06 59.2104 1164.14 53.8554 1106.08 56.2958C1033.98 59.3403 962.718 67.1995 891.329 74.3837C819.946 81.5672 748.44 88.0744 675.872 88.4061C624.164 88.6475 573.362 84.8317 522.649 80.5917C473.515 76.4837 424.468 71.9786 374.729 70.372L369.914 70.2255C307.42 68.4472 245.158 71.0989 182.923 74.5849C120.694 78.0705 58.4833 82.3912 -3.87598 83.9442L-3.90137 82.9442C58.4374 81.3917 120.62 77.0734 182.867 73.5868C245.108 70.1005 307.405 67.446 369.942 69.2255C421.366 70.6883 472.026 75.3562 522.732 79.5956C573.444 83.8355 624.207 87.6482 675.867 87.4071C748.383 87.0756 819.848 80.5719 891.229 73.3886C962.604 66.2059 1033.9 58.3428 1106.04 55.2968L1108.77 55.1874Z" fill="#1C0951"/>
<path d="M1075.67 39.8285C1136.96 38.3355 1197.51 41.4882 1257.98 45.3627C1318.45 49.2376 1378.84 53.834 1439.84 55.2357L1439.83 55.7357L1439.82 56.2357C1378.79 54.8334 1318.37 50.2336 1257.91 46.3598C1199.34 42.6066 1140.72 39.5336 1081.43 40.7016L1075.69 40.8285C1011.94 42.3659 948.644 46.7597 885.291 50.8266C821.942 54.8931 758.538 58.6326 694.59 58.8588H694.589C642.474 59.0397 590.682 56.8603 538.928 54.4369C487.17 52.0133 435.454 49.3461 383.474 48.5473C254.22 46.5573 125.415 54.788 -3.82715 56.2357L-3.83887 55.2357C125.314 53.789 254.236 45.5573 383.488 47.5473C435.488 48.3464 487.224 51.0147 538.975 53.4379C590.728 55.8613 642.499 58.0396 694.586 57.8588C758.501 57.6327 821.879 53.8951 885.228 49.8285C948.572 45.7622 1011.89 41.3665 1075.67 39.8285Z" fill="#1C0951"/>
<path d="M-3.83398 27.5264C477.628 27.0139 958.538 26.5013 1439.72 27.5264L1439.72 28.5264C958.538 27.5013 477.63 28.0139 -3.83203 28.5264L-3.83398 27.5264Z" fill="#1C0951"/>
<path d="M1371.46 0.299561C1378.84 194.457 1373.96 387.711 1371.51 582.446L1371.01 582.439L1370.51 582.433C1372.96 387.68 1377.84 194.461 1370.46 0.33667L1371.46 0.299561Z" fill="#1C0951"/>
<path d="M1302.79 0.220459C1307.84 25.5565 1319.8 50.2361 1329 75.1453C1338.19 100.009 1344.6 125.048 1338.34 150.888C1332.18 176.324 1316.32 200.496 1301.75 224.669C1287.37 248.507 1274.25 272.352 1272.6 297.574L1272.53 298.776C1271.35 321.742 1281.1 343.847 1291.78 366.05C1302.45 388.206 1314.04 410.467 1316.3 433.596C1318.69 458.217 1316.07 483.187 1312.49 508.117C1308.9 533.066 1304.36 557.954 1302.86 582.5L1301.86 582.439C1303.36 557.839 1307.92 532.873 1311.5 507.975C1315.08 483.059 1317.69 458.189 1315.3 433.694C1313.06 410.783 1301.58 388.708 1290.88 366.483C1280.21 344.304 1270.33 321.981 1271.53 298.725L1271.6 297.51C1273.27 272.012 1286.53 247.972 1300.89 224.152C1315.5 199.91 1331.25 175.901 1337.37 150.653C1343.55 125.116 1337.24 100.316 1328.07 75.4919C1318.91 50.7126 1306.88 25.8537 1301.81 0.415771L1302.79 0.220459Z" fill="#1C0951"/>
<path d="M1234.11 0.057373C1239.51 12.4616 1247.46 24.0887 1256.04 35.3826C1264.6 46.6527 1273.83 57.6381 1281.71 68.6541C1297.25 90.3674 1307.78 112.522 1298.24 138.325L1297.77 139.556C1292.09 154.002 1282.09 167.817 1270.27 181.332C1258.45 194.845 1244.76 208.098 1231.7 221.391C1218.62 234.696 1206.16 248.047 1196.73 261.797C1187.3 275.545 1180.93 289.657 1179.99 304.48C1179.27 316.116 1183.19 327.041 1189.67 337.633C1196.15 348.229 1205.17 358.456 1214.6 368.693C1224.01 378.917 1233.84 389.155 1241.86 399.732C1249.88 410.312 1256.14 421.276 1258.42 432.977L1258.63 434.105C1262.93 457.814 1258.34 482.873 1251.93 507.857C1245.41 533.278 1237.03 558.588 1234.09 582.501L1233.59 582.439L1233.1 582.379C1236.05 558.381 1244.47 532.932 1250.96 507.609C1257.47 482.246 1262.05 456.975 1257.43 433.168C1255.21 421.683 1249.05 410.863 1241.06 400.337C1233.08 389.808 1223.3 379.619 1213.86 369.371C1204.44 359.136 1195.36 348.845 1188.82 338.155C1182.27 327.46 1178.25 316.33 1179 304.418L1179.04 303.712C1180.15 288.9 1186.57 274.844 1195.9 261.231C1205.39 247.403 1217.9 233.998 1230.98 220.69C1244.07 207.372 1257.72 194.158 1269.51 180.674C1281.31 167.191 1291.22 153.478 1296.84 139.19C1306.99 113.361 1296.64 91.2358 1280.9 69.2361C1273.02 58.2232 1263.86 47.3243 1255.24 35.988C1246.65 24.6756 1238.65 12.9729 1233.19 0.457764L1234.11 0.057373Z" fill="#1C0951"/>
<path d="M1165.48 0.118164C1168.7 14.412 1177.75 25.6545 1189.1 35.4805C1200.47 45.3173 1214.06 53.673 1226.34 62.2598C1238.59 70.8217 1249.53 79.6154 1255.42 90.2803C1261.33 100.996 1262.1 113.541 1254.15 129.496C1246.27 145.293 1232.24 160.308 1215.61 174.967C1198.99 189.627 1179.72 203.977 1161.38 218.415C1143.01 232.864 1125.56 247.405 1112.5 262.48C1099.43 277.558 1090.81 293.117 1090.01 309.599C1089.42 321.746 1095.04 332.487 1104.1 342.546C1113.16 352.609 1125.62 361.933 1138.61 371.241C1151.59 380.536 1165.1 389.816 1176.19 399.76C1187.27 409.702 1196 420.364 1199.36 432.456C1205.82 455.685 1199.28 481.719 1190.19 507.639C1185.64 520.587 1180.42 533.603 1175.87 546.184C1171.31 558.794 1167.38 571.03 1165.38 582.556L1164.39 582.384C1166.41 570.769 1170.36 558.466 1174.93 545.843C1179.51 533.19 1184.69 520.278 1189.24 507.308C1198.34 481.391 1204.77 455.625 1198.4 432.724C1195.12 420.907 1186.56 410.402 1175.52 400.504C1164.48 390.607 1151.03 381.369 1138.03 372.054C1125.04 362.751 1112.5 353.37 1103.35 343.216C1094.2 333.057 1088.41 322.067 1089.01 309.551C1089.82 292.746 1098.61 276.978 1111.74 261.826C1124.87 246.672 1142.39 232.079 1160.76 217.629C1179.14 203.167 1198.36 188.852 1214.95 174.217C1231.55 159.581 1245.47 144.67 1253.25 129.05C1261.08 113.347 1260.27 101.153 1254.54 90.7637C1248.78 80.323 1238.02 71.6438 1225.77 63.0801C1213.55 54.5411 1199.87 46.1181 1188.45 36.2363C1177.02 26.3438 1167.79 14.9274 1164.51 0.336914L1165.48 0.118164Z" fill="#1C0951"/>
<path d="M1096.66 0.141357C1100.25 15.08 1110.72 25.9509 1123.93 34.9353C1137.16 43.9279 1153.05 50.9713 1167.41 58.3201C1181.73 65.6452 1194.56 73.2856 1201.45 83.4617C1204.91 88.5665 1206.88 94.31 1206.8 100.958C1206.72 107.598 1204.59 115.106 1199.93 123.752C1190.99 140.308 1174.66 156.009 1155.21 171.331C1135.76 186.656 1113.14 201.65 1091.6 216.761C1070.04 231.884 1049.57 247.126 1034.36 262.977C1019.14 278.833 1009.26 295.233 1008.75 312.665C1008.38 325.256 1015.06 335.924 1025.66 345.645C1036.26 355.37 1050.72 364.08 1065.76 372.76C1080.78 381.427 1096.38 390.061 1109.19 399.609C1122 409.154 1132.1 419.669 1136.04 432.137L1136.36 433.212C1143.02 455.807 1135.38 481.712 1125.01 507.486C1119.75 520.564 1113.73 533.73 1108.51 546.36C1103.28 559.027 1098.82 571.234 1096.61 582.565L1095.63 582.374C1097.86 570.941 1102.35 558.658 1107.59 545.978C1112.84 533.262 1118.81 520.224 1124.08 507.113C1134.46 481.327 1141.95 455.722 1135.4 433.495L1135.08 432.439C1131.24 420.275 1121.35 409.917 1108.6 400.411C1095.84 390.907 1080.31 382.31 1065.26 373.626C1050.23 364.953 1035.68 356.192 1024.98 346.383C1014.28 336.57 1007.37 325.642 1007.75 312.635C1008.27 294.836 1018.36 278.209 1033.64 262.285C1048.92 246.356 1069.47 231.066 1091.02 215.943C1112.59 200.81 1135.17 185.847 1154.59 170.546C1173.71 155.48 1189.71 140.132 1198.63 124.044L1199.05 123.276C1203.66 114.728 1205.72 107.379 1205.8 100.946C1205.88 94.5206 1203.98 88.9745 1200.63 84.0232C1193.89 74.087 1181.29 66.5463 1166.96 59.2107C1152.66 51.8987 1136.67 44.8008 1123.37 35.7615C1110.06 26.7139 1099.36 15.661 1095.69 0.373779L1096.66 0.141357Z" fill="#1C0951"/>
<path d="M1028.01 0.0986328C1031.86 14.5199 1041.62 25.5659 1053.66 35.043C1065.71 44.5303 1079.95 52.386 1092.74 60.4951C1105.49 68.5792 1116.81 76.9209 1122.8 87.3428C1128.82 97.8225 1129.43 110.329 1120.95 126.609C1112.54 142.762 1097.53 158.132 1079.75 173.151C1061.97 188.173 1041.36 202.89 1021.74 217.705C1002.1 232.531 983.444 247.459 969.509 262.935C955.571 278.413 946.407 294.382 945.651 311.286C945.104 323.487 950.963 334.2 960.384 344.188C969.808 354.179 982.741 363.385 996.229 372.568C1009.7 381.739 1023.72 390.888 1035.24 400.736C1046.76 410.583 1055.85 421.184 1059.39 433.294C1066.04 456.068 1060.16 482.092 1051.66 508.014C1047.41 520.974 1042.49 533.969 1038.13 546.513C1033.78 559.074 1029.98 571.209 1027.96 582.527L1026.98 582.352C1029.01 570.952 1032.83 558.755 1037.19 546.185C1041.56 533.597 1046.46 520.66 1050.71 507.702C1059.21 481.787 1064.99 456.027 1058.43 433.575C1054.97 421.746 1046.06 411.302 1034.59 401.497C1023.12 391.694 1009.16 382.586 995.665 373.396C982.186 364.217 969.166 354.955 959.656 344.874C950.143 334.789 944.088 323.824 944.652 311.241C945.423 293.999 954.763 277.816 968.766 262.266C982.771 246.712 1001.49 231.734 1021.13 216.907C1040.79 202.069 1061.35 187.385 1079.11 172.388C1096.86 157.389 1111.75 142.121 1120.06 126.147C1128.42 110.106 1127.75 97.9682 1121.93 87.8408C1116.08 77.6558 1104.96 69.4278 1092.2 61.3398C1079.48 53.2769 1065.14 45.3573 1053.04 35.8281C1040.92 26.2886 1030.97 15.0757 1027.04 0.356445L1028.01 0.0986328Z" fill="#1C0951"/>
<path d="M959.215 0.0224609C964.678 12.1838 972.366 23.5859 980.519 34.6592C988.659 45.7156 997.284 56.473 1004.55 67.2715C1018.88 88.5492 1028.1 110.219 1018.3 135.378L1017.82 136.579C1011.68 151.481 1001.21 165.756 988.902 179.732C976.597 193.707 962.422 207.421 948.867 221.177C935.302 234.943 922.351 248.756 912.445 262.966C902.54 277.175 895.703 291.746 894.325 307.026C893.295 318.464 896.462 329.449 901.972 340.227C907.484 351.009 915.325 361.554 923.61 372.111C931.886 382.655 940.61 393.219 947.833 403.989C955.058 414.763 960.813 425.788 963.137 437.285C967.872 460.691 967.368 485.266 965.443 509.834C963.517 534.434 960.175 558.962 959.203 582.43L958.203 582.389C959.175 558.911 962.527 534.264 964.446 509.756C966.368 485.216 966.864 460.751 962.156 437.483C959.87 426.171 954.197 415.272 947.003 404.546C939.807 393.816 931.121 383.301 922.823 372.729C914.536 362.169 906.641 351.558 901.081 340.682C895.519 329.801 892.276 318.624 893.329 306.937C894.729 291.418 901.666 276.679 911.625 262.394C921.583 248.109 934.587 234.244 948.155 220.475C961.734 206.695 975.872 193.018 988.152 179.071C1000.43 165.126 1010.82 150.95 1016.9 136.198L1017.37 135.02C1026.98 110.33 1018 89.0311 1003.72 67.8301C996.469 57.0519 987.889 46.3583 979.713 35.2529C971.549 24.1645 963.81 12.6932 958.303 0.432617L959.215 0.0224609Z" fill="#1C0951"/>
<path d="M890.327 0.243164C892.575 25.0503 898.645 49.9169 902.82 74.8965C906.988 99.8422 909.251 124.838 903.815 149.731C898.134 175.595 885.493 200.622 873.603 225.628C861.7 250.662 850.544 275.684 847.722 301.64C842.62 348.701 849.301 395.584 859.247 442.364C869.186 489.109 882.406 535.828 890.322 582.386L889.336 582.554C881.422 536.006 868.23 489.423 858.269 442.572C848.315 395.757 841.609 348.751 846.728 301.531L846.867 300.307C849.922 274.6 860.987 249.831 872.699 225.198C884.611 200.147 897.187 175.242 902.837 149.518C908.232 124.813 905.996 99.9698 901.833 75.0615C897.676 50.1869 891.583 25.184 889.331 0.333008L890.327 0.243164Z" fill="#1C0951"/>
<path d="M821.387 0.443115C816.164 27.4683 808.125 54.422 801.685 81.3289C795.339 107.842 790.53 134.36 791.411 161.057L791.458 162.329L791.545 164.411C792.513 185.924 795.529 207.582 797.919 229.289C800.308 250.982 802.069 272.707 800.506 294.292L800.344 296.38C798.253 321.841 786.306 347.135 775.05 372.301C763.774 397.511 753.19 422.595 753.632 447.778C754.018 470.471 766.626 492.92 781.357 515.332C796.054 537.693 812.868 560.018 821.419 582.321L820.951 582.5L820.485 582.679C811.984 560.51 795.276 538.332 780.521 515.882C765.799 493.482 753.024 470.81 752.632 447.795C752.186 422.355 762.875 397.072 774.137 371.892C785.419 346.668 797.274 321.55 799.348 296.298L799.509 294.219C801.065 272.73 799.312 251.08 796.925 229.398C794.462 207.032 791.32 184.613 790.458 162.369L790.412 161.091C789.526 134.258 794.361 107.636 800.713 81.0964C807.173 54.1089 815.186 27.2585 820.406 0.253662L821.387 0.443115Z" fill="#1C0951"/>
<path d="M752.663 0.475342C748.011 14.4749 741.178 28.5789 733.754 42.7351C726.323 56.9062 718.315 71.1068 711.27 85.365C697.182 113.879 687.063 142.415 693.355 170.742L693.578 171.715C698.392 192.117 711.705 211.5 723.862 231.123C736.179 251.004 747.304 271.128 746.8 292.612C746.464 306.665 740.949 320.168 732.909 333.356C724.87 346.543 714.278 359.458 703.751 372.326C693.213 385.206 682.74 398.039 674.883 411.101C667.151 423.957 661.979 436.993 661.767 450.463L661.761 451.105C661.706 462.283 665.948 473.361 672.732 484.387C679.516 495.414 688.82 506.352 698.837 517.247C708.838 528.122 719.582 538.986 729.162 549.782C738.75 560.588 747.23 571.391 752.745 582.213L752.299 582.439L751.854 582.667C746.399 571.961 737.987 561.235 728.414 550.446C718.832 539.647 708.146 528.847 698.101 517.924C688.074 507.019 678.717 496.023 671.88 484.911C665.044 473.799 660.705 462.536 660.761 451.1C660.817 437.15 666.124 423.724 674.026 410.587C681.927 397.451 692.449 384.562 702.977 371.693C713.515 358.812 724.059 345.952 732.055 332.836C740.05 319.722 745.47 306.394 745.8 292.588C746.296 271.439 735.343 251.552 723.012 231.649C710.714 211.799 697.04 191.929 692.378 170.96C686.006 142.272 696.273 113.46 710.374 84.9216C717.423 70.6537 725.459 56.4011 732.869 42.2712C740.286 28.1265 747.089 14.0808 751.713 0.160889L752.663 0.475342Z" fill="#1C0951"/>
<path d="M684.065 0.475342C679.411 14.5357 672.128 28.6918 664.069 42.8972C655.997 57.1266 647.174 71.3591 639.364 85.6804C623.754 114.309 612.392 142.964 619.699 171.48C622.359 181.901 627.719 191.865 634.277 201.642C640.839 211.424 648.574 220.982 655.979 230.622C670.754 249.856 684.231 269.42 683.867 291.342C683.629 305.77 677.56 319.449 668.652 332.71C659.746 345.969 647.967 358.859 636.261 371.702C624.542 384.558 612.895 397.367 604.191 410.503C595.624 423.431 589.942 436.628 589.832 450.442L589.831 451.1C589.872 462.426 594.351 473.547 601.442 484.562C608.533 495.578 618.211 506.452 628.601 517.281C638.975 528.094 650.081 538.885 659.951 549.671C669.828 560.463 678.52 571.305 684.092 582.273L683.2 582.726C677.691 571.881 669.073 561.119 659.214 550.345C649.349 539.565 638.293 528.826 627.879 517.972C617.481 507.135 607.746 496.204 600.601 485.103C593.455 474.002 588.873 462.693 588.831 451.104C588.761 436.771 594.602 423.163 603.358 409.95C612.112 396.738 623.815 383.872 635.522 371.028C647.241 358.171 658.965 345.338 667.822 332.152C676.678 318.968 682.634 305.481 682.868 291.326C683.226 269.801 669.987 250.5 655.186 231.231C647.802 221.62 640.033 212.017 633.447 202.2C626.86 192.379 621.431 182.307 618.731 171.728C611.319 142.807 622.868 113.845 638.486 85.2019C646.292 70.8876 655.163 56.571 663.2 42.4041C671.251 28.2132 678.493 14.1256 683.115 0.160889L684.065 0.475342Z" fill="#1C0951"/>
<path d="M615.302 0.470459C610.94 14.0795 604.005 27.8018 596.327 41.5779C588.638 55.3757 580.226 69.1886 572.845 83.0789C558.089 110.85 547.63 138.625 555.706 166.158C558.834 176.831 564.97 186.962 572.434 196.871C579.9 206.784 588.664 216.434 597.042 226.176C613.756 245.609 628.965 265.421 628.601 288.025C628.362 302.652 621.827 316.339 612.196 329.511C602.566 342.682 589.801 355.391 577.046 368.05C564.278 380.722 551.519 393.345 541.832 406.385C532.298 419.221 525.781 432.409 525.147 446.383L525.121 447.049C524.751 458.473 528.837 469.855 535.553 481.22C542.269 492.585 551.591 503.895 561.64 515.169C571.673 526.423 582.459 537.671 592.02 548.835C601.588 560.008 609.986 571.159 615.278 582.285L614.374 582.715C609.14 571.71 600.813 560.64 591.26 549.485C581.7 538.322 570.968 527.135 560.894 515.834C550.836 504.551 541.46 493.182 534.693 481.729C527.925 470.277 523.742 458.703 524.121 447.016L524.148 446.337C524.795 432.079 531.441 418.698 541.03 405.789C550.77 392.676 563.588 379.998 576.342 367.34C589.11 354.668 601.813 342.017 611.388 328.922C620.961 315.828 627.367 302.342 627.601 288.01C627.958 265.84 613.035 246.304 596.284 226.828C587.93 217.115 579.127 207.42 571.635 197.472C564.14 187.522 557.924 177.279 554.747 166.439C546.55 138.494 557.196 110.4 571.962 82.6101C579.343 68.7204 587.796 54.8306 595.453 41.0906C603.123 27.3287 610.019 13.6773 614.35 0.165771L615.302 0.470459Z" fill="#1C0951"/>
<path d="M546.596 0.431641C542.734 13.29 536.284 26.3456 529.115 39.4883C521.936 52.6511 514.053 65.8723 507.265 79.1494C493.691 105.7 484.653 132.19 494.649 158.007C498.881 168.931 506.37 179.276 515.244 189.388C524.121 199.503 534.344 209.341 544.045 219.29C553.733 229.226 562.891 239.262 569.574 249.727C576.259 260.195 580.488 271.123 580.277 282.84C580.011 297.729 572.831 311.426 562.2 324.478C551.57 337.528 537.441 349.99 523.2 362.399C508.944 374.822 494.575 387.192 483.393 400.097C472.211 413.001 464.268 426.383 462.798 440.812C461.617 452.4 465.016 464.187 471.124 476.085C477.232 487.983 486.031 499.953 495.6 511.898C505.15 523.819 515.509 535.761 524.636 547.496C533.774 559.246 541.746 570.869 546.577 582.244L545.656 582.635C540.878 571.382 532.971 559.842 523.847 548.11C514.71 536.363 504.419 524.505 494.82 512.523C485.241 500.567 476.391 488.533 470.234 476.542C464.078 464.551 460.595 452.563 461.803 440.71C463.304 425.982 471.401 412.41 482.638 399.441C493.875 386.473 508.305 374.052 522.543 361.646C536.796 349.226 550.858 336.82 561.425 323.847C571.991 310.875 579.016 297.39 579.277 282.822C579.483 271.368 575.353 260.633 568.731 250.265C562.108 239.892 553.012 229.918 543.329 219.988C533.659 210.071 523.392 200.188 514.492 190.047C505.589 179.902 498.011 169.454 493.717 158.368C483.551 132.115 492.787 105.268 506.374 78.6934C513.166 65.4078 521.086 52.1186 528.237 39.0088C535.399 25.8791 541.807 12.899 545.638 0.144531L546.596 0.431641Z" fill="#1C0951"/>
<path d="M477.834 0.391357C474.459 12.5809 468.573 24.9723 462.026 37.4451C455.468 49.937 448.259 62.4863 442.177 75.072C430.015 100.24 422.502 125.286 433.923 149.532L434.426 150.575C439.731 161.336 448.338 171.551 458.34 181.55C468.668 191.874 480.43 201.922 491.54 212.101C502.635 222.267 513.065 232.554 520.652 243.308C528.24 254.066 533.011 265.331 532.73 277.446C532.392 292.598 524.473 306.307 512.736 319.241C500.998 332.175 485.385 344.394 469.561 356.557C453.72 368.733 437.667 380.853 424.98 393.618C412.488 406.185 403.319 419.32 400.808 433.673L400.694 434.357C398.798 446.182 401.54 458.406 407.033 470.849C412.527 483.293 420.757 495.918 429.788 508.531C438.795 521.109 448.658 533.753 457.294 546.075C465.947 558.421 473.451 570.557 477.82 582.264L476.884 582.614C472.561 571.03 465.116 558.978 456.475 546.648C447.817 534.294 438.041 521.775 428.975 509.113C419.934 496.487 411.655 483.794 406.118 471.254C400.581 458.712 397.769 446.284 399.706 434.199C402.092 419.271 411.528 405.733 424.271 392.913C437.016 380.09 453.131 367.925 468.951 355.765C484.787 343.593 500.328 331.426 511.995 318.569C523.663 305.712 531.4 292.225 531.73 277.423L531.741 276.316C531.711 264.907 527.118 254.209 519.835 243.885C512.315 233.224 501.954 222.998 490.865 212.839C479.792 202.693 467.98 192.601 457.633 182.257C447.282 171.909 438.346 161.261 433.019 149.959C421.389 125.27 429.096 99.8425 441.277 74.6365C447.366 62.0352 454.609 49.4218 461.141 36.9802C467.682 24.5194 473.525 12.2056 476.87 0.123779L477.834 0.391357Z" fill="#1C0951"/>
<path d="M409.127 0.383545C406.072 12.151 400.65 24.0604 394.631 36.0164C388.603 47.9907 381.988 59.9895 376.493 72.0134C365.508 96.055 359.127 119.946 371.041 143.216C376.86 154.57 386.628 165.292 398.029 175.771C409.434 186.253 422.416 196.444 434.669 206.781C446.906 217.105 458.402 227.565 466.756 238.536C475.111 249.51 480.356 261.04 480.019 273.498C479.611 288.864 471.101 302.585 458.494 315.424C445.886 328.264 429.115 340.288 412.068 352.252C395.005 364.227 377.665 376.143 363.847 388.794C350.025 401.448 339.797 414.777 336.87 429.552C334.507 441.552 336.785 454.105 341.824 466.956C346.864 479.808 354.65 492.922 363.258 506.034C367.561 512.588 372.065 519.136 376.53 525.647C380.995 532.157 385.422 538.629 389.563 545.026C397.841 557.815 404.999 570.331 409.061 582.278L408.114 582.6C404.094 570.774 396.991 558.343 388.723 545.57C384.59 539.186 380.171 532.723 375.706 526.213C371.242 519.704 366.732 513.147 362.422 506.583C353.804 493.456 345.971 480.271 340.893 467.32C335.814 454.368 333.475 441.612 335.889 429.357L336.034 428.651C339.204 413.845 349.515 400.559 363.172 388.056C377.05 375.351 394.453 363.393 411.494 351.433C428.552 339.461 445.247 327.487 457.78 314.722C470.315 301.957 478.621 288.466 479.019 273.47C479.348 261.326 474.24 250.016 465.96 239.141C457.678 228.264 446.255 217.864 434.025 207.546C421.81 197.241 408.777 187.007 397.353 176.507C386.283 166.332 376.671 155.862 370.716 144.749L370.151 143.672C358.014 119.967 364.574 95.6914 375.584 71.5974C381.087 59.5536 387.734 47.4919 393.737 35.5662C399.751 23.6221 405.132 11.7912 408.159 0.131592L409.127 0.383545Z" fill="#1C0951"/>
<path d="M340.307 0.383545C337.294 11.9756 332.019 23.7425 326.194 35.5701C320.36 47.4144 313.985 59.3015 308.724 71.2048C298.368 94.6358 292.436 117.906 303.565 140.424L304.108 141.495L304.674 142.564C310.647 153.591 320.348 164.027 331.622 174.235C343.263 184.775 356.523 195.021 369.04 205.415C381.541 215.795 393.287 226.312 401.822 237.348C410.358 248.387 415.716 259.99 415.365 272.534C414.929 287.933 406.262 301.637 393.442 314.434C380.619 327.234 363.572 339.194 346.251 351.094C328.914 363.005 311.302 374.857 297.277 387.468C283.466 399.885 273.204 412.977 270.082 427.502L269.939 428.195C267.547 440.199 269.7 452.836 274.563 465.813C279.426 478.791 286.988 492.073 295.373 505.352C299.565 511.99 303.959 518.622 308.322 525.212C312.683 531.8 317.014 538.347 321.073 544.807C329.187 557.724 336.237 570.326 340.297 582.278L339.35 582.6C335.329 570.763 328.332 558.242 320.226 545.34C316.174 538.891 311.85 532.353 307.488 525.763C303.126 519.175 298.726 512.534 294.528 505.885C286.132 492.591 278.526 479.24 273.626 466.165C268.726 453.089 266.517 440.252 268.958 428C271.962 412.877 282.527 399.385 296.608 386.724C310.693 374.06 328.37 362.166 345.685 350.269C363.017 338.361 379.988 326.451 392.735 313.727C405.483 301.002 413.939 287.528 414.365 272.506C414.707 260.281 409.491 248.9 401.031 237.96C392.568 227.017 380.895 216.559 368.401 206.184C355.923 195.823 342.612 185.534 330.951 174.976C319.288 164.416 309.219 153.538 303.22 141.955C291.139 118.675 297.265 94.6587 307.81 70.8005C313.081 58.8735 319.485 46.928 325.297 35.1277C331.117 23.3107 336.353 11.6198 339.339 0.131592L340.307 0.383545Z" fill="#1C0951"/>
<path d="M271.545 0.369141C268.855 12.1346 264.228 24.1434 259.149 36.248C254.064 48.3663 248.534 60.5669 244.005 72.7744C234.948 97.1874 229.97 121.444 240.63 144.621C245.803 155.846 254.41 166.593 264.422 177.164C274.438 187.74 285.811 198.09 296.529 208.566C307.232 219.029 317.266 229.603 324.53 240.573C331.796 251.546 336.314 262.951 335.935 275.068C335.485 289.804 328.015 303.225 316.985 315.936C305.955 328.646 291.315 340.701 276.441 352.699C261.552 364.709 246.428 376.661 234.362 389.195C222.294 401.731 213.341 414.793 210.729 429.002C206.321 453.063 217.779 479.351 232.268 505.706C235.886 512.287 239.687 518.862 243.47 525.402C247.252 531.941 251.017 538.444 254.557 544.871C261.634 557.722 267.827 570.296 271.481 582.294L270.525 582.585C266.902 570.689 260.75 558.189 253.681 545.354C250.147 538.937 246.388 532.444 242.605 525.903C238.822 519.365 235.016 512.779 231.392 506.188C216.915 479.854 205.266 453.273 209.745 428.822C212.41 414.328 221.523 401.09 233.641 388.502C245.761 375.912 260.944 363.915 275.813 351.921C290.697 339.915 305.267 327.912 316.23 315.279C327.192 302.647 334.497 289.441 334.936 275.036C335.306 263.199 330.895 251.998 323.696 241.125C316.494 230.249 306.525 219.736 295.829 209.281C285.149 198.841 273.728 188.444 263.696 177.852C253.659 167.255 244.964 156.413 239.722 145.04C228.887 121.483 233.99 96.8954 243.068 72.4268C247.606 60.1934 253.157 47.9436 258.227 35.8613C263.302 23.7654 267.901 11.8231 270.571 0.146484L271.545 0.369141Z" fill="#1C0951"/>
<path d="M202.844 0.364258C200.95 12.6251 197.574 25.1096 193.843 37.6865C190.108 50.2746 186.022 62.9408 182.684 75.6152C176.011 100.959 172.378 126.196 180.605 150.459V150.46C184.32 161.433 190.512 172.123 197.713 182.715C204.918 193.313 213.102 203.769 220.812 214.316C236.197 235.362 249.679 256.739 249.063 279.77C248.699 293.484 243.326 306.423 235.4 318.936C227.476 331.446 216.976 343.569 206.321 355.645C195.656 367.732 184.837 379.772 176.222 392.154C167.877 404.148 161.628 416.426 159.593 429.327L159.409 430.577C156.068 455.053 164.253 480.715 174.639 506.438C185.005 532.114 197.578 557.872 202.839 582.365L202.35 582.47L201.861 582.575C196.624 558.194 184.118 532.589 173.711 506.812C163.323 481.084 155.038 455.203 158.418 430.442C160.266 416.861 166.744 404.026 175.401 391.583C184.057 379.142 194.921 367.053 205.571 354.982C216.232 342.9 226.679 330.834 234.555 318.4C242.428 305.969 247.706 293.208 248.063 279.742C248.669 257.094 235.407 235.974 220.006 214.906C212.323 204.397 204.103 193.893 196.886 183.277C189.89 172.987 183.806 162.551 180.017 151.819L179.658 150.78C171.333 126.229 175.032 100.752 181.718 75.3604C185.06 62.6668 189.159 49.959 192.885 37.4023C196.613 24.8347 199.972 12.4032 201.855 0.211914L202.844 0.364258Z" fill="#1C0951"/>
<path d="M134.139 0.325195C132.221 26.292 126.77 52.5932 122.95 78.79C119.127 105.014 116.928 131.181 121.469 157.016C125.261 178.534 135.033 199.52 143.809 220.669C152.571 241.786 160.333 263.052 159.97 285.011C159.551 310.452 147.967 334.741 136.11 358.896C124.232 383.096 112.081 407.16 110.312 432.294C108.568 457.104 113.189 482.166 118.93 507.268C124.665 532.347 131.523 557.488 134.193 582.356L133.696 582.409L133.199 582.463C130.537 557.673 123.703 532.628 117.955 507.491C112.212 482.377 107.559 457.192 109.315 432.224L109.405 431.035C111.483 406.097 123.545 382.225 135.213 358.455C147.087 334.264 158.555 310.175 158.97 284.994C159.329 263.264 151.648 242.169 142.886 221.052C134.137 199.967 124.301 178.847 120.483 157.189C115.915 131.194 118.132 104.899 121.96 78.6455C125.792 52.365 131.227 26.1736 133.142 0.250977L134.139 0.325195Z" fill="#1C0951"/>
<path d="M65.4328 0.324951C62.6 194.705 61.2106 388.176 65.4318 582.459L64.4328 582.48C60.2112 388.18 61.6 194.695 64.4328 0.311279L65.4328 0.324951Z" fill="#1C0951"/>
</svg>
