<svg width="1187" height="677" viewBox="0 0 1187 677" fill="none" xmlns="http://www.w3.org/2000/svg">
<path d="M1.3999 124.559L1.3999 483.559H45.3999L45.3999 124.559H23.3999H1.3999Z" stroke="url(#paint0_linear_892_113)" stroke-width="2.8" stroke-miterlimit="10"/>
<path d="M7.75049 168.445L7.75049 198.384H38.7507V168.445H7.75049Z" fill="url(#paint1_linear_892_113)"/>
<path d="M7.75049 203.277L7.75049 233.217H38.7507V203.277H7.75049Z" fill="url(#paint2_linear_892_113)"/>
<path d="M7.75049 238.11L7.75049 268.049H38.7507V238.11H7.75049Z" fill="url(#paint3_linear_892_113)"/>
<path d="M7.75049 272.943L7.75049 302.882H38.7507V272.943H7.75049Z" fill="url(#paint4_linear_892_113)"/>
<path d="M7.75049 307.775L7.75049 337.715H38.7507V307.775H7.75049Z" fill="url(#paint5_linear_892_113)"/>
<path d="M7.75049 342.608L7.75049 372.547H38.7507V342.608H7.75049Z" fill="url(#paint6_linear_892_113)"/>
<path d="M7.75049 377.432L7.75049 407.372H38.7507V377.432H7.75049Z" fill="url(#paint7_linear_892_113)"/>
<path d="M7.75049 412.265L7.75049 442.205H38.7507V412.265H7.75049Z" fill="url(#paint8_linear_892_113)"/>
<path d="M7.75049 447.097L7.75049 477.037H38.7507V447.097H7.75049Z" fill="url(#paint9_linear_892_113)"/>
<path d="M1169.05 198.596V674.559H192.898L74.3999 546.644V94.9407L133.715 36.5586H331.168L393.039 94.569H1081.97L1169.05 198.596Z" fill="#090223" fill-opacity="0.69" stroke="#05C174" stroke-width="3" stroke-miterlimit="10"/>
<path d="M1184.98 80.8171V185.216L1097.4 80.8171H1184.98Z" stroke="#05C174" stroke-width="3" stroke-miterlimit="10"/>
<path d="M292.563 90.4376H277.572L295.874 46.5366H310.865L292.563 90.4376Z" fill="#05C174"/>
<path d="M273.89 90.4376H258.899L277.201 46.5366H292.205L273.89 90.4376Z" fill="#05C174"/>
<path d="M255.218 90.4376H240.227L258.542 46.5366H273.533L255.218 90.4376Z" fill="#05C174"/>
<path d="M236.558 90.4376H221.554L239.869 46.5366H254.86L236.558 90.4376Z" fill="#05C174"/>
<path d="M217.886 90.4376H202.882L221.197 46.5366H236.188L217.886 90.4376Z" fill="#05C174"/>
<path d="M199.213 90.4376H184.222L202.524 46.5366H217.515L199.213 90.4376Z" fill="#05C174"/>
<path d="M180.541 90.4376H165.55L183.852 46.5366H198.856L180.541 90.4376Z" fill="#05C174"/>
<path d="M161.868 90.4376H146.877L165.192 46.5366H180.183L161.868 90.4376Z" fill="#05C174"/>
<path d="M143.209 90.4376H128.205L146.52 46.5366H161.511L143.209 90.4376Z" fill="#05C174"/>
<g clip-path="url(#clip0_892_113)">
<path d="M1120.53 653.957C1142.39 653.957 1160.11 636.243 1160.11 614.392C1160.11 592.542 1142.39 574.828 1120.53 574.828C1098.67 574.828 1080.95 592.542 1080.95 614.392C1080.95 636.243 1098.67 653.957 1120.53 653.957Z" stroke="#05C174" stroke-width="3.14" stroke-miterlimit="10"/>
<path d="M1120.79 654.289C1133.87 654.289 1144.48 636.576 1144.48 614.725C1144.48 592.874 1133.87 575.161 1120.79 575.161C1107.71 575.161 1097.1 592.874 1097.1 614.725C1097.1 636.576 1107.71 654.289 1120.79 654.289Z" stroke="#05C174" stroke-width="3.14" stroke-miterlimit="10"/>
<path d="M1120.27 653.957C1125.6 653.957 1129.92 636.243 1129.92 614.392C1129.92 592.542 1125.6 574.828 1120.27 574.828C1114.94 574.828 1110.62 592.542 1110.62 614.392C1110.62 636.243 1114.94 653.957 1120.27 653.957Z" stroke="#05C174" stroke-width="3.14" stroke-miterlimit="10"/>
<path d="M1120.11 629.238C1141.68 629.238 1159.16 622.837 1159.16 614.942C1159.16 607.046 1141.68 600.645 1120.11 600.645C1098.54 600.645 1081.06 607.046 1081.06 614.942C1081.06 622.837 1098.54 629.238 1120.11 629.238Z" stroke="#05C174" stroke-width="3.69" stroke-miterlimit="10"/>
</g>
<g clip-path="url(#clip1_892_113)">
<g clip-path="url(#clip2_892_113)">
<path d="M1157.55 261.317V285.194L1095.4 210.883V187.007L1157.55 261.317Z" fill="url(#paint10_linear_892_113)"/>
<path d="M1157.55 231.599V255.461L1095.4 181.151V157.274L1157.55 231.599Z" fill="url(#paint11_linear_892_113)"/>
<path d="M1157.55 201.866V225.743L1095.4 151.432V127.556L1157.55 201.866Z" fill="url(#paint12_linear_892_113)"/>
<path d="M1157.55 291.036V314.912L1095.4 240.602V216.725L1157.55 291.036Z" fill="url(#paint13_linear_892_113)"/>
<path d="M1157.55 320.768V344.645L1095.4 270.334V246.458L1157.55 320.768Z" fill="url(#paint14_linear_892_113)"/>
<path d="M1157.55 350.487V374.363L1095.4 300.053V276.176L1157.55 350.487Z" fill="url(#paint15_linear_892_113)"/>
<path d="M1157.55 380.219V404.096L1095.4 329.771V305.909L1157.55 380.219Z" fill="url(#paint16_linear_892_113)"/>
<path d="M1157.55 409.938V433.814L1095.4 359.504V335.628L1157.55 409.938Z" fill="url(#paint17_linear_892_113)"/>
<path d="M1157.55 439.671V463.533L1095.4 389.222V365.346L1157.55 439.671Z" fill="url(#paint18_linear_892_113)"/>
<path d="M1157.55 469.389V493.265L1095.4 418.955V395.079L1157.55 469.389Z" fill="url(#paint19_linear_892_113)"/>
<path d="M1157.55 499.107V522.984L1095.4 448.674V424.797L1157.55 499.107Z" fill="url(#paint20_linear_892_113)"/>
<path d="M1157.55 528.84V552.716L1095.4 478.406V454.53L1157.55 528.84Z" fill="url(#paint21_linear_892_113)"/>
<path d="M1157.55 558.559H1095.4V484.248L1157.55 558.559Z" fill="url(#paint22_linear_892_113)"/>
</g>
</g>
<g filter="url(#filter0_d_892_113)">
<path d="M454.185 61.5586H446.568V51.2461H419.791V61.5586H412.173V40.5527C412.173 37.4863 412.701 34.6641 413.755 32.0859C414.81 29.5078 416.275 27.291 418.15 25.4355C420.025 23.5801 422.242 22.1348 424.8 21.0996C427.359 20.0645 430.152 19.5469 433.179 19.5469H450.347C450.875 19.5469 451.373 19.6445 451.841 19.8398C452.31 20.0352 452.72 20.3086 453.072 20.6602C453.423 21.0117 453.697 21.4219 453.892 21.8906C454.087 22.3594 454.185 22.8574 454.185 23.3848V61.5586ZM419.791 43.6289H446.568V27.1641H433.179C432.945 27.1641 432.447 27.2031 431.685 27.2812C430.943 27.3398 430.074 27.5059 429.078 27.7793C428.101 28.0527 427.066 28.4727 425.972 29.0391C424.878 29.6055 423.873 30.3867 422.955 31.3828C422.037 32.3789 421.275 33.6289 420.669 35.1328C420.083 36.6172 419.791 38.4238 419.791 40.5527V43.6289ZM492.828 50.8652C492.828 52.1738 492.662 53.3555 492.33 54.4102C491.998 55.4453 491.558 56.3633 491.011 57.1641C490.464 57.9453 489.83 58.6191 489.107 59.1855C488.384 59.7324 487.623 60.1816 486.822 60.5332C486.041 60.8848 485.24 61.1484 484.419 61.3242C483.619 61.4805 482.857 61.5586 482.134 61.5586H461.509V53.9414H482.076C483.111 53.9414 483.892 53.6777 484.419 53.1504C484.947 52.623 485.21 51.8613 485.21 50.8652C485.113 48.834 484.087 47.8184 482.134 47.8184H470.328C468.648 47.8184 467.222 47.5254 466.05 46.9395C464.878 46.3535 463.921 45.6211 463.179 44.7422C462.457 43.8633 461.929 42.916 461.597 41.9004C461.285 40.8848 461.128 39.9375 461.128 39.0586C461.128 37.3594 461.431 35.9336 462.037 34.7812C462.642 33.6094 463.404 32.6621 464.322 31.9395C465.24 31.2168 466.236 30.6992 467.31 30.3867C468.384 30.0547 469.39 29.8887 470.328 29.8887H489.048V37.5059H470.386C469.996 37.5059 469.683 37.5547 469.449 37.6523C469.234 37.7305 469.068 37.8477 468.951 38.0039C468.853 38.1406 468.794 38.2969 468.775 38.4727C468.755 38.6289 468.746 38.7852 468.746 38.9414C468.765 39.2539 468.824 39.498 468.921 39.6738C469.019 39.8496 469.136 39.9766 469.273 40.0547C469.429 40.1328 469.595 40.1816 469.771 40.2012C469.966 40.2012 470.152 40.2012 470.328 40.2012H482.134C484.087 40.2012 485.748 40.5527 487.115 41.2559C488.482 41.959 489.585 42.8477 490.425 43.9219C491.265 44.9766 491.871 46.1289 492.242 47.3789C492.632 48.6289 492.828 49.791 492.828 50.8652ZM535.396 61.5586H524.41L509.058 46.7344C508.199 45.9531 507.798 44.9766 507.857 43.8047C507.896 43.2578 508.033 42.75 508.267 42.2812C508.521 41.793 508.863 41.3828 509.292 41.0508L523.208 29.8301H535.396L517.466 44.2734L535.396 61.5586ZM505.923 61.5586H498.306V16.5H505.923V61.5586ZM604.126 44.5664C604.126 46.5195 603.863 48.3652 603.335 50.1035C602.828 51.8223 602.095 53.3848 601.138 54.791C600.201 56.1973 599.058 57.4277 597.71 58.4824C596.382 59.5371 594.898 60.3672 593.257 60.9727L602.164 68.0332H591.119L583.794 62.1445H576.294C573.775 62.1445 571.441 61.7148 569.292 60.8555C567.144 59.9766 565.289 58.7559 563.726 57.1934C562.164 55.6309 560.933 53.7754 560.035 51.627C559.156 49.4785 558.716 47.125 558.716 44.5664V36.5391C558.716 34 559.156 31.6562 560.035 29.5078C560.933 27.3398 562.164 25.4844 563.726 23.9414C565.289 22.3789 567.144 21.1582 569.292 20.2793C571.441 19.4004 573.775 18.9609 576.294 18.9609H586.607C589.126 18.9609 591.451 19.4004 593.58 20.2793C595.728 21.1582 597.583 22.3789 599.146 23.9414C600.708 25.4844 601.929 27.3398 602.808 29.5078C603.687 31.6562 604.126 34 604.126 36.5391V44.5664ZM596.509 36.5391C596.509 35.0352 596.265 33.6777 595.777 32.4668C595.308 31.2363 594.634 30.1914 593.755 29.332C592.896 28.4531 591.851 27.7793 590.621 27.3105C589.41 26.8223 588.072 26.5781 586.607 26.5781H576.294C574.81 26.5781 573.453 26.8223 572.222 27.3105C571.011 27.7793 569.966 28.4531 569.087 29.332C568.208 30.1914 567.525 31.2363 567.037 32.4668C566.568 33.6777 566.333 35.0352 566.333 36.5391V44.5664C566.333 46.0703 566.568 47.4375 567.037 48.668C567.525 49.8789 568.208 50.9238 569.087 51.8027C569.966 52.6621 571.011 53.3359 572.222 53.8242C573.453 54.293 574.81 54.5273 576.294 54.5273H586.548C588.033 54.5273 589.38 54.293 590.591 53.8242C591.822 53.3359 592.876 52.6621 593.755 51.8027C594.634 50.9238 595.308 49.8789 595.777 48.668C596.265 47.4375 596.509 46.0703 596.509 44.5664V36.5391ZM645.435 57.7207C645.435 58.2676 645.337 58.7754 645.142 59.2441C644.947 59.7129 644.673 60.123 644.322 60.4746C643.99 60.8066 643.589 61.0703 643.121 61.2656C642.671 61.4609 642.183 61.5586 641.656 61.5586H624.429C623.492 61.5586 622.486 61.4512 621.412 61.2363C620.357 61.0215 619.312 60.6797 618.277 60.2109C617.242 59.7227 616.236 59.1172 615.259 58.3945C614.302 57.6523 613.462 56.7637 612.74 55.7285C612.017 54.6738 611.431 53.4629 610.982 52.0957C610.552 50.7285 610.337 49.1855 610.337 47.4668V29.8887H617.955V47.4668C617.955 48.4629 618.121 49.3613 618.453 50.1621C618.804 50.9434 619.273 51.6172 619.859 52.1836C620.445 52.75 621.128 53.1895 621.91 53.502C622.71 53.7949 623.57 53.9414 624.488 53.9414H637.818V29.8887H645.435V57.7207ZM686.656 40.377C686.656 41.4316 686.47 42.5742 686.099 43.8047C685.728 45.0156 685.123 46.1484 684.283 47.2031C683.462 48.2383 682.378 49.1074 681.031 49.8105C679.703 50.5137 678.082 50.8652 676.167 50.8652H662.427V43.6289H676.167C677.203 43.6289 678.003 43.3164 678.57 42.6914C679.136 42.0469 679.419 41.2559 679.419 40.3184C679.419 39.3223 679.097 38.541 678.453 37.9746C677.828 37.4082 677.066 37.125 676.167 37.125H662.427C661.392 37.125 660.591 37.4473 660.025 38.0918C659.458 38.7168 659.175 39.498 659.175 40.4355V51.0703C659.175 52.0859 659.488 52.877 660.113 53.4434C660.757 54.0098 661.548 54.293 662.486 54.293H676.167V61.5586H662.427C661.373 61.5586 660.23 61.373 659 61.002C657.789 60.6309 656.656 60.0352 655.601 59.2148C654.566 58.375 653.697 57.291 652.994 55.9629C652.291 54.6152 651.939 52.9844 651.939 51.0703V40.377C651.939 39.3223 652.125 38.1895 652.496 36.9785C652.867 35.748 653.462 34.6152 654.283 33.5801C655.123 32.5254 656.207 31.6465 657.535 30.9434C658.882 30.2402 660.513 29.8887 662.427 29.8887H676.167C677.222 29.8887 678.355 30.0742 679.566 30.4453C680.796 30.8164 681.929 31.4219 682.964 32.2617C684.019 33.082 684.898 34.166 685.601 35.5137C686.304 36.8418 686.656 38.4629 686.656 40.377ZM722.398 50.8652C722.398 52.1738 722.232 53.3555 721.9 54.4102C721.568 55.4453 721.128 56.3633 720.582 57.1641C720.035 57.9453 719.4 58.6191 718.677 59.1855C717.955 59.7324 717.193 60.1816 716.392 60.5332C715.611 60.8848 714.81 61.1484 713.99 61.3242C713.189 61.4805 712.427 61.5586 711.705 61.5586H691.08V53.9414H711.646C712.681 53.9414 713.462 53.6777 713.99 53.1504C714.517 52.623 714.781 51.8613 714.781 50.8652C714.683 48.834 713.658 47.8184 711.705 47.8184H699.898C698.218 47.8184 696.792 47.5254 695.621 46.9395C694.449 46.3535 693.492 45.6211 692.75 44.7422C692.027 43.8633 691.5 42.916 691.167 41.9004C690.855 40.8848 690.699 39.9375 690.699 39.0586C690.699 37.3594 691.001 35.9336 691.607 34.7812C692.212 33.6094 692.974 32.6621 693.892 31.9395C694.81 31.2168 695.806 30.6992 696.88 30.3867C697.955 30.0547 698.96 29.8887 699.898 29.8887H718.619V37.5059H699.957C699.566 37.5059 699.253 37.5547 699.019 37.6523C698.804 37.7305 698.638 37.8477 698.521 38.0039C698.423 38.1406 698.365 38.2969 698.345 38.4727C698.326 38.6289 698.316 38.7852 698.316 38.9414C698.335 39.2539 698.394 39.498 698.492 39.6738C698.589 39.8496 698.707 39.9766 698.843 40.0547C699 40.1328 699.166 40.1816 699.341 40.2012C699.537 40.2012 699.722 40.2012 699.898 40.2012H711.705C713.658 40.2012 715.318 40.5527 716.685 41.2559C718.052 41.959 719.156 42.8477 719.996 43.9219C720.835 44.9766 721.441 46.1289 721.812 47.3789C722.203 48.6289 722.398 49.791 722.398 50.8652ZM756.031 37.5059H742.73V61.5586H735.025V37.5059H725.123V29.8887H735.025V19.5469H742.73V29.8887H756.031V37.5059ZM768.775 23.3848H761.158V16.5H768.775V23.3848ZM768.775 61.5586H761.158V29.8887H768.775V61.5586ZM810.552 50.8652C810.552 52.1738 810.386 53.3555 810.054 54.4102C809.722 55.4453 809.283 56.3633 808.736 57.1641C808.189 57.9453 807.554 58.6191 806.832 59.1855C806.109 59.7324 805.347 60.1816 804.546 60.5332C803.765 60.8848 802.964 61.1484 802.144 61.3242C801.343 61.4805 800.582 61.5586 799.859 61.5586H786.119C785.064 61.5586 783.912 61.373 782.662 61.002C781.412 60.6309 780.25 60.0254 779.175 59.1855C778.121 58.3262 777.232 57.2227 776.509 55.875C775.806 54.5078 775.455 52.8379 775.455 50.8652V40.5527C775.455 38.5996 775.806 36.9492 776.509 35.6016C777.232 34.2344 778.121 33.1309 779.175 32.291C780.25 31.4316 781.412 30.8164 782.662 30.4453C783.912 30.0742 785.064 29.8887 786.119 29.8887H799.859C801.812 29.8887 803.472 30.2402 804.839 30.9434C806.207 31.6465 807.31 32.5352 808.15 33.6094C808.99 34.6641 809.595 35.8164 809.966 37.0664C810.357 38.3164 810.552 39.4785 810.552 40.5527V50.8652ZM802.935 40.6113C802.935 39.5566 802.671 38.7754 802.144 38.2676C801.617 37.7598 800.855 37.5059 799.859 37.5059H786.177C785.162 37.5059 784.39 37.7695 783.863 38.2969C783.335 38.8047 783.072 39.5566 783.072 40.5527V50.8652C783.072 51.8613 783.335 52.623 783.863 53.1504C784.39 53.6777 785.162 53.9414 786.177 53.9414H799.859C800.894 53.9414 801.666 53.6777 802.173 53.1504C802.681 52.623 802.935 51.8613 802.935 50.8652V40.6113ZM852.154 61.5586H844.537V43.9805C844.537 42.9844 844.361 42.0957 844.009 41.3145C843.677 40.5137 843.218 39.8301 842.632 39.2637C842.046 38.6973 841.353 38.2676 840.552 37.9746C839.771 37.6621 838.921 37.5059 838.003 37.5059H824.673V61.5586H817.056V33.668C817.056 33.1406 817.154 32.6523 817.349 32.2031C817.544 31.7344 817.818 31.334 818.169 31.002C818.521 30.6504 818.931 30.377 819.4 30.1816C819.869 29.9863 820.367 29.8887 820.894 29.8887H838.062C839.019 29.8887 840.025 29.9961 841.08 30.2109C842.154 30.4258 843.208 30.7773 844.244 31.2656C845.298 31.7344 846.294 32.3398 847.232 33.082C848.189 33.8047 849.029 34.6934 849.751 35.748C850.494 36.7832 851.08 37.9844 851.509 39.3516C851.939 40.7188 852.154 42.2617 852.154 43.9805V61.5586Z" fill="#05B0C1"/>
</g>
<defs>
<filter id="filter0_d_892_113" x="395.673" y="0" width="472.98" height="84.5332" filterUnits="userSpaceOnUse" color-interpolation-filters="sRGB">
<feFlood flood-opacity="0" result="BackgroundImageFix"/>
<feColorMatrix in="SourceAlpha" type="matrix" values="0 0 0 0 0 0 0 0 0 0 0 0 0 0 0 0 0 0 127 0" result="hardAlpha"/>
<feOffset/>
<feGaussianBlur stdDeviation="8.25"/>
<feComposite in2="hardAlpha" operator="out"/>
<feColorMatrix type="matrix" values="0 0 0 0 0.0196078 0 0 0 0 0.690196 0 0 0 0 0.756863 0 0 0 1 0"/>
<feBlend mode="normal" in2="BackgroundImageFix" result="effect1_dropShadow_892_113"/>
<feBlend mode="normal" in="SourceGraphic" in2="effect1_dropShadow_892_113" result="shape"/>
</filter>
<linearGradient id="paint0_linear_892_113" x1="23.404" y1="484.503" x2="23.404" y2="123.621" gradientUnits="userSpaceOnUse">
<stop stop-color="#05C174"/>
<stop offset="0.93" stop-color="#05C174"/>
</linearGradient>
<linearGradient id="paint1_linear_892_113" x1="23.2547" y1="198.384" x2="23.2547" y2="168.445" gradientUnits="userSpaceOnUse">
<stop stop-color="#05B0C1"/>
<stop offset="0.93" stop-color="#05C174"/>
</linearGradient>
<linearGradient id="paint2_linear_892_113" x1="23.2547" y1="233.217" x2="23.2547" y2="203.277" gradientUnits="userSpaceOnUse">
<stop stop-color="#05B0C1"/>
<stop offset="0.93" stop-color="#05C174"/>
</linearGradient>
<linearGradient id="paint3_linear_892_113" x1="23.2547" y1="268.049" x2="23.2547" y2="238.11" gradientUnits="userSpaceOnUse">
<stop stop-color="#05B0C1"/>
<stop offset="0.93" stop-color="#05C174"/>
</linearGradient>
<linearGradient id="paint4_linear_892_113" x1="23.2547" y1="302.882" x2="23.2547" y2="272.943" gradientUnits="userSpaceOnUse">
<stop stop-color="#05B0C1"/>
<stop offset="0.93" stop-color="#05C174"/>
</linearGradient>
<linearGradient id="paint5_linear_892_113" x1="23.2547" y1="337.715" x2="23.2547" y2="307.775" gradientUnits="userSpaceOnUse">
<stop stop-color="#05B0C1"/>
<stop offset="0.93" stop-color="#05C174"/>
</linearGradient>
<linearGradient id="paint6_linear_892_113" x1="23.2547" y1="372.547" x2="23.2547" y2="342.6" gradientUnits="userSpaceOnUse">
<stop stop-color="#05B0C1"/>
<stop offset="0.93" stop-color="#05C174"/>
</linearGradient>
<linearGradient id="paint7_linear_892_113" x1="23.2547" y1="407.372" x2="23.2547" y2="377.432" gradientUnits="userSpaceOnUse">
<stop stop-color="#05B0C1"/>
<stop offset="0.93" stop-color="#05C174"/>
</linearGradient>
<linearGradient id="paint8_linear_892_113" x1="23.2547" y1="442.205" x2="23.2547" y2="412.265" gradientUnits="userSpaceOnUse">
<stop stop-color="#05B0C1"/>
<stop offset="0.93" stop-color="#05C174"/>
</linearGradient>
<linearGradient id="paint9_linear_892_113" x1="23.2547" y1="477.037" x2="23.2547" y2="447.097" gradientUnits="userSpaceOnUse">
<stop stop-color="#05B0C1"/>
<stop offset="0.93" stop-color="#05C174"/>
</linearGradient>
<linearGradient id="paint10_linear_892_113" x1="1158.17" y1="48.758" x2="1084.77" y2="448.376" gradientUnits="userSpaceOnUse">
<stop stop-color="#05B0C1"/>
<stop offset="0.24" stop-color="#05B3B2"/>
<stop offset="0.69" stop-color="#05BB8B"/>
<stop offset="0.93" stop-color="#05C174"/>
</linearGradient>
<linearGradient id="paint11_linear_892_113" x1="1153.3" y1="47.869" x2="1079.9" y2="447.473" gradientUnits="userSpaceOnUse">
<stop stop-color="#05B0C1"/>
<stop offset="0.24" stop-color="#05B3B2"/>
<stop offset="0.69" stop-color="#05BB8B"/>
<stop offset="0.93" stop-color="#05C174"/>
</linearGradient>
<linearGradient id="paint12_linear_892_113" x1="1148.41" y1="46.9659" x2="1075.02" y2="446.584" gradientUnits="userSpaceOnUse">
<stop stop-color="#05B0C1"/>
<stop offset="0.24" stop-color="#05B3B2"/>
<stop offset="0.69" stop-color="#05BB8B"/>
<stop offset="0.93" stop-color="#05C174"/>
</linearGradient>
<linearGradient id="paint13_linear_892_113" x1="1163.05" y1="49.6611" x2="1089.65" y2="449.265" gradientUnits="userSpaceOnUse">
<stop stop-color="#05B0C1"/>
<stop offset="0.24" stop-color="#05B3B2"/>
<stop offset="0.69" stop-color="#05BB8B"/>
<stop offset="0.93" stop-color="#05C174"/>
</linearGradient>
<linearGradient id="paint14_linear_892_113" x1="1167.93" y1="50.5502" x2="1094.54" y2="450.169" gradientUnits="userSpaceOnUse">
<stop stop-color="#05B0C1"/>
<stop offset="0.24" stop-color="#05B3B2"/>
<stop offset="0.69" stop-color="#05BB8B"/>
<stop offset="0.93" stop-color="#05C174"/>
</linearGradient>
<linearGradient id="paint15_linear_892_113" x1="1172.8" y1="51.4533" x2="1099.42" y2="451.058" gradientUnits="userSpaceOnUse">
<stop stop-color="#05B0C1"/>
<stop offset="0.24" stop-color="#05B3B2"/>
<stop offset="0.69" stop-color="#05BB8B"/>
<stop offset="0.93" stop-color="#05C174"/>
</linearGradient>
<linearGradient id="paint16_linear_892_113" x1="1177.68" y1="52.3423" x2="1104.29" y2="451.961" gradientUnits="userSpaceOnUse">
<stop stop-color="#05B0C1"/>
<stop offset="0.24" stop-color="#05B3B2"/>
<stop offset="0.69" stop-color="#05BB8B"/>
<stop offset="0.93" stop-color="#05C174"/>
</linearGradient>
<linearGradient id="paint17_linear_892_113" x1="1182.55" y1="53.2454" x2="1109.17" y2="452.85" gradientUnits="userSpaceOnUse">
<stop stop-color="#05B0C1"/>
<stop offset="0.24" stop-color="#05B3B2"/>
<stop offset="0.69" stop-color="#05BB8B"/>
<stop offset="0.93" stop-color="#05C174"/>
</linearGradient>
<linearGradient id="paint18_linear_892_113" x1="1187.43" y1="54.1344" x2="1114.04" y2="453.753" gradientUnits="userSpaceOnUse">
<stop stop-color="#05B0C1"/>
<stop offset="0.24" stop-color="#05B3B2"/>
<stop offset="0.69" stop-color="#05BB8B"/>
<stop offset="0.93" stop-color="#05C174"/>
</linearGradient>
<linearGradient id="paint19_linear_892_113" x1="1192.3" y1="55.0235" x2="1118.92" y2="454.642" gradientUnits="userSpaceOnUse">
<stop stop-color="#05B0C1"/>
<stop offset="0.24" stop-color="#05B3B2"/>
<stop offset="0.69" stop-color="#05BB8B"/>
<stop offset="0.93" stop-color="#05C174"/>
</linearGradient>
<linearGradient id="paint20_linear_892_113" x1="1197.18" y1="55.9266" x2="1123.79" y2="455.531" gradientUnits="userSpaceOnUse">
<stop stop-color="#05B0C1"/>
<stop offset="0.24" stop-color="#05B3B2"/>
<stop offset="0.69" stop-color="#05BB8B"/>
<stop offset="0.93" stop-color="#05C174"/>
</linearGradient>
<linearGradient id="paint21_linear_892_113" x1="1202.05" y1="56.8156" x2="1128.67" y2="456.434" gradientUnits="userSpaceOnUse">
<stop stop-color="#05B0C1"/>
<stop offset="0.24" stop-color="#05B3B2"/>
<stop offset="0.69" stop-color="#05BB8B"/>
<stop offset="0.93" stop-color="#05C174"/>
</linearGradient>
<linearGradient id="paint22_linear_892_113" x1="1204.98" y1="57.3519" x2="1131.6" y2="456.97" gradientUnits="userSpaceOnUse">
<stop stop-color="#05B0C1"/>
<stop offset="0.24" stop-color="#05B3B2"/>
<stop offset="0.69" stop-color="#05BB8B"/>
<stop offset="0.93" stop-color="#05C174"/>
</linearGradient>
<clipPath id="clip0_892_113">
<rect width="84" height="84" fill="white" transform="translate(1078.4 572.559)"/>
</clipPath>
<clipPath id="clip1_892_113">
<rect width="61" height="425" fill="white" transform="translate(1095.4 133.559)"/>
</clipPath>
<clipPath id="clip2_892_113">
<rect width="62.1509" height="431.003" fill="white" transform="translate(1095.4 127.556)"/>
</clipPath>
</defs>
</svg>
