<svg width="1440" height="547" viewBox="0 0 1440 547" fill="none" xmlns="http://www.w3.org/2000/svg">
<rect opacity="0.5" x="-1" width="1445" height="547" fill="url(#paint0_linear_840_102)"/>
<g opacity="0.8" clip-path="url(#clip0_840_102)">
<path d="M1412.1 493.634V100.978L1487.21 77.4279V515.618L1412.1 493.634Z" fill="url(#paint1_linear_840_102)"/>
<path d="M1486.21 78.8452V514.222L1413.1 492.814V101.766L1486.21 78.8452ZM1488.21 76L1411.1 100.179V494.444L1488.21 517.024V76Z" fill="#4B39E1"/>
<path d="M1342.74 492.142V234.691L1380.94 219.314V506.496L1342.74 492.142Z" fill="url(#paint2_linear_840_102)"/>
<path d="M1380.36 220.209V505.633L1343.32 491.716V235.127L1380.36 220.22M1381.52 218.419L1342.17 234.254V492.568L1381.52 507.359V218.419Z" fill="#4B39E1"/>
<path d="M1454.95 219.037H1382.1V506.219H1454.95V219.037Z" fill="url(#paint3_linear_840_102)"/>
<path d="M1454.37 219.655V505.601H1382.67V219.655H1454.37ZM1455.53 218.419H1381.52V506.837H1455.53V218.419Z" fill="#4B39E1"/>
<path d="M1347.46 457.829V190.425L1400.57 174.377V472.812L1347.46 457.829Z" fill="url(#paint4_linear_840_102)"/>
<path d="M1399.88 175.357V471.853L1348.15 457.265V190.99L1399.88 175.357ZM1401.27 173.397L1346.76 189.86V458.384L1401.27 473.76V173.397Z" fill="#4B39E1"/>
<path d="M1503.09 174.143H1401.96V472.482H1503.09V174.143Z" fill="url(#paint5_linear_840_102)"/>
<path d="M1502.4 174.878V471.736H1402.66V174.878H1502.4ZM1503.78 173.397H1401.26V473.217H1503.78V173.397Z" fill="#4B39E1"/>
<path d="M-41.9395 77.5663L33.1706 101.116V493.773L-41.9395 515.767V77.5663Z" fill="url(#paint6_linear_840_102)"/>
<path d="M-40.9395 78.9836L32.1706 101.905V492.952L-40.9395 514.36V78.9836ZM-42.9395 76.1384V517.163L34.1706 494.582V100.317L-42.9395 76.1384Z" fill="#4B39E1"/>
<path d="M64.3301 219.453L102.53 234.829V492.281L64.3301 506.635V219.453Z" fill="url(#paint7_linear_840_102)"/>
<path d="M64.91 220.348L101.95 235.255V491.844L64.91 505.761V220.348ZM63.75 218.557V507.498L103.1 492.707V234.392L63.75 218.557Z" fill="#4B39E1"/>
<path d="M63.1703 219.175H-9.67969V506.358H63.1703V219.175Z" fill="url(#paint8_linear_840_102)"/>
<path d="M62.6003 219.793V505.74H-9.09976V219.793H62.6003ZM63.7502 218.557H-10.2598V506.976H63.7502V218.557Z" fill="#4B39E1"/>
<path d="M44.7 174.516L97.8099 190.564V457.968L44.7 472.951V174.516Z" fill="url(#paint9_linear_840_102)"/>
<path d="M45.39 175.496L97.12 191.129V457.404L45.39 471.992V175.496ZM44 173.535V473.91L98.51 458.533V190.01L44 173.546V173.535Z" fill="#4B39E1"/>
<path d="M43.3107 174.281H-57.8193V472.62H43.3107V174.281Z" fill="url(#paint10_linear_840_102)"/>
<path d="M42.6102 175.017V471.874H-57.1298V175.017H42.6102ZM44.0002 173.535H-58.5098V473.356H44.0002V173.535Z" fill="#4B39E1"/>
<path d="M1309 298.532H1227.26V425.35H1309V298.532Z" fill="url(#paint11_linear_840_102)"/>
<path d="M1307.99 299.608V424.295H1228.26V299.608H1307.99ZM1310 297.466H1226.26V426.426H1310V297.466Z" fill="#4B39E1"/>
<path d="M1160.24 406.158V299.31L1225.25 298.542V425.329L1160.24 406.158Z" fill="url(#paint12_linear_840_102)"/>
<path d="M1224.24 299.629V423.922L1161.23 405.338V300.365L1224.24 299.619M1226.25 297.466L1159.23 298.255V406.979L1226.25 426.746V297.477V297.466Z" fill="#4B39E1"/>
<path d="M1228.82 177.19H1142.49V406.307H1228.82V177.19Z" fill="url(#paint13_linear_840_102)"/>
<path d="M1227.82 178.267V405.252H1143.5V178.267H1227.82ZM1229.83 176.125H1141.49V407.384H1229.83V176.125Z" fill="#4B39E1"/>
<path d="M1086.06 388.874V198.098L1140.57 177.681V405.86L1086.06 388.874Z" fill="url(#paint14_linear_840_102)"/>
<path d="M1139.56 179.183V404.432L1087.06 388.064V198.854L1139.56 179.183ZM1141.57 176.167L1085.06 197.341V389.673L1141.57 407.288V176.167Z" fill="#4B39E1"/>
<path d="M1182.06 234.158L1218.87 227.391V296.411L1182.06 296.848V234.158Z" fill="url(#paint15_linear_840_102)"/>
<path d="M1217.86 228.66V295.346L1183.07 295.761V235.053L1217.86 228.66ZM1219.87 226.123L1181.06 233.252V297.924L1219.87 297.455V226.113V226.123Z" fill="#4B39E1"/>
<path d="M1290.35 227.253H1220.87V296.4H1290.35V227.253Z" fill="url(#paint16_linear_840_102)"/>
<path d="M1289.35 228.318V295.324H1221.88V228.318H1289.35ZM1291.36 226.187H1219.87V297.466H1291.36V226.187Z" fill="#4B39E1"/>
<path d="M1337.56 359.783H1279.63V442.73H1337.56V359.783Z" fill="url(#paint17_linear_840_102)"/>
<path d="M1336.52 360.891V441.632H1280.67V360.891H1336.52ZM1338.59 358.685H1278.59V443.849H1338.59V358.685Z" fill="#4B39E1"/>
<path d="M1242.06 432.138V355.254L1277.67 359.463V442.794L1242.06 432.138Z" fill="url(#paint18_linear_840_102)"/>
<path d="M1243.07 356.448L1276.67 360.422V441.377L1243.07 431.328V356.448ZM1241.06 354.061V432.958L1278.68 444.211V358.515L1241.06 354.061Z" fill="#4B39E1"/>
<path d="M1279.68 357.705L1259.49 355.307H1295.78L1318.46 357.705H1279.68Z" fill="url(#paint19_linear_840_102)"/>
<path d="M1295.68 356.373L1298.11 356.628H1279.74L1277.58 356.373H1295.68ZM1295.78 354.241H1241.4L1279.62 358.781H1338.76L1295.78 354.241Z" fill="#4B39E1"/>
<path d="M1123.43 336.297H1065.58V400.478H1123.43V336.297Z" fill="url(#paint20_linear_840_102)"/>
<path d="M1122.4 337.394V399.37H1066.62V337.394H1122.4ZM1124.47 335.188H1064.55V401.576H1124.47V335.188Z" fill="#4B39E1"/>
<path d="M1024.05 385.144V331.086L1063.69 336.126V400.372L1024.05 385.144Z" fill="url(#paint21_linear_840_102)"/>
<path d="M1025.09 332.333L1062.65 337.117V398.805L1025.09 384.377V332.333ZM1023.02 329.839V385.922L1064.72 401.938V335.146L1023.02 329.839Z" fill="#4B39E1"/>
<path d="M1064.83 334.091L1040.6 331.033H1073.2L1102.98 334.091H1064.83Z" fill="url(#paint22_linear_840_102)"/>
<path d="M1073.1 332.141L1081.36 332.983H1064.9L1058.18 332.141H1073.1ZM1073.2 329.935H1023.02L1064.77 335.199H1124.55L1073.2 329.935Z" fill="#4B39E1"/>
<path d="M221.42 301.078H139.68V427.897H221.42V301.078Z" fill="url(#paint23_linear_840_102)"/>
<path d="M220.41 302.144V426.831H140.68V302.144H220.41ZM222.42 300.002H138.68V428.962H222.42V300.002Z" fill="#4B39E1"/>
<path d="M223.43 301.089L288.44 301.856V408.705L223.43 427.875V301.089Z" fill="url(#paint24_linear_840_102)"/>
<path d="M224.43 302.165L287.44 302.911V407.884L224.43 426.469V302.176M222.42 300.002V429.271L289.44 409.504V300.79L222.42 300.002Z" fill="#4B39E1"/>
<path d="M306.18 179.727H219.85V408.844H306.18V179.727Z" fill="url(#paint25_linear_840_102)"/>
<path d="M305.18 180.803V407.789H220.85V180.803H305.18ZM307.19 178.661H218.85V409.92H307.19V178.661Z" fill="#4B39E1"/>
<path d="M308.109 180.216L362.609 200.644V391.41L308.109 408.406V180.216Z" fill="url(#paint26_linear_840_102)"/>
<path d="M309.11 181.73L361.61 201.401V390.611L309.11 406.979V181.73ZM307.1 178.703V409.824L363.61 392.209V199.888L307.1 178.714V178.703Z" fill="#4B39E1"/>
<path d="M229.811 298.947V229.927L266.611 236.694V299.384L229.811 298.947Z" fill="url(#paint27_linear_840_102)"/>
<path d="M230.811 231.206L265.601 237.6V298.308L230.811 297.892V231.206ZM228.811 228.659V300.002L267.621 300.471V235.799L228.811 228.67V228.659Z" fill="#4B39E1"/>
<path d="M227.8 229.789H158.32V298.937H227.8V229.789Z" fill="url(#paint28_linear_840_102)"/>
<path d="M226.8 230.865V297.871H159.33V230.865H226.8ZM228.81 228.723H157.32V300.002H228.81V228.723Z" fill="#4B39E1"/>
<path d="M169.05 362.329H111.12V445.277H169.05V362.329Z" fill="url(#paint29_linear_840_102)"/>
<path d="M168.01 363.427V444.168H112.16V363.427H168.01ZM170.08 361.221H110.08V446.374H170.08V361.221Z" fill="#4B39E1"/>
<path d="M171 361.999L206.61 357.79V434.685L171 445.33V361.999Z" fill="url(#paint30_linear_840_102)"/>
<path d="M205.61 358.984V433.864L172.01 443.913V362.958L205.61 358.984ZM207.61 356.597L169.99 361.051V446.747L207.61 435.494V356.597Z" fill="#4B39E1"/>
<path d="M130.24 360.241L152.99 357.843H189.2L168.99 360.241H130.24Z" fill="url(#paint31_linear_840_102)"/>
<path d="M171.1 358.92L168.94 359.175H150.57L153 358.92H171.1ZM207.27 356.778H152.89L109.91 361.317H169.05L207.27 356.778Z" fill="#4B39E1"/>
<path d="M383.09 338.833H325.24V403.015H383.09V338.833Z" fill="url(#paint32_linear_840_102)"/>
<path d="M382.06 339.931V401.906H326.28V339.931H382.06ZM384.12 337.735H324.21V404.123H384.12V337.735Z" fill="#4B39E1"/>
<path d="M384.99 338.673L424.62 333.622V387.681L384.99 402.908V338.673Z" fill="url(#paint33_linear_840_102)"/>
<path d="M423.59 334.869V386.913L386.03 401.342V339.653L423.59 334.869ZM425.66 332.386L383.96 337.693V404.485L425.66 388.469V332.386Z" fill="#4B39E1"/>
<path d="M345.72 336.627L375.58 333.569L408.09 333.579L383.84 336.627H345.72Z" fill="url(#paint34_linear_840_102)"/>
<path d="M390.49 334.677L383.77 335.519H367.31L375.57 334.677H390.49ZM425.66 332.471H375.48L324.13 337.735H383.91L425.67 332.471H425.66Z" fill="#4B39E1"/>
<path d="M1763 545.977H-330.63L658.93 318.139H767.39L1763 545.977Z" stroke="#4B39E1" stroke-width="2" stroke-miterlimit="10"/>
<path d="M767.65 318.203H658.68" stroke="#4B39E1" stroke-width="2" stroke-miterlimit="10"/>
<path d="M767.91 318.267H658.42" stroke="#4B39E1" stroke-width="2" stroke-miterlimit="10"/>
<path d="M768.17 318.32H658.16" stroke="#4B39E1" stroke-width="2" stroke-miterlimit="10"/>
<path d="M768.44 318.384H657.89" stroke="#4B39E1" stroke-width="2" stroke-miterlimit="10"/>
<path d="M768.7 318.448H657.63" stroke="#4B39E1" stroke-width="2" stroke-miterlimit="10"/>
<path d="M768.97 318.501H657.36" stroke="#4B39E1" stroke-width="2" stroke-miterlimit="10"/>
<path d="M769.25 318.565H657.09" stroke="#4B39E1" stroke-width="2" stroke-miterlimit="10"/>
<path d="M769.52 318.629H656.81" stroke="#4B39E1" stroke-width="2" stroke-miterlimit="10"/>
<path d="M769.8 318.693H656.54" stroke="#4B39E1" stroke-width="2" stroke-miterlimit="10"/>
<path d="M770.08 318.757H656.26" stroke="#4B39E1" stroke-width="2" stroke-miterlimit="10"/>
<path d="M770.37 318.821H655.97" stroke="#4B39E1" stroke-width="2" stroke-miterlimit="10"/>
<path d="M770.65 318.885H655.69" stroke="#4B39E1" stroke-width="2" stroke-miterlimit="10"/>
<path d="M770.94 318.959H655.4" stroke="#4B39E1" stroke-width="2" stroke-miterlimit="10"/>
<path d="M771.24 319.023H655.11" stroke="#4B39E1" stroke-width="2" stroke-miterlimit="10"/>
<path d="M771.53 319.087H654.82" stroke="#4B39E1" stroke-width="2" stroke-miterlimit="10"/>
<path d="M771.83 319.162H654.52" stroke="#4B39E1" stroke-width="2" stroke-miterlimit="10"/>
<path d="M772.13 319.226H654.22" stroke="#4B39E1" stroke-width="2" stroke-miterlimit="10"/>
<path d="M772.44 319.3H653.92" stroke="#4B39E1" stroke-width="2" stroke-miterlimit="10"/>
<path d="M772.74 319.364H653.61" stroke="#4B39E1" stroke-width="2" stroke-miterlimit="10"/>
<path d="M773.06 319.439H653.3" stroke="#4B39E1" stroke-width="2" stroke-miterlimit="10"/>
<path d="M773.37 319.513H652.99" stroke="#4B39E1" stroke-width="2" stroke-miterlimit="10"/>
<path d="M773.69 319.588H652.67" stroke="#4B39E1" stroke-width="2" stroke-miterlimit="10"/>
<path d="M774.01 319.662H652.35" stroke="#4B39E1" stroke-width="2" stroke-miterlimit="10"/>
<path d="M774.33 319.737H652.03" stroke="#4B39E1" stroke-width="2" stroke-miterlimit="10"/>
<path d="M774.66 319.812H651.7" stroke="#4B39E1" stroke-width="2" stroke-miterlimit="10"/>
<path d="M774.99 319.886H651.38" stroke="#4B39E1" stroke-width="2" stroke-miterlimit="10"/>
<path d="M775.33 319.961H651.04" stroke="#4B39E1" stroke-width="2" stroke-miterlimit="10"/>
<path d="M775.67 320.035H650.71" stroke="#4B39E1" stroke-width="2" stroke-miterlimit="10"/>
<path d="M776.01 320.121H650.36" stroke="#4B39E1" stroke-width="2" stroke-miterlimit="10"/>
<path d="M776.36 320.195H650.02" stroke="#4B39E1" stroke-width="2" stroke-miterlimit="10"/>
<path d="M776.71 320.27H649.67" stroke="#4B39E1" stroke-width="2" stroke-miterlimit="10"/>
<path d="M777.06 320.355H649.32" stroke="#4B39E1" stroke-width="2" stroke-miterlimit="10"/>
<path d="M777.42 320.44H648.97" stroke="#4B39E1" stroke-width="2" stroke-miterlimit="10"/>
<path d="M777.78 320.526H648.61" stroke="#4B39E1" stroke-width="2" stroke-miterlimit="10"/>
<path d="M778.15 320.6H648.24" stroke="#4B39E1" stroke-width="2" stroke-miterlimit="10"/>
<path d="M778.52 320.685H647.87" stroke="#4B39E1" stroke-width="2" stroke-miterlimit="10"/>
<path d="M778.89 320.771H647.5" stroke="#4B39E1" stroke-width="2" stroke-miterlimit="10"/>
<path d="M779.27 320.867H647.12" stroke="#4B39E1" stroke-width="2" stroke-miterlimit="10"/>
<path d="M779.65 320.952H646.74" stroke="#4B39E1" stroke-width="2" stroke-miterlimit="10"/>
<path d="M780.04 321.037H646.36" stroke="#4B39E1" stroke-width="2" stroke-miterlimit="10"/>
<path d="M780.43 321.122H645.97" stroke="#4B39E1" stroke-width="2" stroke-miterlimit="10"/>
<path d="M780.83 321.218H645.57" stroke="#4B39E1" stroke-width="2" stroke-miterlimit="10"/>
<path d="M781.23 321.314H645.18" stroke="#4B39E1" stroke-width="2" stroke-miterlimit="10"/>
<path d="M781.64 321.399H644.77" stroke="#4B39E1" stroke-width="2" stroke-miterlimit="10"/>
<path d="M782.05 321.495H644.36" stroke="#4B39E1" stroke-width="2" stroke-miterlimit="10"/>
<path d="M782.46 321.591H643.95" stroke="#4B39E1" stroke-width="2" stroke-miterlimit="10"/>
<path d="M782.88 321.687H643.53" stroke="#4B39E1" stroke-width="2" stroke-miterlimit="10"/>
<path d="M783.31 321.783H643.11" stroke="#4B39E1" stroke-width="2" stroke-miterlimit="10"/>
<path d="M783.74 321.89H642.68" stroke="#4B39E1" stroke-width="2" stroke-miterlimit="10"/>
<path d="M784.18 321.985H642.25" stroke="#4B39E1" stroke-width="2" stroke-miterlimit="10"/>
<path d="M784.62 322.081H641.81" stroke="#4B39E1" stroke-width="2" stroke-miterlimit="10"/>
<path d="M785.07 322.188H641.36" stroke="#4B39E1" stroke-width="2" stroke-miterlimit="10"/>
<path d="M785.52 322.295H640.91" stroke="#4B39E1" stroke-width="2" stroke-miterlimit="10"/>
<path d="M785.98 322.401H640.45" stroke="#4B39E1" stroke-width="2" stroke-miterlimit="10"/>
<path d="M786.45 322.508H639.99" stroke="#4B39E1" stroke-width="2" stroke-miterlimit="10"/>
<path d="M786.92 322.614H639.52" stroke="#4B39E1" stroke-width="2" stroke-miterlimit="10"/>
<path d="M787.39 322.721H639.05" stroke="#4B39E1" stroke-width="2" stroke-miterlimit="10"/>
<path d="M787.88 322.827H638.57" stroke="#4B39E1" stroke-width="2" stroke-miterlimit="10"/>
<path d="M788.37 322.945H638.08" stroke="#4B39E1" stroke-width="2" stroke-miterlimit="10"/>
<path d="M788.86 323.062H637.59" stroke="#4B39E1" stroke-width="2" stroke-miterlimit="10"/>
<path d="M789.36 323.168H637.09" stroke="#4B39E1" stroke-width="2" stroke-miterlimit="10"/>
<path d="M789.87 323.286H636.58" stroke="#4B39E1" stroke-width="2" stroke-miterlimit="10"/>
<path d="M790.39 323.403H636.07" stroke="#4B39E1" stroke-width="2" stroke-miterlimit="10"/>
<path d="M790.91 323.531H635.55" stroke="#4B39E1" stroke-width="2" stroke-miterlimit="10"/>
<path d="M791.44 323.648H635.02" stroke="#4B39E1" stroke-width="2" stroke-miterlimit="10"/>
<path d="M791.98 323.776H634.49" stroke="#4B39E1" stroke-width="2" stroke-miterlimit="10"/>
<path d="M792.53 323.893H633.95" stroke="#4B39E1" stroke-width="2" stroke-miterlimit="10"/>
<path d="M793.08 324.021H633.4" stroke="#4B39E1" stroke-width="2" stroke-miterlimit="10"/>
<path d="M793.64 324.149H632.84" stroke="#4B39E1" stroke-width="2" stroke-miterlimit="10"/>
<path d="M794.21 324.277H632.28" stroke="#4B39E1" stroke-width="2" stroke-miterlimit="10"/>
<path d="M794.78 324.415H631.71" stroke="#4B39E1" stroke-width="2" stroke-miterlimit="10"/>
<path d="M795.37 324.543H631.13" stroke="#4B39E1" stroke-width="2" stroke-miterlimit="10"/>
<path d="M795.96 324.682H630.54" stroke="#4B39E1" stroke-width="2" stroke-miterlimit="10"/>
<path d="M796.56 324.82H629.94" stroke="#4B39E1" stroke-width="2" stroke-miterlimit="10"/>
<path d="M797.17 324.959H629.33" stroke="#4B39E1" stroke-width="2" stroke-miterlimit="10"/>
<path d="M797.79 325.097H628.72" stroke="#4B39E1" stroke-width="2" stroke-miterlimit="10"/>
<path d="M798.42 325.246H628.09" stroke="#4B39E1" stroke-width="2" stroke-miterlimit="10"/>
<path d="M799.05 325.385H627.46" stroke="#4B39E1" stroke-width="2" stroke-miterlimit="10"/>
<path d="M799.7 325.534H626.82" stroke="#4B39E1" stroke-width="2" stroke-miterlimit="10"/>
<path d="M800.36 325.683H626.16" stroke="#4B39E1" stroke-width="2" stroke-miterlimit="10"/>
<path d="M801.03 325.843H625.5" stroke="#4B39E1" stroke-width="2" stroke-miterlimit="10"/>
<path d="M801.7 325.992H624.83" stroke="#4B39E1" stroke-width="2" stroke-miterlimit="10"/>
<path d="M802.39 326.152H624.14" stroke="#4B39E1" stroke-width="2" stroke-miterlimit="10"/>
<path d="M803.09 326.312H623.45" stroke="#4B39E1" stroke-width="2" stroke-miterlimit="10"/>
<path d="M803.8 326.472H622.74" stroke="#4B39E1" stroke-width="2" stroke-miterlimit="10"/>
<path d="M804.52 326.642H622.03" stroke="#4B39E1" stroke-width="2" stroke-miterlimit="10"/>
<path d="M805.25 326.813H621.3" stroke="#4B39E1" stroke-width="2" stroke-miterlimit="10"/>
<path d="M806 326.973H620.56" stroke="#4B39E1" stroke-width="2" stroke-miterlimit="10"/>
<path d="M806.75 327.154H619.81" stroke="#4B39E1" stroke-width="2" stroke-miterlimit="10"/>
<path d="M807.52 327.324H619.04" stroke="#4B39E1" stroke-width="2" stroke-miterlimit="10"/>
<path d="M808.3 327.505H618.27" stroke="#4B39E1" stroke-width="2" stroke-miterlimit="10"/>
<path d="M809.1 327.687H617.48" stroke="#4B39E1" stroke-width="2" stroke-miterlimit="10"/>
<path d="M809.9 327.868H616.68" stroke="#4B39E1" stroke-width="2" stroke-miterlimit="10"/>
<path d="M810.73 328.06H615.86" stroke="#4B39E1" stroke-width="2" stroke-miterlimit="10"/>
<path d="M811.56 328.251H615.03" stroke="#4B39E1" stroke-width="2" stroke-miterlimit="10"/>
<path d="M812.41 328.443H614.18" stroke="#4B39E1" stroke-width="2" stroke-miterlimit="10"/>
<path d="M813.28 328.646H613.32" stroke="#4B39E1" stroke-width="2" stroke-miterlimit="10"/>
<path d="M814.16 328.848H612.45" stroke="#4B39E1" stroke-width="2" stroke-miterlimit="10"/>
<path d="M815.05 329.051H611.56" stroke="#4B39E1" stroke-width="2" stroke-miterlimit="10"/>
<path d="M815.96 329.264H610.65" stroke="#4B39E1" stroke-width="2" stroke-miterlimit="10"/>
<path d="M816.89 329.466H609.73" stroke="#4B39E1" stroke-width="2" stroke-miterlimit="10"/>
<path d="M817.83 329.69H608.79" stroke="#4B39E1" stroke-width="2" stroke-miterlimit="10"/>
<path d="M818.8 329.903H607.84" stroke="#4B39E1" stroke-width="2" stroke-miterlimit="10"/>
<path d="M819.78 330.127H606.86" stroke="#4B39E1" stroke-width="2" stroke-miterlimit="10"/>
<path d="M820.77 330.361H605.87" stroke="#4B39E1" stroke-width="2" stroke-miterlimit="10"/>
<path d="M821.79 330.596H604.86" stroke="#4B39E1" stroke-width="2" stroke-miterlimit="10"/>
<path d="M822.83 330.83H603.83" stroke="#4B39E1" stroke-width="2" stroke-miterlimit="10"/>
<path d="M823.88 331.075H602.78" stroke="#4B39E1" stroke-width="2" stroke-miterlimit="10"/>
<path d="M824.96 331.32H601.71" stroke="#4B39E1" stroke-width="2" stroke-miterlimit="10"/>
<path d="M826.06 331.565H600.62" stroke="#4B39E1" stroke-width="2" stroke-miterlimit="10"/>
<path d="M827.18 331.821H599.51" stroke="#4B39E1" stroke-width="2" stroke-miterlimit="10"/>
<path d="M828.32 332.088H598.37" stroke="#4B39E1" stroke-width="2" stroke-miterlimit="10"/>
<path d="M829.49 332.354H597.21" stroke="#4B39E1" stroke-width="2" stroke-miterlimit="10"/>
<path d="M830.67 332.62H596.03" stroke="#4B39E1" stroke-width="2" stroke-miterlimit="10"/>
<path d="M831.89 332.908H594.83" stroke="#4B39E1" stroke-width="2" stroke-miterlimit="10"/>
<path d="M833.13 333.185H593.59" stroke="#4B39E1" stroke-width="2" stroke-miterlimit="10"/>
<path d="M834.39 333.473H592.34" stroke="#4B39E1" stroke-width="2" stroke-miterlimit="10"/>
<path d="M835.68 333.771H591.05" stroke="#4B39E1" stroke-width="2" stroke-miterlimit="10"/>
<path d="M837 334.07H589.74" stroke="#4B39E1" stroke-width="2" stroke-miterlimit="10"/>
<path d="M838.35 334.379H588.4" stroke="#4B39E1" stroke-width="2" stroke-miterlimit="10"/>
<path d="M839.73 334.698H587.03" stroke="#4B39E1" stroke-width="2" stroke-miterlimit="10"/>
<path d="M841.14 335.018H585.63" stroke="#4B39E1" stroke-width="2" stroke-miterlimit="10"/>
<path d="M842.58 335.348H584.2" stroke="#4B39E1" stroke-width="2" stroke-miterlimit="10"/>
<path d="M844.05 335.689H582.74" stroke="#4B39E1" stroke-width="2" stroke-miterlimit="10"/>
<path d="M845.56 336.03H581.24" stroke="#4B39E1" stroke-width="2" stroke-miterlimit="10"/>
<path d="M847.1 336.382H579.71" stroke="#4B39E1" stroke-width="2" stroke-miterlimit="10"/>
<path d="M848.681 336.744H578.141" stroke="#4B39E1" stroke-width="2" stroke-miterlimit="10"/>
<path d="M850.29 337.117H576.53" stroke="#4B39E1" stroke-width="2" stroke-miterlimit="10"/>
<path d="M851.951 337.49H574.891" stroke="#4B39E1" stroke-width="2" stroke-miterlimit="10"/>
<path d="M853.64 337.884H573.2" stroke="#4B39E1" stroke-width="2" stroke-miterlimit="10"/>
<path d="M855.38 338.279H571.48" stroke="#4B39E1" stroke-width="2" stroke-miterlimit="10"/>
<path d="M857.16 338.684H569.71" stroke="#4B39E1" stroke-width="2" stroke-miterlimit="10"/>
<path d="M858.981 339.099H567.891" stroke="#4B39E1" stroke-width="2" stroke-miterlimit="10"/>
<path d="M860.86 339.536H566.03" stroke="#4B39E1" stroke-width="2" stroke-miterlimit="10"/>
<path d="M862.78 339.973H564.12" stroke="#4B39E1" stroke-width="2" stroke-miterlimit="10"/>
<path d="M864.75 340.421H562.17" stroke="#4B39E1" stroke-width="2" stroke-miterlimit="10"/>
<path d="M866.77 340.89H560.15" stroke="#4B39E1" stroke-width="2" stroke-miterlimit="10"/>
<path d="M868.85 341.358H558.09" stroke="#4B39E1" stroke-width="2" stroke-miterlimit="10"/>
<path d="M870.99 341.849H555.96" stroke="#4B39E1" stroke-width="2" stroke-miterlimit="10"/>
<path d="M873.18 342.349H553.78" stroke="#4B39E1" stroke-width="2" stroke-miterlimit="10"/>
<path d="M875.44 342.871H551.54" stroke="#4B39E1" stroke-width="2" stroke-miterlimit="10"/>
<path d="M877.76 343.404H549.23" stroke="#4B39E1" stroke-width="2" stroke-miterlimit="10"/>
<path d="M880.15 343.948H546.86" stroke="#4B39E1" stroke-width="2" stroke-miterlimit="10"/>
<path d="M882.61 344.513H544.42" stroke="#4B39E1" stroke-width="2" stroke-miterlimit="10"/>
<path d="M885.14 345.088H541.9" stroke="#4B39E1" stroke-width="2" stroke-miterlimit="10"/>
<path d="M887.751 345.685H539.311" stroke="#4B39E1" stroke-width="2" stroke-miterlimit="10"/>
<path d="M890.44 346.303H536.63" stroke="#4B39E1" stroke-width="2" stroke-miterlimit="10"/>
<path d="M893.21 346.932H533.88" stroke="#4B39E1" stroke-width="2" stroke-miterlimit="10"/>
<path d="M896.07 347.592H531.03" stroke="#4B39E1" stroke-width="2" stroke-miterlimit="10"/>
<path d="M899.02 348.264H528.1" stroke="#4B39E1" stroke-width="2" stroke-miterlimit="10"/>
<path d="M902.081 348.967H525.061" stroke="#4B39E1" stroke-width="2" stroke-miterlimit="10"/>
<path d="M905.23 349.691H521.93" stroke="#4B39E1" stroke-width="2" stroke-miterlimit="10"/>
<path d="M908.49 350.427H518.69" stroke="#4B39E1" stroke-width="2" stroke-miterlimit="10"/>
<path d="M911.86 351.205H515.34" stroke="#4B39E1" stroke-width="2" stroke-miterlimit="10"/>
<path d="M915.35 352.004H511.87" stroke="#4B39E1" stroke-width="2" stroke-miterlimit="10"/>
<path d="M918.96 352.824H508.28" stroke="#4B39E1" stroke-width="2" stroke-miterlimit="10"/>
<path d="M922.711 353.688H504.561" stroke="#4B39E1" stroke-width="2" stroke-miterlimit="10"/>
<path d="M926.59 354.572H500.69" stroke="#4B39E1" stroke-width="2" stroke-miterlimit="10"/>
<path d="M930.63 355.499H496.69" stroke="#4B39E1" stroke-width="2" stroke-miterlimit="10"/>
<path d="M934.81 356.458H492.53" stroke="#4B39E1" stroke-width="2" stroke-miterlimit="10"/>
<path d="M939.16 357.449H488.2" stroke="#4B39E1" stroke-width="2" stroke-miterlimit="10"/>
<path d="M943.69 358.483H483.7" stroke="#4B39E1" stroke-width="2" stroke-miterlimit="10"/>
<path d="M948.401 359.57H479.021" stroke="#4B39E1" stroke-width="2" stroke-miterlimit="10"/>
<path d="M953.3 360.688H474.15" stroke="#4B39E1" stroke-width="2" stroke-miterlimit="10"/>
<path d="M958.421 361.861H469.061" stroke="#4B39E1" stroke-width="2" stroke-miterlimit="10"/>
<path d="M963.76 363.075H463.76" stroke="#4B39E1" stroke-width="2" stroke-miterlimit="10"/>
<path d="M969.33 364.354H458.22" stroke="#4B39E1" stroke-width="2" stroke-miterlimit="10"/>
<path d="M975.16 365.686H452.42" stroke="#4B39E1" stroke-width="2" stroke-miterlimit="10"/>
<path d="M981.26 367.082H446.36" stroke="#4B39E1" stroke-width="2" stroke-miterlimit="10"/>
<path d="M987.65 368.553H440.01" stroke="#4B39E1" stroke-width="2" stroke-miterlimit="10"/>
<path d="M994.35 370.077H433.35" stroke="#4B39E1" stroke-width="2" stroke-miterlimit="10"/>
<path d="M1001.39 371.696H426.35" stroke="#4B39E1" stroke-width="2" stroke-miterlimit="10"/>
<path d="M1008.79 373.38H419" stroke="#4B39E1" stroke-width="2" stroke-miterlimit="10"/>
<path d="M1016.57 375.17H411.26" stroke="#4B39E1" stroke-width="2" stroke-miterlimit="10"/>
<path d="M1024.78 377.046H403.1" stroke="#4B39E1" stroke-width="2" stroke-miterlimit="10"/>
<path d="M1033.45 379.028H394.49" stroke="#4B39E1" stroke-width="2" stroke-miterlimit="10"/>
<path d="M1042.61 381.127H385.38" stroke="#4B39E1" stroke-width="2" stroke-miterlimit="10"/>
<path d="M1052.31 383.343H375.74" stroke="#4B39E1" stroke-width="2" stroke-miterlimit="10"/>
<path d="M1062.6 385.698H365.521" stroke="#4B39E1" stroke-width="2" stroke-miterlimit="10"/>
<path d="M1073.53 388.203H354.65" stroke="#4B39E1" stroke-width="2" stroke-miterlimit="10"/>
<path d="M1085.17 390.867H343.08" stroke="#4B39E1" stroke-width="2" stroke-miterlimit="10"/>
<path d="M1097.58 393.701H330.75" stroke="#4B39E1" stroke-width="2" stroke-miterlimit="10"/>
<path d="M1110.85 396.738H317.561" stroke="#4B39E1" stroke-width="2" stroke-miterlimit="10"/>
<path d="M1125.07 399.999H303.42" stroke="#4B39E1" stroke-width="2" stroke-miterlimit="10"/>
<path d="M1140.34 403.494H288.24" stroke="#4B39E1" stroke-width="2" stroke-miterlimit="10"/>
<path d="M1156.79 407.256H271.9" stroke="#4B39E1" stroke-width="2" stroke-miterlimit="10"/>
<path d="M1174.55 411.316H254.24" stroke="#4B39E1" stroke-width="2" stroke-miterlimit="10"/>
<path d="M1193.8 415.727H235.11" stroke="#4B39E1" stroke-width="2" stroke-miterlimit="10"/>
<path d="M1214.72 420.512H214.311" stroke="#4B39E1" stroke-width="2" stroke-miterlimit="10"/>
<path d="M1237.55 425.733H191.63" stroke="#4B39E1" stroke-width="2" stroke-miterlimit="10"/>
<path d="M1262.55 431.456H166.78" stroke="#4B39E1" stroke-width="2" stroke-miterlimit="10"/>
<path d="M1290.05 437.754H139.44" stroke="#4B39E1" stroke-width="2" stroke-miterlimit="10"/>
<path d="M1320.45 444.712H109.22" stroke="#4B39E1" stroke-width="2" stroke-miterlimit="10"/>
<path d="M1354.24 452.438H75.6504" stroke="#4B39E1" stroke-width="2" stroke-miterlimit="10"/>
<path d="M1392 461.08H38.1104" stroke="#4B39E1" stroke-width="2" stroke-miterlimit="10"/>
<path d="M1434.49 470.798H-4.12012" stroke="#4B39E1" stroke-width="2" stroke-miterlimit="10"/>
<path d="M1482.65 481.827H-51.9795" stroke="#4B39E1" stroke-width="2" stroke-miterlimit="10"/>
<path d="M1537.69 494.423H-106.7" stroke="#4B39E1" stroke-width="2" stroke-miterlimit="10"/>
<path d="M1601.22 508.958H-169.84" stroke="#4B39E1" stroke-width="2" stroke-miterlimit="10"/>
<path d="M1675.36 525.922H-243.53" stroke="#4B39E1" stroke-width="2" stroke-miterlimit="10"/>
<path d="M-250.11 545.977L663.1 318.139" stroke="#4B39E1" stroke-width="2" stroke-miterlimit="10"/>
<path d="M-169.58 545.977L667.28 318.139" stroke="#4B39E1" stroke-width="2" stroke-miterlimit="10"/>
<path d="M-89.0596 545.977L671.45 318.139" stroke="#4B39E1" stroke-width="2" stroke-miterlimit="10"/>
<path d="M-8.53979 545.977L675.62 318.139" stroke="#4B39E1" stroke-width="2" stroke-miterlimit="10"/>
<path d="M71.9902 545.977L679.79 318.139" stroke="#4B39E1" stroke-width="2" stroke-miterlimit="10"/>
<path d="M152.51 545.977L683.96 318.139" stroke="#4B39E1" stroke-width="2" stroke-miterlimit="10"/>
<path d="M233.04 545.977L688.13 318.139" stroke="#4B39E1" stroke-width="2" stroke-miterlimit="10"/>
<path d="M313.561 545.977L692.301 318.139" stroke="#4B39E1" stroke-width="2" stroke-miterlimit="10"/>
<path d="M394.09 545.977L696.48 318.139" stroke="#4B39E1" stroke-width="2" stroke-miterlimit="10"/>
<path d="M474.61 545.977L700.65 318.139" stroke="#4B39E1" stroke-width="2" stroke-miterlimit="10"/>
<path d="M555.13 545.977L704.82 318.139" stroke="#4B39E1" stroke-width="2" stroke-miterlimit="10"/>
<path d="M635.66 545.977L708.99 318.139" stroke="#4B39E1" stroke-width="2" stroke-miterlimit="10"/>
<path d="M716.18 545.977L713.16 318.139" stroke="#4B39E1" stroke-width="2" stroke-miterlimit="10"/>
<path d="M796.71 545.977L717.33 318.139" stroke="#4B39E1" stroke-width="2" stroke-miterlimit="10"/>
<path d="M877.23 545.977L721.5 318.139" stroke="#4B39E1" stroke-width="2" stroke-miterlimit="10"/>
<path d="M957.75 545.977L725.68 318.139" stroke="#4B39E1" stroke-width="2" stroke-miterlimit="10"/>
<path d="M1038.28 545.977L729.85 318.139" stroke="#4B39E1" stroke-width="2" stroke-miterlimit="10"/>
<path d="M1118.8 545.977L734.02 318.139" stroke="#4B39E1" stroke-width="2" stroke-miterlimit="10"/>
<path d="M1199.33 545.977L738.19 318.139" stroke="#4B39E1" stroke-width="2" stroke-miterlimit="10"/>
<path d="M1279.85 545.977L742.36 318.139" stroke="#4B39E1" stroke-width="2" stroke-miterlimit="10"/>
<path d="M1360.38 545.977L746.53 318.139" stroke="#4B39E1" stroke-width="2" stroke-miterlimit="10"/>
<path d="M1440.9 545.977L750.7 318.139" stroke="#4B39E1" stroke-width="2" stroke-miterlimit="10"/>
<path d="M1521.42 545.977L754.87 318.139" stroke="#4B39E1" stroke-width="2" stroke-miterlimit="10"/>
<path d="M1601.95 545.977L759.05 318.139" stroke="#4B39E1" stroke-width="2" stroke-miterlimit="10"/>
<path d="M1682.47 545.977L763.22 318.139" stroke="#4B39E1" stroke-width="2" stroke-miterlimit="10"/>
</g>
<defs>
<linearGradient id="paint0_linear_840_102" x1="721.5" y1="0" x2="721.5" y2="547" gradientUnits="userSpaceOnUse">
<stop stop-color="#090223"/>
<stop offset="1" stop-color="#3305C1"/>
</linearGradient>
<linearGradient id="paint1_linear_840_102" x1="1449.66" y1="77.4279" x2="1449.66" y2="515.618" gradientUnits="userSpaceOnUse">
<stop stop-color="#4B39E1" stop-opacity="0"/>
<stop offset="1" stop-color="#4B39E1"/>
</linearGradient>
<linearGradient id="paint2_linear_840_102" x1="1361.84" y1="219.314" x2="1361.84" y2="506.496" gradientUnits="userSpaceOnUse">
<stop stop-color="#4B39E1" stop-opacity="0"/>
<stop offset="1" stop-color="#4B39E1"/>
</linearGradient>
<linearGradient id="paint3_linear_840_102" x1="1418.52" y1="219.037" x2="1418.52" y2="506.219" gradientUnits="userSpaceOnUse">
<stop stop-color="#4B39E1" stop-opacity="0"/>
<stop offset="1" stop-color="#4B39E1"/>
</linearGradient>
<linearGradient id="paint4_linear_840_102" x1="1374.02" y1="174.377" x2="1374.02" y2="472.812" gradientUnits="userSpaceOnUse">
<stop stop-color="#4B39E1" stop-opacity="0"/>
<stop offset="1" stop-color="#4B39E1"/>
</linearGradient>
<linearGradient id="paint5_linear_840_102" x1="1452.53" y1="174.143" x2="1452.53" y2="472.482" gradientUnits="userSpaceOnUse">
<stop stop-color="#4B39E1" stop-opacity="0"/>
<stop offset="1" stop-color="#4B39E1"/>
</linearGradient>
<linearGradient id="paint6_linear_840_102" x1="-4.38944" y1="77.5663" x2="-4.38944" y2="515.767" gradientUnits="userSpaceOnUse">
<stop stop-color="#4B39E1" stop-opacity="0"/>
<stop offset="1" stop-color="#4B39E1"/>
</linearGradient>
<linearGradient id="paint7_linear_840_102" x1="83.4301" y1="219.453" x2="83.4301" y2="506.635" gradientUnits="userSpaceOnUse">
<stop stop-color="#4B39E1" stop-opacity="0"/>
<stop offset="1" stop-color="#4B39E1"/>
</linearGradient>
<linearGradient id="paint8_linear_840_102" x1="26.7503" y1="219.175" x2="26.7503" y2="506.358" gradientUnits="userSpaceOnUse">
<stop stop-color="#4B39E1" stop-opacity="0"/>
<stop offset="1" stop-color="#4B39E1"/>
</linearGradient>
<linearGradient id="paint9_linear_840_102" x1="71.2499" y1="174.516" x2="71.2499" y2="472.951" gradientUnits="userSpaceOnUse">
<stop stop-color="#4B39E1" stop-opacity="0"/>
<stop offset="1" stop-color="#4B39E1"/>
</linearGradient>
<linearGradient id="paint10_linear_840_102" x1="-7.25933" y1="174.281" x2="-7.25933" y2="472.62" gradientUnits="userSpaceOnUse">
<stop stop-color="#4B39E1" stop-opacity="0"/>
<stop offset="1" stop-color="#4B39E1"/>
</linearGradient>
<linearGradient id="paint11_linear_840_102" x1="1268.12" y1="298.532" x2="1268.12" y2="425.361" gradientUnits="userSpaceOnUse">
<stop stop-color="#4B39E1" stop-opacity="0"/>
<stop offset="1" stop-color="#4B39E1"/>
</linearGradient>
<linearGradient id="paint12_linear_840_102" x1="1192.74" y1="298.542" x2="1192.74" y2="425.329" gradientUnits="userSpaceOnUse">
<stop stop-color="#4B39E1" stop-opacity="0"/>
<stop offset="1" stop-color="#4B39E1"/>
</linearGradient>
<linearGradient id="paint13_linear_840_102" x1="1185.66" y1="177.19" x2="1185.66" y2="406.318" gradientUnits="userSpaceOnUse">
<stop stop-color="#4B39E1" stop-opacity="0"/>
<stop offset="1" stop-color="#4B39E1"/>
</linearGradient>
<linearGradient id="paint14_linear_840_102" x1="1113.32" y1="177.681" x2="1113.32" y2="405.86" gradientUnits="userSpaceOnUse">
<stop stop-color="#4B39E1" stop-opacity="0"/>
<stop offset="1" stop-color="#4B39E1"/>
</linearGradient>
<linearGradient id="paint15_linear_840_102" x1="1200.46" y1="227.391" x2="1200.46" y2="296.848" gradientUnits="userSpaceOnUse">
<stop stop-color="#4B39E1" stop-opacity="0"/>
<stop offset="1" stop-color="#4B39E1"/>
</linearGradient>
<linearGradient id="paint16_linear_840_102" x1="1255.61" y1="227.253" x2="1255.61" y2="296.4" gradientUnits="userSpaceOnUse">
<stop stop-color="#4B39E1" stop-opacity="0"/>
<stop offset="1" stop-color="#4B39E1"/>
</linearGradient>
<linearGradient id="paint17_linear_840_102" x1="1308.59" y1="359.783" x2="1308.59" y2="442.73" gradientUnits="userSpaceOnUse">
<stop stop-color="#4B39E1" stop-opacity="0"/>
<stop offset="1" stop-color="#4B39E1"/>
</linearGradient>
<linearGradient id="paint18_linear_840_102" x1="1259.87" y1="355.254" x2="1259.87" y2="442.794" gradientUnits="userSpaceOnUse">
<stop stop-color="#4B39E1" stop-opacity="0"/>
<stop offset="1" stop-color="#4B39E1"/>
</linearGradient>
<linearGradient id="paint19_linear_840_102" x1="1288.97" y1="355.307" x2="1288.97" y2="357.705" gradientUnits="userSpaceOnUse">
<stop stop-color="#4B39E1" stop-opacity="0"/>
<stop offset="1" stop-color="#4B39E1"/>
</linearGradient>
<linearGradient id="paint20_linear_840_102" x1="1094.51" y1="336.297" x2="1094.51" y2="400.478" gradientUnits="userSpaceOnUse">
<stop stop-color="#4B39E1" stop-opacity="0"/>
<stop offset="1" stop-color="#4B39E1"/>
</linearGradient>
<linearGradient id="paint21_linear_840_102" x1="1043.87" y1="331.086" x2="1043.87" y2="400.372" gradientUnits="userSpaceOnUse">
<stop stop-color="#4B39E1" stop-opacity="0"/>
<stop offset="1" stop-color="#4B39E1"/>
</linearGradient>
<linearGradient id="paint22_linear_840_102" x1="1071.79" y1="331.033" x2="1071.79" y2="334.091" gradientUnits="userSpaceOnUse">
<stop stop-color="#4B39E1" stop-opacity="0"/>
<stop offset="1" stop-color="#4B39E1"/>
</linearGradient>
<linearGradient id="paint23_linear_840_102" x1="180.55" y1="301.078" x2="180.55" y2="427.897" gradientUnits="userSpaceOnUse">
<stop stop-color="#4B39E1" stop-opacity="0"/>
<stop offset="1" stop-color="#4B39E1"/>
</linearGradient>
<linearGradient id="paint24_linear_840_102" x1="255.93" y1="301.089" x2="255.93" y2="427.875" gradientUnits="userSpaceOnUse">
<stop stop-color="#4B39E1" stop-opacity="0"/>
<stop offset="1" stop-color="#4B39E1"/>
</linearGradient>
<linearGradient id="paint25_linear_840_102" x1="263.01" y1="179.727" x2="263.01" y2="408.854" gradientUnits="userSpaceOnUse">
<stop stop-color="#4B39E1" stop-opacity="0"/>
<stop offset="1" stop-color="#4B39E1"/>
</linearGradient>
<linearGradient id="paint26_linear_840_102" x1="335.349" y1="180.216" x2="335.349" y2="408.406" gradientUnits="userSpaceOnUse">
<stop stop-color="#4B39E1" stop-opacity="0"/>
<stop offset="1" stop-color="#4B39E1"/>
</linearGradient>
<linearGradient id="paint27_linear_840_102" x1="248.211" y1="229.927" x2="248.211" y2="299.384" gradientUnits="userSpaceOnUse">
<stop stop-color="#4B39E1" stop-opacity="0"/>
<stop offset="1" stop-color="#4B39E1"/>
</linearGradient>
<linearGradient id="paint28_linear_840_102" x1="193.06" y1="229.789" x2="193.06" y2="298.937" gradientUnits="userSpaceOnUse">
<stop stop-color="#4B39E1" stop-opacity="0"/>
<stop offset="1" stop-color="#4B39E1"/>
</linearGradient>
<linearGradient id="paint29_linear_840_102" x1="140.08" y1="362.329" x2="140.08" y2="445.277" gradientUnits="userSpaceOnUse">
<stop stop-color="#4B39E1" stop-opacity="0"/>
<stop offset="1" stop-color="#4B39E1"/>
</linearGradient>
<linearGradient id="paint30_linear_840_102" x1="188.8" y1="357.79" x2="188.8" y2="445.33" gradientUnits="userSpaceOnUse">
<stop stop-color="#4B39E1" stop-opacity="0"/>
<stop offset="1" stop-color="#4B39E1"/>
</linearGradient>
<linearGradient id="paint31_linear_840_102" x1="159.72" y1="357.843" x2="159.72" y2="360.241" gradientUnits="userSpaceOnUse">
<stop stop-color="#4B39E1" stop-opacity="0"/>
<stop offset="1" stop-color="#4B39E1"/>
</linearGradient>
<linearGradient id="paint32_linear_840_102" x1="354.16" y1="338.833" x2="354.16" y2="403.015" gradientUnits="userSpaceOnUse">
<stop stop-color="#4B39E1" stop-opacity="0"/>
<stop offset="1" stop-color="#4B39E1"/>
</linearGradient>
<linearGradient id="paint33_linear_840_102" x1="404.8" y1="333.622" x2="404.8" y2="402.908" gradientUnits="userSpaceOnUse">
<stop stop-color="#4B39E1" stop-opacity="0"/>
<stop offset="1" stop-color="#4B39E1"/>
</linearGradient>
<linearGradient id="paint34_linear_840_102" x1="376.9" y1="333.569" x2="376.9" y2="336.627" gradientUnits="userSpaceOnUse">
<stop stop-color="#4B39E1" stop-opacity="0"/>
<stop offset="1" stop-color="#4B39E1"/>
</linearGradient>
<clipPath id="clip0_840_102">
<rect width="1441" height="471" fill="white" transform="translate(-4 76)"/>
</clipPath>
</defs>
</svg>
