<svg width="58" height="52" viewBox="0 0 58 52" fill="none" xmlns="http://www.w3.org/2000/svg">
<path d="M10.0143 40.9557C10.0143 39.4817 10.2844 38.3264 10.3144 37.1413C10.3144 36.7031 10.2244 36.484 9.8244 36.3247C7.8144 35.4981 5.89451 34.5021 4.18451 33.1477C2.32451 31.6737 0.794298 29.9409 0.214298 27.5806C-0.305702 25.4593 0.134464 23.4376 1.38446 21.645C3.20446 19.0357 5.77445 17.3626 8.62445 16.048C9.06445 15.8488 9.50429 15.6595 9.95429 15.4802C10.2243 15.3707 10.3844 15.2014 10.3444 14.8827C10.2244 13.9964 10.1344 13.09 10.1044 12.2037C9.96443 8.94704 10.3043 5.78005 12.2543 2.9915C13.8243 0.740743 17.1444 -0.384518 19.8344 0.123396C23.0744 0.730901 25.8044 2.26458 28.3644 4.2066C28.8244 4.55517 29.1244 4.52527 29.5744 4.18666C31.5544 2.66292 33.6744 1.36827 36.0744 0.611382C38.3244 -0.0957137 40.5744 -0.334776 42.8144 0.691011C45.0744 1.72676 46.3644 3.5792 47.0944 5.84988C47.6844 7.66243 47.8944 9.55454 47.8644 11.4567C47.8444 12.5323 47.7244 13.608 47.5844 14.6836C47.5244 15.1517 47.6644 15.3608 48.0944 15.5401C50.8544 16.6953 53.4343 18.1294 55.4943 20.3602C57.3243 22.352 58.2143 24.6327 57.7543 27.3316C57.4743 28.935 56.6144 30.2596 55.5444 31.4547C53.6044 33.6158 51.1243 35.01 48.4943 36.1553C47.5543 36.5736 47.5244 36.4542 47.6144 37.47C47.6844 38.3066 47.8344 39.143 47.8544 39.9696C47.9044 42.4893 47.6344 44.9692 46.5744 47.2897C45.6044 49.4209 44.0243 50.9346 41.7343 51.5521C40.6443 51.8508 39.5144 51.9007 38.3444 51.7413C34.9244 51.2932 32.1443 49.5603 29.4643 47.5983C29.0943 47.3294 28.8543 47.2995 28.4743 47.5884C26.4143 49.132 24.2643 50.5363 21.7643 51.2733C19.3143 52.0003 16.8844 52.2094 14.5444 50.8749C12.5944 49.7694 11.4944 48.0166 10.8144 45.975C10.2444 44.262 10.1444 42.4496 10.0344 40.9557H10.0143ZM29.0043 15.1118C27.2443 15.1616 25.4743 15.0819 23.7143 15.2911C22.8743 15.3907 22.4144 15.779 22.0544 16.4363C22.0144 16.506 21.9745 16.5758 21.9245 16.6355C20.0045 19.3344 18.4443 22.2425 16.9943 25.2003C16.7743 25.6584 16.7643 26.0967 16.9943 26.5747C18.5343 29.8811 20.3643 33.0182 22.4743 36.0059C22.6343 36.235 22.7944 36.464 23.1144 36.4939C24.1344 36.5736 25.1545 36.7329 26.1745 36.7329C28.9445 36.7329 31.7143 36.8823 34.4743 36.5238C34.9143 36.4641 35.2043 36.3347 35.4643 35.9761C37.4443 33.1776 39.1545 30.2198 40.6545 27.1325C40.8945 26.6345 41.2943 26.1266 40.9943 25.4992C40.8143 25.1207 40.6643 24.7323 40.4743 24.3538C39.0843 21.5354 37.5043 18.8265 35.7243 16.2371C35.4143 15.789 35.0945 15.4304 34.4245 15.3308C32.6245 15.0719 30.8143 15.1815 29.0143 15.1217L29.0043 15.1118ZM12.9145 10.8592C12.9445 11.9049 13.0344 12.7614 13.1144 13.6179C13.1744 14.2354 13.4443 14.2752 13.9543 14.1258C16.1643 13.4586 18.4243 13.0502 20.7143 12.7315C21.0743 12.6817 21.3444 12.5423 21.5744 12.2535C22.9744 10.4808 24.4544 8.76787 26.0944 7.19433C26.7044 6.60674 26.8443 6.58673 25.9843 5.97923C24.0943 4.63475 22.1044 3.49945 19.7944 3.03137C17.2544 2.5135 15.2043 3.23054 14.0143 5.63068C13.1643 7.33369 13.0445 9.19605 12.9345 10.8692L12.9145 10.8592ZM44.9643 11.178C44.9543 9.55464 44.7644 8.08067 44.3244 6.67644C43.7544 4.84396 42.6645 3.43967 40.6545 3.00147C39.5245 2.75249 38.4144 2.88203 37.3244 3.20072C35.2244 3.81819 33.3444 4.88383 31.6144 6.20839C31.3544 6.40757 31.1543 6.59675 31.4943 6.91545C33.2543 8.58857 34.8444 10.4111 36.3544 12.3034C36.5244 12.5225 36.7143 12.6618 36.9943 12.7016C39.3943 13.0402 41.7744 13.4586 44.1044 14.1657C44.5144 14.2952 44.6843 14.1557 44.7443 13.7274C44.8643 12.8311 44.9243 11.9448 44.9543 11.178H44.9643ZM54.9743 25.8974C54.9743 25.7779 54.9743 25.6584 54.9743 25.5389C54.9743 25.4393 54.9445 25.3398 54.9245 25.2402C54.6445 23.5571 53.5944 22.352 52.3644 21.2963C50.9044 20.0514 49.2343 19.1353 47.4743 18.3784C47.0543 18.1991 46.8843 18.2588 46.7643 18.7269C46.1543 20.9378 45.5244 23.1488 44.5744 25.2502C44.4044 25.6286 44.3544 26.007 44.5244 26.4153C45.4444 28.6063 46.2044 30.8571 46.7744 33.1676C46.8744 33.5859 47.0245 33.6258 47.4045 33.4664C49.3945 32.6299 51.2844 31.614 52.8444 30.1102C54.0344 28.9649 54.9743 27.6502 54.9743 25.8974ZM44.9743 40.8063C44.9243 39.91 44.8643 39.0535 44.7643 38.207C44.6943 37.6293 44.4245 37.5696 43.9445 37.709C42.9445 37.9978 41.9245 38.2269 40.9145 38.4559C39.6045 38.7448 38.2743 38.924 36.9543 39.153C36.7643 39.1829 36.6043 39.2526 36.4843 39.402C34.9243 41.3341 33.3243 43.2363 31.5043 44.9393C31.2243 45.1983 31.2744 45.3974 31.5744 45.6165C33.6844 47.1103 35.8743 48.4549 38.4643 48.903C40.6143 49.2715 42.5843 48.6241 43.7443 46.463C44.7043 44.6803 44.8743 42.7383 44.9743 40.8063ZM13.4943 25.8876C13.4443 25.7183 13.4244 25.4891 13.3344 25.2899C12.3744 23.1487 11.7244 20.908 11.1144 18.6473C11.0044 18.229 10.8043 18.1891 10.4643 18.3584C9.7443 18.707 9.00438 19.0258 8.30439 19.4142C6.55439 20.3802 4.92437 21.5155 3.78437 23.1985C2.60437 24.9613 2.63439 26.8237 3.80439 28.5864C5.45439 31.0463 7.96439 32.331 10.5544 33.5062C10.9344 33.6755 11.0344 33.4763 11.1144 33.1477C11.6244 31.1359 12.2544 29.1541 13.0344 27.2221C13.2044 26.8038 13.4343 26.3955 13.4943 25.8776V25.8876ZM12.9145 40.7365C12.9945 42.3997 13.1443 44.0629 13.7543 45.6464C14.7843 48.3154 17.0544 49.4606 19.8344 48.8033C22.2344 48.2357 24.2843 47.0207 26.2643 45.6364C26.6743 45.3576 26.6144 45.1384 26.2944 44.8396C24.5644 43.2263 23.0144 41.4337 21.5444 39.5813C21.3244 39.3124 21.0743 39.163 20.7443 39.1132C20.1043 39.0235 19.4744 38.9439 18.8444 38.8145C17.1544 38.4758 15.4644 38.1771 13.8144 37.6691C13.3844 37.5297 13.1945 37.6791 13.1345 38.1272C13.0145 38.9837 12.9645 39.8402 12.9145 40.7166V40.7365ZM39.0844 35.8565C40.7944 35.6474 42.3244 35.249 43.8444 34.7511C44.1644 34.6415 44.1444 34.3827 44.0644 34.1038C43.6944 32.7992 43.3945 31.4746 42.8745 30.2198C42.8145 30.0803 42.8745 29.8413 42.6745 29.8313C42.4545 29.8114 42.4244 30.0604 42.3444 30.2098C41.4644 31.7833 40.6445 33.3767 39.6345 34.8805C39.4545 35.1594 39.3144 35.4582 39.0844 35.8764V35.8565ZM18.8144 15.9483C17.1544 16.2072 15.6144 16.5956 14.0944 17.0836C13.8244 17.1633 13.7344 17.3925 13.8044 17.6614C14.1744 19.0058 14.5044 20.3602 15.0244 21.6648C15.0744 21.7843 15.0643 21.9736 15.2343 22.0035C15.4543 22.0433 15.4644 21.8242 15.5344 21.6947C16.2544 20.4299 16.9945 19.1652 17.6945 17.8904C18.0345 17.263 18.5344 16.7351 18.8144 15.9583V15.9483ZM18.2944 35.8168C18.4944 35.8367 18.6345 35.9163 18.6945 35.7669C18.7245 35.6972 18.6745 35.5777 18.6245 35.498C17.5145 33.7153 16.4543 31.9028 15.4743 30.0404C15.4143 29.9309 15.3643 29.8014 15.2243 29.8114C15.0643 29.8214 15.0944 29.9807 15.0544 30.0903C14.5444 31.3949 14.2044 32.7494 13.8244 34.0939C13.7144 34.5022 13.8543 34.7013 14.2243 34.8109C15.5843 35.2391 16.9644 35.5678 18.2844 35.8068L18.2944 35.8168ZM39.0744 15.9682C39.1544 16.1475 39.1843 16.2471 39.2343 16.3267C40.3843 18.0795 41.3945 19.9121 42.3945 21.7645C42.4545 21.8641 42.4845 22.0135 42.6245 22.0035C42.8045 22.0035 42.8044 21.8142 42.8544 21.6947C43.3744 20.4 43.7044 19.0356 44.0844 17.7011C44.2044 17.2828 43.9544 17.0936 43.6144 17.004C42.1444 16.6256 40.6844 16.1973 39.0644 15.9682H39.0744ZM25.7643 39.5514C25.6643 39.5415 25.5443 39.5115 25.4943 39.6011C25.4143 39.7605 25.5445 39.8601 25.6245 39.9696C26.5245 41.0651 27.4844 42.1109 28.5444 43.057C28.8144 43.2961 29.0444 43.3358 29.3244 43.0769C30.3944 42.1108 31.3644 41.0553 32.2844 39.9398C32.3644 39.8502 32.4645 39.7505 32.4145 39.6211C32.3445 39.4418 32.1744 39.5016 32.0444 39.5115C29.9544 39.7306 27.8543 39.8004 25.7643 39.5315V39.5514ZM31.8344 12.2336C31.9644 12.2137 32.2144 12.3232 32.3144 12.1041C32.3944 11.9248 32.2044 11.7755 32.0944 11.646C31.2644 10.68 30.3643 9.76371 29.4543 8.86739C29.0943 8.50886 28.7745 8.53875 28.4245 8.87736C27.5245 9.76372 26.6444 10.66 25.8244 11.6161C25.7044 11.7555 25.4844 11.9149 25.5944 12.124C25.7044 12.3332 25.9545 12.2535 26.1445 12.2435C28.0245 12.1041 29.9044 12.0842 31.8444 12.2435L31.8344 12.2336Z" fill="#05C174"/>
<path d="M28.9646 20.41C31.9246 20.3403 34.4946 22.83 34.4946 25.8775C34.4946 28.9748 32.0248 31.4446 28.9148 31.4446C25.8548 31.4446 23.3948 28.9648 23.3848 25.8875C23.3848 22.84 25.9446 20.3104 28.9646 20.4V20.41Z" fill="#05C174"/>
</svg>
